<?xml version="1.0" encoding="UTF-8" standalone="no"?>
<!DOCTYPE svg PUBLIC "-//W3C//DTD SVG 1.1//EN"
 "http://www.w3.org/Graphics/SVG/1.1/DTD/svg11.dtd">
<!-- Generated by graphviz version 2.49.0 (20210828.1703)
 -->
<!-- Title: MainUIController.Start Pages: 1 -->
<svg width="506pt" height="104pt"
 viewBox="0.00 0.00 506.00 104.00" xmlns="http://www.w3.org/2000/svg" xmlns:xlink="http://www.w3.org/1999/xlink">
<g id="graph0" class="graph" transform="scale(1 1) rotate(0) translate(4 100)">
<title>MainUIController.Start</title>
<polygon fill="white" stroke="transparent" points="-4,4 -4,-100 502,-100 502,4 -4,4"/>
<!-- Node1 -->
<g id="node1" class="node">
<title>Node1</title>
<g id="a_node1"><a xlink:title="Llamada justo antes del primer fotograma">
<polygon fill="#bfbfbf" stroke="black" points="0,-38.5 0,-57.5 112,-57.5 112,-38.5 0,-38.5"/>
<text text-anchor="middle" x="56" y="-45.5" font-family="Helvetica,sans-Serif" font-size="10.00">MainUIController.Start</text>
</a>
</g>
</g>
<!-- Node2 -->
<g id="node2" class="node">
<title>Node2</title>
<g id="a_node2"><a xlink:href="../../d1/da2/class_user_manager.html#a7c046e0a03e5802e7b1936f6ecdefe9e" target="_top" xlink:title="Evalua si el usuario actual esta registrado">
<polygon fill="white" stroke="black" points="148,-76.5 148,-95.5 300,-95.5 300,-76.5 148,-76.5"/>
<text text-anchor="middle" x="224" y="-83.5" font-family="Helvetica,sans-Serif" font-size="10.00">UserManager.IsUserRegistered</text>
</a>
</g>
</g>
<!-- Node1&#45;&gt;Node2 -->
<g id="edge1" class="edge">
<title>Node1&#45;&gt;Node2</title>
<path fill="none" stroke="midnightblue" d="M98.89,-57.59C120.89,-62.63 148.05,-68.84 171.35,-74.18"/>
<polygon fill="midnightblue" stroke="midnightblue" points="170.88,-77.66 181.41,-76.48 172.45,-70.84 170.88,-77.66"/>
</g>
<!-- Node3 -->
<g id="node3" class="node">
<title>Node3</title>
<g id="a_node3"><a xlink:href="../../d3/dda/class_my_scene_manager.html#a6787f49b73d5e0c4e80fd67d38f5550a" target="_top" xlink:title="Carga la escena seleccionada">
<polygon fill="white" stroke="black" points="150.5,-38.5 150.5,-57.5 297.5,-57.5 297.5,-38.5 150.5,-38.5"/>
<text text-anchor="middle" x="224" y="-45.5" font-family="Helvetica,sans-Serif" font-size="10.00">MySceneManager.LoadScene</text>
</a>
</g>
</g>
<!-- Node1&#45;&gt;Node3 -->
<g id="edge2" class="edge">
<title>Node1&#45;&gt;Node3</title>
<path fill="none" stroke="midnightblue" d="M112.28,-48C121.21,-48 130.63,-48 140.05,-48"/>
<polygon fill="midnightblue" stroke="midnightblue" points="140.24,-51.5 150.24,-48 140.24,-44.5 140.24,-51.5"/>
</g>
<!-- Node4 -->
<g id="node4" class="node">
<title>Node4</title>
<g id="a_node4"><a xlink:href="../../d1/da2/class_user_manager.html#abc0325360c77d2c099e7807a3c1ff0fa" target="_top" xlink:title="Cierra la sesion del usario actualmente logueado">
<polygon fill="white" stroke="black" points="169.5,-0.5 169.5,-19.5 278.5,-19.5 278.5,-0.5 169.5,-0.5"/>
<text text-anchor="middle" x="224" y="-7.5" font-family="Helvetica,sans-Serif" font-size="10.00">UserManager.LogOut</text>
</a>
</g>
</g>
<!-- Node1&#45;&gt;Node4 -->
<g id="edge3" class="edge">
<title>Node1&#45;&gt;Node4</title>
<path fill="none" stroke="midnightblue" d="M98.89,-38.41C120.89,-33.37 148.05,-27.16 171.35,-21.82"/>
<polygon fill="midnightblue" stroke="midnightblue" points="172.45,-25.16 181.41,-19.52 170.88,-18.34 172.45,-25.16"/>
</g>
<!-- Node5 -->
<g id="node5" class="node">
<title>Node5</title>
<g id="a_node5"><a xlink:href="../../d5/dd7/class_database_manager.html#ad451c9f92dbd5668a0d8198ffdb055e7" target="_top" xlink:title="Elimina el userID de un usuario">
<polygon fill="white" stroke="black" points="336,-0.5 336,-19.5 498,-19.5 498,-0.5 336,-0.5"/>
<text text-anchor="middle" x="417" y="-7.5" font-family="Helvetica,sans-Serif" font-size="10.00">DatabaseManager.RemoveUserID</text>
</a>
</g>
</g>
<!-- Node4&#45;&gt;Node5 -->
<g id="edge4" class="edge">
<title>Node4&#45;&gt;Node5</title>
<path fill="none" stroke="midnightblue" d="M278.71,-10C293.42,-10 309.78,-10 325.93,-10"/>
<polygon fill="midnightblue" stroke="midnightblue" points="325.95,-13.5 335.95,-10 325.95,-6.5 325.95,-13.5"/>
</g>
</g>
</svg>
