<?xml version="1.0" encoding="UTF-8" standalone="no"?>
<!DOCTYPE svg PUBLIC "-//W3C//DTD SVG 1.1//EN"
 "http://www.w3.org/Graphics/SVG/1.1/DTD/svg11.dtd">
<!-- Generated by graphviz version 2.49.0 (20210828.1703)
 -->
<!-- Title: AppEntryPoint.Awake Pages: 1 -->
<svg width="688pt" height="79pt"
 viewBox="0.00 0.00 688.00 79.10" xmlns="http://www.w3.org/2000/svg" xmlns:xlink="http://www.w3.org/1999/xlink">
<g id="graph0" class="graph" transform="scale(1 1) rotate(0) translate(4 75.1)">
<title>AppEntryPoint.Awake</title>
<polygon fill="white" stroke="transparent" points="-4,4 -4,-75.1 684,-75.1 684,4 -4,4"/>
<!-- Node1 -->
<g id="node1" class="node">
<title>Node1</title>
<g id="a_node1"><a xlink:title="Llamada al crear el GameObject asociado">
<polygon fill="#bfbfbf" stroke="black" points="0,-38.5 0,-57.5 112,-57.5 112,-38.5 0,-38.5"/>
<text text-anchor="middle" x="56" y="-45.5" font-family="Helvetica,sans-Serif" font-size="10.00">AppEntryPoint.Awake</text>
</a>
</g>
</g>
<!-- Node2 -->
<g id="node2" class="node">
<title>Node2</title>
<g id="a_node2"><a xlink:href="../../d0/dda/class_app_entry_point.html#a31fdab16b3f5f842587ae877d564b041" target="_top" xlink:title="Lanzado cuando Firebase esta inicializado">
<polygon fill="white" stroke="black" points="148,-38.5 148,-57.5 309,-57.5 309,-38.5 148,-38.5"/>
<text text-anchor="middle" x="228.5" y="-45.5" font-family="Helvetica,sans-Serif" font-size="10.00">AppEntryPoint.OnFirebaseReady</text>
</a>
</g>
</g>
<!-- Node1&#45;&gt;Node2 -->
<g id="edge1" class="edge">
<title>Node1&#45;&gt;Node2</title>
<path fill="none" stroke="midnightblue" d="M112.36,-48C120.53,-48 129.13,-48 137.79,-48"/>
<polygon fill="midnightblue" stroke="midnightblue" points="137.96,-51.5 147.96,-48 137.96,-44.5 137.96,-51.5"/>
</g>
<!-- Node3 -->
<g id="node3" class="node">
<title>Node3</title>
<g id="a_node3"><a xlink:href="../../d1/da2/class_user_manager.html#a7c046e0a03e5802e7b1936f6ecdefe9e" target="_top" xlink:title="Evalua si el usuario actual esta registrado">
<polygon fill="white" stroke="black" points="528,-38.5 528,-57.5 680,-57.5 680,-38.5 528,-38.5"/>
<text text-anchor="middle" x="604" y="-45.5" font-family="Helvetica,sans-Serif" font-size="10.00">UserManager.IsUserRegistered</text>
</a>
</g>
</g>
<!-- Node2&#45;&gt;Node3 -->
<g id="edge2" class="edge">
<title>Node2&#45;&gt;Node3</title>
<path fill="none" stroke="midnightblue" d="M276.49,-57.51C297.37,-61.28 322.32,-65.15 345,-67 410.12,-72.32 426.9,-72.53 492,-67 510.24,-65.45 529.98,-62.49 547.69,-59.36"/>
<polygon fill="midnightblue" stroke="midnightblue" points="548.65,-62.75 557.86,-57.51 547.39,-55.86 548.65,-62.75"/>
</g>
<!-- Node4 -->
<g id="node4" class="node">
<title>Node4</title>
<g id="a_node4"><a xlink:href="../../d3/dda/class_my_scene_manager.html#a6787f49b73d5e0c4e80fd67d38f5550a" target="_top" xlink:title="Carga la escena seleccionada">
<polygon fill="white" stroke="black" points="345,-38.5 345,-57.5 492,-57.5 492,-38.5 345,-38.5"/>
<text text-anchor="middle" x="418.5" y="-45.5" font-family="Helvetica,sans-Serif" font-size="10.00">MySceneManager.LoadScene</text>
</a>
</g>
</g>
<!-- Node2&#45;&gt;Node4 -->
<g id="edge3" class="edge">
<title>Node2&#45;&gt;Node4</title>
<path fill="none" stroke="midnightblue" d="M309.23,-48C317.62,-48 326.18,-48 334.61,-48"/>
<polygon fill="midnightblue" stroke="midnightblue" points="334.81,-51.5 344.81,-48 334.81,-44.5 334.81,-51.5"/>
</g>
<!-- Node5 -->
<g id="node5" class="node">
<title>Node5</title>
<g id="a_node5"><a xlink:href="../../d1/da2/class_user_manager.html#a13aa0147d1c05e969538d0c96a0a060c" target="_top" xlink:title="Loguea al usuario actual">
<polygon fill="white" stroke="black" points="368,-0.5 368,-19.5 469,-19.5 469,-0.5 368,-0.5"/>
<text text-anchor="middle" x="418.5" y="-7.5" font-family="Helvetica,sans-Serif" font-size="10.00">UserManager.LogIn</text>
</a>
</g>
</g>
<!-- Node2&#45;&gt;Node5 -->
<g id="edge4" class="edge">
<title>Node2&#45;&gt;Node5</title>
<path fill="none" stroke="midnightblue" d="M276.94,-38.41C302.31,-33.28 333.73,-26.93 360.42,-21.54"/>
<polygon fill="midnightblue" stroke="midnightblue" points="361.29,-24.93 370.4,-19.52 359.91,-18.07 361.29,-24.93"/>
</g>
<!-- Node5&#45;&gt;Node3 -->
<g id="edge5" class="edge">
<title>Node5&#45;&gt;Node3</title>
<path fill="none" stroke="midnightblue" d="M465.8,-19.59C490.46,-24.69 520.96,-31.01 546.94,-36.39"/>
<polygon fill="midnightblue" stroke="midnightblue" points="546.53,-39.88 557.03,-38.48 547.95,-33.02 546.53,-39.88"/>
</g>
</g>
</svg>
