<?xml version="1.0" encoding="UTF-8" standalone="no"?>
<!DOCTYPE svg PUBLIC "-//W3C//DTD SVG 1.1//EN"
 "http://www.w3.org/Graphics/SVG/1.1/DTD/svg11.dtd">
<!-- Generated by graphviz version 2.49.0 (20210828.1703)
 -->
<!-- Title: ARBrush.Update Pages: 1 -->
<svg width="280pt" height="104pt"
 viewBox="0.00 0.00 280.00 104.00" xmlns="http://www.w3.org/2000/svg" xmlns:xlink="http://www.w3.org/1999/xlink">
<g id="graph0" class="graph" transform="scale(1 1) rotate(0) translate(4 100)">
<title>ARBrush.Update</title>
<polygon fill="white" stroke="transparent" points="-4,4 -4,-100 276,-100 276,4 -4,4"/>
<!-- Node1 -->
<g id="node1" class="node">
<title>Node1</title>
<g id="a_node1"><a xlink:title="Llamada al comienzo de cada fotograma">
<polygon fill="#bfbfbf" stroke="black" points="0,-38.5 0,-57.5 89,-57.5 89,-38.5 0,-38.5"/>
<text text-anchor="middle" x="44.5" y="-45.5" font-family="Helvetica,sans-Serif" font-size="10.00">ARBrush.Update</text>
</a>
</g>
</g>
<!-- Node2 -->
<g id="node2" class="node">
<title>Node2</title>
<g id="a_node2"><a xlink:href="../../da/d70/class_a_r_brush.html#a04bbb34c0f1929faffb5da791891d40e" target="_top" xlink:title="Crea el comienzo de la linea a dibujar">
<polygon fill="white" stroke="black" points="136,-76.5 136,-95.5 261,-95.5 261,-76.5 136,-76.5"/>
<text text-anchor="middle" x="198.5" y="-83.5" font-family="Helvetica,sans-Serif" font-size="10.00">ARBrush.createLineStart</text>
</a>
</g>
</g>
<!-- Node1&#45;&gt;Node2 -->
<g id="edge1" class="edge">
<title>Node1&#45;&gt;Node2</title>
<path fill="none" stroke="midnightblue" d="M83.86,-57.59C103.82,-62.58 128.43,-68.73 149.63,-74.03"/>
<polygon fill="midnightblue" stroke="midnightblue" points="148.87,-77.45 159.42,-76.48 150.57,-70.66 148.87,-77.45"/>
</g>
<!-- Node3 -->
<g id="node3" class="node">
<title>Node3</title>
<g id="a_node3"><a xlink:href="../../da/d70/class_a_r_brush.html#a8f61277630b09d7c276ff81d937216e9" target="_top" xlink:title="Coloca el siguiente punto en la linea que se esta dibujando actualmente">
<polygon fill="white" stroke="black" points="125,-38.5 125,-57.5 272,-57.5 272,-38.5 125,-38.5"/>
<text text-anchor="middle" x="198.5" y="-45.5" font-family="Helvetica,sans-Serif" font-size="10.00">ARBrush.drawNextPointInLine</text>
</a>
</g>
</g>
<!-- Node1&#45;&gt;Node3 -->
<g id="edge2" class="edge">
<title>Node1&#45;&gt;Node3</title>
<path fill="none" stroke="midnightblue" d="M89.06,-48C97.22,-48 105.99,-48 114.88,-48"/>
<polygon fill="midnightblue" stroke="midnightblue" points="114.95,-51.5 124.95,-48 114.95,-44.5 114.95,-51.5"/>
</g>
<!-- Node4 -->
<g id="node4" class="node">
<title>Node4</title>
<g id="a_node4"><a xlink:href="../../d7/d5d/class_a_r_tool_manager.html#a86782ee29e1327a2f4ab387d8438c6a7" target="_top" xlink:title="Coloca una guía en un trazo o marcador del par selecionado">
<polygon fill="white" stroke="black" points="129,-0.5 129,-19.5 268,-19.5 268,-0.5 129,-0.5"/>
<text text-anchor="middle" x="198.5" y="-7.5" font-family="Helvetica,sans-Serif" font-size="10.00">ARToolManager.PlaceGuide</text>
</a>
</g>
</g>
<!-- Node1&#45;&gt;Node4 -->
<g id="edge3" class="edge">
<title>Node1&#45;&gt;Node4</title>
<path fill="none" stroke="midnightblue" d="M83.86,-38.41C103.82,-33.42 128.43,-27.27 149.63,-21.97"/>
<polygon fill="midnightblue" stroke="midnightblue" points="150.57,-25.34 159.42,-19.52 148.87,-18.55 150.57,-25.34"/>
</g>
</g>
</svg>
