<?xml version="1.0" encoding="UTF-8" standalone="no"?>
<!DOCTYPE svg PUBLIC "-//W3C//DTD SVG 1.1//EN"
 "http://www.w3.org/Graphics/SVG/1.1/DTD/svg11.dtd">
<!-- Generated by graphviz version 2.49.0 (20210828.1703)
 -->
<!-- Title: BackButtonController.Update Pages: 1 -->
<svg width="345pt" height="66pt"
 viewBox="0.00 0.00 345.00 66.00" xmlns="http://www.w3.org/2000/svg" xmlns:xlink="http://www.w3.org/1999/xlink">
<g id="graph0" class="graph" transform="scale(1 1) rotate(0) translate(4 62)">
<title>BackButtonController.Update</title>
<polygon fill="white" stroke="transparent" points="-4,4 -4,-62 341,-62 341,4 -4,4"/>
<!-- Node1 -->
<g id="node1" class="node">
<title>Node1</title>
<g id="a_node1"><a xlink:title="Llamada al comienzo de cada fotograma Comprueba si se ha pulsado el botón de retroceso en Android o l...">
<polygon fill="#bfbfbf" stroke="black" points="0,-19.5 0,-38.5 143,-38.5 143,-19.5 0,-19.5"/>
<text text-anchor="middle" x="71.5" y="-26.5" font-family="Helvetica,sans-Serif" font-size="10.00">BackButtonController.Update</text>
</a>
</g>
</g>
<!-- Node2 -->
<g id="node2" class="node">
<title>Node2</title>
<g id="a_node2"><a xlink:href="../../d3/dda/class_my_scene_manager.html#a49105404c209d6777b272c9574f8ac56" target="_top" xlink:title="Navega a la escena anterior">
<polygon fill="white" stroke="black" points="183.5,-38.5 183.5,-57.5 332.5,-57.5 332.5,-38.5 183.5,-38.5"/>
<text text-anchor="middle" x="258" y="-45.5" font-family="Helvetica,sans-Serif" font-size="10.00">MySceneManager.BackScene</text>
</a>
</g>
</g>
<!-- Node1&#45;&gt;Node2 -->
<g id="edge1" class="edge">
<title>Node1&#45;&gt;Node2</title>
<path fill="none" stroke="midnightblue" d="M143.04,-36.26C152.96,-37.29 163.23,-38.34 173.37,-39.39"/>
<polygon fill="midnightblue" stroke="midnightblue" points="173.13,-42.88 183.44,-40.42 173.85,-35.92 173.13,-42.88"/>
</g>
<!-- Node3 -->
<g id="node3" class="node">
<title>Node3</title>
<g id="a_node3"><a xlink:href="../../d3/dda/class_my_scene_manager.html#a209f9cda1c9a72071bae2ef6864492ba" target="_top" xlink:title="Devuelve la escena actual">
<polygon fill="white" stroke="black" points="179,-0.5 179,-19.5 337,-19.5 337,-0.5 179,-0.5"/>
<text text-anchor="middle" x="258" y="-7.5" font-family="Helvetica,sans-Serif" font-size="10.00">MySceneManager.CurrentScene</text>
</a>
</g>
</g>
<!-- Node1&#45;&gt;Node3 -->
<g id="edge2" class="edge">
<title>Node1&#45;&gt;Node3</title>
<path fill="none" stroke="midnightblue" d="M143.04,-21.74C151.45,-20.87 160.11,-19.98 168.73,-19.09"/>
<polygon fill="midnightblue" stroke="midnightblue" points="169.22,-22.56 178.81,-18.05 168.5,-15.6 169.22,-22.56"/>
</g>
</g>
</svg>
