<?xml version="1.0" encoding="UTF-8" standalone="no"?>
<!DOCTYPE svg PUBLIC "-//W3C//DTD SVG 1.1//EN"
 "http://www.w3.org/Graphics/SVG/1.1/DTD/svg11.dtd">
<!-- Generated by graphviz version 2.49.0 (20210828.1703)
 -->
<!-- Title: VideoManager.ShowVideo Pages: 1 -->
<svg width="501pt" height="66pt"
 viewBox="0.00 0.00 501.00 66.00" xmlns="http://www.w3.org/2000/svg" xmlns:xlink="http://www.w3.org/1999/xlink">
<g id="graph0" class="graph" transform="scale(1 1) rotate(0) translate(4 62)">
<title>VideoManager.ShowVideo</title>
<polygon fill="white" stroke="transparent" points="-4,4 -4,-62 497,-62 497,4 -4,4"/>
<!-- Node1 -->
<g id="node1" class="node">
<title>Node1</title>
<g id="a_node1"><a xlink:title="Establece la visibilidad del video">
<polygon fill="#bfbfbf" stroke="black" points="362,-19.5 362,-38.5 493,-38.5 493,-19.5 362,-19.5"/>
<text text-anchor="middle" x="427.5" y="-26.5" font-family="Helvetica,sans-Serif" font-size="10.00">VideoManager.ShowVideo</text>
</a>
</g>
</g>
<!-- Node2 -->
<g id="node2" class="node">
<title>Node2</title>
<g id="a_node2"><a xlink:href="../../d2/dba/class_video_manager.html#a409d28bd0a648196152b1c4394064263" target="_top" xlink:title="Llamada cuando el estado de pausa de la aplicación cambia">
<polygon fill="white" stroke="black" points="156,-38.5 156,-57.5 326,-57.5 326,-38.5 156,-38.5"/>
<text text-anchor="middle" x="241" y="-45.5" font-family="Helvetica,sans-Serif" font-size="10.00">VideoManager.OnApplicationPause</text>
</a>
</g>
</g>
<!-- Node1&#45;&gt;Node2 -->
<g id="edge1" class="edge">
<title>Node1&#45;&gt;Node2</title>
<path fill="none" stroke="midnightblue" d="M351.83,-36.69C343.41,-37.56 334.8,-38.44 326.27,-39.32"/>
<polygon fill="midnightblue" stroke="midnightblue" points="352.38,-40.15 361.97,-35.65 351.66,-33.19 352.38,-40.15"/>
</g>
<!-- Node3 -->
<g id="node3" class="node">
<title>Node3</title>
<g id="a_node3"><a xlink:href="../../d2/dba/class_video_manager.html#a476c43af14c677ae92c38ab1855d7382" target="_top" xlink:title="Alterna la visibilidad del video">
<polygon fill="white" stroke="black" points="173.5,-0.5 173.5,-19.5 308.5,-19.5 308.5,-0.5 173.5,-0.5"/>
<text text-anchor="middle" x="241" y="-7.5" font-family="Helvetica,sans-Serif" font-size="10.00">VideoManager.ToggleVideo</text>
</a>
</g>
</g>
<!-- Node1&#45;&gt;Node3 -->
<g id="edge2" class="edge">
<title>Node1&#45;&gt;Node3</title>
<path fill="none" stroke="midnightblue" d="M351.72,-21.3C337.48,-19.83 322.65,-18.31 308.68,-16.87"/>
<polygon fill="midnightblue" stroke="midnightblue" points="351.66,-24.81 361.97,-22.35 352.38,-17.85 351.66,-24.81"/>
</g>
<!-- Node4 -->
<g id="node4" class="node">
<title>Node4</title>
<g id="a_node4"><a xlink:href="../../d7/d42/class_topbar_u_i_controller.html#a3a7804eb204105f4ceb9c87762adf09d" target="_top" xlink:title="Llamada justo antes del primer fotograma">
<polygon fill="white" stroke="black" points="0,-0.5 0,-19.5 120,-19.5 120,-0.5 0,-0.5"/>
<text text-anchor="middle" x="60" y="-7.5" font-family="Helvetica,sans-Serif" font-size="10.00">TopbarUIController.Start</text>
</a>
</g>
</g>
<!-- Node3&#45;&gt;Node4 -->
<g id="edge3" class="edge">
<title>Node3&#45;&gt;Node4</title>
<path fill="none" stroke="midnightblue" d="M162.98,-10C148.6,-10 133.78,-10 120.05,-10"/>
<polygon fill="midnightblue" stroke="midnightblue" points="163.35,-13.5 173.35,-10 163.35,-6.5 163.35,-13.5"/>
</g>
</g>
</svg>
