<svg xmlns="http://www.w3.org/2000/svg" viewBox="0 0 714.81 196.72"><g id="Layer_2" data-name="Layer 2"><g id="Layer_1-2" data-name="Layer 1"><g id="black1"><path d="M279.93,45.13,238.11,159.46h37.62l5.65-17.28h38.11l5.66,17.28h37.78L321.27,45.13Zm10.17,70.08L300.44,83.4l10.34,31.81Z" style="fill:#6bdc99"/><path d="M461.36,102.94a34,34,0,0,0,6.38-20.35,37.42,37.42,0,0,0-4.93-19.14A34.26,34.26,0,0,0,448,50.05q-9.85-4.92-23.74-4.92H371V159.46h35.85v-41H407l21.48,41h39.4L443,115.69Q455,111.82,461.36,102.94ZM428.82,92.2c-1.72,1.56-4.31,2.34-7.75,2.34H406.86V75.16h14.21q5,0,7.67,2.58a9.49,9.49,0,0,1,2.66,7.11Q431.4,89.86,428.82,92.2Z" style="fill:#6bdc99"/><path d="M499.38,86a34.21,34.21,0,0,1,16.51-4q12.11,0,20.36,6.06a25.64,25.64,0,0,1,10.22,16.65h7.11a33,33,0,0,0-12.34-20.74q-9.91-7.72-25.35-7.72a41.39,41.39,0,0,0-20.67,5.07,35.44,35.44,0,0,0-14.08,14.61q-5.07,9.54-5.07,22.4t5.07,22.49a35.83,35.83,0,0,0,14.08,14.76,40.9,40.9,0,0,0,20.67,5.14q15.29,0,25.28-7.87a33.35,33.35,0,0,0,12.41-20.74h-7.11a25.61,25.61,0,0,1-10.22,16.65q-8.25,6.06-20.36,6.06a33.6,33.6,0,0,1-16.51-4.09,30,30,0,0,1-11.88-12.26Q483,130.24,483,118.27q0-11.8,4.46-20.06A29.49,29.49,0,0,1,499.38,86Z" style="fill:#6bdc99"/><path d="M644.56,98.74a33.73,33.73,0,0,0-12.71-16.19q-9.09-6.36-22.11-6.36a40.62,40.62,0,0,0-20.51,5.14A36,36,0,0,0,575.15,96q-5.07,9.54-5.07,22.25t5.07,22.33a36.34,36.34,0,0,0,14.08,14.84,40.16,40.16,0,0,0,20.51,5.22q12.87,0,22-6.43a33.9,33.9,0,0,0,12.79-16.43v21.65h6.82V77.25h-6.82Zm-4.38,38.68A31.16,31.16,0,0,1,628,150.14a36.42,36.42,0,0,1-34.82.08,30.15,30.15,0,0,1-11.89-12.57q-4.23-8.18-4.23-19.38t4.23-19.37a29.72,29.72,0,0,1,11.81-12.49,34.82,34.82,0,0,1,17.56-4.32,33.8,33.8,0,0,1,17.26,4.47A31.87,31.87,0,0,1,640.1,99.28a39.34,39.34,0,0,1,4.46,19A40.2,40.2,0,0,1,640.18,137.42Z" style="fill:#6bdc99"/><rect x="676.21" y="47.42" width="6.81" height="112.03" style="fill:#6bdc99"/><rect x="708" y="47.42" width="6.81" height="112.03" style="fill:#6bdc99"/><path d="M175.81,20.53A20.51,20.51,0,0,0,145.05,2.78l-34.68,20,65.44,37.78Z" style="fill:#6bdc99"/><path d="M210.49,80.61l-34.68-20h0L110.37,22.8,44.93,60.58h0l-34.68,20a20.5,20.5,0,0,0,0,35.51l34.68,20h0v40.05A20.51,20.51,0,0,0,75.69,194l34.68-20,34.68,20a20.51,20.51,0,0,0,30.76-17.76V136.14h0l34.68-20A20.5,20.5,0,0,0,210.49,80.61ZM109.06,171.66,46.24,135.39V62.85l62.82,36.27ZM47.55,60.58l62.82-36.27,62.82,36.27L110.37,96.85Zm127,74.81-62.82,36.27V99.12L174.5,62.85Z" style="fill:#6bdc99"/><path d="M75.69,2.78A20.51,20.51,0,0,0,44.93,20.53V60.58L110.37,22.8Z" style="fill:#6bdc99"/></g></g></g></svg>