<svg xmlns="http://www.w3.org/2000/svg" viewBox="0 0 714.81 522.64"><g id="Layer_2" data-name="Layer 2"><g id="Layer_1-2" data-name="Layer 1"><g id="black2"><path d="M62.71,349.39,0,520.83H56.42l8.47-25.91H122l8.48,25.91h56.66L124.7,349.39ZM78,454.48l15.5-47.7L109,454.48Z" style="fill:#6bdc99"/><path d="M334.76,436.08a50.94,50.94,0,0,0,9.57-30.51,56.09,56.09,0,0,0-7.39-28.69q-7.38-12.72-22.15-20.1t-35.6-7.39H199.28V520.83H253v-61.5h.24l32.21,61.5h59.08l-37.29-65.62Q325.19,449.41,334.76,436.08ZM286,420q-3.87,3.51-11.62,3.51H253V394.43h21.31q7.5,0,11.5,3.88t4,10.65Q289.85,416.48,286,420Z" style="fill:#6bdc99"/><path d="M391.78,410.61a51.29,51.29,0,0,1,24.75-6q18.15,0,30.53,9.08t15.32,25h10.67q-3.63-19.51-18.5-31.1t-38-11.58q-17.49,0-31,7.61a53.16,53.16,0,0,0-21.11,21.9q-7.6,14.31-7.61,33.6t7.61,33.71a53.69,53.69,0,0,0,21.11,22.13q13.5,7.73,31,7.72,22.92,0,37.91-11.8a50.08,50.08,0,0,0,18.61-31.1H462.38q-2.94,15.88-15.32,25t-30.53,9.08a50.38,50.38,0,0,1-24.75-6.13A44.93,44.93,0,0,1,374,489.27q-6.69-12.25-6.69-30.19,0-17.7,6.69-30.08A44.09,44.09,0,0,1,391.78,410.61Z" style="fill:#6bdc99"/><path d="M609.48,429.8a50.54,50.54,0,0,0-19.07-24.29Q576.79,396,557.27,396q-17.26,0-30.76,7.72a54,54,0,0,0-21.12,22q-7.61,14.3-7.6,33.37t7.6,33.48a54.45,54.45,0,0,0,21.12,22.25q13.5,7.83,30.76,7.83,19.29,0,33-9.65a50.87,50.87,0,0,0,19.18-24.63v32.47h10.21V397.56H609.48Zm-6.58,58a46.89,46.89,0,0,1-18.28,19.07,54.67,54.67,0,0,1-52.21.11,45.18,45.18,0,0,1-17.82-18.84q-6.36-12.25-6.35-29.06T514.59,430a44.71,44.71,0,0,1,17.7-18.73q11.36-6.46,26.34-6.47a50.81,50.81,0,0,1,25.88,6.7,47.77,47.77,0,0,1,18.27,19.07q6.69,12.38,6.7,28.49Q609.48,475.43,602.9,487.8Z" style="fill:#6bdc99"/><rect x="656.93" y="352.84" width="10.21" height="167.99" style="fill:#6bdc99"/><rect x="704.59" y="352.84" width="10.21" height="167.99" style="fill:#6bdc99"/><path d="M469.16,30.79A30.75,30.75,0,0,0,423,4.16l-52,30,98.12,56.65Z" style="fill:#6bdc99"/><path d="M521.16,120.87l-52-30h0L371,34.19,272.91,90.84h0l-52,30a30.74,30.74,0,0,0,0,53.25l52,30h0v60A30.74,30.74,0,0,0,319,290.82l52-30,52,30a30.74,30.74,0,0,0,46.12-26.62v-60h0l52-30A30.74,30.74,0,0,0,521.16,120.87ZM369.07,257.4,274.88,203V94.24l94.19,54.39ZM276.84,90.84,371,36.46l94.19,54.38L371,145.23ZM467.2,203,373,257.4V148.63l94.2-54.39Z" style="fill:#6bdc99"/><path d="M319,4.16a30.75,30.75,0,0,0-46.12,26.63V90.84L371,34.19Z" style="fill:#6bdc99"/></g></g></g></svg>