<svg xmlns="http://www.w3.org/2000/svg" viewBox="0 0 331 294.99"><g id="Layer_2" data-name="Layer 2"><g id="Layer_1-2" data-name="Layer 1"><g id="black2"><path d="M263.62,30.79A30.74,30.74,0,0,0,217.51,4.16l-52,30,98.12,56.65Z" style="fill:#6bdc99"/><path d="M315.63,120.87l-52-30h0L165.5,34.19,67.38,90.84h0l-52,30a30.75,30.75,0,0,0,0,53.25l52,30h0v60a30.74,30.74,0,0,0,46.12,26.62l52-30,52,30a30.74,30.74,0,0,0,46.11-26.62v-60h0l52-30A30.74,30.74,0,0,0,315.63,120.87ZM163.54,257.4,69.34,203V94.24l94.2,54.39ZM71.3,90.84l94.2-54.38,94.2,54.38-94.2,54.39ZM261.66,203l-94.2,54.39V148.63l94.2-54.39Z" style="fill:#6bdc99"/><path d="M113.5,4.16A30.75,30.75,0,0,0,67.38,30.79V90.84L165.5,34.19Z" style="fill:#6bdc99"/></g></g></g></svg>