<svg xmlns="http://www.w3.org/2000/svg" viewBox="0 0 715.36 196.88"><g id="Layer_2" data-name="Layer 2"><g id="Layer_1-2" data-name="Layer 1"><g id="whiite1"><path d="M280.15,45.16,238.29,159.58H276l5.65-17.29h38.14l5.66,17.29h37.81L321.52,45.16Zm10.18,70.14,10.34-31.84L311,115.3Z" style="fill:#fff"/><path d="M461.72,103a34.09,34.09,0,0,0,6.38-20.37,37.49,37.49,0,0,0-4.93-19.15,34.33,34.33,0,0,0-14.79-13.41q-9.86-4.94-23.75-4.93H371.29V159.58h35.88V118.53h.16l21.5,41.05h39.43l-24.89-43.8Q455.34,111.91,461.72,103ZM429.15,92.27q-2.58,2.34-7.76,2.34H407.17V75.22h14.22q5,0,7.68,2.59a9.42,9.42,0,0,1,2.67,7.11C431.74,88.26,430.87,90.71,429.15,92.27Z" style="fill:#fff"/><path d="M499.77,86a34.11,34.11,0,0,1,16.52-4q12.12,0,20.37,6.06a25.68,25.68,0,0,1,10.23,16.67H554A33,33,0,0,0,541.66,84q-9.92-7.73-25.37-7.72a41.49,41.49,0,0,0-20.69,5.07,35.55,35.55,0,0,0-14.09,14.62q-5.07,9.56-5.07,22.43t5.07,22.49a35.9,35.9,0,0,0,14.09,14.78,41,41,0,0,0,20.69,5.15q15.3,0,25.3-7.88A33.43,33.43,0,0,0,554,132.15h-7.12a25.65,25.65,0,0,1-10.23,16.67q-8.25,6.06-20.37,6.06a33.61,33.61,0,0,1-16.52-4.09,30,30,0,0,1-11.89-12.27q-4.47-8.19-4.47-20.15t4.47-20.08A29.42,29.42,0,0,1,499.77,86Z" style="fill:#fff"/><path d="M645.06,98.82a33.74,33.74,0,0,0-12.72-16.21q-9.09-6.36-22.12-6.36a40.57,40.57,0,0,0-20.53,5.15A35.91,35.91,0,0,0,575.6,96.09q-5.08,9.55-5.08,22.28t5.08,22.34a36.26,36.26,0,0,0,14.09,14.85,40.12,40.12,0,0,0,20.53,5.23q12.87,0,22-6.44a33.9,33.9,0,0,0,12.8-16.44v21.67h6.82V77.31h-6.82Zm-4.39,38.71a31.21,31.21,0,0,1-12.2,12.73,36.43,36.43,0,0,1-34.84.07,30.11,30.11,0,0,1-11.9-12.57q-4.25-8.17-4.24-19.39T581.73,99a29.83,29.83,0,0,1,11.82-12.5,35,35,0,0,1,17.58-4.31,33.86,33.86,0,0,1,17.27,4.47,31.87,31.87,0,0,1,12.19,12.72,39.35,39.35,0,0,1,4.47,19A40.16,40.16,0,0,1,640.67,137.53Z" style="fill:#fff"/><rect x="676.73" y="47.46" width="6.82" height="112.12" style="fill:#fff"/><rect x="708.54" y="47.46" width="6.82" height="112.12" style="fill:#fff"/><path d="M176,20.55A20.52,20.52,0,0,0,145.17,2.78l-34.71,20L176,60.63Z" style="fill:#fff"/><path d="M210.65,80.67l-34.7-20h0L110.46,22.82,45,60.63h0l-34.71,20a20.52,20.52,0,0,0,0,35.54l34.71,20h0v40.08A20.52,20.52,0,0,0,75.75,194.1l34.71-20,34.71,20A20.52,20.52,0,0,0,176,176.33V136.25h0l34.7-20A20.52,20.52,0,0,0,210.65,80.67Zm-101.5,91.12-62.87-36.3V62.9l62.87,36.29ZM47.59,60.63l62.87-36.3,62.87,36.3-62.87,36.3Zm127,74.86-62.87,36.3V99.19L174.64,62.9Z" style="fill:#fff"/><path d="M75.75,2.78A20.52,20.52,0,0,0,45,20.55V60.63l65.49-37.81Z" style="fill:#fff"/></g></g></g></svg>