<?xml version="1.0" encoding="UTF-8" standalone="no"?>
<!DOCTYPE svg PUBLIC "-//W3C//DTD SVG 1.1//EN"
 "http://www.w3.org/Graphics/SVG/1.1/DTD/svg11.dtd">
<!-- Generated by graphviz version 2.49.0 (20210828.1703)
 -->
<!-- Title: ARText.Update Pages: 1 -->
<svg width="266pt" height="66pt"
 viewBox="0.00 0.00 266.00 66.00" xmlns="http://www.w3.org/2000/svg" xmlns:xlink="http://www.w3.org/1999/xlink">
<g id="graph0" class="graph" transform="scale(1 1) rotate(0) translate(4 62)">
<title>ARText.Update</title>
<polygon fill="white" stroke="transparent" points="-4,4 -4,-62 262,-62 262,4 -4,4"/>
<!-- Node1 -->
<g id="node1" class="node">
<title>Node1</title>
<g id="a_node1"><a xlink:title="Llamada al comienzo de cada fotograma">
<polygon fill="#bfbfbf" stroke="black" points="0,-19.5 0,-38.5 83,-38.5 83,-19.5 0,-19.5"/>
<text text-anchor="middle" x="41.5" y="-26.5" font-family="Helvetica,sans-Serif" font-size="10.00">ARText.Update</text>
</a>
</g>
</g>
<!-- Node2 -->
<g id="node2" class="node">
<title>Node2</title>
<g id="a_node2"><a xlink:href="../../d0/dac/class_a_r_text.html#ae9e02502945c44635028ea4c0a29553c" target="_top" xlink:title="Coloca el texto en la posicion seleccionada">
<polygon fill="white" stroke="black" points="139,-38.5 139,-57.5 238,-57.5 238,-38.5 139,-38.5"/>
<text text-anchor="middle" x="188.5" y="-45.5" font-family="Helvetica,sans-Serif" font-size="10.00">ARText.AddMarker</text>
</a>
</g>
</g>
<!-- Node1&#45;&gt;Node2 -->
<g id="edge1" class="edge">
<title>Node1&#45;&gt;Node2</title>
<path fill="none" stroke="midnightblue" d="M83.28,-34.34C97.3,-36.18 113.29,-38.28 128.46,-40.26"/>
<polygon fill="midnightblue" stroke="midnightblue" points="128.44,-43.79 138.81,-41.62 129.35,-36.85 128.44,-43.79"/>
</g>
<!-- Node3 -->
<g id="node3" class="node">
<title>Node3</title>
<g id="a_node3"><a xlink:href="../../d7/d5d/class_a_r_tool_manager.html#a86782ee29e1327a2f4ab387d8438c6a7" target="_top" xlink:title="Coloca una guía en un trazo o marcador del par selecionado">
<polygon fill="white" stroke="black" points="119,-0.5 119,-19.5 258,-19.5 258,-0.5 119,-0.5"/>
<text text-anchor="middle" x="188.5" y="-7.5" font-family="Helvetica,sans-Serif" font-size="10.00">ARToolManager.PlaceGuide</text>
</a>
</g>
</g>
<!-- Node1&#45;&gt;Node3 -->
<g id="edge2" class="edge">
<title>Node1&#45;&gt;Node3</title>
<path fill="none" stroke="midnightblue" d="M83.28,-23.66C91.31,-22.6 99.99,-21.47 108.79,-20.31"/>
<polygon fill="midnightblue" stroke="midnightblue" points="109.3,-23.78 118.76,-19.01 108.39,-16.84 109.3,-23.78"/>
</g>
</g>
</svg>
