<?xml version="1.0" encoding="UTF-8" standalone="no"?>
<!DOCTYPE svg PUBLIC "-//W3C//DTD SVG 1.1//EN"
 "http://www.w3.org/Graphics/SVG/1.1/DTD/svg11.dtd">
<!-- Generated by graphviz version 2.49.0 (20210828.1703)
 -->
<!-- Title: RegisterPhoneUIController.Unsubscribe Pages: 1 -->
<svg width="678pt" height="142pt"
 viewBox="0.00 0.00 678.00 142.00" xmlns="http://www.w3.org/2000/svg" xmlns:xlink="http://www.w3.org/1999/xlink">
<g id="graph0" class="graph" transform="scale(1 1) rotate(0) translate(4 138)">
<title>RegisterPhoneUIController.Unsubscribe</title>
<polygon fill="white" stroke="transparent" points="-4,4 -4,-138 674,-138 674,4 -4,4"/>
<!-- Node1 -->
<g id="node1" class="node">
<title>Node1</title>
<g id="a_node1"><a xlink:title="Se desuscribe de los eventos de clases estáticas">
<polygon fill="#bfbfbf" stroke="black" points="0,-38.5 0,-57.5 188,-57.5 188,-38.5 0,-38.5"/>
<text text-anchor="middle" x="94" y="-45.5" font-family="Helvetica,sans-Serif" font-size="10.00">RegisterPhoneUIController.Unsubscribe</text>
</a>
</g>
</g>
<!-- Node2 -->
<g id="node2" class="node">
<title>Node2</title>
<g id="a_node2"><a xlink:href="../../dd/ddc/class_register_phone_u_i_controller.html#a5ebb5fa37ace52b830ee425ab69376e8" target="_top" xlink:title="Llamada cuando se captura automáticamente el código">
<polygon fill="white" stroke="black" points="224,-114.5 224,-133.5 487,-133.5 487,-114.5 224,-114.5"/>
<text text-anchor="middle" x="355.5" y="-121.5" font-family="Helvetica,sans-Serif" font-size="10.00">RegisterPhoneUIController.OnCodeAutoRetrievalTimeOut</text>
</a>
</g>
</g>
<!-- Node1&#45;&gt;Node2 -->
<g id="edge1" class="edge">
<title>Node1&#45;&gt;Node2</title>
<path fill="none" stroke="midnightblue" d="M112.37,-57.51C136.63,-70.35 182.35,-93.01 224,-105 234.28,-107.96 245.14,-110.47 256.05,-112.6"/>
<polygon fill="midnightblue" stroke="midnightblue" points="255.59,-116.07 266.06,-114.45 256.86,-109.19 255.59,-116.07"/>
</g>
<!-- Node3 -->
<g id="node3" class="node">
<title>Node3</title>
<g id="a_node3"><a xlink:href="../../dd/ddc/class_register_phone_u_i_controller.html#a1f99826db3bbc1b5bc00fe21b5241f5e" target="_top" xlink:title="Llamada cuando se envíaa el código de verificación SMS">
<polygon fill="white" stroke="black" points="261,-76.5 261,-95.5 450,-95.5 450,-76.5 261,-76.5"/>
<text text-anchor="middle" x="355.5" y="-83.5" font-family="Helvetica,sans-Serif" font-size="10.00">RegisterPhoneUIController.OnCodeSent</text>
</a>
</g>
</g>
<!-- Node1&#45;&gt;Node3 -->
<g id="edge2" class="edge">
<title>Node1&#45;&gt;Node3</title>
<path fill="none" stroke="midnightblue" d="M159.63,-57.54C180.2,-60.57 203.06,-63.93 224,-67 241.69,-69.59 260.74,-72.37 278.66,-74.98"/>
<polygon fill="midnightblue" stroke="midnightblue" points="278.38,-78.48 288.78,-76.45 279.39,-71.55 278.38,-78.48"/>
</g>
<!-- Node4 -->
<g id="node4" class="node">
<title>Node4</title>
<g id="a_node4"><a xlink:href="../../dd/ddc/class_register_phone_u_i_controller.html#aa85933669dcb72558a71039eba32d88d" target="_top" xlink:title="Llamada cuando se completa la verificación">
<polygon fill="white" stroke="black" points="235,-38.5 235,-57.5 476,-57.5 476,-38.5 235,-38.5"/>
<text text-anchor="middle" x="355.5" y="-45.5" font-family="Helvetica,sans-Serif" font-size="10.00">RegisterPhoneUIController.OnVerificationCompleted</text>
</a>
</g>
</g>
<!-- Node1&#45;&gt;Node4 -->
<g id="edge3" class="edge">
<title>Node1&#45;&gt;Node4</title>
<path fill="none" stroke="midnightblue" d="M188.32,-41.49C200.12,-41.33 212.37,-41.25 224.61,-41.25"/>
<polygon fill="midnightblue" stroke="midnightblue" points="224.89,-44.75 234.89,-41.27 224.9,-37.75 224.89,-44.75"/>
</g>
<!-- Node6 -->
<g id="node6" class="node">
<title>Node6</title>
<g id="a_node6"><a xlink:href="../../dd/ddc/class_register_phone_u_i_controller.html#a7838bc038a08379b5f1f50af435ac6d7" target="_top" xlink:title="Llamada cuando falla la verificación">
<polygon fill="white" stroke="black" points="245,-0.5 245,-19.5 466,-19.5 466,-0.5 245,-0.5"/>
<text text-anchor="middle" x="355.5" y="-7.5" font-family="Helvetica,sans-Serif" font-size="10.00">RegisterPhoneUIController.OnVerificationFailed</text>
</a>
</g>
</g>
<!-- Node1&#45;&gt;Node6 -->
<g id="edge6" class="edge">
<title>Node1&#45;&gt;Node6</title>
<path fill="none" stroke="midnightblue" d="M159.63,-38.46C180.2,-35.43 203.06,-32.07 224,-29 241.69,-26.41 260.74,-23.63 278.66,-21.02"/>
<polygon fill="midnightblue" stroke="midnightblue" points="279.39,-24.45 288.78,-19.55 278.38,-17.52 279.39,-24.45"/>
</g>
<!-- Node4&#45;&gt;Node1 -->
<g id="edge5" class="edge">
<title>Node4&#45;&gt;Node1</title>
<path fill="none" stroke="midnightblue" d="M234.89,-54.73C222.68,-54.78 210.35,-54.74 198.33,-54.62"/>
<polygon fill="midnightblue" stroke="midnightblue" points="198.36,-51.12 188.32,-54.51 198.28,-58.12 198.36,-51.12"/>
</g>
<!-- Node5 -->
<g id="node5" class="node">
<title>Node5</title>
<g id="a_node5"><a xlink:href="../../d3/dda/class_my_scene_manager.html#a6787f49b73d5e0c4e80fd67d38f5550a" target="_top" xlink:title="Carga la escena seleccionada">
<polygon fill="white" stroke="black" points="523,-38.5 523,-57.5 670,-57.5 670,-38.5 523,-38.5"/>
<text text-anchor="middle" x="596.5" y="-45.5" font-family="Helvetica,sans-Serif" font-size="10.00">MySceneManager.LoadScene</text>
</a>
</g>
</g>
<!-- Node4&#45;&gt;Node5 -->
<g id="edge4" class="edge">
<title>Node4&#45;&gt;Node5</title>
<path fill="none" stroke="midnightblue" d="M476.35,-48C488.6,-48 500.85,-48 512.57,-48"/>
<polygon fill="midnightblue" stroke="midnightblue" points="512.73,-51.5 522.73,-48 512.73,-44.5 512.73,-51.5"/>
</g>
</g>
</svg>
