<?xml version="1.0" encoding="UTF-8" standalone="no"?>
<!DOCTYPE svg PUBLIC "-//W3C//DTD SVG 1.1//EN"
 "http://www.w3.org/Graphics/SVG/1.1/DTD/svg11.dtd">
<!-- Generated by graphviz version 2.49.0 (20210828.1703)
 -->
<!-- Title: RegisterPhoneUIController.Start Pages: 1 -->
<svg width="1142pt" height="370pt"
 viewBox="0.00 0.00 1142.00 370.00" xmlns="http://www.w3.org/2000/svg" xmlns:xlink="http://www.w3.org/1999/xlink">
<g id="graph0" class="graph" transform="scale(1 1) rotate(0) translate(4 366)">
<title>RegisterPhoneUIController.Start</title>
<polygon fill="white" stroke="transparent" points="-4,4 -4,-366 1138,-366 1138,4 -4,4"/>
<!-- Node1 -->
<g id="node1" class="node">
<title>Node1</title>
<g id="a_node1"><a xlink:title="Llamada justo antes del primer fotograma">
<polygon fill="#bfbfbf" stroke="black" points="0,-171.5 0,-190.5 155,-190.5 155,-171.5 0,-171.5"/>
<text text-anchor="middle" x="77.5" y="-178.5" font-family="Helvetica,sans-Serif" font-size="10.00">RegisterPhoneUIController.Start</text>
</a>
</g>
</g>
<!-- Node2 -->
<g id="node2" class="node">
<title>Node2</title>
<g id="a_node2"><a xlink:href="../../dd/ddc/class_register_phone_u_i_controller.html#aa53b9e247360a0829d2c06b01356a770" target="_top" xlink:title="Evalua si el código SMS introducido es válido">
<polygon fill="white" stroke="black" points="208.5,-342.5 208.5,-361.5 414.5,-361.5 414.5,-342.5 208.5,-342.5"/>
<text text-anchor="middle" x="311.5" y="-349.5" font-family="Helvetica,sans-Serif" font-size="10.00">RegisterPhoneUIController.IsValidCodeInput</text>
</a>
</g>
</g>
<!-- Node1&#45;&gt;Node2 -->
<g id="edge1" class="edge">
<title>Node1&#45;&gt;Node2</title>
<path fill="none" stroke="midnightblue" d="M82.55,-190.89C94.48,-218.61 132.35,-297.39 191,-333 194.44,-335.09 198.03,-336.97 201.73,-338.66"/>
<polygon fill="midnightblue" stroke="midnightblue" points="200.56,-341.96 211.14,-342.5 203.2,-335.48 200.56,-341.96"/>
</g>
<!-- Node3 -->
<g id="node3" class="node">
<title>Node3</title>
<g id="a_node3"><a xlink:href="../../dd/ddc/class_register_phone_u_i_controller.html#a910690f5b527bbd969fbf8fa3ea8547e" target="_top" xlink:title="Evalua si el teléfono introducido es válido">
<polygon fill="white" stroke="black" points="205.5,-304.5 205.5,-323.5 417.5,-323.5 417.5,-304.5 205.5,-304.5"/>
<text text-anchor="middle" x="311.5" y="-311.5" font-family="Helvetica,sans-Serif" font-size="10.00">RegisterPhoneUIController.IsValidPhoneInput</text>
</a>
</g>
</g>
<!-- Node1&#45;&gt;Node3 -->
<g id="edge2" class="edge">
<title>Node1&#45;&gt;Node3</title>
<path fill="none" stroke="midnightblue" d="M85.38,-190.73C101.27,-212.4 142.85,-264.7 191,-290 200.16,-294.81 210.17,-298.66 220.39,-301.74"/>
<polygon fill="midnightblue" stroke="midnightblue" points="219.65,-305.17 230.22,-304.46 221.51,-298.42 219.65,-305.17"/>
</g>
<!-- Node4 -->
<g id="node4" class="node">
<title>Node4</title>
<g id="a_node4"><a xlink:href="../../d3/dda/class_my_scene_manager.html#a6787f49b73d5e0c4e80fd67d38f5550a" target="_top" xlink:title="Carga la escena seleccionada">
<polygon fill="white" stroke="black" points="488.5,-171.5 488.5,-190.5 635.5,-190.5 635.5,-171.5 488.5,-171.5"/>
<text text-anchor="middle" x="562" y="-178.5" font-family="Helvetica,sans-Serif" font-size="10.00">MySceneManager.LoadScene</text>
</a>
</g>
</g>
<!-- Node1&#45;&gt;Node4 -->
<g id="edge3" class="edge">
<title>Node1&#45;&gt;Node4</title>
<path fill="none" stroke="midnightblue" d="M155.22,-181C243.29,-181 387.24,-181 477.91,-181"/>
<polygon fill="midnightblue" stroke="midnightblue" points="478.15,-184.5 488.15,-181 478.15,-177.5 478.15,-184.5"/>
</g>
<!-- Node5 -->
<g id="node5" class="node">
<title>Node5</title>
<g id="a_node5"><a xlink:href="../../dd/ddc/class_register_phone_u_i_controller.html#a5ebb5fa37ace52b830ee425ab69376e8" target="_top" xlink:title="Llamada cuando se captura automáticamente el código">
<polygon fill="white" stroke="black" points="692,-239.5 692,-258.5 955,-258.5 955,-239.5 692,-239.5"/>
<text text-anchor="middle" x="823.5" y="-246.5" font-family="Helvetica,sans-Serif" font-size="10.00">RegisterPhoneUIController.OnCodeAutoRetrievalTimeOut</text>
</a>
</g>
</g>
<!-- Node1&#45;&gt;Node5 -->
<g id="edge4" class="edge">
<title>Node1&#45;&gt;Node5</title>
<path fill="none" stroke="midnightblue" d="M103.08,-190.6C125.58,-198.92 159.99,-210.46 191,-216 357.65,-245.79 552.65,-251.67 681.39,-251.63"/>
<polygon fill="midnightblue" stroke="midnightblue" points="681.71,-255.13 691.71,-251.61 681.7,-248.13 681.71,-255.13"/>
</g>
<!-- Node6 -->
<g id="node6" class="node">
<title>Node6</title>
<g id="a_node6"><a xlink:href="../../dd/ddc/class_register_phone_u_i_controller.html#a1f99826db3bbc1b5bc00fe21b5241f5e" target="_top" xlink:title="Llamada cuando se envíaa el código de verificación SMS">
<polygon fill="white" stroke="black" points="729,-156.5 729,-175.5 918,-175.5 918,-156.5 729,-156.5"/>
<text text-anchor="middle" x="823.5" y="-163.5" font-family="Helvetica,sans-Serif" font-size="10.00">RegisterPhoneUIController.OnCodeSent</text>
</a>
</g>
</g>
<!-- Node1&#45;&gt;Node6 -->
<g id="edge5" class="edge">
<title>Node1&#45;&gt;Node6</title>
<path fill="none" stroke="midnightblue" d="M145.61,-190.53C160.52,-192.32 176.28,-193.95 191,-195 397.16,-209.65 450.37,-220.78 656,-200 697.23,-195.83 743.35,-186 776.57,-177.98"/>
<polygon fill="midnightblue" stroke="midnightblue" points="777.57,-181.34 786.45,-175.55 775.9,-174.54 777.57,-181.34"/>
</g>
<!-- Node7 -->
<g id="node7" class="node">
<title>Node7</title>
<g id="a_node7"><a xlink:href="../../dd/ddc/class_register_phone_u_i_controller.html#aa85933669dcb72558a71039eba32d88d" target="_top" xlink:title="Llamada cuando se completa la verificación">
<polygon fill="white" stroke="black" points="191,-152.5 191,-171.5 432,-171.5 432,-152.5 191,-152.5"/>
<text text-anchor="middle" x="311.5" y="-159.5" font-family="Helvetica,sans-Serif" font-size="10.00">RegisterPhoneUIController.OnVerificationCompleted</text>
</a>
</g>
</g>
<!-- Node1&#45;&gt;Node7 -->
<g id="edge6" class="edge">
<title>Node1&#45;&gt;Node7</title>
<path fill="none" stroke="midnightblue" d="M155.11,-174.73C164.41,-173.96 174.1,-173.17 183.9,-172.37"/>
<polygon fill="midnightblue" stroke="midnightblue" points="184.44,-175.84 194.12,-171.53 183.87,-168.86 184.44,-175.84"/>
</g>
<!-- Node8 -->
<g id="node8" class="node">
<title>Node8</title>
<g id="a_node8"><a xlink:href="../../dd/ddc/class_register_phone_u_i_controller.html#a5cd62efcd8f1e816c759ac0ede78aaaf" target="_top" xlink:title="Se desuscribe de los eventos de clases estáticas">
<polygon fill="white" stroke="black" points="468,-133.5 468,-152.5 656,-152.5 656,-133.5 468,-133.5"/>
<text text-anchor="middle" x="562" y="-140.5" font-family="Helvetica,sans-Serif" font-size="10.00">RegisterPhoneUIController.Unsubscribe</text>
</a>
</g>
</g>
<!-- Node1&#45;&gt;Node8 -->
<g id="edge18" class="edge">
<title>Node1&#45;&gt;Node8</title>
<path fill="none" stroke="midnightblue" d="M88.25,-171.34C106.52,-154 147.95,-118.18 191,-105 293.42,-73.65 328.03,-79.25 432,-105 449.56,-109.35 450.97,-117.91 468,-124 475.5,-126.68 483.49,-129.03 491.5,-131.07"/>
<polygon fill="midnightblue" stroke="midnightblue" points="490.73,-134.49 501.27,-133.42 492.36,-127.68 490.73,-134.49"/>
</g>
<!-- Node9 -->
<g id="node9" class="node">
<title>Node9</title>
<g id="a_node9"><a xlink:href="../../dd/ddc/class_register_phone_u_i_controller.html#a7838bc038a08379b5f1f50af435ac6d7" target="_top" xlink:title="Llamada cuando falla la verificación">
<polygon fill="white" stroke="black" points="713,-109.5 713,-128.5 934,-128.5 934,-109.5 713,-109.5"/>
<text text-anchor="middle" x="823.5" y="-116.5" font-family="Helvetica,sans-Serif" font-size="10.00">RegisterPhoneUIController.OnVerificationFailed</text>
</a>
</g>
</g>
<!-- Node1&#45;&gt;Node9 -->
<g id="edge13" class="edge">
<title>Node1&#45;&gt;Node9</title>
<path fill="none" stroke="midnightblue" d="M85.23,-171.22C100.81,-149.56 141.81,-97.98 191,-79 383.83,-4.6 450.64,-62.6 656,-86 696.07,-90.57 740.87,-99.68 773.91,-107.17"/>
<polygon fill="midnightblue" stroke="midnightblue" points="773.23,-110.61 783.76,-109.44 774.8,-103.79 773.23,-110.61"/>
</g>
<!-- Node10 -->
<g id="node10" class="node">
<title>Node10</title>
<g id="a_node10"><a xlink:href="../../dd/ddc/class_register_phone_u_i_controller.html#a41d4c768e35a4edf1db44a1807e179b5" target="_top" xlink:title="Envia el código SMS al teléfono introducido">
<polygon fill="white" stroke="black" points="222,-0.5 222,-19.5 401,-19.5 401,-0.5 222,-0.5"/>
<text text-anchor="middle" x="311.5" y="-7.5" font-family="Helvetica,sans-Serif" font-size="10.00">RegisterPhoneUIController.SendCode</text>
</a>
</g>
</g>
<!-- Node1&#45;&gt;Node10 -->
<g id="edge14" class="edge">
<title>Node1&#45;&gt;Node10</title>
<path fill="none" stroke="midnightblue" d="M82.9,-171.17C95.47,-144.31 134.29,-69.39 191,-34 198.23,-29.49 206.13,-25.81 214.33,-22.8"/>
<polygon fill="midnightblue" stroke="midnightblue" points="215.67,-26.04 224.06,-19.57 213.47,-19.4 215.67,-26.04"/>
</g>
<!-- Node14 -->
<g id="node14" class="node">
<title>Node14</title>
<g id="a_node14"><a xlink:href="../../dd/ddc/class_register_phone_u_i_controller.html#a55f0c364a3d7f1920df9790b7c63da7c" target="_top" xlink:title="Verifica el teléfono introducido con el código SMS introducido">
<polygon fill="white" stroke="black" points="218.5,-114.5 218.5,-133.5 404.5,-133.5 404.5,-114.5 218.5,-114.5"/>
<text text-anchor="middle" x="311.5" y="-121.5" font-family="Helvetica,sans-Serif" font-size="10.00">RegisterPhoneUIController.VerifyPhone</text>
</a>
</g>
</g>
<!-- Node1&#45;&gt;Node14 -->
<g id="edge19" class="edge">
<title>Node1&#45;&gt;Node14</title>
<path fill="none" stroke="midnightblue" d="M102.73,-171.49C125.28,-162.97 159.98,-150.65 191,-143 202.91,-140.06 215.6,-137.48 228.1,-135.24"/>
<polygon fill="midnightblue" stroke="midnightblue" points="228.81,-138.67 238.07,-133.51 227.62,-131.77 228.81,-138.67"/>
</g>
<!-- Node7&#45;&gt;Node4 -->
<g id="edge7" class="edge">
<title>Node7&#45;&gt;Node4</title>
<path fill="none" stroke="midnightblue" d="M432.02,-171.14C447.68,-172.34 463.44,-173.54 478.3,-174.68"/>
<polygon fill="midnightblue" stroke="midnightblue" points="478.2,-178.18 488.43,-175.45 478.73,-171.2 478.2,-178.18"/>
</g>
<!-- Node7&#45;&gt;Node8 -->
<g id="edge8" class="edge">
<title>Node7&#45;&gt;Node8</title>
<path fill="none" stroke="midnightblue" d="M363.99,-152.47C391.06,-149.42 425.24,-146.45 457.5,-144.25"/>
<polygon fill="midnightblue" stroke="midnightblue" points="458.14,-147.71 467.89,-143.56 457.68,-140.73 458.14,-147.71"/>
</g>
<!-- Node8&#45;&gt;Node5 -->
<g id="edge9" class="edge">
<title>Node8&#45;&gt;Node5</title>
<path fill="none" stroke="midnightblue" d="M625.96,-152.59C636.19,-155.07 646.53,-158.16 656,-162 673.6,-169.13 675.45,-175.69 692,-185 725.3,-203.73 764.86,-222.69 791.63,-235.06"/>
<polygon fill="midnightblue" stroke="midnightblue" points="790.32,-238.31 800.87,-239.3 793.25,-231.95 790.32,-238.31"/>
</g>
<!-- Node8&#45;&gt;Node6 -->
<g id="edge10" class="edge">
<title>Node8&#45;&gt;Node6</title>
<path fill="none" stroke="midnightblue" d="M656.32,-151.27C676.55,-153.06 698.06,-154.97 718.67,-156.8"/>
<polygon fill="midnightblue" stroke="midnightblue" points="718.43,-160.29 728.7,-157.69 719.05,-153.32 718.43,-160.29"/>
</g>
<!-- Node8&#45;&gt;Node7 -->
<g id="edge11" class="edge">
<title>Node8&#45;&gt;Node7</title>
<path fill="none" stroke="midnightblue" d="M509.69,-152.51C489.87,-154.75 466.21,-156.94 442.28,-158.82"/>
<polygon fill="midnightblue" stroke="midnightblue" points="441.72,-155.35 432.02,-159.61 442.26,-162.33 441.72,-155.35"/>
</g>
<!-- Node8&#45;&gt;Node9 -->
<g id="edge12" class="edge">
<title>Node8&#45;&gt;Node9</title>
<path fill="none" stroke="midnightblue" d="M656.32,-134.37C673.45,-132.79 691.49,-131.12 709.13,-129.48"/>
<polygon fill="midnightblue" stroke="midnightblue" points="709.82,-132.94 719.46,-128.53 709.18,-125.97 709.82,-132.94"/>
</g>
<!-- Node11 -->
<g id="node11" class="node">
<title>Node11</title>
<g id="a_node11"><a xlink:href="../../d1/da2/class_user_manager.html#a9701a3e6255dc1e9921415aa42cccf6d" target="_top" xlink:title="Envia el código SMS de verificación y lanza los posibles eventos">
<polygon fill="white" stroke="black" points="477,-0.5 477,-19.5 647,-19.5 647,-0.5 477,-0.5"/>
<text text-anchor="middle" x="562" y="-7.5" font-family="Helvetica,sans-Serif" font-size="10.00">UserManager.SendVerificationCode</text>
</a>
</g>
</g>
<!-- Node10&#45;&gt;Node11 -->
<g id="edge15" class="edge">
<title>Node10&#45;&gt;Node11</title>
<path fill="none" stroke="midnightblue" d="M401.16,-10C422.46,-10 445.28,-10 466.82,-10"/>
<polygon fill="midnightblue" stroke="midnightblue" points="466.95,-13.5 476.95,-10 466.95,-6.5 466.95,-13.5"/>
</g>
<!-- Node12 -->
<g id="node12" class="node">
<title>Node12</title>
<g id="a_node12"><a xlink:href="../../d1/da2/class_user_manager.html#a8473c8b09bc25b4ee3ccc8ad934f1a4d" target="_top" xlink:title="Verifica el número de teléfono con un objeto de credenciales">
<polygon fill="white" stroke="black" points="737,-52.5 737,-71.5 910,-71.5 910,-52.5 737,-52.5"/>
<text text-anchor="middle" x="823.5" y="-59.5" font-family="Helvetica,sans-Serif" font-size="10.00">UserManager.VerifyPhoneCredential</text>
</a>
</g>
</g>
<!-- Node11&#45;&gt;Node12 -->
<g id="edge16" class="edge">
<title>Node11&#45;&gt;Node12</title>
<path fill="none" stroke="midnightblue" d="M610.6,-19.54C654.08,-28.25 718.48,-41.16 764.86,-50.45"/>
<polygon fill="midnightblue" stroke="midnightblue" points="764.27,-53.9 774.77,-52.43 765.65,-47.04 764.27,-53.9"/>
</g>
<!-- Node13 -->
<g id="node13" class="node">
<title>Node13</title>
<g id="a_node13"><a xlink:href="../../d5/dd7/class_database_manager.html#ae84a345ac51bb80ebf7fda88043ef499" target="_top" xlink:title="Establece el userID de un usuario">
<polygon fill="white" stroke="black" points="991,-52.5 991,-71.5 1134,-71.5 1134,-52.5 991,-52.5"/>
<text text-anchor="middle" x="1062.5" y="-59.5" font-family="Helvetica,sans-Serif" font-size="10.00">DatabaseManager.SetUserID</text>
</a>
</g>
</g>
<!-- Node12&#45;&gt;Node13 -->
<g id="edge17" class="edge">
<title>Node12&#45;&gt;Node13</title>
<path fill="none" stroke="midnightblue" d="M910.06,-62C933.06,-62 957.85,-62 980.59,-62"/>
<polygon fill="midnightblue" stroke="midnightblue" points="980.87,-65.5 990.87,-62 980.87,-58.5 980.87,-65.5"/>
</g>
<!-- Node14&#45;&gt;Node4 -->
<g id="edge20" class="edge">
<title>Node14&#45;&gt;Node4</title>
<path fill="none" stroke="midnightblue" d="M395.31,-133.54C407.77,-136.01 420.34,-139.12 432,-143 449.16,-148.72 450.97,-155.91 468,-162 475.5,-164.68 483.49,-167.03 491.5,-169.07"/>
<polygon fill="midnightblue" stroke="midnightblue" points="490.73,-172.49 501.27,-171.42 492.36,-165.68 490.73,-172.49"/>
</g>
<!-- Node14&#45;&gt;Node8 -->
<g id="edge21" class="edge">
<title>Node14&#45;&gt;Node8</title>
<path fill="none" stroke="midnightblue" d="M404.68,-131.05C421.88,-132.36 439.97,-133.75 457.49,-135.09"/>
<polygon fill="midnightblue" stroke="midnightblue" points="457.49,-138.6 467.73,-135.87 458.02,-131.62 457.49,-138.6"/>
</g>
<!-- Node15 -->
<g id="node15" class="node">
<title>Node15</title>
<g id="a_node15"><a xlink:href="../../d1/da2/class_user_manager.html#ac1d99d0f5e70010dee110ba670f659b6" target="_top" xlink:title="Verifica el número de teléfono con el código SMS de verificación">
<polygon fill="white" stroke="black" points="497,-95.5 497,-114.5 627,-114.5 627,-95.5 497,-95.5"/>
<text text-anchor="middle" x="562" y="-102.5" font-family="Helvetica,sans-Serif" font-size="10.00">UserManager.VerifyPhone</text>
</a>
</g>
</g>
<!-- Node14&#45;&gt;Node15 -->
<g id="edge22" class="edge">
<title>Node14&#45;&gt;Node15</title>
<path fill="none" stroke="midnightblue" d="M404.68,-116.95C431.75,-114.88 461,-112.65 486.8,-110.67"/>
<polygon fill="midnightblue" stroke="midnightblue" points="487.17,-114.16 496.87,-109.9 486.63,-107.18 487.17,-114.16"/>
</g>
<!-- Node15&#45;&gt;Node12 -->
<g id="edge23" class="edge">
<title>Node15&#45;&gt;Node12</title>
<path fill="none" stroke="midnightblue" d="M620.59,-95.46C660.32,-88.87 713.28,-80.1 754.99,-73.19"/>
<polygon fill="midnightblue" stroke="midnightblue" points="755.78,-76.6 765.07,-71.52 754.63,-69.7 755.78,-76.6"/>
</g>
</g>
</svg>
