<?xml version="1.0" encoding="UTF-8" standalone="no"?>
<!DOCTYPE svg PUBLIC "-//W3C//DTD SVG 1.1//EN"
 "http://www.w3.org/Graphics/SVG/1.1/DTD/svg11.dtd">
<!-- Generated by graphviz version 2.49.0 (20210828.1703)
 -->
<!-- Title: RegisterPhoneUIController.VerifyPhone Pages: 1 -->
<svg width="900pt" height="202pt"
 viewBox="0.00 0.00 900.00 202.37" xmlns="http://www.w3.org/2000/svg" xmlns:xlink="http://www.w3.org/1999/xlink">
<g id="graph0" class="graph" transform="scale(1 1) rotate(0) translate(4 198.37)">
<title>RegisterPhoneUIController.VerifyPhone</title>
<polygon fill="white" stroke="transparent" points="-4,4 -4,-198.37 896,-198.37 896,4 -4,4"/>
<!-- Node1 -->
<g id="node1" class="node">
<title>Node1</title>
<g id="a_node1"><a xlink:title="Verifica el teléfono introducido con el código SMS introducido">
<polygon fill="#bfbfbf" stroke="black" points="0,-76.5 0,-95.5 186,-95.5 186,-76.5 0,-76.5"/>
<text text-anchor="middle" x="93" y="-83.5" font-family="Helvetica,sans-Serif" font-size="10.00">RegisterPhoneUIController.VerifyPhone</text>
</a>
</g>
</g>
<!-- Node2 -->
<g id="node2" class="node">
<title>Node2</title>
<g id="a_node2"><a xlink:href="../../d3/dda/class_my_scene_manager.html#a6787f49b73d5e0c4e80fd67d38f5550a" target="_top" xlink:title="Carga la escena seleccionada">
<polygon fill="white" stroke="black" points="745,-133.5 745,-152.5 892,-152.5 892,-133.5 745,-133.5"/>
<text text-anchor="middle" x="818.5" y="-140.5" font-family="Helvetica,sans-Serif" font-size="10.00">MySceneManager.LoadScene</text>
</a>
</g>
</g>
<!-- Node1&#45;&gt;Node2 -->
<g id="edge1" class="edge">
<title>Node1&#45;&gt;Node2</title>
<path fill="none" stroke="midnightblue" d="M120.01,-95.57C177.69,-116.22 321.13,-164.45 446,-181 561.88,-196.36 593.77,-200.6 709,-181 736.47,-176.33 766.25,-165.45 787.65,-156.52"/>
<polygon fill="midnightblue" stroke="midnightblue" points="789.03,-159.74 796.85,-152.59 786.28,-153.3 789.03,-159.74"/>
</g>
<!-- Node3 -->
<g id="node3" class="node">
<title>Node3</title>
<g id="a_node3"><a xlink:href="../../dd/ddc/class_register_phone_u_i_controller.html#a5cd62efcd8f1e816c759ac0ede78aaaf" target="_top" xlink:title="Se desuscribe de los eventos de clases estáticas">
<polygon fill="white" stroke="black" points="222,-76.5 222,-95.5 410,-95.5 410,-76.5 222,-76.5"/>
<text text-anchor="middle" x="316" y="-83.5" font-family="Helvetica,sans-Serif" font-size="10.00">RegisterPhoneUIController.Unsubscribe</text>
</a>
</g>
</g>
<!-- Node1&#45;&gt;Node3 -->
<g id="edge2" class="edge">
<title>Node1&#45;&gt;Node3</title>
<path fill="none" stroke="midnightblue" d="M186.12,-86C194.64,-86 203.3,-86 211.9,-86"/>
<polygon fill="midnightblue" stroke="midnightblue" points="211.96,-89.5 221.96,-86 211.96,-82.5 211.96,-89.5"/>
</g>
<!-- Node8 -->
<g id="node8" class="node">
<title>Node8</title>
<g id="a_node8"><a xlink:href="../../d1/da2/class_user_manager.html#ac1d99d0f5e70010dee110ba670f659b6" target="_top" xlink:title="Verifica el número de teléfono con el código SMS de verificación">
<polygon fill="white" stroke="black" points="251,-19.5 251,-38.5 381,-38.5 381,-19.5 251,-19.5"/>
<text text-anchor="middle" x="316" y="-26.5" font-family="Helvetica,sans-Serif" font-size="10.00">UserManager.VerifyPhone</text>
</a>
</g>
</g>
<!-- Node1&#45;&gt;Node8 -->
<g id="edge9" class="edge">
<title>Node1&#45;&gt;Node8</title>
<path fill="none" stroke="midnightblue" d="M130.99,-76.46C168.68,-66.74 227.25,-51.63 268.15,-41.08"/>
<polygon fill="midnightblue" stroke="midnightblue" points="269.08,-44.46 277.89,-38.57 267.33,-37.68 269.08,-44.46"/>
</g>
<!-- Node4 -->
<g id="node4" class="node">
<title>Node4</title>
<g id="a_node4"><a xlink:href="../../dd/ddc/class_register_phone_u_i_controller.html#a5ebb5fa37ace52b830ee425ab69376e8" target="_top" xlink:title="Llamada cuando se captura automáticamente el código">
<polygon fill="white" stroke="black" points="446,-152.5 446,-171.5 709,-171.5 709,-152.5 446,-152.5"/>
<text text-anchor="middle" x="577.5" y="-159.5" font-family="Helvetica,sans-Serif" font-size="10.00">RegisterPhoneUIController.OnCodeAutoRetrievalTimeOut</text>
</a>
</g>
</g>
<!-- Node3&#45;&gt;Node4 -->
<g id="edge3" class="edge">
<title>Node3&#45;&gt;Node4</title>
<path fill="none" stroke="midnightblue" d="M334.37,-95.51C358.63,-108.35 404.35,-131.01 446,-143 456.28,-145.96 467.14,-148.47 478.05,-150.6"/>
<polygon fill="midnightblue" stroke="midnightblue" points="477.59,-154.07 488.06,-152.45 478.86,-147.19 477.59,-154.07"/>
</g>
<!-- Node5 -->
<g id="node5" class="node">
<title>Node5</title>
<g id="a_node5"><a xlink:href="../../dd/ddc/class_register_phone_u_i_controller.html#a1f99826db3bbc1b5bc00fe21b5241f5e" target="_top" xlink:title="Llamada cuando se envíaa el código de verificación SMS">
<polygon fill="white" stroke="black" points="483,-114.5 483,-133.5 672,-133.5 672,-114.5 483,-114.5"/>
<text text-anchor="middle" x="577.5" y="-121.5" font-family="Helvetica,sans-Serif" font-size="10.00">RegisterPhoneUIController.OnCodeSent</text>
</a>
</g>
</g>
<!-- Node3&#45;&gt;Node5 -->
<g id="edge4" class="edge">
<title>Node3&#45;&gt;Node5</title>
<path fill="none" stroke="midnightblue" d="M381.63,-95.54C402.2,-98.57 425.06,-101.93 446,-105 463.69,-107.59 482.74,-110.37 500.66,-112.98"/>
<polygon fill="midnightblue" stroke="midnightblue" points="500.38,-116.48 510.78,-114.45 501.39,-109.55 500.38,-116.48"/>
</g>
<!-- Node6 -->
<g id="node6" class="node">
<title>Node6</title>
<g id="a_node6"><a xlink:href="../../dd/ddc/class_register_phone_u_i_controller.html#aa85933669dcb72558a71039eba32d88d" target="_top" xlink:title="Llamada cuando se completa la verificación">
<polygon fill="white" stroke="black" points="457,-76.5 457,-95.5 698,-95.5 698,-76.5 457,-76.5"/>
<text text-anchor="middle" x="577.5" y="-83.5" font-family="Helvetica,sans-Serif" font-size="10.00">RegisterPhoneUIController.OnVerificationCompleted</text>
</a>
</g>
</g>
<!-- Node3&#45;&gt;Node6 -->
<g id="edge5" class="edge">
<title>Node3&#45;&gt;Node6</title>
<path fill="none" stroke="midnightblue" d="M410.32,-79.49C422.12,-79.33 434.37,-79.25 446.61,-79.25"/>
<polygon fill="midnightblue" stroke="midnightblue" points="446.89,-82.75 456.89,-79.27 446.9,-75.75 446.89,-82.75"/>
</g>
<!-- Node7 -->
<g id="node7" class="node">
<title>Node7</title>
<g id="a_node7"><a xlink:href="../../dd/ddc/class_register_phone_u_i_controller.html#a7838bc038a08379b5f1f50af435ac6d7" target="_top" xlink:title="Llamada cuando falla la verificación">
<polygon fill="white" stroke="black" points="467,-38.5 467,-57.5 688,-57.5 688,-38.5 467,-38.5"/>
<text text-anchor="middle" x="577.5" y="-45.5" font-family="Helvetica,sans-Serif" font-size="10.00">RegisterPhoneUIController.OnVerificationFailed</text>
</a>
</g>
</g>
<!-- Node3&#45;&gt;Node7 -->
<g id="edge8" class="edge">
<title>Node3&#45;&gt;Node7</title>
<path fill="none" stroke="midnightblue" d="M381.63,-76.46C402.2,-73.43 425.06,-70.07 446,-67 463.69,-64.41 482.74,-61.63 500.66,-59.02"/>
<polygon fill="midnightblue" stroke="midnightblue" points="501.39,-62.45 510.78,-57.55 500.38,-55.52 501.39,-62.45"/>
</g>
<!-- Node6&#45;&gt;Node2 -->
<g id="edge6" class="edge">
<title>Node6&#45;&gt;Node2</title>
<path fill="none" stroke="midnightblue" d="M660.76,-95.52C676.87,-98.07 693.55,-101.21 709,-105 734.94,-111.37 763.4,-121.46 784.67,-129.64"/>
<polygon fill="midnightblue" stroke="midnightblue" points="783.6,-132.99 794.19,-133.37 786.15,-126.47 783.6,-132.99"/>
</g>
<!-- Node6&#45;&gt;Node3 -->
<g id="edge7" class="edge">
<title>Node6&#45;&gt;Node3</title>
<path fill="none" stroke="midnightblue" d="M456.89,-92.73C444.68,-92.78 432.35,-92.74 420.33,-92.62"/>
<polygon fill="midnightblue" stroke="midnightblue" points="420.36,-89.12 410.32,-92.51 420.28,-96.12 420.36,-89.12"/>
</g>
<!-- Node9 -->
<g id="node9" class="node">
<title>Node9</title>
<g id="a_node9"><a xlink:href="../../d1/da2/class_user_manager.html#a8473c8b09bc25b4ee3ccc8ad934f1a4d" target="_top" xlink:title="Verifica el número de teléfono con un objeto de credenciales">
<polygon fill="white" stroke="black" points="491,-0.5 491,-19.5 664,-19.5 664,-0.5 491,-0.5"/>
<text text-anchor="middle" x="577.5" y="-7.5" font-family="Helvetica,sans-Serif" font-size="10.00">UserManager.VerifyPhoneCredential</text>
</a>
</g>
</g>
<!-- Node8&#45;&gt;Node9 -->
<g id="edge10" class="edge">
<title>Node8&#45;&gt;Node9</title>
<path fill="none" stroke="midnightblue" d="M381.15,-24.3C411.07,-22.11 447.31,-19.46 480.41,-17.04"/>
<polygon fill="midnightblue" stroke="midnightblue" points="480.86,-20.51 490.57,-16.29 480.35,-13.53 480.86,-20.51"/>
</g>
<!-- Node10 -->
<g id="node10" class="node">
<title>Node10</title>
<g id="a_node10"><a xlink:href="../../d5/dd7/class_database_manager.html#ae84a345ac51bb80ebf7fda88043ef499" target="_top" xlink:title="Establece el userID de un usuario">
<polygon fill="white" stroke="black" points="747,-0.5 747,-19.5 890,-19.5 890,-0.5 747,-0.5"/>
<text text-anchor="middle" x="818.5" y="-7.5" font-family="Helvetica,sans-Serif" font-size="10.00">DatabaseManager.SetUserID</text>
</a>
</g>
</g>
<!-- Node9&#45;&gt;Node10 -->
<g id="edge11" class="edge">
<title>Node9&#45;&gt;Node10</title>
<path fill="none" stroke="midnightblue" d="M664.11,-10C687.68,-10 713.16,-10 736.47,-10"/>
<polygon fill="midnightblue" stroke="midnightblue" points="736.65,-13.5 746.65,-10 736.65,-6.5 736.65,-13.5"/>
</g>
</g>
</svg>
