<?xml version="1.0" encoding="UTF-8" standalone="no"?>
<!DOCTYPE svg PUBLIC "-//W3C//DTD SVG 1.1//EN"
 "http://www.w3.org/Graphics/SVG/1.1/DTD/svg11.dtd">
<!-- Generated by graphviz version 2.49.0 (20210828.1703)
 -->
<!-- Title: RegisterPhoneUIController.OnVerificationCompleted Pages: 1 -->
<svg width="772pt" height="104pt"
 viewBox="0.00 0.00 772.00 104.00" xmlns="http://www.w3.org/2000/svg" xmlns:xlink="http://www.w3.org/1999/xlink">
<g id="graph0" class="graph" transform="scale(1 1) rotate(0) translate(4 100)">
<title>RegisterPhoneUIController.OnVerificationCompleted</title>
<polygon fill="white" stroke="transparent" points="-4,4 -4,-100 768,-100 768,4 -4,4"/>
<!-- Node1 -->
<g id="node1" class="node">
<title>Node1</title>
<g id="a_node1"><a xlink:title="Llamada cuando se completa la verificación">
<polygon fill="#bfbfbf" stroke="black" points="0,-38.5 0,-57.5 241,-57.5 241,-38.5 0,-38.5"/>
<text text-anchor="middle" x="120.5" y="-45.5" font-family="Helvetica,sans-Serif" font-size="10.00">RegisterPhoneUIController.OnVerificationCompleted</text>
</a>
</g>
</g>
<!-- Node2 -->
<g id="node2" class="node">
<title>Node2</title>
<g id="a_node2"><a xlink:href="../../d3/dda/class_my_scene_manager.html#a6787f49b73d5e0c4e80fd67d38f5550a" target="_top" xlink:title="Carga la escena seleccionada">
<polygon fill="white" stroke="black" points="297.5,-76.5 297.5,-95.5 444.5,-95.5 444.5,-76.5 297.5,-76.5"/>
<text text-anchor="middle" x="371" y="-83.5" font-family="Helvetica,sans-Serif" font-size="10.00">MySceneManager.LoadScene</text>
</a>
</g>
</g>
<!-- Node1&#45;&gt;Node2 -->
<g id="edge1" class="edge">
<title>Node1&#45;&gt;Node2</title>
<path fill="none" stroke="midnightblue" d="M183.89,-57.54C218.45,-62.83 261.58,-69.42 297.62,-74.93"/>
<polygon fill="midnightblue" stroke="midnightblue" points="297.17,-78.4 307.59,-76.46 298.23,-71.48 297.17,-78.4"/>
</g>
<!-- Node3 -->
<g id="node3" class="node">
<title>Node3</title>
<g id="a_node3"><a xlink:href="../../dd/ddc/class_register_phone_u_i_controller.html#a5cd62efcd8f1e816c759ac0ede78aaaf" target="_top" xlink:title="Se desuscribe de los eventos de clases estáticas">
<polygon fill="white" stroke="black" points="277,-38.5 277,-57.5 465,-57.5 465,-38.5 277,-38.5"/>
<text text-anchor="middle" x="371" y="-45.5" font-family="Helvetica,sans-Serif" font-size="10.00">RegisterPhoneUIController.Unsubscribe</text>
</a>
</g>
</g>
<!-- Node1&#45;&gt;Node3 -->
<g id="edge2" class="edge">
<title>Node1&#45;&gt;Node3</title>
<path fill="none" stroke="midnightblue" d="M241.02,-41.25C249.59,-41.24 258.2,-41.27 266.67,-41.34"/>
<polygon fill="midnightblue" stroke="midnightblue" points="266.89,-44.84 276.92,-41.44 266.96,-37.84 266.89,-44.84"/>
</g>
<!-- Node3&#45;&gt;Node1 -->
<g id="edge5" class="edge">
<title>Node3&#45;&gt;Node1</title>
<path fill="none" stroke="midnightblue" d="M276.92,-54.56C268.5,-54.66 259.87,-54.73 251.2,-54.74"/>
<polygon fill="midnightblue" stroke="midnightblue" points="251.02,-51.24 241.02,-54.75 251.02,-58.24 251.02,-51.24"/>
</g>
<!-- Node4 -->
<g id="node4" class="node">
<title>Node4</title>
<g id="a_node4"><a xlink:href="../../dd/ddc/class_register_phone_u_i_controller.html#a5ebb5fa37ace52b830ee425ab69376e8" target="_top" xlink:title="Llamada cuando se captura automáticamente el código">
<polygon fill="white" stroke="black" points="501,-76.5 501,-95.5 764,-95.5 764,-76.5 501,-76.5"/>
<text text-anchor="middle" x="632.5" y="-83.5" font-family="Helvetica,sans-Serif" font-size="10.00">RegisterPhoneUIController.OnCodeAutoRetrievalTimeOut</text>
</a>
</g>
</g>
<!-- Node3&#45;&gt;Node4 -->
<g id="edge3" class="edge">
<title>Node3&#45;&gt;Node4</title>
<path fill="none" stroke="midnightblue" d="M436.63,-57.54C457.2,-60.57 480.06,-63.93 501,-67 518.69,-69.59 537.74,-72.37 555.66,-74.98"/>
<polygon fill="midnightblue" stroke="midnightblue" points="555.38,-78.48 565.78,-76.45 556.39,-71.55 555.38,-78.48"/>
</g>
<!-- Node5 -->
<g id="node5" class="node">
<title>Node5</title>
<g id="a_node5"><a xlink:href="../../dd/ddc/class_register_phone_u_i_controller.html#a1f99826db3bbc1b5bc00fe21b5241f5e" target="_top" xlink:title="Llamada cuando se envíaa el código de verificación SMS">
<polygon fill="white" stroke="black" points="538,-38.5 538,-57.5 727,-57.5 727,-38.5 538,-38.5"/>
<text text-anchor="middle" x="632.5" y="-45.5" font-family="Helvetica,sans-Serif" font-size="10.00">RegisterPhoneUIController.OnCodeSent</text>
</a>
</g>
</g>
<!-- Node3&#45;&gt;Node5 -->
<g id="edge4" class="edge">
<title>Node3&#45;&gt;Node5</title>
<path fill="none" stroke="midnightblue" d="M465.32,-48C485.55,-48 507.06,-48 527.67,-48"/>
<polygon fill="midnightblue" stroke="midnightblue" points="527.7,-51.5 537.7,-48 527.7,-44.5 527.7,-51.5"/>
</g>
<!-- Node6 -->
<g id="node6" class="node">
<title>Node6</title>
<g id="a_node6"><a xlink:href="../../dd/ddc/class_register_phone_u_i_controller.html#a7838bc038a08379b5f1f50af435ac6d7" target="_top" xlink:title="Llamada cuando falla la verificación">
<polygon fill="white" stroke="black" points="522,-0.5 522,-19.5 743,-19.5 743,-0.5 522,-0.5"/>
<text text-anchor="middle" x="632.5" y="-7.5" font-family="Helvetica,sans-Serif" font-size="10.00">RegisterPhoneUIController.OnVerificationFailed</text>
</a>
</g>
</g>
<!-- Node3&#45;&gt;Node6 -->
<g id="edge6" class="edge">
<title>Node3&#45;&gt;Node6</title>
<path fill="none" stroke="midnightblue" d="M436.63,-38.46C457.2,-35.43 480.06,-32.07 501,-29 518.69,-26.41 537.74,-23.63 555.66,-21.02"/>
<polygon fill="midnightblue" stroke="midnightblue" points="556.39,-24.45 565.78,-19.55 555.38,-17.52 556.39,-24.45"/>
</g>
</g>
</svg>
