<?xml version="1.0" encoding="UTF-8" standalone="no"?>
<!DOCTYPE svg PUBLIC "-//W3C//DTD SVG 1.1//EN"
 "http://www.w3.org/Graphics/SVG/1.1/DTD/svg11.dtd">
<!-- Generated by graphviz version 2.49.0 (20210828.1703)
 -->
<!-- Title: RegisterPhoneUIController.SendCode Pages: 1 -->
<svg width="781pt" height="28pt"
 viewBox="0.00 0.00 781.00 28.00" xmlns="http://www.w3.org/2000/svg" xmlns:xlink="http://www.w3.org/1999/xlink">
<g id="graph0" class="graph" transform="scale(1 1) rotate(0) translate(4 24)">
<title>RegisterPhoneUIController.SendCode</title>
<polygon fill="white" stroke="transparent" points="-4,4 -4,-24 777,-24 777,4 -4,4"/>
<!-- Node1 -->
<g id="node1" class="node">
<title>Node1</title>
<g id="a_node1"><a xlink:title="Envia el código SMS al teléfono introducido">
<polygon fill="#bfbfbf" stroke="black" points="0,-0.5 0,-19.5 179,-19.5 179,-0.5 0,-0.5"/>
<text text-anchor="middle" x="89.5" y="-7.5" font-family="Helvetica,sans-Serif" font-size="10.00">RegisterPhoneUIController.SendCode</text>
</a>
</g>
</g>
<!-- Node2 -->
<g id="node2" class="node">
<title>Node2</title>
<g id="a_node2"><a xlink:href="../../d1/da2/class_user_manager.html#a9701a3e6255dc1e9921415aa42cccf6d" target="_top" xlink:title="Envia el código SMS de verificación y lanza los posibles eventos">
<polygon fill="white" stroke="black" points="215,-0.5 215,-19.5 385,-19.5 385,-0.5 215,-0.5"/>
<text text-anchor="middle" x="300" y="-7.5" font-family="Helvetica,sans-Serif" font-size="10.00">UserManager.SendVerificationCode</text>
</a>
</g>
</g>
<!-- Node1&#45;&gt;Node2 -->
<g id="edge1" class="edge">
<title>Node1&#45;&gt;Node2</title>
<path fill="none" stroke="midnightblue" d="M179.23,-10C187.75,-10 196.41,-10 204.99,-10"/>
<polygon fill="midnightblue" stroke="midnightblue" points="204.99,-13.5 214.99,-10 204.99,-6.5 204.99,-13.5"/>
</g>
<!-- Node3 -->
<g id="node3" class="node">
<title>Node3</title>
<g id="a_node3"><a xlink:href="../../d1/da2/class_user_manager.html#a8473c8b09bc25b4ee3ccc8ad934f1a4d" target="_top" xlink:title="Verifica el número de teléfono con un objeto de credenciales">
<polygon fill="white" stroke="black" points="421,-0.5 421,-19.5 594,-19.5 594,-0.5 421,-0.5"/>
<text text-anchor="middle" x="507.5" y="-7.5" font-family="Helvetica,sans-Serif" font-size="10.00">UserManager.VerifyPhoneCredential</text>
</a>
</g>
</g>
<!-- Node2&#45;&gt;Node3 -->
<g id="edge2" class="edge">
<title>Node2&#45;&gt;Node3</title>
<path fill="none" stroke="midnightblue" d="M385.18,-10C393.53,-10 402.05,-10 410.51,-10"/>
<polygon fill="midnightblue" stroke="midnightblue" points="410.79,-13.5 420.79,-10 410.79,-6.5 410.79,-13.5"/>
</g>
<!-- Node4 -->
<g id="node4" class="node">
<title>Node4</title>
<g id="a_node4"><a xlink:href="../../d5/dd7/class_database_manager.html#ae84a345ac51bb80ebf7fda88043ef499" target="_top" xlink:title="Establece el userID de un usuario">
<polygon fill="white" stroke="black" points="630,-0.5 630,-19.5 773,-19.5 773,-0.5 630,-0.5"/>
<text text-anchor="middle" x="701.5" y="-7.5" font-family="Helvetica,sans-Serif" font-size="10.00">DatabaseManager.SetUserID</text>
</a>
</g>
</g>
<!-- Node3&#45;&gt;Node4 -->
<g id="edge3" class="edge">
<title>Node3&#45;&gt;Node4</title>
<path fill="none" stroke="midnightblue" d="M594.11,-10C602.57,-10 611.14,-10 619.55,-10"/>
<polygon fill="midnightblue" stroke="midnightblue" points="619.72,-13.5 629.72,-10 619.72,-6.5 619.72,-13.5"/>
</g>
</g>
</svg>
