<?xml version="1.0" encoding="UTF-8" standalone="no"?>
<!DOCTYPE svg PUBLIC "-//W3C//DTD SVG 1.1//EN"
 "http://www.w3.org/Graphics/SVG/1.1/DTD/svg11.dtd">
<!-- Generated by graphviz version 2.49.0 (20210828.1703)
 -->
<!-- Title: RegisterPhoneUIController.Update Pages: 1 -->
<svg width="420pt" height="66pt"
 viewBox="0.00 0.00 420.00 66.00" xmlns="http://www.w3.org/2000/svg" xmlns:xlink="http://www.w3.org/1999/xlink">
<g id="graph0" class="graph" transform="scale(1 1) rotate(0) translate(4 62)">
<title>RegisterPhoneUIController.Update</title>
<polygon fill="white" stroke="transparent" points="-4,4 -4,-62 416,-62 416,4 -4,4"/>
<!-- Node1 -->
<g id="node1" class="node">
<title>Node1</title>
<g id="a_node1"><a xlink:title="Llamada al comienzo de cada fotograma">
<polygon fill="#bfbfbf" stroke="black" points="0,-19.5 0,-38.5 164,-38.5 164,-19.5 0,-19.5"/>
<text text-anchor="middle" x="82" y="-26.5" font-family="Helvetica,sans-Serif" font-size="10.00">RegisterPhoneUIController.Update</text>
</a>
</g>
</g>
<!-- Node2 -->
<g id="node2" class="node">
<title>Node2</title>
<g id="a_node2"><a xlink:href="../../dd/ddc/class_register_phone_u_i_controller.html#aa53b9e247360a0829d2c06b01356a770" target="_top" xlink:title="Evalua si el código SMS introducido es válido">
<polygon fill="white" stroke="black" points="203,-38.5 203,-57.5 409,-57.5 409,-38.5 203,-38.5"/>
<text text-anchor="middle" x="306" y="-45.5" font-family="Helvetica,sans-Serif" font-size="10.00">RegisterPhoneUIController.IsValidCodeInput</text>
</a>
</g>
</g>
<!-- Node1&#45;&gt;Node2 -->
<g id="edge1" class="edge">
<title>Node1&#45;&gt;Node2</title>
<path fill="none" stroke="midnightblue" d="M164.09,-35.94C173.47,-36.74 183.15,-37.57 192.85,-38.4"/>
<polygon fill="midnightblue" stroke="midnightblue" points="192.68,-41.9 202.94,-39.27 193.28,-34.93 192.68,-41.9"/>
</g>
<!-- Node3 -->
<g id="node3" class="node">
<title>Node3</title>
<g id="a_node3"><a xlink:href="../../dd/ddc/class_register_phone_u_i_controller.html#a910690f5b527bbd969fbf8fa3ea8547e" target="_top" xlink:title="Evalua si el teléfono introducido es válido">
<polygon fill="white" stroke="black" points="200,-0.5 200,-19.5 412,-19.5 412,-0.5 200,-0.5"/>
<text text-anchor="middle" x="306" y="-7.5" font-family="Helvetica,sans-Serif" font-size="10.00">RegisterPhoneUIController.IsValidPhoneInput</text>
</a>
</g>
</g>
<!-- Node1&#45;&gt;Node3 -->
<g id="edge2" class="edge">
<title>Node1&#45;&gt;Node3</title>
<path fill="none" stroke="midnightblue" d="M164.09,-22.06C172.46,-21.34 181.07,-20.61 189.72,-19.87"/>
<polygon fill="midnightblue" stroke="midnightblue" points="190.21,-23.34 199.88,-19 189.61,-16.36 190.21,-23.34"/>
</g>
</g>
</svg>
