<?xml version="1.0" encoding="UTF-8" standalone="no"?>
<!DOCTYPE svg PUBLIC "-//W3C//DTD SVG 1.1//EN"
 "http://www.w3.org/Graphics/SVG/1.1/DTD/svg11.dtd">
<!-- Generated by graphviz version 2.49.0 (20210828.1703)
 -->
<!-- Title: RegisterPhoneUIController.Unsubscribe Pages: 1 -->
<svg width="664pt" height="104pt"
 viewBox="0.00 0.00 664.00 104.00" xmlns="http://www.w3.org/2000/svg" xmlns:xlink="http://www.w3.org/1999/xlink">
<g id="graph0" class="graph" transform="scale(1 1) rotate(0) translate(4 100)">
<title>RegisterPhoneUIController.Unsubscribe</title>
<polygon fill="white" stroke="transparent" points="-4,4 -4,-100 660,-100 660,4 -4,4"/>
<!-- Node1 -->
<g id="node1" class="node">
<title>Node1</title>
<g id="a_node1"><a xlink:title="Se desuscribe de los eventos de clases estáticas">
<polygon fill="#bfbfbf" stroke="black" points="468,-57.5 468,-76.5 656,-76.5 656,-57.5 468,-57.5"/>
<text text-anchor="middle" x="562" y="-64.5" font-family="Helvetica,sans-Serif" font-size="10.00">RegisterPhoneUIController.Unsubscribe</text>
</a>
</g>
</g>
<!-- Node2 -->
<g id="node2" class="node">
<title>Node2</title>
<g id="a_node2"><a xlink:href="../../dd/ddc/class_register_phone_u_i_controller.html#aa85933669dcb72558a71039eba32d88d" target="_top" xlink:title="Llamada cuando se completa la verificación">
<polygon fill="white" stroke="black" points="191,-76.5 191,-95.5 432,-95.5 432,-76.5 191,-76.5"/>
<text text-anchor="middle" x="311.5" y="-83.5" font-family="Helvetica,sans-Serif" font-size="10.00">RegisterPhoneUIController.OnVerificationCompleted</text>
</a>
</g>
</g>
<!-- Node1&#45;&gt;Node2 -->
<g id="edge1" class="edge">
<title>Node1&#45;&gt;Node2</title>
<path fill="none" stroke="midnightblue" d="M457.38,-68.26C425.18,-70.46 391.07,-73.42 364.04,-76.46"/>
<polygon fill="midnightblue" stroke="midnightblue" points="458.01,-71.72 467.76,-67.57 457.55,-64.74 458.01,-71.72"/>
</g>
<!-- Node3 -->
<g id="node3" class="node">
<title>Node3</title>
<g id="a_node3"><a xlink:href="../../dd/ddc/class_register_phone_u_i_controller.html#abecd41c11aa752bec550978e4a58d2a1" target="_top" xlink:title="Llamada justo antes del primer fotograma">
<polygon fill="white" stroke="black" points="0,-38.5 0,-57.5 155,-57.5 155,-38.5 0,-38.5"/>
<text text-anchor="middle" x="77.5" y="-45.5" font-family="Helvetica,sans-Serif" font-size="10.00">RegisterPhoneUIController.Start</text>
</a>
</g>
</g>
<!-- Node1&#45;&gt;Node3 -->
<g id="edge4" class="edge">
<title>Node1&#45;&gt;Node3</title>
<path fill="none" stroke="midnightblue" d="M457.94,-62.94C367.24,-59.37 237.21,-54.25 155.35,-51.03"/>
<polygon fill="midnightblue" stroke="midnightblue" points="457.84,-66.44 467.97,-63.34 458.11,-59.45 457.84,-66.44"/>
</g>
<!-- Node4 -->
<g id="node4" class="node">
<title>Node4</title>
<g id="a_node4"><a xlink:href="../../dd/ddc/class_register_phone_u_i_controller.html#a55f0c364a3d7f1920df9790b7c63da7c" target="_top" xlink:title="Verifica el teléfono introducido con el código SMS introducido">
<polygon fill="white" stroke="black" points="218.5,-0.5 218.5,-19.5 404.5,-19.5 404.5,-0.5 218.5,-0.5"/>
<text text-anchor="middle" x="311.5" y="-7.5" font-family="Helvetica,sans-Serif" font-size="10.00">RegisterPhoneUIController.VerifyPhone</text>
</a>
</g>
</g>
<!-- Node1&#45;&gt;Node4 -->
<g id="edge5" class="edge">
<title>Node1&#45;&gt;Node4</title>
<path fill="none" stroke="midnightblue" d="M515.99,-54.87C491.27,-48.36 460.03,-40.4 432,-34 409.41,-28.85 384.28,-23.71 362.92,-19.52"/>
<polygon fill="midnightblue" stroke="midnightblue" points="515.24,-58.29 525.81,-57.47 517.03,-51.53 515.24,-58.29"/>
</g>
<!-- Node2&#45;&gt;Node1 -->
<g id="edge3" class="edge">
<title>Node2&#45;&gt;Node1</title>
<path fill="none" stroke="midnightblue" d="M442.31,-82.82C466.16,-80.94 489.73,-78.76 509.51,-76.53"/>
<polygon fill="midnightblue" stroke="midnightblue" points="441.78,-79.35 432.08,-83.6 442.32,-86.33 441.78,-79.35"/>
</g>
<!-- Node2&#45;&gt;Node3 -->
<g id="edge2" class="edge">
<title>Node2&#45;&gt;Node3</title>
<path fill="none" stroke="midnightblue" d="M242.09,-74.8C208.62,-69.31 168.76,-62.78 136.77,-57.54"/>
<polygon fill="midnightblue" stroke="midnightblue" points="241.82,-78.3 252.26,-76.46 242.95,-71.39 241.82,-78.3"/>
</g>
<!-- Node4&#45;&gt;Node3 -->
<g id="edge6" class="edge">
<title>Node4&#45;&gt;Node3</title>
<path fill="none" stroke="midnightblue" d="M242.09,-21.2C208.62,-26.69 168.76,-33.22 136.77,-38.46"/>
<polygon fill="midnightblue" stroke="midnightblue" points="242.95,-24.61 252.26,-19.54 241.82,-17.7 242.95,-24.61"/>
</g>
</g>
</svg>
