<?xml version="1.0" encoding="UTF-8" standalone="no"?>
<!DOCTYPE svg PUBLIC "-//W3C//DTD SVG 1.1//EN"
 "http://www.w3.org/Graphics/SVG/1.1/DTD/svg11.dtd">
<!-- Generated by graphviz version 2.49.0 (20210828.1703)
 -->
<!-- Title: PeerConnectionManager.HangUp Pages: 1 -->
<svg width="849pt" height="85pt"
 viewBox="0.00 0.00 849.00 85.00" xmlns="http://www.w3.org/2000/svg" xmlns:xlink="http://www.w3.org/1999/xlink">
<g id="graph0" class="graph" transform="scale(1 1) rotate(0) translate(4 81)">
<title>PeerConnectionManager.HangUp</title>
<polygon fill="white" stroke="transparent" points="-4,4 -4,-81 845,-81 845,4 -4,4"/>
<!-- Node1 -->
<g id="node1" class="node">
<title>Node1</title>
<g id="a_node1"><a xlink:title="Cuelga la videollamada">
<polygon fill="#bfbfbf" stroke="black" points="0,-38.5 0,-57.5 161,-57.5 161,-38.5 0,-38.5"/>
<text text-anchor="middle" x="80.5" y="-45.5" font-family="Helvetica,sans-Serif" font-size="10.00">PeerConnectionManager.HangUp</text>
</a>
</g>
</g>
<!-- Node2 -->
<g id="node2" class="node">
<title>Node2</title>
<g id="a_node2"><a xlink:href="../../d3/dda/class_my_scene_manager.html#a6787f49b73d5e0c4e80fd67d38f5550a" target="_top" xlink:title="Carga la escena seleccionada">
<polygon fill="white" stroke="black" points="216.5,-57.5 216.5,-76.5 363.5,-76.5 363.5,-57.5 216.5,-57.5"/>
<text text-anchor="middle" x="290" y="-64.5" font-family="Helvetica,sans-Serif" font-size="10.00">MySceneManager.LoadScene</text>
</a>
</g>
</g>
<!-- Node1&#45;&gt;Node2 -->
<g id="edge1" class="edge">
<title>Node1&#45;&gt;Node2</title>
<path fill="none" stroke="midnightblue" d="M161.13,-55.29C175.9,-56.64 191.35,-58.06 206.21,-59.42"/>
<polygon fill="midnightblue" stroke="midnightblue" points="206.1,-62.92 216.38,-60.35 206.74,-55.95 206.1,-62.92"/>
</g>
<!-- Node3 -->
<g id="node3" class="node">
<title>Node3</title>
<g id="a_node3"><a xlink:href="../../d2/d48/class_peer_connection_manager.html#ad792df6efa61aa9a558aab9b76604a87" target="_top" xlink:title="Se침aliza que el par no listo para la conexi칩n">
<polygon fill="white" stroke="black" points="197,-19.5 197,-38.5 383,-38.5 383,-19.5 197,-19.5"/>
<text text-anchor="middle" x="290" y="-26.5" font-family="Helvetica,sans-Serif" font-size="10.00">PeerConnectionManager.UnReadyUser</text>
</a>
</g>
</g>
<!-- Node1&#45;&gt;Node3 -->
<g id="edge2" class="edge">
<title>Node1&#45;&gt;Node3</title>
<path fill="none" stroke="midnightblue" d="M161.13,-40.71C169.51,-39.94 178.11,-39.15 186.7,-38.37"/>
<polygon fill="midnightblue" stroke="midnightblue" points="187.12,-41.84 196.76,-37.45 186.48,-34.87 187.12,-41.84"/>
</g>
<!-- Node4 -->
<g id="node4" class="node">
<title>Node4</title>
<g id="a_node4"><a xlink:href="../../d5/dd7/class_database_manager.html#a178acb8bd938e615aa34330e64f715ea" target="_top" xlink:title="Se침aliza en base de datos que un par no listo para la conexi칩n">
<polygon fill="white" stroke="black" points="419,-19.5 419,-38.5 577,-38.5 577,-19.5 419,-19.5"/>
<text text-anchor="middle" x="498" y="-26.5" font-family="Helvetica,sans-Serif" font-size="10.00">DatabaseManager.UnReadyUser</text>
</a>
</g>
</g>
<!-- Node3&#45;&gt;Node4 -->
<g id="edge3" class="edge">
<title>Node3&#45;&gt;Node4</title>
<path fill="none" stroke="midnightblue" d="M383.15,-29C391.61,-29 400.16,-29 408.58,-29"/>
<polygon fill="midnightblue" stroke="midnightblue" points="408.77,-32.5 418.77,-29 408.77,-25.5 408.77,-32.5"/>
</g>
<!-- Node5 -->
<g id="node5" class="node">
<title>Node5</title>
<g id="a_node5"><a xlink:href="../../d5/dd7/class_database_manager.html#a1854ec336517d562b14ec72287f986cb" target="_top" xlink:title="Lanza el evento OnClientReady">
<polygon fill="white" stroke="black" points="626,-38.5 626,-57.5 828,-57.5 828,-38.5 626,-38.5"/>
<text text-anchor="middle" x="727" y="-45.5" font-family="Helvetica,sans-Serif" font-size="10.00">DatabaseManager.OnClientReadyDelegate</text>
</a>
</g>
</g>
<!-- Node4&#45;&gt;Node5 -->
<g id="edge4" class="edge">
<title>Node4&#45;&gt;Node5</title>
<path fill="none" stroke="midnightblue" d="M577.12,-35.54C589.47,-36.57 602.43,-37.66 615.35,-38.74"/>
<polygon fill="midnightblue" stroke="midnightblue" points="615.43,-42.26 625.69,-39.6 616.01,-35.28 615.43,-42.26"/>
</g>
<!-- Node6 -->
<g id="node6" class="node">
<title>Node6</title>
<g id="a_node6"><a xlink:href="../../d5/dd7/class_database_manager.html#a195ea9d14ebff0203ccdf30de9801069" target="_top" xlink:title="Lanza el evento OnMessageReceived">
<polygon fill="white" stroke="black" points="613,-0.5 613,-19.5 841,-19.5 841,-0.5 613,-0.5"/>
<text text-anchor="middle" x="727" y="-7.5" font-family="Helvetica,sans-Serif" font-size="10.00">DatabaseManager.OnMessageReceivedDelegate</text>
</a>
</g>
</g>
<!-- Node4&#45;&gt;Node6 -->
<g id="edge5" class="edge">
<title>Node4&#45;&gt;Node6</title>
<path fill="none" stroke="midnightblue" d="M577.12,-22.46C585.42,-21.77 593.99,-21.05 602.65,-20.32"/>
<polygon fill="midnightblue" stroke="midnightblue" points="603.15,-23.79 612.83,-19.47 602.57,-16.82 603.15,-23.79"/>
</g>
</g>
</svg>
