<?xml version="1.0" encoding="UTF-8" standalone="no"?>
<!DOCTYPE svg PUBLIC "-//W3C//DTD SVG 1.1//EN"
 "http://www.w3.org/Graphics/SVG/1.1/DTD/svg11.dtd">
<!-- Generated by graphviz version 2.49.0 (20210828.1703)
 -->
<!-- Title: PeerConnectionManager.Call Pages: 1 -->
<svg width="626pt" height="85pt"
 viewBox="0.00 0.00 626.00 85.00" xmlns="http://www.w3.org/2000/svg" xmlns:xlink="http://www.w3.org/1999/xlink">
<g id="graph0" class="graph" transform="scale(1 1) rotate(0) translate(4 81)">
<title>PeerConnectionManager.Call</title>
<polygon fill="white" stroke="transparent" points="-4,4 -4,-81 622,-81 622,4 -4,4"/>
<!-- Node1 -->
<g id="node1" class="node">
<title>Node1</title>
<g id="a_node1"><a xlink:title="Realiza la llamada para establecer la conexión">
<polygon fill="#bfbfbf" stroke="black" points="475,-19.5 475,-38.5 618,-38.5 618,-19.5 475,-19.5"/>
<text text-anchor="middle" x="546.5" y="-26.5" font-family="Helvetica,sans-Serif" font-size="10.00">PeerConnectionManager.Call</text>
</a>
</g>
</g>
<!-- Node2 -->
<g id="node2" class="node">
<title>Node2</title>
<g id="a_node2"><a xlink:href="../../d2/d48/class_peer_connection_manager.html#a9167cfeb3f97d6c07ae8abd9b48ac597" target="_top" xlink:title="Llamada cuando el cliente se conecta">
<polygon fill="white" stroke="black" points="209,-38.5 209,-57.5 439,-57.5 439,-38.5 209,-38.5"/>
<text text-anchor="middle" x="324" y="-45.5" font-family="Helvetica,sans-Serif" font-size="10.00">PeerConnectionManager.OnClientReadyDelegate</text>
</a>
</g>
</g>
<!-- Node1&#45;&gt;Node2 -->
<g id="edge1" class="edge">
<title>Node1&#45;&gt;Node2</title>
<path fill="none" stroke="midnightblue" d="M464.63,-35.97C455.11,-36.79 445.28,-37.64 435.44,-38.48"/>
<polygon fill="midnightblue" stroke="midnightblue" points="465.16,-39.44 474.82,-35.09 464.56,-32.46 465.16,-39.44"/>
</g>
<!-- Node5 -->
<g id="node5" class="node">
<title>Node5</title>
<g id="a_node5"><a xlink:href="../../d2/d48/class_peer_connection_manager.html#a058148001392c4d6106cc784ec477256" target="_top" xlink:title="Llamada justo antes del primer fotograma">
<polygon fill="white" stroke="black" points="250.5,-0.5 250.5,-19.5 397.5,-19.5 397.5,-0.5 250.5,-0.5"/>
<text text-anchor="middle" x="324" y="-7.5" font-family="Helvetica,sans-Serif" font-size="10.00">PeerConnectionManager.Start</text>
</a>
</g>
</g>
<!-- Node1&#45;&gt;Node5 -->
<g id="edge4" class="edge">
<title>Node1&#45;&gt;Node5</title>
<path fill="none" stroke="midnightblue" d="M464.84,-22.05C442.82,-20.15 419.09,-18.11 397.55,-16.25"/>
<polygon fill="midnightblue" stroke="midnightblue" points="464.56,-25.54 474.82,-22.91 465.16,-18.56 464.56,-25.54"/>
</g>
<!-- Node3 -->
<g id="node3" class="node">
<title>Node3</title>
<g id="a_node3"><a xlink:href="../../d2/d48/class_peer_connection_manager.html#a82bd9ac926952fe7f22bef718cca64cb" target="_top" xlink:title="Llamada al crear el GameObject asociado">
<polygon fill="white" stroke="black" points="9,-57.5 9,-76.5 164,-76.5 164,-57.5 9,-57.5"/>
<text text-anchor="middle" x="86.5" y="-64.5" font-family="Helvetica,sans-Serif" font-size="10.00">PeerConnectionManager.Awake</text>
</a>
</g>
</g>
<!-- Node2&#45;&gt;Node3 -->
<g id="edge2" class="edge">
<title>Node2&#45;&gt;Node3</title>
<path fill="none" stroke="midnightblue" d="M198.42,-58.05C186.74,-58.99 175.15,-59.93 164.12,-60.82"/>
<polygon fill="midnightblue" stroke="midnightblue" points="199.01,-61.51 208.7,-57.22 198.45,-54.54 199.01,-61.51"/>
</g>
<!-- Node4 -->
<g id="node4" class="node">
<title>Node4</title>
<g id="a_node4"><a xlink:href="../../d2/d48/class_peer_connection_manager.html#a267f5ad1bb8760b277d6754418b5a4f1" target="_top" xlink:title="Llamada cuando el GameObject asociado se destruye">
<polygon fill="white" stroke="black" points="0,-19.5 0,-38.5 173,-38.5 173,-19.5 0,-19.5"/>
<text text-anchor="middle" x="86.5" y="-26.5" font-family="Helvetica,sans-Serif" font-size="10.00">PeerConnectionManager.OnDestroy</text>
</a>
</g>
</g>
<!-- Node2&#45;&gt;Node4 -->
<g id="edge3" class="edge">
<title>Node2&#45;&gt;Node4</title>
<path fill="none" stroke="midnightblue" d="M198.61,-37.96C190.03,-37.27 181.49,-36.58 173.19,-35.91"/>
<polygon fill="midnightblue" stroke="midnightblue" points="198.45,-41.46 208.7,-38.78 199.01,-34.49 198.45,-41.46"/>
</g>
</g>
</svg>
