<?xml version="1.0" encoding="UTF-8" standalone="no"?>
<!DOCTYPE svg PUBLIC "-//W3C//DTD SVG 1.1//EN"
 "http://www.w3.org/Graphics/SVG/1.1/DTD/svg11.dtd">
<!-- Generated by graphviz version 2.49.0 (20210828.1703)
 -->
<!-- Title: PeerConnectionManager.OnClientReadyDelegate Pages: 1 -->
<svg width="614pt" height="28pt"
 viewBox="0.00 0.00 614.00 28.00" xmlns="http://www.w3.org/2000/svg" xmlns:xlink="http://www.w3.org/1999/xlink">
<g id="graph0" class="graph" transform="scale(1 1) rotate(0) translate(4 24)">
<title>PeerConnectionManager.OnClientReadyDelegate</title>
<polygon fill="white" stroke="transparent" points="-4,4 -4,-24 610,-24 610,4 -4,4"/>
<!-- Node1 -->
<g id="node1" class="node">
<title>Node1</title>
<g id="a_node1"><a xlink:title="Llamada cuando el cliente se conecta">
<polygon fill="#bfbfbf" stroke="black" points="0,-0.5 0,-19.5 230,-19.5 230,-0.5 0,-0.5"/>
<text text-anchor="middle" x="115" y="-7.5" font-family="Helvetica,sans-Serif" font-size="10.00">PeerConnectionManager.OnClientReadyDelegate</text>
</a>
</g>
</g>
<!-- Node2 -->
<g id="node2" class="node">
<title>Node2</title>
<g id="a_node2"><a xlink:href="../../d2/d48/class_peer_connection_manager.html#a37051871d1e21f16a1e4ff5409a58f8c" target="_top" xlink:title="Realiza la llamada para establecer la conexión">
<polygon fill="white" stroke="black" points="266,-0.5 266,-19.5 409,-19.5 409,-0.5 266,-0.5"/>
<text text-anchor="middle" x="337.5" y="-7.5" font-family="Helvetica,sans-Serif" font-size="10.00">PeerConnectionManager.Call</text>
</a>
</g>
</g>
<!-- Node1&#45;&gt;Node2 -->
<g id="edge1" class="edge">
<title>Node1&#45;&gt;Node2</title>
<path fill="none" stroke="midnightblue" d="M230.13,-10C238.79,-10 247.43,-10 255.81,-10"/>
<polygon fill="midnightblue" stroke="midnightblue" points="255.91,-13.5 265.91,-10 255.91,-6.5 255.91,-13.5"/>
</g>
<!-- Node3 -->
<g id="node3" class="node">
<title>Node3</title>
<g id="a_node3"><a xlink:href="../../d5/dd7/class_database_manager.html#a31c16c7d1ec71b33cbf574d4e8810d71" target="_top" xlink:title="Envia un mensaje de conexión a base de datos">
<polygon fill="white" stroke="black" points="445,-0.5 445,-19.5 606,-19.5 606,-0.5 445,-0.5"/>
<text text-anchor="middle" x="525.5" y="-7.5" font-family="Helvetica,sans-Serif" font-size="10.00">DatabaseManager.SendMessage</text>
</a>
</g>
</g>
<!-- Node2&#45;&gt;Node3 -->
<g id="edge2" class="edge">
<title>Node2&#45;&gt;Node3</title>
<path fill="none" stroke="midnightblue" d="M409.08,-10C417.5,-10 426.19,-10 434.83,-10"/>
<polygon fill="midnightblue" stroke="midnightblue" points="434.94,-13.5 444.94,-10 434.94,-6.5 434.94,-13.5"/>
</g>
</g>
</svg>
