<?xml version="1.0" encoding="UTF-8" standalone="no"?>
<!DOCTYPE svg PUBLIC "-//W3C//DTD SVG 1.1//EN"
 "http://www.w3.org/Graphics/SVG/1.1/DTD/svg11.dtd">
<!-- Generated by graphviz version 2.49.0 (20210828.1703)
 -->
<!-- Title: PeerConnectionManager.OnDestroy Pages: 1 -->
<svg width="908pt" height="104pt"
 viewBox="0.00 0.00 908.00 104.00" xmlns="http://www.w3.org/2000/svg" xmlns:xlink="http://www.w3.org/1999/xlink">
<g id="graph0" class="graph" transform="scale(1 1) rotate(0) translate(4 100)">
<title>PeerConnectionManager.OnDestroy</title>
<polygon fill="white" stroke="transparent" points="-4,4 -4,-100 904,-100 904,4 -4,4"/>
<!-- Node1 -->
<g id="node1" class="node">
<title>Node1</title>
<g id="a_node1"><a xlink:title="Llamada cuando el GameObject asociado se destruye">
<polygon fill="#bfbfbf" stroke="black" points="0,-38.5 0,-57.5 173,-57.5 173,-38.5 0,-38.5"/>
<text text-anchor="middle" x="86.5" y="-45.5" font-family="Helvetica,sans-Serif" font-size="10.00">PeerConnectionManager.OnDestroy</text>
</a>
</g>
</g>
<!-- Node2 -->
<g id="node2" class="node">
<title>Node2</title>
<g id="a_node2"><a xlink:href="../../d2/d48/class_peer_connection_manager.html#a9cc97416c36f76d17771f7d61613cfc0" target="_top" xlink:title="Evalua si el par actual es host">
<polygon fill="white" stroke="black" points="258.5,-76.5 258.5,-95.5 415.5,-95.5 415.5,-76.5 258.5,-76.5"/>
<text text-anchor="middle" x="337" y="-83.5" font-family="Helvetica,sans-Serif" font-size="10.00">PeerConnectionManager.ImHost</text>
</a>
</g>
</g>
<!-- Node1&#45;&gt;Node2 -->
<g id="edge1" class="edge">
<title>Node1&#45;&gt;Node2</title>
<path fill="none" stroke="midnightblue" d="M147.74,-57.5C167.28,-60.56 189.06,-63.95 209,-67 226.04,-69.61 244.37,-72.37 261.66,-74.96"/>
<polygon fill="midnightblue" stroke="midnightblue" points="261.3,-78.45 271.71,-76.47 262.33,-71.52 261.3,-78.45"/>
</g>
<!-- Node3 -->
<g id="node3" class="node">
<title>Node3</title>
<g id="a_node3"><a xlink:href="../../d2/d48/class_peer_connection_manager.html#a9167cfeb3f97d6c07ae8abd9b48ac597" target="_top" xlink:title="Llamada cuando el cliente se conecta">
<polygon fill="white" stroke="black" points="222,-38.5 222,-57.5 452,-57.5 452,-38.5 222,-38.5"/>
<text text-anchor="middle" x="337" y="-45.5" font-family="Helvetica,sans-Serif" font-size="10.00">PeerConnectionManager.OnClientReadyDelegate</text>
</a>
</g>
</g>
<!-- Node1&#45;&gt;Node3 -->
<g id="edge2" class="edge">
<title>Node1&#45;&gt;Node3</title>
<path fill="none" stroke="midnightblue" d="M173.02,-48C185.55,-48 198.66,-48 211.78,-48"/>
<polygon fill="midnightblue" stroke="midnightblue" points="211.8,-51.5 221.8,-48 211.8,-44.5 211.8,-51.5"/>
</g>
<!-- Node6 -->
<g id="node6" class="node">
<title>Node6</title>
<g id="a_node6"><a xlink:href="../../d2/d48/class_peer_connection_manager.html#a0a284ceb0c5a0f89563f4c2515b98e2b" target="_top" xlink:title="Llamada cuando se recibe un mensaje de base de datos">
<polygon fill="white" stroke="black" points="209,-0.5 209,-19.5 465,-19.5 465,-0.5 209,-0.5"/>
<text text-anchor="middle" x="337" y="-7.5" font-family="Helvetica,sans-Serif" font-size="10.00">PeerConnectionManager.OnMessageReceivedDelegate</text>
</a>
</g>
</g>
<!-- Node1&#45;&gt;Node6 -->
<g id="edge5" class="edge">
<title>Node1&#45;&gt;Node6</title>
<path fill="none" stroke="midnightblue" d="M147.74,-38.5C167.28,-35.44 189.06,-32.05 209,-29 226.04,-26.39 244.37,-23.63 261.66,-21.04"/>
<polygon fill="midnightblue" stroke="midnightblue" points="262.33,-24.48 271.71,-19.53 261.3,-17.55 262.33,-24.48"/>
</g>
<!-- Node4 -->
<g id="node4" class="node">
<title>Node4</title>
<g id="a_node4"><a xlink:href="../../d2/d48/class_peer_connection_manager.html#a37051871d1e21f16a1e4ff5409a58f8c" target="_top" xlink:title="Realiza la llamada para establecer la conexión">
<polygon fill="white" stroke="black" points="530.5,-38.5 530.5,-57.5 673.5,-57.5 673.5,-38.5 530.5,-38.5"/>
<text text-anchor="middle" x="602" y="-45.5" font-family="Helvetica,sans-Serif" font-size="10.00">PeerConnectionManager.Call</text>
</a>
</g>
</g>
<!-- Node3&#45;&gt;Node4 -->
<g id="edge3" class="edge">
<title>Node3&#45;&gt;Node4</title>
<path fill="none" stroke="midnightblue" d="M452.21,-48C475.19,-48 498.88,-48 520.42,-48"/>
<polygon fill="midnightblue" stroke="midnightblue" points="520.48,-51.5 530.48,-48 520.48,-44.5 520.48,-51.5"/>
</g>
<!-- Node5 -->
<g id="node5" class="node">
<title>Node5</title>
<g id="a_node5"><a xlink:href="../../d5/dd7/class_database_manager.html#a31c16c7d1ec71b33cbf574d4e8810d71" target="_top" xlink:title="Envia un mensaje de conexión a base de datos">
<polygon fill="white" stroke="black" points="739,-19.5 739,-38.5 900,-38.5 900,-19.5 739,-19.5"/>
<text text-anchor="middle" x="819.5" y="-26.5" font-family="Helvetica,sans-Serif" font-size="10.00">DatabaseManager.SendMessage</text>
</a>
</g>
</g>
<!-- Node4&#45;&gt;Node5 -->
<g id="edge4" class="edge">
<title>Node4&#45;&gt;Node5</title>
<path fill="none" stroke="midnightblue" d="M673.56,-41.78C691.17,-40.23 710.29,-38.54 728.69,-36.92"/>
<polygon fill="midnightblue" stroke="midnightblue" points="729.17,-40.39 738.82,-36.03 728.55,-33.42 729.17,-40.39"/>
</g>
<!-- Node7 -->
<g id="node7" class="node">
<title>Node7</title>
<g id="a_node7"><a xlink:href="../../d2/d48/class_peer_connection_manager.html#a55cfe5d454913d9aa216cba1e9e11b84" target="_top" xlink:title="Lee un mensaje mediante la base de datos, se invoca cada vez que se envie un mensaje">
<polygon fill="white" stroke="black" points="501,-0.5 501,-19.5 703,-19.5 703,-0.5 501,-0.5"/>
<text text-anchor="middle" x="602" y="-7.5" font-family="Helvetica,sans-Serif" font-size="10.00">PeerConnectionManager.ReadMessageDB</text>
</a>
</g>
</g>
<!-- Node6&#45;&gt;Node7 -->
<g id="edge6" class="edge">
<title>Node6&#45;&gt;Node7</title>
<path fill="none" stroke="midnightblue" d="M465.26,-10C473.75,-10 482.25,-10 490.64,-10"/>
<polygon fill="midnightblue" stroke="midnightblue" points="490.8,-13.5 500.8,-10 490.8,-6.5 490.8,-13.5"/>
</g>
<!-- Node7&#45;&gt;Node5 -->
<g id="edge7" class="edge">
<title>Node7&#45;&gt;Node5</title>
<path fill="none" stroke="midnightblue" d="M703.18,-18.83C711.7,-19.58 720.28,-20.34 728.71,-21.08"/>
<polygon fill="midnightblue" stroke="midnightblue" points="728.63,-24.59 738.9,-21.98 729.25,-17.62 728.63,-24.59"/>
</g>
</g>
</svg>
