<?xml version="1.0" encoding="UTF-8" standalone="no"?>
<!DOCTYPE svg PUBLIC "-//W3C//DTD SVG 1.1//EN"
 "http://www.w3.org/Graphics/SVG/1.1/DTD/svg11.dtd">
<!-- Generated by graphviz version 2.49.0 (20210828.1703)
 -->
<!-- Title: PeerConnectionManager.AddTracks Pages: 1 -->
<svg width="571pt" height="142pt"
 viewBox="0.00 0.00 571.00 142.00" xmlns="http://www.w3.org/2000/svg" xmlns:xlink="http://www.w3.org/1999/xlink">
<g id="graph0" class="graph" transform="scale(1 1) rotate(0) translate(4 138)">
<title>PeerConnectionManager.AddTracks</title>
<polygon fill="white" stroke="transparent" points="-4,4 -4,-138 567,-138 567,4 -4,4"/>
<!-- Node1 -->
<g id="node1" class="node">
<title>Node1</title>
<g id="a_node1"><a xlink:title="Crea los canales de video y audio">
<polygon fill="#bfbfbf" stroke="black" points="0,-57.5 0,-76.5 173,-76.5 173,-57.5 0,-57.5"/>
<text text-anchor="middle" x="86.5" y="-64.5" font-family="Helvetica,sans-Serif" font-size="10.00">PeerConnectionManager.AddTracks</text>
</a>
</g>
</g>
<!-- Node2 -->
<g id="node2" class="node">
<title>Node2</title>
<g id="a_node2"><a xlink:href="../../d2/d48/class_peer_connection_manager.html#a9cc97416c36f76d17771f7d61613cfc0" target="_top" xlink:title="Evalua si el par actual es host">
<polygon fill="white" stroke="black" points="209,-114.5 209,-133.5 366,-133.5 366,-114.5 209,-114.5"/>
<text text-anchor="middle" x="287.5" y="-121.5" font-family="Helvetica,sans-Serif" font-size="10.00">PeerConnectionManager.ImHost</text>
</a>
</g>
</g>
<!-- Node1&#45;&gt;Node2 -->
<g id="edge1" class="edge">
<title>Node1&#45;&gt;Node2</title>
<path fill="none" stroke="midnightblue" d="M116.32,-76.57C140.84,-84.58 177.06,-96.1 209,-105 217.53,-107.38 226.64,-109.75 235.5,-111.98"/>
<polygon fill="midnightblue" stroke="midnightblue" points="234.8,-115.41 245.35,-114.42 236.48,-108.62 234.8,-115.41"/>
</g>
<!-- Node3 -->
<g id="node3" class="node">
<title>Node3</title>
<g id="a_node3"><a xlink:href="../../d7/d31/class_audio_manager.html#a8e74acd2130715991ee1d3295be1bfaa" target="_top" xlink:title="Reproduce la salida de audio">
<polygon fill="white" stroke="black" points="224.5,-76.5 224.5,-95.5 350.5,-95.5 350.5,-76.5 224.5,-76.5"/>
<text text-anchor="middle" x="287.5" y="-83.5" font-family="Helvetica,sans-Serif" font-size="10.00">AudioManager.PlayAudio</text>
</a>
</g>
</g>
<!-- Node1&#45;&gt;Node3 -->
<g id="edge2" class="edge">
<title>Node1&#45;&gt;Node3</title>
<path fill="none" stroke="midnightblue" d="M173.05,-75.17C186.82,-76.48 200.95,-77.83 214.36,-79.11"/>
<polygon fill="midnightblue" stroke="midnightblue" points="214.17,-82.61 224.46,-80.08 214.83,-75.64 214.17,-82.61"/>
</g>
<!-- Node4 -->
<g id="node4" class="node">
<title>Node4</title>
<g id="a_node4"><a xlink:href="../../d7/d31/class_audio_manager.html#aa60c57f6236c42f573fcfa0d28c88d9d" target="_top" xlink:title="Comienza a grabar el audio">
<polygon fill="white" stroke="black" points="219,-38.5 219,-57.5 356,-57.5 356,-38.5 219,-38.5"/>
<text text-anchor="middle" x="287.5" y="-45.5" font-family="Helvetica,sans-Serif" font-size="10.00">AudioManager.RecordAudio</text>
</a>
</g>
</g>
<!-- Node1&#45;&gt;Node4 -->
<g id="edge3" class="edge">
<title>Node1&#45;&gt;Node4</title>
<path fill="none" stroke="midnightblue" d="M173.05,-58.83C184.86,-57.7 196.94,-56.55 208.61,-55.44"/>
<polygon fill="midnightblue" stroke="midnightblue" points="209.12,-58.9 218.74,-54.47 208.45,-51.94 209.12,-58.9"/>
</g>
<!-- Node6 -->
<g id="node6" class="node">
<title>Node6</title>
<g id="a_node6"><a xlink:href="../../d2/dba/class_video_manager.html#a3183746966d99fd4df0bdde303479919" target="_top" xlink:title="Graba la cámara de RA">
<polygon fill="white" stroke="black" points="214.5,-0.5 214.5,-19.5 360.5,-19.5 360.5,-0.5 214.5,-0.5"/>
<text text-anchor="middle" x="287.5" y="-7.5" font-family="Helvetica,sans-Serif" font-size="10.00">VideoManager.RecordCamera</text>
</a>
</g>
</g>
<!-- Node1&#45;&gt;Node6 -->
<g id="edge5" class="edge">
<title>Node1&#45;&gt;Node6</title>
<path fill="none" stroke="midnightblue" d="M116.32,-57.43C140.84,-49.42 177.06,-37.9 209,-29 217.53,-26.62 226.64,-24.25 235.5,-22.02"/>
<polygon fill="midnightblue" stroke="midnightblue" points="236.48,-25.38 245.35,-19.58 234.8,-18.59 236.48,-25.38"/>
</g>
<!-- Node5 -->
<g id="node5" class="node">
<title>Node5</title>
<g id="a_node5"><a xlink:href="../../d7/d31/class_audio_manager.html#a69c0d3b1c0d91a2972f2b5200b9e3ec5" target="_top" xlink:title="Configura los ajustes de Android para videollamada">
<polygon fill="white" stroke="black" points="402,-38.5 402,-57.5 563,-57.5 563,-38.5 402,-38.5"/>
<text text-anchor="middle" x="482.5" y="-45.5" font-family="Helvetica,sans-Serif" font-size="10.00">AudioManager.SetVideocallAudio</text>
</a>
</g>
</g>
<!-- Node4&#45;&gt;Node5 -->
<g id="edge4" class="edge">
<title>Node4&#45;&gt;Node5</title>
<path fill="none" stroke="midnightblue" d="M356,-48C367.55,-48 379.71,-48 391.73,-48"/>
<polygon fill="midnightblue" stroke="midnightblue" points="391.78,-51.5 401.78,-48 391.78,-44.5 391.78,-51.5"/>
</g>
</g>
</svg>
