<?xml version="1.0" encoding="UTF-8" standalone="no"?>
<!DOCTYPE svg PUBLIC "-//W3C//DTD SVG 1.1//EN"
 "http://www.w3.org/Graphics/SVG/1.1/DTD/svg11.dtd">
<!-- Generated by graphviz version 2.49.0 (20210828.1703)
 -->
<!-- Title: PeerConnectionManager.OnClientReadyDelegate Pages: 1 -->
<svg width="447pt" height="66pt"
 viewBox="0.00 0.00 447.00 66.00" xmlns="http://www.w3.org/2000/svg" xmlns:xlink="http://www.w3.org/1999/xlink">
<g id="graph0" class="graph" transform="scale(1 1) rotate(0) translate(4 62)">
<title>PeerConnectionManager.OnClientReadyDelegate</title>
<polygon fill="white" stroke="transparent" points="-4,4 -4,-62 443,-62 443,4 -4,4"/>
<!-- Node1 -->
<g id="node1" class="node">
<title>Node1</title>
<g id="a_node1"><a xlink:title="Llamada cuando el cliente se conecta">
<polygon fill="#bfbfbf" stroke="black" points="209,-19.5 209,-38.5 439,-38.5 439,-19.5 209,-19.5"/>
<text text-anchor="middle" x="324" y="-26.5" font-family="Helvetica,sans-Serif" font-size="10.00">PeerConnectionManager.OnClientReadyDelegate</text>
</a>
</g>
</g>
<!-- Node2 -->
<g id="node2" class="node">
<title>Node2</title>
<g id="a_node2"><a xlink:href="../../d2/d48/class_peer_connection_manager.html#a82bd9ac926952fe7f22bef718cca64cb" target="_top" xlink:title="Llamada al crear el GameObject asociado">
<polygon fill="white" stroke="black" points="9,-38.5 9,-57.5 164,-57.5 164,-38.5 9,-38.5"/>
<text text-anchor="middle" x="86.5" y="-45.5" font-family="Helvetica,sans-Serif" font-size="10.00">PeerConnectionManager.Awake</text>
</a>
</g>
</g>
<!-- Node1&#45;&gt;Node2 -->
<g id="edge1" class="edge">
<title>Node1&#45;&gt;Node2</title>
<path fill="none" stroke="midnightblue" d="M198.42,-39.05C186.74,-39.99 175.15,-40.93 164.12,-41.82"/>
<polygon fill="midnightblue" stroke="midnightblue" points="199.01,-42.51 208.7,-38.22 198.45,-35.54 199.01,-42.51"/>
</g>
<!-- Node3 -->
<g id="node3" class="node">
<title>Node3</title>
<g id="a_node3"><a xlink:href="../../d2/d48/class_peer_connection_manager.html#a267f5ad1bb8760b277d6754418b5a4f1" target="_top" xlink:title="Llamada cuando el GameObject asociado se destruye">
<polygon fill="white" stroke="black" points="0,-0.5 0,-19.5 173,-19.5 173,-0.5 0,-0.5"/>
<text text-anchor="middle" x="86.5" y="-7.5" font-family="Helvetica,sans-Serif" font-size="10.00">PeerConnectionManager.OnDestroy</text>
</a>
</g>
</g>
<!-- Node1&#45;&gt;Node3 -->
<g id="edge2" class="edge">
<title>Node1&#45;&gt;Node3</title>
<path fill="none" stroke="midnightblue" d="M198.61,-18.96C190.03,-18.27 181.49,-17.58 173.19,-16.91"/>
<polygon fill="midnightblue" stroke="midnightblue" points="198.45,-22.46 208.7,-19.78 199.01,-15.49 198.45,-22.46"/>
</g>
</g>
</svg>
