<?xml version="1.0" encoding="UTF-8" standalone="no"?>
<!DOCTYPE svg PUBLIC "-//W3C//DTD SVG 1.1//EN"
 "http://www.w3.org/Graphics/SVG/1.1/DTD/svg11.dtd">
<!-- Generated by graphviz version 2.49.0 (20210828.1703)
 -->
<!-- Title: PeerConnectionManager.UnReadyUser Pages: 1 -->
<svg width="890pt" height="161pt"
 viewBox="0.00 0.00 890.00 161.00" xmlns="http://www.w3.org/2000/svg" xmlns:xlink="http://www.w3.org/1999/xlink">
<g id="graph0" class="graph" transform="scale(1 1) rotate(0) translate(4 157)">
<title>PeerConnectionManager.UnReadyUser</title>
<polygon fill="white" stroke="transparent" points="-4,4 -4,-157 886,-157 886,4 -4,4"/>
<!-- Node1 -->
<g id="node1" class="node">
<title>Node1</title>
<g id="a_node1"><a xlink:title="Señaliza que el par no listo para la conexión">
<polygon fill="#bfbfbf" stroke="black" points="696,-57.5 696,-76.5 882,-76.5 882,-57.5 696,-57.5"/>
<text text-anchor="middle" x="789" y="-64.5" font-family="Helvetica,sans-Serif" font-size="10.00">PeerConnectionManager.UnReadyUser</text>
</a>
</g>
</g>
<!-- Node2 -->
<g id="node2" class="node">
<title>Node2</title>
<g id="a_node2"><a xlink:href="../../d2/d48/class_peer_connection_manager.html#ac4577b58d566fb35458448f45920978f" target="_top" xlink:title="Cuelga la videollamada">
<polygon fill="white" stroke="black" points="453,-114.5 453,-133.5 614,-133.5 614,-114.5 453,-114.5"/>
<text text-anchor="middle" x="533.5" y="-121.5" font-family="Helvetica,sans-Serif" font-size="10.00">PeerConnectionManager.HangUp</text>
</a>
</g>
</g>
<!-- Node1&#45;&gt;Node2 -->
<g id="edge1" class="edge">
<title>Node1&#45;&gt;Node2</title>
<path fill="none" stroke="midnightblue" d="M750.25,-79.71C724.95,-87.85 690.76,-98.14 660,-105 643.55,-108.67 625.72,-111.84 608.81,-114.49"/>
<polygon fill="midnightblue" stroke="midnightblue" points="751.4,-83.01 759.83,-76.59 749.23,-76.36 751.4,-83.01"/>
</g>
<!-- Node6 -->
<g id="node6" class="node">
<title>Node6</title>
<g id="a_node6"><a xlink:href="../../d2/d48/class_peer_connection_manager.html#a32e1f598ed2e0f51ded5bdee39c8c18c" target="_top" xlink:title="Llamada cuando el estado de efonque de la aplicación cambia">
<polygon fill="white" stroke="black" points="426.5,-76.5 426.5,-95.5 640.5,-95.5 640.5,-76.5 426.5,-76.5"/>
<text text-anchor="middle" x="533.5" y="-83.5" font-family="Helvetica,sans-Serif" font-size="10.00">PeerConnectionManager.OnApplicationFocus</text>
</a>
</g>
</g>
<!-- Node1&#45;&gt;Node6 -->
<g id="edge5" class="edge">
<title>Node1&#45;&gt;Node6</title>
<path fill="none" stroke="midnightblue" d="M685.64,-74.67C670.89,-75.78 655.68,-76.92 640.86,-78.03"/>
<polygon fill="midnightblue" stroke="midnightblue" points="686.05,-78.15 695.76,-73.91 685.53,-71.17 686.05,-78.15"/>
</g>
<!-- Node7 -->
<g id="node7" class="node">
<title>Node7</title>
<g id="a_node7"><a xlink:href="../../d2/d48/class_peer_connection_manager.html#a963a5f07932166a3233b9087fc2b0a81" target="_top" xlink:title="Llamada cuando el estado de pausa de la aplicación cambia">
<polygon fill="white" stroke="black" points="426,-38.5 426,-57.5 641,-57.5 641,-38.5 426,-38.5"/>
<text text-anchor="middle" x="533.5" y="-45.5" font-family="Helvetica,sans-Serif" font-size="10.00">PeerConnectionManager.OnApplicationPause</text>
</a>
</g>
</g>
<!-- Node1&#45;&gt;Node7 -->
<g id="edge6" class="edge">
<title>Node1&#45;&gt;Node7</title>
<path fill="none" stroke="midnightblue" d="M685.72,-59.33C671.09,-58.24 656,-57.11 641.29,-56"/>
<polygon fill="midnightblue" stroke="midnightblue" points="685.53,-62.83 695.76,-60.09 686.05,-55.85 685.53,-62.83"/>
</g>
<!-- Node8 -->
<g id="node8" class="node">
<title>Node8</title>
<g id="a_node8"><a xlink:href="../../d2/d48/class_peer_connection_manager.html#a5a28d064eba699adacb983766109da54" target="_top" xlink:title="Llamada cuando se abandona la escena">
<polygon fill="white" stroke="black" points="407,-0.5 407,-19.5 660,-19.5 660,-0.5 407,-0.5"/>
<text text-anchor="middle" x="533.5" y="-7.5" font-family="Helvetica,sans-Serif" font-size="10.00">PeerConnectionManager.OnSceneUnloaded&lt; Scene &gt;</text>
</a>
</g>
</g>
<!-- Node1&#45;&gt;Node8 -->
<g id="edge7" class="edge">
<title>Node1&#45;&gt;Node8</title>
<path fill="none" stroke="midnightblue" d="M750.25,-54.29C724.95,-46.15 690.76,-35.86 660,-29 643.55,-25.33 625.72,-22.16 608.81,-19.51"/>
<polygon fill="midnightblue" stroke="midnightblue" points="749.23,-57.64 759.83,-57.41 751.4,-50.99 749.23,-57.64"/>
</g>
<!-- Node3 -->
<g id="node3" class="node">
<title>Node3</title>
<g id="a_node3"><a xlink:href="../../d2/d48/class_peer_connection_manager.html#a2b43b97a9280f9d5dd6dd4634009e566" target="_top" xlink:title="Llamada cuando la conexión se pierde">
<polygon fill="white" stroke="black" points="183,-133.5 183,-152.5 371,-152.5 371,-133.5 183,-133.5"/>
<text text-anchor="middle" x="277" y="-140.5" font-family="Helvetica,sans-Serif" font-size="10.00">PeerConnectionManager.OnDisconnect</text>
</a>
</g>
</g>
<!-- Node2&#45;&gt;Node3 -->
<g id="edge2" class="edge">
<title>Node2&#45;&gt;Node3</title>
<path fill="none" stroke="midnightblue" d="M442.55,-130.71C419.47,-132.44 394.59,-134.3 371.34,-136.03"/>
<polygon fill="midnightblue" stroke="midnightblue" points="442.96,-134.19 452.67,-129.96 442.44,-127.21 442.96,-134.19"/>
</g>
<!-- Node5 -->
<g id="node5" class="node">
<title>Node5</title>
<g id="a_node5"><a xlink:href="../../d0/d5f/class_toolbar_u_i_controller.html#a7c36bd2332e575e710320a80023b93de" target="_top" xlink:title="Llamada justo antes del primer fotograma">
<polygon fill="white" stroke="black" points="216,-95.5 216,-114.5 338,-114.5 338,-95.5 216,-95.5"/>
<text text-anchor="middle" x="277" y="-102.5" font-family="Helvetica,sans-Serif" font-size="10.00">ToolbarUIController.Start</text>
</a>
</g>
</g>
<!-- Node2&#45;&gt;Node5 -->
<g id="edge4" class="edge">
<title>Node2&#45;&gt;Node5</title>
<path fill="none" stroke="midnightblue" d="M442.55,-117.28C407.94,-114.7 369.29,-111.82 338.15,-109.49"/>
<polygon fill="midnightblue" stroke="midnightblue" points="442.44,-120.79 452.67,-118.04 442.96,-113.81 442.44,-120.79"/>
</g>
<!-- Node4 -->
<g id="node4" class="node">
<title>Node4</title>
<g id="a_node4"><a xlink:href="../../d2/d48/class_peer_connection_manager.html#a058148001392c4d6106cc784ec477256" target="_top" xlink:title="Llamada justo antes del primer fotograma">
<polygon fill="white" stroke="black" points="0,-133.5 0,-152.5 147,-152.5 147,-133.5 0,-133.5"/>
<text text-anchor="middle" x="73.5" y="-140.5" font-family="Helvetica,sans-Serif" font-size="10.00">PeerConnectionManager.Start</text>
</a>
</g>
</g>
<!-- Node3&#45;&gt;Node4 -->
<g id="edge3" class="edge">
<title>Node3&#45;&gt;Node4</title>
<path fill="none" stroke="midnightblue" d="M172.81,-143C164.19,-143 155.59,-143 147.28,-143"/>
<polygon fill="midnightblue" stroke="midnightblue" points="172.92,-146.5 182.92,-143 172.92,-139.5 172.92,-146.5"/>
</g>
</g>
</svg>
