<?xml version="1.0" encoding="UTF-8" standalone="no"?>
<!DOCTYPE svg PUBLIC "-//W3C//DTD SVG 1.1//EN"
 "http://www.w3.org/Graphics/SVG/1.1/DTD/svg11.dtd">
<!-- Generated by graphviz version 2.49.0 (20210828.1703)
 -->
<!-- Title: PeerConnectionManager.Update Pages: 1 -->
<svg width="413pt" height="66pt"
 viewBox="0.00 0.00 413.00 66.00" xmlns="http://www.w3.org/2000/svg" xmlns:xlink="http://www.w3.org/1999/xlink">
<g id="graph0" class="graph" transform="scale(1 1) rotate(0) translate(4 62)">
<title>PeerConnectionManager.Update</title>
<polygon fill="white" stroke="transparent" points="-4,4 -4,-62 409,-62 409,4 -4,4"/>
<!-- Node1 -->
<g id="node1" class="node">
<title>Node1</title>
<g id="a_node1"><a xlink:title="Llamada al comienzo de cada fotograma">
<polygon fill="#bfbfbf" stroke="black" points="0,-19.5 0,-38.5 157,-38.5 157,-19.5 0,-19.5"/>
<text text-anchor="middle" x="78.5" y="-26.5" font-family="Helvetica,sans-Serif" font-size="10.00">PeerConnectionManager.Update</text>
</a>
</g>
</g>
<!-- Node2 -->
<g id="node2" class="node">
<title>Node2</title>
<g id="a_node2"><a xlink:href="../../d2/d48/class_peer_connection_manager.html#aac8d251a66527dc0cb04ef9423bb1fef" target="_top" xlink:title="Cambia el estado del canal de audio">
<polygon fill="white" stroke="black" points="193,-38.5 193,-57.5 405,-57.5 405,-38.5 193,-38.5"/>
<text text-anchor="middle" x="299" y="-45.5" font-family="Helvetica,sans-Serif" font-size="10.00">PeerConnectionManager.EnableAudioStream</text>
</a>
</g>
</g>
<!-- Node1&#45;&gt;Node2 -->
<g id="edge1" class="edge">
<title>Node1&#45;&gt;Node2</title>
<path fill="none" stroke="midnightblue" d="M157.15,-35.75C165.44,-36.47 173.99,-37.22 182.59,-37.96"/>
<polygon fill="midnightblue" stroke="midnightblue" points="182.44,-41.46 192.71,-38.84 183.05,-34.49 182.44,-41.46"/>
</g>
<!-- Node3 -->
<g id="node3" class="node">
<title>Node3</title>
<g id="a_node3"><a xlink:href="../../d7/d31/class_audio_manager.html#a44b66db58ed0aef3f75a43d2446efc77" target="_top" xlink:title="Devuelve el valor del volumen de una fuente de audio">
<polygon fill="white" stroke="black" points="233.5,-0.5 233.5,-19.5 364.5,-19.5 364.5,-0.5 233.5,-0.5"/>
<text text-anchor="middle" x="299" y="-7.5" font-family="Helvetica,sans-Serif" font-size="10.00">AudioManager.GetVolume</text>
</a>
</g>
</g>
<!-- Node1&#45;&gt;Node3 -->
<g id="edge2" class="edge">
<title>Node1&#45;&gt;Node3</title>
<path fill="none" stroke="midnightblue" d="M157.15,-22.25C178.65,-20.38 201.93,-18.35 223.26,-16.5"/>
<polygon fill="midnightblue" stroke="midnightblue" points="223.57,-19.99 233.23,-15.63 222.96,-13.01 223.57,-19.99"/>
</g>
</g>
</svg>
