<?xml version="1.0" encoding="UTF-8" standalone="no"?>
<!DOCTYPE svg PUBLIC "-//W3C//DTD SVG 1.1//EN"
 "http://www.w3.org/Graphics/SVG/1.1/DTD/svg11.dtd">
<!-- Generated by graphviz version 2.49.0 (20210828.1703)
 -->
<!-- Title: PeerConnectionManager.ReadyUser Pages: 1 -->
<svg width="433pt" height="66pt"
 viewBox="0.00 0.00 433.00 66.00" xmlns="http://www.w3.org/2000/svg" xmlns:xlink="http://www.w3.org/1999/xlink">
<g id="graph0" class="graph" transform="scale(1 1) rotate(0) translate(4 62)">
<title>PeerConnectionManager.ReadyUser</title>
<polygon fill="white" stroke="transparent" points="-4,4 -4,-62 429,-62 429,4 -4,4"/>
<!-- Node1 -->
<g id="node1" class="node">
<title>Node1</title>
<g id="a_node1"><a xlink:title="Se침aliza que el par esta listo para la conexi칩n">
<polygon fill="#bfbfbf" stroke="black" points="251,-19.5 251,-38.5 425,-38.5 425,-19.5 251,-19.5"/>
<text text-anchor="middle" x="338" y="-26.5" font-family="Helvetica,sans-Serif" font-size="10.00">PeerConnectionManager.ReadyUser</text>
</a>
</g>
</g>
<!-- Node2 -->
<g id="node2" class="node">
<title>Node2</title>
<g id="a_node2"><a xlink:href="../../d2/d48/class_peer_connection_manager.html#a32e1f598ed2e0f51ded5bdee39c8c18c" target="_top" xlink:title="Llamada cuando el estado de efonque de la aplicaci칩n cambia">
<polygon fill="white" stroke="black" points="0.5,-38.5 0.5,-57.5 214.5,-57.5 214.5,-38.5 0.5,-38.5"/>
<text text-anchor="middle" x="107.5" y="-45.5" font-family="Helvetica,sans-Serif" font-size="10.00">PeerConnectionManager.OnApplicationFocus</text>
</a>
</g>
</g>
<!-- Node1&#45;&gt;Node2 -->
<g id="edge1" class="edge">
<title>Node1&#45;&gt;Node2</title>
<path fill="none" stroke="midnightblue" d="M240.82,-37C232.12,-37.72 223.29,-38.46 214.52,-39.18"/>
<polygon fill="midnightblue" stroke="midnightblue" points="241.26,-40.47 250.94,-36.16 240.68,-33.5 241.26,-40.47"/>
</g>
<!-- Node3 -->
<g id="node3" class="node">
<title>Node3</title>
<g id="a_node3"><a xlink:href="../../d2/d48/class_peer_connection_manager.html#a963a5f07932166a3233b9087fc2b0a81" target="_top" xlink:title="Llamada cuando el estado de pausa de la aplicaci칩n cambia">
<polygon fill="white" stroke="black" points="0,-0.5 0,-19.5 215,-19.5 215,-0.5 0,-0.5"/>
<text text-anchor="middle" x="107.5" y="-7.5" font-family="Helvetica,sans-Serif" font-size="10.00">PeerConnectionManager.OnApplicationPause</text>
</a>
</g>
</g>
<!-- Node1&#45;&gt;Node3 -->
<g id="edge2" class="edge">
<title>Node1&#45;&gt;Node3</title>
<path fill="none" stroke="midnightblue" d="M240.75,-21C232.34,-20.3 223.79,-19.59 215.3,-18.88"/>
<polygon fill="midnightblue" stroke="midnightblue" points="240.68,-24.5 250.94,-21.84 241.26,-17.53 240.68,-24.5"/>
</g>
</g>
</svg>
