<?xml version="1.0" encoding="UTF-8" standalone="no"?>
<!DOCTYPE svg PUBLIC "-//W3C//DTD SVG 1.1//EN"
 "http://www.w3.org/Graphics/SVG/1.1/DTD/svg11.dtd">
<!-- Generated by graphviz version 2.49.0 (20210828.1703)
 -->
<!-- Title: PeerConnectionManager.UnReadyUser Pages: 1 -->
<svg width="652pt" height="66pt"
 viewBox="0.00 0.00 652.00 66.00" xmlns="http://www.w3.org/2000/svg" xmlns:xlink="http://www.w3.org/1999/xlink">
<g id="graph0" class="graph" transform="scale(1 1) rotate(0) translate(4 62)">
<title>PeerConnectionManager.UnReadyUser</title>
<polygon fill="white" stroke="transparent" points="-4,4 -4,-62 648,-62 648,4 -4,4"/>
<!-- Node1 -->
<g id="node1" class="node">
<title>Node1</title>
<g id="a_node1"><a xlink:title="Se침aliza que el par no listo para la conexi칩n">
<polygon fill="#bfbfbf" stroke="black" points="0,-19.5 0,-38.5 186,-38.5 186,-19.5 0,-19.5"/>
<text text-anchor="middle" x="93" y="-26.5" font-family="Helvetica,sans-Serif" font-size="10.00">PeerConnectionManager.UnReadyUser</text>
</a>
</g>
</g>
<!-- Node2 -->
<g id="node2" class="node">
<title>Node2</title>
<g id="a_node2"><a xlink:href="../../d5/dd7/class_database_manager.html#a178acb8bd938e615aa34330e64f715ea" target="_top" xlink:title="Se침aliza en base de datos que un par no listo para la conexi칩n">
<polygon fill="white" stroke="black" points="222,-19.5 222,-38.5 380,-38.5 380,-19.5 222,-19.5"/>
<text text-anchor="middle" x="301" y="-26.5" font-family="Helvetica,sans-Serif" font-size="10.00">DatabaseManager.UnReadyUser</text>
</a>
</g>
</g>
<!-- Node1&#45;&gt;Node2 -->
<g id="edge1" class="edge">
<title>Node1&#45;&gt;Node2</title>
<path fill="none" stroke="midnightblue" d="M186.15,-29C194.61,-29 203.16,-29 211.58,-29"/>
<polygon fill="midnightblue" stroke="midnightblue" points="211.77,-32.5 221.77,-29 211.77,-25.5 211.77,-32.5"/>
</g>
<!-- Node3 -->
<g id="node3" class="node">
<title>Node3</title>
<g id="a_node3"><a xlink:href="../../d5/dd7/class_database_manager.html#a1854ec336517d562b14ec72287f986cb" target="_top" xlink:title="Lanza el evento OnClientReady">
<polygon fill="white" stroke="black" points="429,-38.5 429,-57.5 631,-57.5 631,-38.5 429,-38.5"/>
<text text-anchor="middle" x="530" y="-45.5" font-family="Helvetica,sans-Serif" font-size="10.00">DatabaseManager.OnClientReadyDelegate</text>
</a>
</g>
</g>
<!-- Node2&#45;&gt;Node3 -->
<g id="edge2" class="edge">
<title>Node2&#45;&gt;Node3</title>
<path fill="none" stroke="midnightblue" d="M380.12,-35.54C392.47,-36.57 405.43,-37.66 418.35,-38.74"/>
<polygon fill="midnightblue" stroke="midnightblue" points="418.43,-42.26 428.69,-39.6 419.01,-35.28 418.43,-42.26"/>
</g>
<!-- Node4 -->
<g id="node4" class="node">
<title>Node4</title>
<g id="a_node4"><a xlink:href="../../d5/dd7/class_database_manager.html#a195ea9d14ebff0203ccdf30de9801069" target="_top" xlink:title="Lanza el evento OnMessageReceived">
<polygon fill="white" stroke="black" points="416,-0.5 416,-19.5 644,-19.5 644,-0.5 416,-0.5"/>
<text text-anchor="middle" x="530" y="-7.5" font-family="Helvetica,sans-Serif" font-size="10.00">DatabaseManager.OnMessageReceivedDelegate</text>
</a>
</g>
</g>
<!-- Node2&#45;&gt;Node4 -->
<g id="edge3" class="edge">
<title>Node2&#45;&gt;Node4</title>
<path fill="none" stroke="midnightblue" d="M380.12,-22.46C388.42,-21.77 396.99,-21.05 405.65,-20.32"/>
<polygon fill="midnightblue" stroke="midnightblue" points="406.15,-23.79 415.83,-19.47 405.57,-16.82 406.15,-23.79"/>
</g>
</g>
</svg>
