<?xml version="1.0" encoding="UTF-8" standalone="no"?>
<!DOCTYPE svg PUBLIC "-//W3C//DTD SVG 1.1//EN"
 "http://www.w3.org/Graphics/SVG/1.1/DTD/svg11.dtd">
<!-- Generated by graphviz version 2.49.0 (20210828.1703)
 -->
<!-- Title: PeerConnectionManager.OnMessageReceivedDelegate Pages: 1 -->
<svg width="699pt" height="28pt"
 viewBox="0.00 0.00 699.00 28.00" xmlns="http://www.w3.org/2000/svg" xmlns:xlink="http://www.w3.org/1999/xlink">
<g id="graph0" class="graph" transform="scale(1 1) rotate(0) translate(4 24)">
<title>PeerConnectionManager.OnMessageReceivedDelegate</title>
<polygon fill="white" stroke="transparent" points="-4,4 -4,-24 695,-24 695,4 -4,4"/>
<!-- Node1 -->
<g id="node1" class="node">
<title>Node1</title>
<g id="a_node1"><a xlink:title="Llamada cuando se recibe un mensaje de base de datos">
<polygon fill="#bfbfbf" stroke="black" points="0,-0.5 0,-19.5 256,-19.5 256,-0.5 0,-0.5"/>
<text text-anchor="middle" x="128" y="-7.5" font-family="Helvetica,sans-Serif" font-size="10.00">PeerConnectionManager.OnMessageReceivedDelegate</text>
</a>
</g>
</g>
<!-- Node2 -->
<g id="node2" class="node">
<title>Node2</title>
<g id="a_node2"><a xlink:href="../../d2/d48/class_peer_connection_manager.html#a55cfe5d454913d9aa216cba1e9e11b84" target="_top" xlink:title="Lee un mensaje mediante la base de datos, se invoca cada vez que se envie un mensaje">
<polygon fill="white" stroke="black" points="292,-0.5 292,-19.5 494,-19.5 494,-0.5 292,-0.5"/>
<text text-anchor="middle" x="393" y="-7.5" font-family="Helvetica,sans-Serif" font-size="10.00">PeerConnectionManager.ReadMessageDB</text>
</a>
</g>
</g>
<!-- Node1&#45;&gt;Node2 -->
<g id="edge1" class="edge">
<title>Node1&#45;&gt;Node2</title>
<path fill="none" stroke="midnightblue" d="M256.26,-10C264.75,-10 273.25,-10 281.64,-10"/>
<polygon fill="midnightblue" stroke="midnightblue" points="281.8,-13.5 291.8,-10 281.8,-6.5 281.8,-13.5"/>
</g>
<!-- Node3 -->
<g id="node3" class="node">
<title>Node3</title>
<g id="a_node3"><a xlink:href="../../d5/dd7/class_database_manager.html#a31c16c7d1ec71b33cbf574d4e8810d71" target="_top" xlink:title="Envia un mensaje de conexión a base de datos">
<polygon fill="white" stroke="black" points="530,-0.5 530,-19.5 691,-19.5 691,-0.5 530,-0.5"/>
<text text-anchor="middle" x="610.5" y="-7.5" font-family="Helvetica,sans-Serif" font-size="10.00">DatabaseManager.SendMessage</text>
</a>
</g>
</g>
<!-- Node2&#45;&gt;Node3 -->
<g id="edge2" class="edge">
<title>Node2&#45;&gt;Node3</title>
<path fill="none" stroke="midnightblue" d="M494.18,-10C502.7,-10 511.28,-10 519.71,-10"/>
<polygon fill="midnightblue" stroke="midnightblue" points="519.9,-13.5 529.9,-10 519.9,-6.5 519.9,-13.5"/>
</g>
</g>
</svg>
