<?xml version="1.0" encoding="UTF-8" standalone="no"?>
<!DOCTYPE svg PUBLIC "-//W3C//DTD SVG 1.1//EN"
 "http://www.w3.org/Graphics/SVG/1.1/DTD/svg11.dtd">
<!-- Generated by graphviz version 2.49.0 (20210828.1703)
 -->
<!-- Title: PeerConnectionManager.OnApplicationFocus Pages: 1 -->
<svg width="902pt" height="66pt"
 viewBox="0.00 0.00 902.00 66.00" xmlns="http://www.w3.org/2000/svg" xmlns:xlink="http://www.w3.org/1999/xlink">
<g id="graph0" class="graph" transform="scale(1 1) rotate(0) translate(4 62)">
<title>PeerConnectionManager.OnApplicationFocus</title>
<polygon fill="white" stroke="transparent" points="-4,4 -4,-62 898,-62 898,4 -4,4"/>
<!-- Node1 -->
<g id="node1" class="node">
<title>Node1</title>
<g id="a_node1"><a xlink:title="Llamada cuando el estado de efonque de la aplicación cambia">
<polygon fill="#bfbfbf" stroke="black" points="0,-19.5 0,-38.5 214,-38.5 214,-19.5 0,-19.5"/>
<text text-anchor="middle" x="107" y="-26.5" font-family="Helvetica,sans-Serif" font-size="10.00">PeerConnectionManager.OnApplicationFocus</text>
</a>
</g>
</g>
<!-- Node2 -->
<g id="node2" class="node">
<title>Node2</title>
<g id="a_node2"><a xlink:href="../../d2/d48/class_peer_connection_manager.html#a77481735fed0e6e7c602e8a2bea821d4" target="_top" xlink:title="Señaliza que el par esta listo para la conexión">
<polygon fill="white" stroke="black" points="256,-38.5 256,-57.5 430,-57.5 430,-38.5 256,-38.5"/>
<text text-anchor="middle" x="343" y="-45.5" font-family="Helvetica,sans-Serif" font-size="10.00">PeerConnectionManager.ReadyUser</text>
</a>
</g>
</g>
<!-- Node1&#45;&gt;Node2 -->
<g id="edge1" class="edge">
<title>Node1&#45;&gt;Node2</title>
<path fill="none" stroke="midnightblue" d="M214.05,-37.61C224.68,-38.47 235.43,-39.35 245.95,-40.2"/>
<polygon fill="midnightblue" stroke="midnightblue" points="245.7,-43.69 255.95,-41.01 246.26,-36.71 245.7,-43.69"/>
</g>
<!-- Node6 -->
<g id="node6" class="node">
<title>Node6</title>
<g id="a_node6"><a xlink:href="../../d2/d48/class_peer_connection_manager.html#ad792df6efa61aa9a558aab9b76604a87" target="_top" xlink:title="Señaliza que el par no listo para la conexión">
<polygon fill="white" stroke="black" points="250,-0.5 250,-19.5 436,-19.5 436,-0.5 250,-0.5"/>
<text text-anchor="middle" x="343" y="-7.5" font-family="Helvetica,sans-Serif" font-size="10.00">PeerConnectionManager.UnReadyUser</text>
</a>
</g>
</g>
<!-- Node1&#45;&gt;Node6 -->
<g id="edge5" class="edge">
<title>Node1&#45;&gt;Node6</title>
<path fill="none" stroke="midnightblue" d="M214.05,-20.39C222.65,-19.69 231.33,-18.99 239.91,-18.29"/>
<polygon fill="midnightblue" stroke="midnightblue" points="240.23,-21.77 249.92,-17.48 239.67,-14.8 240.23,-21.77"/>
</g>
<!-- Node3 -->
<g id="node3" class="node">
<title>Node3</title>
<g id="a_node3"><a xlink:href="../../d5/dd7/class_database_manager.html#a7373a5a3ba0f6b44b5c7a96587b7afa1" target="_top" xlink:title="Señaliza en base de datos que un par esta listo para la conexión">
<polygon fill="white" stroke="black" points="478,-38.5 478,-57.5 624,-57.5 624,-38.5 478,-38.5"/>
<text text-anchor="middle" x="551" y="-45.5" font-family="Helvetica,sans-Serif" font-size="10.00">DatabaseManager.ReadyUser</text>
</a>
</g>
</g>
<!-- Node2&#45;&gt;Node3 -->
<g id="edge2" class="edge">
<title>Node2&#45;&gt;Node3</title>
<path fill="none" stroke="midnightblue" d="M430.17,-48C442.57,-48 455.31,-48 467.64,-48"/>
<polygon fill="midnightblue" stroke="midnightblue" points="467.88,-51.5 477.88,-48 467.88,-44.5 467.88,-51.5"/>
</g>
<!-- Node4 -->
<g id="node4" class="node">
<title>Node4</title>
<g id="a_node4"><a xlink:href="../../d5/dd7/class_database_manager.html#a1854ec336517d562b14ec72287f986cb" target="_top" xlink:title="Lanza el evento OnClientReady">
<polygon fill="white" stroke="black" points="679,-38.5 679,-57.5 881,-57.5 881,-38.5 679,-38.5"/>
<text text-anchor="middle" x="780" y="-45.5" font-family="Helvetica,sans-Serif" font-size="10.00">DatabaseManager.OnClientReadyDelegate</text>
</a>
</g>
</g>
<!-- Node3&#45;&gt;Node4 -->
<g id="edge3" class="edge">
<title>Node3&#45;&gt;Node4</title>
<path fill="none" stroke="midnightblue" d="M624.14,-48C638.27,-48 653.4,-48 668.45,-48"/>
<polygon fill="midnightblue" stroke="midnightblue" points="668.85,-51.5 678.85,-48 668.85,-44.5 668.85,-51.5"/>
</g>
<!-- Node5 -->
<g id="node5" class="node">
<title>Node5</title>
<g id="a_node5"><a xlink:href="../../d5/dd7/class_database_manager.html#a195ea9d14ebff0203ccdf30de9801069" target="_top" xlink:title="Lanza el evento OnMessageReceived">
<polygon fill="white" stroke="black" points="666,-0.5 666,-19.5 894,-19.5 894,-0.5 666,-0.5"/>
<text text-anchor="middle" x="780" y="-7.5" font-family="Helvetica,sans-Serif" font-size="10.00">DatabaseManager.OnMessageReceivedDelegate</text>
</a>
</g>
</g>
<!-- Node3&#45;&gt;Node5 -->
<g id="edge4" class="edge">
<title>Node3&#45;&gt;Node5</title>
<path fill="none" stroke="midnightblue" d="M608.99,-38.46C640.29,-33.22 679.29,-26.69 712.04,-21.21"/>
<polygon fill="midnightblue" stroke="midnightblue" points="712.7,-24.65 721.99,-19.54 711.55,-17.74 712.7,-24.65"/>
</g>
<!-- Node7 -->
<g id="node7" class="node">
<title>Node7</title>
<g id="a_node7"><a xlink:href="../../d5/dd7/class_database_manager.html#a178acb8bd938e615aa34330e64f715ea" target="_top" xlink:title="Señaliza en base de datos que un par no listo para la conexión">
<polygon fill="white" stroke="black" points="472,-0.5 472,-19.5 630,-19.5 630,-0.5 472,-0.5"/>
<text text-anchor="middle" x="551" y="-7.5" font-family="Helvetica,sans-Serif" font-size="10.00">DatabaseManager.UnReadyUser</text>
</a>
</g>
</g>
<!-- Node6&#45;&gt;Node7 -->
<g id="edge6" class="edge">
<title>Node6&#45;&gt;Node7</title>
<path fill="none" stroke="midnightblue" d="M436.15,-10C444.61,-10 453.16,-10 461.58,-10"/>
<polygon fill="midnightblue" stroke="midnightblue" points="461.77,-13.5 471.77,-10 461.77,-6.5 461.77,-13.5"/>
</g>
<!-- Node7&#45;&gt;Node4 -->
<g id="edge7" class="edge">
<title>Node7&#45;&gt;Node4</title>
<path fill="none" stroke="midnightblue" d="M608.99,-19.54C640.29,-24.78 679.29,-31.31 712.04,-36.79"/>
<polygon fill="midnightblue" stroke="midnightblue" points="711.55,-40.26 721.99,-38.46 712.7,-33.35 711.55,-40.26"/>
</g>
<!-- Node7&#45;&gt;Node5 -->
<g id="edge8" class="edge">
<title>Node7&#45;&gt;Node5</title>
<path fill="none" stroke="midnightblue" d="M630.12,-10C638.42,-10 646.99,-10 655.65,-10"/>
<polygon fill="midnightblue" stroke="midnightblue" points="655.83,-13.5 665.83,-10 655.83,-6.5 655.83,-13.5"/>
</g>
</g>
</svg>
