<?xml version="1.0" encoding="UTF-8" standalone="no"?>
<!DOCTYPE svg PUBLIC "-//W3C//DTD SVG 1.1//EN"
 "http://www.w3.org/Graphics/SVG/1.1/DTD/svg11.dtd">
<!-- Generated by graphviz version 2.49.0 (20210828.1703)
 -->
<!-- Title: FirebaseInit Pages: 1 -->
<svg width="214pt" height="171pt"
 viewBox="0.00 0.00 214.00 171.00" xmlns="http://www.w3.org/2000/svg" xmlns:xlink="http://www.w3.org/1999/xlink">
<g id="graph0" class="graph" transform="scale(1 1) rotate(0) translate(4 167)">
<title>FirebaseInit</title>
<polygon fill="white" stroke="transparent" points="-4,4 -4,-167 210,-167 210,4 -4,4"/>
<!-- Node1 -->
<g id="node1" class="node">
<title>Node1</title>
<g id="a_node1"><a xlink:title="Inicializa Firebase">
<polygon fill="#bfbfbf" stroke="black" points="0,-0.5 0,-68.5 206,-68.5 206,-0.5 0,-0.5"/>
<text text-anchor="middle" x="103" y="-56.5" font-family="Helvetica,sans-Serif" font-size="10.00">FirebaseInit</text>
<polyline fill="none" stroke="black" points="0,-49.5 206,-49.5 "/>
<text text-anchor="start" x="8" y="-37.5" font-family="Helvetica,sans-Serif" font-size="10.00">+ static Firebase.FirebaseApp FirebaseApp</text>
<text text-anchor="start" x="8" y="-26.5" font-family="Helvetica,sans-Serif" font-size="10.00">+ static bool Ready</text>
<polyline fill="none" stroke="black" points="0,-19.5 206,-19.5 "/>
<text text-anchor="start" x="8" y="-7.5" font-family="Helvetica,sans-Serif" font-size="10.00">&#45; void Start()</text>
</a>
</g>
</g>
<!-- Node2 -->
<g id="node2" class="node">
<title>Node2</title>
<g id="a_node2"><a xlink:title=" ">
<polygon fill="white" stroke="#bfbfbf" points="61.5,-105.5 61.5,-162.5 144.5,-162.5 144.5,-105.5 61.5,-105.5"/>
<text text-anchor="middle" x="103" y="-150.5" font-family="Helvetica,sans-Serif" font-size="10.00">MonoBehaviour</text>
<polyline fill="none" stroke="#bfbfbf" points="61.5,-143.5 144.5,-143.5 "/>
<text text-anchor="middle" x="103" y="-131.5" font-family="Helvetica,sans-Serif" font-size="10.00"> </text>
<polyline fill="none" stroke="#bfbfbf" points="61.5,-124.5 144.5,-124.5 "/>
<text text-anchor="middle" x="103" y="-112.5" font-family="Helvetica,sans-Serif" font-size="10.00"> </text>
</a>
</g>
</g>
<!-- Node2&#45;&gt;Node1 -->
<g id="edge1" class="edge">
<title>Node2&#45;&gt;Node1</title>
<path fill="none" stroke="midnightblue" d="M103,-95.06C103,-86.39 103,-77.24 103,-68.79"/>
<polygon fill="none" stroke="midnightblue" points="99.5,-95.32 103,-105.32 106.5,-95.32 99.5,-95.32"/>
</g>
</g>
</svg>
