<?xml version="1.0" encoding="UTF-8" standalone="no"?>
<!DOCTYPE svg PUBLIC "-//W3C//DTD SVG 1.1//EN"
 "http://www.w3.org/Graphics/SVG/1.1/DTD/svg11.dtd">
<!-- Generated by graphviz version 2.49.0 (20210828.1703)
 -->
<!-- Title: FirebaseInit Pages: 1 -->
<svg width="180pt" height="171pt"
 viewBox="0.00 0.00 179.50 171.00" xmlns="http://www.w3.org/2000/svg" xmlns:xlink="http://www.w3.org/1999/xlink">
<g id="graph0" class="graph" transform="scale(1 1) rotate(0) translate(4 167)">
<title>FirebaseInit</title>
<polygon fill="white" stroke="transparent" points="-4,4 -4,-167 175.5,-167 175.5,4 -4,4"/>
<!-- Node1 -->
<g id="node1" class="node">
<title>Node1</title>
<g id="a_node1"><a xlink:title="Inicializa Firebase">
<polygon fill="#bfbfbf" stroke="black" points="34,-0.5 34,-57.5 135,-57.5 135,-0.5 34,-0.5"/>
<text text-anchor="middle" x="84.5" y="-45.5" font-family="Helvetica,sans-Serif" font-size="10.00">FirebaseInit</text>
<polyline fill="none" stroke="black" points="34,-38.5 135,-38.5 "/>
<text text-anchor="start" x="42" y="-26.5" font-family="Helvetica,sans-Serif" font-size="10.00">+ static bool Ready</text>
<polyline fill="none" stroke="black" points="34,-19.5 135,-19.5 "/>
<text text-anchor="start" x="42" y="-7.5" font-family="Helvetica,sans-Serif" font-size="10.00">&#45; void Start()</text>
</a>
</g>
</g>
<!-- Node2 -->
<g id="node2" class="node">
<title>Node2</title>
<g id="a_node2"><a xlink:title=" ">
<polygon fill="white" stroke="#bfbfbf" points="0,-105.5 0,-162.5 83,-162.5 83,-105.5 0,-105.5"/>
<text text-anchor="middle" x="41.5" y="-150.5" font-family="Helvetica,sans-Serif" font-size="10.00">MonoBehaviour</text>
<polyline fill="none" stroke="#bfbfbf" points="0,-143.5 83,-143.5 "/>
<text text-anchor="middle" x="41.5" y="-131.5" font-family="Helvetica,sans-Serif" font-size="10.00"> </text>
<polyline fill="none" stroke="#bfbfbf" points="0,-124.5 83,-124.5 "/>
<text text-anchor="middle" x="41.5" y="-112.5" font-family="Helvetica,sans-Serif" font-size="10.00"> </text>
</a>
</g>
</g>
<!-- Node2&#45;&gt;Node1 -->
<g id="edge1" class="edge">
<title>Node2&#45;&gt;Node1</title>
<path fill="none" stroke="midnightblue" d="M56.93,-96.03C62.21,-83.38 68.02,-69.46 72.94,-57.68"/>
<polygon fill="none" stroke="midnightblue" points="53.65,-94.82 53.02,-105.4 60.11,-97.52 53.65,-94.82"/>
</g>
<!-- Node3 -->
<g id="node3" class="node">
<title>Node3</title>
<g id="a_node3"><a xlink:title=" ">
<polygon fill="white" stroke="#bfbfbf" points="101.5,-105.5 101.5,-162.5 155.5,-162.5 155.5,-105.5 101.5,-105.5"/>
<text text-anchor="middle" x="128.5" y="-150.5" font-family="Helvetica,sans-Serif" font-size="10.00">Firebase</text>
<polyline fill="none" stroke="#bfbfbf" points="101.5,-143.5 155.5,-143.5 "/>
<text text-anchor="middle" x="128.5" y="-131.5" font-family="Helvetica,sans-Serif" font-size="10.00"> </text>
<polyline fill="none" stroke="#bfbfbf" points="101.5,-124.5 155.5,-124.5 "/>
<text text-anchor="middle" x="128.5" y="-112.5" font-family="Helvetica,sans-Serif" font-size="10.00"> </text>
</a>
</g>
</g>
<!-- Node3&#45;&gt;Node1 -->
<g id="edge2" class="edge">
<title>Node3&#45;&gt;Node1</title>
<path fill="none" stroke="#404040" d="M116.71,-105.4C111.92,-94.2 106.31,-81.06 101.13,-68.92"/>
<polygon fill="none" stroke="#404040" points="101.04,-68.71 95,-64.77 96.32,-57.68 102.36,-61.62 101.04,-68.71"/>
<text text-anchor="middle" x="139.5" y="-79" font-family="Helvetica,sans-Serif" font-size="10.00"> +FirebaseApp</text>
</g>
</g>
</svg>
