<?xml version="1.0" encoding="UTF-8" standalone="no"?>
<!DOCTYPE svg PUBLIC "-//W3C//DTD SVG 1.1//EN"
 "http://www.w3.org/Graphics/SVG/1.1/DTD/svg11.dtd">
<!-- Generated by graphviz version 2.49.0 (20210828.1703)
 -->
<!-- Title: DynamicLinksInit.Start Pages: 1 -->
<svg width="680pt" height="66pt"
 viewBox="0.00 0.00 680.00 66.00" xmlns="http://www.w3.org/2000/svg" xmlns:xlink="http://www.w3.org/1999/xlink">
<g id="graph0" class="graph" transform="scale(1 1) rotate(0) translate(4 62)">
<title>DynamicLinksInit.Start</title>
<polygon fill="white" stroke="transparent" points="-4,4 -4,-62 676,-62 676,4 -4,4"/>
<!-- Node1 -->
<g id="node1" class="node">
<title>Node1</title>
<g id="a_node1"><a xlink:title="Llamada justo antes del primer fotograma">
<polygon fill="#bfbfbf" stroke="black" points="0,-19.5 0,-38.5 115,-38.5 115,-19.5 0,-19.5"/>
<text text-anchor="middle" x="57.5" y="-26.5" font-family="Helvetica,sans-Serif" font-size="10.00">DynamicLinksInit.Start</text>
</a>
</g>
</g>
<!-- Node2 -->
<g id="node2" class="node">
<title>Node2</title>
<g id="a_node2"><a xlink:href="../../d8/d78/class_dynamic_links_init.html#a53989c4e1c0a81ca03fefc118b7191f2" target="_top" xlink:title="Lanzada cuando se recibe un enlace dinámico">
<polygon fill="white" stroke="black" points="151,-19.5 151,-38.5 314,-38.5 314,-19.5 151,-19.5"/>
<text text-anchor="middle" x="232.5" y="-26.5" font-family="Helvetica,sans-Serif" font-size="10.00">DynamicLinksInit.OnDynamicLink</text>
</a>
</g>
</g>
<!-- Node1&#45;&gt;Node2 -->
<g id="edge1" class="edge">
<title>Node1&#45;&gt;Node2</title>
<path fill="none" stroke="midnightblue" d="M115.15,-29C123.36,-29 131.99,-29 140.67,-29"/>
<polygon fill="midnightblue" stroke="midnightblue" points="140.87,-32.5 150.87,-29 140.87,-25.5 140.87,-32.5"/>
</g>
<!-- Node3 -->
<g id="node3" class="node">
<title>Node3</title>
<g id="a_node3"><a xlink:href="../../d2/d43/class_room_manager.html#a022ae9cafc8dedb55ca839e0d99c5b44" target="_top" xlink:title="Mueve un par a una sala">
<polygon fill="white" stroke="black" points="350,-19.5 350,-38.5 475,-38.5 475,-19.5 350,-19.5"/>
<text text-anchor="middle" x="412.5" y="-26.5" font-family="Helvetica,sans-Serif" font-size="10.00">RoomManager.JoinRoom</text>
</a>
</g>
</g>
<!-- Node2&#45;&gt;Node3 -->
<g id="edge2" class="edge">
<title>Node2&#45;&gt;Node3</title>
<path fill="none" stroke="midnightblue" d="M314.17,-29C322.67,-29 331.27,-29 339.66,-29"/>
<polygon fill="midnightblue" stroke="midnightblue" points="339.78,-32.5 349.77,-29 339.77,-25.5 339.78,-32.5"/>
</g>
<!-- Node4 -->
<g id="node4" class="node">
<title>Node4</title>
<g id="a_node4"><a xlink:href="../../d3/dda/class_my_scene_manager.html#a6787f49b73d5e0c4e80fd67d38f5550a" target="_top" xlink:title="Carga la escena seleccionada">
<polygon fill="white" stroke="black" points="518,-38.5 518,-57.5 665,-57.5 665,-38.5 518,-38.5"/>
<text text-anchor="middle" x="591.5" y="-45.5" font-family="Helvetica,sans-Serif" font-size="10.00">MySceneManager.LoadScene</text>
</a>
</g>
</g>
<!-- Node3&#45;&gt;Node4 -->
<g id="edge3" class="edge">
<title>Node3&#45;&gt;Node4</title>
<path fill="none" stroke="midnightblue" d="M475.41,-35.65C485.86,-36.77 496.87,-37.95 507.75,-39.12"/>
<polygon fill="midnightblue" stroke="midnightblue" points="507.38,-42.6 517.7,-40.19 508.13,-35.64 507.38,-42.6"/>
</g>
<!-- Node5 -->
<g id="node5" class="node">
<title>Node5</title>
<g id="a_node5"><a xlink:href="../../d5/dd7/class_database_manager.html#a26b78f4ef7989b67f825194863df0357" target="_top" xlink:title="Evalua si un código de sala existe en base de datos">
<polygon fill="white" stroke="black" points="511,-0.5 511,-19.5 672,-19.5 672,-0.5 511,-0.5"/>
<text text-anchor="middle" x="591.5" y="-7.5" font-family="Helvetica,sans-Serif" font-size="10.00">DatabaseManager.RoomIDExists</text>
</a>
</g>
</g>
<!-- Node3&#45;&gt;Node5 -->
<g id="edge4" class="edge">
<title>Node3&#45;&gt;Node5</title>
<path fill="none" stroke="midnightblue" d="M475.41,-22.35C483.65,-21.47 492.23,-20.55 500.82,-19.63"/>
<polygon fill="midnightblue" stroke="midnightblue" points="501.33,-23.09 510.9,-18.55 500.58,-16.13 501.33,-23.09"/>
</g>
</g>
</svg>
