<?xml version="1.0" encoding="UTF-8" standalone="no"?>
<!DOCTYPE svg PUBLIC "-//W3C//DTD SVG 1.1//EN"
 "http://www.w3.org/Graphics/SVG/1.1/DTD/svg11.dtd">
<!-- Generated by graphviz version 2.49.0 (20210828.1703)
 -->
<!-- Title: DynamicLinksInit.OnDynamicLink Pages: 1 -->
<svg width="529pt" height="66pt"
 viewBox="0.00 0.00 529.00 66.00" xmlns="http://www.w3.org/2000/svg" xmlns:xlink="http://www.w3.org/1999/xlink">
<g id="graph0" class="graph" transform="scale(1 1) rotate(0) translate(4 62)">
<title>DynamicLinksInit.OnDynamicLink</title>
<polygon fill="white" stroke="transparent" points="-4,4 -4,-62 525,-62 525,4 -4,4"/>
<!-- Node1 -->
<g id="node1" class="node">
<title>Node1</title>
<g id="a_node1"><a xlink:title="Lanzada cuando se recibe un enlace dinámico">
<polygon fill="#bfbfbf" stroke="black" points="0,-19.5 0,-38.5 163,-38.5 163,-19.5 0,-19.5"/>
<text text-anchor="middle" x="81.5" y="-26.5" font-family="Helvetica,sans-Serif" font-size="10.00">DynamicLinksInit.OnDynamicLink</text>
</a>
</g>
</g>
<!-- Node2 -->
<g id="node2" class="node">
<title>Node2</title>
<g id="a_node2"><a xlink:href="../../d2/d43/class_room_manager.html#a022ae9cafc8dedb55ca839e0d99c5b44" target="_top" xlink:title="Mueve un par a una sala">
<polygon fill="white" stroke="black" points="199,-19.5 199,-38.5 324,-38.5 324,-19.5 199,-19.5"/>
<text text-anchor="middle" x="261.5" y="-26.5" font-family="Helvetica,sans-Serif" font-size="10.00">RoomManager.JoinRoom</text>
</a>
</g>
</g>
<!-- Node1&#45;&gt;Node2 -->
<g id="edge1" class="edge">
<title>Node1&#45;&gt;Node2</title>
<path fill="none" stroke="midnightblue" d="M163.17,-29C171.67,-29 180.27,-29 188.66,-29"/>
<polygon fill="midnightblue" stroke="midnightblue" points="188.78,-32.5 198.77,-29 188.77,-25.5 188.78,-32.5"/>
</g>
<!-- Node3 -->
<g id="node3" class="node">
<title>Node3</title>
<g id="a_node3"><a xlink:href="../../d3/dda/class_my_scene_manager.html#a6787f49b73d5e0c4e80fd67d38f5550a" target="_top" xlink:title="Carga la escena seleccionada">
<polygon fill="white" stroke="black" points="367,-38.5 367,-57.5 514,-57.5 514,-38.5 367,-38.5"/>
<text text-anchor="middle" x="440.5" y="-45.5" font-family="Helvetica,sans-Serif" font-size="10.00">MySceneManager.LoadScene</text>
</a>
</g>
</g>
<!-- Node2&#45;&gt;Node3 -->
<g id="edge2" class="edge">
<title>Node2&#45;&gt;Node3</title>
<path fill="none" stroke="midnightblue" d="M324.41,-35.65C334.86,-36.77 345.87,-37.95 356.75,-39.12"/>
<polygon fill="midnightblue" stroke="midnightblue" points="356.38,-42.6 366.7,-40.19 357.13,-35.64 356.38,-42.6"/>
</g>
<!-- Node4 -->
<g id="node4" class="node">
<title>Node4</title>
<g id="a_node4"><a xlink:href="../../d5/dd7/class_database_manager.html#a26b78f4ef7989b67f825194863df0357" target="_top" xlink:title="Evalua si un código de sala existe en base de datos">
<polygon fill="white" stroke="black" points="360,-0.5 360,-19.5 521,-19.5 521,-0.5 360,-0.5"/>
<text text-anchor="middle" x="440.5" y="-7.5" font-family="Helvetica,sans-Serif" font-size="10.00">DatabaseManager.RoomIDExists</text>
</a>
</g>
</g>
<!-- Node2&#45;&gt;Node4 -->
<g id="edge3" class="edge">
<title>Node2&#45;&gt;Node4</title>
<path fill="none" stroke="midnightblue" d="M324.41,-22.35C332.65,-21.47 341.23,-20.55 349.82,-19.63"/>
<polygon fill="midnightblue" stroke="midnightblue" points="350.33,-23.09 359.9,-18.55 349.58,-16.13 350.33,-23.09"/>
</g>
</g>
</svg>
