<?xml version="1.0" encoding="UTF-8" standalone="no"?>
<!DOCTYPE svg PUBLIC "-//W3C//DTD SVG 1.1//EN"
 "http://www.w3.org/Graphics/SVG/1.1/DTD/svg11.dtd">
<!-- Generated by graphviz version 2.49.0 (20210828.1703)
 -->
<!-- Title: UserManager Pages: 1 -->
<svg width="272pt" height="281pt"
 viewBox="0.00 0.00 272.00 281.00" xmlns="http://www.w3.org/2000/svg" xmlns:xlink="http://www.w3.org/1999/xlink">
<g id="graph0" class="graph" transform="scale(1 1) rotate(0) translate(4 277)">
<title>UserManager</title>
<polygon fill="white" stroke="transparent" points="-4,4 -4,-277 268,-277 268,4 -4,4"/>
<!-- Node1 -->
<g id="node1" class="node">
<title>Node1</title>
<g id="a_node1"><a xlink:title="Maneja la lógica de registro y autenticación de usuarios">
<polygon fill="#bfbfbf" stroke="black" points="0,-0.5 0,-156.5 264,-156.5 264,-0.5 0,-0.5"/>
<text text-anchor="middle" x="132" y="-144.5" font-family="Helvetica,sans-Serif" font-size="10.00">UserManager</text>
<polyline fill="none" stroke="black" points="0,-137.5 264,-137.5 "/>
<text text-anchor="start" x="8" y="-125.5" font-family="Helvetica,sans-Serif" font-size="10.00">+ static FirebaseAuth Auth</text>
<text text-anchor="start" x="8" y="-114.5" font-family="Helvetica,sans-Serif" font-size="10.00">&#45; static string verificationId</text>
<polyline fill="none" stroke="black" points="0,-107.5 264,-107.5 "/>
<text text-anchor="start" x="8" y="-95.5" font-family="Helvetica,sans-Serif" font-size="10.00">+ static bool IsUserRegistered()</text>
<text text-anchor="start" x="8" y="-84.5" font-family="Helvetica,sans-Serif" font-size="10.00">+ static async Task&lt; Task &gt; SignUp(string username)</text>
<text text-anchor="start" x="8" y="-73.5" font-family="Helvetica,sans-Serif" font-size="10.00">+ static async void LogOut()</text>
<text text-anchor="start" x="8" y="-62.5" font-family="Helvetica,sans-Serif" font-size="10.00">+ static void LogIn(FirebaseAuth auth)</text>
<text text-anchor="start" x="8" y="-51.5" font-family="Helvetica,sans-Serif" font-size="10.00">+ static Task ChangeUsername(string username)</text>
<text text-anchor="start" x="8" y="-40.5" font-family="Helvetica,sans-Serif" font-size="10.00">+ static void SendVerificationCode(string countryCode,</text>
<text text-anchor="start" x="8" y="-29.5" font-family="Helvetica,sans-Serif" font-size="10.00"> string phoneNumber)</text>
<text text-anchor="start" x="8" y="-18.5" font-family="Helvetica,sans-Serif" font-size="10.00">+ static async Task&lt; bool &gt; VerifyPhone(string code)</text>
<text text-anchor="start" x="8" y="-7.5" font-family="Helvetica,sans-Serif" font-size="10.00">&#45; static Task VerifyPhoneCredential(Credential credential)</text>
</a>
</g>
</g>
<!-- Node2 -->
<g id="node2" class="node">
<title>Node2</title>
<g id="a_node2"><a xlink:href="../../d7/d23/class_user.html" target="_top" xlink:title="Representa un usuario en el sistema">
<polygon fill="white" stroke="black" points="3.5,-204.5 3.5,-272.5 260.5,-272.5 260.5,-204.5 3.5,-204.5"/>
<text text-anchor="middle" x="132" y="-260.5" font-family="Helvetica,sans-Serif" font-size="10.00">User</text>
<polyline fill="none" stroke="black" points="3.5,-253.5 260.5,-253.5 "/>
<text text-anchor="start" x="11.5" y="-241.5" font-family="Helvetica,sans-Serif" font-size="10.00">+ string username</text>
<text text-anchor="start" x="11.5" y="-230.5" font-family="Helvetica,sans-Serif" font-size="10.00">+ string phoneNumber</text>
<polyline fill="none" stroke="black" points="3.5,-223.5 260.5,-223.5 "/>
<text text-anchor="start" x="11.5" y="-211.5" font-family="Helvetica,sans-Serif" font-size="10.00">+ User(string username=null, string phoneNumber=null)</text>
</a>
</g>
</g>
<!-- Node2&#45;&gt;Node1 -->
<g id="edge1" class="edge">
<title>Node2&#45;&gt;Node1</title>
<path fill="none" stroke="#404040" d="M132,-204.38C132,-193.75 132,-181.42 132,-168.74"/>
<polygon fill="none" stroke="#404040" points="132,-168.52 128,-162.52 132,-156.52 136,-162.52 132,-168.52"/>
<text text-anchor="middle" x="162.5" y="-178" font-family="Helvetica,sans-Serif" font-size="10.00"> +CurrentUser</text>
</g>
</g>
</svg>
