<?xml version="1.0" encoding="UTF-8" standalone="no"?>
<!DOCTYPE svg PUBLIC "-//W3C//DTD SVG 1.1//EN"
 "http://www.w3.org/Graphics/SVG/1.1/DTD/svg11.dtd">
<!-- Generated by graphviz version 2.49.0 (20210828.1703)
 -->
<!-- Title: SharingManager.ShareMessage Pages: 1 -->
<svg width="1001pt" height="123pt"
 viewBox="0.00 0.00 1001.00 123.00" xmlns="http://www.w3.org/2000/svg" xmlns:xlink="http://www.w3.org/1999/xlink">
<g id="graph0" class="graph" transform="scale(1 1) rotate(0) translate(4 119)">
<title>SharingManager.ShareMessage</title>
<polygon fill="white" stroke="transparent" points="-4,4 -4,-119 997,-119 997,4 -4,4"/>
<!-- Node1 -->
<g id="node1" class="node">
<title>Node1</title>
<g id="a_node1"><a xlink:title="Crea el mensaje a compartir">
<polygon fill="#bfbfbf" stroke="black" points="838,-38.5 838,-57.5 993,-57.5 993,-38.5 838,-38.5"/>
<text text-anchor="middle" x="915.5" y="-45.5" font-family="Helvetica,sans-Serif" font-size="10.00">SharingManager.ShareMessage</text>
</a>
</g>
</g>
<!-- Node2 -->
<g id="node2" class="node">
<title>Node2</title>
<g id="a_node2"><a xlink:href="../../dd/dcc/class_sharing_manager.html#a2ef248638c066a17876bf444b0bc3861" target="_top" xlink:title="Comparte un código de sala">
<polygon fill="white" stroke="black" points="622,-57.5 622,-76.5 763,-76.5 763,-57.5 622,-57.5"/>
<text text-anchor="middle" x="692.5" y="-64.5" font-family="Helvetica,sans-Serif" font-size="10.00">SharingManager.ShareRoom</text>
</a>
</g>
</g>
<!-- Node1&#45;&gt;Node2 -->
<g id="edge1" class="edge">
<title>Node1&#45;&gt;Node2</title>
<path fill="none" stroke="midnightblue" d="M827.73,-55.46C806.26,-57.31 783.54,-59.26 763.01,-61.02"/>
<polygon fill="midnightblue" stroke="midnightblue" points="828.16,-58.94 837.83,-54.59 827.56,-51.96 828.16,-58.94"/>
</g>
<!-- Node5 -->
<g id="node5" class="node">
<title>Node5</title>
<g id="a_node5"><a xlink:href="../../dd/dcc/class_sharing_manager.html#aae88ccb9e92ceeed9c6e6281a192f698" target="_top" xlink:title="Comparte un código de sala con un contacto de whatsapp">
<polygon fill="white" stroke="black" points="583,-19.5 583,-38.5 802,-38.5 802,-19.5 583,-19.5"/>
<text text-anchor="middle" x="692.5" y="-26.5" font-family="Helvetica,sans-Serif" font-size="10.00">SharingManager.ShareRoomWhatsappContact</text>
</a>
</g>
</g>
<!-- Node1&#45;&gt;Node5 -->
<g id="edge4" class="edge">
<title>Node1&#45;&gt;Node5</title>
<path fill="none" stroke="midnightblue" d="M827.76,-40.54C819.42,-39.83 810.88,-39.09 802.37,-38.36"/>
<polygon fill="midnightblue" stroke="midnightblue" points="827.56,-44.04 837.83,-41.41 828.16,-37.06 827.56,-44.04"/>
</g>
<!-- Node3 -->
<g id="node3" class="node">
<title>Node3</title>
<g id="a_node3"><a xlink:href="../../d7/d42/class_topbar_u_i_controller.html#a3a7804eb204105f4ceb9c87762adf09d" target="_top" xlink:title="Llamada justo antes del primer fotograma">
<polygon fill="white" stroke="black" points="405.5,-95.5 405.5,-114.5 525.5,-114.5 525.5,-95.5 405.5,-95.5"/>
<text text-anchor="middle" x="465.5" y="-102.5" font-family="Helvetica,sans-Serif" font-size="10.00">TopbarUIController.Start</text>
</a>
</g>
</g>
<!-- Node2&#45;&gt;Node3 -->
<g id="edge2" class="edge">
<title>Node2&#45;&gt;Node3</title>
<path fill="none" stroke="midnightblue" d="M624.73,-78.28C592.36,-83.74 553.91,-90.24 523.01,-95.46"/>
<polygon fill="midnightblue" stroke="midnightblue" points="625.74,-81.66 635.01,-76.54 624.57,-74.75 625.74,-81.66"/>
</g>
<!-- Node4 -->
<g id="node4" class="node">
<title>Node4</title>
<g id="a_node4"><a xlink:href="../../d9/da4/class_rooms_controller.html#a38b3caf6336da28667fb457361f04193" target="_top" xlink:title="Llamada justo antes del primer fotograma">
<polygon fill="white" stroke="black" points="409,-57.5 409,-76.5 522,-76.5 522,-57.5 409,-57.5"/>
<text text-anchor="middle" x="465.5" y="-64.5" font-family="Helvetica,sans-Serif" font-size="10.00">RoomsController.Start</text>
</a>
</g>
</g>
<!-- Node2&#45;&gt;Node4 -->
<g id="edge3" class="edge">
<title>Node2&#45;&gt;Node4</title>
<path fill="none" stroke="midnightblue" d="M611.56,-67C582.02,-67 549.22,-67 522.29,-67"/>
<polygon fill="midnightblue" stroke="midnightblue" points="611.85,-70.5 621.85,-67 611.85,-63.5 611.85,-70.5"/>
</g>
<!-- Node6 -->
<g id="node6" class="node">
<title>Node6</title>
<g id="a_node6"><a xlink:href="../../db/d20/class_contacts_controller.html#a82e0a0a5ae1fc7cbef3e4cb49d74dc31" target="_top" xlink:title="Inicializa todos los elementos necesarios de la lista de contactos y la muestra en la interfaz">
<polygon fill="white" stroke="black" points="384,-19.5 384,-38.5 547,-38.5 547,-19.5 384,-19.5"/>
<text text-anchor="middle" x="465.5" y="-26.5" font-family="Helvetica,sans-Serif" font-size="10.00">ContactsController.ShowContacts</text>
</a>
</g>
</g>
<!-- Node5&#45;&gt;Node6 -->
<g id="edge5" class="edge">
<title>Node5&#45;&gt;Node6</title>
<path fill="none" stroke="midnightblue" d="M572.81,-29C564.17,-29 555.58,-29 547.25,-29"/>
<polygon fill="midnightblue" stroke="midnightblue" points="572.95,-32.5 582.95,-29 572.95,-25.5 572.95,-32.5"/>
</g>
<!-- Node7 -->
<g id="node7" class="node">
<title>Node7</title>
<g id="a_node7"><a xlink:href="../../db/d20/class_contacts_controller.html#a5523eae0297ff38bd1ee5cdaa2ead925" target="_top" xlink:title="LLamada cuando se aceptan los permisos de lectura de contactos">
<polygon fill="white" stroke="black" points="165,-38.5 165,-57.5 348,-57.5 348,-38.5 165,-38.5"/>
<text text-anchor="middle" x="256.5" y="-45.5" font-family="Helvetica,sans-Serif" font-size="10.00">ContactsController.PermissionGranted</text>
</a>
</g>
</g>
<!-- Node6&#45;&gt;Node7 -->
<g id="edge6" class="edge">
<title>Node6&#45;&gt;Node7</title>
<path fill="none" stroke="midnightblue" d="M373.65,-37.34C365.21,-38.11 356.65,-38.9 348.21,-39.67"/>
<polygon fill="midnightblue" stroke="midnightblue" points="374.24,-40.8 383.88,-36.4 373.6,-33.83 374.24,-40.8"/>
</g>
<!-- Node9 -->
<g id="node9" class="node">
<title>Node9</title>
<g id="a_node9"><a xlink:href="../../db/d20/class_contacts_controller.html#a18ddb1f465c9a56f0f080f9ce9cb0011" target="_top" xlink:title="Llamada justo antes del primer fotograma">
<polygon fill="white" stroke="black" points="196,-0.5 196,-19.5 317,-19.5 317,-0.5 196,-0.5"/>
<text text-anchor="middle" x="256.5" y="-7.5" font-family="Helvetica,sans-Serif" font-size="10.00">ContactsController.Start</text>
</a>
</g>
</g>
<!-- Node6&#45;&gt;Node9 -->
<g id="edge8" class="edge">
<title>Node6&#45;&gt;Node9</title>
<path fill="none" stroke="midnightblue" d="M373.88,-20.68C354.64,-18.92 334.8,-17.1 317.07,-15.47"/>
<polygon fill="midnightblue" stroke="midnightblue" points="373.6,-24.17 383.88,-21.6 374.24,-17.2 373.6,-24.17"/>
</g>
<!-- Node8 -->
<g id="node8" class="node">
<title>Node8</title>
<g id="a_node8"><a xlink:href="../../db/d20/class_contacts_controller.html#a55e6be8eaa668f93e23c09e491c644c8" target="_top" xlink:title="Llamada al crear el GameObject asociado">
<polygon fill="white" stroke="black" points="0,-38.5 0,-57.5 129,-57.5 129,-38.5 0,-38.5"/>
<text text-anchor="middle" x="64.5" y="-45.5" font-family="Helvetica,sans-Serif" font-size="10.00">ContactsController.Awake</text>
</a>
</g>
</g>
<!-- Node7&#45;&gt;Node8 -->
<g id="edge7" class="edge">
<title>Node7&#45;&gt;Node8</title>
<path fill="none" stroke="midnightblue" d="M154.7,-48C145.99,-48 137.33,-48 129.04,-48"/>
<polygon fill="midnightblue" stroke="midnightblue" points="154.95,-51.5 164.95,-48 154.95,-44.5 154.95,-51.5"/>
</g>
</g>
</svg>
