<?xml version="1.0" encoding="UTF-8" standalone="no"?>
<!DOCTYPE svg PUBLIC "-//W3C//DTD SVG 1.1//EN"
 "http://www.w3.org/Graphics/SVG/1.1/DTD/svg11.dtd">
<!-- Generated by graphviz version 2.49.0 (20210828.1703)
 -->
<!-- Title: AudioManager.Start Pages: 1 -->
<svg width="620pt" height="104pt"
 viewBox="0.00 0.00 620.00 104.00" xmlns="http://www.w3.org/2000/svg" xmlns:xlink="http://www.w3.org/1999/xlink">
<g id="graph0" class="graph" transform="scale(1 1) rotate(0) translate(4 100)">
<title>AudioManager.Start</title>
<polygon fill="white" stroke="transparent" points="-4,4 -4,-100 616,-100 616,4 -4,4"/>
<!-- Node1 -->
<g id="node1" class="node">
<title>Node1</title>
<g id="a_node1"><a xlink:title="Llamada justo antes del primer fotograma">
<polygon fill="#bfbfbf" stroke="black" points="0,-38.5 0,-57.5 103,-57.5 103,-38.5 0,-38.5"/>
<text text-anchor="middle" x="51.5" y="-45.5" font-family="Helvetica,sans-Serif" font-size="10.00">AudioManager.Start</text>
</a>
</g>
</g>
<!-- Node2 -->
<g id="node2" class="node">
<title>Node2</title>
<g id="a_node2"><a xlink:href="../../d7/d31/class_audio_manager.html#aa96d0af05232c7d2babfb0364271b9b6" target="_top" xlink:title="Lanzada cuando se deniegan los permisos de audio">
<polygon fill="white" stroke="black" points="178.5,-76.5 178.5,-95.5 389.5,-95.5 389.5,-76.5 178.5,-76.5"/>
<text text-anchor="middle" x="284" y="-83.5" font-family="Helvetica,sans-Serif" font-size="10.00">AudioManager.MicrophonePermissionDenied</text>
</a>
</g>
</g>
<!-- Node1&#45;&gt;Node2 -->
<g id="edge1" class="edge">
<title>Node1&#45;&gt;Node2</title>
<path fill="none" stroke="midnightblue" d="M92.41,-57.51C107.01,-60.79 123.7,-64.32 139,-67 155.82,-69.95 173.81,-72.67 191.19,-75.07"/>
<polygon fill="midnightblue" stroke="midnightblue" points="190.95,-78.57 201.33,-76.45 191.89,-71.64 190.95,-78.57"/>
</g>
<!-- Node3 -->
<g id="node3" class="node">
<title>Node3</title>
<g id="a_node3"><a xlink:href="../../d7/d31/class_audio_manager.html#a04d68ba5cdcccb8add793ae79563c2bf" target="_top" xlink:title="Lanzada cuando se deniegan los permisos de audio y se indica que no se soliciten otra vez">
<polygon fill="white" stroke="black" points="139,-38.5 139,-57.5 429,-57.5 429,-38.5 139,-38.5"/>
<text text-anchor="middle" x="284" y="-45.5" font-family="Helvetica,sans-Serif" font-size="10.00">AudioManager.MicrophonePermissionDeniedAndDontAskAgain</text>
</a>
</g>
</g>
<!-- Node1&#45;&gt;Node3 -->
<g id="edge2" class="edge">
<title>Node1&#45;&gt;Node3</title>
<path fill="none" stroke="midnightblue" d="M103.08,-48C111.08,-48 119.68,-48 128.64,-48"/>
<polygon fill="midnightblue" stroke="midnightblue" points="128.9,-51.5 138.9,-48 128.9,-44.5 128.9,-51.5"/>
</g>
<!-- Node5 -->
<g id="node5" class="node">
<title>Node5</title>
<g id="a_node5"><a xlink:href="../../d7/d31/class_audio_manager.html#a4a895a6f17e3ccbb780c62acc7c15155" target="_top" xlink:title="Lanzada cuando se aceptan los permisos de audio">
<polygon fill="white" stroke="black" points="176.5,-0.5 176.5,-19.5 391.5,-19.5 391.5,-0.5 176.5,-0.5"/>
<text text-anchor="middle" x="284" y="-7.5" font-family="Helvetica,sans-Serif" font-size="10.00">AudioManager.MicrophonePermissionGranted</text>
</a>
</g>
</g>
<!-- Node1&#45;&gt;Node5 -->
<g id="edge4" class="edge">
<title>Node1&#45;&gt;Node5</title>
<path fill="none" stroke="midnightblue" d="M92.41,-38.49C107.01,-35.21 123.7,-31.68 139,-29 155.82,-26.05 173.81,-23.33 191.19,-20.93"/>
<polygon fill="midnightblue" stroke="midnightblue" points="191.89,-24.36 201.33,-19.55 190.95,-17.43 191.89,-24.36"/>
</g>
<!-- Node4 -->
<g id="node4" class="node">
<title>Node4</title>
<g id="a_node4"><a xlink:href="../../d3/dda/class_my_scene_manager.html#a6787f49b73d5e0c4e80fd67d38f5550a" target="_top" xlink:title="Carga la escena seleccionada">
<polygon fill="white" stroke="black" points="465,-38.5 465,-57.5 612,-57.5 612,-38.5 465,-38.5"/>
<text text-anchor="middle" x="538.5" y="-45.5" font-family="Helvetica,sans-Serif" font-size="10.00">MySceneManager.LoadScene</text>
</a>
</g>
</g>
<!-- Node3&#45;&gt;Node4 -->
<g id="edge3" class="edge">
<title>Node3&#45;&gt;Node4</title>
<path fill="none" stroke="midnightblue" d="M429.32,-48C437.94,-48 446.45,-48 454.67,-48"/>
<polygon fill="midnightblue" stroke="midnightblue" points="454.93,-51.5 464.93,-48 454.93,-44.5 454.93,-51.5"/>
</g>
</g>
</svg>
