<?xml version="1.0" encoding="UTF-8" standalone="no"?>
<!DOCTYPE svg PUBLIC "-//W3C//DTD SVG 1.1//EN"
 "http://www.w3.org/Graphics/SVG/1.1/DTD/svg11.dtd">
<!-- Generated by graphviz version 2.49.0 (20210828.1703)
 -->
<!-- Title: AudioManager.GetVolume Pages: 1 -->
<svg width="334pt" height="66pt"
 viewBox="0.00 0.00 334.00 66.00" xmlns="http://www.w3.org/2000/svg" xmlns:xlink="http://www.w3.org/1999/xlink">
<g id="graph0" class="graph" transform="scale(1 1) rotate(0) translate(4 62)">
<title>AudioManager.GetVolume</title>
<polygon fill="white" stroke="transparent" points="-4,4 -4,-62 330,-62 330,4 -4,4"/>
<!-- Node1 -->
<g id="node1" class="node">
<title>Node1</title>
<g id="a_node1"><a xlink:title="Devuelve el valor del volumen de una fuente de audio">
<polygon fill="#bfbfbf" stroke="black" points="195,-19.5 195,-38.5 326,-38.5 326,-19.5 195,-19.5"/>
<text text-anchor="middle" x="260.5" y="-26.5" font-family="Helvetica,sans-Serif" font-size="10.00">AudioManager.GetVolume</text>
</a>
</g>
</g>
<!-- Node2 -->
<g id="node2" class="node">
<title>Node2</title>
<g id="a_node2"><a xlink:href="../../d6/d16/class_audio_visualizer_controller.html#a75319823a4ca8aab8a850d2bbb72c618" target="_top" xlink:title="Llamada al comienzo de cada fotograma">
<polygon fill="white" stroke="black" points="0,-38.5 0,-57.5 159,-57.5 159,-38.5 0,-38.5"/>
<text text-anchor="middle" x="79.5" y="-45.5" font-family="Helvetica,sans-Serif" font-size="10.00">AudioVisualizerController.Update</text>
</a>
</g>
</g>
<!-- Node1&#45;&gt;Node2 -->
<g id="edge1" class="edge">
<title>Node1&#45;&gt;Node2</title>
<path fill="none" stroke="midnightblue" d="M184.67,-36.94C176.22,-37.84 167.58,-38.76 159.08,-39.66"/>
<polygon fill="midnightblue" stroke="midnightblue" points="185.3,-40.4 194.88,-35.86 184.56,-33.43 185.3,-40.4"/>
</g>
<!-- Node3 -->
<g id="node3" class="node">
<title>Node3</title>
<g id="a_node3"><a xlink:href="../../d2/d48/class_peer_connection_manager.html#a8b9c44eaef490cea9d4ecb3c6c1ff7af" target="_top" xlink:title="Llamada al comienzo de cada fotograma">
<polygon fill="white" stroke="black" points="1,-0.5 1,-19.5 158,-19.5 158,-0.5 1,-0.5"/>
<text text-anchor="middle" x="79.5" y="-7.5" font-family="Helvetica,sans-Serif" font-size="10.00">PeerConnectionManager.Update</text>
</a>
</g>
</g>
<!-- Node1&#45;&gt;Node3 -->
<g id="edge2" class="edge">
<title>Node1&#45;&gt;Node3</title>
<path fill="none" stroke="midnightblue" d="M184.69,-21.06C175.92,-20.13 166.96,-19.18 158.15,-18.24"/>
<polygon fill="midnightblue" stroke="midnightblue" points="184.56,-24.57 194.88,-22.14 185.3,-17.6 184.56,-24.57"/>
</g>
</g>
</svg>
