<?xml version="1.0" encoding="UTF-8" standalone="no"?>
<!DOCTYPE svg PUBLIC "-//W3C//DTD SVG 1.1//EN"
 "http://www.w3.org/Graphics/SVG/1.1/DTD/svg11.dtd">
<!-- Generated by graphviz version 2.49.0 (20210828.1703)
 -->
<!-- Title: ARPointer Pages: 1 -->
<svg width="648pt" height="1056pt"
 viewBox="0.00 0.00 647.77 1056.00" xmlns="http://www.w3.org/2000/svg" xmlns:xlink="http://www.w3.org/1999/xlink">
<g id="graph0" class="graph" transform="scale(1 1) rotate(0) translate(4 1052)">
<title>ARPointer</title>
<polygon fill="white" stroke="transparent" points="-4,4 -4,-1052 643.77,-1052 643.77,4 -4,4"/>
<!-- Node1 -->
<g id="node1" class="node">
<title>Node1</title>
<g id="a_node1"><a xlink:title="Modela el comportamiento de la herramienta ARPointer">
<polygon fill="#bfbfbf" stroke="black" points="244.27,-0.5 244.27,-101.5 366.27,-101.5 366.27,-0.5 244.27,-0.5"/>
<text text-anchor="middle" x="305.27" y="-89.5" font-family="Helvetica,sans-Serif" font-size="10.00">ARPointer</text>
<polyline fill="none" stroke="black" points="244.27,-82.5 366.27,-82.5 "/>
<text text-anchor="start" x="252.27" y="-70.5" font-family="Helvetica,sans-Serif" font-size="10.00">&#45; PeerType myPeerType</text>
<text text-anchor="start" x="252.27" y="-59.5" font-family="Helvetica,sans-Serif" font-size="10.00">&#45; int cursorWidth</text>
<text text-anchor="start" x="252.27" y="-48.5" font-family="Helvetica,sans-Serif" font-size="10.00">&#45; GameObject pointer</text>
<polyline fill="none" stroke="black" points="244.27,-41.5 366.27,-41.5 "/>
<text text-anchor="start" x="252.27" y="-29.5" font-family="Helvetica,sans-Serif" font-size="10.00">&#45; void Awake()</text>
<text text-anchor="start" x="252.27" y="-18.5" font-family="Helvetica,sans-Serif" font-size="10.00">&#45; void Start()</text>
<text text-anchor="start" x="252.27" y="-7.5" font-family="Helvetica,sans-Serif" font-size="10.00">&#45; void Update()</text>
</a>
</g>
</g>
<!-- Node2 -->
<g id="node2" class="node">
<title>Node2</title>
<g id="a_node2"><a xlink:title=" ">
<polygon fill="white" stroke="#bfbfbf" points="232.77,-990.5 232.77,-1047.5 315.77,-1047.5 315.77,-990.5 232.77,-990.5"/>
<text text-anchor="middle" x="274.27" y="-1035.5" font-family="Helvetica,sans-Serif" font-size="10.00">MonoBehaviour</text>
<polyline fill="none" stroke="#bfbfbf" points="232.77,-1028.5 315.77,-1028.5 "/>
<text text-anchor="middle" x="274.27" y="-1016.5" font-family="Helvetica,sans-Serif" font-size="10.00"> </text>
<polyline fill="none" stroke="#bfbfbf" points="232.77,-1009.5 315.77,-1009.5 "/>
<text text-anchor="middle" x="274.27" y="-997.5" font-family="Helvetica,sans-Serif" font-size="10.00"> </text>
</a>
</g>
</g>
<!-- Node2&#45;&gt;Node1 -->
<g id="edge1" class="edge">
<title>Node2&#45;&gt;Node1</title>
<path fill="none" stroke="midnightblue" d="M223.89,-992.25C208.79,-982.06 193.74,-968.93 184.27,-953 0.81,-644.5 -81.36,-453.74 108.27,-149 137.78,-101.58 198.03,-76.67 244.17,-64.03"/>
<polygon fill="none" stroke="midnightblue" points="222.44,-995.47 232.75,-997.9 226.21,-989.57 222.44,-995.47"/>
</g>
<!-- Node3 -->
<g id="node3" class="node">
<title>Node3</title>
<g id="a_node3"><a xlink:href="../../dc/d59/class_my_input_manager.html" target="_top" xlink:title="Mapea la entrada de usuario real con la que debería indicada para el contenido actual">
<polygon fill="white" stroke="black" points="117.77,-149.5 117.77,-360.5 308.77,-360.5 308.77,-149.5 117.77,-149.5"/>
<text text-anchor="middle" x="213.27" y="-348.5" font-family="Helvetica,sans-Serif" font-size="10.00">MyInputManager</text>
<polyline fill="none" stroke="black" points="117.77,-341.5 308.77,-341.5 "/>
<text text-anchor="start" x="125.77" y="-329.5" font-family="Helvetica,sans-Serif" font-size="10.00">+ PeerType myPeerType</text>
<text text-anchor="start" x="125.77" y="-318.5" font-family="Helvetica,sans-Serif" font-size="10.00">+ bool recording</text>
<text text-anchor="start" x="125.77" y="-307.5" font-family="Helvetica,sans-Serif" font-size="10.00">+ Vector3 hostPosition</text>
<text text-anchor="start" x="125.77" y="-296.5" font-family="Helvetica,sans-Serif" font-size="10.00">+ Vector3 clientPosition</text>
<text text-anchor="start" x="125.77" y="-285.5" font-family="Helvetica,sans-Serif" font-size="10.00">+ TouchScreenKeyboard clientKeyboard</text>
<text text-anchor="start" x="125.77" y="-274.5" font-family="Helvetica,sans-Serif" font-size="10.00">&#45; float scaledPixelRatioX</text>
<text text-anchor="start" x="125.77" y="-263.5" font-family="Helvetica,sans-Serif" font-size="10.00">&#45; float scaledPixelRatioY</text>
<text text-anchor="start" x="125.77" y="-252.5" font-family="Helvetica,sans-Serif" font-size="10.00">&#45; float clientAspectRatio</text>
<text text-anchor="start" x="125.77" y="-241.5" font-family="Helvetica,sans-Serif" font-size="10.00">&#45; int croppedScreenWidth</text>
<text text-anchor="start" x="125.77" y="-230.5" font-family="Helvetica,sans-Serif" font-size="10.00">&#45; int croppedScreenHeight</text>
<text text-anchor="start" x="125.77" y="-219.5" font-family="Helvetica,sans-Serif" font-size="10.00">&#45; int offsetX</text>
<text text-anchor="start" x="125.77" y="-208.5" font-family="Helvetica,sans-Serif" font-size="10.00">&#45; int offsetY</text>
<polyline fill="none" stroke="black" points="117.77,-201.5 308.77,-201.5 "/>
<text text-anchor="start" x="125.77" y="-189.5" font-family="Helvetica,sans-Serif" font-size="10.00">+ bool IsHeldDown(PeerType peer)</text>
<text text-anchor="start" x="125.77" y="-178.5" font-family="Helvetica,sans-Serif" font-size="10.00">&#45; void Awake()</text>
<text text-anchor="start" x="125.77" y="-167.5" font-family="Helvetica,sans-Serif" font-size="10.00">&#45; void Start()</text>
<text text-anchor="start" x="125.77" y="-156.5" font-family="Helvetica,sans-Serif" font-size="10.00">&#45; void Update()</text>
</a>
</g>
</g>
<!-- Node2&#45;&gt;Node3 -->
<g id="edge3" class="edge">
<title>Node2&#45;&gt;Node3</title>
<path fill="none" stroke="midnightblue" d="M245.93,-981.68C240.38,-972.76 235.34,-962.91 232.27,-953 169.62,-750.79 183.7,-499.6 198.91,-360.7"/>
<polygon fill="none" stroke="midnightblue" points="243.16,-983.84 251.58,-990.26 249,-979.99 243.16,-983.84"/>
</g>
<!-- Node4 -->
<g id="node4" class="node">
<title>Node4</title>
<g id="a_node4"><a xlink:href="../../d2/dba/class_video_manager.html" target="_top" xlink:title="Maneja la lógica de la grabación y visualización de video">
<polygon fill="white" stroke="black" points="241.77,-653.5 241.77,-952.5 430.77,-952.5 430.77,-653.5 241.77,-653.5"/>
<text text-anchor="middle" x="336.27" y="-940.5" font-family="Helvetica,sans-Serif" font-size="10.00">VideoManager</text>
<polyline fill="none" stroke="black" points="241.77,-933.5 430.77,-933.5 "/>
<text text-anchor="start" x="249.77" y="-921.5" font-family="Helvetica,sans-Serif" font-size="10.00">+ int width</text>
<text text-anchor="start" x="249.77" y="-910.5" font-family="Helvetica,sans-Serif" font-size="10.00">+ int height</text>
<text text-anchor="start" x="249.77" y="-899.5" font-family="Helvetica,sans-Serif" font-size="10.00">+ float aspectRatio</text>
<text text-anchor="start" x="249.77" y="-888.5" font-family="Helvetica,sans-Serif" font-size="10.00">+ ulong bitrate</text>
<text text-anchor="start" x="249.77" y="-877.5" font-family="Helvetica,sans-Serif" font-size="10.00">+ uint framerate</text>
<text text-anchor="start" x="249.77" y="-866.5" font-family="Helvetica,sans-Serif" font-size="10.00">+ bool isRecording</text>
<text text-anchor="start" x="249.77" y="-855.5" font-family="Helvetica,sans-Serif" font-size="10.00">+ RawImage videoRawImage</text>
<text text-anchor="start" x="249.77" y="-844.5" font-family="Helvetica,sans-Serif" font-size="10.00">+ VideoStreamTrack videoStreamTrack</text>
<text text-anchor="start" x="249.77" y="-833.5" font-family="Helvetica,sans-Serif" font-size="10.00">+ bool videoDisabled</text>
<text text-anchor="start" x="249.77" y="-822.5" font-family="Helvetica,sans-Serif" font-size="10.00">+ Camera mainCam</text>
<text text-anchor="start" x="249.77" y="-811.5" font-family="Helvetica,sans-Serif" font-size="10.00">+ ARSession arSession</text>
<text text-anchor="start" x="249.77" y="-800.5" font-family="Helvetica,sans-Serif" font-size="10.00">&#45; Camera arCam</text>
<text text-anchor="start" x="249.77" y="-789.5" font-family="Helvetica,sans-Serif" font-size="10.00">&#45; Camera webCam</text>
<text text-anchor="start" x="249.77" y="-778.5" font-family="Helvetica,sans-Serif" font-size="10.00">&#45; RawImage webCamRawImage</text>
<text text-anchor="start" x="249.77" y="-767.5" font-family="Helvetica,sans-Serif" font-size="10.00">&#45; WebCamTexture webcamTexture</text>
<text text-anchor="start" x="249.77" y="-756.5" font-family="Helvetica,sans-Serif" font-size="10.00">&#45; GameObject noVideoAR</text>
<text text-anchor="start" x="249.77" y="-745.5" font-family="Helvetica,sans-Serif" font-size="10.00">&#45; GameObject noVideoUI</text>
<text text-anchor="start" x="249.77" y="-734.5" font-family="Helvetica,sans-Serif" font-size="10.00">&#45; Canvas arToolTipsUI</text>
<polyline fill="none" stroke="black" points="241.77,-727.5 430.77,-727.5 "/>
<text text-anchor="start" x="249.77" y="-715.5" font-family="Helvetica,sans-Serif" font-size="10.00">+ VideoStreamTrack RecordCamera()</text>
<text text-anchor="start" x="249.77" y="-704.5" font-family="Helvetica,sans-Serif" font-size="10.00">+ void ShowVideo(bool show)</text>
<text text-anchor="start" x="249.77" y="-693.5" font-family="Helvetica,sans-Serif" font-size="10.00">+ bool ToggleVideo()</text>
<text text-anchor="start" x="249.77" y="-682.5" font-family="Helvetica,sans-Serif" font-size="10.00">&#45; void Awake()</text>
<text text-anchor="start" x="249.77" y="-671.5" font-family="Helvetica,sans-Serif" font-size="10.00">&#45; void Start()</text>
<text text-anchor="start" x="249.77" y="-660.5" font-family="Helvetica,sans-Serif" font-size="10.00">&#45; void OnApplicationPause(bool paused)</text>
</a>
</g>
</g>
<!-- Node2&#45;&gt;Node4 -->
<g id="edge5" class="edge">
<title>Node2&#45;&gt;Node4</title>
<path fill="none" stroke="midnightblue" d="M285.08,-980.69C287.53,-972.24 290.27,-962.76 293.19,-952.7"/>
<polygon fill="none" stroke="midnightblue" points="281.67,-979.88 282.25,-990.46 288.39,-981.83 281.67,-979.88"/>
</g>
<!-- Node5 -->
<g id="node5" class="node">
<title>Node5</title>
<g id="a_node5"><a xlink:href="../../d7/d5d/class_a_r_tool_manager.html" target="_top" xlink:title="Maneja la lógica de las herramientas de RA">
<polygon fill="white" stroke="black" points="360.77,-379.5 360.77,-634.5 639.77,-634.5 639.77,-379.5 360.77,-379.5"/>
<text text-anchor="middle" x="500.27" y="-622.5" font-family="Helvetica,sans-Serif" font-size="10.00">ARToolManager</text>
<polyline fill="none" stroke="black" points="360.77,-615.5 639.77,-615.5 "/>
<text text-anchor="start" x="368.77" y="-603.5" font-family="Helvetica,sans-Serif" font-size="10.00">+ bool recording</text>
<text text-anchor="start" x="368.77" y="-592.5" font-family="Helvetica,sans-Serif" font-size="10.00">+ Material hostMaterial</text>
<text text-anchor="start" x="368.77" y="-581.5" font-family="Helvetica,sans-Serif" font-size="10.00">+ Material clientMaterial</text>
<text text-anchor="start" x="368.77" y="-570.5" font-family="Helvetica,sans-Serif" font-size="10.00">+ Material ColorRed</text>
<text text-anchor="start" x="368.77" y="-559.5" font-family="Helvetica,sans-Serif" font-size="10.00">+ Material ColorBlue</text>
<text text-anchor="start" x="368.77" y="-548.5" font-family="Helvetica,sans-Serif" font-size="10.00">+ Material ColorGreen</text>
<text text-anchor="start" x="368.77" y="-537.5" font-family="Helvetica,sans-Serif" font-size="10.00">+ Material ColorYellow</text>
<text text-anchor="start" x="368.77" y="-526.5" font-family="Helvetica,sans-Serif" font-size="10.00">+ GameObject guidePrefab</text>
<text text-anchor="start" x="368.77" y="-515.5" font-family="Helvetica,sans-Serif" font-size="10.00">+ static GameObject hostDrawings</text>
<text text-anchor="start" x="368.77" y="-504.5" font-family="Helvetica,sans-Serif" font-size="10.00">+ static GameObject clientDrawings</text>
<text text-anchor="start" x="368.77" y="-493.5" font-family="Helvetica,sans-Serif" font-size="10.00">+ static GameObject hostGuides</text>
<text text-anchor="start" x="368.77" y="-482.5" font-family="Helvetica,sans-Serif" font-size="10.00">+ static GameObject clientGuides</text>
<text text-anchor="start" x="368.77" y="-471.5" font-family="Helvetica,sans-Serif" font-size="10.00">&#45; GameObject hostTools</text>
<text text-anchor="start" x="368.77" y="-460.5" font-family="Helvetica,sans-Serif" font-size="10.00">&#45; GameObject clientTools</text>
<polyline fill="none" stroke="black" points="360.77,-453.5 639.77,-453.5 "/>
<text text-anchor="start" x="368.77" y="-441.5" font-family="Helvetica,sans-Serif" font-size="10.00">+ void SelectTool(PeerType peer, string toolName)</text>
<text text-anchor="start" x="368.77" y="-430.5" font-family="Helvetica,sans-Serif" font-size="10.00">+ void UndoDrawing(string peer)</text>
<text text-anchor="start" x="368.77" y="-419.5" font-family="Helvetica,sans-Serif" font-size="10.00">+ void DeleteDrawings(string peer)</text>
<text text-anchor="start" x="368.77" y="-408.5" font-family="Helvetica,sans-Serif" font-size="10.00">+ void SelectColor(PeerType peer, string color)</text>
<text text-anchor="start" x="368.77" y="-397.5" font-family="Helvetica,sans-Serif" font-size="10.00">+ GameObject PlaceGuide(PeerType peer, Transform target)</text>
<text text-anchor="start" x="368.77" y="-386.5" font-family="Helvetica,sans-Serif" font-size="10.00">&#45; void Awake()</text>
</a>
</g>
</g>
<!-- Node2&#45;&gt;Node5 -->
<g id="edge8" class="edge">
<title>Node2&#45;&gt;Node5</title>
<path fill="none" stroke="midnightblue" d="M326.04,-1011.5C363.43,-1003.96 411.97,-987.75 439.27,-953 509.48,-863.62 519.52,-731.77 515.14,-634.79"/>
<polygon fill="none" stroke="midnightblue" points="325,-1008.14 315.81,-1013.41 326.29,-1015.02 325,-1008.14"/>
</g>
<!-- Node3&#45;&gt;Node1 -->
<g id="edge2" class="edge">
<title>Node3&#45;&gt;Node1</title>
<path fill="none" stroke="#404040" d="M252.9,-149.48C257.22,-139.43 261.71,-129.47 266.27,-120 267.49,-117.47 268.77,-114.9 270.08,-112.32"/>
<polygon fill="none" stroke="#404040" points="270.09,-112.31 269.35,-105.14 275.68,-101.69 276.42,-108.87 270.09,-112.31"/>
<text text-anchor="middle" x="298.77" y="-123" font-family="Helvetica,sans-Serif" font-size="10.00"> &#45;inputManager</text>
</g>
<!-- Node4&#45;&gt;Node1 -->
<g id="edge6" class="edge">
<title>Node4&#45;&gt;Node1</title>
<path fill="none" stroke="#404040" d="M341.35,-653.3C346.04,-484.05 349.8,-218.32 331.27,-120 330.84,-117.72 330.34,-115.41 329.77,-113.1"/>
<polygon fill="none" stroke="#404040" points="329.77,-113.09 324.3,-108.4 326.53,-101.54 332,-106.24 329.77,-113.09"/>
<text text-anchor="middle" x="378.27" y="-252.5" font-family="Helvetica,sans-Serif" font-size="10.00"> &#45;videoManager</text>
</g>
<!-- Node4&#45;&gt;Node3 -->
<g id="edge4" class="edge">
<title>Node4&#45;&gt;Node3</title>
<path fill="none" stroke="#404040" d="M270.77,-653.38C268.79,-647.22 266.94,-641.07 265.27,-635 258.38,-610.02 240.56,-474.63 227.7,-372.74"/>
<polygon fill="none" stroke="#404040" points="227.7,-372.71 222.98,-367.26 226.2,-360.81 230.92,-366.26 227.7,-372.71"/>
<text text-anchor="middle" x="298.27" y="-504.5" font-family="Helvetica,sans-Serif" font-size="10.00"> &#45;videoManager</text>
</g>
<!-- Node5&#45;&gt;Node1 -->
<g id="edge7" class="edge">
<title>Node5&#45;&gt;Node1</title>
<path fill="none" stroke="#404040" d="M489.14,-379.09C478.35,-307.46 457.1,-218.63 415.27,-149 404.95,-131.83 390.59,-116.05 375.64,-102.43"/>
<polygon fill="none" stroke="#404040" points="375.31,-102.14 368.17,-101.2 366.29,-94.24 373.44,-95.18 375.31,-102.14"/>
<text text-anchor="middle" x="521.27" y="-252.5" font-family="Helvetica,sans-Serif" font-size="10.00"> &#45;aRToolManager</text>
</g>
</g>
</svg>
