<?xml version="1.0" encoding="UTF-8" standalone="no"?>
<!DOCTYPE svg PUBLIC "-//W3C//DTD SVG 1.1//EN"
 "http://www.w3.org/Graphics/SVG/1.1/DTD/svg11.dtd">
<!-- Generated by graphviz version 2.49.0 (20210828.1703)
 -->
<!-- Title: TopbarUIController Pages: 1 -->
<svg width="208pt" height="303pt"
 viewBox="0.00 0.00 208.00 303.00" xmlns="http://www.w3.org/2000/svg" xmlns:xlink="http://www.w3.org/1999/xlink">
<g id="graph0" class="graph" transform="scale(1 1) rotate(0) translate(4 299)">
<title>TopbarUIController</title>
<polygon fill="white" stroke="transparent" points="-4,4 -4,-299 204,-299 204,4 -4,4"/>
<!-- Node1 -->
<g id="node1" class="node">
<title>Node1</title>
<g id="a_node1"><a xlink:title="Controla la interfaz de la barra de opciones superior en una videollamada">
<polygon fill="#bfbfbf" stroke="black" points="0,-0.5 0,-200.5 200,-200.5 200,-0.5 0,-0.5"/>
<text text-anchor="middle" x="100" y="-188.5" font-family="Helvetica,sans-Serif" font-size="10.00">TopbarUIController</text>
<polyline fill="none" stroke="black" points="0,-181.5 200,-181.5 "/>
<text text-anchor="start" x="8" y="-169.5" font-family="Helvetica,sans-Serif" font-size="10.00">+ Sprite audioIcon</text>
<text text-anchor="start" x="8" y="-158.5" font-family="Helvetica,sans-Serif" font-size="10.00">+ Sprite muteAudioIcon</text>
<text text-anchor="start" x="8" y="-147.5" font-family="Helvetica,sans-Serif" font-size="10.00">+ Sprite videoIcon</text>
<text text-anchor="start" x="8" y="-136.5" font-family="Helvetica,sans-Serif" font-size="10.00">+ Sprite disableVideoIcon</text>
<text text-anchor="start" x="8" y="-125.5" font-family="Helvetica,sans-Serif" font-size="10.00">&#45; Button muteMyAudioBtn</text>
<text text-anchor="start" x="8" y="-114.5" font-family="Helvetica,sans-Serif" font-size="10.00">&#45; Button disableVideoBtn</text>
<text text-anchor="start" x="8" y="-103.5" font-family="Helvetica,sans-Serif" font-size="10.00">&#45; GameObject otherUserBubble</text>
<text text-anchor="start" x="8" y="-92.5" font-family="Helvetica,sans-Serif" font-size="10.00">&#45; Button roomBtn</text>
<text text-anchor="start" x="8" y="-81.5" font-family="Helvetica,sans-Serif" font-size="10.00">&#45; AudioManager audioManager</text>
<text text-anchor="start" x="8" y="-70.5" font-family="Helvetica,sans-Serif" font-size="10.00">&#45; VideoManager videoManager</text>
<text text-anchor="start" x="8" y="-59.5" font-family="Helvetica,sans-Serif" font-size="10.00">&#45; PeerConnectionManager peerConnection</text>
<text text-anchor="start" x="8" y="-48.5" font-family="Helvetica,sans-Serif" font-size="10.00">&#45; bool userReady</text>
<polyline fill="none" stroke="black" points="0,-41.5 200,-41.5 "/>
<text text-anchor="start" x="8" y="-29.5" font-family="Helvetica,sans-Serif" font-size="10.00">&#45; void Awake()</text>
<text text-anchor="start" x="8" y="-18.5" font-family="Helvetica,sans-Serif" font-size="10.00">&#45; void Start()</text>
<text text-anchor="start" x="8" y="-7.5" font-family="Helvetica,sans-Serif" font-size="10.00">&#45; void FixedUpdate()</text>
</a>
</g>
</g>
<!-- Node2 -->
<g id="node2" class="node">
<title>Node2</title>
<g id="a_node2"><a xlink:title=" ">
<polygon fill="white" stroke="#bfbfbf" points="58.5,-237.5 58.5,-294.5 141.5,-294.5 141.5,-237.5 58.5,-237.5"/>
<text text-anchor="middle" x="100" y="-282.5" font-family="Helvetica,sans-Serif" font-size="10.00">MonoBehaviour</text>
<polyline fill="none" stroke="#bfbfbf" points="58.5,-275.5 141.5,-275.5 "/>
<text text-anchor="middle" x="100" y="-263.5" font-family="Helvetica,sans-Serif" font-size="10.00"> </text>
<polyline fill="none" stroke="#bfbfbf" points="58.5,-256.5 141.5,-256.5 "/>
<text text-anchor="middle" x="100" y="-244.5" font-family="Helvetica,sans-Serif" font-size="10.00"> </text>
</a>
</g>
</g>
<!-- Node2&#45;&gt;Node1 -->
<g id="edge1" class="edge">
<title>Node2&#45;&gt;Node1</title>
<path fill="none" stroke="midnightblue" d="M100,-227.04C100,-218.87 100,-209.87 100,-200.55"/>
<polygon fill="none" stroke="midnightblue" points="96.5,-227.26 100,-237.26 103.5,-227.26 96.5,-227.26"/>
</g>
</g>
</svg>
