<?xml version="1.0" encoding="UTF-8" standalone="no"?>
<!DOCTYPE svg PUBLIC "-//W3C//DTD SVG 1.1//EN"
 "http://www.w3.org/Graphics/SVG/1.1/DTD/svg11.dtd">
<!-- Generated by graphviz version 2.49.0 (20210828.1703)
 -->
<!-- Title: RoomManager.JoinRoom Pages: 1 -->
<svg width="767pt" height="198pt"
 viewBox="0.00 0.00 767.00 198.00" xmlns="http://www.w3.org/2000/svg" xmlns:xlink="http://www.w3.org/1999/xlink">
<g id="graph0" class="graph" transform="scale(1 1) rotate(0) translate(4 194)">
<title>RoomManager.JoinRoom</title>
<polygon fill="white" stroke="transparent" points="-4,4 -4,-194 763,-194 763,4 -4,4"/>
<!-- Node1 -->
<g id="node1" class="node">
<title>Node1</title>
<g id="a_node1"><a xlink:title="Mueve un par a una sala">
<polygon fill="#bfbfbf" stroke="black" points="634,-95.5 634,-114.5 759,-114.5 759,-95.5 634,-95.5"/>
<text text-anchor="middle" x="696.5" y="-102.5" font-family="Helvetica,sans-Serif" font-size="10.00">RoomManager.JoinRoom</text>
</a>
</g>
</g>
<!-- Node2 -->
<g id="node2" class="node">
<title>Node2</title>
<g id="a_node2"><a xlink:href="../../d2/d84/class_one_signal_init.html#afac945779fdf4efc92743adb600c2862" target="_top" xlink:title="Lee notificación y redirige a la videollamada correspondiente">
<polygon fill="white" stroke="black" points="439,-152.5 439,-171.5 594,-171.5 594,-152.5 439,-152.5"/>
<text text-anchor="middle" x="516.5" y="-159.5" font-family="Helvetica,sans-Serif" font-size="10.00">OneSignalInit.HandleNotification</text>
</a>
</g>
</g>
<!-- Node1&#45;&gt;Node2 -->
<g id="edge1" class="edge">
<title>Node1&#45;&gt;Node2</title>
<path fill="none" stroke="midnightblue" d="M664.03,-118.56C645.13,-126.38 620.45,-136.01 598,-143 586.76,-146.5 574.46,-149.71 562.93,-152.45"/>
<polygon fill="midnightblue" stroke="midnightblue" points="665.48,-121.75 673.35,-114.66 662.78,-115.29 665.48,-121.75"/>
</g>
<!-- Node5 -->
<g id="node5" class="node">
<title>Node5</title>
<g id="a_node5"><a xlink:href="../../d9/da4/class_rooms_controller.html#adceb5742932fc91d4d08576ee98af251" target="_top" xlink:title="Lleva al usuario actual a la sala seleccionada">
<polygon fill="white" stroke="black" points="449.5,-114.5 449.5,-133.5 583.5,-133.5 583.5,-114.5 449.5,-114.5"/>
<text text-anchor="middle" x="516.5" y="-121.5" font-family="Helvetica,sans-Serif" font-size="10.00">RoomsController.JoinRoom</text>
</a>
</g>
</g>
<!-- Node1&#45;&gt;Node5 -->
<g id="edge5" class="edge">
<title>Node1&#45;&gt;Node5</title>
<path fill="none" stroke="midnightblue" d="M623.75,-112.66C610.52,-114.07 596.76,-115.54 583.7,-116.93"/>
<polygon fill="midnightblue" stroke="midnightblue" points="624.17,-116.13 633.74,-111.59 623.43,-109.17 624.17,-116.13"/>
</g>
<!-- Node7 -->
<g id="node7" class="node">
<title>Node7</title>
<g id="a_node7"><a xlink:href="../../d8/d78/class_dynamic_links_init.html#a53989c4e1c0a81ca03fefc118b7191f2" target="_top" xlink:title="Lanzada cuando se recibe un enlace dinámico">
<polygon fill="white" stroke="black" points="435,-76.5 435,-95.5 598,-95.5 598,-76.5 435,-76.5"/>
<text text-anchor="middle" x="516.5" y="-83.5" font-family="Helvetica,sans-Serif" font-size="10.00">DynamicLinksInit.OnDynamicLink</text>
</a>
</g>
</g>
<!-- Node1&#45;&gt;Node7 -->
<g id="edge7" class="edge">
<title>Node1&#45;&gt;Node7</title>
<path fill="none" stroke="midnightblue" d="M623.67,-97.33C615.31,-96.44 606.74,-95.53 598.27,-94.62"/>
<polygon fill="midnightblue" stroke="midnightblue" points="623.43,-100.83 633.74,-98.41 624.17,-93.87 623.43,-100.83"/>
</g>
<!-- Node9 -->
<g id="node9" class="node">
<title>Node9</title>
<g id="a_node9"><a xlink:href="../../db/d20/class_contacts_controller.html#a82e0a0a5ae1fc7cbef3e4cb49d74dc31" target="_top" xlink:title="Inicializa todos los elementos necesarios de la lista de contactos y la muestra en la interfaz">
<polygon fill="white" stroke="black" points="435,-38.5 435,-57.5 598,-57.5 598,-38.5 435,-38.5"/>
<text text-anchor="middle" x="516.5" y="-45.5" font-family="Helvetica,sans-Serif" font-size="10.00">ContactsController.ShowContacts</text>
</a>
</g>
</g>
<!-- Node1&#45;&gt;Node9 -->
<g id="edge9" class="edge">
<title>Node1&#45;&gt;Node9</title>
<path fill="none" stroke="midnightblue" d="M664.03,-91.44C645.13,-83.62 620.45,-73.99 598,-67 586.76,-63.5 574.46,-60.29 562.93,-57.55"/>
<polygon fill="midnightblue" stroke="midnightblue" points="662.78,-94.71 673.35,-95.34 665.48,-88.25 662.78,-94.71"/>
</g>
<!-- Node2&#45;&gt;Node2 -->
<g id="edge2" class="edge">
<title>Node2&#45;&gt;Node2</title>
<path fill="none" stroke="midnightblue" d="M550.23,-179.89C549.74,-185.54 538.49,-190 516.5,-190 484.51,-190 475.26,-180.57 488.76,-171.76"/>
<polygon fill="midnightblue" stroke="midnightblue" points="552.99,-177.73 544.24,-171.76 547.35,-181.88 552.99,-177.73"/>
</g>
<!-- Node3 -->
<g id="node3" class="node">
<title>Node3</title>
<g id="a_node3"><a xlink:href="../../d2/d84/class_one_signal_init.html#a60c9495cb3e70bfdef56251b55c09420" target="_top" xlink:title="Llamada cuando un usuario abre una notificación">
<polygon fill="white" stroke="black" points="165,-152.5 165,-171.5 399,-171.5 399,-152.5 165,-152.5"/>
<text text-anchor="middle" x="282" y="-159.5" font-family="Helvetica,sans-Serif" font-size="10.00">OneSignalInit.OneSignalHandleNotificationOpened</text>
</a>
</g>
</g>
<!-- Node2&#45;&gt;Node3 -->
<g id="edge3" class="edge">
<title>Node2&#45;&gt;Node3</title>
<path fill="none" stroke="midnightblue" d="M428.47,-162C418.9,-162 409.06,-162 399.21,-162"/>
<polygon fill="midnightblue" stroke="midnightblue" points="428.73,-165.5 438.73,-162 428.73,-158.5 428.73,-165.5"/>
</g>
<!-- Node4 -->
<g id="node4" class="node">
<title>Node4</title>
<g id="a_node4"><a xlink:href="../../d2/d84/class_one_signal_init.html#a71d28b5a62bca248554c5e5d89d20a41" target="_top" xlink:title="Llamada justo antes del primer fotograma">
<polygon fill="white" stroke="black" points="15.5,-152.5 15.5,-171.5 113.5,-171.5 113.5,-152.5 15.5,-152.5"/>
<text text-anchor="middle" x="64.5" y="-159.5" font-family="Helvetica,sans-Serif" font-size="10.00">OneSignalInit.Start</text>
</a>
</g>
</g>
<!-- Node3&#45;&gt;Node4 -->
<g id="edge4" class="edge">
<title>Node3&#45;&gt;Node4</title>
<path fill="none" stroke="midnightblue" d="M154.66,-162C140.2,-162 126.2,-162 113.74,-162"/>
<polygon fill="midnightblue" stroke="midnightblue" points="154.73,-165.5 164.73,-162 154.73,-158.5 154.73,-165.5"/>
</g>
<!-- Node6 -->
<g id="node6" class="node">
<title>Node6</title>
<g id="a_node6"><a xlink:href="../../d9/da4/class_rooms_controller.html#a38b3caf6336da28667fb457361f04193" target="_top" xlink:title="Llamada justo antes del primer fotograma">
<polygon fill="white" stroke="black" points="225.5,-114.5 225.5,-133.5 338.5,-133.5 338.5,-114.5 225.5,-114.5"/>
<text text-anchor="middle" x="282" y="-121.5" font-family="Helvetica,sans-Serif" font-size="10.00">RoomsController.Start</text>
</a>
</g>
</g>
<!-- Node5&#45;&gt;Node6 -->
<g id="edge6" class="edge">
<title>Node5&#45;&gt;Node6</title>
<path fill="none" stroke="midnightblue" d="M439.46,-124C406.55,-124 368.75,-124 338.55,-124"/>
<polygon fill="midnightblue" stroke="midnightblue" points="439.5,-127.5 449.5,-124 439.5,-120.5 439.5,-127.5"/>
</g>
<!-- Node8 -->
<g id="node8" class="node">
<title>Node8</title>
<g id="a_node8"><a xlink:href="../../d8/d78/class_dynamic_links_init.html#a92aa11c79f26c2d5d1637e094eaa3530" target="_top" xlink:title="Llamada justo antes del primer fotograma">
<polygon fill="white" stroke="black" points="224.5,-76.5 224.5,-95.5 339.5,-95.5 339.5,-76.5 224.5,-76.5"/>
<text text-anchor="middle" x="282" y="-83.5" font-family="Helvetica,sans-Serif" font-size="10.00">DynamicLinksInit.Start</text>
</a>
</g>
</g>
<!-- Node7&#45;&gt;Node8 -->
<g id="edge8" class="edge">
<title>Node7&#45;&gt;Node8</title>
<path fill="none" stroke="midnightblue" d="M424.8,-86C396.14,-86 365.31,-86 339.73,-86"/>
<polygon fill="midnightblue" stroke="midnightblue" points="424.84,-89.5 434.84,-86 424.84,-82.5 424.84,-89.5"/>
</g>
<!-- Node10 -->
<g id="node10" class="node">
<title>Node10</title>
<g id="a_node10"><a xlink:href="../../db/d20/class_contacts_controller.html#a5523eae0297ff38bd1ee5cdaa2ead925" target="_top" xlink:title="LLamada cuando se aceptan los permisos de lectura de contactos">
<polygon fill="white" stroke="black" points="190.5,-38.5 190.5,-57.5 373.5,-57.5 373.5,-38.5 190.5,-38.5"/>
<text text-anchor="middle" x="282" y="-45.5" font-family="Helvetica,sans-Serif" font-size="10.00">ContactsController.PermissionGranted</text>
</a>
</g>
</g>
<!-- Node9&#45;&gt;Node10 -->
<g id="edge10" class="edge">
<title>Node9&#45;&gt;Node10</title>
<path fill="none" stroke="midnightblue" d="M424.57,-48C407.91,-48 390.53,-48 373.87,-48"/>
<polygon fill="midnightblue" stroke="midnightblue" points="424.84,-51.5 434.84,-48 424.84,-44.5 424.84,-51.5"/>
</g>
<!-- Node12 -->
<g id="node12" class="node">
<title>Node12</title>
<g id="a_node12"><a xlink:href="../../db/d20/class_contacts_controller.html#a18ddb1f465c9a56f0f080f9ce9cb0011" target="_top" xlink:title="Llamada justo antes del primer fotograma">
<polygon fill="white" stroke="black" points="221.5,-0.5 221.5,-19.5 342.5,-19.5 342.5,-0.5 221.5,-0.5"/>
<text text-anchor="middle" x="282" y="-7.5" font-family="Helvetica,sans-Serif" font-size="10.00">ContactsController.Start</text>
</a>
</g>
</g>
<!-- Node9&#45;&gt;Node12 -->
<g id="edge12" class="edge">
<title>Node9&#45;&gt;Node12</title>
<path fill="none" stroke="midnightblue" d="M446.94,-36.8C413.4,-31.31 373.46,-24.78 341.39,-19.54"/>
<polygon fill="midnightblue" stroke="midnightblue" points="446.7,-40.3 457.13,-38.46 447.83,-33.39 446.7,-40.3"/>
</g>
<!-- Node11 -->
<g id="node11" class="node">
<title>Node11</title>
<g id="a_node11"><a xlink:href="../../db/d20/class_contacts_controller.html#a55e6be8eaa668f93e23c09e491c644c8" target="_top" xlink:title="Llamada al crear el GameObject asociado">
<polygon fill="white" stroke="black" points="0,-38.5 0,-57.5 129,-57.5 129,-38.5 0,-38.5"/>
<text text-anchor="middle" x="64.5" y="-45.5" font-family="Helvetica,sans-Serif" font-size="10.00">ContactsController.Awake</text>
</a>
</g>
</g>
<!-- Node10&#45;&gt;Node11 -->
<g id="edge11" class="edge">
<title>Node10&#45;&gt;Node11</title>
<path fill="none" stroke="midnightblue" d="M180.04,-48C162.67,-48 145.06,-48 129.03,-48"/>
<polygon fill="midnightblue" stroke="midnightblue" points="180.23,-51.5 190.23,-48 180.23,-44.5 180.23,-51.5"/>
</g>
</g>
</svg>
