<?xml version="1.0" encoding="UTF-8" standalone="no"?>
<!DOCTYPE svg PUBLIC "-//W3C//DTD SVG 1.1//EN"
 "http://www.w3.org/Graphics/SVG/1.1/DTD/svg11.dtd">
<!-- Generated by graphviz version 2.49.0 (20210828.1703)
 -->
<!-- Title: ARText Pages: 1 -->
<svg width="337pt" height="1111pt"
 viewBox="0.00 0.00 336.56 1111.00" xmlns="http://www.w3.org/2000/svg" xmlns:xlink="http://www.w3.org/1999/xlink">
<g id="graph0" class="graph" transform="scale(1 1) rotate(0) translate(4 1107)">
<title>ARText</title>
<polygon fill="white" stroke="transparent" points="-4,4 -4,-1107 332.56,-1107 332.56,4 -4,4"/>
<!-- Node1 -->
<g id="node1" class="node">
<title>Node1</title>
<g id="a_node1"><a xlink:title="Modela el comportamiento de la herramienta ARText">
<polygon fill="#bfbfbf" stroke="black" points="83.56,-0.5 83.56,-156.5 187.56,-156.5 187.56,-0.5 83.56,-0.5"/>
<text text-anchor="middle" x="135.56" y="-144.5" font-family="Helvetica,sans-Serif" font-size="10.00">ARText</text>
<polyline fill="none" stroke="black" points="83.56,-137.5 187.56,-137.5 "/>
<text text-anchor="start" x="91.56" y="-125.5" font-family="Helvetica,sans-Serif" font-size="10.00">&#45; myPeerType</text>
<text text-anchor="start" x="91.56" y="-114.5" font-family="Helvetica,sans-Serif" font-size="10.00">&#45; prefab</text>
<text text-anchor="start" x="91.56" y="-103.5" font-family="Helvetica,sans-Serif" font-size="10.00">&#45; cam</text>
<text text-anchor="start" x="91.56" y="-92.5" font-family="Helvetica,sans-Serif" font-size="10.00">&#45; arRaycastManager</text>
<text text-anchor="start" x="91.56" y="-81.5" font-family="Helvetica,sans-Serif" font-size="10.00">&#45; hostMarker</text>
<text text-anchor="start" x="91.56" y="-70.5" font-family="Helvetica,sans-Serif" font-size="10.00">&#45; placingMarker</text>
<text text-anchor="start" x="91.56" y="-59.5" font-family="Helvetica,sans-Serif" font-size="10.00">&#45; keyboard</text>
<text text-anchor="start" x="91.56" y="-48.5" font-family="Helvetica,sans-Serif" font-size="10.00">&#45; currentMarker</text>
<polyline fill="none" stroke="black" points="83.56,-41.5 187.56,-41.5 "/>
<text text-anchor="start" x="91.56" y="-29.5" font-family="Helvetica,sans-Serif" font-size="10.00">&#45; Start()</text>
<text text-anchor="start" x="91.56" y="-18.5" font-family="Helvetica,sans-Serif" font-size="10.00">&#45; Update()</text>
<text text-anchor="start" x="91.56" y="-7.5" font-family="Helvetica,sans-Serif" font-size="10.00">&#45; AddMarker()</text>
</a>
</g>
</g>
<!-- Node2 -->
<g id="node2" class="node">
<title>Node2</title>
<g id="a_node2"><a xlink:title=" ">
<polygon fill="white" stroke="#bfbfbf" points="88.06,-1045.5 88.06,-1102.5 171.06,-1102.5 171.06,-1045.5 88.06,-1045.5"/>
<text text-anchor="middle" x="129.56" y="-1090.5" font-family="Helvetica,sans-Serif" font-size="10.00">MonoBehaviour</text>
<polyline fill="none" stroke="#bfbfbf" points="88.06,-1083.5 171.06,-1083.5 "/>
<text text-anchor="middle" x="129.56" y="-1071.5" font-family="Helvetica,sans-Serif" font-size="10.00"> </text>
<polyline fill="none" stroke="#bfbfbf" points="88.06,-1064.5 171.06,-1064.5 "/>
<text text-anchor="middle" x="129.56" y="-1052.5" font-family="Helvetica,sans-Serif" font-size="10.00"> </text>
</a>
</g>
</g>
<!-- Node2&#45;&gt;Node1 -->
<g id="edge1" class="edge">
<title>Node2&#45;&gt;Node1</title>
<path fill="none" stroke="midnightblue" d="M97.85,-1037.11C91.64,-1028.17 86,-1018.2 82.56,-1008 -31.5,-669.3 -18.77,-550.55 68.56,-204 72.58,-188.05 79.08,-171.93 86.5,-156.8"/>
<polygon fill="none" stroke="midnightblue" points="95.17,-1039.37 103.92,-1045.35 100.81,-1035.22 95.17,-1039.37"/>
</g>
<!-- Node3 -->
<g id="node3" class="node">
<title>Node3</title>
<g id="a_node3"><a xlink:href="class_my_input_manager.html" target="_top" xlink:title=" ">
<polygon fill="white" stroke="black" points="77.56,-204.5 77.56,-415.5 193.56,-415.5 193.56,-204.5 77.56,-204.5"/>
<text text-anchor="middle" x="135.56" y="-403.5" font-family="Helvetica,sans-Serif" font-size="10.00">MyInputManager</text>
<polyline fill="none" stroke="black" points="77.56,-396.5 193.56,-396.5 "/>
<text text-anchor="start" x="85.56" y="-384.5" font-family="Helvetica,sans-Serif" font-size="10.00">+ myPeerType</text>
<text text-anchor="start" x="85.56" y="-373.5" font-family="Helvetica,sans-Serif" font-size="10.00">+ recording</text>
<text text-anchor="start" x="85.56" y="-362.5" font-family="Helvetica,sans-Serif" font-size="10.00">+ hostPosition</text>
<text text-anchor="start" x="85.56" y="-351.5" font-family="Helvetica,sans-Serif" font-size="10.00">+ clientPosition</text>
<text text-anchor="start" x="85.56" y="-340.5" font-family="Helvetica,sans-Serif" font-size="10.00">+ clientKeyboard</text>
<text text-anchor="start" x="85.56" y="-329.5" font-family="Helvetica,sans-Serif" font-size="10.00">&#45; scaledPixelRatioX</text>
<text text-anchor="start" x="85.56" y="-318.5" font-family="Helvetica,sans-Serif" font-size="10.00">&#45; scaledPixelRatioY</text>
<text text-anchor="start" x="85.56" y="-307.5" font-family="Helvetica,sans-Serif" font-size="10.00">&#45; clientAspectRatio</text>
<text text-anchor="start" x="85.56" y="-296.5" font-family="Helvetica,sans-Serif" font-size="10.00">&#45; croppedScreenWidth</text>
<text text-anchor="start" x="85.56" y="-285.5" font-family="Helvetica,sans-Serif" font-size="10.00">&#45; croppedScreenHeight</text>
<text text-anchor="start" x="85.56" y="-274.5" font-family="Helvetica,sans-Serif" font-size="10.00">&#45; offsetX</text>
<text text-anchor="start" x="85.56" y="-263.5" font-family="Helvetica,sans-Serif" font-size="10.00">&#45; offsetY</text>
<polyline fill="none" stroke="black" points="77.56,-256.5 193.56,-256.5 "/>
<text text-anchor="start" x="85.56" y="-244.5" font-family="Helvetica,sans-Serif" font-size="10.00">+ IsHeldDown()</text>
<text text-anchor="start" x="85.56" y="-233.5" font-family="Helvetica,sans-Serif" font-size="10.00">&#45; Awake()</text>
<text text-anchor="start" x="85.56" y="-222.5" font-family="Helvetica,sans-Serif" font-size="10.00">&#45; Start()</text>
<text text-anchor="start" x="85.56" y="-211.5" font-family="Helvetica,sans-Serif" font-size="10.00">&#45; Update()</text>
</a>
</g>
</g>
<!-- Node2&#45;&gt;Node3 -->
<g id="edge3" class="edge">
<title>Node2&#45;&gt;Node3</title>
<path fill="none" stroke="midnightblue" d="M113.35,-1036.02C110.13,-1027.02 107.22,-1017.31 105.56,-1008 60.65,-756.72 105.93,-688.51 125.56,-434 126.02,-428.02 126.5,-421.87 126.99,-415.67"/>
<polygon fill="none" stroke="midnightblue" points="110.11,-1037.35 116.94,-1045.45 116.66,-1034.86 110.11,-1037.35"/>
</g>
<!-- Node4 -->
<g id="node4" class="node">
<title>Node4</title>
<g id="a_node4"><a xlink:href="class_video_manager.html" target="_top" xlink:title="Maneja la l贸gica de la grabaci贸n y visualizaci贸n de video">
<polygon fill="white" stroke="black" points="115.06,-708.5 115.06,-1007.5 232.06,-1007.5 232.06,-708.5 115.06,-708.5"/>
<text text-anchor="middle" x="173.56" y="-995.5" font-family="Helvetica,sans-Serif" font-size="10.00">VideoManager</text>
<polyline fill="none" stroke="black" points="115.06,-988.5 232.06,-988.5 "/>
<text text-anchor="start" x="123.06" y="-976.5" font-family="Helvetica,sans-Serif" font-size="10.00">+ width</text>
<text text-anchor="start" x="123.06" y="-965.5" font-family="Helvetica,sans-Serif" font-size="10.00">+ height</text>
<text text-anchor="start" x="123.06" y="-954.5" font-family="Helvetica,sans-Serif" font-size="10.00">+ aspectRatio</text>
<text text-anchor="start" x="123.06" y="-943.5" font-family="Helvetica,sans-Serif" font-size="10.00">+ bitrate</text>
<text text-anchor="start" x="123.06" y="-932.5" font-family="Helvetica,sans-Serif" font-size="10.00">+ framerate</text>
<text text-anchor="start" x="123.06" y="-921.5" font-family="Helvetica,sans-Serif" font-size="10.00">+ isRecording</text>
<text text-anchor="start" x="123.06" y="-910.5" font-family="Helvetica,sans-Serif" font-size="10.00">+ videoRawImage</text>
<text text-anchor="start" x="123.06" y="-899.5" font-family="Helvetica,sans-Serif" font-size="10.00">+ videoStreamTrack</text>
<text text-anchor="start" x="123.06" y="-888.5" font-family="Helvetica,sans-Serif" font-size="10.00">+ videoDisabled</text>
<text text-anchor="start" x="123.06" y="-877.5" font-family="Helvetica,sans-Serif" font-size="10.00">+ mainCam</text>
<text text-anchor="start" x="123.06" y="-866.5" font-family="Helvetica,sans-Serif" font-size="10.00">+ arSession</text>
<text text-anchor="start" x="123.06" y="-855.5" font-family="Helvetica,sans-Serif" font-size="10.00">&#45; arCam</text>
<text text-anchor="start" x="123.06" y="-844.5" font-family="Helvetica,sans-Serif" font-size="10.00">&#45; webCam</text>
<text text-anchor="start" x="123.06" y="-833.5" font-family="Helvetica,sans-Serif" font-size="10.00">&#45; webCamRawImage</text>
<text text-anchor="start" x="123.06" y="-822.5" font-family="Helvetica,sans-Serif" font-size="10.00">&#45; webcamTexture</text>
<text text-anchor="start" x="123.06" y="-811.5" font-family="Helvetica,sans-Serif" font-size="10.00">&#45; noVideoAR</text>
<text text-anchor="start" x="123.06" y="-800.5" font-family="Helvetica,sans-Serif" font-size="10.00">&#45; noVideoUI</text>
<text text-anchor="start" x="123.06" y="-789.5" font-family="Helvetica,sans-Serif" font-size="10.00">&#45; arToolTipsUI</text>
<polyline fill="none" stroke="black" points="115.06,-782.5 232.06,-782.5 "/>
<text text-anchor="start" x="123.06" y="-770.5" font-family="Helvetica,sans-Serif" font-size="10.00">+ RecordCamera()</text>
<text text-anchor="start" x="123.06" y="-759.5" font-family="Helvetica,sans-Serif" font-size="10.00">+ ShowVideo()</text>
<text text-anchor="start" x="123.06" y="-748.5" font-family="Helvetica,sans-Serif" font-size="10.00">+ ToggleVideo()</text>
<text text-anchor="start" x="123.06" y="-737.5" font-family="Helvetica,sans-Serif" font-size="10.00">&#45; Awake()</text>
<text text-anchor="start" x="123.06" y="-726.5" font-family="Helvetica,sans-Serif" font-size="10.00">&#45; Start()</text>
<text text-anchor="start" x="123.06" y="-715.5" font-family="Helvetica,sans-Serif" font-size="10.00">&#45; OnApplicationPause()</text>
</a>
</g>
</g>
<!-- Node2&#45;&gt;Node4 -->
<g id="edge5" class="edge">
<title>Node2&#45;&gt;Node4</title>
<path fill="none" stroke="midnightblue" d="M137.29,-1035.41C139.01,-1027.03 140.94,-1017.65 142.99,-1007.7"/>
<polygon fill="none" stroke="midnightblue" points="133.81,-1034.96 135.22,-1045.46 140.67,-1036.37 133.81,-1034.96"/>
</g>
<!-- Node5 -->
<g id="node5" class="node">
<title>Node5</title>
<g id="a_node5"><a xlink:href="class_a_r_tool_manager.html" target="_top" xlink:title="Maneja la l贸gica de las herramientas de RA">
<polygon fill="white" stroke="black" points="210.06,-434.5 210.06,-689.5 309.06,-689.5 309.06,-434.5 210.06,-434.5"/>
<text text-anchor="middle" x="259.56" y="-677.5" font-family="Helvetica,sans-Serif" font-size="10.00">ARToolManager</text>
<polyline fill="none" stroke="black" points="210.06,-670.5 309.06,-670.5 "/>
<text text-anchor="start" x="218.06" y="-658.5" font-family="Helvetica,sans-Serif" font-size="10.00">+ recording</text>
<text text-anchor="start" x="218.06" y="-647.5" font-family="Helvetica,sans-Serif" font-size="10.00">+ hostMaterial</text>
<text text-anchor="start" x="218.06" y="-636.5" font-family="Helvetica,sans-Serif" font-size="10.00">+ clientMaterial</text>
<text text-anchor="start" x="218.06" y="-625.5" font-family="Helvetica,sans-Serif" font-size="10.00">+ ColorRed</text>
<text text-anchor="start" x="218.06" y="-614.5" font-family="Helvetica,sans-Serif" font-size="10.00">+ ColorBlue</text>
<text text-anchor="start" x="218.06" y="-603.5" font-family="Helvetica,sans-Serif" font-size="10.00">+ ColorGreen</text>
<text text-anchor="start" x="218.06" y="-592.5" font-family="Helvetica,sans-Serif" font-size="10.00">+ ColorYellow</text>
<text text-anchor="start" x="218.06" y="-581.5" font-family="Helvetica,sans-Serif" font-size="10.00">+ guidePrefab</text>
<text text-anchor="start" x="218.06" y="-570.5" font-family="Helvetica,sans-Serif" font-size="10.00">+ hostDrawings</text>
<text text-anchor="start" x="218.06" y="-559.5" font-family="Helvetica,sans-Serif" font-size="10.00">+ clientDrawings</text>
<text text-anchor="start" x="218.06" y="-548.5" font-family="Helvetica,sans-Serif" font-size="10.00">+ hostGuides</text>
<text text-anchor="start" x="218.06" y="-537.5" font-family="Helvetica,sans-Serif" font-size="10.00">+ clientGuides</text>
<text text-anchor="start" x="218.06" y="-526.5" font-family="Helvetica,sans-Serif" font-size="10.00">&#45; hostTools</text>
<text text-anchor="start" x="218.06" y="-515.5" font-family="Helvetica,sans-Serif" font-size="10.00">&#45; clientTools</text>
<polyline fill="none" stroke="black" points="210.06,-508.5 309.06,-508.5 "/>
<text text-anchor="start" x="218.06" y="-496.5" font-family="Helvetica,sans-Serif" font-size="10.00">+ SelectTool()</text>
<text text-anchor="start" x="218.06" y="-485.5" font-family="Helvetica,sans-Serif" font-size="10.00">+ UndoDrawing()</text>
<text text-anchor="start" x="218.06" y="-474.5" font-family="Helvetica,sans-Serif" font-size="10.00">+ DeleteDrawings()</text>
<text text-anchor="start" x="218.06" y="-463.5" font-family="Helvetica,sans-Serif" font-size="10.00">+ SelectColor()</text>
<text text-anchor="start" x="218.06" y="-452.5" font-family="Helvetica,sans-Serif" font-size="10.00">+ PlaceGuide()</text>
<text text-anchor="start" x="218.06" y="-441.5" font-family="Helvetica,sans-Serif" font-size="10.00">&#45; Awake()</text>
</a>
</g>
</g>
<!-- Node2&#45;&gt;Node5 -->
<g id="edge7" class="edge">
<title>Node2&#45;&gt;Node5</title>
<path fill="none" stroke="midnightblue" d="M180.64,-1055.96C203,-1045.72 227.16,-1030.27 240.56,-1008 297.89,-912.77 296.83,-784.17 284.87,-689.71"/>
<polygon fill="none" stroke="midnightblue" points="179,-1052.85 171.2,-1060.03 181.77,-1059.28 179,-1052.85"/>
</g>
<!-- Node3&#45;&gt;Node1 -->
<g id="edge2" class="edge">
<title>Node3&#45;&gt;Node1</title>
<path fill="none" stroke="#404040" d="M135.56,-204.32C135.56,-192.39 135.56,-180.31 135.56,-168.61"/>
<polygon fill="none" stroke="#404040" points="135.56,-168.57 131.56,-162.57 135.56,-156.57 139.56,-162.57 135.56,-168.57"/>
<text text-anchor="middle" x="168.06" y="-178" font-family="Helvetica,sans-Serif" font-size="10.00"> &#45;inputManager</text>
</g>
<!-- Node4&#45;&gt;Node3 -->
<g id="edge4" class="edge">
<title>Node4&#45;&gt;Node3</title>
<path fill="none" stroke="#404040" d="M137.05,-708.43C136.1,-702.23 135.26,-696.06 134.56,-690 121.54,-576.97 134.1,-547.78 134.56,-434 134.57,-431.94 134.58,-429.87 134.59,-427.78"/>
<polygon fill="none" stroke="#404040" points="134.59,-427.68 130.62,-421.66 134.65,-415.68 138.62,-421.7 134.59,-427.68"/>
<text text-anchor="middle" x="167.56" y="-559.5" font-family="Helvetica,sans-Serif" font-size="10.00"> &#45;videoManager</text>
</g>
<!-- Node5&#45;&gt;Node1 -->
<g id="edge6" class="edge">
<title>Node5&#45;&gt;Node1</title>
<path fill="none" stroke="#404040" d="M256.83,-434.48C251.48,-357.14 237.88,-257.54 204.56,-175 201.58,-167.61 197.9,-160.25 193.82,-153.1"/>
<polygon fill="none" stroke="#404040" points="193.78,-153.04 187.26,-149.98 187.57,-142.77 194.1,-145.83 193.78,-153.04"/>
<text text-anchor="middle" x="291.56" y="-307.5" font-family="Helvetica,sans-Serif" font-size="10.00"> &#45;aRToolManager</text>
</g>
</g>
</svg>
