<?xml version="1.0" encoding="UTF-8" standalone="no"?>
<!DOCTYPE svg PUBLIC "-//W3C//DTD SVG 1.1//EN"
 "http://www.w3.org/Graphics/SVG/1.1/DTD/svg11.dtd">
<!-- Generated by graphviz version 2.49.0 (20210828.1703)
 -->
<!-- Title: SharingManager.ShareRoomWhatsappContact Pages: 1 -->
<svg width="463pt" height="66pt"
 viewBox="0.00 0.00 463.00 66.00" xmlns="http://www.w3.org/2000/svg" xmlns:xlink="http://www.w3.org/1999/xlink">
<g id="graph0" class="graph" transform="scale(1 1) rotate(0) translate(4 62)">
<title>SharingManager.ShareRoomWhatsappContact</title>
<polygon fill="white" stroke="transparent" points="-4,4 -4,-62 459,-62 459,4 -4,4"/>
<!-- Node1 -->
<g id="node1" class="node">
<title>Node1</title>
<g id="a_node1"><a xlink:title="Comparte un código de sala con un contacto de whatsapp">
<polygon fill="#bfbfbf" stroke="black" points="0,-19.5 0,-38.5 219,-38.5 219,-19.5 0,-19.5"/>
<text text-anchor="middle" x="109.5" y="-26.5" font-family="Helvetica,sans-Serif" font-size="10.00">SharingManager.ShareRoomWhatsappContact</text>
</a>
</g>
</g>
<!-- Node2 -->
<g id="node2" class="node">
<title>Node2</title>
<g id="a_node2"><a xlink:href="class_sharing_manager.html#a039a42cca85530f5e71e396bda0bc95b" target="_top" xlink:title="Crea un enlace dinámico a una sala">
<polygon fill="white" stroke="black" points="255,-38.5 255,-57.5 455,-57.5 455,-38.5 255,-38.5"/>
<text text-anchor="middle" x="355" y="-45.5" font-family="Helvetica,sans-Serif" font-size="10.00">SharingManager.CreateDynamicRoomLink</text>
</a>
</g>
</g>
<!-- Node1&#45;&gt;Node2 -->
<g id="edge1" class="edge">
<title>Node1&#45;&gt;Node2</title>
<path fill="none" stroke="midnightblue" d="M219.08,-37.47C227.64,-38.14 236.3,-38.82 244.87,-39.48"/>
<polygon fill="midnightblue" stroke="midnightblue" points="244.64,-42.98 254.89,-40.27 245.19,-36 244.64,-42.98"/>
</g>
<!-- Node3 -->
<g id="node3" class="node">
<title>Node3</title>
<g id="a_node3"><a xlink:href="class_sharing_manager.html#a1297b7c8e2a23a2f1b179717015405a7" target="_top" xlink:title="Crea el mensaje a compartir">
<polygon fill="white" stroke="black" points="277.5,-0.5 277.5,-19.5 432.5,-19.5 432.5,-0.5 277.5,-0.5"/>
<text text-anchor="middle" x="355" y="-7.5" font-family="Helvetica,sans-Serif" font-size="10.00">SharingManager.ShareMessage</text>
</a>
</g>
</g>
<!-- Node1&#45;&gt;Node3 -->
<g id="edge2" class="edge">
<title>Node1&#45;&gt;Node3</title>
<path fill="none" stroke="midnightblue" d="M219.08,-20.53C235.2,-19.27 251.64,-17.99 267.24,-16.77"/>
<polygon fill="midnightblue" stroke="midnightblue" points="267.66,-20.25 277.36,-15.98 267.11,-13.27 267.66,-20.25"/>
</g>
</g>
</svg>
