<?xml version="1.0" encoding="UTF-8" standalone="no"?>
<!DOCTYPE svg PUBLIC "-//W3C//DTD SVG 1.1//EN"
 "http://www.w3.org/Graphics/SVG/1.1/DTD/svg11.dtd">
<!-- Generated by graphviz version 2.49.0 (20210828.1703)
 -->
<!-- Title: RecorderManager Pages: 1 -->
<svg width="258pt" height="574pt"
 viewBox="0.00 0.00 257.50 574.00" xmlns="http://www.w3.org/2000/svg" xmlns:xlink="http://www.w3.org/1999/xlink">
<g id="graph0" class="graph" transform="scale(1 1) rotate(0) translate(4 570)">
<title>RecorderManager</title>
<polygon fill="white" stroke="transparent" points="-4,4 -4,-570 253.5,-570 253.5,4 -4,4"/>
<!-- Node1 -->
<g id="node1" class="node">
<title>Node1</title>
<g id="a_node1"><a xlink:title="Maneja la lógica de la grabación de tutoriales">
<polygon fill="#bfbfbf" stroke="black" points="0,-0.5 0,-123.5 116,-123.5 116,-0.5 0,-0.5"/>
<text text-anchor="middle" x="58" y="-111.5" font-family="Helvetica,sans-Serif" font-size="10.00">RecorderManager</text>
<polyline fill="none" stroke="black" points="0,-104.5 116,-104.5 "/>
<text text-anchor="start" x="8" y="-92.5" font-family="Helvetica,sans-Serif" font-size="10.00">&#45; isRecording</text>
<polyline fill="none" stroke="black" points="0,-85.5 116,-85.5 "/>
<text text-anchor="start" x="8" y="-73.5" font-family="Helvetica,sans-Serif" font-size="10.00">+ ToggleRecord()</text>
<text text-anchor="start" x="8" y="-62.5" font-family="Helvetica,sans-Serif" font-size="10.00">&#45; Awake()</text>
<text text-anchor="start" x="8" y="-51.5" font-family="Helvetica,sans-Serif" font-size="10.00">&#45; Start()</text>
<text text-anchor="start" x="8" y="-40.5" font-family="Helvetica,sans-Serif" font-size="10.00">&#45; StartRecording()</text>
<text text-anchor="start" x="8" y="-29.5" font-family="Helvetica,sans-Serif" font-size="10.00">&#45; StopRecording()</text>
<text text-anchor="start" x="8" y="-18.5" font-family="Helvetica,sans-Serif" font-size="10.00">&#45; onStopRecord()</text>
<text text-anchor="start" x="8" y="-7.5" font-family="Helvetica,sans-Serif" font-size="10.00">&#45; OnApplicationFocus()</text>
</a>
</g>
</g>
<!-- Node2 -->
<g id="node2" class="node">
<title>Node2</title>
<g id="a_node2"><a xlink:title=" ">
<polygon fill="white" stroke="#bfbfbf" points="12.5,-508.5 12.5,-565.5 95.5,-565.5 95.5,-508.5 12.5,-508.5"/>
<text text-anchor="middle" x="54" y="-553.5" font-family="Helvetica,sans-Serif" font-size="10.00">MonoBehaviour</text>
<polyline fill="none" stroke="#bfbfbf" points="12.5,-546.5 95.5,-546.5 "/>
<text text-anchor="middle" x="54" y="-534.5" font-family="Helvetica,sans-Serif" font-size="10.00"> </text>
<polyline fill="none" stroke="#bfbfbf" points="12.5,-527.5 95.5,-527.5 "/>
<text text-anchor="middle" x="54" y="-515.5" font-family="Helvetica,sans-Serif" font-size="10.00"> </text>
</a>
</g>
</g>
<!-- Node2&#45;&gt;Node1 -->
<g id="edge1" class="edge">
<title>Node2&#45;&gt;Node1</title>
<path fill="none" stroke="midnightblue" d="M54.32,-498.08C55.01,-416.26 56.65,-222.56 57.49,-123.55"/>
<polygon fill="none" stroke="midnightblue" points="50.82,-498.15 54.24,-508.18 57.82,-498.21 50.82,-498.15"/>
</g>
<!-- Node3 -->
<g id="node3" class="node">
<title>Node3</title>
<g id="a_node3"><a xlink:href="class_android_utils.html" target="_top" xlink:title="Clase de utilidades para android">
<polygon fill="white" stroke="black" points="70.5,-171.5 70.5,-470.5 249.5,-470.5 249.5,-171.5 70.5,-171.5"/>
<text text-anchor="middle" x="160" y="-458.5" font-family="Helvetica,sans-Serif" font-size="10.00">AndroidUtils</text>
<polyline fill="none" stroke="black" points="70.5,-451.5 249.5,-451.5 "/>
<text text-anchor="start" x="78.5" y="-439.5" font-family="Helvetica,sans-Serif" font-size="10.00">+ onStartRecord</text>
<text text-anchor="start" x="78.5" y="-428.5" font-family="Helvetica,sans-Serif" font-size="10.00">+ onStopRecord</text>
<text text-anchor="start" x="78.5" y="-417.5" font-family="Helvetica,sans-Serif" font-size="10.00">+ filePath</text>
<text text-anchor="start" x="78.5" y="-406.5" font-family="Helvetica,sans-Serif" font-size="10.00">+ fileName</text>
<text text-anchor="start" x="78.5" y="-395.5" font-family="Helvetica,sans-Serif" font-size="10.00">+ onAllowCallback</text>
<text text-anchor="start" x="78.5" y="-384.5" font-family="Helvetica,sans-Serif" font-size="10.00">+ onDenyCallback</text>
<text text-anchor="start" x="78.5" y="-373.5" font-family="Helvetica,sans-Serif" font-size="10.00">+ onDenyAndNeverAskAgainCallback</text>
<text text-anchor="start" x="78.5" y="-362.5" font-family="Helvetica,sans-Serif" font-size="10.00">&#45; SCREEN_WIDTH</text>
<text text-anchor="start" x="78.5" y="-351.5" font-family="Helvetica,sans-Serif" font-size="10.00">&#45; VIDEO_NAME</text>
<text text-anchor="start" x="78.5" y="-340.5" font-family="Helvetica,sans-Serif" font-size="10.00">&#45; GALLERY_PATH</text>
<polyline fill="none" stroke="black" points="70.5,-333.5 249.5,-333.5 "/>
<text text-anchor="start" x="78.5" y="-321.5" font-family="Helvetica,sans-Serif" font-size="10.00">+ StartRecording()</text>
<text text-anchor="start" x="78.5" y="-310.5" font-family="Helvetica,sans-Serif" font-size="10.00">+ StopRecording()</text>
<text text-anchor="start" x="78.5" y="-299.5" font-family="Helvetica,sans-Serif" font-size="10.00">+ VideoRecorderCallback()</text>
<text text-anchor="start" x="78.5" y="-288.5" font-family="Helvetica,sans-Serif" font-size="10.00">+ SetFilePath()</text>
<text text-anchor="start" x="78.5" y="-277.5" font-family="Helvetica,sans-Serif" font-size="10.00">+ IsPermitted()</text>
<text text-anchor="start" x="78.5" y="-266.5" font-family="Helvetica,sans-Serif" font-size="10.00">+ RequestPermission()</text>
<text text-anchor="start" x="78.5" y="-255.5" font-family="Helvetica,sans-Serif" font-size="10.00">+ ShowToast()</text>
<text text-anchor="start" x="78.5" y="-244.5" font-family="Helvetica,sans-Serif" font-size="10.00">+ ShareAndroid()</text>
<text text-anchor="start" x="78.5" y="-233.5" font-family="Helvetica,sans-Serif" font-size="10.00">&#45; Start()</text>
<text text-anchor="start" x="78.5" y="-222.5" font-family="Helvetica,sans-Serif" font-size="10.00">&#45; OnAllow()</text>
<text text-anchor="start" x="78.5" y="-211.5" font-family="Helvetica,sans-Serif" font-size="10.00">&#45; OnDeny()</text>
<text text-anchor="start" x="78.5" y="-200.5" font-family="Helvetica,sans-Serif" font-size="10.00">&#45; OnDenyAndNeverAskAgain()</text>
<text text-anchor="start" x="78.5" y="-189.5" font-family="Helvetica,sans-Serif" font-size="10.00">&#45; ResetAllCallBacks()</text>
<text text-anchor="start" x="78.5" y="-178.5" font-family="Helvetica,sans-Serif" font-size="10.00">&#45; GetPermissionStrr()</text>
</a>
</g>
</g>
<!-- Node2&#45;&gt;Node3 -->
<g id="edge3" class="edge">
<title>Node2&#45;&gt;Node3</title>
<path fill="none" stroke="midnightblue" d="M72.21,-499.25C76.46,-490.65 81.25,-480.98 86.35,-470.7"/>
<polygon fill="none" stroke="midnightblue" points="68.94,-497.95 67.64,-508.46 75.22,-501.05 68.94,-497.95"/>
</g>
<!-- Node3&#45;&gt;Node1 -->
<g id="edge2" class="edge">
<title>Node3&#45;&gt;Node1</title>
<path fill="none" stroke="#404040" d="M100.96,-171.25C95.97,-158.68 91.09,-146.37 86.51,-134.83"/>
<polygon fill="none" stroke="#404040" points="86.46,-134.71 80.53,-130.61 82.03,-123.56 87.97,-127.66 86.46,-134.71"/>
<text text-anchor="middle" x="119" y="-145" font-family="Helvetica,sans-Serif" font-size="10.00"> &#45;androidUtils</text>
</g>
</g>
</svg>
