<?xml version="1.0" encoding="UTF-8" standalone="no"?>
<!DOCTYPE svg PUBLIC "-//W3C//DTD SVG 1.1//EN"
 "http://www.w3.org/Graphics/SVG/1.1/DTD/svg11.dtd">
<!-- Generated by graphviz version 2.49.0 (20210828.1703)
 -->
<!-- Title: AudioManager.RecordAudio Pages: 1 -->
<svg width="537pt" height="28pt"
 viewBox="0.00 0.00 537.00 28.00" xmlns="http://www.w3.org/2000/svg" xmlns:xlink="http://www.w3.org/1999/xlink">
<g id="graph0" class="graph" transform="scale(1 1) rotate(0) translate(4 24)">
<title>AudioManager.RecordAudio</title>
<polygon fill="white" stroke="transparent" points="-4,4 -4,-24 533,-24 533,4 -4,4"/>
<!-- Node1 -->
<g id="node1" class="node">
<title>Node1</title>
<g id="a_node1"><a xlink:title="Comienza a grabar el audio">
<polygon fill="#bfbfbf" stroke="black" points="392,-0.5 392,-19.5 529,-19.5 529,-0.5 392,-0.5"/>
<text text-anchor="middle" x="460.5" y="-7.5" font-family="Helvetica,sans-Serif" font-size="10.00">AudioManager.RecordAudio</text>
</a>
</g>
</g>
<!-- Node2 -->
<g id="node2" class="node">
<title>Node2</title>
<g id="a_node2"><a xlink:href="class_peer_connection_manager.html#a5e4d5b8cfb094cae7a3d200a78a2a7b3" target="_top" xlink:title="Crea los canales de video y audio">
<polygon fill="white" stroke="black" points="183,-0.5 183,-19.5 356,-19.5 356,-0.5 183,-0.5"/>
<text text-anchor="middle" x="269.5" y="-7.5" font-family="Helvetica,sans-Serif" font-size="10.00">PeerConnectionManager.AddTracks</text>
</a>
</g>
</g>
<!-- Node1&#45;&gt;Node2 -->
<g id="edge1" class="edge">
<title>Node1&#45;&gt;Node2</title>
<path fill="none" stroke="midnightblue" d="M381.66,-10C373.26,-10 364.68,-10 356.19,-10"/>
<polygon fill="midnightblue" stroke="midnightblue" points="381.8,-13.5 391.8,-10 381.8,-6.5 381.8,-13.5"/>
</g>
<!-- Node3 -->
<g id="node3" class="node">
<title>Node3</title>
<g id="a_node3"><a xlink:href="class_peer_connection_manager.html#a058148001392c4d6106cc784ec477256" target="_top" xlink:title="Llamada justo antes del primer fotograma">
<polygon fill="white" stroke="black" points="0,-0.5 0,-19.5 147,-19.5 147,-0.5 0,-0.5"/>
<text text-anchor="middle" x="73.5" y="-7.5" font-family="Helvetica,sans-Serif" font-size="10.00">PeerConnectionManager.Start</text>
</a>
</g>
</g>
<!-- Node2&#45;&gt;Node3 -->
<g id="edge2" class="edge">
<title>Node2&#45;&gt;Node3</title>
<path fill="none" stroke="midnightblue" d="M172.79,-10C164.2,-10 155.6,-10 147.25,-10"/>
<polygon fill="midnightblue" stroke="midnightblue" points="172.84,-13.5 182.84,-10 172.84,-6.5 172.84,-13.5"/>
</g>
</g>
</svg>
