<?xml version="1.0" encoding="UTF-8" standalone="no"?>
<!DOCTYPE svg PUBLIC "-//W3C//DTD SVG 1.1//EN"
 "http://www.w3.org/Graphics/SVG/1.1/DTD/svg11.dtd">
<!-- Generated by graphviz version 2.49.0 (20210828.1703)
 -->
<!-- Title: RegisterPhoneUIController.Start Pages: 1 -->
<svg width="1142pt" height="446pt"
 viewBox="0.00 0.00 1142.00 446.00" xmlns="http://www.w3.org/2000/svg" xmlns:xlink="http://www.w3.org/1999/xlink">
<g id="graph0" class="graph" transform="scale(1 1) rotate(0) translate(4 442)">
<title>RegisterPhoneUIController.Start</title>
<polygon fill="white" stroke="transparent" points="-4,4 -4,-442 1138,-442 1138,4 -4,4"/>
<!-- Node1 -->
<g id="node1" class="node">
<title>Node1</title>
<g id="a_node1"><a xlink:title="Llamada justo antes del primer fotograma">
<polygon fill="#bfbfbf" stroke="black" points="0,-247.5 0,-266.5 155,-266.5 155,-247.5 0,-247.5"/>
<text text-anchor="middle" x="77.5" y="-254.5" font-family="Helvetica,sans-Serif" font-size="10.00">RegisterPhoneUIController.Start</text>
</a>
</g>
</g>
<!-- Node2 -->
<g id="node2" class="node">
<title>Node2</title>
<g id="a_node2"><a xlink:href="class_register_phone_u_i_controller.html#aa53b9e247360a0829d2c06b01356a770" target="_top" xlink:title="Evalua si el código SMS introducido es válido">
<polygon fill="white" stroke="black" points="208.5,-418.5 208.5,-437.5 414.5,-437.5 414.5,-418.5 208.5,-418.5"/>
<text text-anchor="middle" x="311.5" y="-425.5" font-family="Helvetica,sans-Serif" font-size="10.00">RegisterPhoneUIController.IsValidCodeInput</text>
</a>
</g>
</g>
<!-- Node1&#45;&gt;Node2 -->
<g id="edge1" class="edge">
<title>Node1&#45;&gt;Node2</title>
<path fill="none" stroke="midnightblue" d="M82.55,-266.89C94.48,-294.61 132.35,-373.39 191,-409 194.44,-411.09 198.03,-412.97 201.73,-414.66"/>
<polygon fill="midnightblue" stroke="midnightblue" points="200.56,-417.96 211.14,-418.5 203.2,-411.48 200.56,-417.96"/>
</g>
<!-- Node3 -->
<g id="node3" class="node">
<title>Node3</title>
<g id="a_node3"><a xlink:href="class_register_phone_u_i_controller.html#a910690f5b527bbd969fbf8fa3ea8547e" target="_top" xlink:title="Evalua si el teléfono introducido es válido">
<polygon fill="white" stroke="black" points="205.5,-380.5 205.5,-399.5 417.5,-399.5 417.5,-380.5 205.5,-380.5"/>
<text text-anchor="middle" x="311.5" y="-387.5" font-family="Helvetica,sans-Serif" font-size="10.00">RegisterPhoneUIController.IsValidPhoneInput</text>
</a>
</g>
</g>
<!-- Node1&#45;&gt;Node3 -->
<g id="edge2" class="edge">
<title>Node1&#45;&gt;Node3</title>
<path fill="none" stroke="midnightblue" d="M85.38,-266.73C101.27,-288.4 142.85,-340.7 191,-366 200.16,-370.81 210.17,-374.66 220.39,-377.74"/>
<polygon fill="midnightblue" stroke="midnightblue" points="219.65,-381.17 230.22,-380.46 221.51,-374.42 219.65,-381.17"/>
</g>
<!-- Node4 -->
<g id="node4" class="node">
<title>Node4</title>
<g id="a_node4"><a xlink:href="class_my_scene_manager.html#a6787f49b73d5e0c4e80fd67d38f5550a" target="_top" xlink:title="Carga la escena seleccionada">
<polygon fill="white" stroke="black" points="488.5,-228.5 488.5,-247.5 635.5,-247.5 635.5,-228.5 488.5,-228.5"/>
<text text-anchor="middle" x="562" y="-235.5" font-family="Helvetica,sans-Serif" font-size="10.00">MySceneManager.LoadScene</text>
</a>
</g>
</g>
<!-- Node1&#45;&gt;Node4 -->
<g id="edge3" class="edge">
<title>Node1&#45;&gt;Node4</title>
<path fill="none" stroke="midnightblue" d="M155.22,-253.98C243.29,-250.51 387.24,-244.84 477.91,-241.27"/>
<polygon fill="midnightblue" stroke="midnightblue" points="478.29,-244.76 488.15,-240.87 478.02,-237.77 478.29,-244.76"/>
</g>
<!-- Node5 -->
<g id="node5" class="node">
<title>Node5</title>
<g id="a_node5"><a xlink:href="class_register_phone_u_i_controller.html#a5ebb5fa37ace52b830ee425ab69376e8" target="_top" xlink:title="Llamada cuando se captura automáticamente el código">
<polygon fill="white" stroke="black" points="692,-247.5 692,-266.5 955,-266.5 955,-247.5 692,-247.5"/>
<text text-anchor="middle" x="823.5" y="-254.5" font-family="Helvetica,sans-Serif" font-size="10.00">RegisterPhoneUIController.OnCodeAutoRetrievalTimeOut</text>
</a>
</g>
</g>
<!-- Node1&#45;&gt;Node5 -->
<g id="edge4" class="edge">
<title>Node1&#45;&gt;Node5</title>
<path fill="none" stroke="midnightblue" d="M128.12,-247.48C228.25,-229.64 461.54,-195.06 656,-219 672.37,-221.02 675.95,-224.21 692,-228 717.1,-233.93 745,-240.17 768.54,-245.34"/>
<polygon fill="midnightblue" stroke="midnightblue" points="767.82,-248.77 778.34,-247.49 769.32,-241.93 767.82,-248.77"/>
</g>
<!-- Node6 -->
<g id="node6" class="node">
<title>Node6</title>
<g id="a_node6"><a xlink:href="class_register_phone_u_i_controller.html#a1f99826db3bbc1b5bc00fe21b5241f5e" target="_top" xlink:title="Llamada cuando se envíaa el código de verificación SMS">
<polygon fill="white" stroke="black" points="729,-342.5 729,-361.5 918,-361.5 918,-342.5 729,-342.5"/>
<text text-anchor="middle" x="823.5" y="-349.5" font-family="Helvetica,sans-Serif" font-size="10.00">RegisterPhoneUIController.OnCodeSent</text>
</a>
</g>
</g>
<!-- Node1&#45;&gt;Node6 -->
<g id="edge5" class="edge">
<title>Node1&#45;&gt;Node6</title>
<path fill="none" stroke="midnightblue" d="M93.02,-266.63C113.75,-279.8 153.49,-302.95 191,-313 371.91,-361.47 591.98,-362.67 718.78,-358.07"/>
<polygon fill="midnightblue" stroke="midnightblue" points="719.02,-361.57 728.88,-357.69 718.75,-354.57 719.02,-361.57"/>
</g>
<!-- Node8 -->
<g id="node8" class="node">
<title>Node8</title>
<g id="a_node8"><a xlink:href="class_register_phone_u_i_controller.html#aa85933669dcb72558a71039eba32d88d" target="_top" xlink:title="Llamada cuando se completa la verificación">
<polygon fill="white" stroke="black" points="191,-266.5 191,-285.5 432,-285.5 432,-266.5 191,-266.5"/>
<text text-anchor="middle" x="311.5" y="-273.5" font-family="Helvetica,sans-Serif" font-size="10.00">RegisterPhoneUIController.OnVerificationCompleted</text>
</a>
</g>
</g>
<!-- Node1&#45;&gt;Node8 -->
<g id="edge7" class="edge">
<title>Node1&#45;&gt;Node8</title>
<path fill="none" stroke="midnightblue" d="M155.11,-263.27C164.41,-264.04 174.1,-264.83 183.9,-265.63"/>
<polygon fill="midnightblue" stroke="midnightblue" points="183.87,-269.14 194.12,-266.47 184.44,-262.16 183.87,-269.14"/>
</g>
<!-- Node9 -->
<g id="node9" class="node">
<title>Node9</title>
<g id="a_node9"><a xlink:href="class_register_phone_u_i_controller.html#a5cd62efcd8f1e816c759ac0ede78aaaf" target="_top" xlink:title="Se desuscribe de los eventos de clases estáticas">
<polygon fill="white" stroke="black" points="468,-266.5 468,-285.5 656,-285.5 656,-266.5 468,-266.5"/>
<text text-anchor="middle" x="562" y="-273.5" font-family="Helvetica,sans-Serif" font-size="10.00">RegisterPhoneUIController.Unsubscribe</text>
</a>
</g>
</g>
<!-- Node1&#45;&gt;Node9 -->
<g id="edge22" class="edge">
<title>Node1&#45;&gt;Node9</title>
<path fill="none" stroke="midnightblue" d="M99.95,-266.59C122.2,-275.98 158.25,-289.62 191,-295 298.45,-312.66 425.59,-298.65 499.39,-287.14"/>
<polygon fill="midnightblue" stroke="midnightblue" points="500.12,-290.57 509.44,-285.54 499.01,-283.66 500.12,-290.57"/>
</g>
<!-- Node10 -->
<g id="node10" class="node">
<title>Node10</title>
<g id="a_node10"><a xlink:href="class_register_phone_u_i_controller.html#a7838bc038a08379b5f1f50af435ac6d7" target="_top" xlink:title="Llamada cuando falla la verificación">
<polygon fill="white" stroke="black" points="713,-199.5 713,-218.5 934,-218.5 934,-199.5 713,-199.5"/>
<text text-anchor="middle" x="823.5" y="-206.5" font-family="Helvetica,sans-Serif" font-size="10.00">RegisterPhoneUIController.OnVerificationFailed</text>
</a>
</g>
</g>
<!-- Node1&#45;&gt;Node10 -->
<g id="edge16" class="edge">
<title>Node1&#45;&gt;Node10</title>
<path fill="none" stroke="midnightblue" d="M84.7,-247.28C99.77,-224.59 140.77,-168.15 191,-143 302.12,-87.37 344.02,-113.46 468,-105 551.36,-99.31 575.68,-81.98 656,-105 715.94,-122.18 775.24,-167.92 804.2,-192.62"/>
<polygon fill="midnightblue" stroke="midnightblue" points="802.02,-195.36 811.87,-199.28 806.61,-190.08 802.02,-195.36"/>
</g>
<!-- Node11 -->
<g id="node11" class="node">
<title>Node11</title>
<g id="a_node11"><a xlink:href="class_register_phone_u_i_controller.html#a41d4c768e35a4edf1db44a1807e179b5" target="_top" xlink:title="Envia el código SMS al teléfono introducido">
<polygon fill="white" stroke="black" points="222,-38.5 222,-57.5 401,-57.5 401,-38.5 222,-38.5"/>
<text text-anchor="middle" x="311.5" y="-45.5" font-family="Helvetica,sans-Serif" font-size="10.00">RegisterPhoneUIController.SendCode</text>
</a>
</g>
</g>
<!-- Node1&#45;&gt;Node11 -->
<g id="edge17" class="edge">
<title>Node1&#45;&gt;Node11</title>
<path fill="none" stroke="midnightblue" d="M81.27,-247.42C90.77,-216.43 125.13,-118.17 191,-72 197.59,-67.38 204.86,-63.6 212.46,-60.52"/>
<polygon fill="midnightblue" stroke="midnightblue" points="213.68,-63.8 221.88,-57.1 211.28,-57.23 213.68,-63.8"/>
</g>
<!-- Node15 -->
<g id="node15" class="node">
<title>Node15</title>
<g id="a_node15"><a xlink:href="class_register_phone_u_i_controller.html#a55f0c364a3d7f1920df9790b7c63da7c" target="_top" xlink:title="Verifica el teléfono introducido con el código SMS introducido">
<polygon fill="white" stroke="black" points="218.5,-152.5 218.5,-171.5 404.5,-171.5 404.5,-152.5 218.5,-152.5"/>
<text text-anchor="middle" x="311.5" y="-159.5" font-family="Helvetica,sans-Serif" font-size="10.00">RegisterPhoneUIController.VerifyPhone</text>
</a>
</g>
</g>
<!-- Node1&#45;&gt;Node15 -->
<g id="edge23" class="edge">
<title>Node1&#45;&gt;Node15</title>
<path fill="none" stroke="midnightblue" d="M90.51,-247.31C110.24,-231.88 151.33,-201.87 191,-186 203.65,-180.94 217.49,-176.91 231.13,-173.7"/>
<polygon fill="midnightblue" stroke="midnightblue" points="232,-177.1 241,-171.52 230.48,-170.26 232,-177.1"/>
</g>
<!-- Node7 -->
<g id="node7" class="node">
<title>Node7</title>
<g id="a_node7"><a xlink:href="class_android_utils.html#af3ddee265b4dfc672eddae5699c8fb2b" target="_top" xlink:title=" ">
<polygon fill="white" stroke="black" points="1002.5,-199.5 1002.5,-218.5 1122.5,-218.5 1122.5,-199.5 1002.5,-199.5"/>
<text text-anchor="middle" x="1062.5" y="-206.5" font-family="Helvetica,sans-Serif" font-size="10.00">AndroidUtils.ShowToast</text>
</a>
</g>
</g>
<!-- Node6&#45;&gt;Node7 -->
<g id="edge6" class="edge">
<title>Node6&#45;&gt;Node7</title>
<path fill="none" stroke="midnightblue" d="M918.06,-342.59C930.95,-339.1 943.65,-334.37 955,-328 998.72,-303.47 1033.8,-254.24 1050.65,-227.42"/>
<polygon fill="midnightblue" stroke="midnightblue" points="1053.78,-229.01 1056.01,-218.65 1047.81,-225.36 1053.78,-229.01"/>
</g>
<!-- Node8&#45;&gt;Node4 -->
<g id="edge8" class="edge">
<title>Node8&#45;&gt;Node4</title>
<path fill="none" stroke="midnightblue" d="M374.89,-266.46C409.45,-261.17 452.58,-254.58 488.62,-249.07"/>
<polygon fill="midnightblue" stroke="midnightblue" points="489.23,-252.52 498.59,-247.54 488.17,-245.6 489.23,-252.52"/>
</g>
<!-- Node8&#45;&gt;Node7 -->
<g id="edge9" class="edge">
<title>Node8&#45;&gt;Node7</title>
<path fill="none" stroke="midnightblue" d="M359.18,-285.55C467.25,-305.62 741.65,-344.93 955,-276 988.65,-265.13 1022.33,-241.22 1042.54,-225.1"/>
<polygon fill="midnightblue" stroke="midnightblue" points="1044.81,-227.77 1050.34,-218.74 1040.38,-222.35 1044.81,-227.77"/>
</g>
<!-- Node8&#45;&gt;Node9 -->
<g id="edge10" class="edge">
<title>Node8&#45;&gt;Node9</title>
<path fill="none" stroke="midnightblue" d="M432.02,-269.25C440.59,-269.24 449.2,-269.27 457.67,-269.34"/>
<polygon fill="midnightblue" stroke="midnightblue" points="457.89,-272.84 467.92,-269.44 457.96,-265.84 457.89,-272.84"/>
</g>
<!-- Node9&#45;&gt;Node5 -->
<g id="edge11" class="edge">
<title>Node9&#45;&gt;Node5</title>
<path fill="none" stroke="midnightblue" d="M656.32,-269.17C664.87,-268.54 673.65,-267.9 682.5,-267.25"/>
<polygon fill="midnightblue" stroke="midnightblue" points="682.78,-270.74 692.5,-266.52 682.27,-263.76 682.78,-270.74"/>
</g>
<!-- Node9&#45;&gt;Node6 -->
<g id="edge12" class="edge">
<title>Node9&#45;&gt;Node6</title>
<path fill="none" stroke="midnightblue" d="M595.6,-285.55C642.31,-299.23 728.32,-324.42 779.97,-339.55"/>
<polygon fill="midnightblue" stroke="midnightblue" points="779.25,-342.98 789.83,-342.43 781.21,-336.26 779.25,-342.98"/>
</g>
<!-- Node9&#45;&gt;Node8 -->
<g id="edge13" class="edge">
<title>Node9&#45;&gt;Node8</title>
<path fill="none" stroke="midnightblue" d="M467.92,-282.56C459.5,-282.66 450.87,-282.73 442.2,-282.74"/>
<polygon fill="midnightblue" stroke="midnightblue" points="442.02,-279.24 432.02,-282.75 442.02,-286.24 442.02,-279.24"/>
</g>
<!-- Node9&#45;&gt;Node10 -->
<g id="edge14" class="edge">
<title>Node9&#45;&gt;Node10</title>
<path fill="none" stroke="midnightblue" d="M622.73,-266.42C633.94,-263.88 645.45,-260.77 656,-257 673.03,-250.91 675.02,-244.24 692,-238 711.75,-230.74 733.88,-224.99 754.23,-220.58"/>
<polygon fill="midnightblue" stroke="midnightblue" points="754.98,-224 764.05,-218.53 753.55,-217.15 754.98,-224"/>
</g>
<!-- Node10&#45;&gt;Node7 -->
<g id="edge15" class="edge">
<title>Node10&#45;&gt;Node7</title>
<path fill="none" stroke="midnightblue" d="M934.33,-209C954.06,-209 974.11,-209 992.28,-209"/>
<polygon fill="midnightblue" stroke="midnightblue" points="992.45,-212.5 1002.45,-209 992.45,-205.5 992.45,-212.5"/>
</g>
<!-- Node11&#45;&gt;Node7 -->
<g id="edge21" class="edge">
<title>Node11&#45;&gt;Node7</title>
<path fill="none" stroke="midnightblue" d="M401.24,-55.32C470.89,-61.85 570.11,-72.89 656,-89 790.87,-114.3 824.65,-123.11 955,-166 981,-174.55 1009.73,-186.3 1030.8,-195.35"/>
<polygon fill="midnightblue" stroke="midnightblue" points="1029.62,-198.65 1040.19,-199.43 1032.41,-192.23 1029.62,-198.65"/>
</g>
<!-- Node12 -->
<g id="node12" class="node">
<title>Node12</title>
<g id="a_node12"><a xlink:href="class_user_manager.html#a9701a3e6255dc1e9921415aa42cccf6d" target="_top" xlink:title="Envia el código SMS de verificación y lanza los posibles eventos">
<polygon fill="white" stroke="black" points="477,-0.5 477,-19.5 647,-19.5 647,-0.5 477,-0.5"/>
<text text-anchor="middle" x="562" y="-7.5" font-family="Helvetica,sans-Serif" font-size="10.00">UserManager.SendVerificationCode</text>
</a>
</g>
</g>
<!-- Node11&#45;&gt;Node12 -->
<g id="edge18" class="edge">
<title>Node11&#45;&gt;Node12</title>
<path fill="none" stroke="midnightblue" d="M374.89,-38.46C409.45,-33.17 452.58,-26.58 488.62,-21.07"/>
<polygon fill="midnightblue" stroke="midnightblue" points="489.23,-24.52 498.59,-19.54 488.17,-17.6 489.23,-24.52"/>
</g>
<!-- Node13 -->
<g id="node13" class="node">
<title>Node13</title>
<g id="a_node13"><a xlink:href="class_user_manager.html#a8473c8b09bc25b4ee3ccc8ad934f1a4d" target="_top" xlink:title="Verifica el número de teléfono con un objeto de credenciales">
<polygon fill="white" stroke="black" points="737,-0.5 737,-19.5 910,-19.5 910,-0.5 737,-0.5"/>
<text text-anchor="middle" x="823.5" y="-7.5" font-family="Helvetica,sans-Serif" font-size="10.00">UserManager.VerifyPhoneCredential</text>
</a>
</g>
</g>
<!-- Node12&#45;&gt;Node13 -->
<g id="edge19" class="edge">
<title>Node12&#45;&gt;Node13</title>
<path fill="none" stroke="midnightblue" d="M647.25,-10C672.6,-10 700.6,-10 726.64,-10"/>
<polygon fill="midnightblue" stroke="midnightblue" points="726.89,-13.5 736.89,-10 726.89,-6.5 726.89,-13.5"/>
</g>
<!-- Node14 -->
<g id="node14" class="node">
<title>Node14</title>
<g id="a_node14"><a xlink:href="class_database_manager.html#ae84a345ac51bb80ebf7fda88043ef499" target="_top" xlink:title="Establece el userID de un usuario">
<polygon fill="white" stroke="black" points="991,-0.5 991,-19.5 1134,-19.5 1134,-0.5 991,-0.5"/>
<text text-anchor="middle" x="1062.5" y="-7.5" font-family="Helvetica,sans-Serif" font-size="10.00">DatabaseManager.SetUserID</text>
</a>
</g>
</g>
<!-- Node13&#45;&gt;Node14 -->
<g id="edge20" class="edge">
<title>Node13&#45;&gt;Node14</title>
<path fill="none" stroke="midnightblue" d="M910.06,-10C933.06,-10 957.85,-10 980.59,-10"/>
<polygon fill="midnightblue" stroke="midnightblue" points="980.87,-13.5 990.87,-10 980.87,-6.5 980.87,-13.5"/>
</g>
<!-- Node15&#45;&gt;Node4 -->
<g id="edge24" class="edge">
<title>Node15&#45;&gt;Node4</title>
<path fill="none" stroke="midnightblue" d="M343.72,-171.55C388.36,-185.2 470.47,-210.31 519.97,-225.45"/>
<polygon fill="midnightblue" stroke="midnightblue" points="519.12,-228.85 529.71,-228.43 521.17,-222.16 519.12,-228.85"/>
</g>
<!-- Node15&#45;&gt;Node7 -->
<g id="edge25" class="edge">
<title>Node15&#45;&gt;Node7</title>
<path fill="none" stroke="midnightblue" d="M404.56,-162.17C529.57,-163.28 759.82,-168.43 955,-190 971.62,-191.84 989.56,-194.69 1005.89,-197.64"/>
<polygon fill="midnightblue" stroke="midnightblue" points="1005.36,-201.1 1015.82,-199.48 1006.63,-194.22 1005.36,-201.1"/>
</g>
<!-- Node15&#45;&gt;Node9 -->
<g id="edge26" class="edge">
<title>Node15&#45;&gt;Node9</title>
<path fill="none" stroke="midnightblue" d="M325,-171.76C350.42,-191.11 410.6,-234.41 468,-257 474.75,-259.66 481.92,-261.96 489.18,-263.95"/>
<polygon fill="midnightblue" stroke="midnightblue" points="488.54,-267.4 499.09,-266.49 490.27,-260.62 488.54,-267.4"/>
</g>
<!-- Node16 -->
<g id="node16" class="node">
<title>Node16</title>
<g id="a_node16"><a xlink:href="class_user_manager.html#ac1d99d0f5e70010dee110ba670f659b6" target="_top" xlink:title="Verifica el número de teléfono con el código SMS de verificación">
<polygon fill="white" stroke="black" points="497,-114.5 497,-133.5 627,-133.5 627,-114.5 497,-114.5"/>
<text text-anchor="middle" x="562" y="-121.5" font-family="Helvetica,sans-Serif" font-size="10.00">UserManager.VerifyPhone</text>
</a>
</g>
</g>
<!-- Node15&#45;&gt;Node16 -->
<g id="edge27" class="edge">
<title>Node15&#45;&gt;Node16</title>
<path fill="none" stroke="midnightblue" d="M374.89,-152.46C409.45,-147.17 452.58,-140.58 488.62,-135.07"/>
<polygon fill="midnightblue" stroke="midnightblue" points="489.23,-138.52 498.59,-133.54 488.17,-131.6 489.23,-138.52"/>
</g>
<!-- Node16&#45;&gt;Node13 -->
<g id="edge28" class="edge">
<title>Node16&#45;&gt;Node13</title>
<path fill="none" stroke="midnightblue" d="M584.68,-114.48C630.66,-94.28 738.12,-47.07 791.41,-23.66"/>
<polygon fill="midnightblue" stroke="midnightblue" points="792.95,-26.8 800.7,-19.58 790.14,-20.39 792.95,-26.8"/>
</g>
</g>
</svg>
