<?xml version="1.0" encoding="UTF-8" standalone="no"?>
<!DOCTYPE svg PUBLIC "-//W3C//DTD SVG 1.1//EN"
 "http://www.w3.org/Graphics/SVG/1.1/DTD/svg11.dtd">
<!-- Generated by graphviz version 2.49.0 (20210828.1703)
 -->
<!-- Title: RegisterPhoneUIController.IsValidCodeInput Pages: 1 -->
<svg width="414pt" height="66pt"
 viewBox="0.00 0.00 414.00 66.00" xmlns="http://www.w3.org/2000/svg" xmlns:xlink="http://www.w3.org/1999/xlink">
<g id="graph0" class="graph" transform="scale(1 1) rotate(0) translate(4 62)">
<title>RegisterPhoneUIController.IsValidCodeInput</title>
<polygon fill="white" stroke="transparent" points="-4,4 -4,-62 410,-62 410,4 -4,4"/>
<!-- Node1 -->
<g id="node1" class="node">
<title>Node1</title>
<g id="a_node1"><a xlink:title="Evalua si el código SMS introducido es válido">
<polygon fill="#bfbfbf" stroke="black" points="200,-19.5 200,-38.5 406,-38.5 406,-19.5 200,-19.5"/>
<text text-anchor="middle" x="303" y="-26.5" font-family="Helvetica,sans-Serif" font-size="10.00">RegisterPhoneUIController.IsValidCodeInput</text>
</a>
</g>
</g>
<!-- Node2 -->
<g id="node2" class="node">
<title>Node2</title>
<g id="a_node2"><a xlink:href="class_register_phone_u_i_controller.html#abecd41c11aa752bec550978e4a58d2a1" target="_top" xlink:title="Llamada justo antes del primer fotograma">
<polygon fill="white" stroke="black" points="4.5,-38.5 4.5,-57.5 159.5,-57.5 159.5,-38.5 4.5,-38.5"/>
<text text-anchor="middle" x="82" y="-45.5" font-family="Helvetica,sans-Serif" font-size="10.00">RegisterPhoneUIController.Start</text>
</a>
</g>
</g>
<!-- Node1&#45;&gt;Node2 -->
<g id="edge1" class="edge">
<title>Node1&#45;&gt;Node2</title>
<path fill="none" stroke="midnightblue" d="M189.74,-38.74C179.6,-39.62 169.5,-40.5 159.77,-41.34"/>
<polygon fill="midnightblue" stroke="midnightblue" points="190.21,-42.21 199.87,-37.86 189.61,-35.24 190.21,-42.21"/>
</g>
<!-- Node3 -->
<g id="node3" class="node">
<title>Node3</title>
<g id="a_node3"><a xlink:href="class_register_phone_u_i_controller.html#ab499207a8d2931f64b431941aec540c2" target="_top" xlink:title="Llamada al comienzo de cada fotograma">
<polygon fill="white" stroke="black" points="0,-0.5 0,-19.5 164,-19.5 164,-0.5 0,-0.5"/>
<text text-anchor="middle" x="82" y="-7.5" font-family="Helvetica,sans-Serif" font-size="10.00">RegisterPhoneUIController.Update</text>
</a>
</g>
</g>
<!-- Node1&#45;&gt;Node3 -->
<g id="edge2" class="edge">
<title>Node1&#45;&gt;Node3</title>
<path fill="none" stroke="midnightblue" d="M189.79,-19.26C181.2,-18.52 172.63,-17.78 164.3,-17.05"/>
<polygon fill="midnightblue" stroke="midnightblue" points="189.61,-22.76 199.87,-20.14 190.21,-15.79 189.61,-22.76"/>
</g>
</g>
</svg>
