<?xml version="1.0" encoding="UTF-8" standalone="no"?>
<!DOCTYPE svg PUBLIC "-//W3C//DTD SVG 1.1//EN"
 "http://www.w3.org/Graphics/SVG/1.1/DTD/svg11.dtd">
<!-- Generated by graphviz version 2.49.0 (20210828.1703)
 -->
<!-- Title: DatabaseManager.ReadyUser Pages: 1 -->
<svg width="615pt" height="85pt"
 viewBox="0.00 0.00 615.00 85.00" xmlns="http://www.w3.org/2000/svg" xmlns:xlink="http://www.w3.org/1999/xlink">
<g id="graph0" class="graph" transform="scale(1 1) rotate(0) translate(4 81)">
<title>DatabaseManager.ReadyUser</title>
<polygon fill="white" stroke="transparent" points="-4,4 -4,-81 611,-81 611,4 -4,4"/>
<!-- Node1 -->
<g id="node1" class="node">
<title>Node1</title>
<g id="a_node1"><a xlink:title="Señaliza en base de datos que un par esta listo para la conexión">
<polygon fill="#bfbfbf" stroke="black" points="461,-19.5 461,-38.5 607,-38.5 607,-19.5 461,-19.5"/>
<text text-anchor="middle" x="534" y="-26.5" font-family="Helvetica,sans-Serif" font-size="10.00">DatabaseManager.ReadyUser</text>
</a>
</g>
</g>
<!-- Node2 -->
<g id="node2" class="node">
<title>Node2</title>
<g id="a_node2"><a xlink:href="class_peer_connection_manager.html#a77481735fed0e6e7c602e8a2bea821d4" target="_top" xlink:title="Señaliza que el par esta listo para la conexión">
<polygon fill="white" stroke="black" points="251,-38.5 251,-57.5 425,-57.5 425,-38.5 251,-38.5"/>
<text text-anchor="middle" x="338" y="-45.5" font-family="Helvetica,sans-Serif" font-size="10.00">PeerConnectionManager.ReadyUser</text>
</a>
</g>
</g>
<!-- Node1&#45;&gt;Node2 -->
<g id="edge1" class="edge">
<title>Node1&#45;&gt;Node2</title>
<path fill="none" stroke="midnightblue" d="M450.56,-37.07C442.12,-37.9 433.54,-38.74 425.06,-39.57"/>
<polygon fill="midnightblue" stroke="midnightblue" points="451.15,-40.53 460.76,-36.07 450.47,-33.57 451.15,-40.53"/>
</g>
<!-- Node5 -->
<g id="node5" class="node">
<title>Node5</title>
<g id="a_node5"><a xlink:href="class_peer_connection_manager.html#a058148001392c4d6106cc784ec477256" target="_top" xlink:title="Llamada justo antes del primer fotograma">
<polygon fill="white" stroke="black" points="264.5,-0.5 264.5,-19.5 411.5,-19.5 411.5,-0.5 264.5,-0.5"/>
<text text-anchor="middle" x="338" y="-7.5" font-family="Helvetica,sans-Serif" font-size="10.00">PeerConnectionManager.Start</text>
</a>
</g>
</g>
<!-- Node1&#45;&gt;Node5 -->
<g id="edge4" class="edge">
<title>Node1&#45;&gt;Node5</title>
<path fill="none" stroke="midnightblue" d="M450.49,-20.92C437.57,-19.65 424.3,-18.35 411.62,-17.11"/>
<polygon fill="midnightblue" stroke="midnightblue" points="450.47,-24.43 460.76,-21.93 451.15,-17.47 450.47,-24.43"/>
</g>
<!-- Node3 -->
<g id="node3" class="node">
<title>Node3</title>
<g id="a_node3"><a xlink:href="class_peer_connection_manager.html#a32e1f598ed2e0f51ded5bdee39c8c18c" target="_top" xlink:title="Llamada cuando el estado de efonque de la aplicación cambia">
<polygon fill="white" stroke="black" points="0.5,-57.5 0.5,-76.5 214.5,-76.5 214.5,-57.5 0.5,-57.5"/>
<text text-anchor="middle" x="107.5" y="-64.5" font-family="Helvetica,sans-Serif" font-size="10.00">PeerConnectionManager.OnApplicationFocus</text>
</a>
</g>
</g>
<!-- Node2&#45;&gt;Node3 -->
<g id="edge2" class="edge">
<title>Node2&#45;&gt;Node3</title>
<path fill="none" stroke="midnightblue" d="M240.82,-56C232.12,-56.72 223.29,-57.46 214.52,-58.18"/>
<polygon fill="midnightblue" stroke="midnightblue" points="241.26,-59.47 250.94,-55.16 240.68,-52.5 241.26,-59.47"/>
</g>
<!-- Node4 -->
<g id="node4" class="node">
<title>Node4</title>
<g id="a_node4"><a xlink:href="class_peer_connection_manager.html#a963a5f07932166a3233b9087fc2b0a81" target="_top" xlink:title="Llamada cuando el estado de pausa de la aplicación cambia">
<polygon fill="white" stroke="black" points="0,-19.5 0,-38.5 215,-38.5 215,-19.5 0,-19.5"/>
<text text-anchor="middle" x="107.5" y="-26.5" font-family="Helvetica,sans-Serif" font-size="10.00">PeerConnectionManager.OnApplicationPause</text>
</a>
</g>
</g>
<!-- Node2&#45;&gt;Node4 -->
<g id="edge3" class="edge">
<title>Node2&#45;&gt;Node4</title>
<path fill="none" stroke="midnightblue" d="M240.75,-40C232.34,-39.3 223.79,-38.59 215.3,-37.88"/>
<polygon fill="midnightblue" stroke="midnightblue" points="240.68,-43.5 250.94,-40.84 241.26,-36.53 240.68,-43.5"/>
</g>
</g>
</svg>
