<?xml version="1.0" encoding="UTF-8" standalone="no"?>
<!DOCTYPE svg PUBLIC "-//W3C//DTD SVG 1.1//EN"
 "http://www.w3.org/Graphics/SVG/1.1/DTD/svg11.dtd">
<!-- Generated by graphviz version 2.49.0 (20210828.1703)
 -->
<!-- Title: DynamicLinksInit.Start Pages: 1 -->
<svg width="680pt" height="85pt"
 viewBox="0.00 0.00 680.00 85.00" xmlns="http://www.w3.org/2000/svg" xmlns:xlink="http://www.w3.org/1999/xlink">
<g id="graph0" class="graph" transform="scale(1 1) rotate(0) translate(4 81)">
<title>DynamicLinksInit.Start</title>
<polygon fill="white" stroke="transparent" points="-4,4 -4,-81 676,-81 676,4 -4,4"/>
<!-- Node1 -->
<g id="node1" class="node">
<title>Node1</title>
<g id="a_node1"><a xlink:title="Llamada justo antes del primer fotograma">
<polygon fill="#bfbfbf" stroke="black" points="0,-19.5 0,-38.5 115,-38.5 115,-19.5 0,-19.5"/>
<text text-anchor="middle" x="57.5" y="-26.5" font-family="Helvetica,sans-Serif" font-size="10.00">DynamicLinksInit.Start</text>
</a>
</g>
</g>
<!-- Node2 -->
<g id="node2" class="node">
<title>Node2</title>
<g id="a_node2"><a xlink:href="class_dynamic_links_init.html#a53989c4e1c0a81ca03fefc118b7191f2" target="_top" xlink:title="Lanzada cuando se recibe un enlace dinámico">
<polygon fill="white" stroke="black" points="151,-19.5 151,-38.5 314,-38.5 314,-19.5 151,-19.5"/>
<text text-anchor="middle" x="232.5" y="-26.5" font-family="Helvetica,sans-Serif" font-size="10.00">DynamicLinksInit.OnDynamicLink</text>
</a>
</g>
</g>
<!-- Node1&#45;&gt;Node2 -->
<g id="edge1" class="edge">
<title>Node1&#45;&gt;Node2</title>
<path fill="none" stroke="midnightblue" d="M115.15,-29C123.36,-29 131.99,-29 140.67,-29"/>
<polygon fill="midnightblue" stroke="midnightblue" points="140.87,-32.5 150.87,-29 140.87,-25.5 140.87,-32.5"/>
</g>
<!-- Node3 -->
<g id="node3" class="node">
<title>Node3</title>
<g id="a_node3"><a xlink:href="class_room_manager.html#a022ae9cafc8dedb55ca839e0d99c5b44" target="_top" xlink:title="Mueve un par a una sala">
<polygon fill="white" stroke="black" points="350,-38.5 350,-57.5 475,-57.5 475,-38.5 350,-38.5"/>
<text text-anchor="middle" x="412.5" y="-45.5" font-family="Helvetica,sans-Serif" font-size="10.00">RoomManager.JoinRoom</text>
</a>
</g>
</g>
<!-- Node2&#45;&gt;Node3 -->
<g id="edge2" class="edge">
<title>Node2&#45;&gt;Node3</title>
<path fill="none" stroke="midnightblue" d="M314.17,-37.61C322.67,-38.52 331.27,-39.44 339.66,-40.33"/>
<polygon fill="midnightblue" stroke="midnightblue" points="339.46,-43.83 349.77,-41.41 340.2,-36.87 339.46,-43.83"/>
</g>
<!-- Node6 -->
<g id="node6" class="node">
<title>Node6</title>
<g id="a_node6"><a xlink:href="class_android_utils.html#af3ddee265b4dfc672eddae5699c8fb2b" target="_top" xlink:title=" ">
<polygon fill="white" stroke="black" points="352.5,-0.5 352.5,-19.5 472.5,-19.5 472.5,-0.5 352.5,-0.5"/>
<text text-anchor="middle" x="412.5" y="-7.5" font-family="Helvetica,sans-Serif" font-size="10.00">AndroidUtils.ShowToast</text>
</a>
</g>
</g>
<!-- Node2&#45;&gt;Node6 -->
<g id="edge5" class="edge">
<title>Node2&#45;&gt;Node6</title>
<path fill="none" stroke="midnightblue" d="M314.17,-20.39C323.52,-19.39 333,-18.38 342.19,-17.4"/>
<polygon fill="midnightblue" stroke="midnightblue" points="342.84,-20.85 352.41,-16.31 342.1,-13.89 342.84,-20.85"/>
</g>
<!-- Node4 -->
<g id="node4" class="node">
<title>Node4</title>
<g id="a_node4"><a xlink:href="class_my_scene_manager.html#a6787f49b73d5e0c4e80fd67d38f5550a" target="_top" xlink:title="Carga la escena seleccionada">
<polygon fill="white" stroke="black" points="518,-57.5 518,-76.5 665,-76.5 665,-57.5 518,-57.5"/>
<text text-anchor="middle" x="591.5" y="-64.5" font-family="Helvetica,sans-Serif" font-size="10.00">MySceneManager.LoadScene</text>
</a>
</g>
</g>
<!-- Node3&#45;&gt;Node4 -->
<g id="edge3" class="edge">
<title>Node3&#45;&gt;Node4</title>
<path fill="none" stroke="midnightblue" d="M475.41,-54.65C485.86,-55.77 496.87,-56.95 507.75,-58.12"/>
<polygon fill="midnightblue" stroke="midnightblue" points="507.38,-61.6 517.7,-59.19 508.13,-54.64 507.38,-61.6"/>
</g>
<!-- Node5 -->
<g id="node5" class="node">
<title>Node5</title>
<g id="a_node5"><a xlink:href="class_database_manager.html#a26b78f4ef7989b67f825194863df0357" target="_top" xlink:title="Evalua si un código de sala existe en base de datos">
<polygon fill="white" stroke="black" points="511,-19.5 511,-38.5 672,-38.5 672,-19.5 511,-19.5"/>
<text text-anchor="middle" x="591.5" y="-26.5" font-family="Helvetica,sans-Serif" font-size="10.00">DatabaseManager.RoomIDExists</text>
</a>
</g>
</g>
<!-- Node3&#45;&gt;Node5 -->
<g id="edge4" class="edge">
<title>Node3&#45;&gt;Node5</title>
<path fill="none" stroke="midnightblue" d="M475.41,-41.35C483.65,-40.47 492.23,-39.55 500.82,-38.63"/>
<polygon fill="midnightblue" stroke="midnightblue" points="501.33,-42.09 510.9,-37.55 500.58,-35.13 501.33,-42.09"/>
</g>
</g>
</svg>
