<?xml version="1.0" encoding="UTF-8" standalone="no"?>
<!DOCTYPE svg PUBLIC "-//W3C//DTD SVG 1.1//EN"
 "http://www.w3.org/Graphics/SVG/1.1/DTD/svg11.dtd">
<!-- Generated by graphviz version 2.49.0 (20210828.1703)
 -->
<!-- Title: MySceneManager.LoadScene Pages: 1 -->
<svg width="1117pt" height="540pt"
 viewBox="0.00 0.00 1117.00 540.00" xmlns="http://www.w3.org/2000/svg" xmlns:xlink="http://www.w3.org/1999/xlink">
<g id="graph0" class="graph" transform="scale(1 1) rotate(0) translate(4 536)">
<title>MySceneManager.LoadScene</title>
<polygon fill="white" stroke="transparent" points="-4,4 -4,-536 1113,-536 1113,4 -4,4"/>
<!-- Node1 -->
<g id="node1" class="node">
<title>Node1</title>
<g id="a_node1"><a xlink:title="Carga la escena seleccionada">
<polygon fill="#bfbfbf" stroke="black" points="962,-152.5 962,-171.5 1109,-171.5 1109,-152.5 962,-152.5"/>
<text text-anchor="middle" x="1035.5" y="-159.5" font-family="Helvetica,sans-Serif" font-size="10.00">MySceneManager.LoadScene</text>
</a>
</g>
</g>
<!-- Node2 -->
<g id="node2" class="node">
<title>Node2</title>
<g id="a_node2"><a xlink:href="class_peer_connection_manager.html#ac4577b58d566fb35458448f45920978f" target="_top" xlink:title="Cuelga la videollamada">
<polygon fill="white" stroke="black" points="725,-474.5 725,-493.5 886,-493.5 886,-474.5 725,-474.5"/>
<text text-anchor="middle" x="805.5" y="-481.5" font-family="Helvetica,sans-Serif" font-size="10.00">PeerConnectionManager.HangUp</text>
</a>
</g>
</g>
<!-- Node1&#45;&gt;Node2 -->
<g id="edge1" class="edge">
<title>Node1&#45;&gt;Node2</title>
<path fill="none" stroke="midnightblue" d="M1027.06,-181.28C1011.71,-219.68 973.92,-307.45 926,-371 893.16,-414.54 842.81,-456.01 819.35,-474.27"/>
<polygon fill="midnightblue" stroke="midnightblue" points="1030.38,-182.41 1030.78,-171.82 1023.86,-179.85 1030.38,-182.41"/>
</g>
<!-- Node6 -->
<g id="node6" class="node">
<title>Node6</title>
<g id="a_node6"><a xlink:href="class_room_manager.html#a022ae9cafc8dedb55ca839e0d99c5b44" target="_top" xlink:title="Mueve un par a una sala">
<polygon fill="white" stroke="black" points="743,-342.5 743,-361.5 868,-361.5 868,-342.5 743,-342.5"/>
<text text-anchor="middle" x="805.5" y="-349.5" font-family="Helvetica,sans-Serif" font-size="10.00">RoomManager.JoinRoom</text>
</a>
</g>
</g>
<!-- Node1&#45;&gt;Node6 -->
<g id="edge5" class="edge">
<title>Node1&#45;&gt;Node6</title>
<path fill="none" stroke="midnightblue" d="M1021.72,-179.99C1002.9,-205.59 965.65,-252.97 926,-285 895.1,-309.96 853.66,-330.87 828.58,-342.39"/>
<polygon fill="midnightblue" stroke="midnightblue" points="1024.76,-181.76 1027.79,-171.61 1019.09,-177.66 1024.76,-181.76"/>
</g>
<!-- Node18 -->
<g id="node18" class="node">
<title>Node18</title>
<g id="a_node18"><a xlink:href="class_audio_manager.html#a04d68ba5cdcccb8add793ae79563c2bf" target="_top" xlink:title="Lanzada cuando se deniegan los permisos de audio y se indica que no se soliciten otra vez">
<polygon fill="white" stroke="black" points="691.5,-245 691.5,-275 919.5,-275 919.5,-245 691.5,-245"/>
<text text-anchor="start" x="699.5" y="-263" font-family="Helvetica,sans-Serif" font-size="10.00">AudioManager.MicrophonePermissionDeniedAnd</text>
<text text-anchor="middle" x="805.5" y="-252" font-family="Helvetica,sans-Serif" font-size="10.00">DontAskAgain</text>
</a>
</g>
</g>
<!-- Node1&#45;&gt;Node18 -->
<g id="edge18" class="edge">
<title>Node1&#45;&gt;Node18</title>
<path fill="none" stroke="midnightblue" d="M1009.1,-176.77C987.45,-189 955.27,-206.38 926,-219 903.44,-228.73 877.75,-237.79 855.98,-244.91"/>
<polygon fill="midnightblue" stroke="midnightblue" points="1011.02,-179.7 1017.98,-171.7 1007.56,-173.62 1011.02,-179.7"/>
</g>
<!-- Node20 -->
<g id="node20" class="node">
<title>Node20</title>
<g id="a_node20"><a xlink:href="class_app_entry_point.html#a31fdab16b3f5f842587ae877d564b041" target="_top" xlink:title="Lanzado cuando Firebase esta inicializado">
<polygon fill="white" stroke="black" points="725,-190.5 725,-209.5 886,-209.5 886,-190.5 725,-190.5"/>
<text text-anchor="middle" x="805.5" y="-197.5" font-family="Helvetica,sans-Serif" font-size="10.00">AppEntryPoint.OnFirebaseReady</text>
</a>
</g>
</g>
<!-- Node1&#45;&gt;Node20 -->
<g id="edge20" class="edge">
<title>Node1&#45;&gt;Node20</title>
<path fill="none" stroke="midnightblue" d="M967.27,-173.2C934.38,-178.69 895.21,-185.22 863.76,-190.46"/>
<polygon fill="midnightblue" stroke="midnightblue" points="967.97,-176.64 977.26,-171.54 966.82,-169.73 967.97,-176.64"/>
</g>
<!-- Node23 -->
<g id="node23" class="node">
<title>Node23</title>
<g id="a_node23"><a xlink:href="class_register_phone_u_i_controller.html#aa85933669dcb72558a71039eba32d88d" target="_top" xlink:title="Llamada cuando se completa la verificación">
<polygon fill="white" stroke="black" points="685,-76.5 685,-95.5 926,-95.5 926,-76.5 685,-76.5"/>
<text text-anchor="middle" x="805.5" y="-83.5" font-family="Helvetica,sans-Serif" font-size="10.00">RegisterPhoneUIController.OnVerificationCompleted</text>
</a>
</g>
</g>
<!-- Node1&#45;&gt;Node23 -->
<g id="edge23" class="edge">
<title>Node1&#45;&gt;Node23</title>
<path fill="none" stroke="midnightblue" d="M1008.93,-147.5C987.41,-135.85 955.51,-119.86 926,-110 907.84,-103.93 887.58,-99.15 868.98,-95.51"/>
<polygon fill="midnightblue" stroke="midnightblue" points="1007.31,-150.61 1017.76,-152.35 1010.68,-144.47 1007.31,-150.61"/>
</g>
<!-- Node24 -->
<g id="node24" class="node">
<title>Node24</title>
<g id="a_node24"><a xlink:href="class_register_phone_u_i_controller.html#abecd41c11aa752bec550978e4a58d2a1" target="_top" xlink:title="Llamada justo antes del primer fotograma">
<polygon fill="white" stroke="black" points="0,-95.5 0,-114.5 155,-114.5 155,-95.5 0,-95.5"/>
<text text-anchor="middle" x="77.5" y="-102.5" font-family="Helvetica,sans-Serif" font-size="10.00">RegisterPhoneUIController.Start</text>
</a>
</g>
</g>
<!-- Node1&#45;&gt;Node24 -->
<g id="edge33" class="edge">
<title>Node1&#45;&gt;Node24</title>
<path fill="none" stroke="midnightblue" d="M951.65,-168.36C799.56,-178.23 466.17,-191.41 191,-143 158.51,-137.29 122.69,-123.87 100.39,-114.61"/>
<polygon fill="midnightblue" stroke="midnightblue" points="952.1,-171.84 961.85,-167.69 951.64,-164.86 952.1,-171.84"/>
</g>
<!-- Node26 -->
<g id="node26" class="node">
<title>Node26</title>
<g id="a_node26"><a xlink:href="class_register_phone_u_i_controller.html#a55f0c364a3d7f1920df9790b7c63da7c" target="_top" xlink:title="Verifica el teléfono introducido con el código SMS introducido">
<polygon fill="white" stroke="black" points="215,-114.5 215,-133.5 401,-133.5 401,-114.5 215,-114.5"/>
<text text-anchor="middle" x="308" y="-121.5" font-family="Helvetica,sans-Serif" font-size="10.00">RegisterPhoneUIController.VerifyPhone</text>
</a>
</g>
</g>
<!-- Node1&#45;&gt;Node26 -->
<g id="edge34" class="edge">
<title>Node1&#45;&gt;Node26</title>
<path fill="none" stroke="midnightblue" d="M957.87,-151.24C947.18,-150 936.33,-148.87 926,-148 740.13,-132.42 521.89,-126.93 401.15,-125.02"/>
<polygon fill="midnightblue" stroke="midnightblue" points="957.69,-154.75 968.04,-152.47 958.53,-147.8 957.69,-154.75"/>
</g>
<!-- Node27 -->
<g id="node27" class="node">
<title>Node27</title>
<g id="a_node27"><a xlink:href="class_register_name_u_i_controller.html#afc29ac5c585c83664552ce4d7e228e04" target="_top" xlink:title="Registra el nombre introducido del usuario actual">
<polygon fill="white" stroke="black" points="709,-38.5 709,-57.5 902,-57.5 902,-38.5 709,-38.5"/>
<text text-anchor="middle" x="805.5" y="-45.5" font-family="Helvetica,sans-Serif" font-size="10.00">RegisterNameUIController.RegisterName</text>
</a>
</g>
</g>
<!-- Node1&#45;&gt;Node27 -->
<g id="edge30" class="edge">
<title>Node1&#45;&gt;Node27</title>
<path fill="none" stroke="midnightblue" d="M1020.06,-144.33C1000.99,-122.32 965.22,-85.39 926,-67 917.73,-63.12 908.81,-60.01 899.72,-57.52"/>
<polygon fill="midnightblue" stroke="midnightblue" points="1017.61,-146.85 1026.74,-152.22 1022.95,-142.33 1017.61,-146.85"/>
</g>
<!-- Node29 -->
<g id="node29" class="node">
<title>Node29</title>
<g id="a_node29"><a xlink:href="class_main_u_i_controller.html#a0a5859a3d2f7c6ae487469bdbe76a7b2" target="_top" xlink:title="Llamada justo antes del primer fotograma">
<polygon fill="white" stroke="black" points="749.5,-0.5 749.5,-19.5 861.5,-19.5 861.5,-0.5 749.5,-0.5"/>
<text text-anchor="middle" x="805.5" y="-7.5" font-family="Helvetica,sans-Serif" font-size="10.00">MainUIController.Start</text>
</a>
</g>
</g>
<!-- Node1&#45;&gt;Node29 -->
<g id="edge32" class="edge">
<title>Node1&#45;&gt;Node29</title>
<path fill="none" stroke="midnightblue" d="M1025.14,-143.37C1009.2,-113.75 973.8,-56.5 926,-29 906.7,-17.9 882.89,-12.73 861.62,-10.49"/>
<polygon fill="midnightblue" stroke="midnightblue" points="1022.06,-145.02 1029.79,-152.26 1028.26,-141.78 1022.06,-145.02"/>
</g>
<!-- Node3 -->
<g id="node3" class="node">
<title>Node3</title>
<g id="a_node3"><a xlink:href="class_peer_connection_manager.html#a2b43b97a9280f9d5dd6dd4634009e566" target="_top" xlink:title="Llamada cuando la conexión se pierde">
<polygon fill="white" stroke="black" points="461,-512.5 461,-531.5 649,-531.5 649,-512.5 461,-512.5"/>
<text text-anchor="middle" x="555" y="-519.5" font-family="Helvetica,sans-Serif" font-size="10.00">PeerConnectionManager.OnDisconnect</text>
</a>
</g>
</g>
<!-- Node2&#45;&gt;Node3 -->
<g id="edge2" class="edge">
<title>Node2&#45;&gt;Node3</title>
<path fill="none" stroke="midnightblue" d="M732.15,-495.06C696.12,-500.57 652.98,-507.17 618.41,-512.46"/>
<polygon fill="midnightblue" stroke="midnightblue" points="732.76,-498.51 742.11,-493.54 731.7,-491.59 732.76,-498.51"/>
</g>
<!-- Node5 -->
<g id="node5" class="node">
<title>Node5</title>
<g id="a_node5"><a xlink:href="class_toolbar_u_i_controller.html#a7c36bd2332e575e710320a80023b93de" target="_top" xlink:title="Llamada justo antes del primer fotograma">
<polygon fill="white" stroke="black" points="494,-474.5 494,-493.5 616,-493.5 616,-474.5 494,-474.5"/>
<text text-anchor="middle" x="555" y="-481.5" font-family="Helvetica,sans-Serif" font-size="10.00">ToolbarUIController.Start</text>
</a>
</g>
</g>
<!-- Node2&#45;&gt;Node5 -->
<g id="edge4" class="edge">
<title>Node2&#45;&gt;Node5</title>
<path fill="none" stroke="midnightblue" d="M714.81,-484C682.08,-484 645.87,-484 616.3,-484"/>
<polygon fill="midnightblue" stroke="midnightblue" points="714.85,-487.5 724.85,-484 714.85,-480.5 714.85,-487.5"/>
</g>
<!-- Node4 -->
<g id="node4" class="node">
<title>Node4</title>
<g id="a_node4"><a xlink:href="class_peer_connection_manager.html#a058148001392c4d6106cc784ec477256" target="_top" xlink:title="Llamada justo antes del primer fotograma">
<polygon fill="white" stroke="black" points="234.5,-512.5 234.5,-531.5 381.5,-531.5 381.5,-512.5 234.5,-512.5"/>
<text text-anchor="middle" x="308" y="-519.5" font-family="Helvetica,sans-Serif" font-size="10.00">PeerConnectionManager.Start</text>
</a>
</g>
</g>
<!-- Node3&#45;&gt;Node4 -->
<g id="edge3" class="edge">
<title>Node3&#45;&gt;Node4</title>
<path fill="none" stroke="midnightblue" d="M450.5,-522C427.42,-522 403.42,-522 381.87,-522"/>
<polygon fill="midnightblue" stroke="midnightblue" points="450.68,-525.5 460.68,-522 450.68,-518.5 450.68,-525.5"/>
</g>
<!-- Node7 -->
<g id="node7" class="node">
<title>Node7</title>
<g id="a_node7"><a xlink:href="class_one_signal_init.html#afac945779fdf4efc92743adb600c2862" target="_top" xlink:title="Lee notificación y redirige a la videollamada correspondiente">
<polygon fill="white" stroke="black" points="477.5,-342.5 477.5,-361.5 632.5,-361.5 632.5,-342.5 477.5,-342.5"/>
<text text-anchor="middle" x="555" y="-349.5" font-family="Helvetica,sans-Serif" font-size="10.00">OneSignalInit.HandleNotification</text>
</a>
</g>
</g>
<!-- Node6&#45;&gt;Node7 -->
<g id="edge6" class="edge">
<title>Node6&#45;&gt;Node7</title>
<path fill="none" stroke="midnightblue" d="M732.36,-352C701.04,-352 664.34,-352 632.55,-352"/>
<polygon fill="midnightblue" stroke="midnightblue" points="732.75,-355.5 742.75,-352 732.75,-348.5 732.75,-355.5"/>
</g>
<!-- Node10 -->
<g id="node10" class="node">
<title>Node10</title>
<g id="a_node10"><a xlink:href="class_rooms_controller.html#adceb5742932fc91d4d08576ee98af251" target="_top" xlink:title="Lleva al usuario actual a la sala seleccionada">
<polygon fill="white" stroke="black" points="488,-304.5 488,-323.5 622,-323.5 622,-304.5 488,-304.5"/>
<text text-anchor="middle" x="555" y="-311.5" font-family="Helvetica,sans-Serif" font-size="10.00">RoomsController.JoinRoom</text>
</a>
</g>
</g>
<!-- Node6&#45;&gt;Node10 -->
<g id="edge10" class="edge">
<title>Node6&#45;&gt;Node10</title>
<path fill="none" stroke="midnightblue" d="M732.75,-341.03C696.55,-335.49 653.07,-328.84 618.29,-323.53"/>
<polygon fill="midnightblue" stroke="midnightblue" points="732.34,-344.51 742.75,-342.56 733.4,-337.59 732.34,-344.51"/>
</g>
<!-- Node12 -->
<g id="node12" class="node">
<title>Node12</title>
<g id="a_node12"><a xlink:href="class_dynamic_links_init.html#a53989c4e1c0a81ca03fefc118b7191f2" target="_top" xlink:title="Lanzada cuando se recibe un enlace dinámico">
<polygon fill="white" stroke="black" points="473.5,-436.5 473.5,-455.5 636.5,-455.5 636.5,-436.5 473.5,-436.5"/>
<text text-anchor="middle" x="555" y="-443.5" font-family="Helvetica,sans-Serif" font-size="10.00">DynamicLinksInit.OnDynamicLink</text>
</a>
</g>
</g>
<!-- Node6&#45;&gt;Node12 -->
<g id="edge12" class="edge">
<title>Node6&#45;&gt;Node12</title>
<path fill="none" stroke="midnightblue" d="M779.32,-366.57C749.23,-383.39 696.92,-410.83 649,-427 637.91,-430.74 625.82,-433.87 614.14,-436.44"/>
<polygon fill="midnightblue" stroke="midnightblue" points="781.29,-369.47 788.27,-361.5 777.85,-363.38 781.29,-369.47"/>
</g>
<!-- Node14 -->
<g id="node14" class="node">
<title>Node14</title>
<g id="a_node14"><a xlink:href="class_contacts_controller.html#a82e0a0a5ae1fc7cbef3e4cb49d74dc31" target="_top" xlink:title="Inicializa todos los elementos necesarios de la lista de contactos y la muestra en la interfaz">
<polygon fill="white" stroke="black" points="473.5,-398.5 473.5,-417.5 636.5,-417.5 636.5,-398.5 473.5,-398.5"/>
<text text-anchor="middle" x="555" y="-405.5" font-family="Helvetica,sans-Serif" font-size="10.00">ContactsController.ShowContacts</text>
</a>
</g>
</g>
<!-- Node6&#45;&gt;Node14 -->
<g id="edge14" class="edge">
<title>Node6&#45;&gt;Node14</title>
<path fill="none" stroke="midnightblue" d="M755.93,-363.98C725.31,-371.43 684.91,-381.06 649,-389 634.52,-392.2 618.72,-395.5 604.33,-398.43"/>
<polygon fill="midnightblue" stroke="midnightblue" points="757.03,-367.31 765.92,-361.54 755.37,-360.51 757.03,-367.31"/>
</g>
<!-- Node7&#45;&gt;Node7 -->
<g id="edge7" class="edge">
<title>Node7&#45;&gt;Node7</title>
<path fill="none" stroke="midnightblue" d="M600.71,-367.82C603.9,-374.41 588.66,-380 555,-380 511.04,-380 498.5,-370.46 517.39,-361.61"/>
<polygon fill="midnightblue" stroke="midnightblue" points="602.68,-364.91 592.61,-361.61 598.42,-370.47 602.68,-364.91"/>
</g>
<!-- Node8 -->
<g id="node8" class="node">
<title>Node8</title>
<g id="a_node8"><a xlink:href="class_one_signal_init.html#a60c9495cb3e70bfdef56251b55c09420" target="_top" xlink:title="Llamada cuando un usuario abre una notificación">
<polygon fill="white" stroke="black" points="191,-342.5 191,-361.5 425,-361.5 425,-342.5 191,-342.5"/>
<text text-anchor="middle" x="308" y="-349.5" font-family="Helvetica,sans-Serif" font-size="10.00">OneSignalInit.OneSignalHandleNotificationOpened</text>
</a>
</g>
</g>
<!-- Node7&#45;&gt;Node8 -->
<g id="edge8" class="edge">
<title>Node7&#45;&gt;Node8</title>
<path fill="none" stroke="midnightblue" d="M467.24,-352C453.66,-352 439.44,-352 425.33,-352"/>
<polygon fill="midnightblue" stroke="midnightblue" points="467.49,-355.5 477.49,-352 467.49,-348.5 467.49,-355.5"/>
</g>
<!-- Node9 -->
<g id="node9" class="node">
<title>Node9</title>
<g id="a_node9"><a xlink:href="class_one_signal_init.html#a71d28b5a62bca248554c5e5d89d20a41" target="_top" xlink:title="Llamada justo antes del primer fotograma">
<polygon fill="white" stroke="black" points="28.5,-342.5 28.5,-361.5 126.5,-361.5 126.5,-342.5 28.5,-342.5"/>
<text text-anchor="middle" x="77.5" y="-349.5" font-family="Helvetica,sans-Serif" font-size="10.00">OneSignalInit.Start</text>
</a>
</g>
</g>
<!-- Node8&#45;&gt;Node9 -->
<g id="edge9" class="edge">
<title>Node8&#45;&gt;Node9</title>
<path fill="none" stroke="midnightblue" d="M180.65,-352C161.4,-352 142.62,-352 126.52,-352"/>
<polygon fill="midnightblue" stroke="midnightblue" points="180.74,-355.5 190.74,-352 180.74,-348.5 180.74,-355.5"/>
</g>
<!-- Node11 -->
<g id="node11" class="node">
<title>Node11</title>
<g id="a_node11"><a xlink:href="class_rooms_controller.html#a38b3caf6336da28667fb457361f04193" target="_top" xlink:title="Llamada justo antes del primer fotograma">
<polygon fill="white" stroke="black" points="251.5,-304.5 251.5,-323.5 364.5,-323.5 364.5,-304.5 251.5,-304.5"/>
<text text-anchor="middle" x="308" y="-311.5" font-family="Helvetica,sans-Serif" font-size="10.00">RoomsController.Start</text>
</a>
</g>
</g>
<!-- Node10&#45;&gt;Node11 -->
<g id="edge11" class="edge">
<title>Node10&#45;&gt;Node11</title>
<path fill="none" stroke="midnightblue" d="M477.57,-314C440.98,-314 397.99,-314 364.58,-314"/>
<polygon fill="midnightblue" stroke="midnightblue" points="477.7,-317.5 487.7,-314 477.7,-310.5 477.7,-317.5"/>
</g>
<!-- Node13 -->
<g id="node13" class="node">
<title>Node13</title>
<g id="a_node13"><a xlink:href="class_dynamic_links_init.html#a92aa11c79f26c2d5d1637e094eaa3530" target="_top" xlink:title="Llamada justo antes del primer fotograma">
<polygon fill="white" stroke="black" points="250.5,-456.5 250.5,-475.5 365.5,-475.5 365.5,-456.5 250.5,-456.5"/>
<text text-anchor="middle" x="308" y="-463.5" font-family="Helvetica,sans-Serif" font-size="10.00">DynamicLinksInit.Start</text>
</a>
</g>
</g>
<!-- Node12&#45;&gt;Node13 -->
<g id="edge13" class="edge">
<title>Node12&#45;&gt;Node13</title>
<path fill="none" stroke="midnightblue" d="M463.39,-453.4C430.62,-456.07 394.59,-459.01 365.58,-461.38"/>
<polygon fill="midnightblue" stroke="midnightblue" points="463.76,-456.88 473.44,-452.58 463.19,-449.9 463.76,-456.88"/>
</g>
<!-- Node15 -->
<g id="node15" class="node">
<title>Node15</title>
<g id="a_node15"><a xlink:href="class_contacts_controller.html#a5523eae0297ff38bd1ee5cdaa2ead925" target="_top" xlink:title="LLamada cuando se aceptan los permisos de lectura de contactos">
<polygon fill="white" stroke="black" points="216.5,-418.5 216.5,-437.5 399.5,-437.5 399.5,-418.5 216.5,-418.5"/>
<text text-anchor="middle" x="308" y="-425.5" font-family="Helvetica,sans-Serif" font-size="10.00">ContactsController.PermissionGranted</text>
</a>
</g>
</g>
<!-- Node14&#45;&gt;Node15 -->
<g id="edge15" class="edge">
<title>Node14&#45;&gt;Node15</title>
<path fill="none" stroke="midnightblue" d="M463.37,-415.4C442.61,-417.09 420.54,-418.89 399.78,-420.59"/>
<polygon fill="midnightblue" stroke="midnightblue" points="463.76,-418.88 473.44,-414.58 463.19,-411.9 463.76,-418.88"/>
</g>
<!-- Node17 -->
<g id="node17" class="node">
<title>Node17</title>
<g id="a_node17"><a xlink:href="class_contacts_controller.html#a18ddb1f465c9a56f0f080f9ce9cb0011" target="_top" xlink:title="Llamada justo antes del primer fotograma">
<polygon fill="white" stroke="black" points="247.5,-380.5 247.5,-399.5 368.5,-399.5 368.5,-380.5 247.5,-380.5"/>
<text text-anchor="middle" x="308" y="-387.5" font-family="Helvetica,sans-Serif" font-size="10.00">ContactsController.Start</text>
</a>
</g>
</g>
<!-- Node14&#45;&gt;Node17 -->
<g id="edge17" class="edge">
<title>Node14&#45;&gt;Node17</title>
<path fill="none" stroke="midnightblue" d="M463.3,-401.34C431.7,-399.01 397.07,-396.47 368.64,-394.38"/>
<polygon fill="midnightblue" stroke="midnightblue" points="463.21,-404.84 473.44,-402.08 463.72,-397.86 463.21,-404.84"/>
</g>
<!-- Node16 -->
<g id="node16" class="node">
<title>Node16</title>
<g id="a_node16"><a xlink:href="class_contacts_controller.html#a55e6be8eaa668f93e23c09e491c644c8" target="_top" xlink:title="Llamada al crear el GameObject asociado">
<polygon fill="white" stroke="black" points="13,-418.5 13,-437.5 142,-437.5 142,-418.5 13,-418.5"/>
<text text-anchor="middle" x="77.5" y="-425.5" font-family="Helvetica,sans-Serif" font-size="10.00">ContactsController.Awake</text>
</a>
</g>
</g>
<!-- Node15&#45;&gt;Node16 -->
<g id="edge16" class="edge">
<title>Node15&#45;&gt;Node16</title>
<path fill="none" stroke="midnightblue" d="M206.12,-428C184.43,-428 162.08,-428 142.27,-428"/>
<polygon fill="midnightblue" stroke="midnightblue" points="206.36,-431.5 216.36,-428 206.36,-424.5 206.36,-431.5"/>
</g>
<!-- Node19 -->
<g id="node19" class="node">
<title>Node19</title>
<g id="a_node19"><a xlink:href="class_audio_manager.html#ab333270dca5bf5c039de3d70ca111ba9" target="_top" xlink:title="Llamada justo antes del primer fotograma">
<polygon fill="white" stroke="black" points="503.5,-266.5 503.5,-285.5 606.5,-285.5 606.5,-266.5 503.5,-266.5"/>
<text text-anchor="middle" x="555" y="-273.5" font-family="Helvetica,sans-Serif" font-size="10.00">AudioManager.Start</text>
</a>
</g>
</g>
<!-- Node18&#45;&gt;Node19 -->
<g id="edge19" class="edge">
<title>Node18&#45;&gt;Node19</title>
<path fill="none" stroke="midnightblue" d="M681.09,-267.95C654.78,-269.64 628.42,-271.34 606.73,-272.73"/>
<polygon fill="midnightblue" stroke="midnightblue" points="681.4,-271.43 691.16,-267.3 680.95,-264.45 681.4,-271.43"/>
</g>
<!-- Node21 -->
<g id="node21" class="node">
<title>Node21</title>
<g id="a_node21"><a xlink:href="class_app_entry_point.html#ac431add7aa1c5d78adfed6782eedd949" target="_top" xlink:title="Llamada al crear el GameObject asociado">
<polygon fill="white" stroke="black" points="499,-228.5 499,-247.5 611,-247.5 611,-228.5 499,-228.5"/>
<text text-anchor="middle" x="555" y="-235.5" font-family="Helvetica,sans-Serif" font-size="10.00">AppEntryPoint.Awake</text>
</a>
</g>
</g>
<!-- Node20&#45;&gt;Node21 -->
<g id="edge21" class="edge">
<title>Node20&#45;&gt;Node21</title>
<path fill="none" stroke="midnightblue" d="M731.99,-211.09C693.43,-216.98 646.79,-224.12 611.21,-229.56"/>
<polygon fill="midnightblue" stroke="midnightblue" points="732.76,-214.51 742.11,-209.54 731.7,-207.59 732.76,-214.51"/>
</g>
<!-- Node22 -->
<g id="node22" class="node">
<title>Node22</title>
<g id="a_node22"><a xlink:href="class_app_entry_point.html#afc6b25a70732c6bcf06409f22a586861" target="_top" xlink:title="Llamadada cuando se destruye el GameObject asociado">
<polygon fill="white" stroke="black" points="490.5,-190.5 490.5,-209.5 619.5,-209.5 619.5,-190.5 490.5,-190.5"/>
<text text-anchor="middle" x="555" y="-197.5" font-family="Helvetica,sans-Serif" font-size="10.00">AppEntryPoint.OnDestroy</text>
</a>
</g>
</g>
<!-- Node20&#45;&gt;Node22 -->
<g id="edge22" class="edge">
<title>Node20&#45;&gt;Node22</title>
<path fill="none" stroke="midnightblue" d="M714.77,-200C683.36,-200 648.75,-200 619.88,-200"/>
<polygon fill="midnightblue" stroke="midnightblue" points="714.85,-203.5 724.85,-200 714.85,-196.5 714.85,-203.5"/>
</g>
<!-- Node23&#45;&gt;Node24 -->
<g id="edge24" class="edge">
<title>Node23&#45;&gt;Node24</title>
<path fill="none" stroke="midnightblue" d="M731.01,-75.16C705.15,-71.84 675.84,-68.63 649,-67 445.63,-54.62 393.37,-63.36 191,-87 171.75,-89.25 150.75,-92.41 132.16,-95.46"/>
<polygon fill="midnightblue" stroke="midnightblue" points="730.74,-78.65 741.11,-76.48 731.65,-71.71 730.74,-78.65"/>
</g>
<!-- Node25 -->
<g id="node25" class="node">
<title>Node25</title>
<g id="a_node25"><a xlink:href="class_register_phone_u_i_controller.html#a5cd62efcd8f1e816c759ac0ede78aaaf" target="_top" xlink:title="Se desuscribe de los eventos de clases estáticas">
<polygon fill="white" stroke="black" points="461,-76.5 461,-95.5 649,-95.5 649,-76.5 461,-76.5"/>
<text text-anchor="middle" x="555" y="-83.5" font-family="Helvetica,sans-Serif" font-size="10.00">RegisterPhoneUIController.Unsubscribe</text>
</a>
</g>
</g>
<!-- Node23&#45;&gt;Node25 -->
<g id="edge25" class="edge">
<title>Node23&#45;&gt;Node25</title>
<path fill="none" stroke="midnightblue" d="M674.8,-79.26C666.13,-79.27 657.5,-79.34 649.08,-79.44"/>
<polygon fill="midnightblue" stroke="midnightblue" points="674.98,-82.76 684.98,-79.25 674.98,-75.76 674.98,-82.76"/>
</g>
<!-- Node25&#45;&gt;Node23 -->
<g id="edge26" class="edge">
<title>Node25&#45;&gt;Node23</title>
<path fill="none" stroke="midnightblue" d="M659.33,-92.66C667.8,-92.73 676.41,-92.76 684.98,-92.75"/>
<polygon fill="midnightblue" stroke="midnightblue" points="659.11,-89.16 649.08,-92.56 659.04,-96.16 659.11,-89.16"/>
</g>
<!-- Node25&#45;&gt;Node24 -->
<g id="edge27" class="edge">
<title>Node25&#45;&gt;Node24</title>
<path fill="none" stroke="midnightblue" d="M450.8,-90.12C361.88,-93.68 235.52,-98.73 155.29,-101.93"/>
<polygon fill="midnightblue" stroke="midnightblue" points="451.05,-93.62 460.91,-89.72 450.78,-86.62 451.05,-93.62"/>
</g>
<!-- Node25&#45;&gt;Node26 -->
<g id="edge28" class="edge">
<title>Node25&#45;&gt;Node26</title>
<path fill="none" stroke="midnightblue" d="M482.21,-97.13C446.78,-102.63 404.47,-109.19 370.53,-114.46"/>
<polygon fill="midnightblue" stroke="midnightblue" points="483.15,-100.53 492.49,-95.54 482.07,-93.61 483.15,-100.53"/>
</g>
<!-- Node26&#45;&gt;Node24 -->
<g id="edge29" class="edge">
<title>Node26&#45;&gt;Node24</title>
<path fill="none" stroke="midnightblue" d="M204.43,-115.47C187.82,-114.09 170.88,-112.68 155.02,-111.36"/>
<polygon fill="midnightblue" stroke="midnightblue" points="204.46,-118.99 214.72,-116.33 205.04,-112.01 204.46,-118.99"/>
</g>
<!-- Node28 -->
<g id="node28" class="node">
<title>Node28</title>
<g id="a_node28"><a xlink:href="class_register_name_u_i_controller.html#a5c7e76753bc91e585403685a869aaa96" target="_top" xlink:title="Llamada justo antes del primer fotograma">
<polygon fill="white" stroke="black" points="479,-0.5 479,-19.5 631,-19.5 631,-0.5 479,-0.5"/>
<text text-anchor="middle" x="555" y="-7.5" font-family="Helvetica,sans-Serif" font-size="10.00">RegisterNameUIController.Start</text>
</a>
</g>
</g>
<!-- Node27&#45;&gt;Node28 -->
<g id="edge31" class="edge">
<title>Node27&#45;&gt;Node28</title>
<path fill="none" stroke="midnightblue" d="M732.15,-36.94C696.12,-31.43 652.98,-24.83 618.41,-19.54"/>
<polygon fill="midnightblue" stroke="midnightblue" points="731.7,-40.41 742.11,-38.46 732.76,-33.49 731.7,-40.41"/>
</g>
</g>
</svg>
