<?xml version="1.0" encoding="UTF-8" standalone="no"?>
<!DOCTYPE svg PUBLIC "-//W3C//DTD SVG 1.1//EN"
 "http://www.w3.org/Graphics/SVG/1.1/DTD/svg11.dtd">
<!-- Generated by graphviz version 2.49.0 (20210828.1703)
 -->
<!-- Title: UserManager.ChangeUsername Pages: 1 -->
<svg width="725pt" height="47pt"
 viewBox="0.00 0.00 725.00 47.00" xmlns="http://www.w3.org/2000/svg" xmlns:xlink="http://www.w3.org/1999/xlink">
<g id="graph0" class="graph" transform="scale(1 1) rotate(0) translate(4 43)">
<title>UserManager.ChangeUsername</title>
<polygon fill="white" stroke="transparent" points="-4,4 -4,-43 721,-43 721,4 -4,4"/>
<!-- Node1 -->
<g id="node1" class="node">
<title>Node1</title>
<g id="a_node1"><a xlink:title="Cambia el nombre del usuario actual">
<polygon fill="#bfbfbf" stroke="black" points="562,-19.5 562,-38.5 717,-38.5 717,-19.5 562,-19.5"/>
<text text-anchor="middle" x="639.5" y="-26.5" font-family="Helvetica,sans-Serif" font-size="10.00">UserManager.ChangeUsername</text>
</a>
</g>
</g>
<!-- Node2 -->
<g id="node2" class="node">
<title>Node2</title>
<g id="a_node2"><a xlink:href="class_register_name_u_i_controller.html#afc29ac5c585c83664552ce4d7e228e04" target="_top" xlink:title="Registra el nombre introducido del usuario actual">
<polygon fill="white" stroke="black" points="188,-19.5 188,-38.5 381,-38.5 381,-19.5 188,-19.5"/>
<text text-anchor="middle" x="284.5" y="-26.5" font-family="Helvetica,sans-Serif" font-size="10.00">RegisterNameUIController.RegisterName</text>
</a>
</g>
</g>
<!-- Node1&#45;&gt;Node2 -->
<g id="edge1" class="edge">
<title>Node1&#45;&gt;Node2</title>
<path fill="none" stroke="midnightblue" d="M551.76,-29C500.06,-29 434.37,-29 381.17,-29"/>
<polygon fill="midnightblue" stroke="midnightblue" points="551.9,-32.5 561.9,-29 551.9,-25.5 551.9,-32.5"/>
</g>
<!-- Node4 -->
<g id="node4" class="node">
<title>Node4</title>
<g id="a_node4"><a xlink:href="class_user_manager.html#a5a0827078b96620181c5f6615c218dec" target="_top" xlink:title="Registra el nombre de usuario">
<polygon fill="white" stroke="black" points="417,-0.5 417,-19.5 526,-19.5 526,-0.5 417,-0.5"/>
<text text-anchor="middle" x="471.5" y="-7.5" font-family="Helvetica,sans-Serif" font-size="10.00">UserManager.SignUp</text>
</a>
</g>
</g>
<!-- Node1&#45;&gt;Node4 -->
<g id="edge3" class="edge">
<title>Node1&#45;&gt;Node4</title>
<path fill="none" stroke="midnightblue" d="M551.62,-19.06C542.93,-18.06 534.31,-17.07 526.12,-16.14"/>
<polygon fill="midnightblue" stroke="midnightblue" points="551.48,-22.56 561.82,-20.22 552.28,-15.61 551.48,-22.56"/>
</g>
<!-- Node3 -->
<g id="node3" class="node">
<title>Node3</title>
<g id="a_node3"><a xlink:href="class_register_name_u_i_controller.html#a5c7e76753bc91e585403685a869aaa96" target="_top" xlink:title="Llamada justo antes del primer fotograma">
<polygon fill="white" stroke="black" points="0,-19.5 0,-38.5 152,-38.5 152,-19.5 0,-19.5"/>
<text text-anchor="middle" x="76" y="-26.5" font-family="Helvetica,sans-Serif" font-size="10.00">RegisterNameUIController.Start</text>
</a>
</g>
</g>
<!-- Node2&#45;&gt;Node3 -->
<g id="edge2" class="edge">
<title>Node2&#45;&gt;Node3</title>
<path fill="none" stroke="midnightblue" d="M177.73,-29C169.14,-29 160.58,-29 152.28,-29"/>
<polygon fill="midnightblue" stroke="midnightblue" points="177.81,-32.5 187.81,-29 177.81,-25.5 177.81,-32.5"/>
</g>
<!-- Node4&#45;&gt;Node2 -->
<g id="edge4" class="edge">
<title>Node4&#45;&gt;Node2</title>
<path fill="none" stroke="midnightblue" d="M406.79,-16.54C397.57,-17.49 387.93,-18.48 378.28,-19.47"/>
<polygon fill="midnightblue" stroke="midnightblue" points="407.4,-20 416.99,-15.5 406.69,-13.04 407.4,-20"/>
</g>
</g>
</svg>
