<?xml version="1.0" encoding="UTF-8" standalone="no"?>
<!DOCTYPE svg PUBLIC "-//W3C//DTD SVG 1.1//EN"
 "http://www.w3.org/Graphics/SVG/1.1/DTD/svg11.dtd">
<!-- Generated by graphviz version 2.49.0 (20210828.1703)
 -->
<!-- Title: AndroidUtils.ShowToast Pages: 1 -->
<svg width="1123pt" height="388pt"
 viewBox="0.00 0.00 1123.00 388.00" xmlns="http://www.w3.org/2000/svg" xmlns:xlink="http://www.w3.org/1999/xlink">
<g id="graph0" class="graph" transform="scale(1 1) rotate(0) translate(4 384)">
<title>AndroidUtils.ShowToast</title>
<polygon fill="white" stroke="transparent" points="-4,4 -4,-384 1119,-384 1119,4 -4,4"/>
<!-- Node1 -->
<g id="node1" class="node">
<title>Node1</title>
<g id="a_node1"><a xlink:title=" ">
<polygon fill="#bfbfbf" stroke="black" points="995,-190.5 995,-209.5 1115,-209.5 1115,-190.5 995,-190.5"/>
<text text-anchor="middle" x="1055" y="-197.5" font-family="Helvetica,sans-Serif" font-size="10.00">AndroidUtils.ShowToast</text>
</a>
</g>
</g>
<!-- Node2 -->
<g id="node2" class="node">
<title>Node2</title>
<g id="a_node2"><a xlink:href="class_one_signal_init.html#afac945779fdf4efc92743adb600c2862" target="_top" xlink:title="Lee notificación y redirige a la videollamada correspondiente">
<polygon fill="white" stroke="black" points="771,-342.5 771,-361.5 926,-361.5 926,-342.5 771,-342.5"/>
<text text-anchor="middle" x="848.5" y="-349.5" font-family="Helvetica,sans-Serif" font-size="10.00">OneSignalInit.HandleNotification</text>
</a>
</g>
</g>
<!-- Node1&#45;&gt;Node2 -->
<g id="edge1" class="edge">
<title>Node1&#45;&gt;Node2</title>
<path fill="none" stroke="midnightblue" d="M1046.23,-218.92C1033.03,-248.49 1003.27,-305.17 959,-333 949.12,-339.21 937.79,-343.55 926.25,-346.55"/>
<polygon fill="midnightblue" stroke="midnightblue" points="1049.47,-220.25 1050.21,-209.68 1043.04,-217.48 1049.47,-220.25"/>
</g>
<!-- Node5 -->
<g id="node5" class="node">
<title>Node5</title>
<g id="a_node5"><a xlink:href="class_rooms_controller.html#adceb5742932fc91d4d08576ee98af251" target="_top" xlink:title="Lleva al usuario actual a la sala seleccionada">
<polygon fill="white" stroke="black" points="781.5,-304.5 781.5,-323.5 915.5,-323.5 915.5,-304.5 781.5,-304.5"/>
<text text-anchor="middle" x="848.5" y="-311.5" font-family="Helvetica,sans-Serif" font-size="10.00">RoomsController.JoinRoom</text>
</a>
</g>
</g>
<!-- Node1&#45;&gt;Node5 -->
<g id="edge5" class="edge">
<title>Node1&#45;&gt;Node5</title>
<path fill="none" stroke="midnightblue" d="M1040.52,-217.62C1023.73,-238.27 993.08,-271.95 959,-290 945.67,-297.06 930.38,-302.04 915.53,-305.56"/>
<polygon fill="midnightblue" stroke="midnightblue" points="1043.37,-219.66 1046.84,-209.65 1037.88,-215.31 1043.37,-219.66"/>
</g>
<!-- Node7 -->
<g id="node7" class="node">
<title>Node7</title>
<g id="a_node7"><a xlink:href="class_register_phone_u_i_controller.html#a1f99826db3bbc1b5bc00fe21b5241f5e" target="_top" xlink:title="Llamada cuando se envíaa el código de verificación SMS">
<polygon fill="white" stroke="black" points="754,-190.5 754,-209.5 943,-209.5 943,-190.5 754,-190.5"/>
<text text-anchor="middle" x="848.5" y="-197.5" font-family="Helvetica,sans-Serif" font-size="10.00">RegisterPhoneUIController.OnCodeSent</text>
</a>
</g>
</g>
<!-- Node1&#45;&gt;Node7 -->
<g id="edge7" class="edge">
<title>Node1&#45;&gt;Node7</title>
<path fill="none" stroke="midnightblue" d="M984.8,-200C971.42,-200 957.2,-200 943.19,-200"/>
<polygon fill="midnightblue" stroke="midnightblue" points="984.85,-203.5 994.85,-200 984.85,-196.5 984.85,-203.5"/>
</g>
<!-- Node10 -->
<g id="node10" class="node">
<title>Node10</title>
<g id="a_node10"><a xlink:href="class_register_phone_u_i_controller.html#aa85933669dcb72558a71039eba32d88d" target="_top" xlink:title="Llamada cuando se completa la verificación">
<polygon fill="white" stroke="black" points="191,-114.5 191,-133.5 432,-133.5 432,-114.5 191,-114.5"/>
<text text-anchor="middle" x="311.5" y="-121.5" font-family="Helvetica,sans-Serif" font-size="10.00">RegisterPhoneUIController.OnVerificationCompleted</text>
</a>
</g>
</g>
<!-- Node1&#45;&gt;Node10 -->
<g id="edge18" class="edge">
<title>Node1&#45;&gt;Node10</title>
<path fill="none" stroke="midnightblue" d="M1034.56,-184.21C1016.29,-170.43 987.55,-151.36 959,-143 757.76,-84.06 506.08,-101 384.65,-114.48"/>
<polygon fill="midnightblue" stroke="midnightblue" points="1032.59,-187.12 1042.64,-190.48 1036.88,-181.59 1032.59,-187.12"/>
</g>
<!-- Node11 -->
<g id="node11" class="node">
<title>Node11</title>
<g id="a_node11"><a xlink:href="class_register_phone_u_i_controller.html#a55f0c364a3d7f1920df9790b7c63da7c" target="_top" xlink:title="Verifica el teléfono introducido con el código SMS introducido">
<polygon fill="white" stroke="black" points="218.5,-228.5 218.5,-247.5 404.5,-247.5 404.5,-228.5 218.5,-228.5"/>
<text text-anchor="middle" x="311.5" y="-235.5" font-family="Helvetica,sans-Serif" font-size="10.00">RegisterPhoneUIController.VerifyPhone</text>
</a>
</g>
</g>
<!-- Node1&#45;&gt;Node11 -->
<g id="edge28" class="edge">
<title>Node1&#45;&gt;Node11</title>
<path fill="none" stroke="midnightblue" d="M1003.82,-211.67C989.42,-214.58 973.66,-217.33 959,-219 762.5,-241.38 530.37,-241.96 404.65,-240.14"/>
<polygon fill="midnightblue" stroke="midnightblue" points="1004.94,-215.01 1014.02,-209.55 1003.52,-208.16 1004.94,-215.01"/>
</g>
<!-- Node12 -->
<g id="node12" class="node">
<title>Node12</title>
<g id="a_node12"><a xlink:href="class_dynamic_links_init.html#a53989c4e1c0a81ca03fefc118b7191f2" target="_top" xlink:title="Lanzada cuando se recibe un enlace dinámico">
<polygon fill="white" stroke="black" points="767,-38.5 767,-57.5 930,-57.5 930,-38.5 767,-38.5"/>
<text text-anchor="middle" x="848.5" y="-45.5" font-family="Helvetica,sans-Serif" font-size="10.00">DynamicLinksInit.OnDynamicLink</text>
</a>
</g>
</g>
<!-- Node1&#45;&gt;Node12 -->
<g id="edge16" class="edge">
<title>Node1&#45;&gt;Node12</title>
<path fill="none" stroke="midnightblue" d="M1045.51,-181.22C1031.66,-152.85 1001.43,-99.44 959,-72 949.19,-65.66 937.97,-60.97 926.53,-57.51"/>
<polygon fill="midnightblue" stroke="midnightblue" points="1042.43,-182.9 1049.86,-190.45 1048.76,-179.91 1042.43,-182.9"/>
</g>
<!-- Node14 -->
<g id="node14" class="node">
<title>Node14</title>
<g id="a_node14"><a xlink:href="class_register_phone_u_i_controller.html#a7838bc038a08379b5f1f50af435ac6d7" target="_top" xlink:title="Llamada cuando falla la verificación">
<polygon fill="white" stroke="black" points="738,-152.5 738,-171.5 959,-171.5 959,-152.5 738,-152.5"/>
<text text-anchor="middle" x="848.5" y="-159.5" font-family="Helvetica,sans-Serif" font-size="10.00">RegisterPhoneUIController.OnVerificationFailed</text>
</a>
</g>
</g>
<!-- Node1&#45;&gt;Node14 -->
<g id="edge19" class="edge">
<title>Node1&#45;&gt;Node14</title>
<path fill="none" stroke="midnightblue" d="M997.66,-188.48C984.95,-185.96 971.52,-183.34 959,-181 941.84,-177.79 923.12,-174.48 906.1,-171.54"/>
<polygon fill="midnightblue" stroke="midnightblue" points="997.17,-191.96 1007.66,-190.48 998.54,-185.09 997.17,-191.96"/>
</g>
<!-- Node15 -->
<g id="node15" class="node">
<title>Node15</title>
<g id="a_node15"><a xlink:href="class_register_phone_u_i_controller.html#a41d4c768e35a4edf1db44a1807e179b5" target="_top" xlink:title="Envia el código SMS al teléfono introducido">
<polygon fill="white" stroke="black" points="222,-266.5 222,-285.5 401,-285.5 401,-266.5 222,-266.5"/>
<text text-anchor="middle" x="311.5" y="-273.5" font-family="Helvetica,sans-Serif" font-size="10.00">RegisterPhoneUIController.SendCode</text>
</a>
</g>
</g>
<!-- Node1&#45;&gt;Node15 -->
<g id="edge22" class="edge">
<title>Node1&#45;&gt;Node15</title>
<path fill="none" stroke="midnightblue" d="M1027.76,-214.32C1009.15,-223.73 983.27,-235.3 959,-241 763.95,-286.83 527.09,-285.8 401.2,-280.96"/>
<polygon fill="midnightblue" stroke="midnightblue" points="1029.51,-217.36 1036.78,-209.65 1026.29,-211.14 1029.51,-217.36"/>
</g>
<!-- Node16 -->
<g id="node16" class="node">
<title>Node16</title>
<g id="a_node16"><a xlink:href="class_android_utils.html#af53d417f93c9f33d0ba4943af3cc86ae" target="_top" xlink:title=" ">
<polygon fill="white" stroke="black" points="780,-0.5 780,-19.5 917,-19.5 917,-0.5 780,-0.5"/>
<text text-anchor="middle" x="848.5" y="-7.5" font-family="Helvetica,sans-Serif" font-size="10.00">AndroidUtils.StartRecording</text>
</a>
</g>
</g>
<!-- Node1&#45;&gt;Node16 -->
<g id="edge24" class="edge">
<title>Node1&#45;&gt;Node16</title>
<path fill="none" stroke="midnightblue" d="M1049.14,-180.43C1039.05,-144.17 1012.19,-66.79 959,-29 946.81,-20.34 931.97,-15.18 917.19,-12.2"/>
<polygon fill="midnightblue" stroke="midnightblue" points="1045.81,-181.51 1051.75,-190.28 1052.57,-179.72 1045.81,-181.51"/>
</g>
<!-- Node2&#45;&gt;Node2 -->
<g id="edge2" class="edge">
<title>Node2&#45;&gt;Node2</title>
<path fill="none" stroke="midnightblue" d="M887.11,-369.11C887.68,-375.13 874.82,-380 848.5,-380 811.89,-380 801.3,-370.57 816.75,-361.76"/>
<polygon fill="midnightblue" stroke="midnightblue" points="889.63,-366.69 880.25,-361.76 884.51,-371.46 889.63,-366.69"/>
</g>
<!-- Node3 -->
<g id="node3" class="node">
<title>Node3</title>
<g id="a_node3"><a xlink:href="class_one_signal_init.html#a60c9495cb3e70bfdef56251b55c09420" target="_top" xlink:title="Llamada cuando un usuario abre una notificación">
<polygon fill="white" stroke="black" points="468,-342.5 468,-361.5 702,-361.5 702,-342.5 468,-342.5"/>
<text text-anchor="middle" x="585" y="-349.5" font-family="Helvetica,sans-Serif" font-size="10.00">OneSignalInit.OneSignalHandleNotificationOpened</text>
</a>
</g>
</g>
<!-- Node2&#45;&gt;Node3 -->
<g id="edge3" class="edge">
<title>Node2&#45;&gt;Node3</title>
<path fill="none" stroke="midnightblue" d="M760.8,-352C741.98,-352 721.78,-352 702.03,-352"/>
<polygon fill="midnightblue" stroke="midnightblue" points="760.81,-355.5 770.81,-352 760.81,-348.5 760.81,-355.5"/>
</g>
<!-- Node4 -->
<g id="node4" class="node">
<title>Node4</title>
<g id="a_node4"><a xlink:href="class_one_signal_init.html#a71d28b5a62bca248554c5e5d89d20a41" target="_top" xlink:title="Llamada justo antes del primer fotograma">
<polygon fill="white" stroke="black" points="262.5,-342.5 262.5,-361.5 360.5,-361.5 360.5,-342.5 262.5,-342.5"/>
<text text-anchor="middle" x="311.5" y="-349.5" font-family="Helvetica,sans-Serif" font-size="10.00">OneSignalInit.Start</text>
</a>
</g>
</g>
<!-- Node3&#45;&gt;Node4 -->
<g id="edge4" class="edge">
<title>Node3&#45;&gt;Node4</title>
<path fill="none" stroke="midnightblue" d="M457.51,-352C423.08,-352 387.85,-352 360.73,-352"/>
<polygon fill="midnightblue" stroke="midnightblue" points="457.68,-355.5 467.68,-352 457.68,-348.5 457.68,-355.5"/>
</g>
<!-- Node6 -->
<g id="node6" class="node">
<title>Node6</title>
<g id="a_node6"><a xlink:href="class_rooms_controller.html#a38b3caf6336da28667fb457361f04193" target="_top" xlink:title="Llamada justo antes del primer fotograma">
<polygon fill="white" stroke="black" points="528.5,-304.5 528.5,-323.5 641.5,-323.5 641.5,-304.5 528.5,-304.5"/>
<text text-anchor="middle" x="585" y="-311.5" font-family="Helvetica,sans-Serif" font-size="10.00">RoomsController.Start</text>
</a>
</g>
</g>
<!-- Node5&#45;&gt;Node6 -->
<g id="edge6" class="edge">
<title>Node5&#45;&gt;Node6</title>
<path fill="none" stroke="midnightblue" d="M771.11,-314C729.67,-314 679.35,-314 641.65,-314"/>
<polygon fill="midnightblue" stroke="midnightblue" points="771.17,-317.5 781.17,-314 771.17,-310.5 771.17,-317.5"/>
</g>
<!-- Node8 -->
<g id="node8" class="node">
<title>Node8</title>
<g id="a_node8"><a xlink:href="class_register_phone_u_i_controller.html#abecd41c11aa752bec550978e4a58d2a1" target="_top" xlink:title="Llamada justo antes del primer fotograma">
<polygon fill="white" stroke="black" points="0,-171.5 0,-190.5 155,-190.5 155,-171.5 0,-171.5"/>
<text text-anchor="middle" x="77.5" y="-178.5" font-family="Helvetica,sans-Serif" font-size="10.00">RegisterPhoneUIController.Start</text>
</a>
</g>
</g>
<!-- Node7&#45;&gt;Node8 -->
<g id="edge8" class="edge">
<title>Node7&#45;&gt;Node8</title>
<path fill="none" stroke="midnightblue" d="M743.69,-198.53C614.26,-196.52 386.25,-192.42 191,-186 179.37,-185.62 167.07,-185.14 155.04,-184.64"/>
<polygon fill="midnightblue" stroke="midnightblue" points="743.93,-202.03 753.99,-198.68 744.04,-195.03 743.93,-202.03"/>
</g>
<!-- Node9 -->
<g id="node9" class="node">
<title>Node9</title>
<g id="a_node9"><a xlink:href="class_register_phone_u_i_controller.html#a5cd62efcd8f1e816c759ac0ede78aaaf" target="_top" xlink:title="Se desuscribe de los eventos de clases estáticas">
<polygon fill="white" stroke="black" points="491,-152.5 491,-171.5 679,-171.5 679,-152.5 491,-152.5"/>
<text text-anchor="middle" x="585" y="-159.5" font-family="Helvetica,sans-Serif" font-size="10.00">RegisterPhoneUIController.Unsubscribe</text>
</a>
</g>
</g>
<!-- Node7&#45;&gt;Node9 -->
<g id="edge9" class="edge">
<title>Node7&#45;&gt;Node9</title>
<path fill="none" stroke="midnightblue" d="M771.85,-189.01C733.83,-183.48 688.21,-176.85 651.68,-171.54"/>
<polygon fill="midnightblue" stroke="midnightblue" points="771.45,-192.49 781.85,-190.46 772.46,-185.56 771.45,-192.49"/>
</g>
<!-- Node9&#45;&gt;Node8 -->
<g id="edge13" class="edge">
<title>Node9&#45;&gt;Node8</title>
<path fill="none" stroke="midnightblue" d="M480.91,-165.87C384.34,-169.5 242.2,-174.85 155.25,-178.12"/>
<polygon fill="midnightblue" stroke="midnightblue" points="481.13,-169.37 490.99,-165.5 480.86,-162.37 481.13,-169.37"/>
</g>
<!-- Node9&#45;&gt;Node10 -->
<g id="edge10" class="edge">
<title>Node9&#45;&gt;Node10</title>
<path fill="none" stroke="midnightblue" d="M539.13,-150.55C508.89,-145.05 467.52,-138.76 428.4,-133.54"/>
<polygon fill="midnightblue" stroke="midnightblue" points="538.87,-154.06 549.34,-152.46 540.15,-147.18 538.87,-154.06"/>
</g>
<!-- Node9&#45;&gt;Node11 -->
<g id="edge14" class="edge">
<title>Node9&#45;&gt;Node11</title>
<path fill="none" stroke="midnightblue" d="M539.93,-174.34C485.96,-189.44 395.7,-214.71 346.68,-228.43"/>
<polygon fill="midnightblue" stroke="midnightblue" points="541.2,-177.61 549.89,-171.55 539.32,-170.87 541.2,-177.61"/>
</g>
<!-- Node10&#45;&gt;Node8 -->
<g id="edge11" class="edge">
<title>Node10&#45;&gt;Node8</title>
<path fill="none" stroke="midnightblue" d="M247.9,-135.5C229.5,-139.17 209.38,-143.47 191,-148 162.74,-154.97 130.95,-164.45 108.39,-171.46"/>
<polygon fill="midnightblue" stroke="midnightblue" points="248.79,-138.9 257.93,-133.53 247.44,-132.03 248.79,-138.9"/>
</g>
<!-- Node10&#45;&gt;Node9 -->
<g id="edge12" class="edge">
<title>Node10&#45;&gt;Node9</title>
<path fill="none" stroke="midnightblue" d="M357.46,-135.47C393.68,-142.05 445.82,-149.77 490.94,-155.42"/>
<polygon fill="midnightblue" stroke="midnightblue" points="357.7,-131.95 347.23,-133.55 356.41,-138.83 357.7,-131.95"/>
</g>
<!-- Node11&#45;&gt;Node8 -->
<g id="edge15" class="edge">
<title>Node11&#45;&gt;Node8</title>
<path fill="none" stroke="midnightblue" d="M247.9,-226.5C229.5,-222.83 209.38,-218.53 191,-214 162.74,-207.03 130.95,-197.55 108.39,-190.54"/>
<polygon fill="midnightblue" stroke="midnightblue" points="247.44,-229.97 257.93,-228.47 248.79,-223.1 247.44,-229.97"/>
</g>
<!-- Node13 -->
<g id="node13" class="node">
<title>Node13</title>
<g id="a_node13"><a xlink:href="class_dynamic_links_init.html#a92aa11c79f26c2d5d1637e094eaa3530" target="_top" xlink:title="Llamada justo antes del primer fotograma">
<polygon fill="white" stroke="black" points="527.5,-38.5 527.5,-57.5 642.5,-57.5 642.5,-38.5 527.5,-38.5"/>
<text text-anchor="middle" x="585" y="-45.5" font-family="Helvetica,sans-Serif" font-size="10.00">DynamicLinksInit.Start</text>
</a>
</g>
</g>
<!-- Node12&#45;&gt;Node13 -->
<g id="edge17" class="edge">
<title>Node12&#45;&gt;Node13</title>
<path fill="none" stroke="midnightblue" d="M756.87,-48C718.94,-48 676.03,-48 642.7,-48"/>
<polygon fill="midnightblue" stroke="midnightblue" points="756.91,-51.5 766.91,-48 756.91,-44.5 756.91,-51.5"/>
</g>
<!-- Node14&#45;&gt;Node8 -->
<g id="edge20" class="edge">
<title>Node14&#45;&gt;Node8</title>
<path fill="none" stroke="midnightblue" d="M810.36,-149.21C708.65,-116.21 418.12,-35.47 191,-105 147.95,-118.18 106.52,-154 88.25,-171.34"/>
<polygon fill="midnightblue" stroke="midnightblue" points="809.56,-152.64 820.16,-152.44 811.75,-145.99 809.56,-152.64"/>
</g>
<!-- Node14&#45;&gt;Node9 -->
<g id="edge21" class="edge">
<title>Node14&#45;&gt;Node9</title>
<path fill="none" stroke="midnightblue" d="M727.67,-162C711.45,-162 694.99,-162 679.33,-162"/>
<polygon fill="midnightblue" stroke="midnightblue" points="727.74,-165.5 737.74,-162 727.74,-158.5 727.74,-165.5"/>
</g>
<!-- Node15&#45;&gt;Node8 -->
<g id="edge23" class="edge">
<title>Node15&#45;&gt;Node8</title>
<path fill="none" stroke="midnightblue" d="M212.2,-263.96C204.93,-261.98 197.78,-259.68 191,-257 149.56,-240.65 107.99,-207.02 89.07,-190.53"/>
<polygon fill="midnightblue" stroke="midnightblue" points="211.64,-267.42 222.19,-266.46 213.34,-260.63 211.64,-267.42"/>
</g>
<!-- Node17 -->
<g id="node17" class="node">
<title>Node17</title>
<g id="a_node17"><a xlink:href="class_recorder_manager.html#a12a78c0fd95f2c5040913c84003b27a4" target="_top" xlink:title="Comienza la grabación">
<polygon fill="white" stroke="black" points="504.5,-0.5 504.5,-19.5 665.5,-19.5 665.5,-0.5 504.5,-0.5"/>
<text text-anchor="middle" x="585" y="-7.5" font-family="Helvetica,sans-Serif" font-size="10.00">RecorderManager.StartRecording</text>
</a>
</g>
</g>
<!-- Node16&#45;&gt;Node17 -->
<g id="edge25" class="edge">
<title>Node16&#45;&gt;Node17</title>
<path fill="none" stroke="midnightblue" d="M769.41,-10C736.74,-10 698.81,-10 665.94,-10"/>
<polygon fill="midnightblue" stroke="midnightblue" points="769.82,-13.5 779.82,-10 769.82,-6.5 769.82,-13.5"/>
</g>
<!-- Node18 -->
<g id="node18" class="node">
<title>Node18</title>
<g id="a_node18"><a xlink:href="class_recorder_manager.html#af4f6bc58b8be4b847c30c57d1fe6a730" target="_top" xlink:title="Alterna entre comenzar la grabación o pararla">
<polygon fill="white" stroke="black" points="234,-0.5 234,-19.5 389,-19.5 389,-0.5 234,-0.5"/>
<text text-anchor="middle" x="311.5" y="-7.5" font-family="Helvetica,sans-Serif" font-size="10.00">RecorderManager.ToggleRecord</text>
</a>
</g>
</g>
<!-- Node17&#45;&gt;Node18 -->
<g id="edge26" class="edge">
<title>Node17&#45;&gt;Node18</title>
<path fill="none" stroke="midnightblue" d="M494.01,-10C460.11,-10 421.9,-10 389.32,-10"/>
<polygon fill="midnightblue" stroke="midnightblue" points="494.38,-13.5 504.38,-10 494.38,-6.5 494.38,-13.5"/>
</g>
<!-- Node19 -->
<g id="node19" class="node">
<title>Node19</title>
<g id="a_node19"><a xlink:href="class_toolbar_u_i_controller.html#a7c36bd2332e575e710320a80023b93de" target="_top" xlink:title="Llamada justo antes del primer fotograma">
<polygon fill="white" stroke="black" points="16.5,-0.5 16.5,-19.5 138.5,-19.5 138.5,-0.5 16.5,-0.5"/>
<text text-anchor="middle" x="77.5" y="-7.5" font-family="Helvetica,sans-Serif" font-size="10.00">ToolbarUIController.Start</text>
</a>
</g>
</g>
<!-- Node18&#45;&gt;Node19 -->
<g id="edge27" class="edge">
<title>Node18&#45;&gt;Node19</title>
<path fill="none" stroke="midnightblue" d="M223.62,-10C195.4,-10 164.72,-10 138.87,-10"/>
<polygon fill="midnightblue" stroke="midnightblue" points="223.89,-13.5 233.89,-10 223.89,-6.5 223.89,-13.5"/>
</g>
</g>
</svg>
