<?xml version="1.0" encoding="UTF-8" standalone="no"?>
<!DOCTYPE svg PUBLIC "-//W3C//DTD SVG 1.1//EN"
 "http://www.w3.org/Graphics/SVG/1.1/DTD/svg11.dtd">
<!-- Generated by graphviz version 2.49.0 (20210828.1703)
 -->
<!-- Title: PeerConnectionManager.AddDataChannels Pages: 1 -->
<svg width="405pt" height="180pt"
 viewBox="0.00 0.00 405.00 180.00" xmlns="http://www.w3.org/2000/svg" xmlns:xlink="http://www.w3.org/1999/xlink">
<g id="graph0" class="graph" transform="scale(1 1) rotate(0) translate(4 176)">
<title>PeerConnectionManager.AddDataChannels</title>
<polygon fill="white" stroke="transparent" points="-4,4 -4,-176 401,-176 401,4 -4,4"/>
<!-- Node1 -->
<g id="node1" class="node">
<title>Node1</title>
<g id="a_node1"><a xlink:title="Crea los canales de datos">
<polygon fill="#bfbfbf" stroke="black" points="0,-76.5 0,-95.5 204,-95.5 204,-76.5 0,-76.5"/>
<text text-anchor="middle" x="102" y="-83.5" font-family="Helvetica,sans-Serif" font-size="10.00">PeerConnectionManager.AddDataChannels</text>
</a>
</g>
</g>
<!-- Node2 -->
<g id="node2" class="node">
<title>Node2</title>
<g id="a_node2"><a xlink:href="class_a_r_tool_manager.html#ab3ba41799d1887d36ba5d36f4960afbc" target="_top" xlink:title="Elimina todos los trazos o marcadores del par seleccionado">
<polygon fill="white" stroke="black" points="240.5,-152.5 240.5,-171.5 396.5,-171.5 396.5,-152.5 240.5,-152.5"/>
<text text-anchor="middle" x="318.5" y="-159.5" font-family="Helvetica,sans-Serif" font-size="10.00">ARToolManager.DeleteDrawings</text>
</a>
</g>
</g>
<!-- Node1&#45;&gt;Node2 -->
<g id="edge1" class="edge">
<title>Node1&#45;&gt;Node2</title>
<path fill="none" stroke="midnightblue" d="M123.51,-95.7C149.98,-107.95 197.66,-129.09 240,-143 247.5,-145.46 255.49,-147.77 263.4,-149.87"/>
<polygon fill="midnightblue" stroke="midnightblue" points="262.76,-153.32 273.31,-152.41 264.5,-146.54 262.76,-153.32"/>
</g>
<!-- Node3 -->
<g id="node3" class="node">
<title>Node3</title>
<g id="a_node3"><a xlink:href="class_peer_connection_manager.html#a9cc97416c36f76d17771f7d61613cfc0" target="_top" xlink:title="Evalua si el par actual es host">
<polygon fill="white" stroke="black" points="240,-114.5 240,-133.5 397,-133.5 397,-114.5 240,-114.5"/>
<text text-anchor="middle" x="318.5" y="-121.5" font-family="Helvetica,sans-Serif" font-size="10.00">PeerConnectionManager.ImHost</text>
</a>
</g>
</g>
<!-- Node1&#45;&gt;Node3 -->
<g id="edge2" class="edge">
<title>Node1&#45;&gt;Node3</title>
<path fill="none" stroke="midnightblue" d="M156.85,-95.54C186.17,-100.73 222.65,-107.2 253.43,-112.65"/>
<polygon fill="midnightblue" stroke="midnightblue" points="253.17,-116.16 263.63,-114.46 254.39,-109.27 253.17,-116.16"/>
</g>
<!-- Node4 -->
<g id="node4" class="node">
<title>Node4</title>
<g id="a_node4"><a xlink:href="class_a_r_tool_manager.html#af9a83789810f1f49396d859e950a994d" target="_top" xlink:title="Selecciona el color actual para el par seleccionado">
<polygon fill="white" stroke="black" points="249,-76.5 249,-95.5 388,-95.5 388,-76.5 249,-76.5"/>
<text text-anchor="middle" x="318.5" y="-83.5" font-family="Helvetica,sans-Serif" font-size="10.00">ARToolManager.SelectColor</text>
</a>
</g>
</g>
<!-- Node1&#45;&gt;Node4 -->
<g id="edge3" class="edge">
<title>Node1&#45;&gt;Node4</title>
<path fill="none" stroke="midnightblue" d="M204.28,-86C215.83,-86 227.46,-86 238.65,-86"/>
<polygon fill="midnightblue" stroke="midnightblue" points="238.79,-89.5 248.79,-86 238.79,-82.5 238.79,-89.5"/>
</g>
<!-- Node5 -->
<g id="node5" class="node">
<title>Node5</title>
<g id="a_node5"><a xlink:href="class_a_r_tool_manager.html#a4ba91608a57b3aa14fa66857c5b5d337" target="_top" xlink:title="Selecciona la heramienta elegida para el par seleccionado">
<polygon fill="white" stroke="black" points="251.5,-38.5 251.5,-57.5 385.5,-57.5 385.5,-38.5 251.5,-38.5"/>
<text text-anchor="middle" x="318.5" y="-45.5" font-family="Helvetica,sans-Serif" font-size="10.00">ARToolManager.SelectTool</text>
</a>
</g>
</g>
<!-- Node1&#45;&gt;Node5 -->
<g id="edge4" class="edge">
<title>Node1&#45;&gt;Node5</title>
<path fill="none" stroke="midnightblue" d="M156.85,-76.46C186.17,-71.27 222.65,-64.8 253.43,-59.35"/>
<polygon fill="midnightblue" stroke="midnightblue" points="254.39,-62.73 263.63,-57.54 253.17,-55.84 254.39,-62.73"/>
</g>
<!-- Node6 -->
<g id="node6" class="node">
<title>Node6</title>
<g id="a_node6"><a xlink:href="class_a_r_tool_manager.html#afcccae8eba6e44495ff68863fc67c380" target="_top" xlink:title="Elimina el último trazo o marcador colocado por el par seleccionado">
<polygon fill="white" stroke="black" points="245.5,-0.5 245.5,-19.5 391.5,-19.5 391.5,-0.5 245.5,-0.5"/>
<text text-anchor="middle" x="318.5" y="-7.5" font-family="Helvetica,sans-Serif" font-size="10.00">ARToolManager.UndoDrawing</text>
</a>
</g>
</g>
<!-- Node1&#45;&gt;Node6 -->
<g id="edge5" class="edge">
<title>Node1&#45;&gt;Node6</title>
<path fill="none" stroke="midnightblue" d="M123.51,-76.3C149.98,-64.05 197.66,-42.91 240,-29 247.5,-26.54 255.49,-24.23 263.4,-22.13"/>
<polygon fill="midnightblue" stroke="midnightblue" points="264.5,-25.46 273.31,-19.59 262.76,-18.68 264.5,-25.46"/>
</g>
</g>
</svg>
