<?xml version="1.0" encoding="UTF-8" standalone="no"?>
<!DOCTYPE svg PUBLIC "-//W3C//DTD SVG 1.1//EN"
 "http://www.w3.org/Graphics/SVG/1.1/DTD/svg11.dtd">
<!-- Generated by graphviz version 2.49.0 (20210828.1703)
 -->
<!-- Title: PeerConnectionManager.HangUp Pages: 1 -->
<svg width="576pt" height="66pt"
 viewBox="0.00 0.00 576.00 66.00" xmlns="http://www.w3.org/2000/svg" xmlns:xlink="http://www.w3.org/1999/xlink">
<g id="graph0" class="graph" transform="scale(1 1) rotate(0) translate(4 62)">
<title>PeerConnectionManager.HangUp</title>
<polygon fill="white" stroke="transparent" points="-4,4 -4,-62 572,-62 572,4 -4,4"/>
<!-- Node1 -->
<g id="node1" class="node">
<title>Node1</title>
<g id="a_node1"><a xlink:title="Cuelga la videollamada">
<polygon fill="#bfbfbf" stroke="black" points="407,-19.5 407,-38.5 568,-38.5 568,-19.5 407,-19.5"/>
<text text-anchor="middle" x="487.5" y="-26.5" font-family="Helvetica,sans-Serif" font-size="10.00">PeerConnectionManager.HangUp</text>
</a>
</g>
</g>
<!-- Node2 -->
<g id="node2" class="node">
<title>Node2</title>
<g id="a_node2"><a xlink:href="class_peer_connection_manager.html#a2b43b97a9280f9d5dd6dd4634009e566" target="_top" xlink:title="Llamada cuando la conexión se pierde">
<polygon fill="white" stroke="black" points="183,-38.5 183,-57.5 371,-57.5 371,-38.5 183,-38.5"/>
<text text-anchor="middle" x="277" y="-45.5" font-family="Helvetica,sans-Serif" font-size="10.00">PeerConnectionManager.OnDisconnect</text>
</a>
</g>
</g>
<!-- Node1&#45;&gt;Node2 -->
<g id="edge1" class="edge">
<title>Node1&#45;&gt;Node2</title>
<path fill="none" stroke="midnightblue" d="M396.62,-37.19C388.23,-37.96 379.7,-38.73 371.28,-39.5"/>
<polygon fill="midnightblue" stroke="midnightblue" points="397.14,-40.66 406.78,-36.26 396.51,-33.69 397.14,-40.66"/>
</g>
<!-- Node4 -->
<g id="node4" class="node">
<title>Node4</title>
<g id="a_node4"><a xlink:href="class_toolbar_u_i_controller.html#a7c36bd2332e575e710320a80023b93de" target="_top" xlink:title="Llamada justo antes del primer fotograma">
<polygon fill="white" stroke="black" points="216,-0.5 216,-19.5 338,-19.5 338,-0.5 216,-0.5"/>
<text text-anchor="middle" x="277" y="-7.5" font-family="Helvetica,sans-Serif" font-size="10.00">ToolbarUIController.Start</text>
</a>
</g>
</g>
<!-- Node1&#45;&gt;Node4 -->
<g id="edge3" class="edge">
<title>Node1&#45;&gt;Node4</title>
<path fill="none" stroke="midnightblue" d="M396.82,-20.83C377.03,-19.02 356.51,-17.15 338.22,-15.49"/>
<polygon fill="midnightblue" stroke="midnightblue" points="396.51,-24.31 406.78,-21.74 397.14,-17.34 396.51,-24.31"/>
</g>
<!-- Node3 -->
<g id="node3" class="node">
<title>Node3</title>
<g id="a_node3"><a xlink:href="class_peer_connection_manager.html#a058148001392c4d6106cc784ec477256" target="_top" xlink:title="Llamada justo antes del primer fotograma">
<polygon fill="white" stroke="black" points="0,-38.5 0,-57.5 147,-57.5 147,-38.5 0,-38.5"/>
<text text-anchor="middle" x="73.5" y="-45.5" font-family="Helvetica,sans-Serif" font-size="10.00">PeerConnectionManager.Start</text>
</a>
</g>
</g>
<!-- Node2&#45;&gt;Node3 -->
<g id="edge2" class="edge">
<title>Node2&#45;&gt;Node3</title>
<path fill="none" stroke="midnightblue" d="M172.81,-48C164.19,-48 155.59,-48 147.28,-48"/>
<polygon fill="midnightblue" stroke="midnightblue" points="172.92,-51.5 182.92,-48 172.92,-44.5 172.92,-51.5"/>
</g>
</g>
</svg>
