<?xml version="1.0" encoding="UTF-8" standalone="no"?>
<!DOCTYPE svg PUBLIC "-//W3C//DTD SVG 1.1//EN"
 "http://www.w3.org/Graphics/SVG/1.1/DTD/svg11.dtd">
<!-- Generated by graphviz version 2.49.0 (20210828.1703)
 -->
<!-- Title: AppEntryPoint.OnDestroy Pages: 1 -->
<svg width="705pt" height="79pt"
 viewBox="0.00 0.00 705.00 79.10" xmlns="http://www.w3.org/2000/svg" xmlns:xlink="http://www.w3.org/1999/xlink">
<g id="graph0" class="graph" transform="scale(1 1) rotate(0) translate(4 75.1)">
<title>AppEntryPoint.OnDestroy</title>
<polygon fill="white" stroke="transparent" points="-4,4 -4,-75.1 701,-75.1 701,4 -4,4"/>
<!-- Node1 -->
<g id="node1" class="node">
<title>Node1</title>
<g id="a_node1"><a xlink:title="Llamadada cuando se destruye el GameObject asociado">
<polygon fill="#bfbfbf" stroke="black" points="0,-38.5 0,-57.5 129,-57.5 129,-38.5 0,-38.5"/>
<text text-anchor="middle" x="64.5" y="-45.5" font-family="Helvetica,sans-Serif" font-size="10.00">AppEntryPoint.OnDestroy</text>
</a>
</g>
</g>
<!-- Node2 -->
<g id="node2" class="node">
<title>Node2</title>
<g id="a_node2"><a xlink:href="class_app_entry_point.html#a31fdab16b3f5f842587ae877d564b041" target="_top" xlink:title="Lanzado cuando Firebase esta inicializado">
<polygon fill="white" stroke="black" points="165,-38.5 165,-57.5 326,-57.5 326,-38.5 165,-38.5"/>
<text text-anchor="middle" x="245.5" y="-45.5" font-family="Helvetica,sans-Serif" font-size="10.00">AppEntryPoint.OnFirebaseReady</text>
</a>
</g>
</g>
<!-- Node1&#45;&gt;Node2 -->
<g id="edge1" class="edge">
<title>Node1&#45;&gt;Node2</title>
<path fill="none" stroke="midnightblue" d="M129.11,-48C137.42,-48 146.05,-48 154.69,-48"/>
<polygon fill="midnightblue" stroke="midnightblue" points="154.81,-51.5 164.8,-48 154.8,-44.5 154.81,-51.5"/>
</g>
<!-- Node3 -->
<g id="node3" class="node">
<title>Node3</title>
<g id="a_node3"><a xlink:href="class_user_manager.html#a7c046e0a03e5802e7b1936f6ecdefe9e" target="_top" xlink:title="Evalua si el usuario actual esta registrado">
<polygon fill="white" stroke="black" points="545,-38.5 545,-57.5 697,-57.5 697,-38.5 545,-38.5"/>
<text text-anchor="middle" x="621" y="-45.5" font-family="Helvetica,sans-Serif" font-size="10.00">UserManager.IsUserRegistered</text>
</a>
</g>
</g>
<!-- Node2&#45;&gt;Node3 -->
<g id="edge2" class="edge">
<title>Node2&#45;&gt;Node3</title>
<path fill="none" stroke="midnightblue" d="M293.49,-57.51C314.37,-61.28 339.32,-65.15 362,-67 427.12,-72.32 443.9,-72.53 509,-67 527.24,-65.45 546.98,-62.49 564.69,-59.36"/>
<polygon fill="midnightblue" stroke="midnightblue" points="565.65,-62.75 574.86,-57.51 564.39,-55.86 565.65,-62.75"/>
</g>
<!-- Node4 -->
<g id="node4" class="node">
<title>Node4</title>
<g id="a_node4"><a xlink:href="class_my_scene_manager.html#a6787f49b73d5e0c4e80fd67d38f5550a" target="_top" xlink:title="Carga la escena seleccionada">
<polygon fill="white" stroke="black" points="362,-38.5 362,-57.5 509,-57.5 509,-38.5 362,-38.5"/>
<text text-anchor="middle" x="435.5" y="-45.5" font-family="Helvetica,sans-Serif" font-size="10.00">MySceneManager.LoadScene</text>
</a>
</g>
</g>
<!-- Node2&#45;&gt;Node4 -->
<g id="edge3" class="edge">
<title>Node2&#45;&gt;Node4</title>
<path fill="none" stroke="midnightblue" d="M326.23,-48C334.62,-48 343.18,-48 351.61,-48"/>
<polygon fill="midnightblue" stroke="midnightblue" points="351.81,-51.5 361.81,-48 351.81,-44.5 351.81,-51.5"/>
</g>
<!-- Node5 -->
<g id="node5" class="node">
<title>Node5</title>
<g id="a_node5"><a xlink:href="class_user_manager.html#a13aa0147d1c05e969538d0c96a0a060c" target="_top" xlink:title="Loguea al usuario actual">
<polygon fill="white" stroke="black" points="385,-0.5 385,-19.5 486,-19.5 486,-0.5 385,-0.5"/>
<text text-anchor="middle" x="435.5" y="-7.5" font-family="Helvetica,sans-Serif" font-size="10.00">UserManager.LogIn</text>
</a>
</g>
</g>
<!-- Node2&#45;&gt;Node5 -->
<g id="edge4" class="edge">
<title>Node2&#45;&gt;Node5</title>
<path fill="none" stroke="midnightblue" d="M293.94,-38.41C319.31,-33.28 350.73,-26.93 377.42,-21.54"/>
<polygon fill="midnightblue" stroke="midnightblue" points="378.29,-24.93 387.4,-19.52 376.91,-18.07 378.29,-24.93"/>
</g>
<!-- Node5&#45;&gt;Node3 -->
<g id="edge5" class="edge">
<title>Node5&#45;&gt;Node3</title>
<path fill="none" stroke="midnightblue" d="M482.8,-19.59C507.46,-24.69 537.96,-31.01 563.94,-36.39"/>
<polygon fill="midnightblue" stroke="midnightblue" points="563.53,-39.88 574.03,-38.48 564.95,-33.02 563.53,-39.88"/>
</g>
</g>
</svg>
