<?xml version="1.0" encoding="UTF-8" standalone="no"?>
<!DOCTYPE svg PUBLIC "-//W3C//DTD SVG 1.1//EN"
 "http://www.w3.org/Graphics/SVG/1.1/DTD/svg11.dtd">
<!-- Generated by graphviz version 2.49.0 (20210828.1703)
 -->
<!-- Title: RecorderManager.OnApplicationFocus Pages: 1 -->
<svg width="560pt" height="28pt"
 viewBox="0.00 0.00 560.00 28.00" xmlns="http://www.w3.org/2000/svg" xmlns:xlink="http://www.w3.org/1999/xlink">
<g id="graph0" class="graph" transform="scale(1 1) rotate(0) translate(4 24)">
<title>RecorderManager.OnApplicationFocus</title>
<polygon fill="white" stroke="transparent" points="-4,4 -4,-24 556,-24 556,4 -4,4"/>
<!-- Node1 -->
<g id="node1" class="node">
<title>Node1</title>
<g id="a_node1"><a xlink:title="Llamada cuando el foco de la aplicación cambia">
<polygon fill="#bfbfbf" stroke="black" points="0,-0.5 0,-19.5 184,-19.5 184,-0.5 0,-0.5"/>
<text text-anchor="middle" x="92" y="-7.5" font-family="Helvetica,sans-Serif" font-size="10.00">RecorderManager.OnApplicationFocus</text>
</a>
</g>
</g>
<!-- Node2 -->
<g id="node2" class="node">
<title>Node2</title>
<g id="a_node2"><a xlink:href="class_recorder_manager.html#a41f98e5ff08f958dce6d9d957682a7aa" target="_top" xlink:title="Para la grabación">
<polygon fill="white" stroke="black" points="220,-0.5 220,-19.5 380,-19.5 380,-0.5 220,-0.5"/>
<text text-anchor="middle" x="300" y="-7.5" font-family="Helvetica,sans-Serif" font-size="10.00">RecorderManager.StopRecording</text>
</a>
</g>
</g>
<!-- Node1&#45;&gt;Node2 -->
<g id="edge1" class="edge">
<title>Node1&#45;&gt;Node2</title>
<path fill="none" stroke="midnightblue" d="M184.25,-10C192.67,-10 201.19,-10 209.59,-10"/>
<polygon fill="midnightblue" stroke="midnightblue" points="209.76,-13.5 219.76,-10 209.76,-6.5 209.76,-13.5"/>
</g>
<!-- Node3 -->
<g id="node3" class="node">
<title>Node3</title>
<g id="a_node3"><a xlink:href="class_android_utils.html#a3a6673af4346ebfe0019549914a3aeb9" target="_top" xlink:title=" ">
<polygon fill="white" stroke="black" points="416,-0.5 416,-19.5 552,-19.5 552,-0.5 416,-0.5"/>
<text text-anchor="middle" x="484" y="-7.5" font-family="Helvetica,sans-Serif" font-size="10.00">AndroidUtils.StopRecording</text>
</a>
</g>
</g>
<!-- Node2&#45;&gt;Node3 -->
<g id="edge2" class="edge">
<title>Node2&#45;&gt;Node3</title>
<path fill="none" stroke="midnightblue" d="M380.03,-10C388.49,-10 397.09,-10 405.53,-10"/>
<polygon fill="midnightblue" stroke="midnightblue" points="405.72,-13.5 415.72,-10 405.72,-6.5 405.72,-13.5"/>
</g>
</g>
</svg>
