<?xml version="1.0" encoding="UTF-8" standalone="no"?>
<!DOCTYPE svg PUBLIC "-//W3C//DTD SVG 1.1//EN"
 "http://www.w3.org/Graphics/SVG/1.1/DTD/svg11.dtd">
<!-- Generated by graphviz version 2.49.0 (20210828.1703)
 -->
<!-- Title: RoomsController.Start Pages: 1 -->
<svg width="747pt" height="180pt"
 viewBox="0.00 0.00 747.00 180.00" xmlns="http://www.w3.org/2000/svg" xmlns:xlink="http://www.w3.org/1999/xlink">
<g id="graph0" class="graph" transform="scale(1 1) rotate(0) translate(4 176)">
<title>RoomsController.Start</title>
<polygon fill="white" stroke="transparent" points="-4,4 -4,-176 743,-176 743,4 -4,4"/>
<!-- Node1 -->
<g id="node1" class="node">
<title>Node1</title>
<g id="a_node1"><a xlink:title="Llamada justo antes del primer fotograma">
<polygon fill="#bfbfbf" stroke="black" points="0,-95.5 0,-114.5 113,-114.5 113,-95.5 0,-95.5"/>
<text text-anchor="middle" x="56.5" y="-102.5" font-family="Helvetica,sans-Serif" font-size="10.00">RoomsController.Start</text>
</a>
</g>
</g>
<!-- Node2 -->
<g id="node2" class="node">
<title>Node2</title>
<g id="a_node2"><a xlink:href="class_room_manager.html#a7cdb384db8d15a58bc46b46c7bd57c9b" target="_top" xlink:title="Genera un codigo de sala aleatorio">
<polygon fill="white" stroke="black" points="149,-142.5 149,-161.5 306,-161.5 306,-142.5 149,-142.5"/>
<text text-anchor="middle" x="227.5" y="-149.5" font-family="Helvetica,sans-Serif" font-size="10.00">RoomManager.GenerateRoomID</text>
</a>
</g>
</g>
<!-- Node1&#45;&gt;Node2 -->
<g id="edge1" class="edge">
<title>Node1&#45;&gt;Node2</title>
<path fill="none" stroke="midnightblue" d="M91.7,-114.51C117.84,-121.78 154.08,-131.86 182.4,-139.74"/>
<polygon fill="midnightblue" stroke="midnightblue" points="181.49,-143.12 192.06,-142.42 183.37,-136.37 181.49,-143.12"/>
</g>
<!-- Node4 -->
<g id="node4" class="node">
<title>Node4</title>
<g id="a_node4"><a xlink:href="class_rooms_controller.html#adceb5742932fc91d4d08576ee98af251" target="_top" xlink:title="Lleva al usuario actual a la sala seleccionada">
<polygon fill="white" stroke="black" points="160.5,-95.5 160.5,-114.5 294.5,-114.5 294.5,-95.5 160.5,-95.5"/>
<text text-anchor="middle" x="227.5" y="-102.5" font-family="Helvetica,sans-Serif" font-size="10.00">RoomsController.JoinRoom</text>
</a>
</g>
</g>
<!-- Node1&#45;&gt;Node4 -->
<g id="edge3" class="edge">
<title>Node1&#45;&gt;Node4</title>
<path fill="none" stroke="midnightblue" d="M113.31,-105C125.1,-105 137.74,-105 150.14,-105"/>
<polygon fill="midnightblue" stroke="midnightblue" points="150.48,-108.5 160.48,-105 150.48,-101.5 150.48,-108.5"/>
</g>
<!-- Node8 -->
<g id="node8" class="node">
<title>Node8</title>
<g id="a_node8"><a xlink:href="class_sharing_manager.html#a2ef248638c066a17876bf444b0bc3861" target="_top" xlink:title="Comparte un código de sala">
<polygon fill="white" stroke="black" points="157,-38.5 157,-57.5 298,-57.5 298,-38.5 157,-38.5"/>
<text text-anchor="middle" x="227.5" y="-45.5" font-family="Helvetica,sans-Serif" font-size="10.00">SharingManager.ShareRoom</text>
</a>
</g>
</g>
<!-- Node1&#45;&gt;Node8 -->
<g id="edge8" class="edge">
<title>Node1&#45;&gt;Node8</title>
<path fill="none" stroke="midnightblue" d="M85.79,-95.46C113.94,-85.97 157.32,-71.33 188.47,-60.83"/>
<polygon fill="midnightblue" stroke="midnightblue" points="189.76,-64.08 198.12,-57.57 187.53,-57.45 189.76,-64.08"/>
</g>
<!-- Node3 -->
<g id="node3" class="node">
<title>Node3</title>
<g id="a_node3"><a xlink:href="class_database_manager.html#a26b78f4ef7989b67f825194863df0357" target="_top" xlink:title="Evalua si un código de sala existe en base de datos">
<polygon fill="white" stroke="black" points="578,-152.5 578,-171.5 739,-171.5 739,-152.5 578,-152.5"/>
<text text-anchor="middle" x="658.5" y="-159.5" font-family="Helvetica,sans-Serif" font-size="10.00">DatabaseManager.RoomIDExists</text>
</a>
</g>
</g>
<!-- Node2&#45;&gt;Node3 -->
<g id="edge2" class="edge">
<title>Node2&#45;&gt;Node3</title>
<path fill="none" stroke="midnightblue" d="M306.19,-153.81C379.79,-155.53 490.27,-158.1 567.63,-159.91"/>
<polygon fill="midnightblue" stroke="midnightblue" points="567.77,-163.41 577.85,-160.14 567.93,-156.41 567.77,-163.41"/>
</g>
<!-- Node5 -->
<g id="node5" class="node">
<title>Node5</title>
<g id="a_node5"><a xlink:href="class_room_manager.html#a022ae9cafc8dedb55ca839e0d99c5b44" target="_top" xlink:title="Mueve un par a una sala">
<polygon fill="white" stroke="black" points="379.5,-114.5 379.5,-133.5 504.5,-133.5 504.5,-114.5 379.5,-114.5"/>
<text text-anchor="middle" x="442" y="-121.5" font-family="Helvetica,sans-Serif" font-size="10.00">RoomManager.JoinRoom</text>
</a>
</g>
</g>
<!-- Node4&#45;&gt;Node5 -->
<g id="edge4" class="edge">
<title>Node4&#45;&gt;Node5</title>
<path fill="none" stroke="midnightblue" d="M294.57,-110.91C318.24,-113.02 345.02,-115.42 369.16,-117.58"/>
<polygon fill="midnightblue" stroke="midnightblue" points="369.05,-121.08 379.32,-118.48 369.67,-114.11 369.05,-121.08"/>
</g>
<!-- Node7 -->
<g id="node7" class="node">
<title>Node7</title>
<g id="a_node7"><a xlink:href="class_android_utils.html#af3ddee265b4dfc672eddae5699c8fb2b" target="_top" xlink:title=" ">
<polygon fill="white" stroke="black" points="382,-76.5 382,-95.5 502,-95.5 502,-76.5 382,-76.5"/>
<text text-anchor="middle" x="442" y="-83.5" font-family="Helvetica,sans-Serif" font-size="10.00">AndroidUtils.ShowToast</text>
</a>
</g>
</g>
<!-- Node4&#45;&gt;Node7 -->
<g id="edge7" class="edge">
<title>Node4&#45;&gt;Node7</title>
<path fill="none" stroke="midnightblue" d="M294.57,-99.09C319.09,-96.9 346.96,-94.41 371.76,-92.19"/>
<polygon fill="midnightblue" stroke="midnightblue" points="372.17,-95.67 381.82,-91.29 371.55,-88.7 372.17,-95.67"/>
</g>
<!-- Node5&#45;&gt;Node3 -->
<g id="edge6" class="edge">
<title>Node5&#45;&gt;Node3</title>
<path fill="none" stroke="midnightblue" d="M496.85,-133.54C526.17,-138.73 562.65,-145.2 593.43,-150.65"/>
<polygon fill="midnightblue" stroke="midnightblue" points="593.17,-154.16 603.63,-152.46 594.39,-147.27 593.17,-154.16"/>
</g>
<!-- Node6 -->
<g id="node6" class="node">
<title>Node6</title>
<g id="a_node6"><a xlink:href="class_my_scene_manager.html#a6787f49b73d5e0c4e80fd67d38f5550a" target="_top" xlink:title="Carga la escena seleccionada">
<polygon fill="white" stroke="black" points="585,-114.5 585,-133.5 732,-133.5 732,-114.5 585,-114.5"/>
<text text-anchor="middle" x="658.5" y="-121.5" font-family="Helvetica,sans-Serif" font-size="10.00">MySceneManager.LoadScene</text>
</a>
</g>
</g>
<!-- Node5&#45;&gt;Node6 -->
<g id="edge5" class="edge">
<title>Node5&#45;&gt;Node6</title>
<path fill="none" stroke="midnightblue" d="M504.75,-124C526.53,-124 551.38,-124 574.62,-124"/>
<polygon fill="midnightblue" stroke="midnightblue" points="574.82,-127.5 584.82,-124 574.82,-120.5 574.82,-127.5"/>
</g>
<!-- Node9 -->
<g id="node9" class="node">
<title>Node9</title>
<g id="a_node9"><a xlink:href="class_sharing_manager.html#a039a42cca85530f5e71e396bda0bc95b" target="_top" xlink:title="Crea un enlace dinámico a una sala">
<polygon fill="white" stroke="black" points="342,-38.5 342,-57.5 542,-57.5 542,-38.5 342,-38.5"/>
<text text-anchor="middle" x="442" y="-45.5" font-family="Helvetica,sans-Serif" font-size="10.00">SharingManager.CreateDynamicRoomLink</text>
</a>
</g>
</g>
<!-- Node8&#45;&gt;Node9 -->
<g id="edge9" class="edge">
<title>Node8&#45;&gt;Node9</title>
<path fill="none" stroke="midnightblue" d="M298.08,-48C308.94,-48 320.38,-48 331.87,-48"/>
<polygon fill="midnightblue" stroke="midnightblue" points="331.96,-51.5 341.96,-48 331.96,-44.5 331.96,-51.5"/>
</g>
<!-- Node10 -->
<g id="node10" class="node">
<title>Node10</title>
<g id="a_node10"><a xlink:href="class_sharing_manager.html#a1297b7c8e2a23a2f1b179717015405a7" target="_top" xlink:title="Crea el mensaje a compartir">
<polygon fill="white" stroke="black" points="364.5,-0.5 364.5,-19.5 519.5,-19.5 519.5,-0.5 364.5,-0.5"/>
<text text-anchor="middle" x="442" y="-7.5" font-family="Helvetica,sans-Serif" font-size="10.00">SharingManager.ShareMessage</text>
</a>
</g>
</g>
<!-- Node8&#45;&gt;Node10 -->
<g id="edge10" class="edge">
<title>Node8&#45;&gt;Node10</title>
<path fill="none" stroke="midnightblue" d="M281.85,-38.46C310.9,-33.27 347.03,-26.8 377.52,-21.35"/>
<polygon fill="midnightblue" stroke="midnightblue" points="378.4,-24.75 387.63,-19.54 377.17,-17.86 378.4,-24.75"/>
</g>
</g>
</svg>
