<?xml version="1.0" encoding="UTF-8" standalone="no"?>
<!DOCTYPE svg PUBLIC "-//W3C//DTD SVG 1.1//EN"
 "http://www.w3.org/Graphics/SVG/1.1/DTD/svg11.dtd">
<!-- Generated by graphviz version 2.49.0 (20210828.1703)
 -->
<!-- Title: ARText.Update Pages: 1 -->
<svg width="270pt" height="104pt"
 viewBox="0.00 0.00 270.00 104.00" xmlns="http://www.w3.org/2000/svg" xmlns:xlink="http://www.w3.org/1999/xlink">
<g id="graph0" class="graph" transform="scale(1 1) rotate(0) translate(4 100)">
<title>ARText.Update</title>
<polygon fill="white" stroke="transparent" points="-4,4 -4,-100 266,-100 266,4 -4,4"/>
<!-- Node1 -->
<g id="node1" class="node">
<title>Node1</title>
<g id="a_node1"><a xlink:title="Llamada al comienzo de cada fotograma">
<polygon fill="#bfbfbf" stroke="black" points="0,-38.5 0,-57.5 83,-57.5 83,-38.5 0,-38.5"/>
<text text-anchor="middle" x="41.5" y="-45.5" font-family="Helvetica,sans-Serif" font-size="10.00">ARText.Update</text>
</a>
</g>
</g>
<!-- Node2 -->
<g id="node2" class="node">
<title>Node2</title>
<g id="a_node2"><a xlink:href="class_a_r_text.html#ae9e02502945c44635028ea4c0a29553c" target="_top" xlink:title="Coloca el texto en la posicion seleccionada">
<polygon fill="white" stroke="black" points="141,-76.5 141,-95.5 240,-95.5 240,-76.5 141,-76.5"/>
<text text-anchor="middle" x="190.5" y="-83.5" font-family="Helvetica,sans-Serif" font-size="10.00">ARText.AddMarker</text>
</a>
</g>
</g>
<!-- Node1&#45;&gt;Node2 -->
<g id="edge1" class="edge">
<title>Node1&#45;&gt;Node2</title>
<path fill="none" stroke="midnightblue" d="M79.59,-57.59C98.82,-62.56 122.49,-68.68 142.93,-73.96"/>
<polygon fill="midnightblue" stroke="midnightblue" points="142.11,-77.37 152.67,-76.48 143.87,-70.59 142.11,-77.37"/>
</g>
<!-- Node3 -->
<g id="node3" class="node">
<title>Node3</title>
<g id="a_node3"><a xlink:href="class_my_input_manager.html#a491307ed67b25b941ef431d5bdbdad6c" target="_top" xlink:title=" ">
<polygon fill="white" stroke="black" points="119,-38.5 119,-57.5 262,-57.5 262,-38.5 119,-38.5"/>
<text text-anchor="middle" x="190.5" y="-45.5" font-family="Helvetica,sans-Serif" font-size="10.00">MyInputManager.IsHeldDown</text>
</a>
</g>
</g>
<!-- Node1&#45;&gt;Node3 -->
<g id="edge2" class="edge">
<title>Node1&#45;&gt;Node3</title>
<path fill="none" stroke="midnightblue" d="M83.06,-48C91.15,-48 99.91,-48 108.81,-48"/>
<polygon fill="midnightblue" stroke="midnightblue" points="108.89,-51.5 118.89,-48 108.89,-44.5 108.89,-51.5"/>
</g>
<!-- Node4 -->
<g id="node4" class="node">
<title>Node4</title>
<g id="a_node4"><a xlink:href="class_a_r_tool_manager.html#a86782ee29e1327a2f4ab387d8438c6a7" target="_top" xlink:title="Coloca una guía en un trazo o marcador del par selecionado">
<polygon fill="white" stroke="black" points="121,-0.5 121,-19.5 260,-19.5 260,-0.5 121,-0.5"/>
<text text-anchor="middle" x="190.5" y="-7.5" font-family="Helvetica,sans-Serif" font-size="10.00">ARToolManager.PlaceGuide</text>
</a>
</g>
</g>
<!-- Node1&#45;&gt;Node4 -->
<g id="edge3" class="edge">
<title>Node1&#45;&gt;Node4</title>
<path fill="none" stroke="midnightblue" d="M79.59,-38.41C98.82,-33.44 122.49,-27.32 142.93,-22.04"/>
<polygon fill="midnightblue" stroke="midnightblue" points="143.87,-25.41 152.67,-19.52 142.11,-18.63 143.87,-25.41"/>
</g>
</g>
</svg>
