<?xml version="1.0" encoding="UTF-8" standalone="no"?>
<!DOCTYPE svg PUBLIC "-//W3C//DTD SVG 1.1//EN"
 "http://www.w3.org/Graphics/SVG/1.1/DTD/svg11.dtd">
<!-- Generated by graphviz version 2.49.0 (20210828.1703)
 -->
<!-- Title: Message Pages: 1 -->
<svg width="155pt" height="182pt"
 viewBox="0.00 0.00 155.00 182.00" xmlns="http://www.w3.org/2000/svg" xmlns:xlink="http://www.w3.org/1999/xlink">
<g id="graph0" class="graph" transform="scale(1 1) rotate(0) translate(4 178)">
<title>Message</title>
<polygon fill="white" stroke="transparent" points="-4,4 -4,-178 151,-178 151,4 -4,4"/>
<!-- Node1 -->
<g id="node1" class="node">
<title>Node1</title>
<g id="a_node1"><a xlink:title="Representa un mensaje enviado para realizar una conexión WebRTC">
<polygon fill="#bfbfbf" stroke="black" points="18.5,-0.5 18.5,-57.5 128.5,-57.5 128.5,-0.5 18.5,-0.5"/>
<text text-anchor="middle" x="73.5" y="-45.5" font-family="Helvetica,sans-Serif" font-size="10.00">Message</text>
<polyline fill="none" stroke="black" points="18.5,-38.5 128.5,-38.5 "/>
<text text-anchor="start" x="26.5" y="-26.5" font-family="Helvetica,sans-Serif" font-size="10.00">+ PeerType peerType</text>
<polyline fill="none" stroke="black" points="18.5,-19.5 128.5,-19.5 "/>
<text text-anchor="middle" x="73.5" y="-7.5" font-family="Helvetica,sans-Serif" font-size="10.00"> </text>
</a>
</g>
</g>
<!-- Node2 -->
<g id="node2" class="node">
<title>Node2</title>
<g id="a_node2"><a xlink:href="class_data.html" target="_top" xlink:title="Representa los datos necesarios para poder realizar una conexión WebRTC">
<polygon fill="white" stroke="black" points="0,-105.5 0,-173.5 147,-173.5 147,-105.5 0,-105.5"/>
<text text-anchor="middle" x="73.5" y="-161.5" font-family="Helvetica,sans-Serif" font-size="10.00">Data</text>
<polyline fill="none" stroke="black" points="0,-154.5 147,-154.5 "/>
<text text-anchor="start" x="8" y="-142.5" font-family="Helvetica,sans-Serif" font-size="10.00">+ RTCIceCandidateInit ice</text>
<text text-anchor="start" x="8" y="-131.5" font-family="Helvetica,sans-Serif" font-size="10.00">+ RTCSessionDescription sdp</text>
<polyline fill="none" stroke="black" points="0,-124.5 147,-124.5 "/>
<text text-anchor="middle" x="73.5" y="-112.5" font-family="Helvetica,sans-Serif" font-size="10.00"> </text>
</a>
</g>
</g>
<!-- Node2&#45;&gt;Node1 -->
<g id="edge1" class="edge">
<title>Node2&#45;&gt;Node1</title>
<path fill="none" stroke="#404040" d="M73.5,-105.36C73.5,-94.19 73.5,-81.61 73.5,-69.97"/>
<polygon fill="none" stroke="#404040" points="73.5,-69.83 69.5,-63.83 73.5,-57.83 77.5,-63.83 73.5,-69.83"/>
<text text-anchor="middle" x="87.5" y="-79" font-family="Helvetica,sans-Serif" font-size="10.00"> +data</text>
</g>
</g>
</svg>
