<?xml version="1.0" encoding="UTF-8" standalone="no"?>
<!DOCTYPE svg PUBLIC "-//W3C//DTD SVG 1.1//EN"
 "http://www.w3.org/Graphics/SVG/1.1/DTD/svg11.dtd">
<!-- Generated by graphviz version 2.49.0 (20210828.1703)
 -->
<!-- Title: ToolbarUIController Pages: 1 -->
<svg width="1251pt" height="1986pt"
 viewBox="0.00 0.00 1251.00 1986.00" xmlns="http://www.w3.org/2000/svg" xmlns:xlink="http://www.w3.org/1999/xlink">
<g id="graph0" class="graph" transform="scale(1 1) rotate(0) translate(4 1982)">
<title>ToolbarUIController</title>
<polygon fill="white" stroke="transparent" points="-4,4 -4,-1982 1247,-1982 1247,4 -4,4"/>
<!-- Node1 -->
<g id="node1" class="node">
<title>Node1</title>
<g id="a_node1"><a xlink:title="Controla la interfaz de la barra de heramientas en una videollamada o grabación">
<polygon fill="#bfbfbf" stroke="black" points="560.5,-0.5 560.5,-288.5 816.5,-288.5 816.5,-0.5 560.5,-0.5"/>
<text text-anchor="middle" x="688.5" y="-276.5" font-family="Helvetica,sans-Serif" font-size="10.00">ToolbarUIController</text>
<polyline fill="none" stroke="black" points="560.5,-269.5 816.5,-269.5 "/>
<text text-anchor="start" x="568.5" y="-257.5" font-family="Helvetica,sans-Serif" font-size="10.00">+ PeerType peer</text>
<text text-anchor="start" x="568.5" y="-246.5" font-family="Helvetica,sans-Serif" font-size="10.00">+ bool isRecording</text>
<text text-anchor="start" x="568.5" y="-235.5" font-family="Helvetica,sans-Serif" font-size="10.00">+ GameObject deleteBar</text>
<text text-anchor="start" x="568.5" y="-224.5" font-family="Helvetica,sans-Serif" font-size="10.00">+ GameObject arToolsBar</text>
<text text-anchor="start" x="568.5" y="-213.5" font-family="Helvetica,sans-Serif" font-size="10.00">+ GameObject colorsBar</text>
<text text-anchor="start" x="568.5" y="-202.5" font-family="Helvetica,sans-Serif" font-size="10.00">&#45; Button undo</text>
<text text-anchor="start" x="568.5" y="-191.5" font-family="Helvetica,sans-Serif" font-size="10.00">&#45; Button deleteBtn</text>
<text text-anchor="start" x="568.5" y="-180.5" font-family="Helvetica,sans-Serif" font-size="10.00">&#45; Button deleteMine</text>
<text text-anchor="start" x="568.5" y="-169.5" font-family="Helvetica,sans-Serif" font-size="10.00">&#45; Button deleteAll</text>
<text text-anchor="start" x="568.5" y="-158.5" font-family="Helvetica,sans-Serif" font-size="10.00">&#45; GameObject selectedTool</text>
<text text-anchor="start" x="568.5" y="-147.5" font-family="Helvetica,sans-Serif" font-size="10.00">&#45; GameObject tool1</text>
<text text-anchor="start" x="568.5" y="-136.5" font-family="Helvetica,sans-Serif" font-size="10.00">&#45; GameObject tool2</text>
<text text-anchor="start" x="568.5" y="-125.5" font-family="Helvetica,sans-Serif" font-size="10.00">&#45; GameObject tool3</text>
<text text-anchor="start" x="568.5" y="-114.5" font-family="Helvetica,sans-Serif" font-size="10.00">&#45; GameObject selectedColor</text>
<text text-anchor="start" x="568.5" y="-103.5" font-family="Helvetica,sans-Serif" font-size="10.00">&#45; GameObject color1</text>
<text text-anchor="start" x="568.5" y="-92.5" font-family="Helvetica,sans-Serif" font-size="10.00">&#45; GameObject color2</text>
<text text-anchor="start" x="568.5" y="-81.5" font-family="Helvetica,sans-Serif" font-size="10.00">&#45; GameObject color3</text>
<text text-anchor="start" x="568.5" y="-70.5" font-family="Helvetica,sans-Serif" font-size="10.00">&#45; Button actionBtn</text>
<polyline fill="none" stroke="black" points="560.5,-63.5 816.5,-63.5 "/>
<text text-anchor="start" x="568.5" y="-51.5" font-family="Helvetica,sans-Serif" font-size="10.00">&#45; void Awake()</text>
<text text-anchor="start" x="568.5" y="-40.5" font-family="Helvetica,sans-Serif" font-size="10.00">&#45; void Start()</text>
<text text-anchor="start" x="568.5" y="-29.5" font-family="Helvetica,sans-Serif" font-size="10.00">&#45; void SelectBarElement(GameObject bar, GameObject</text>
<text text-anchor="start" x="568.5" y="-18.5" font-family="Helvetica,sans-Serif" font-size="10.00"> clickedElement)</text>
<text text-anchor="start" x="568.5" y="-7.5" font-family="Helvetica,sans-Serif" font-size="10.00">&#45; void ToggleBar(GameObject bar)</text>
</a>
</g>
</g>
<!-- Node2 -->
<g id="node2" class="node">
<title>Node2</title>
<g id="a_node2"><a xlink:title=" ">
<polygon fill="white" stroke="#bfbfbf" points="432,-1920.5 432,-1977.5 515,-1977.5 515,-1920.5 432,-1920.5"/>
<text text-anchor="middle" x="473.5" y="-1965.5" font-family="Helvetica,sans-Serif" font-size="10.00">MonoBehaviour</text>
<polyline fill="none" stroke="#bfbfbf" points="432,-1958.5 515,-1958.5 "/>
<text text-anchor="middle" x="473.5" y="-1946.5" font-family="Helvetica,sans-Serif" font-size="10.00"> </text>
<polyline fill="none" stroke="#bfbfbf" points="432,-1939.5 515,-1939.5 "/>
<text text-anchor="middle" x="473.5" y="-1927.5" font-family="Helvetica,sans-Serif" font-size="10.00"> </text>
</a>
</g>
</g>
<!-- Node2&#45;&gt;Node1 -->
<g id="edge1" class="edge">
<title>Node2&#45;&gt;Node1</title>
<path fill="none" stroke="midnightblue" d="M421.49,-1946.7C321.34,-1943.14 106.8,-1930.09 52.5,-1883 -7.51,-1830.96 0.5,-1791.44 0.5,-1712 0.5,-1712 0.5,-1712 0.5,-529 0.5,-275.5 361.25,-188.04 560.3,-159.08"/>
<polygon fill="none" stroke="midnightblue" points="421.57,-1950.2 431.68,-1947.04 421.81,-1943.21 421.57,-1950.2"/>
</g>
<!-- Node3 -->
<g id="node3" class="node">
<title>Node3</title>
<g id="a_node3"><a xlink:href="class_peer_connection_manager.html" target="_top" xlink:title="Maneja la lógica de una conexión entre dos pares">
<polygon fill="white" stroke="black" points="310.5,-336.5 310.5,-723.5 618.5,-723.5 618.5,-336.5 310.5,-336.5"/>
<text text-anchor="middle" x="464.5" y="-711.5" font-family="Helvetica,sans-Serif" font-size="10.00">PeerConnectionManager</text>
<polyline fill="none" stroke="black" points="310.5,-704.5 618.5,-704.5 "/>
<text text-anchor="start" x="318.5" y="-692.5" font-family="Helvetica,sans-Serif" font-size="10.00">+ PeerType myPeerType</text>
<text text-anchor="start" x="318.5" y="-681.5" font-family="Helvetica,sans-Serif" font-size="10.00">&#45; RTCDataChannel clientInputDataChannel</text>
<text text-anchor="start" x="318.5" y="-670.5" font-family="Helvetica,sans-Serif" font-size="10.00">&#45; RTCDataChannel aspectRatioDataChannel</text>
<text text-anchor="start" x="318.5" y="-659.5" font-family="Helvetica,sans-Serif" font-size="10.00">&#45; RTCDataChannel clientActionDataChannel</text>
<text text-anchor="start" x="318.5" y="-648.5" font-family="Helvetica,sans-Serif" font-size="10.00">&#45; RTCConfiguration RTCconfig</text>
<text text-anchor="start" x="318.5" y="-637.5" font-family="Helvetica,sans-Serif" font-size="10.00">&#45; RTCPeerConnection pc</text>
<text text-anchor="start" x="318.5" y="-626.5" font-family="Helvetica,sans-Serif" font-size="10.00">&#45; RTCRtpSender videoSender</text>
<text text-anchor="start" x="318.5" y="-615.5" font-family="Helvetica,sans-Serif" font-size="10.00">&#45; MediaStream mediaStream</text>
<text text-anchor="start" x="318.5" y="-604.5" font-family="Helvetica,sans-Serif" font-size="10.00">&#45; RTCRtpSender audioSender</text>
<polyline fill="none" stroke="black" points="310.5,-597.5 618.5,-597.5 "/>
<text text-anchor="start" x="318.5" y="-585.5" font-family="Helvetica,sans-Serif" font-size="10.00">+ void HangUp()</text>
<text text-anchor="start" x="318.5" y="-574.5" font-family="Helvetica,sans-Serif" font-size="10.00">&#45; void Awake()</text>
<text text-anchor="start" x="318.5" y="-563.5" font-family="Helvetica,sans-Serif" font-size="10.00">&#45; void OnClientReadyDelegate()</text>
<text text-anchor="start" x="318.5" y="-552.5" font-family="Helvetica,sans-Serif" font-size="10.00">&#45; void OnMessageReceivedDelegate(Message msg)</text>
<text text-anchor="start" x="318.5" y="-541.5" font-family="Helvetica,sans-Serif" font-size="10.00">&#45; void Update()</text>
<text text-anchor="start" x="318.5" y="-530.5" font-family="Helvetica,sans-Serif" font-size="10.00">&#45; void EnableAudioStream(bool enabled)</text>
<text text-anchor="start" x="318.5" y="-519.5" font-family="Helvetica,sans-Serif" font-size="10.00">&#45; async void Start()</text>
<text text-anchor="start" x="318.5" y="-508.5" font-family="Helvetica,sans-Serif" font-size="10.00">&#45; bool SetVideoParameters()</text>
<text text-anchor="start" x="318.5" y="-497.5" font-family="Helvetica,sans-Serif" font-size="10.00">&#45; bool SetAudioParameters()</text>
<text text-anchor="start" x="318.5" y="-486.5" font-family="Helvetica,sans-Serif" font-size="10.00">&#45; void AddTracks()</text>
<text text-anchor="start" x="318.5" y="-475.5" font-family="Helvetica,sans-Serif" font-size="10.00">&#45; void AddDataChannels()</text>
<text text-anchor="start" x="318.5" y="-464.5" font-family="Helvetica,sans-Serif" font-size="10.00">&#45; IEnumerator Call()</text>
<text text-anchor="start" x="318.5" y="-453.5" font-family="Helvetica,sans-Serif" font-size="10.00">&#45; void OnSceneUnloaded&lt; Scene &gt;(Scene scene)</text>
<text text-anchor="start" x="318.5" y="-442.5" font-family="Helvetica,sans-Serif" font-size="10.00">&#45; void OnApplicationPause(bool paused)</text>
<text text-anchor="start" x="318.5" y="-431.5" font-family="Helvetica,sans-Serif" font-size="10.00">&#45; void OnApplicationFocus(bool focused)</text>
<text text-anchor="start" x="318.5" y="-420.5" font-family="Helvetica,sans-Serif" font-size="10.00">&#45; void OnDestroy()</text>
<text text-anchor="start" x="318.5" y="-409.5" font-family="Helvetica,sans-Serif" font-size="10.00">&#45; void OnDisconnect()</text>
<text text-anchor="start" x="318.5" y="-398.5" font-family="Helvetica,sans-Serif" font-size="10.00">&#45; IEnumerator ReadMessageDB(Message msg)</text>
<text text-anchor="start" x="318.5" y="-387.5" font-family="Helvetica,sans-Serif" font-size="10.00">&#45; async void UnReadyUser()</text>
<text text-anchor="start" x="318.5" y="-376.5" font-family="Helvetica,sans-Serif" font-size="10.00">&#45; async void ReadyUser()</text>
<text text-anchor="start" x="318.5" y="-365.5" font-family="Helvetica,sans-Serif" font-size="10.00">&#45; RTCIceCandidateInit InitIceCandidate(RTCIceCandidate candidate)</text>
<text text-anchor="start" x="318.5" y="-354.5" font-family="Helvetica,sans-Serif" font-size="10.00">&#45; bool ImHost()</text>
<text text-anchor="start" x="318.5" y="-343.5" font-family="Helvetica,sans-Serif" font-size="10.00">&#45; static RTCConfiguration ServersConfig()</text>
</a>
</g>
</g>
<!-- Node2&#45;&gt;Node3 -->
<g id="edge3" class="edge">
<title>Node2&#45;&gt;Node3</title>
<path fill="none" stroke="midnightblue" d="M421.76,-1941.75C350.76,-1932.23 228.12,-1912.07 194.5,-1883 63.77,-1769.96 84.62,-1690.81 52.5,-1521 13.19,-1313.13 26.83,-1254.99 52.5,-1045 67.72,-920.46 49.4,-874.38 120.5,-771 168.16,-701.7 242.84,-646.08 310.45,-605.9"/>
<polygon fill="none" stroke="midnightblue" points="421.47,-1945.24 431.84,-1943.08 422.38,-1938.3 421.47,-1945.24"/>
</g>
<!-- Node4 -->
<g id="node4" class="node">
<title>Node4</title>
<g id="a_node4"><a xlink:href="class_my_input_manager.html" target="_top" xlink:title=" ">
<polygon fill="white" stroke="black" points="237,-793.5 237,-1004.5 428,-1004.5 428,-793.5 237,-793.5"/>
<text text-anchor="middle" x="332.5" y="-992.5" font-family="Helvetica,sans-Serif" font-size="10.00">MyInputManager</text>
<polyline fill="none" stroke="black" points="237,-985.5 428,-985.5 "/>
<text text-anchor="start" x="245" y="-973.5" font-family="Helvetica,sans-Serif" font-size="10.00">+ PeerType myPeerType</text>
<text text-anchor="start" x="245" y="-962.5" font-family="Helvetica,sans-Serif" font-size="10.00">+ bool recording</text>
<text text-anchor="start" x="245" y="-951.5" font-family="Helvetica,sans-Serif" font-size="10.00">+ Vector3 hostPosition</text>
<text text-anchor="start" x="245" y="-940.5" font-family="Helvetica,sans-Serif" font-size="10.00">+ Vector3 clientPosition</text>
<text text-anchor="start" x="245" y="-929.5" font-family="Helvetica,sans-Serif" font-size="10.00">+ TouchScreenKeyboard clientKeyboard</text>
<text text-anchor="start" x="245" y="-918.5" font-family="Helvetica,sans-Serif" font-size="10.00">&#45; float scaledPixelRatioX</text>
<text text-anchor="start" x="245" y="-907.5" font-family="Helvetica,sans-Serif" font-size="10.00">&#45; float scaledPixelRatioY</text>
<text text-anchor="start" x="245" y="-896.5" font-family="Helvetica,sans-Serif" font-size="10.00">&#45; float clientAspectRatio</text>
<text text-anchor="start" x="245" y="-885.5" font-family="Helvetica,sans-Serif" font-size="10.00">&#45; int croppedScreenWidth</text>
<text text-anchor="start" x="245" y="-874.5" font-family="Helvetica,sans-Serif" font-size="10.00">&#45; int croppedScreenHeight</text>
<text text-anchor="start" x="245" y="-863.5" font-family="Helvetica,sans-Serif" font-size="10.00">&#45; int offsetX</text>
<text text-anchor="start" x="245" y="-852.5" font-family="Helvetica,sans-Serif" font-size="10.00">&#45; int offsetY</text>
<polyline fill="none" stroke="black" points="237,-845.5 428,-845.5 "/>
<text text-anchor="start" x="245" y="-833.5" font-family="Helvetica,sans-Serif" font-size="10.00">+ bool IsHeldDown(PeerType peer)</text>
<text text-anchor="start" x="245" y="-822.5" font-family="Helvetica,sans-Serif" font-size="10.00">&#45; void Awake()</text>
<text text-anchor="start" x="245" y="-811.5" font-family="Helvetica,sans-Serif" font-size="10.00">&#45; void Start()</text>
<text text-anchor="start" x="245" y="-800.5" font-family="Helvetica,sans-Serif" font-size="10.00">&#45; void Update()</text>
</a>
</g>
</g>
<!-- Node2&#45;&gt;Node4 -->
<g id="edge5" class="edge">
<title>Node2&#45;&gt;Node4</title>
<path fill="none" stroke="midnightblue" d="M422.6,-1928.75C402.47,-1918.39 381.34,-1903.45 369.5,-1883 364.05,-1873.59 343.84,-1256.47 335.81,-1004.96"/>
<polygon fill="none" stroke="midnightblue" points="421.22,-1931.97 431.74,-1933.19 424.28,-1925.67 421.22,-1931.97"/>
</g>
<!-- Node5 -->
<g id="node5" class="node">
<title>Node5</title>
<g id="a_node5"><a xlink:href="class_video_manager.html" target="_top" xlink:title="Maneja la lógica de la grabación y visualización de video">
<polygon fill="white" stroke="black" points="379,-1561.5 379,-1860.5 568,-1860.5 568,-1561.5 379,-1561.5"/>
<text text-anchor="middle" x="473.5" y="-1848.5" font-family="Helvetica,sans-Serif" font-size="10.00">VideoManager</text>
<polyline fill="none" stroke="black" points="379,-1841.5 568,-1841.5 "/>
<text text-anchor="start" x="387" y="-1829.5" font-family="Helvetica,sans-Serif" font-size="10.00">+ int width</text>
<text text-anchor="start" x="387" y="-1818.5" font-family="Helvetica,sans-Serif" font-size="10.00">+ int height</text>
<text text-anchor="start" x="387" y="-1807.5" font-family="Helvetica,sans-Serif" font-size="10.00">+ float aspectRatio</text>
<text text-anchor="start" x="387" y="-1796.5" font-family="Helvetica,sans-Serif" font-size="10.00">+ ulong bitrate</text>
<text text-anchor="start" x="387" y="-1785.5" font-family="Helvetica,sans-Serif" font-size="10.00">+ uint framerate</text>
<text text-anchor="start" x="387" y="-1774.5" font-family="Helvetica,sans-Serif" font-size="10.00">+ bool isRecording</text>
<text text-anchor="start" x="387" y="-1763.5" font-family="Helvetica,sans-Serif" font-size="10.00">+ RawImage videoRawImage</text>
<text text-anchor="start" x="387" y="-1752.5" font-family="Helvetica,sans-Serif" font-size="10.00">+ VideoStreamTrack videoStreamTrack</text>
<text text-anchor="start" x="387" y="-1741.5" font-family="Helvetica,sans-Serif" font-size="10.00">+ bool videoDisabled</text>
<text text-anchor="start" x="387" y="-1730.5" font-family="Helvetica,sans-Serif" font-size="10.00">+ Camera mainCam</text>
<text text-anchor="start" x="387" y="-1719.5" font-family="Helvetica,sans-Serif" font-size="10.00">+ ARSession arSession</text>
<text text-anchor="start" x="387" y="-1708.5" font-family="Helvetica,sans-Serif" font-size="10.00">&#45; Camera arCam</text>
<text text-anchor="start" x="387" y="-1697.5" font-family="Helvetica,sans-Serif" font-size="10.00">&#45; Camera webCam</text>
<text text-anchor="start" x="387" y="-1686.5" font-family="Helvetica,sans-Serif" font-size="10.00">&#45; RawImage webCamRawImage</text>
<text text-anchor="start" x="387" y="-1675.5" font-family="Helvetica,sans-Serif" font-size="10.00">&#45; WebCamTexture webcamTexture</text>
<text text-anchor="start" x="387" y="-1664.5" font-family="Helvetica,sans-Serif" font-size="10.00">&#45; GameObject noVideoAR</text>
<text text-anchor="start" x="387" y="-1653.5" font-family="Helvetica,sans-Serif" font-size="10.00">&#45; GameObject noVideoUI</text>
<text text-anchor="start" x="387" y="-1642.5" font-family="Helvetica,sans-Serif" font-size="10.00">&#45; Canvas arToolTipsUI</text>
<polyline fill="none" stroke="black" points="379,-1635.5 568,-1635.5 "/>
<text text-anchor="start" x="387" y="-1623.5" font-family="Helvetica,sans-Serif" font-size="10.00">+ VideoStreamTrack RecordCamera()</text>
<text text-anchor="start" x="387" y="-1612.5" font-family="Helvetica,sans-Serif" font-size="10.00">+ void ShowVideo(bool show)</text>
<text text-anchor="start" x="387" y="-1601.5" font-family="Helvetica,sans-Serif" font-size="10.00">+ bool ToggleVideo()</text>
<text text-anchor="start" x="387" y="-1590.5" font-family="Helvetica,sans-Serif" font-size="10.00">&#45; void Awake()</text>
<text text-anchor="start" x="387" y="-1579.5" font-family="Helvetica,sans-Serif" font-size="10.00">&#45; void Start()</text>
<text text-anchor="start" x="387" y="-1568.5" font-family="Helvetica,sans-Serif" font-size="10.00">&#45; void OnApplicationPause(bool paused)</text>
</a>
</g>
</g>
<!-- Node2&#45;&gt;Node5 -->
<g id="edge7" class="edge">
<title>Node2&#45;&gt;Node5</title>
<path fill="none" stroke="midnightblue" d="M473.5,-1910.2C473.5,-1895.97 473.5,-1878.8 473.5,-1860.58"/>
<polygon fill="none" stroke="midnightblue" points="470,-1910.47 473.5,-1920.47 477,-1910.47 470,-1910.47"/>
</g>
<!-- Node6 -->
<g id="node6" class="node">
<title>Node6</title>
<g id="a_node6"><a xlink:href="class_audio_manager.html" target="_top" xlink:title="Maneja la lógica de la captura y reproducción de audio">
<polygon fill="white" stroke="black" points="54,-1045.5 54,-1520.5 335,-1520.5 335,-1045.5 54,-1045.5"/>
<text text-anchor="middle" x="194.5" y="-1508.5" font-family="Helvetica,sans-Serif" font-size="10.00">AudioManager</text>
<polyline fill="none" stroke="black" points="54,-1501.5 335,-1501.5 "/>
<text text-anchor="start" x="62" y="-1489.5" font-family="Helvetica,sans-Serif" font-size="10.00">+ bool audioReady</text>
<text text-anchor="start" x="62" y="-1478.5" font-family="Helvetica,sans-Serif" font-size="10.00">+ AudioSource outputAudioSource</text>
<text text-anchor="start" x="62" y="-1467.5" font-family="Helvetica,sans-Serif" font-size="10.00">+ AudioSource inputAudioSource</text>
<text text-anchor="start" x="62" y="-1456.5" font-family="Helvetica,sans-Serif" font-size="10.00">+ int bufferSize</text>
<text text-anchor="start" x="62" y="-1445.5" font-family="Helvetica,sans-Serif" font-size="10.00">+ ulong? bitrate</text>
<text text-anchor="start" x="62" y="-1434.5" font-family="Helvetica,sans-Serif" font-size="10.00">&#45; AudioStreamTrack audioStreamTrack</text>
<text text-anchor="start" x="62" y="-1423.5" font-family="Helvetica,sans-Serif" font-size="10.00">&#45; int lengthSeconds</text>
<text text-anchor="start" x="62" y="-1412.5" font-family="Helvetica,sans-Serif" font-size="10.00">&#45; int samplingFreq</text>
<text text-anchor="start" x="62" y="-1401.5" font-family="Helvetica,sans-Serif" font-size="10.00">&#45; AndroidJavaObject context</text>
<text text-anchor="start" x="62" y="-1390.5" font-family="Helvetica,sans-Serif" font-size="10.00">&#45; AndroidJavaObject androidAudioManager</text>
<text text-anchor="start" x="62" y="-1379.5" font-family="Helvetica,sans-Serif" font-size="10.00">&#45; int defaultMode</text>
<text text-anchor="start" x="62" y="-1368.5" font-family="Helvetica,sans-Serif" font-size="10.00">&#45; bool defaultIsSpeakerphone</text>
<text text-anchor="start" x="62" y="-1357.5" font-family="Helvetica,sans-Serif" font-size="10.00">&#45; int voiceMinVol</text>
<text text-anchor="start" x="62" y="-1346.5" font-family="Helvetica,sans-Serif" font-size="10.00">&#45; int mediaMinVol</text>
<text text-anchor="start" x="62" y="-1335.5" font-family="Helvetica,sans-Serif" font-size="10.00">&#45; int voiceMaxVol</text>
<text text-anchor="start" x="62" y="-1324.5" font-family="Helvetica,sans-Serif" font-size="10.00">&#45; int mediaMaxVol</text>
<text text-anchor="start" x="62" y="-1313.5" font-family="Helvetica,sans-Serif" font-size="10.00">&#45; int originalMediaVol</text>
<text text-anchor="start" x="62" y="-1302.5" font-family="Helvetica,sans-Serif" font-size="10.00">&#45; PermissionCallbacks microphoneCallbacks</text>
<text text-anchor="start" x="62" y="-1291.5" font-family="Helvetica,sans-Serif" font-size="10.00">&#45; bool muted</text>
<text text-anchor="start" x="62" y="-1280.5" font-family="Helvetica,sans-Serif" font-size="10.00">&#45; string communicationDevice</text>
<text text-anchor="start" x="62" y="-1269.5" font-family="Helvetica,sans-Serif" font-size="10.00">&#45; float[] spectrum</text>
<text text-anchor="start" x="62" y="-1258.5" font-family="Helvetica,sans-Serif" font-size="10.00">&#45; int voiceVolume</text>
<text text-anchor="start" x="62" y="-1247.5" font-family="Helvetica,sans-Serif" font-size="10.00">&#45; int lastCallVolume</text>
<polyline fill="none" stroke="black" points="54,-1240.5 335,-1240.5 "/>
<text text-anchor="start" x="62" y="-1228.5" font-family="Helvetica,sans-Serif" font-size="10.00">+ bool ToggleMuteInput()</text>
<text text-anchor="start" x="62" y="-1217.5" font-family="Helvetica,sans-Serif" font-size="10.00">+ bool ToggleMuteOutput()</text>
<text text-anchor="start" x="62" y="-1206.5" font-family="Helvetica,sans-Serif" font-size="10.00">+ AudioStreamTrack RecordAudio()</text>
<text text-anchor="start" x="62" y="-1195.5" font-family="Helvetica,sans-Serif" font-size="10.00">+ void PlayAudio(AudioClip clip)</text>
<text text-anchor="start" x="62" y="-1184.5" font-family="Helvetica,sans-Serif" font-size="10.00">+ float GetVolume(AudioSource audioSource)</text>
<text text-anchor="start" x="62" y="-1173.5" font-family="Helvetica,sans-Serif" font-size="10.00">&#45; void Awake()</text>
<text text-anchor="start" x="62" y="-1162.5" font-family="Helvetica,sans-Serif" font-size="10.00">&#45; void Start()</text>
<text text-anchor="start" x="62" y="-1151.5" font-family="Helvetica,sans-Serif" font-size="10.00">&#45; void Update()</text>
<text text-anchor="start" x="62" y="-1140.5" font-family="Helvetica,sans-Serif" font-size="10.00">&#45; void SetVideocallAudio(int mode, bool isSpeakerphoneOn)</text>
<text text-anchor="start" x="62" y="-1129.5" font-family="Helvetica,sans-Serif" font-size="10.00">&#45; float scaleValueToRange(float value, float</text>
<text text-anchor="start" x="62" y="-1118.5" font-family="Helvetica,sans-Serif" font-size="10.00"> valueMin, float valueMax, float rangeMin,</text>
<text text-anchor="start" x="62" y="-1107.5" font-family="Helvetica,sans-Serif" font-size="10.00"> float rangeMax)</text>
<text text-anchor="start" x="62" y="-1096.5" font-family="Helvetica,sans-Serif" font-size="10.00">&#45; void MicrophonePermissionGranted(string permissionName)</text>
<text text-anchor="start" x="62" y="-1085.5" font-family="Helvetica,sans-Serif" font-size="10.00">&#45; void MicrophonePermissionDenied(string permissionName)</text>
<text text-anchor="start" x="62" y="-1074.5" font-family="Helvetica,sans-Serif" font-size="10.00">&#45; void MicrophonePermissionDeniedAndDontAskAgain</text>
<text text-anchor="start" x="62" y="-1063.5" font-family="Helvetica,sans-Serif" font-size="10.00">(string permissionName)</text>
<text text-anchor="start" x="62" y="-1052.5" font-family="Helvetica,sans-Serif" font-size="10.00">&#45; void OnDestroy()</text>
</a>
</g>
</g>
<!-- Node2&#45;&gt;Node6 -->
<g id="edge10" class="edge">
<title>Node2&#45;&gt;Node6</title>
<path fill="none" stroke="midnightblue" d="M421.73,-1942.95C392.75,-1937.44 358.21,-1925.95 336.5,-1902 243.34,-1799.23 207.49,-1647.91 195.1,-1520.73"/>
<polygon fill="none" stroke="midnightblue" points="421.26,-1946.42 431.71,-1944.66 422.45,-1939.52 421.26,-1946.42"/>
</g>
<!-- Node7 -->
<g id="node7" class="node">
<title>Node7</title>
<g id="a_node7"><a xlink:href="class_client_manager.html" target="_top" xlink:title="Maneja la lógica las acciones del cliente">
<polygon fill="white" stroke="black" points="846,-854 846,-944 1011,-944 1011,-854 846,-854"/>
<text text-anchor="middle" x="928.5" y="-932" font-family="Helvetica,sans-Serif" font-size="10.00">ClientManager</text>
<polyline fill="none" stroke="black" points="846,-925 1011,-925 "/>
<text text-anchor="middle" x="928.5" y="-913" font-family="Helvetica,sans-Serif" font-size="10.00"> </text>
<polyline fill="none" stroke="black" points="846,-906 1011,-906 "/>
<text text-anchor="start" x="854" y="-894" font-family="Helvetica,sans-Serif" font-size="10.00">+ void SelectTool(string toolName)</text>
<text text-anchor="start" x="854" y="-883" font-family="Helvetica,sans-Serif" font-size="10.00">+ void UndoDrawing()</text>
<text text-anchor="start" x="854" y="-872" font-family="Helvetica,sans-Serif" font-size="10.00">+ void DeleteDrawings(string peer)</text>
<text text-anchor="start" x="854" y="-861" font-family="Helvetica,sans-Serif" font-size="10.00">+ void SelectColor(string color)</text>
</a>
</g>
</g>
<!-- Node2&#45;&gt;Node7 -->
<g id="edge12" class="edge">
<title>Node2&#45;&gt;Node7</title>
<path fill="none" stroke="midnightblue" d="M525.29,-1942.04C565.19,-1934.74 618.9,-1918.6 651.5,-1883 911.95,-1598.61 761.31,-1413.03 876.5,-1045 887.2,-1010.8 900.95,-972.67 911.62,-944.1"/>
<polygon fill="none" stroke="midnightblue" points="524.48,-1938.63 515.2,-1943.75 525.65,-1945.53 524.48,-1938.63"/>
</g>
<!-- Node8 -->
<g id="node8" class="node">
<title>Node8</title>
<g id="a_node8"><a xlink:href="class_a_r_tool_manager.html" target="_top" xlink:title="Maneja la lógica de las herramientas de RA">
<polygon fill="white" stroke="black" points="549,-771.5 549,-1026.5 828,-1026.5 828,-771.5 549,-771.5"/>
<text text-anchor="middle" x="688.5" y="-1014.5" font-family="Helvetica,sans-Serif" font-size="10.00">ARToolManager</text>
<polyline fill="none" stroke="black" points="549,-1007.5 828,-1007.5 "/>
<text text-anchor="start" x="557" y="-995.5" font-family="Helvetica,sans-Serif" font-size="10.00">+ bool recording</text>
<text text-anchor="start" x="557" y="-984.5" font-family="Helvetica,sans-Serif" font-size="10.00">+ Material hostMaterial</text>
<text text-anchor="start" x="557" y="-973.5" font-family="Helvetica,sans-Serif" font-size="10.00">+ Material clientMaterial</text>
<text text-anchor="start" x="557" y="-962.5" font-family="Helvetica,sans-Serif" font-size="10.00">+ Material ColorRed</text>
<text text-anchor="start" x="557" y="-951.5" font-family="Helvetica,sans-Serif" font-size="10.00">+ Material ColorBlue</text>
<text text-anchor="start" x="557" y="-940.5" font-family="Helvetica,sans-Serif" font-size="10.00">+ Material ColorGreen</text>
<text text-anchor="start" x="557" y="-929.5" font-family="Helvetica,sans-Serif" font-size="10.00">+ Material ColorYellow</text>
<text text-anchor="start" x="557" y="-918.5" font-family="Helvetica,sans-Serif" font-size="10.00">+ GameObject guidePrefab</text>
<text text-anchor="start" x="557" y="-907.5" font-family="Helvetica,sans-Serif" font-size="10.00">+ static GameObject hostDrawings</text>
<text text-anchor="start" x="557" y="-896.5" font-family="Helvetica,sans-Serif" font-size="10.00">+ static GameObject clientDrawings</text>
<text text-anchor="start" x="557" y="-885.5" font-family="Helvetica,sans-Serif" font-size="10.00">+ static GameObject hostGuides</text>
<text text-anchor="start" x="557" y="-874.5" font-family="Helvetica,sans-Serif" font-size="10.00">+ static GameObject clientGuides</text>
<text text-anchor="start" x="557" y="-863.5" font-family="Helvetica,sans-Serif" font-size="10.00">&#45; GameObject hostTools</text>
<text text-anchor="start" x="557" y="-852.5" font-family="Helvetica,sans-Serif" font-size="10.00">&#45; GameObject clientTools</text>
<polyline fill="none" stroke="black" points="549,-845.5 828,-845.5 "/>
<text text-anchor="start" x="557" y="-833.5" font-family="Helvetica,sans-Serif" font-size="10.00">+ void SelectTool(PeerType peer, string toolName)</text>
<text text-anchor="start" x="557" y="-822.5" font-family="Helvetica,sans-Serif" font-size="10.00">+ void UndoDrawing(string peer)</text>
<text text-anchor="start" x="557" y="-811.5" font-family="Helvetica,sans-Serif" font-size="10.00">+ void DeleteDrawings(string peer)</text>
<text text-anchor="start" x="557" y="-800.5" font-family="Helvetica,sans-Serif" font-size="10.00">+ void SelectColor(PeerType peer, string color)</text>
<text text-anchor="start" x="557" y="-789.5" font-family="Helvetica,sans-Serif" font-size="10.00">+ GameObject PlaceGuide(PeerType peer, Transform target)</text>
<text text-anchor="start" x="557" y="-778.5" font-family="Helvetica,sans-Serif" font-size="10.00">&#45; void Awake()</text>
</a>
</g>
</g>
<!-- Node2&#45;&gt;Node8 -->
<g id="edge14" class="edge">
<title>Node2&#45;&gt;Node8</title>
<path fill="none" stroke="midnightblue" d="M524.38,-1927.56C543.84,-1917.14 564.27,-1902.48 576.5,-1883 744.32,-1615.7 728.93,-1225.68 706.88,-1026.83"/>
<polygon fill="none" stroke="midnightblue" points="522.58,-1924.55 515.25,-1932.19 525.75,-1930.79 522.58,-1924.55"/>
</g>
<!-- Node9 -->
<g id="node9" class="node">
<title>Node9</title>
<g id="a_node9"><a xlink:href="class_recorder_manager.html" target="_top" xlink:title="Maneja la lógica de la grabación de tutoriales">
<polygon fill="white" stroke="black" points="1029,-837.5 1029,-960.5 1220,-960.5 1220,-837.5 1029,-837.5"/>
<text text-anchor="middle" x="1124.5" y="-948.5" font-family="Helvetica,sans-Serif" font-size="10.00">RecorderManager</text>
<polyline fill="none" stroke="black" points="1029,-941.5 1220,-941.5 "/>
<text text-anchor="start" x="1037" y="-929.5" font-family="Helvetica,sans-Serif" font-size="10.00">&#45; bool isRecording</text>
<polyline fill="none" stroke="black" points="1029,-922.5 1220,-922.5 "/>
<text text-anchor="start" x="1037" y="-910.5" font-family="Helvetica,sans-Serif" font-size="10.00">+ bool ToggleRecord()</text>
<text text-anchor="start" x="1037" y="-899.5" font-family="Helvetica,sans-Serif" font-size="10.00">&#45; void Awake()</text>
<text text-anchor="start" x="1037" y="-888.5" font-family="Helvetica,sans-Serif" font-size="10.00">&#45; void Start()</text>
<text text-anchor="start" x="1037" y="-877.5" font-family="Helvetica,sans-Serif" font-size="10.00">&#45; void StartRecording()</text>
<text text-anchor="start" x="1037" y="-866.5" font-family="Helvetica,sans-Serif" font-size="10.00">&#45; void StopRecording()</text>
<text text-anchor="start" x="1037" y="-855.5" font-family="Helvetica,sans-Serif" font-size="10.00">&#45; void onStopRecord()</text>
<text text-anchor="start" x="1037" y="-844.5" font-family="Helvetica,sans-Serif" font-size="10.00">&#45; void OnApplicationFocus(bool focused)</text>
</a>
</g>
</g>
<!-- Node2&#45;&gt;Node9 -->
<g id="edge18" class="edge">
<title>Node2&#45;&gt;Node9</title>
<path fill="none" stroke="midnightblue" d="M525.19,-1941.55C595.08,-1931.88 714.75,-1911.65 747.5,-1883 894.61,-1754.3 1059.05,-1154.53 1109.19,-960.64"/>
<polygon fill="none" stroke="midnightblue" points="524.7,-1938.09 515.26,-1942.9 525.64,-1945.02 524.7,-1938.09"/>
</g>
<!-- Node10 -->
<g id="node10" class="node">
<title>Node10</title>
<g id="a_node10"><a xlink:href="class_android_utils.html" target="_top" xlink:title="Clase de utilidades para android">
<polygon fill="white" stroke="black" points="948,-1539.5 948,-1882.5 1243,-1882.5 1243,-1539.5 948,-1539.5"/>
<text text-anchor="middle" x="1095.5" y="-1870.5" font-family="Helvetica,sans-Serif" font-size="10.00">AndroidUtils</text>
<polyline fill="none" stroke="black" points="948,-1863.5 1243,-1863.5 "/>
<text text-anchor="start" x="956" y="-1851.5" font-family="Helvetica,sans-Serif" font-size="10.00">+ UnityAction onStartRecord</text>
<text text-anchor="start" x="956" y="-1840.5" font-family="Helvetica,sans-Serif" font-size="10.00">+ UnityAction onStopRecord</text>
<text text-anchor="start" x="956" y="-1829.5" font-family="Helvetica,sans-Serif" font-size="10.00">+ string filePath</text>
<text text-anchor="start" x="956" y="-1818.5" font-family="Helvetica,sans-Serif" font-size="10.00">+ string fileName</text>
<text text-anchor="start" x="956" y="-1807.5" font-family="Helvetica,sans-Serif" font-size="10.00">+ static UnityAction onAllowCallback</text>
<text text-anchor="start" x="956" y="-1796.5" font-family="Helvetica,sans-Serif" font-size="10.00">+ static UnityAction onDenyCallback</text>
<text text-anchor="start" x="956" y="-1785.5" font-family="Helvetica,sans-Serif" font-size="10.00">+ static UnityAction onDenyAndNeverAskAgainCallback</text>
<text text-anchor="start" x="956" y="-1774.5" font-family="Helvetica,sans-Serif" font-size="10.00">&#45; const float SCREEN_WIDTH</text>
<text text-anchor="start" x="956" y="-1763.5" font-family="Helvetica,sans-Serif" font-size="10.00">&#45; const string VIDEO_NAME</text>
<text text-anchor="start" x="956" y="-1752.5" font-family="Helvetica,sans-Serif" font-size="10.00">&#45; const string GALLERY_PATH</text>
<polyline fill="none" stroke="black" points="948,-1745.5 1243,-1745.5 "/>
<text text-anchor="start" x="956" y="-1733.5" font-family="Helvetica,sans-Serif" font-size="10.00">+ void StartRecording()</text>
<text text-anchor="start" x="956" y="-1722.5" font-family="Helvetica,sans-Serif" font-size="10.00">+ void StopRecording()</text>
<text text-anchor="start" x="956" y="-1711.5" font-family="Helvetica,sans-Serif" font-size="10.00">+ void VideoRecorderCallback(string message)</text>
<text text-anchor="start" x="956" y="-1700.5" font-family="Helvetica,sans-Serif" font-size="10.00">+ void SetFilePath(string filename)</text>
<text text-anchor="start" x="956" y="-1689.5" font-family="Helvetica,sans-Serif" font-size="10.00">+ static bool IsPermitted(AndroidPermission permission)</text>
<text text-anchor="start" x="956" y="-1678.5" font-family="Helvetica,sans-Serif" font-size="10.00">+ static void RequestPermission(AndroidPermission</text>
<text text-anchor="start" x="956" y="-1667.5" font-family="Helvetica,sans-Serif" font-size="10.00"> permission, UnityAction onAllow=null, UnityAction</text>
<text text-anchor="start" x="956" y="-1656.5" font-family="Helvetica,sans-Serif" font-size="10.00"> onDeny=null, UnityAction onDenyAndNeverAskAgain=null)</text>
<text text-anchor="start" x="956" y="-1645.5" font-family="Helvetica,sans-Serif" font-size="10.00">+ static void ShowToast(string message)</text>
<text text-anchor="start" x="956" y="-1634.5" font-family="Helvetica,sans-Serif" font-size="10.00">+ static void ShareAndroid(string body, string</text>
<text text-anchor="start" x="956" y="-1623.5" font-family="Helvetica,sans-Serif" font-size="10.00"> subject, string url, string filePath, string</text>
<text text-anchor="start" x="956" y="-1612.5" font-family="Helvetica,sans-Serif" font-size="10.00"> mimeType, bool chooser, string chooserText)</text>
<text text-anchor="start" x="956" y="-1601.5" font-family="Helvetica,sans-Serif" font-size="10.00">&#45; void Start()</text>
<text text-anchor="start" x="956" y="-1590.5" font-family="Helvetica,sans-Serif" font-size="10.00">&#45; void OnAllow()</text>
<text text-anchor="start" x="956" y="-1579.5" font-family="Helvetica,sans-Serif" font-size="10.00">&#45; void OnDeny()</text>
<text text-anchor="start" x="956" y="-1568.5" font-family="Helvetica,sans-Serif" font-size="10.00">&#45; void OnDenyAndNeverAskAgain()</text>
<text text-anchor="start" x="956" y="-1557.5" font-family="Helvetica,sans-Serif" font-size="10.00">&#45; void ResetAllCallBacks()</text>
<text text-anchor="start" x="956" y="-1546.5" font-family="Helvetica,sans-Serif" font-size="10.00">&#45; static string GetPermissionStrr(AndroidPermission permission)</text>
</a>
</g>
</g>
<!-- Node2&#45;&gt;Node10 -->
<g id="edge20" class="edge">
<title>Node2&#45;&gt;Node10</title>
<path fill="none" stroke="midnightblue" d="M525.3,-1946.74C624.78,-1943.64 838.56,-1933.41 904.5,-1902 919.49,-1894.86 934,-1886.05 947.86,-1876.16"/>
<polygon fill="none" stroke="midnightblue" points="525.07,-1943.25 515.18,-1947.05 525.28,-1950.24 525.07,-1943.25"/>
</g>
<!-- Node3&#45;&gt;Node1 -->
<g id="edge2" class="edge">
<title>Node3&#45;&gt;Node1</title>
<path fill="none" stroke="#404040" d="M576.99,-336.41C584.25,-323.99 591.5,-311.57 598.62,-299.37"/>
<polygon fill="none" stroke="#404040" points="598.8,-299.07 598.37,-291.87 604.85,-288.71 605.28,-295.91 598.8,-299.07"/>
<text text-anchor="middle" x="627.5" y="-310" font-family="Helvetica,sans-Serif" font-size="10.00"> &#45;peerConnection</text>
</g>
<!-- Node4&#45;&gt;Node3 -->
<g id="edge4" class="edge">
<title>Node4&#45;&gt;Node3</title>
<path fill="none" stroke="#404040" d="M367.55,-793.37C373.46,-776.18 379.59,-758.57 385.5,-742 386.35,-739.63 387.2,-737.24 388.06,-734.84"/>
<polygon fill="none" stroke="#404040" points="388.07,-734.81 386.34,-727.81 392.14,-723.52 393.87,-730.52 388.07,-734.81"/>
<text text-anchor="middle" x="418" y="-745" font-family="Helvetica,sans-Serif" font-size="10.00"> &#45;inputManager</text>
</g>
<!-- Node5&#45;&gt;Node3 -->
<g id="edge8" class="edge">
<title>Node5&#45;&gt;Node3</title>
<path fill="none" stroke="#404040" d="M472.37,-1561.28C470.77,-1352.42 467.86,-971.45 466.06,-735.89"/>
<polygon fill="none" stroke="#404040" points="466.06,-735.73 462.02,-729.76 465.97,-723.73 470.02,-729.7 466.06,-735.73"/>
<text text-anchor="middle" x="501.5" y="-896.5" font-family="Helvetica,sans-Serif" font-size="10.00"> &#45;videoManager</text>
</g>
<!-- Node5&#45;&gt;Node4 -->
<g id="edge6" class="edge">
<title>Node5&#45;&gt;Node4</title>
<path fill="none" stroke="#404040" d="M397.05,-1561.35C392.14,-1547.94 387.83,-1534.37 384.5,-1521 333.29,-1315.48 387.45,-1255.21 361.5,-1045 360.36,-1035.77 358.96,-1026.26 357.41,-1016.72"/>
<polygon fill="none" stroke="#404040" points="357.36,-1016.47 352.41,-1011.22 355.35,-1004.64 360.3,-1009.88 357.36,-1016.47"/>
<text text-anchor="middle" x="417.5" y="-1280.5" font-family="Helvetica,sans-Serif" font-size="10.00"> &#45;videoManager</text>
</g>
<!-- Node6&#45;&gt;Node3 -->
<g id="edge9" class="edge">
<title>Node6&#45;&gt;Node3</title>
<path fill="none" stroke="#404040" d="M130.39,-1045.42C118.2,-955.59 119.89,-854.81 160.5,-771 190.58,-708.92 245.38,-658.05 300.24,-619.38"/>
<polygon fill="none" stroke="#404040" points="300.25,-619.38 302.91,-612.67 310.12,-612.55 307.46,-619.25 300.25,-619.38"/>
<text text-anchor="middle" x="194" y="-896.5" font-family="Helvetica,sans-Serif" font-size="10.00"> &#45;audioManager</text>
</g>
<!-- Node7&#45;&gt;Node1 -->
<g id="edge16" class="edge">
<title>Node7&#45;&gt;Node1</title>
<path fill="none" stroke="#404040" d="M916.82,-853.89C891.28,-758.58 827.56,-526.64 762.5,-336 758.51,-324.29 754.23,-312.24 749.82,-300.16"/>
<polygon fill="none" stroke="#404040" points="749.7,-299.84 743.87,-295.59 745.55,-288.58 751.38,-292.82 749.7,-299.84"/>
<text text-anchor="middle" x="915" y="-527.5" font-family="Helvetica,sans-Serif" font-size="10.00"> &#45;clientManager</text>
</g>
<!-- Node7&#45;&gt;Node3 -->
<g id="edge11" class="edge">
<title>Node7&#45;&gt;Node3</title>
<path fill="none" stroke="#404040" d="M906.51,-853.75C890.63,-826.13 866.69,-791.96 836.5,-771 772.11,-726.3 734.68,-762.69 666.5,-724 653.6,-716.68 640.9,-708.36 628.54,-699.37"/>
<polygon fill="none" stroke="#404040" points="628.32,-699.21 621.12,-698.82 618.7,-692.03 625.9,-692.41 628.32,-699.21"/>
<text text-anchor="middle" x="835" y="-745" font-family="Helvetica,sans-Serif" font-size="10.00"> &#45;clientManager</text>
</g>
<!-- Node8&#45;&gt;Node1 -->
<g id="edge15" class="edge">
<title>Node8&#45;&gt;Node1</title>
<path fill="none" stroke="#404040" d="M688.5,-771.2C688.5,-641.47 688.5,-439.73 688.5,-300.57"/>
<polygon fill="none" stroke="#404040" points="688.5,-300.57 684.5,-294.57 688.5,-288.57 692.5,-294.57 688.5,-300.57"/>
<text text-anchor="middle" x="723.5" y="-527.5" font-family="Helvetica,sans-Serif" font-size="10.00"> &#45;arToolManager</text>
</g>
<!-- Node8&#45;&gt;Node3 -->
<g id="edge13" class="edge">
<title>Node8&#45;&gt;Node3</title>
<path fill="none" stroke="#404040" d="M611.26,-771.44C603.77,-759.18 596.05,-746.53 588.26,-733.77"/>
<polygon fill="none" stroke="#404040" points="588.25,-733.75 581.71,-730.71 582,-723.5 588.54,-726.54 588.25,-733.75"/>
<text text-anchor="middle" x="632.5" y="-745" font-family="Helvetica,sans-Serif" font-size="10.00"> &#45;arToolManager</text>
</g>
<!-- Node9&#45;&gt;Node1 -->
<g id="edge17" class="edge">
<title>Node9&#45;&gt;Node1</title>
<path fill="none" stroke="#404040" d="M1118.71,-837.49C1105.65,-728.08 1065.66,-494.05 952.5,-336 919.69,-290.18 872.39,-251.15 826.87,-220.58"/>
<polygon fill="none" stroke="#404040" points="826.59,-220.4 819.38,-220.43 816.57,-213.79 823.79,-213.75 826.59,-220.4"/>
<text text-anchor="middle" x="1140" y="-527.5" font-family="Helvetica,sans-Serif" font-size="10.00"> &#45;recorderManager</text>
</g>
<!-- Node10&#45;&gt;Node9 -->
<g id="edge19" class="edge">
<title>Node10&#45;&gt;Node9</title>
<path fill="none" stroke="#404040" d="M1101.62,-1539.21C1107.89,-1364.02 1117.35,-1099.76 1121.89,-972.95"/>
<polygon fill="none" stroke="#404040" points="1121.9,-972.74 1118.11,-966.6 1122.33,-960.75 1126.11,-966.89 1121.9,-972.74"/>
<text text-anchor="middle" x="1148.5" y="-1280.5" font-family="Helvetica,sans-Serif" font-size="10.00"> &#45;androidUtils</text>
</g>
</g>
</svg>
