<?xml version="1.0" encoding="UTF-8" standalone="no"?>
<!DOCTYPE svg PUBLIC "-//W3C//DTD SVG 1.1//EN"
 "http://www.w3.org/Graphics/SVG/1.1/DTD/svg11.dtd">
<!-- Generated by graphviz version 2.49.0 (20210828.1703)
 -->
<!-- Title: RegisterPhoneUIController.OnCodeSent Pages: 1 -->
<svg width="889pt" height="104pt"
 viewBox="0.00 0.00 889.00 104.00" xmlns="http://www.w3.org/2000/svg" xmlns:xlink="http://www.w3.org/1999/xlink">
<g id="graph0" class="graph" transform="scale(1 1) rotate(0) translate(4 100)">
<title>RegisterPhoneUIController.OnCodeSent</title>
<polygon fill="white" stroke="transparent" points="-4,4 -4,-100 885,-100 885,4 -4,4"/>
<!-- Node1 -->
<g id="node1" class="node">
<title>Node1</title>
<g id="a_node1"><a xlink:title="Llamada cuando se envíaa el código de verificación SMS">
<polygon fill="#bfbfbf" stroke="black" points="692,-76.5 692,-95.5 881,-95.5 881,-76.5 692,-76.5"/>
<text text-anchor="middle" x="786.5" y="-83.5" font-family="Helvetica,sans-Serif" font-size="10.00">RegisterPhoneUIController.OnCodeSent</text>
</a>
</g>
</g>
<!-- Node2 -->
<g id="node2" class="node">
<title>Node2</title>
<g id="a_node2"><a xlink:href="class_register_phone_u_i_controller.html#abecd41c11aa752bec550978e4a58d2a1" target="_top" xlink:title="Llamada justo antes del primer fotograma">
<polygon fill="white" stroke="black" points="0,-57.5 0,-76.5 155,-76.5 155,-57.5 0,-57.5"/>
<text text-anchor="middle" x="77.5" y="-64.5" font-family="Helvetica,sans-Serif" font-size="10.00">RegisterPhoneUIController.Start</text>
</a>
</g>
</g>
<!-- Node1&#45;&gt;Node2 -->
<g id="edge1" class="edge">
<title>Node1&#45;&gt;Node2</title>
<path fill="none" stroke="midnightblue" d="M681.73,-89.75C562.95,-93.04 362.66,-95.58 191,-83 172.6,-81.65 152.64,-79.15 134.7,-76.53"/>
<polygon fill="midnightblue" stroke="midnightblue" points="682.01,-93.24 691.9,-89.46 681.81,-86.24 682.01,-93.24"/>
</g>
<!-- Node3 -->
<g id="node3" class="node">
<title>Node3</title>
<g id="a_node3"><a xlink:href="class_register_phone_u_i_controller.html#a5cd62efcd8f1e816c759ac0ede78aaaf" target="_top" xlink:title="Se desuscribe de los eventos de clases estáticas">
<polygon fill="white" stroke="black" points="468,-38.5 468,-57.5 656,-57.5 656,-38.5 468,-38.5"/>
<text text-anchor="middle" x="562" y="-45.5" font-family="Helvetica,sans-Serif" font-size="10.00">RegisterPhoneUIController.Unsubscribe</text>
</a>
</g>
</g>
<!-- Node1&#45;&gt;Node3 -->
<g id="edge2" class="edge">
<title>Node1&#45;&gt;Node3</title>
<path fill="none" stroke="midnightblue" d="M719.48,-74.72C687.47,-69.26 649.43,-62.76 618.88,-57.54"/>
<polygon fill="midnightblue" stroke="midnightblue" points="719.19,-78.23 729.64,-76.46 720.37,-71.33 719.19,-78.23"/>
</g>
<!-- Node3&#45;&gt;Node2 -->
<g id="edge6" class="edge">
<title>Node3&#45;&gt;Node2</title>
<path fill="none" stroke="midnightblue" d="M498.38,-59.1C477.36,-62.33 453.73,-65.41 432,-67 336.82,-73.97 226.84,-72.47 155.16,-70.22"/>
<polygon fill="midnightblue" stroke="midnightblue" points="499.14,-62.53 508.47,-57.51 498.05,-55.61 499.14,-62.53"/>
</g>
<!-- Node4 -->
<g id="node4" class="node">
<title>Node4</title>
<g id="a_node4"><a xlink:href="class_register_phone_u_i_controller.html#aa85933669dcb72558a71039eba32d88d" target="_top" xlink:title="Llamada cuando se completa la verificación">
<polygon fill="white" stroke="black" points="191,-38.5 191,-57.5 432,-57.5 432,-38.5 191,-38.5"/>
<text text-anchor="middle" x="311.5" y="-45.5" font-family="Helvetica,sans-Serif" font-size="10.00">RegisterPhoneUIController.OnVerificationCompleted</text>
</a>
</g>
</g>
<!-- Node3&#45;&gt;Node4 -->
<g id="edge3" class="edge">
<title>Node3&#45;&gt;Node4</title>
<path fill="none" stroke="midnightblue" d="M457.64,-41.34C449.29,-41.27 440.8,-41.24 432.34,-41.25"/>
<polygon fill="midnightblue" stroke="midnightblue" points="457.72,-44.84 467.76,-41.44 457.8,-37.84 457.72,-44.84"/>
</g>
<!-- Node5 -->
<g id="node5" class="node">
<title>Node5</title>
<g id="a_node5"><a xlink:href="class_register_phone_u_i_controller.html#a55f0c364a3d7f1920df9790b7c63da7c" target="_top" xlink:title="Verifica el teléfono introducido con el código SMS introducido">
<polygon fill="white" stroke="black" points="218.5,-0.5 218.5,-19.5 404.5,-19.5 404.5,-0.5 218.5,-0.5"/>
<text text-anchor="middle" x="311.5" y="-7.5" font-family="Helvetica,sans-Serif" font-size="10.00">RegisterPhoneUIController.VerifyPhone</text>
</a>
</g>
</g>
<!-- Node3&#45;&gt;Node5 -->
<g id="edge7" class="edge">
<title>Node3&#45;&gt;Node5</title>
<path fill="none" stroke="midnightblue" d="M488.65,-36.94C452.62,-31.43 409.48,-24.83 374.91,-19.54"/>
<polygon fill="midnightblue" stroke="midnightblue" points="488.2,-40.41 498.61,-38.46 489.26,-33.49 488.2,-40.41"/>
</g>
<!-- Node4&#45;&gt;Node2 -->
<g id="edge4" class="edge">
<title>Node4&#45;&gt;Node2</title>
<path fill="none" stroke="midnightblue" d="M183.94,-58.36C174.16,-59.17 164.48,-59.96 155.18,-60.72"/>
<polygon fill="midnightblue" stroke="midnightblue" points="184.48,-61.83 194.16,-57.53 183.91,-54.86 184.48,-61.83"/>
</g>
<!-- Node4&#45;&gt;Node3 -->
<g id="edge5" class="edge">
<title>Node4&#45;&gt;Node3</title>
<path fill="none" stroke="midnightblue" d="M442.38,-54.74C450.93,-54.73 459.45,-54.66 467.76,-54.56"/>
<polygon fill="midnightblue" stroke="midnightblue" points="442.34,-51.24 432.34,-54.75 442.34,-58.24 442.34,-51.24"/>
</g>
<!-- Node5&#45;&gt;Node2 -->
<g id="edge8" class="edge">
<title>Node5&#45;&gt;Node2</title>
<path fill="none" stroke="midnightblue" d="M228.1,-21.24C215.6,-23.48 202.91,-26.06 191,-29 159.98,-36.65 125.28,-48.97 102.73,-57.49"/>
<polygon fill="midnightblue" stroke="midnightblue" points="228.81,-24.67 238.07,-19.51 227.62,-17.77 228.81,-24.67"/>
</g>
</g>
</svg>
