<?xml version="1.0" encoding="UTF-8" standalone="no"?>
<!DOCTYPE svg PUBLIC "-//W3C//DTD SVG 1.1//EN"
 "http://www.w3.org/Graphics/SVG/1.1/DTD/svg11.dtd">
<!-- Generated by graphviz version 2.49.0 (20210828.1703)
 -->
<!-- Title: DatabaseManager.SendMessage Pages: 1 -->
<svg width="908pt" height="104pt"
 viewBox="0.00 0.00 908.00 104.00" xmlns="http://www.w3.org/2000/svg" xmlns:xlink="http://www.w3.org/1999/xlink">
<g id="graph0" class="graph" transform="scale(1 1) rotate(0) translate(4 100)">
<title>DatabaseManager.SendMessage</title>
<polygon fill="white" stroke="transparent" points="-4,4 -4,-100 904,-100 904,4 -4,4"/>
<!-- Node1 -->
<g id="node1" class="node">
<title>Node1</title>
<g id="a_node1"><a xlink:title="Envia un mensaje de conexión a base de datos">
<polygon fill="#bfbfbf" stroke="black" points="739,-38.5 739,-57.5 900,-57.5 900,-38.5 739,-38.5"/>
<text text-anchor="middle" x="819.5" y="-45.5" font-family="Helvetica,sans-Serif" font-size="10.00">DatabaseManager.SendMessage</text>
</a>
</g>
</g>
<!-- Node2 -->
<g id="node2" class="node">
<title>Node2</title>
<g id="a_node2"><a xlink:href="class_peer_connection_manager.html#a37051871d1e21f16a1e4ff5409a58f8c" target="_top" xlink:title="Realiza la llamada para establecer la conexión">
<polygon fill="white" stroke="black" points="530.5,-0.5 530.5,-19.5 673.5,-19.5 673.5,-0.5 530.5,-0.5"/>
<text text-anchor="middle" x="602" y="-7.5" font-family="Helvetica,sans-Serif" font-size="10.00">PeerConnectionManager.Call</text>
</a>
</g>
</g>
<!-- Node1&#45;&gt;Node2 -->
<g id="edge1" class="edge">
<title>Node1&#45;&gt;Node2</title>
<path fill="none" stroke="midnightblue" d="M754.15,-36.65C723.23,-31.2 686.59,-24.74 657.12,-19.54"/>
<polygon fill="midnightblue" stroke="midnightblue" points="753.94,-40.17 764.4,-38.46 755.16,-33.28 753.94,-40.17"/>
</g>
<!-- Node6 -->
<g id="node6" class="node">
<title>Node6</title>
<g id="a_node6"><a xlink:href="class_peer_connection_manager.html#a058148001392c4d6106cc784ec477256" target="_top" xlink:title="Llamada justo antes del primer fotograma">
<polygon fill="white" stroke="black" points="263.5,-38.5 263.5,-57.5 410.5,-57.5 410.5,-38.5 263.5,-38.5"/>
<text text-anchor="middle" x="337" y="-45.5" font-family="Helvetica,sans-Serif" font-size="10.00">PeerConnectionManager.Start</text>
</a>
</g>
</g>
<!-- Node1&#45;&gt;Node6 -->
<g id="edge10" class="edge">
<title>Node1&#45;&gt;Node6</title>
<path fill="none" stroke="midnightblue" d="M728.77,-48C636.88,-48 495.82,-48 410.68,-48"/>
<polygon fill="midnightblue" stroke="midnightblue" points="728.89,-51.5 738.89,-48 728.89,-44.5 728.89,-51.5"/>
</g>
<!-- Node7 -->
<g id="node7" class="node">
<title>Node7</title>
<g id="a_node7"><a xlink:href="class_peer_connection_manager.html#a55cfe5d454913d9aa216cba1e9e11b84" target="_top" xlink:title="Lee un mensaje mediante la base de datos, se invoca cada vez que se envie un mensaje">
<polygon fill="white" stroke="black" points="501,-76.5 501,-95.5 703,-95.5 703,-76.5 501,-76.5"/>
<text text-anchor="middle" x="602" y="-83.5" font-family="Helvetica,sans-Serif" font-size="10.00">PeerConnectionManager.ReadMessageDB</text>
</a>
</g>
</g>
<!-- Node1&#45;&gt;Node7 -->
<g id="edge6" class="edge">
<title>Node1&#45;&gt;Node7</title>
<path fill="none" stroke="midnightblue" d="M754.15,-59.35C723.23,-64.8 686.59,-71.26 657.12,-76.46"/>
<polygon fill="midnightblue" stroke="midnightblue" points="755.16,-62.72 764.4,-57.54 753.94,-55.83 755.16,-62.72"/>
</g>
<!-- Node3 -->
<g id="node3" class="node">
<title>Node3</title>
<g id="a_node3"><a xlink:href="class_peer_connection_manager.html#a9167cfeb3f97d6c07ae8abd9b48ac597" target="_top" xlink:title="Llamada cuando el cliente se conecta">
<polygon fill="white" stroke="black" points="222,-0.5 222,-19.5 452,-19.5 452,-0.5 222,-0.5"/>
<text text-anchor="middle" x="337" y="-7.5" font-family="Helvetica,sans-Serif" font-size="10.00">PeerConnectionManager.OnClientReadyDelegate</text>
</a>
</g>
</g>
<!-- Node2&#45;&gt;Node3 -->
<g id="edge2" class="edge">
<title>Node2&#45;&gt;Node3</title>
<path fill="none" stroke="midnightblue" d="M520.13,-10C498.63,-10 475,-10 452.09,-10"/>
<polygon fill="midnightblue" stroke="midnightblue" points="520.17,-13.5 530.17,-10 520.17,-6.5 520.17,-13.5"/>
</g>
<!-- Node2&#45;&gt;Node6 -->
<g id="edge5" class="edge">
<title>Node2&#45;&gt;Node6</title>
<path fill="none" stroke="midnightblue" d="M524.92,-20.99C486.68,-26.52 440.79,-33.15 404.05,-38.46"/>
<polygon fill="midnightblue" stroke="midnightblue" points="525.58,-24.43 534.97,-19.54 524.58,-17.51 525.58,-24.43"/>
</g>
<!-- Node4 -->
<g id="node4" class="node">
<title>Node4</title>
<g id="a_node4"><a xlink:href="class_peer_connection_manager.html#a82bd9ac926952fe7f22bef718cca64cb" target="_top" xlink:title="Llamada al crear el GameObject asociado">
<polygon fill="white" stroke="black" points="9,-66.5 9,-85.5 164,-85.5 164,-66.5 9,-66.5"/>
<text text-anchor="middle" x="86.5" y="-73.5" font-family="Helvetica,sans-Serif" font-size="10.00">PeerConnectionManager.Awake</text>
</a>
</g>
</g>
<!-- Node3&#45;&gt;Node4 -->
<g id="edge3" class="edge">
<title>Node3&#45;&gt;Node4</title>
<path fill="none" stroke="midnightblue" d="M236.49,-21.58C227.1,-23.66 217.8,-26.11 209,-29 191.81,-34.64 189.66,-40.94 173,-48 156.32,-55.07 137.2,-61.49 121.28,-66.38"/>
<polygon fill="midnightblue" stroke="midnightblue" points="237.21,-25 246.29,-19.54 235.79,-18.15 237.21,-25"/>
</g>
<!-- Node5 -->
<g id="node5" class="node">
<title>Node5</title>
<g id="a_node5"><a xlink:href="class_peer_connection_manager.html#a267f5ad1bb8760b277d6754418b5a4f1" target="_top" xlink:title="Llamada cuando el GameObject asociado se destruye">
<polygon fill="white" stroke="black" points="0,-19.5 0,-38.5 173,-38.5 173,-19.5 0,-19.5"/>
<text text-anchor="middle" x="86.5" y="-26.5" font-family="Helvetica,sans-Serif" font-size="10.00">PeerConnectionManager.OnDestroy</text>
</a>
</g>
</g>
<!-- Node3&#45;&gt;Node5 -->
<g id="edge4" class="edge">
<title>Node3&#45;&gt;Node5</title>
<path fill="none" stroke="midnightblue" d="M211.88,-19.49C198.73,-20.5 185.57,-21.5 173,-22.46"/>
<polygon fill="midnightblue" stroke="midnightblue" points="212.23,-22.97 221.93,-18.72 211.69,-15.99 212.23,-22.97"/>
</g>
<!-- Node8 -->
<g id="node8" class="node">
<title>Node8</title>
<g id="a_node8"><a xlink:href="class_peer_connection_manager.html#a0a284ceb0c5a0f89563f4c2515b98e2b" target="_top" xlink:title="Llamada cuando se recibe un mensaje de base de datos">
<polygon fill="white" stroke="black" points="209,-76.5 209,-95.5 465,-95.5 465,-76.5 209,-76.5"/>
<text text-anchor="middle" x="337" y="-83.5" font-family="Helvetica,sans-Serif" font-size="10.00">PeerConnectionManager.OnMessageReceivedDelegate</text>
</a>
</g>
</g>
<!-- Node7&#45;&gt;Node8 -->
<g id="edge7" class="edge">
<title>Node7&#45;&gt;Node8</title>
<path fill="none" stroke="midnightblue" d="M490.67,-86C482.3,-86 473.8,-86 465.34,-86"/>
<polygon fill="midnightblue" stroke="midnightblue" points="490.82,-89.5 500.82,-86 490.82,-82.5 490.82,-89.5"/>
</g>
<!-- Node8&#45;&gt;Node4 -->
<g id="edge8" class="edge">
<title>Node8&#45;&gt;Node4</title>
<path fill="none" stroke="midnightblue" d="M198.83,-80.48C186.94,-80 175.21,-79.53 164.09,-79.08"/>
<polygon fill="midnightblue" stroke="midnightblue" points="198.71,-83.98 208.84,-80.88 198.99,-76.98 198.71,-83.98"/>
</g>
<!-- Node8&#45;&gt;Node5 -->
<g id="edge9" class="edge">
<title>Node8&#45;&gt;Node5</title>
<path fill="none" stroke="midnightblue" d="M249.15,-74.84C235.65,-72.57 221.9,-69.96 209,-67 191.28,-62.93 146.17,-48.4 116.18,-38.53"/>
<polygon fill="midnightblue" stroke="midnightblue" points="248.99,-78.35 259.42,-76.5 250.11,-71.44 248.99,-78.35"/>
</g>
</g>
</svg>
