<?xml version="1.0" encoding="UTF-8" standalone="no"?>
<!DOCTYPE svg PUBLIC "-//W3C//DTD SVG 1.1//EN"
 "http://www.w3.org/Graphics/SVG/1.1/DTD/svg11.dtd">
<!-- Generated by graphviz version 2.49.0 (20210828.1703)
 -->
<!-- Title: PeerConnectionManager Pages: 1 -->
<svg width="652pt" height="1573pt"
 viewBox="0.00 0.00 652.28 1573.00" xmlns="http://www.w3.org/2000/svg" xmlns:xlink="http://www.w3.org/1999/xlink">
<g id="graph0" class="graph" transform="scale(1 1) rotate(0) translate(4 1569)">
<title>PeerConnectionManager</title>
<polygon fill="white" stroke="transparent" points="-4,4 -4,-1569 648.28,-1569 648.28,4 -4,4"/>
<!-- Node1 -->
<g id="node1" class="node">
<title>Node1</title>
<g id="a_node1"><a xlink:title="Maneja la lógica de una conexión entre dos pares">
<polygon fill="#bfbfbf" stroke="black" points="216.78,-0.5 216.78,-387.5 374.78,-387.5 374.78,-0.5 216.78,-0.5"/>
<text text-anchor="middle" x="295.78" y="-375.5" font-family="Helvetica,sans-Serif" font-size="10.00">PeerConnectionManager</text>
<polyline fill="none" stroke="black" points="216.78,-368.5 374.78,-368.5 "/>
<text text-anchor="start" x="224.78" y="-356.5" font-family="Helvetica,sans-Serif" font-size="10.00">+ myPeerType</text>
<text text-anchor="start" x="224.78" y="-345.5" font-family="Helvetica,sans-Serif" font-size="10.00">&#45; clientInputDataChannel</text>
<text text-anchor="start" x="224.78" y="-334.5" font-family="Helvetica,sans-Serif" font-size="10.00">&#45; aspectRatioDataChannel</text>
<text text-anchor="start" x="224.78" y="-323.5" font-family="Helvetica,sans-Serif" font-size="10.00">&#45; clientActionDataChannel</text>
<text text-anchor="start" x="224.78" y="-312.5" font-family="Helvetica,sans-Serif" font-size="10.00">&#45; RTCconfig</text>
<text text-anchor="start" x="224.78" y="-301.5" font-family="Helvetica,sans-Serif" font-size="10.00">&#45; pc</text>
<text text-anchor="start" x="224.78" y="-290.5" font-family="Helvetica,sans-Serif" font-size="10.00">&#45; videoSender</text>
<text text-anchor="start" x="224.78" y="-279.5" font-family="Helvetica,sans-Serif" font-size="10.00">&#45; mediaStream</text>
<text text-anchor="start" x="224.78" y="-268.5" font-family="Helvetica,sans-Serif" font-size="10.00">&#45; audioSender</text>
<polyline fill="none" stroke="black" points="216.78,-261.5 374.78,-261.5 "/>
<text text-anchor="start" x="224.78" y="-249.5" font-family="Helvetica,sans-Serif" font-size="10.00">+ HangUp()</text>
<text text-anchor="start" x="224.78" y="-238.5" font-family="Helvetica,sans-Serif" font-size="10.00">&#45; Awake()</text>
<text text-anchor="start" x="224.78" y="-227.5" font-family="Helvetica,sans-Serif" font-size="10.00">&#45; OnClientReadyDelegate()</text>
<text text-anchor="start" x="224.78" y="-216.5" font-family="Helvetica,sans-Serif" font-size="10.00">&#45; OnMessageReceivedDelegate()</text>
<text text-anchor="start" x="224.78" y="-205.5" font-family="Helvetica,sans-Serif" font-size="10.00">&#45; Update()</text>
<text text-anchor="start" x="224.78" y="-194.5" font-family="Helvetica,sans-Serif" font-size="10.00">&#45; EnableAudioStream()</text>
<text text-anchor="start" x="224.78" y="-183.5" font-family="Helvetica,sans-Serif" font-size="10.00">&#45; Start()</text>
<text text-anchor="start" x="224.78" y="-172.5" font-family="Helvetica,sans-Serif" font-size="10.00">&#45; SetVideoParameters()</text>
<text text-anchor="start" x="224.78" y="-161.5" font-family="Helvetica,sans-Serif" font-size="10.00">&#45; SetAudioParameters()</text>
<text text-anchor="start" x="224.78" y="-150.5" font-family="Helvetica,sans-Serif" font-size="10.00">&#45; AddTracks()</text>
<text text-anchor="start" x="224.78" y="-139.5" font-family="Helvetica,sans-Serif" font-size="10.00">&#45; AddDataChannels()</text>
<text text-anchor="start" x="224.78" y="-128.5" font-family="Helvetica,sans-Serif" font-size="10.00">&#45; Call()</text>
<text text-anchor="start" x="224.78" y="-117.5" font-family="Helvetica,sans-Serif" font-size="10.00">&#45; OnSceneUnloaded&lt; Scene &gt;()</text>
<text text-anchor="start" x="224.78" y="-106.5" font-family="Helvetica,sans-Serif" font-size="10.00">&#45; OnApplicationPause()</text>
<text text-anchor="start" x="224.78" y="-95.5" font-family="Helvetica,sans-Serif" font-size="10.00">&#45; OnApplicationFocus()</text>
<text text-anchor="start" x="224.78" y="-84.5" font-family="Helvetica,sans-Serif" font-size="10.00">&#45; OnDestroy()</text>
<text text-anchor="start" x="224.78" y="-73.5" font-family="Helvetica,sans-Serif" font-size="10.00">&#45; OnDisconnect()</text>
<text text-anchor="start" x="224.78" y="-62.5" font-family="Helvetica,sans-Serif" font-size="10.00">&#45; ReadMessageDB()</text>
<text text-anchor="start" x="224.78" y="-51.5" font-family="Helvetica,sans-Serif" font-size="10.00">&#45; UnReadyUser()</text>
<text text-anchor="start" x="224.78" y="-40.5" font-family="Helvetica,sans-Serif" font-size="10.00">&#45; ReadyUser()</text>
<text text-anchor="start" x="224.78" y="-29.5" font-family="Helvetica,sans-Serif" font-size="10.00">&#45; InitIceCandidate()</text>
<text text-anchor="start" x="224.78" y="-18.5" font-family="Helvetica,sans-Serif" font-size="10.00">&#45; ImHost()</text>
<text text-anchor="start" x="224.78" y="-7.5" font-family="Helvetica,sans-Serif" font-size="10.00">&#45; ServersConfig()</text>
</a>
</g>
</g>
<!-- Node2 -->
<g id="node2" class="node">
<title>Node2</title>
<g id="a_node2"><a xlink:title=" ">
<polygon fill="white" stroke="#bfbfbf" points="276.28,-1507.5 276.28,-1564.5 359.28,-1564.5 359.28,-1507.5 276.28,-1507.5"/>
<text text-anchor="middle" x="317.78" y="-1552.5" font-family="Helvetica,sans-Serif" font-size="10.00">MonoBehaviour</text>
<polyline fill="none" stroke="#bfbfbf" points="276.28,-1545.5 359.28,-1545.5 "/>
<text text-anchor="middle" x="317.78" y="-1533.5" font-family="Helvetica,sans-Serif" font-size="10.00"> </text>
<polyline fill="none" stroke="#bfbfbf" points="276.28,-1526.5 359.28,-1526.5 "/>
<text text-anchor="middle" x="317.78" y="-1514.5" font-family="Helvetica,sans-Serif" font-size="10.00"> </text>
</a>
</g>
</g>
<!-- Node2&#45;&gt;Node1 -->
<g id="edge1" class="edge">
<title>Node2&#45;&gt;Node1</title>
<path fill="none" stroke="midnightblue" d="M265.79,-1526.63C207.99,-1516.15 120.07,-1496.34 99.78,-1470 -111.66,-1195.62 80.33,-1037.36 74.78,-691 72.95,-577.24 33.41,-540.99 74.78,-435 103.25,-362.05 165.42,-297.9 216.59,-254.32"/>
<polygon fill="none" stroke="midnightblue" points="265.39,-1530.11 275.85,-1528.41 266.62,-1523.22 265.39,-1530.11"/>
</g>
<!-- Node3 -->
<g id="node3" class="node">
<title>Node3</title>
<g id="a_node3"><a xlink:href="class_my_input_manager.html" target="_top" xlink:title=" ">
<polygon fill="white" stroke="black" points="83.78,-457.5 83.78,-668.5 199.78,-668.5 199.78,-457.5 83.78,-457.5"/>
<text text-anchor="middle" x="141.78" y="-656.5" font-family="Helvetica,sans-Serif" font-size="10.00">MyInputManager</text>
<polyline fill="none" stroke="black" points="83.78,-649.5 199.78,-649.5 "/>
<text text-anchor="start" x="91.78" y="-637.5" font-family="Helvetica,sans-Serif" font-size="10.00">+ myPeerType</text>
<text text-anchor="start" x="91.78" y="-626.5" font-family="Helvetica,sans-Serif" font-size="10.00">+ recording</text>
<text text-anchor="start" x="91.78" y="-615.5" font-family="Helvetica,sans-Serif" font-size="10.00">+ hostPosition</text>
<text text-anchor="start" x="91.78" y="-604.5" font-family="Helvetica,sans-Serif" font-size="10.00">+ clientPosition</text>
<text text-anchor="start" x="91.78" y="-593.5" font-family="Helvetica,sans-Serif" font-size="10.00">+ clientKeyboard</text>
<text text-anchor="start" x="91.78" y="-582.5" font-family="Helvetica,sans-Serif" font-size="10.00">&#45; scaledPixelRatioX</text>
<text text-anchor="start" x="91.78" y="-571.5" font-family="Helvetica,sans-Serif" font-size="10.00">&#45; scaledPixelRatioY</text>
<text text-anchor="start" x="91.78" y="-560.5" font-family="Helvetica,sans-Serif" font-size="10.00">&#45; clientAspectRatio</text>
<text text-anchor="start" x="91.78" y="-549.5" font-family="Helvetica,sans-Serif" font-size="10.00">&#45; croppedScreenWidth</text>
<text text-anchor="start" x="91.78" y="-538.5" font-family="Helvetica,sans-Serif" font-size="10.00">&#45; croppedScreenHeight</text>
<text text-anchor="start" x="91.78" y="-527.5" font-family="Helvetica,sans-Serif" font-size="10.00">&#45; offsetX</text>
<text text-anchor="start" x="91.78" y="-516.5" font-family="Helvetica,sans-Serif" font-size="10.00">&#45; offsetY</text>
<polyline fill="none" stroke="black" points="83.78,-509.5 199.78,-509.5 "/>
<text text-anchor="start" x="91.78" y="-497.5" font-family="Helvetica,sans-Serif" font-size="10.00">+ IsHeldDown()</text>
<text text-anchor="start" x="91.78" y="-486.5" font-family="Helvetica,sans-Serif" font-size="10.00">&#45; Awake()</text>
<text text-anchor="start" x="91.78" y="-475.5" font-family="Helvetica,sans-Serif" font-size="10.00">&#45; Start()</text>
<text text-anchor="start" x="91.78" y="-464.5" font-family="Helvetica,sans-Serif" font-size="10.00">&#45; Update()</text>
</a>
</g>
</g>
<!-- Node2&#45;&gt;Node3 -->
<g id="edge3" class="edge">
<title>Node2&#45;&gt;Node3</title>
<path fill="none" stroke="midnightblue" d="M265.9,-1527.6C230.41,-1519.66 185.47,-1503.33 160.78,-1470 68.87,-1345.97 106.71,-879.66 129.38,-668.75"/>
<polygon fill="none" stroke="midnightblue" points="265.6,-1531.11 276.1,-1529.72 267.02,-1524.26 265.6,-1531.11"/>
</g>
<!-- Node4 -->
<g id="node4" class="node">
<title>Node4</title>
<g id="a_node4"><a xlink:href="class_video_manager.html" target="_top" xlink:title="Maneja la lógica de la grabación y visualización de video">
<polygon fill="white" stroke="black" points="170.28,-1170.5 170.28,-1469.5 287.28,-1469.5 287.28,-1170.5 170.28,-1170.5"/>
<text text-anchor="middle" x="228.78" y="-1457.5" font-family="Helvetica,sans-Serif" font-size="10.00">VideoManager</text>
<polyline fill="none" stroke="black" points="170.28,-1450.5 287.28,-1450.5 "/>
<text text-anchor="start" x="178.28" y="-1438.5" font-family="Helvetica,sans-Serif" font-size="10.00">+ width</text>
<text text-anchor="start" x="178.28" y="-1427.5" font-family="Helvetica,sans-Serif" font-size="10.00">+ height</text>
<text text-anchor="start" x="178.28" y="-1416.5" font-family="Helvetica,sans-Serif" font-size="10.00">+ aspectRatio</text>
<text text-anchor="start" x="178.28" y="-1405.5" font-family="Helvetica,sans-Serif" font-size="10.00">+ bitrate</text>
<text text-anchor="start" x="178.28" y="-1394.5" font-family="Helvetica,sans-Serif" font-size="10.00">+ framerate</text>
<text text-anchor="start" x="178.28" y="-1383.5" font-family="Helvetica,sans-Serif" font-size="10.00">+ isRecording</text>
<text text-anchor="start" x="178.28" y="-1372.5" font-family="Helvetica,sans-Serif" font-size="10.00">+ videoRawImage</text>
<text text-anchor="start" x="178.28" y="-1361.5" font-family="Helvetica,sans-Serif" font-size="10.00">+ videoStreamTrack</text>
<text text-anchor="start" x="178.28" y="-1350.5" font-family="Helvetica,sans-Serif" font-size="10.00">+ videoDisabled</text>
<text text-anchor="start" x="178.28" y="-1339.5" font-family="Helvetica,sans-Serif" font-size="10.00">+ mainCam</text>
<text text-anchor="start" x="178.28" y="-1328.5" font-family="Helvetica,sans-Serif" font-size="10.00">+ arSession</text>
<text text-anchor="start" x="178.28" y="-1317.5" font-family="Helvetica,sans-Serif" font-size="10.00">&#45; arCam</text>
<text text-anchor="start" x="178.28" y="-1306.5" font-family="Helvetica,sans-Serif" font-size="10.00">&#45; webCam</text>
<text text-anchor="start" x="178.28" y="-1295.5" font-family="Helvetica,sans-Serif" font-size="10.00">&#45; webCamRawImage</text>
<text text-anchor="start" x="178.28" y="-1284.5" font-family="Helvetica,sans-Serif" font-size="10.00">&#45; webcamTexture</text>
<text text-anchor="start" x="178.28" y="-1273.5" font-family="Helvetica,sans-Serif" font-size="10.00">&#45; noVideoAR</text>
<text text-anchor="start" x="178.28" y="-1262.5" font-family="Helvetica,sans-Serif" font-size="10.00">&#45; noVideoUI</text>
<text text-anchor="start" x="178.28" y="-1251.5" font-family="Helvetica,sans-Serif" font-size="10.00">&#45; arToolTipsUI</text>
<polyline fill="none" stroke="black" points="170.28,-1244.5 287.28,-1244.5 "/>
<text text-anchor="start" x="178.28" y="-1232.5" font-family="Helvetica,sans-Serif" font-size="10.00">+ RecordCamera()</text>
<text text-anchor="start" x="178.28" y="-1221.5" font-family="Helvetica,sans-Serif" font-size="10.00">+ ShowVideo()</text>
<text text-anchor="start" x="178.28" y="-1210.5" font-family="Helvetica,sans-Serif" font-size="10.00">+ ToggleVideo()</text>
<text text-anchor="start" x="178.28" y="-1199.5" font-family="Helvetica,sans-Serif" font-size="10.00">&#45; Awake()</text>
<text text-anchor="start" x="178.28" y="-1188.5" font-family="Helvetica,sans-Serif" font-size="10.00">&#45; Start()</text>
<text text-anchor="start" x="178.28" y="-1177.5" font-family="Helvetica,sans-Serif" font-size="10.00">&#45; OnApplicationPause()</text>
</a>
</g>
</g>
<!-- Node2&#45;&gt;Node4 -->
<g id="edge5" class="edge">
<title>Node2&#45;&gt;Node4</title>
<path fill="none" stroke="midnightblue" d="M302.44,-1498.13C297.99,-1487.42 292.84,-1475.05 287.38,-1461.91"/>
<polygon fill="none" stroke="midnightblue" points="299.25,-1499.57 306.32,-1507.46 305.72,-1496.88 299.25,-1499.57"/>
</g>
<!-- Node5 -->
<g id="node5" class="node">
<title>Node5</title>
<g id="a_node5"><a xlink:href="class_audio_manager.html" target="_top" xlink:title="Maneja la lógica de la captura y reproducción de audio">
<polygon fill="white" stroke="black" points="244.28,-709.5 244.28,-1151.5 481.28,-1151.5 481.28,-709.5 244.28,-709.5"/>
<text text-anchor="middle" x="362.78" y="-1139.5" font-family="Helvetica,sans-Serif" font-size="10.00">AudioManager</text>
<polyline fill="none" stroke="black" points="244.28,-1132.5 481.28,-1132.5 "/>
<text text-anchor="start" x="252.28" y="-1120.5" font-family="Helvetica,sans-Serif" font-size="10.00">+ audioReady</text>
<text text-anchor="start" x="252.28" y="-1109.5" font-family="Helvetica,sans-Serif" font-size="10.00">+ outputAudioSource</text>
<text text-anchor="start" x="252.28" y="-1098.5" font-family="Helvetica,sans-Serif" font-size="10.00">+ inputAudioSource</text>
<text text-anchor="start" x="252.28" y="-1087.5" font-family="Helvetica,sans-Serif" font-size="10.00">+ bufferSize</text>
<text text-anchor="start" x="252.28" y="-1076.5" font-family="Helvetica,sans-Serif" font-size="10.00">+ bitrate</text>
<text text-anchor="start" x="252.28" y="-1065.5" font-family="Helvetica,sans-Serif" font-size="10.00">&#45; audioStreamTrack</text>
<text text-anchor="start" x="252.28" y="-1054.5" font-family="Helvetica,sans-Serif" font-size="10.00">&#45; lengthSeconds</text>
<text text-anchor="start" x="252.28" y="-1043.5" font-family="Helvetica,sans-Serif" font-size="10.00">&#45; samplingFreq</text>
<text text-anchor="start" x="252.28" y="-1032.5" font-family="Helvetica,sans-Serif" font-size="10.00">&#45; context</text>
<text text-anchor="start" x="252.28" y="-1021.5" font-family="Helvetica,sans-Serif" font-size="10.00">&#45; androidAudioManager</text>
<text text-anchor="start" x="252.28" y="-1010.5" font-family="Helvetica,sans-Serif" font-size="10.00">&#45; defaultMode</text>
<text text-anchor="start" x="252.28" y="-999.5" font-family="Helvetica,sans-Serif" font-size="10.00">&#45; defaultIsSpeakerphone</text>
<text text-anchor="start" x="252.28" y="-988.5" font-family="Helvetica,sans-Serif" font-size="10.00">&#45; voiceMinVol</text>
<text text-anchor="start" x="252.28" y="-977.5" font-family="Helvetica,sans-Serif" font-size="10.00">&#45; mediaMinVol</text>
<text text-anchor="start" x="252.28" y="-966.5" font-family="Helvetica,sans-Serif" font-size="10.00">&#45; voiceMaxVol</text>
<text text-anchor="start" x="252.28" y="-955.5" font-family="Helvetica,sans-Serif" font-size="10.00">&#45; mediaMaxVol</text>
<text text-anchor="start" x="252.28" y="-944.5" font-family="Helvetica,sans-Serif" font-size="10.00">&#45; originalMediaVol</text>
<text text-anchor="start" x="252.28" y="-933.5" font-family="Helvetica,sans-Serif" font-size="10.00">&#45; microphoneCallbacks</text>
<text text-anchor="start" x="252.28" y="-922.5" font-family="Helvetica,sans-Serif" font-size="10.00">&#45; muted</text>
<text text-anchor="start" x="252.28" y="-911.5" font-family="Helvetica,sans-Serif" font-size="10.00">&#45; communicationDevice</text>
<text text-anchor="start" x="252.28" y="-900.5" font-family="Helvetica,sans-Serif" font-size="10.00">&#45; spectrum</text>
<text text-anchor="start" x="252.28" y="-889.5" font-family="Helvetica,sans-Serif" font-size="10.00">&#45; voiceVolume</text>
<text text-anchor="start" x="252.28" y="-878.5" font-family="Helvetica,sans-Serif" font-size="10.00">&#45; lastCallVolume</text>
<polyline fill="none" stroke="black" points="244.28,-871.5 481.28,-871.5 "/>
<text text-anchor="start" x="252.28" y="-859.5" font-family="Helvetica,sans-Serif" font-size="10.00">+ ToggleMuteInput()</text>
<text text-anchor="start" x="252.28" y="-848.5" font-family="Helvetica,sans-Serif" font-size="10.00">+ ToggleMuteOutput()</text>
<text text-anchor="start" x="252.28" y="-837.5" font-family="Helvetica,sans-Serif" font-size="10.00">+ RecordAudio()</text>
<text text-anchor="start" x="252.28" y="-826.5" font-family="Helvetica,sans-Serif" font-size="10.00">+ PlayAudio()</text>
<text text-anchor="start" x="252.28" y="-815.5" font-family="Helvetica,sans-Serif" font-size="10.00">+ GetVolume()</text>
<text text-anchor="start" x="252.28" y="-804.5" font-family="Helvetica,sans-Serif" font-size="10.00">&#45; Awake()</text>
<text text-anchor="start" x="252.28" y="-793.5" font-family="Helvetica,sans-Serif" font-size="10.00">&#45; Start()</text>
<text text-anchor="start" x="252.28" y="-782.5" font-family="Helvetica,sans-Serif" font-size="10.00">&#45; Update()</text>
<text text-anchor="start" x="252.28" y="-771.5" font-family="Helvetica,sans-Serif" font-size="10.00">&#45; SetVideocallAudio()</text>
<text text-anchor="start" x="252.28" y="-760.5" font-family="Helvetica,sans-Serif" font-size="10.00">&#45; scaleValueToRange()</text>
<text text-anchor="start" x="252.28" y="-749.5" font-family="Helvetica,sans-Serif" font-size="10.00">&#45; MicrophonePermissionGranted()</text>
<text text-anchor="start" x="252.28" y="-738.5" font-family="Helvetica,sans-Serif" font-size="10.00">&#45; MicrophonePermissionDenied()</text>
<text text-anchor="start" x="252.28" y="-727.5" font-family="Helvetica,sans-Serif" font-size="10.00">&#45; MicrophonePermissionDeniedAndDontAskAgain()</text>
<text text-anchor="start" x="252.28" y="-716.5" font-family="Helvetica,sans-Serif" font-size="10.00">&#45; OnDestroy()</text>
</a>
</g>
</g>
<!-- Node2&#45;&gt;Node5 -->
<g id="edge8" class="edge">
<title>Node2&#45;&gt;Node5</title>
<path fill="none" stroke="midnightblue" d="M320.63,-1496.79C325.74,-1428.17 336.84,-1279.29 346.37,-1151.53"/>
<polygon fill="none" stroke="midnightblue" points="317.11,-1496.87 319.86,-1507.1 324.09,-1497.39 317.11,-1496.87"/>
</g>
<!-- Node6 -->
<g id="node6" class="node">
<title>Node6</title>
<g id="a_node6"><a xlink:href="class_client_manager.html" target="_top" xlink:title="Maneja la lógica las acciones del cliente">
<polygon fill="white" stroke="black" points="486.28,-885.5 486.28,-975.5 585.28,-975.5 585.28,-885.5 486.28,-885.5"/>
<text text-anchor="middle" x="535.78" y="-963.5" font-family="Helvetica,sans-Serif" font-size="10.00">ClientManager</text>
<polyline fill="none" stroke="black" points="486.28,-956.5 585.28,-956.5 "/>
<text text-anchor="middle" x="535.78" y="-944.5" font-family="Helvetica,sans-Serif" font-size="10.00"> </text>
<polyline fill="none" stroke="black" points="486.28,-937.5 585.28,-937.5 "/>
<text text-anchor="start" x="494.28" y="-925.5" font-family="Helvetica,sans-Serif" font-size="10.00">+ SelectTool()</text>
<text text-anchor="start" x="494.28" y="-914.5" font-family="Helvetica,sans-Serif" font-size="10.00">+ UndoDrawing()</text>
<text text-anchor="start" x="494.28" y="-903.5" font-family="Helvetica,sans-Serif" font-size="10.00">+ DeleteDrawings()</text>
<text text-anchor="start" x="494.28" y="-892.5" font-family="Helvetica,sans-Serif" font-size="10.00">+ SelectColor()</text>
</a>
</g>
</g>
<!-- Node2&#45;&gt;Node6 -->
<g id="edge10" class="edge">
<title>Node2&#45;&gt;Node6</title>
<path fill="none" stroke="midnightblue" d="M335.77,-1498.08C340.12,-1488.94 344.69,-1479.15 348.78,-1470 411.32,-1330.15 433.86,-1297.51 481.78,-1152 501.56,-1091.92 517.77,-1020.5 527.1,-975.58"/>
<polygon fill="none" stroke="midnightblue" points="332.51,-1496.77 331.35,-1507.3 338.83,-1499.8 332.51,-1496.77"/>
</g>
<!-- Node7 -->
<g id="node7" class="node">
<title>Node7</title>
<g id="a_node7"><a xlink:href="class_a_r_tool_manager.html" target="_top" xlink:title="Maneja la lógica de las herramientas de RA">
<polygon fill="white" stroke="black" points="545.28,-435.5 545.28,-690.5 644.28,-690.5 644.28,-435.5 545.28,-435.5"/>
<text text-anchor="middle" x="594.78" y="-678.5" font-family="Helvetica,sans-Serif" font-size="10.00">ARToolManager</text>
<polyline fill="none" stroke="black" points="545.28,-671.5 644.28,-671.5 "/>
<text text-anchor="start" x="553.28" y="-659.5" font-family="Helvetica,sans-Serif" font-size="10.00">+ recording</text>
<text text-anchor="start" x="553.28" y="-648.5" font-family="Helvetica,sans-Serif" font-size="10.00">+ hostMaterial</text>
<text text-anchor="start" x="553.28" y="-637.5" font-family="Helvetica,sans-Serif" font-size="10.00">+ clientMaterial</text>
<text text-anchor="start" x="553.28" y="-626.5" font-family="Helvetica,sans-Serif" font-size="10.00">+ ColorRed</text>
<text text-anchor="start" x="553.28" y="-615.5" font-family="Helvetica,sans-Serif" font-size="10.00">+ ColorBlue</text>
<text text-anchor="start" x="553.28" y="-604.5" font-family="Helvetica,sans-Serif" font-size="10.00">+ ColorGreen</text>
<text text-anchor="start" x="553.28" y="-593.5" font-family="Helvetica,sans-Serif" font-size="10.00">+ ColorYellow</text>
<text text-anchor="start" x="553.28" y="-582.5" font-family="Helvetica,sans-Serif" font-size="10.00">+ guidePrefab</text>
<text text-anchor="start" x="553.28" y="-571.5" font-family="Helvetica,sans-Serif" font-size="10.00">+ hostDrawings</text>
<text text-anchor="start" x="553.28" y="-560.5" font-family="Helvetica,sans-Serif" font-size="10.00">+ clientDrawings</text>
<text text-anchor="start" x="553.28" y="-549.5" font-family="Helvetica,sans-Serif" font-size="10.00">+ hostGuides</text>
<text text-anchor="start" x="553.28" y="-538.5" font-family="Helvetica,sans-Serif" font-size="10.00">+ clientGuides</text>
<text text-anchor="start" x="553.28" y="-527.5" font-family="Helvetica,sans-Serif" font-size="10.00">&#45; hostTools</text>
<text text-anchor="start" x="553.28" y="-516.5" font-family="Helvetica,sans-Serif" font-size="10.00">&#45; clientTools</text>
<polyline fill="none" stroke="black" points="545.28,-509.5 644.28,-509.5 "/>
<text text-anchor="start" x="553.28" y="-497.5" font-family="Helvetica,sans-Serif" font-size="10.00">+ SelectTool()</text>
<text text-anchor="start" x="553.28" y="-486.5" font-family="Helvetica,sans-Serif" font-size="10.00">+ UndoDrawing()</text>
<text text-anchor="start" x="553.28" y="-475.5" font-family="Helvetica,sans-Serif" font-size="10.00">+ DeleteDrawings()</text>
<text text-anchor="start" x="553.28" y="-464.5" font-family="Helvetica,sans-Serif" font-size="10.00">+ SelectColor()</text>
<text text-anchor="start" x="553.28" y="-453.5" font-family="Helvetica,sans-Serif" font-size="10.00">+ PlaceGuide()</text>
<text text-anchor="start" x="553.28" y="-442.5" font-family="Helvetica,sans-Serif" font-size="10.00">&#45; Awake()</text>
</a>
</g>
</g>
<!-- Node2&#45;&gt;Node7 -->
<g id="edge12" class="edge">
<title>Node2&#45;&gt;Node7</title>
<path fill="none" stroke="midnightblue" d="M368.47,-1512.53C388.47,-1501.81 410.5,-1487.48 426.78,-1470 534.58,-1354.2 549.19,-1305.68 586.78,-1152 624.8,-996.55 619.26,-811.02 609.25,-690.52"/>
<polygon fill="none" stroke="midnightblue" points="366.72,-1509.49 359.45,-1517.19 369.94,-1515.71 366.72,-1509.49"/>
</g>
<!-- Node3&#45;&gt;Node1 -->
<g id="edge2" class="edge">
<title>Node3&#45;&gt;Node1</title>
<path fill="none" stroke="#404040" d="M144.77,-457.26C147.27,-439.82 151.07,-422.16 156.78,-406 169.32,-370.45 189.11,-334.98 209.87,-303.55"/>
<polygon fill="none" stroke="#404040" points="209.93,-303.46 209.96,-296.24 216.63,-293.5 216.6,-300.71 209.93,-303.46"/>
<text text-anchor="middle" x="189.28" y="-409" font-family="Helvetica,sans-Serif" font-size="10.00"> &#45;inputManager</text>
</g>
<!-- Node4&#45;&gt;Node1 -->
<g id="edge6" class="edge">
<title>Node4&#45;&gt;Node1</title>
<path fill="none" stroke="#404040" d="M224.42,-1170.3C221.05,-994.22 220.87,-692.35 248.78,-435 250.03,-423.44 251.55,-411.62 253.27,-399.71"/>
<polygon fill="none" stroke="#404040" points="253.28,-399.64 250.21,-393.12 255.05,-387.77 258.12,-394.3 253.28,-399.64"/>
<text text-anchor="middle" x="281.78" y="-560.5" font-family="Helvetica,sans-Serif" font-size="10.00"> &#45;videoManager</text>
</g>
<!-- Node4&#45;&gt;Node3 -->
<g id="edge4" class="edge">
<title>Node4&#45;&gt;Node3</title>
<path fill="none" stroke="#404040" d="M170.16,-1214.17C161.37,-1194.09 153.64,-1172.82 148.78,-1152 128.63,-1065.7 132.59,-826 137.23,-680.67"/>
<polygon fill="none" stroke="#404040" points="137.23,-680.64 133.42,-674.51 137.62,-668.64 141.42,-674.77 137.23,-680.64"/>
<text text-anchor="middle" x="181.78" y="-928" font-family="Helvetica,sans-Serif" font-size="10.00"> &#45;videoManager</text>
</g>
<!-- Node5&#45;&gt;Node1 -->
<g id="edge7" class="edge">
<title>Node5&#45;&gt;Node1</title>
<path fill="none" stroke="#404040" d="M342.67,-709.13C333.71,-610.86 323.21,-495.79 314.43,-399.46"/>
<polygon fill="none" stroke="#404040" points="314.43,-399.46 309.9,-393.85 313.34,-387.51 317.87,-393.12 314.43,-399.46"/>
<text text-anchor="middle" x="374.28" y="-560.5" font-family="Helvetica,sans-Serif" font-size="10.00"> &#45;audioManager</text>
</g>
<!-- Node6&#45;&gt;Node1 -->
<g id="edge9" class="edge">
<title>Node6&#45;&gt;Node1</title>
<path fill="none" stroke="#404040" d="M529.6,-885.36C522.18,-839.78 507.39,-767.27 481.78,-709 477.91,-700.2 473.57,-699.84 469.78,-691 423.77,-583.79 450.3,-545.12 411.78,-435 402.72,-409.1 391.63,-382.33 379.95,-356.48"/>
<polygon fill="none" stroke="#404040" points="379.9,-356.37 373.77,-352.58 374.91,-345.46 381.04,-349.25 379.9,-356.37"/>
<text text-anchor="middle" x="503.28" y="-560.5" font-family="Helvetica,sans-Serif" font-size="10.00"> &#45;clientManager</text>
</g>
<!-- Node7&#45;&gt;Node1 -->
<g id="edge11" class="edge">
<title>Node7&#45;&gt;Node1</title>
<path fill="none" stroke="#404040" d="M545.19,-465.68C538.71,-455.08 531.85,-444.64 524.78,-435 483.02,-378.07 428.73,-320.62 383.5,-276.21"/>
<polygon fill="none" stroke="#404040" points="383.46,-276.17 376.37,-274.84 374.87,-267.79 381.96,-269.12 383.46,-276.17"/>
<text text-anchor="middle" x="542.78" y="-409" font-family="Helvetica,sans-Serif" font-size="10.00"> &#45;arToolManager</text>
</g>
</g>
</svg>
