<?xml version="1.0" encoding="UTF-8" standalone="no"?>
<!DOCTYPE svg PUBLIC "-//W3C//DTD SVG 1.1//EN"
 "http://www.w3.org/Graphics/SVG/1.1/DTD/svg11.dtd">
<!-- Generated by graphviz version 2.49.0 (20210828.1703)
 -->
<!-- Title: AndroidUtils.ResetAllCallBacks Pages: 1 -->
<svg width="388pt" height="104pt"
 viewBox="0.00 0.00 388.00 104.00" xmlns="http://www.w3.org/2000/svg" xmlns:xlink="http://www.w3.org/1999/xlink">
<g id="graph0" class="graph" transform="scale(1 1) rotate(0) translate(4 100)">
<title>AndroidUtils.ResetAllCallBacks</title>
<polygon fill="white" stroke="transparent" points="-4,4 -4,-100 384,-100 384,4 -4,4"/>
<!-- Node1 -->
<g id="node1" class="node">
<title>Node1</title>
<g id="a_node1"><a xlink:title=" ">
<polygon fill="#bfbfbf" stroke="black" points="227,-38.5 227,-57.5 380,-57.5 380,-38.5 227,-38.5"/>
<text text-anchor="middle" x="303.5" y="-45.5" font-family="Helvetica,sans-Serif" font-size="10.00">AndroidUtils.ResetAllCallBacks</text>
</a>
</g>
</g>
<!-- Node2 -->
<g id="node2" class="node">
<title>Node2</title>
<g id="a_node2"><a xlink:href="class_android_utils.html#a22c76f1db0cad804fa959a17e75a0362" target="_top" xlink:title=" ">
<polygon fill="white" stroke="black" points="41.5,-76.5 41.5,-95.5 149.5,-95.5 149.5,-76.5 41.5,-76.5"/>
<text text-anchor="middle" x="95.5" y="-83.5" font-family="Helvetica,sans-Serif" font-size="10.00">AndroidUtils.OnAllow</text>
</a>
</g>
</g>
<!-- Node1&#45;&gt;Node2 -->
<g id="edge1" class="edge">
<title>Node1&#45;&gt;Node2</title>
<path fill="none" stroke="midnightblue" d="M240.6,-59.42C211.13,-64.86 176.28,-71.28 148.24,-76.46"/>
<polygon fill="midnightblue" stroke="midnightblue" points="241.58,-62.8 250.78,-57.54 240.31,-55.91 241.58,-62.8"/>
</g>
<!-- Node3 -->
<g id="node3" class="node">
<title>Node3</title>
<g id="a_node3"><a xlink:href="class_android_utils.html#ab674095a4abe9ae82c5f9cdab9093bd9" target="_top" xlink:title=" ">
<polygon fill="white" stroke="black" points="42,-38.5 42,-57.5 149,-57.5 149,-38.5 42,-38.5"/>
<text text-anchor="middle" x="95.5" y="-45.5" font-family="Helvetica,sans-Serif" font-size="10.00">AndroidUtils.OnDeny</text>
</a>
</g>
</g>
<!-- Node1&#45;&gt;Node3 -->
<g id="edge2" class="edge">
<title>Node1&#45;&gt;Node3</title>
<path fill="none" stroke="midnightblue" d="M216.86,-48C193.9,-48 169.76,-48 149.17,-48"/>
<polygon fill="midnightblue" stroke="midnightblue" points="216.96,-51.5 226.96,-48 216.96,-44.5 216.96,-51.5"/>
</g>
<!-- Node4 -->
<g id="node4" class="node">
<title>Node4</title>
<g id="a_node4"><a xlink:href="class_android_utils.html#a6f5f965c487fe324583b5fd1808da0a9" target="_top" xlink:title=" ">
<polygon fill="white" stroke="black" points="0,-0.5 0,-19.5 191,-19.5 191,-0.5 0,-0.5"/>
<text text-anchor="middle" x="95.5" y="-7.5" font-family="Helvetica,sans-Serif" font-size="10.00">AndroidUtils.OnDenyAndNeverAskAgain</text>
</a>
</g>
</g>
<!-- Node1&#45;&gt;Node4 -->
<g id="edge3" class="edge">
<title>Node1&#45;&gt;Node4</title>
<path fill="none" stroke="midnightblue" d="M240.6,-36.58C211.13,-31.14 176.28,-24.72 148.24,-19.54"/>
<polygon fill="midnightblue" stroke="midnightblue" points="240.31,-40.09 250.78,-38.46 241.58,-33.2 240.31,-40.09"/>
</g>
</g>
</svg>
