<?xml version="1.0" encoding="UTF-8" standalone="no"?>
<!DOCTYPE svg PUBLIC "-//W3C//DTD SVG 1.1//EN"
 "http://www.w3.org/Graphics/SVG/1.1/DTD/svg11.dtd">
<!-- Generated by graphviz version 2.49.0 (20210828.1703)
 -->
<!-- Title: AndroidUtils.StartRecording Pages: 1 -->
<svg width="526pt" height="104pt"
 viewBox="0.00 0.00 526.00 104.00" xmlns="http://www.w3.org/2000/svg" xmlns:xlink="http://www.w3.org/1999/xlink">
<g id="graph0" class="graph" transform="scale(1 1) rotate(0) translate(4 100)">
<title>AndroidUtils.StartRecording</title>
<polygon fill="white" stroke="transparent" points="-4,4 -4,-100 522,-100 522,4 -4,4"/>
<!-- Node1 -->
<g id="node1" class="node">
<title>Node1</title>
<g id="a_node1"><a xlink:title=" ">
<polygon fill="#bfbfbf" stroke="black" points="0,-38.5 0,-57.5 137,-57.5 137,-38.5 0,-38.5"/>
<text text-anchor="middle" x="68.5" y="-45.5" font-family="Helvetica,sans-Serif" font-size="10.00">AndroidUtils.StartRecording</text>
</a>
</g>
</g>
<!-- Node2 -->
<g id="node2" class="node">
<title>Node2</title>
<g id="a_node2"><a xlink:href="class_android_utils.html#a5ea9e5ec637706a8bc9c508e88fdeabb" target="_top" xlink:title=" ">
<polygon fill="white" stroke="black" points="190.5,-76.5 190.5,-95.5 312.5,-95.5 312.5,-76.5 190.5,-76.5"/>
<text text-anchor="middle" x="251.5" y="-83.5" font-family="Helvetica,sans-Serif" font-size="10.00">AndroidUtils.IsPermitted</text>
</a>
</g>
</g>
<!-- Node1&#45;&gt;Node2 -->
<g id="edge1" class="edge">
<title>Node1&#45;&gt;Node2</title>
<path fill="none" stroke="midnightblue" d="M115.17,-57.59C139.49,-62.69 169.58,-69.01 195.21,-74.39"/>
<polygon fill="midnightblue" stroke="midnightblue" points="194.65,-77.85 205.15,-76.48 196.09,-71 194.65,-77.85"/>
</g>
<!-- Node4 -->
<g id="node4" class="node">
<title>Node4</title>
<g id="a_node4"><a xlink:href="class_android_utils.html#a3e4428268503fe82ecd74416c37b2ae2" target="_top" xlink:title=" ">
<polygon fill="white" stroke="black" points="173,-38.5 173,-57.5 330,-57.5 330,-38.5 173,-38.5"/>
<text text-anchor="middle" x="251.5" y="-45.5" font-family="Helvetica,sans-Serif" font-size="10.00">AndroidUtils.RequestPermission</text>
</a>
</g>
</g>
<!-- Node1&#45;&gt;Node4 -->
<g id="edge3" class="edge">
<title>Node1&#45;&gt;Node4</title>
<path fill="none" stroke="midnightblue" d="M137.16,-48C145.53,-48 154.18,-48 162.79,-48"/>
<polygon fill="midnightblue" stroke="midnightblue" points="162.88,-51.5 172.88,-48 162.88,-44.5 162.88,-51.5"/>
</g>
<!-- Node5 -->
<g id="node5" class="node">
<title>Node5</title>
<g id="a_node5"><a xlink:href="class_android_utils.html#af3ddee265b4dfc672eddae5699c8fb2b" target="_top" xlink:title=" ">
<polygon fill="white" stroke="black" points="191.5,-0.5 191.5,-19.5 311.5,-19.5 311.5,-0.5 191.5,-0.5"/>
<text text-anchor="middle" x="251.5" y="-7.5" font-family="Helvetica,sans-Serif" font-size="10.00">AndroidUtils.ShowToast</text>
</a>
</g>
</g>
<!-- Node1&#45;&gt;Node5 -->
<g id="edge5" class="edge">
<title>Node1&#45;&gt;Node5</title>
<path fill="none" stroke="midnightblue" d="M115.17,-38.41C139.49,-33.31 169.58,-26.99 195.21,-21.61"/>
<polygon fill="midnightblue" stroke="midnightblue" points="196.09,-25 205.15,-19.52 194.65,-18.15 196.09,-25"/>
</g>
<!-- Node3 -->
<g id="node3" class="node">
<title>Node3</title>
<g id="a_node3"><a xlink:href="class_android_utils.html#af4c6dc91c5c610c75c6685a19bf61abe" target="_top" xlink:title=" ">
<polygon fill="white" stroke="black" points="366,-57.5 366,-76.5 518,-76.5 518,-57.5 366,-57.5"/>
<text text-anchor="middle" x="442" y="-64.5" font-family="Helvetica,sans-Serif" font-size="10.00">AndroidUtils.GetPermissionStrr</text>
</a>
</g>
</g>
<!-- Node2&#45;&gt;Node3 -->
<g id="edge2" class="edge">
<title>Node2&#45;&gt;Node3</title>
<path fill="none" stroke="midnightblue" d="M312.66,-79.94C326.41,-78.55 341.27,-77.05 355.84,-75.58"/>
<polygon fill="midnightblue" stroke="midnightblue" points="356.26,-79.06 365.86,-74.57 355.56,-72.09 356.26,-79.06"/>
</g>
<!-- Node4&#45;&gt;Node3 -->
<g id="edge4" class="edge">
<title>Node4&#45;&gt;Node3</title>
<path fill="none" stroke="midnightblue" d="M330.26,-55.84C338.71,-56.69 347.35,-57.56 355.89,-58.42"/>
<polygon fill="midnightblue" stroke="midnightblue" points="355.55,-61.9 365.85,-59.43 356.25,-54.94 355.55,-61.9"/>
</g>
</g>
</svg>
