<?xml version="1.0" encoding="UTF-8" standalone="no"?>
<!DOCTYPE svg PUBLIC "-//W3C//DTD SVG 1.1//EN"
 "http://www.w3.org/Graphics/SVG/1.1/DTD/svg11.dtd">
<!-- Generated by graphviz version 2.49.0 (20210828.1703)
 -->
<!-- Title: ARPointer Pages: 1 -->
<svg width="436pt" height="1056pt"
 viewBox="0.00 0.00 436.23 1056.00" xmlns="http://www.w3.org/2000/svg" xmlns:xlink="http://www.w3.org/1999/xlink">
<g id="graph0" class="graph" transform="scale(1 1) rotate(0) translate(4 1052)">
<title>ARPointer</title>
<polygon fill="white" stroke="transparent" points="-4,4 -4,-1052 432.23,-1052 432.23,4 -4,4"/>
<!-- Node1 -->
<g id="node1" class="node">
<title>Node1</title>
<g id="a_node1"><a xlink:title="Modela el comportamiento de la herramienta ARPointer">
<polygon fill="#bfbfbf" stroke="black" points="172.73,-0.5 172.73,-101.5 249.73,-101.5 249.73,-0.5 172.73,-0.5"/>
<text text-anchor="middle" x="211.23" y="-89.5" font-family="Helvetica,sans-Serif" font-size="10.00">ARPointer</text>
<polyline fill="none" stroke="black" points="172.73,-82.5 249.73,-82.5 "/>
<text text-anchor="start" x="180.73" y="-70.5" font-family="Helvetica,sans-Serif" font-size="10.00">&#45; myPeerType</text>
<text text-anchor="start" x="180.73" y="-59.5" font-family="Helvetica,sans-Serif" font-size="10.00">&#45; cursorWidth</text>
<text text-anchor="start" x="180.73" y="-48.5" font-family="Helvetica,sans-Serif" font-size="10.00">&#45; pointer</text>
<polyline fill="none" stroke="black" points="172.73,-41.5 249.73,-41.5 "/>
<text text-anchor="start" x="180.73" y="-29.5" font-family="Helvetica,sans-Serif" font-size="10.00">&#45; Awake()</text>
<text text-anchor="start" x="180.73" y="-18.5" font-family="Helvetica,sans-Serif" font-size="10.00">&#45; Start()</text>
<text text-anchor="start" x="180.73" y="-7.5" font-family="Helvetica,sans-Serif" font-size="10.00">&#45; Update()</text>
</a>
</g>
</g>
<!-- Node2 -->
<g id="node2" class="node">
<title>Node2</title>
<g id="a_node2"><a xlink:title=" ">
<polygon fill="white" stroke="#bfbfbf" points="138.73,-990.5 138.73,-1047.5 221.73,-1047.5 221.73,-990.5 138.73,-990.5"/>
<text text-anchor="middle" x="180.23" y="-1035.5" font-family="Helvetica,sans-Serif" font-size="10.00">MonoBehaviour</text>
<polyline fill="none" stroke="#bfbfbf" points="138.73,-1028.5 221.73,-1028.5 "/>
<text text-anchor="middle" x="180.23" y="-1016.5" font-family="Helvetica,sans-Serif" font-size="10.00"> </text>
<polyline fill="none" stroke="#bfbfbf" points="138.73,-1009.5 221.73,-1009.5 "/>
<text text-anchor="middle" x="180.23" y="-997.5" font-family="Helvetica,sans-Serif" font-size="10.00"> </text>
</a>
</g>
</g>
<!-- Node2&#45;&gt;Node1 -->
<g id="edge1" class="edge">
<title>Node2&#45;&gt;Node1</title>
<path fill="none" stroke="midnightblue" d="M146.17,-982.35C139.42,-973.39 133.19,-963.36 129.23,-953 1.35,-618.88 -64.58,-471.52 90.23,-149 107.18,-113.68 143.95,-87.18 172.53,-70.88"/>
<polygon fill="none" stroke="midnightblue" points="143.5,-984.61 152.48,-990.25 148.98,-980.25 143.5,-984.61"/>
</g>
<!-- Node3 -->
<g id="node3" class="node">
<title>Node3</title>
<g id="a_node3"><a xlink:href="class_my_input_manager.html" target="_top" xlink:title=" ">
<polygon fill="white" stroke="black" points="99.23,-149.5 99.23,-360.5 215.23,-360.5 215.23,-149.5 99.23,-149.5"/>
<text text-anchor="middle" x="157.23" y="-348.5" font-family="Helvetica,sans-Serif" font-size="10.00">MyInputManager</text>
<polyline fill="none" stroke="black" points="99.23,-341.5 215.23,-341.5 "/>
<text text-anchor="start" x="107.23" y="-329.5" font-family="Helvetica,sans-Serif" font-size="10.00">+ myPeerType</text>
<text text-anchor="start" x="107.23" y="-318.5" font-family="Helvetica,sans-Serif" font-size="10.00">+ recording</text>
<text text-anchor="start" x="107.23" y="-307.5" font-family="Helvetica,sans-Serif" font-size="10.00">+ hostPosition</text>
<text text-anchor="start" x="107.23" y="-296.5" font-family="Helvetica,sans-Serif" font-size="10.00">+ clientPosition</text>
<text text-anchor="start" x="107.23" y="-285.5" font-family="Helvetica,sans-Serif" font-size="10.00">+ clientKeyboard</text>
<text text-anchor="start" x="107.23" y="-274.5" font-family="Helvetica,sans-Serif" font-size="10.00">&#45; scaledPixelRatioX</text>
<text text-anchor="start" x="107.23" y="-263.5" font-family="Helvetica,sans-Serif" font-size="10.00">&#45; scaledPixelRatioY</text>
<text text-anchor="start" x="107.23" y="-252.5" font-family="Helvetica,sans-Serif" font-size="10.00">&#45; clientAspectRatio</text>
<text text-anchor="start" x="107.23" y="-241.5" font-family="Helvetica,sans-Serif" font-size="10.00">&#45; croppedScreenWidth</text>
<text text-anchor="start" x="107.23" y="-230.5" font-family="Helvetica,sans-Serif" font-size="10.00">&#45; croppedScreenHeight</text>
<text text-anchor="start" x="107.23" y="-219.5" font-family="Helvetica,sans-Serif" font-size="10.00">&#45; offsetX</text>
<text text-anchor="start" x="107.23" y="-208.5" font-family="Helvetica,sans-Serif" font-size="10.00">&#45; offsetY</text>
<polyline fill="none" stroke="black" points="99.23,-201.5 215.23,-201.5 "/>
<text text-anchor="start" x="107.23" y="-189.5" font-family="Helvetica,sans-Serif" font-size="10.00">+ IsHeldDown()</text>
<text text-anchor="start" x="107.23" y="-178.5" font-family="Helvetica,sans-Serif" font-size="10.00">&#45; Awake()</text>
<text text-anchor="start" x="107.23" y="-167.5" font-family="Helvetica,sans-Serif" font-size="10.00">&#45; Start()</text>
<text text-anchor="start" x="107.23" y="-156.5" font-family="Helvetica,sans-Serif" font-size="10.00">&#45; Update()</text>
</a>
</g>
</g>
<!-- Node2&#45;&gt;Node3 -->
<g id="edge3" class="edge">
<title>Node2&#45;&gt;Node3</title>
<path fill="none" stroke="midnightblue" d="M164.13,-981C160.9,-972 157.97,-962.29 156.23,-953 109.37,-702.22 145.01,-634.05 151.23,-379 151.38,-373.02 151.56,-366.87 151.78,-360.67"/>
<polygon fill="none" stroke="midnightblue" points="160.88,-982.32 167.71,-990.43 167.43,-979.84 160.88,-982.32"/>
</g>
<!-- Node4 -->
<g id="node4" class="node">
<title>Node4</title>
<g id="a_node4"><a xlink:href="class_video_manager.html" target="_top" xlink:title="Maneja la l贸gica de la grabaci贸n y visualizaci贸n de video">
<polygon fill="white" stroke="black" points="165.73,-653.5 165.73,-952.5 282.73,-952.5 282.73,-653.5 165.73,-653.5"/>
<text text-anchor="middle" x="224.23" y="-940.5" font-family="Helvetica,sans-Serif" font-size="10.00">VideoManager</text>
<polyline fill="none" stroke="black" points="165.73,-933.5 282.73,-933.5 "/>
<text text-anchor="start" x="173.73" y="-921.5" font-family="Helvetica,sans-Serif" font-size="10.00">+ width</text>
<text text-anchor="start" x="173.73" y="-910.5" font-family="Helvetica,sans-Serif" font-size="10.00">+ height</text>
<text text-anchor="start" x="173.73" y="-899.5" font-family="Helvetica,sans-Serif" font-size="10.00">+ aspectRatio</text>
<text text-anchor="start" x="173.73" y="-888.5" font-family="Helvetica,sans-Serif" font-size="10.00">+ bitrate</text>
<text text-anchor="start" x="173.73" y="-877.5" font-family="Helvetica,sans-Serif" font-size="10.00">+ framerate</text>
<text text-anchor="start" x="173.73" y="-866.5" font-family="Helvetica,sans-Serif" font-size="10.00">+ isRecording</text>
<text text-anchor="start" x="173.73" y="-855.5" font-family="Helvetica,sans-Serif" font-size="10.00">+ videoRawImage</text>
<text text-anchor="start" x="173.73" y="-844.5" font-family="Helvetica,sans-Serif" font-size="10.00">+ videoStreamTrack</text>
<text text-anchor="start" x="173.73" y="-833.5" font-family="Helvetica,sans-Serif" font-size="10.00">+ videoDisabled</text>
<text text-anchor="start" x="173.73" y="-822.5" font-family="Helvetica,sans-Serif" font-size="10.00">+ mainCam</text>
<text text-anchor="start" x="173.73" y="-811.5" font-family="Helvetica,sans-Serif" font-size="10.00">+ arSession</text>
<text text-anchor="start" x="173.73" y="-800.5" font-family="Helvetica,sans-Serif" font-size="10.00">&#45; arCam</text>
<text text-anchor="start" x="173.73" y="-789.5" font-family="Helvetica,sans-Serif" font-size="10.00">&#45; webCam</text>
<text text-anchor="start" x="173.73" y="-778.5" font-family="Helvetica,sans-Serif" font-size="10.00">&#45; webCamRawImage</text>
<text text-anchor="start" x="173.73" y="-767.5" font-family="Helvetica,sans-Serif" font-size="10.00">&#45; webcamTexture</text>
<text text-anchor="start" x="173.73" y="-756.5" font-family="Helvetica,sans-Serif" font-size="10.00">&#45; noVideoAR</text>
<text text-anchor="start" x="173.73" y="-745.5" font-family="Helvetica,sans-Serif" font-size="10.00">&#45; noVideoUI</text>
<text text-anchor="start" x="173.73" y="-734.5" font-family="Helvetica,sans-Serif" font-size="10.00">&#45; arToolTipsUI</text>
<polyline fill="none" stroke="black" points="165.73,-727.5 282.73,-727.5 "/>
<text text-anchor="start" x="173.73" y="-715.5" font-family="Helvetica,sans-Serif" font-size="10.00">+ RecordCamera()</text>
<text text-anchor="start" x="173.73" y="-704.5" font-family="Helvetica,sans-Serif" font-size="10.00">+ ShowVideo()</text>
<text text-anchor="start" x="173.73" y="-693.5" font-family="Helvetica,sans-Serif" font-size="10.00">+ ToggleVideo()</text>
<text text-anchor="start" x="173.73" y="-682.5" font-family="Helvetica,sans-Serif" font-size="10.00">&#45; Awake()</text>
<text text-anchor="start" x="173.73" y="-671.5" font-family="Helvetica,sans-Serif" font-size="10.00">&#45; Start()</text>
<text text-anchor="start" x="173.73" y="-660.5" font-family="Helvetica,sans-Serif" font-size="10.00">&#45; OnApplicationPause()</text>
</a>
</g>
</g>
<!-- Node2&#45;&gt;Node4 -->
<g id="edge5" class="edge">
<title>Node2&#45;&gt;Node4</title>
<path fill="none" stroke="midnightblue" d="M187.96,-980.41C189.68,-972.03 191.61,-962.65 193.66,-952.7"/>
<polygon fill="none" stroke="midnightblue" points="184.48,-979.96 185.89,-990.46 191.33,-981.37 184.48,-979.96"/>
</g>
<!-- Node5 -->
<g id="node5" class="node">
<title>Node5</title>
<g id="a_node5"><a xlink:href="class_a_r_tool_manager.html" target="_top" xlink:title="Maneja la l贸gica de las herramientas de RA">
<polygon fill="white" stroke="black" points="284.73,-379.5 284.73,-634.5 383.73,-634.5 383.73,-379.5 284.73,-379.5"/>
<text text-anchor="middle" x="334.23" y="-622.5" font-family="Helvetica,sans-Serif" font-size="10.00">ARToolManager</text>
<polyline fill="none" stroke="black" points="284.73,-615.5 383.73,-615.5 "/>
<text text-anchor="start" x="292.73" y="-603.5" font-family="Helvetica,sans-Serif" font-size="10.00">+ recording</text>
<text text-anchor="start" x="292.73" y="-592.5" font-family="Helvetica,sans-Serif" font-size="10.00">+ hostMaterial</text>
<text text-anchor="start" x="292.73" y="-581.5" font-family="Helvetica,sans-Serif" font-size="10.00">+ clientMaterial</text>
<text text-anchor="start" x="292.73" y="-570.5" font-family="Helvetica,sans-Serif" font-size="10.00">+ ColorRed</text>
<text text-anchor="start" x="292.73" y="-559.5" font-family="Helvetica,sans-Serif" font-size="10.00">+ ColorBlue</text>
<text text-anchor="start" x="292.73" y="-548.5" font-family="Helvetica,sans-Serif" font-size="10.00">+ ColorGreen</text>
<text text-anchor="start" x="292.73" y="-537.5" font-family="Helvetica,sans-Serif" font-size="10.00">+ ColorYellow</text>
<text text-anchor="start" x="292.73" y="-526.5" font-family="Helvetica,sans-Serif" font-size="10.00">+ guidePrefab</text>
<text text-anchor="start" x="292.73" y="-515.5" font-family="Helvetica,sans-Serif" font-size="10.00">+ hostDrawings</text>
<text text-anchor="start" x="292.73" y="-504.5" font-family="Helvetica,sans-Serif" font-size="10.00">+ clientDrawings</text>
<text text-anchor="start" x="292.73" y="-493.5" font-family="Helvetica,sans-Serif" font-size="10.00">+ hostGuides</text>
<text text-anchor="start" x="292.73" y="-482.5" font-family="Helvetica,sans-Serif" font-size="10.00">+ clientGuides</text>
<text text-anchor="start" x="292.73" y="-471.5" font-family="Helvetica,sans-Serif" font-size="10.00">&#45; hostTools</text>
<text text-anchor="start" x="292.73" y="-460.5" font-family="Helvetica,sans-Serif" font-size="10.00">&#45; clientTools</text>
<polyline fill="none" stroke="black" points="284.73,-453.5 383.73,-453.5 "/>
<text text-anchor="start" x="292.73" y="-441.5" font-family="Helvetica,sans-Serif" font-size="10.00">+ SelectTool()</text>
<text text-anchor="start" x="292.73" y="-430.5" font-family="Helvetica,sans-Serif" font-size="10.00">+ UndoDrawing()</text>
<text text-anchor="start" x="292.73" y="-419.5" font-family="Helvetica,sans-Serif" font-size="10.00">+ DeleteDrawings()</text>
<text text-anchor="start" x="292.73" y="-408.5" font-family="Helvetica,sans-Serif" font-size="10.00">+ SelectColor()</text>
<text text-anchor="start" x="292.73" y="-397.5" font-family="Helvetica,sans-Serif" font-size="10.00">+ PlaceGuide()</text>
<text text-anchor="start" x="292.73" y="-386.5" font-family="Helvetica,sans-Serif" font-size="10.00">&#45; Awake()</text>
</a>
</g>
</g>
<!-- Node2&#45;&gt;Node5 -->
<g id="edge8" class="edge">
<title>Node2&#45;&gt;Node5</title>
<path fill="none" stroke="midnightblue" d="M231.28,-1000.39C253.39,-990.09 277.34,-974.73 291.23,-953 351.42,-858.82 357.5,-729.79 351.3,-634.92"/>
<polygon fill="none" stroke="midnightblue" points="229.69,-997.27 221.96,-1004.51 232.52,-1003.67 229.69,-997.27"/>
</g>
<!-- Node3&#45;&gt;Node1 -->
<g id="edge2" class="edge">
<title>Node3&#45;&gt;Node1</title>
<path fill="none" stroke="#404040" d="M164.74,-149.23C166.72,-139.23 169.17,-129.34 172.23,-120 173.01,-117.63 173.87,-115.24 174.81,-112.86"/>
<polygon fill="none" stroke="#404040" points="174.84,-112.8 173.59,-105.69 179.67,-101.81 180.92,-108.91 174.84,-112.8"/>
<text text-anchor="middle" x="204.73" y="-123" font-family="Helvetica,sans-Serif" font-size="10.00"> &#45;inputManager</text>
</g>
<!-- Node4&#45;&gt;Node1 -->
<g id="edge6" class="edge">
<title>Node4&#45;&gt;Node1</title>
<path fill="none" stroke="#404040" d="M236.4,-653.16C236.72,-647.03 237,-640.96 237.23,-635 241.67,-520.64 258.01,-232.54 237.23,-120 236.81,-117.72 236.31,-115.41 235.76,-113.1"/>
<polygon fill="none" stroke="#404040" points="235.76,-113.09 230.29,-108.39 232.53,-101.53 238,-106.24 235.76,-113.09"/>
<text text-anchor="middle" x="281.23" y="-252.5" font-family="Helvetica,sans-Serif" font-size="10.00"> &#45;videoManager</text>
</g>
<!-- Node4&#45;&gt;Node3 -->
<g id="edge4" class="edge">
<title>Node4&#45;&gt;Node3</title>
<path fill="none" stroke="#404040" d="M174.81,-653.18C173.47,-647.07 172.27,-640.99 171.23,-635 156.11,-548.05 152.99,-448.25 153.44,-372.9"/>
<polygon fill="none" stroke="#404040" points="153.45,-372.54 149.5,-366.51 153.55,-360.54 157.5,-366.58 153.45,-372.54"/>
<text text-anchor="middle" x="204.23" y="-504.5" font-family="Helvetica,sans-Serif" font-size="10.00"> &#45;videoManager</text>
</g>
<!-- Node5&#45;&gt;Node1 -->
<g id="edge7" class="edge">
<title>Node5&#45;&gt;Node1</title>
<path fill="none" stroke="#404040" d="M353.36,-379.22C358.39,-308.26 354.87,-220.05 321.23,-149 308.08,-121.24 282.9,-98.1 259.94,-81.39"/>
<polygon fill="none" stroke="#404040" points="259.77,-81.28 252.57,-81.12 249.94,-74.4 257.15,-74.56 259.77,-81.28"/>
<text text-anchor="middle" x="391.23" y="-252.5" font-family="Helvetica,sans-Serif" font-size="10.00"> &#45;aRToolManager</text>
</g>
</g>
</svg>
