<?xml version="1.0" encoding="UTF-8" standalone="no"?>
<!DOCTYPE svg PUBLIC "-//W3C//DTD SVG 1.1//EN"
 "http://www.w3.org/Graphics/SVG/1.1/DTD/svg11.dtd">
<!-- Generated by graphviz version 2.49.0 (20210828.1703)
 -->
<!-- Title: ToolbarUIController Pages: 1 -->
<svg width="878pt" height="1898pt"
 viewBox="0.00 0.00 878.08 1898.00" xmlns="http://www.w3.org/2000/svg" xmlns:xlink="http://www.w3.org/1999/xlink">
<g id="graph0" class="graph" transform="scale(1 1) rotate(0) translate(4 1894)">
<title>ToolbarUIController</title>
<polygon fill="white" stroke="transparent" points="-4,4 -4,-1894 874.08,-1894 874.08,4 -4,4"/>
<!-- Node1 -->
<g id="node1" class="node">
<title>Node1</title>
<g id="a_node1"><a xlink:title="Controla la interfaz de la barra de heramientas en una videollamada o grabación">
<polygon fill="#bfbfbf" stroke="black" points="480.58,-0.5 480.58,-277.5 587.58,-277.5 587.58,-0.5 480.58,-0.5"/>
<text text-anchor="middle" x="534.08" y="-265.5" font-family="Helvetica,sans-Serif" font-size="10.00">ToolbarUIController</text>
<polyline fill="none" stroke="black" points="480.58,-258.5 587.58,-258.5 "/>
<text text-anchor="start" x="488.58" y="-246.5" font-family="Helvetica,sans-Serif" font-size="10.00">+ peer</text>
<text text-anchor="start" x="488.58" y="-235.5" font-family="Helvetica,sans-Serif" font-size="10.00">+ isRecording</text>
<text text-anchor="start" x="488.58" y="-224.5" font-family="Helvetica,sans-Serif" font-size="10.00">+ deleteBar</text>
<text text-anchor="start" x="488.58" y="-213.5" font-family="Helvetica,sans-Serif" font-size="10.00">+ arToolsBar</text>
<text text-anchor="start" x="488.58" y="-202.5" font-family="Helvetica,sans-Serif" font-size="10.00">+ colorsBar</text>
<text text-anchor="start" x="488.58" y="-191.5" font-family="Helvetica,sans-Serif" font-size="10.00">&#45; undo</text>
<text text-anchor="start" x="488.58" y="-180.5" font-family="Helvetica,sans-Serif" font-size="10.00">&#45; deleteBtn</text>
<text text-anchor="start" x="488.58" y="-169.5" font-family="Helvetica,sans-Serif" font-size="10.00">&#45; deleteMine</text>
<text text-anchor="start" x="488.58" y="-158.5" font-family="Helvetica,sans-Serif" font-size="10.00">&#45; deleteAll</text>
<text text-anchor="start" x="488.58" y="-147.5" font-family="Helvetica,sans-Serif" font-size="10.00">&#45; selectedTool</text>
<text text-anchor="start" x="488.58" y="-136.5" font-family="Helvetica,sans-Serif" font-size="10.00">&#45; tool1</text>
<text text-anchor="start" x="488.58" y="-125.5" font-family="Helvetica,sans-Serif" font-size="10.00">&#45; tool2</text>
<text text-anchor="start" x="488.58" y="-114.5" font-family="Helvetica,sans-Serif" font-size="10.00">&#45; tool3</text>
<text text-anchor="start" x="488.58" y="-103.5" font-family="Helvetica,sans-Serif" font-size="10.00">&#45; selectedColor</text>
<text text-anchor="start" x="488.58" y="-92.5" font-family="Helvetica,sans-Serif" font-size="10.00">&#45; color1</text>
<text text-anchor="start" x="488.58" y="-81.5" font-family="Helvetica,sans-Serif" font-size="10.00">&#45; color2</text>
<text text-anchor="start" x="488.58" y="-70.5" font-family="Helvetica,sans-Serif" font-size="10.00">&#45; color3</text>
<text text-anchor="start" x="488.58" y="-59.5" font-family="Helvetica,sans-Serif" font-size="10.00">&#45; actionBtn</text>
<polyline fill="none" stroke="black" points="480.58,-52.5 587.58,-52.5 "/>
<text text-anchor="start" x="488.58" y="-40.5" font-family="Helvetica,sans-Serif" font-size="10.00">&#45; Awake()</text>
<text text-anchor="start" x="488.58" y="-29.5" font-family="Helvetica,sans-Serif" font-size="10.00">&#45; Start()</text>
<text text-anchor="start" x="488.58" y="-18.5" font-family="Helvetica,sans-Serif" font-size="10.00">&#45; SelectBarElement()</text>
<text text-anchor="start" x="488.58" y="-7.5" font-family="Helvetica,sans-Serif" font-size="10.00">&#45; ToggleBar()</text>
</a>
</g>
</g>
<!-- Node2 -->
<g id="node2" class="node">
<title>Node2</title>
<g id="a_node2"><a xlink:title=" ">
<polygon fill="white" stroke="#bfbfbf" points="365.58,-1832.5 365.58,-1889.5 448.58,-1889.5 448.58,-1832.5 365.58,-1832.5"/>
<text text-anchor="middle" x="407.08" y="-1877.5" font-family="Helvetica,sans-Serif" font-size="10.00">MonoBehaviour</text>
<polyline fill="none" stroke="#bfbfbf" points="365.58,-1870.5 448.58,-1870.5 "/>
<text text-anchor="middle" x="407.08" y="-1858.5" font-family="Helvetica,sans-Serif" font-size="10.00"> </text>
<polyline fill="none" stroke="#bfbfbf" points="365.58,-1851.5 448.58,-1851.5 "/>
<text text-anchor="middle" x="407.08" y="-1839.5" font-family="Helvetica,sans-Serif" font-size="10.00"> </text>
</a>
</g>
</g>
<!-- Node2&#45;&gt;Node1 -->
<g id="edge1" class="edge">
<title>Node2&#45;&gt;Node1</title>
<path fill="none" stroke="midnightblue" d="M355.19,-1856.82C267.93,-1850.47 96.9,-1833.37 52.08,-1795 -1.2,-1749.38 0.08,-1716.14 0.08,-1646 0.08,-1646 0.08,-1646 0.08,-518 0.08,-284.3 345.02,-182.08 480.43,-150.96"/>
<polygon fill="none" stroke="midnightblue" points="355.18,-1860.33 365.41,-1857.54 355.68,-1853.35 355.18,-1860.33"/>
</g>
<!-- Node3 -->
<g id="node3" class="node">
<title>Node3</title>
<g id="a_node3"><a xlink:href="class_peer_connection_manager.html" target="_top" xlink:title="Maneja la lógica de una conexión entre dos pares">
<polygon fill="white" stroke="black" points="321.08,-325.5 321.08,-712.5 479.08,-712.5 479.08,-325.5 321.08,-325.5"/>
<text text-anchor="middle" x="400.08" y="-700.5" font-family="Helvetica,sans-Serif" font-size="10.00">PeerConnectionManager</text>
<polyline fill="none" stroke="black" points="321.08,-693.5 479.08,-693.5 "/>
<text text-anchor="start" x="329.08" y="-681.5" font-family="Helvetica,sans-Serif" font-size="10.00">+ myPeerType</text>
<text text-anchor="start" x="329.08" y="-670.5" font-family="Helvetica,sans-Serif" font-size="10.00">&#45; clientInputDataChannel</text>
<text text-anchor="start" x="329.08" y="-659.5" font-family="Helvetica,sans-Serif" font-size="10.00">&#45; aspectRatioDataChannel</text>
<text text-anchor="start" x="329.08" y="-648.5" font-family="Helvetica,sans-Serif" font-size="10.00">&#45; clientActionDataChannel</text>
<text text-anchor="start" x="329.08" y="-637.5" font-family="Helvetica,sans-Serif" font-size="10.00">&#45; RTCconfig</text>
<text text-anchor="start" x="329.08" y="-626.5" font-family="Helvetica,sans-Serif" font-size="10.00">&#45; pc</text>
<text text-anchor="start" x="329.08" y="-615.5" font-family="Helvetica,sans-Serif" font-size="10.00">&#45; videoSender</text>
<text text-anchor="start" x="329.08" y="-604.5" font-family="Helvetica,sans-Serif" font-size="10.00">&#45; mediaStream</text>
<text text-anchor="start" x="329.08" y="-593.5" font-family="Helvetica,sans-Serif" font-size="10.00">&#45; audioSender</text>
<polyline fill="none" stroke="black" points="321.08,-586.5 479.08,-586.5 "/>
<text text-anchor="start" x="329.08" y="-574.5" font-family="Helvetica,sans-Serif" font-size="10.00">+ HangUp()</text>
<text text-anchor="start" x="329.08" y="-563.5" font-family="Helvetica,sans-Serif" font-size="10.00">&#45; Awake()</text>
<text text-anchor="start" x="329.08" y="-552.5" font-family="Helvetica,sans-Serif" font-size="10.00">&#45; OnClientReadyDelegate()</text>
<text text-anchor="start" x="329.08" y="-541.5" font-family="Helvetica,sans-Serif" font-size="10.00">&#45; OnMessageReceivedDelegate()</text>
<text text-anchor="start" x="329.08" y="-530.5" font-family="Helvetica,sans-Serif" font-size="10.00">&#45; Update()</text>
<text text-anchor="start" x="329.08" y="-519.5" font-family="Helvetica,sans-Serif" font-size="10.00">&#45; EnableAudioStream()</text>
<text text-anchor="start" x="329.08" y="-508.5" font-family="Helvetica,sans-Serif" font-size="10.00">&#45; Start()</text>
<text text-anchor="start" x="329.08" y="-497.5" font-family="Helvetica,sans-Serif" font-size="10.00">&#45; SetVideoParameters()</text>
<text text-anchor="start" x="329.08" y="-486.5" font-family="Helvetica,sans-Serif" font-size="10.00">&#45; SetAudioParameters()</text>
<text text-anchor="start" x="329.08" y="-475.5" font-family="Helvetica,sans-Serif" font-size="10.00">&#45; AddTracks()</text>
<text text-anchor="start" x="329.08" y="-464.5" font-family="Helvetica,sans-Serif" font-size="10.00">&#45; AddDataChannels()</text>
<text text-anchor="start" x="329.08" y="-453.5" font-family="Helvetica,sans-Serif" font-size="10.00">&#45; Call()</text>
<text text-anchor="start" x="329.08" y="-442.5" font-family="Helvetica,sans-Serif" font-size="10.00">&#45; OnSceneUnloaded&lt; Scene &gt;()</text>
<text text-anchor="start" x="329.08" y="-431.5" font-family="Helvetica,sans-Serif" font-size="10.00">&#45; OnApplicationPause()</text>
<text text-anchor="start" x="329.08" y="-420.5" font-family="Helvetica,sans-Serif" font-size="10.00">&#45; OnApplicationFocus()</text>
<text text-anchor="start" x="329.08" y="-409.5" font-family="Helvetica,sans-Serif" font-size="10.00">&#45; OnDestroy()</text>
<text text-anchor="start" x="329.08" y="-398.5" font-family="Helvetica,sans-Serif" font-size="10.00">&#45; OnDisconnect()</text>
<text text-anchor="start" x="329.08" y="-387.5" font-family="Helvetica,sans-Serif" font-size="10.00">&#45; ReadMessageDB()</text>
<text text-anchor="start" x="329.08" y="-376.5" font-family="Helvetica,sans-Serif" font-size="10.00">&#45; UnReadyUser()</text>
<text text-anchor="start" x="329.08" y="-365.5" font-family="Helvetica,sans-Serif" font-size="10.00">&#45; ReadyUser()</text>
<text text-anchor="start" x="329.08" y="-354.5" font-family="Helvetica,sans-Serif" font-size="10.00">&#45; InitIceCandidate()</text>
<text text-anchor="start" x="329.08" y="-343.5" font-family="Helvetica,sans-Serif" font-size="10.00">&#45; ImHost()</text>
<text text-anchor="start" x="329.08" y="-332.5" font-family="Helvetica,sans-Serif" font-size="10.00">&#45; ServersConfig()</text>
</a>
</g>
</g>
<!-- Node2&#45;&gt;Node3 -->
<g id="edge3" class="edge">
<title>Node2&#45;&gt;Node3</title>
<path fill="none" stroke="midnightblue" d="M355.27,-1858.92C302.62,-1855.1 221.8,-1841.38 171.08,-1795 59.72,-1693.16 78.95,-1625.49 52.08,-1477 17.02,-1283.26 24.21,-1228.91 52.08,-1034 70.04,-908.42 64.45,-867.33 132.08,-760 180.61,-682.98 260.75,-615.87 320.78,-572.35"/>
<polygon fill="none" stroke="midnightblue" points="355.2,-1862.42 365.4,-1859.55 355.64,-1855.43 355.2,-1862.42"/>
</g>
<!-- Node4 -->
<g id="node4" class="node">
<title>Node4</title>
<g id="a_node4"><a xlink:href="class_my_input_manager.html" target="_top" xlink:title=" ">
<polygon fill="white" stroke="black" points="248.08,-782.5 248.08,-993.5 364.08,-993.5 364.08,-782.5 248.08,-782.5"/>
<text text-anchor="middle" x="306.08" y="-981.5" font-family="Helvetica,sans-Serif" font-size="10.00">MyInputManager</text>
<polyline fill="none" stroke="black" points="248.08,-974.5 364.08,-974.5 "/>
<text text-anchor="start" x="256.08" y="-962.5" font-family="Helvetica,sans-Serif" font-size="10.00">+ myPeerType</text>
<text text-anchor="start" x="256.08" y="-951.5" font-family="Helvetica,sans-Serif" font-size="10.00">+ recording</text>
<text text-anchor="start" x="256.08" y="-940.5" font-family="Helvetica,sans-Serif" font-size="10.00">+ hostPosition</text>
<text text-anchor="start" x="256.08" y="-929.5" font-family="Helvetica,sans-Serif" font-size="10.00">+ clientPosition</text>
<text text-anchor="start" x="256.08" y="-918.5" font-family="Helvetica,sans-Serif" font-size="10.00">+ clientKeyboard</text>
<text text-anchor="start" x="256.08" y="-907.5" font-family="Helvetica,sans-Serif" font-size="10.00">&#45; scaledPixelRatioX</text>
<text text-anchor="start" x="256.08" y="-896.5" font-family="Helvetica,sans-Serif" font-size="10.00">&#45; scaledPixelRatioY</text>
<text text-anchor="start" x="256.08" y="-885.5" font-family="Helvetica,sans-Serif" font-size="10.00">&#45; clientAspectRatio</text>
<text text-anchor="start" x="256.08" y="-874.5" font-family="Helvetica,sans-Serif" font-size="10.00">&#45; croppedScreenWidth</text>
<text text-anchor="start" x="256.08" y="-863.5" font-family="Helvetica,sans-Serif" font-size="10.00">&#45; croppedScreenHeight</text>
<text text-anchor="start" x="256.08" y="-852.5" font-family="Helvetica,sans-Serif" font-size="10.00">&#45; offsetX</text>
<text text-anchor="start" x="256.08" y="-841.5" font-family="Helvetica,sans-Serif" font-size="10.00">&#45; offsetY</text>
<polyline fill="none" stroke="black" points="248.08,-834.5 364.08,-834.5 "/>
<text text-anchor="start" x="256.08" y="-822.5" font-family="Helvetica,sans-Serif" font-size="10.00">+ IsHeldDown()</text>
<text text-anchor="start" x="256.08" y="-811.5" font-family="Helvetica,sans-Serif" font-size="10.00">&#45; Awake()</text>
<text text-anchor="start" x="256.08" y="-800.5" font-family="Helvetica,sans-Serif" font-size="10.00">&#45; Start()</text>
<text text-anchor="start" x="256.08" y="-789.5" font-family="Helvetica,sans-Serif" font-size="10.00">&#45; Update()</text>
</a>
</g>
</g>
<!-- Node2&#45;&gt;Node4 -->
<g id="edge5" class="edge">
<title>Node2&#45;&gt;Node4</title>
<path fill="none" stroke="midnightblue" d="M360.89,-1825.14C352.2,-1816.29 344.23,-1806.11 339.08,-1795 306.19,-1723.99 304.48,-1216.54 305.36,-993.6"/>
<polygon fill="none" stroke="midnightblue" points="358.67,-1827.86 368.32,-1832.24 363.51,-1822.8 358.67,-1827.86"/>
</g>
<!-- Node5 -->
<g id="node5" class="node">
<title>Node5</title>
<g id="a_node5"><a xlink:href="class_video_manager.html" target="_top" xlink:title="Maneja la lógica de la grabación y visualización de video">
<polygon fill="white" stroke="black" points="348.58,-1495.5 348.58,-1794.5 465.58,-1794.5 465.58,-1495.5 348.58,-1495.5"/>
<text text-anchor="middle" x="407.08" y="-1782.5" font-family="Helvetica,sans-Serif" font-size="10.00">VideoManager</text>
<polyline fill="none" stroke="black" points="348.58,-1775.5 465.58,-1775.5 "/>
<text text-anchor="start" x="356.58" y="-1763.5" font-family="Helvetica,sans-Serif" font-size="10.00">+ width</text>
<text text-anchor="start" x="356.58" y="-1752.5" font-family="Helvetica,sans-Serif" font-size="10.00">+ height</text>
<text text-anchor="start" x="356.58" y="-1741.5" font-family="Helvetica,sans-Serif" font-size="10.00">+ aspectRatio</text>
<text text-anchor="start" x="356.58" y="-1730.5" font-family="Helvetica,sans-Serif" font-size="10.00">+ bitrate</text>
<text text-anchor="start" x="356.58" y="-1719.5" font-family="Helvetica,sans-Serif" font-size="10.00">+ framerate</text>
<text text-anchor="start" x="356.58" y="-1708.5" font-family="Helvetica,sans-Serif" font-size="10.00">+ isRecording</text>
<text text-anchor="start" x="356.58" y="-1697.5" font-family="Helvetica,sans-Serif" font-size="10.00">+ videoRawImage</text>
<text text-anchor="start" x="356.58" y="-1686.5" font-family="Helvetica,sans-Serif" font-size="10.00">+ videoStreamTrack</text>
<text text-anchor="start" x="356.58" y="-1675.5" font-family="Helvetica,sans-Serif" font-size="10.00">+ videoDisabled</text>
<text text-anchor="start" x="356.58" y="-1664.5" font-family="Helvetica,sans-Serif" font-size="10.00">+ mainCam</text>
<text text-anchor="start" x="356.58" y="-1653.5" font-family="Helvetica,sans-Serif" font-size="10.00">+ arSession</text>
<text text-anchor="start" x="356.58" y="-1642.5" font-family="Helvetica,sans-Serif" font-size="10.00">&#45; arCam</text>
<text text-anchor="start" x="356.58" y="-1631.5" font-family="Helvetica,sans-Serif" font-size="10.00">&#45; webCam</text>
<text text-anchor="start" x="356.58" y="-1620.5" font-family="Helvetica,sans-Serif" font-size="10.00">&#45; webCamRawImage</text>
<text text-anchor="start" x="356.58" y="-1609.5" font-family="Helvetica,sans-Serif" font-size="10.00">&#45; webcamTexture</text>
<text text-anchor="start" x="356.58" y="-1598.5" font-family="Helvetica,sans-Serif" font-size="10.00">&#45; noVideoAR</text>
<text text-anchor="start" x="356.58" y="-1587.5" font-family="Helvetica,sans-Serif" font-size="10.00">&#45; noVideoUI</text>
<text text-anchor="start" x="356.58" y="-1576.5" font-family="Helvetica,sans-Serif" font-size="10.00">&#45; arToolTipsUI</text>
<polyline fill="none" stroke="black" points="348.58,-1569.5 465.58,-1569.5 "/>
<text text-anchor="start" x="356.58" y="-1557.5" font-family="Helvetica,sans-Serif" font-size="10.00">+ RecordCamera()</text>
<text text-anchor="start" x="356.58" y="-1546.5" font-family="Helvetica,sans-Serif" font-size="10.00">+ ShowVideo()</text>
<text text-anchor="start" x="356.58" y="-1535.5" font-family="Helvetica,sans-Serif" font-size="10.00">+ ToggleVideo()</text>
<text text-anchor="start" x="356.58" y="-1524.5" font-family="Helvetica,sans-Serif" font-size="10.00">&#45; Awake()</text>
<text text-anchor="start" x="356.58" y="-1513.5" font-family="Helvetica,sans-Serif" font-size="10.00">&#45; Start()</text>
<text text-anchor="start" x="356.58" y="-1502.5" font-family="Helvetica,sans-Serif" font-size="10.00">&#45; OnApplicationPause()</text>
</a>
</g>
</g>
<!-- Node2&#45;&gt;Node5 -->
<g id="edge7" class="edge">
<title>Node2&#45;&gt;Node5</title>
<path fill="none" stroke="midnightblue" d="M407.08,-1822.41C407.08,-1814.03 407.08,-1804.65 407.08,-1794.7"/>
<polygon fill="none" stroke="midnightblue" points="403.58,-1822.46 407.08,-1832.46 410.58,-1822.46 403.58,-1822.46"/>
</g>
<!-- Node6 -->
<g id="node6" class="node">
<title>Node6</title>
<g id="a_node6"><a xlink:href="class_audio_manager.html" target="_top" xlink:title="Maneja la lógica de la captura y reproducción de audio">
<polygon fill="white" stroke="black" points="53.58,-1034.5 53.58,-1476.5 290.58,-1476.5 290.58,-1034.5 53.58,-1034.5"/>
<text text-anchor="middle" x="172.08" y="-1464.5" font-family="Helvetica,sans-Serif" font-size="10.00">AudioManager</text>
<polyline fill="none" stroke="black" points="53.58,-1457.5 290.58,-1457.5 "/>
<text text-anchor="start" x="61.58" y="-1445.5" font-family="Helvetica,sans-Serif" font-size="10.00">+ audioReady</text>
<text text-anchor="start" x="61.58" y="-1434.5" font-family="Helvetica,sans-Serif" font-size="10.00">+ outputAudioSource</text>
<text text-anchor="start" x="61.58" y="-1423.5" font-family="Helvetica,sans-Serif" font-size="10.00">+ inputAudioSource</text>
<text text-anchor="start" x="61.58" y="-1412.5" font-family="Helvetica,sans-Serif" font-size="10.00">+ bufferSize</text>
<text text-anchor="start" x="61.58" y="-1401.5" font-family="Helvetica,sans-Serif" font-size="10.00">+ bitrate</text>
<text text-anchor="start" x="61.58" y="-1390.5" font-family="Helvetica,sans-Serif" font-size="10.00">&#45; audioStreamTrack</text>
<text text-anchor="start" x="61.58" y="-1379.5" font-family="Helvetica,sans-Serif" font-size="10.00">&#45; lengthSeconds</text>
<text text-anchor="start" x="61.58" y="-1368.5" font-family="Helvetica,sans-Serif" font-size="10.00">&#45; samplingFreq</text>
<text text-anchor="start" x="61.58" y="-1357.5" font-family="Helvetica,sans-Serif" font-size="10.00">&#45; context</text>
<text text-anchor="start" x="61.58" y="-1346.5" font-family="Helvetica,sans-Serif" font-size="10.00">&#45; androidAudioManager</text>
<text text-anchor="start" x="61.58" y="-1335.5" font-family="Helvetica,sans-Serif" font-size="10.00">&#45; defaultMode</text>
<text text-anchor="start" x="61.58" y="-1324.5" font-family="Helvetica,sans-Serif" font-size="10.00">&#45; defaultIsSpeakerphone</text>
<text text-anchor="start" x="61.58" y="-1313.5" font-family="Helvetica,sans-Serif" font-size="10.00">&#45; voiceMinVol</text>
<text text-anchor="start" x="61.58" y="-1302.5" font-family="Helvetica,sans-Serif" font-size="10.00">&#45; mediaMinVol</text>
<text text-anchor="start" x="61.58" y="-1291.5" font-family="Helvetica,sans-Serif" font-size="10.00">&#45; voiceMaxVol</text>
<text text-anchor="start" x="61.58" y="-1280.5" font-family="Helvetica,sans-Serif" font-size="10.00">&#45; mediaMaxVol</text>
<text text-anchor="start" x="61.58" y="-1269.5" font-family="Helvetica,sans-Serif" font-size="10.00">&#45; originalMediaVol</text>
<text text-anchor="start" x="61.58" y="-1258.5" font-family="Helvetica,sans-Serif" font-size="10.00">&#45; microphoneCallbacks</text>
<text text-anchor="start" x="61.58" y="-1247.5" font-family="Helvetica,sans-Serif" font-size="10.00">&#45; muted</text>
<text text-anchor="start" x="61.58" y="-1236.5" font-family="Helvetica,sans-Serif" font-size="10.00">&#45; communicationDevice</text>
<text text-anchor="start" x="61.58" y="-1225.5" font-family="Helvetica,sans-Serif" font-size="10.00">&#45; spectrum</text>
<text text-anchor="start" x="61.58" y="-1214.5" font-family="Helvetica,sans-Serif" font-size="10.00">&#45; voiceVolume</text>
<text text-anchor="start" x="61.58" y="-1203.5" font-family="Helvetica,sans-Serif" font-size="10.00">&#45; lastCallVolume</text>
<polyline fill="none" stroke="black" points="53.58,-1196.5 290.58,-1196.5 "/>
<text text-anchor="start" x="61.58" y="-1184.5" font-family="Helvetica,sans-Serif" font-size="10.00">+ ToggleMuteInput()</text>
<text text-anchor="start" x="61.58" y="-1173.5" font-family="Helvetica,sans-Serif" font-size="10.00">+ ToggleMuteOutput()</text>
<text text-anchor="start" x="61.58" y="-1162.5" font-family="Helvetica,sans-Serif" font-size="10.00">+ RecordAudio()</text>
<text text-anchor="start" x="61.58" y="-1151.5" font-family="Helvetica,sans-Serif" font-size="10.00">+ PlayAudio()</text>
<text text-anchor="start" x="61.58" y="-1140.5" font-family="Helvetica,sans-Serif" font-size="10.00">+ GetVolume()</text>
<text text-anchor="start" x="61.58" y="-1129.5" font-family="Helvetica,sans-Serif" font-size="10.00">&#45; Awake()</text>
<text text-anchor="start" x="61.58" y="-1118.5" font-family="Helvetica,sans-Serif" font-size="10.00">&#45; Start()</text>
<text text-anchor="start" x="61.58" y="-1107.5" font-family="Helvetica,sans-Serif" font-size="10.00">&#45; Update()</text>
<text text-anchor="start" x="61.58" y="-1096.5" font-family="Helvetica,sans-Serif" font-size="10.00">&#45; SetVideocallAudio()</text>
<text text-anchor="start" x="61.58" y="-1085.5" font-family="Helvetica,sans-Serif" font-size="10.00">&#45; scaleValueToRange()</text>
<text text-anchor="start" x="61.58" y="-1074.5" font-family="Helvetica,sans-Serif" font-size="10.00">&#45; MicrophonePermissionGranted()</text>
<text text-anchor="start" x="61.58" y="-1063.5" font-family="Helvetica,sans-Serif" font-size="10.00">&#45; MicrophonePermissionDenied()</text>
<text text-anchor="start" x="61.58" y="-1052.5" font-family="Helvetica,sans-Serif" font-size="10.00">&#45; MicrophonePermissionDeniedAndDontAskAgain()</text>
<text text-anchor="start" x="61.58" y="-1041.5" font-family="Helvetica,sans-Serif" font-size="10.00">&#45; OnDestroy()</text>
</a>
</g>
</g>
<!-- Node2&#45;&gt;Node6 -->
<g id="edge10" class="edge">
<title>Node2&#45;&gt;Node6</title>
<path fill="none" stroke="midnightblue" d="M355.61,-1850.78C333.04,-1844.18 308.09,-1832.96 292.08,-1814 213.6,-1721.05 182.81,-1588.89 172.02,-1476.57"/>
<polygon fill="none" stroke="midnightblue" points="354.88,-1854.2 365.44,-1853.41 356.69,-1847.44 354.88,-1854.2"/>
</g>
<!-- Node7 -->
<g id="node7" class="node">
<title>Node7</title>
<g id="a_node7"><a xlink:href="class_client_manager.html" target="_top" xlink:title="Maneja la lógica las acciones del cliente">
<polygon fill="white" stroke="black" points="601.58,-843 601.58,-933 700.58,-933 700.58,-843 601.58,-843"/>
<text text-anchor="middle" x="651.08" y="-921" font-family="Helvetica,sans-Serif" font-size="10.00">ClientManager</text>
<polyline fill="none" stroke="black" points="601.58,-914 700.58,-914 "/>
<text text-anchor="middle" x="651.08" y="-902" font-family="Helvetica,sans-Serif" font-size="10.00"> </text>
<polyline fill="none" stroke="black" points="601.58,-895 700.58,-895 "/>
<text text-anchor="start" x="609.58" y="-883" font-family="Helvetica,sans-Serif" font-size="10.00">+ SelectTool()</text>
<text text-anchor="start" x="609.58" y="-872" font-family="Helvetica,sans-Serif" font-size="10.00">+ UndoDrawing()</text>
<text text-anchor="start" x="609.58" y="-861" font-family="Helvetica,sans-Serif" font-size="10.00">+ DeleteDrawings()</text>
<text text-anchor="start" x="609.58" y="-850" font-family="Helvetica,sans-Serif" font-size="10.00">+ SelectColor()</text>
</a>
</g>
</g>
<!-- Node2&#45;&gt;Node7 -->
<g id="edge12" class="edge">
<title>Node2&#45;&gt;Node7</title>
<path fill="none" stroke="midnightblue" d="M457.74,-1841.18C478.62,-1830.79 500.96,-1815.71 514.08,-1795 605.1,-1651.37 553.72,-1199.18 594.08,-1034 602.62,-999.05 617.67,-961.28 630.16,-933.05"/>
<polygon fill="none" stroke="midnightblue" points="456.16,-1838.06 448.6,-1845.49 459.14,-1844.39 456.16,-1838.06"/>
</g>
<!-- Node8 -->
<g id="node8" class="node">
<title>Node8</title>
<g id="a_node8"><a xlink:href="class_a_r_tool_manager.html" target="_top" xlink:title="Maneja la lógica de las herramientas de RA">
<polygon fill="white" stroke="black" points="484.58,-760.5 484.58,-1015.5 583.58,-1015.5 583.58,-760.5 484.58,-760.5"/>
<text text-anchor="middle" x="534.08" y="-1003.5" font-family="Helvetica,sans-Serif" font-size="10.00">ARToolManager</text>
<polyline fill="none" stroke="black" points="484.58,-996.5 583.58,-996.5 "/>
<text text-anchor="start" x="492.58" y="-984.5" font-family="Helvetica,sans-Serif" font-size="10.00">+ recording</text>
<text text-anchor="start" x="492.58" y="-973.5" font-family="Helvetica,sans-Serif" font-size="10.00">+ hostMaterial</text>
<text text-anchor="start" x="492.58" y="-962.5" font-family="Helvetica,sans-Serif" font-size="10.00">+ clientMaterial</text>
<text text-anchor="start" x="492.58" y="-951.5" font-family="Helvetica,sans-Serif" font-size="10.00">+ ColorRed</text>
<text text-anchor="start" x="492.58" y="-940.5" font-family="Helvetica,sans-Serif" font-size="10.00">+ ColorBlue</text>
<text text-anchor="start" x="492.58" y="-929.5" font-family="Helvetica,sans-Serif" font-size="10.00">+ ColorGreen</text>
<text text-anchor="start" x="492.58" y="-918.5" font-family="Helvetica,sans-Serif" font-size="10.00">+ ColorYellow</text>
<text text-anchor="start" x="492.58" y="-907.5" font-family="Helvetica,sans-Serif" font-size="10.00">+ guidePrefab</text>
<text text-anchor="start" x="492.58" y="-896.5" font-family="Helvetica,sans-Serif" font-size="10.00">+ hostDrawings</text>
<text text-anchor="start" x="492.58" y="-885.5" font-family="Helvetica,sans-Serif" font-size="10.00">+ clientDrawings</text>
<text text-anchor="start" x="492.58" y="-874.5" font-family="Helvetica,sans-Serif" font-size="10.00">+ hostGuides</text>
<text text-anchor="start" x="492.58" y="-863.5" font-family="Helvetica,sans-Serif" font-size="10.00">+ clientGuides</text>
<text text-anchor="start" x="492.58" y="-852.5" font-family="Helvetica,sans-Serif" font-size="10.00">&#45; hostTools</text>
<text text-anchor="start" x="492.58" y="-841.5" font-family="Helvetica,sans-Serif" font-size="10.00">&#45; clientTools</text>
<polyline fill="none" stroke="black" points="484.58,-834.5 583.58,-834.5 "/>
<text text-anchor="start" x="492.58" y="-822.5" font-family="Helvetica,sans-Serif" font-size="10.00">+ SelectTool()</text>
<text text-anchor="start" x="492.58" y="-811.5" font-family="Helvetica,sans-Serif" font-size="10.00">+ UndoDrawing()</text>
<text text-anchor="start" x="492.58" y="-800.5" font-family="Helvetica,sans-Serif" font-size="10.00">+ DeleteDrawings()</text>
<text text-anchor="start" x="492.58" y="-789.5" font-family="Helvetica,sans-Serif" font-size="10.00">+ SelectColor()</text>
<text text-anchor="start" x="492.58" y="-778.5" font-family="Helvetica,sans-Serif" font-size="10.00">+ PlaceGuide()</text>
<text text-anchor="start" x="492.58" y="-767.5" font-family="Helvetica,sans-Serif" font-size="10.00">&#45; Awake()</text>
</a>
</g>
</g>
<!-- Node2&#45;&gt;Node8 -->
<g id="edge14" class="edge">
<title>Node2&#45;&gt;Node8</title>
<path fill="none" stroke="midnightblue" d="M452.28,-1825.29C460.95,-1816.39 468.92,-1806.15 474.08,-1795 536.55,-1659.98 539.52,-1231.54 536.77,-1015.77"/>
<polygon fill="none" stroke="midnightblue" points="449.64,-1822.97 444.87,-1832.44 454.5,-1828.01 449.64,-1822.97"/>
</g>
<!-- Node9 -->
<g id="node9" class="node">
<title>Node9</title>
<g id="a_node9"><a xlink:href="class_recorder_manager.html" target="_top" xlink:title="Maneja la lógica de la grabación de tutoriales">
<polygon fill="white" stroke="black" points="719.08,-826.5 719.08,-949.5 835.08,-949.5 835.08,-826.5 719.08,-826.5"/>
<text text-anchor="middle" x="777.08" y="-937.5" font-family="Helvetica,sans-Serif" font-size="10.00">RecorderManager</text>
<polyline fill="none" stroke="black" points="719.08,-930.5 835.08,-930.5 "/>
<text text-anchor="start" x="727.08" y="-918.5" font-family="Helvetica,sans-Serif" font-size="10.00">&#45; isRecording</text>
<polyline fill="none" stroke="black" points="719.08,-911.5 835.08,-911.5 "/>
<text text-anchor="start" x="727.08" y="-899.5" font-family="Helvetica,sans-Serif" font-size="10.00">+ ToggleRecord()</text>
<text text-anchor="start" x="727.08" y="-888.5" font-family="Helvetica,sans-Serif" font-size="10.00">&#45; Awake()</text>
<text text-anchor="start" x="727.08" y="-877.5" font-family="Helvetica,sans-Serif" font-size="10.00">&#45; Start()</text>
<text text-anchor="start" x="727.08" y="-866.5" font-family="Helvetica,sans-Serif" font-size="10.00">&#45; StartRecording()</text>
<text text-anchor="start" x="727.08" y="-855.5" font-family="Helvetica,sans-Serif" font-size="10.00">&#45; StopRecording()</text>
<text text-anchor="start" x="727.08" y="-844.5" font-family="Helvetica,sans-Serif" font-size="10.00">&#45; onStopRecord()</text>
<text text-anchor="start" x="727.08" y="-833.5" font-family="Helvetica,sans-Serif" font-size="10.00">&#45; OnApplicationFocus()</text>
</a>
</g>
</g>
<!-- Node2&#45;&gt;Node9 -->
<g id="edge18" class="edge">
<title>Node2&#45;&gt;Node9</title>
<path fill="none" stroke="midnightblue" d="M458.77,-1850.04C491.55,-1841.07 532.31,-1824.58 557.08,-1795 564.05,-1786.67 734.39,-1044.52 737.08,-1034 744.21,-1006.17 752.59,-975.49 759.84,-949.54"/>
<polygon fill="none" stroke="midnightblue" points="457.69,-1846.7 448.88,-1852.59 459.43,-1853.48 457.69,-1846.7"/>
</g>
<!-- Node10 -->
<g id="node10" class="node">
<title>Node10</title>
<g id="a_node10"><a xlink:href="class_android_utils.html" target="_top" xlink:title="Clase de utilidades para android">
<polygon fill="white" stroke="black" points="639.58,-1495.5 639.58,-1794.5 818.58,-1794.5 818.58,-1495.5 639.58,-1495.5"/>
<text text-anchor="middle" x="729.08" y="-1782.5" font-family="Helvetica,sans-Serif" font-size="10.00">AndroidUtils</text>
<polyline fill="none" stroke="black" points="639.58,-1775.5 818.58,-1775.5 "/>
<text text-anchor="start" x="647.58" y="-1763.5" font-family="Helvetica,sans-Serif" font-size="10.00">+ onStartRecord</text>
<text text-anchor="start" x="647.58" y="-1752.5" font-family="Helvetica,sans-Serif" font-size="10.00">+ onStopRecord</text>
<text text-anchor="start" x="647.58" y="-1741.5" font-family="Helvetica,sans-Serif" font-size="10.00">+ filePath</text>
<text text-anchor="start" x="647.58" y="-1730.5" font-family="Helvetica,sans-Serif" font-size="10.00">+ fileName</text>
<text text-anchor="start" x="647.58" y="-1719.5" font-family="Helvetica,sans-Serif" font-size="10.00">+ onAllowCallback</text>
<text text-anchor="start" x="647.58" y="-1708.5" font-family="Helvetica,sans-Serif" font-size="10.00">+ onDenyCallback</text>
<text text-anchor="start" x="647.58" y="-1697.5" font-family="Helvetica,sans-Serif" font-size="10.00">+ onDenyAndNeverAskAgainCallback</text>
<text text-anchor="start" x="647.58" y="-1686.5" font-family="Helvetica,sans-Serif" font-size="10.00">&#45; SCREEN_WIDTH</text>
<text text-anchor="start" x="647.58" y="-1675.5" font-family="Helvetica,sans-Serif" font-size="10.00">&#45; VIDEO_NAME</text>
<text text-anchor="start" x="647.58" y="-1664.5" font-family="Helvetica,sans-Serif" font-size="10.00">&#45; GALLERY_PATH</text>
<polyline fill="none" stroke="black" points="639.58,-1657.5 818.58,-1657.5 "/>
<text text-anchor="start" x="647.58" y="-1645.5" font-family="Helvetica,sans-Serif" font-size="10.00">+ StartRecording()</text>
<text text-anchor="start" x="647.58" y="-1634.5" font-family="Helvetica,sans-Serif" font-size="10.00">+ StopRecording()</text>
<text text-anchor="start" x="647.58" y="-1623.5" font-family="Helvetica,sans-Serif" font-size="10.00">+ VideoRecorderCallback()</text>
<text text-anchor="start" x="647.58" y="-1612.5" font-family="Helvetica,sans-Serif" font-size="10.00">+ SetFilePath()</text>
<text text-anchor="start" x="647.58" y="-1601.5" font-family="Helvetica,sans-Serif" font-size="10.00">+ IsPermitted()</text>
<text text-anchor="start" x="647.58" y="-1590.5" font-family="Helvetica,sans-Serif" font-size="10.00">+ RequestPermission()</text>
<text text-anchor="start" x="647.58" y="-1579.5" font-family="Helvetica,sans-Serif" font-size="10.00">+ ShowToast()</text>
<text text-anchor="start" x="647.58" y="-1568.5" font-family="Helvetica,sans-Serif" font-size="10.00">+ ShareAndroid()</text>
<text text-anchor="start" x="647.58" y="-1557.5" font-family="Helvetica,sans-Serif" font-size="10.00">&#45; Start()</text>
<text text-anchor="start" x="647.58" y="-1546.5" font-family="Helvetica,sans-Serif" font-size="10.00">&#45; OnAllow()</text>
<text text-anchor="start" x="647.58" y="-1535.5" font-family="Helvetica,sans-Serif" font-size="10.00">&#45; OnDeny()</text>
<text text-anchor="start" x="647.58" y="-1524.5" font-family="Helvetica,sans-Serif" font-size="10.00">&#45; OnDenyAndNeverAskAgain()</text>
<text text-anchor="start" x="647.58" y="-1513.5" font-family="Helvetica,sans-Serif" font-size="10.00">&#45; ResetAllCallBacks()</text>
<text text-anchor="start" x="647.58" y="-1502.5" font-family="Helvetica,sans-Serif" font-size="10.00">&#45; GetPermissionStrr()</text>
</a>
</g>
</g>
<!-- Node2&#45;&gt;Node10 -->
<g id="edge20" class="edge">
<title>Node2&#45;&gt;Node10</title>
<path fill="none" stroke="midnightblue" d="M458.99,-1859.9C505.52,-1857.42 573.7,-1847.61 622.08,-1814 630.32,-1808.28 638.06,-1801.7 645.31,-1794.52"/>
<polygon fill="none" stroke="midnightblue" points="458.66,-1856.41 448.82,-1860.35 458.96,-1863.41 458.66,-1856.41"/>
</g>
<!-- Node3&#45;&gt;Node1 -->
<g id="edge2" class="edge">
<title>Node3&#45;&gt;Node1</title>
<path fill="none" stroke="#404040" d="M436.14,-325.32C439.21,-315.32 442.52,-305.49 446.08,-296 453.81,-275.39 464,-254.26 474.68,-234.46"/>
<polygon fill="none" stroke="#404040" points="474.7,-234.44 474.09,-227.25 480.48,-223.92 481.09,-231.11 474.7,-234.44"/>
<text text-anchor="middle" x="483.08" y="-299" font-family="Helvetica,sans-Serif" font-size="10.00"> &#45;peerConnection</text>
</g>
<!-- Node4&#45;&gt;Node3 -->
<g id="edge4" class="edge">
<title>Node4&#45;&gt;Node3</title>
<path fill="none" stroke="#404040" d="M312.32,-782.34C314.44,-765.06 317.28,-747.44 321.08,-731 321.59,-728.81 322.11,-726.61 322.65,-724.4"/>
<polygon fill="none" stroke="#404040" points="322.71,-724.18 320.32,-717.37 325.68,-712.55 328.07,-719.36 322.71,-724.18"/>
<text text-anchor="middle" x="353.58" y="-734" font-family="Helvetica,sans-Serif" font-size="10.00"> &#45;inputManager</text>
</g>
<!-- Node5&#45;&gt;Node3 -->
<g id="edge8" class="edge">
<title>Node5&#45;&gt;Node3</title>
<path fill="none" stroke="#404040" d="M407.25,-1495.46C407.3,-1371.94 407.13,-1191.53 406.08,-1034 405.4,-932.16 404.14,-818.97 402.94,-724.79"/>
<polygon fill="none" stroke="#404040" points="402.94,-724.51 398.86,-718.57 402.78,-712.52 406.86,-718.46 402.94,-724.51"/>
<text text-anchor="middle" x="439.08" y="-885.5" font-family="Helvetica,sans-Serif" font-size="10.00"> &#45;videoManager</text>
</g>
<!-- Node5&#45;&gt;Node4 -->
<g id="edge6" class="edge">
<title>Node5&#45;&gt;Node4</title>
<path fill="none" stroke="#404040" d="M348.46,-1508.46C345.22,-1497.94 342.36,-1487.37 340.08,-1477 297.69,-1284.46 329.65,-1230.75 317.08,-1034 316.49,-1024.79 315.85,-1015.25 315.17,-1005.67"/>
<polygon fill="none" stroke="#404040" points="315.16,-1005.49 310.75,-999.79 314.31,-993.52 318.72,-999.22 315.16,-1005.49"/>
<text text-anchor="middle" x="373.08" y="-1253" font-family="Helvetica,sans-Serif" font-size="10.00"> &#45;videoManager</text>
</g>
<!-- Node6&#45;&gt;Node3 -->
<g id="edge9" class="edge">
<title>Node6&#45;&gt;Node3</title>
<path fill="none" stroke="#404040" d="M137.5,-1034.27C132.4,-946.17 137.94,-845.51 172.08,-760 200.27,-689.4 260.19,-627.69 311.53,-584.53"/>
<polygon fill="none" stroke="#404040" points="311.77,-584.33 313.84,-577.43 321.01,-576.68 318.94,-583.59 311.77,-584.33"/>
<text text-anchor="middle" x="205.58" y="-885.5" font-family="Helvetica,sans-Serif" font-size="10.00"> &#45;audioManager</text>
</g>
<!-- Node7&#45;&gt;Node1 -->
<g id="edge16" class="edge">
<title>Node7&#45;&gt;Node1</title>
<path fill="none" stroke="#404040" d="M652.21,-842.95C653.69,-747.29 652.01,-513.96 608.08,-325 603.85,-306.79 598.1,-288.03 591.68,-269.76"/>
<polygon fill="none" stroke="#404040" points="591.67,-269.74 585.87,-265.45 587.59,-258.45 593.4,-262.74 591.67,-269.74"/>
<text text-anchor="middle" x="685.58" y="-516.5" font-family="Helvetica,sans-Serif" font-size="10.00"> &#45;clientManager</text>
</g>
<!-- Node7&#45;&gt;Node3 -->
<g id="edge11" class="edge">
<title>Node7&#45;&gt;Node3</title>
<path fill="none" stroke="#404040" d="M638.04,-842.9C628.55,-816.53 613.57,-783.67 592.08,-760 564.36,-729.47 541.16,-742.24 512.08,-713 503.09,-703.96 494.55,-694.05 486.51,-683.65"/>
<polygon fill="none" stroke="#404040" points="486.45,-683.57 479.66,-681.17 479.26,-673.96 486.06,-676.37 486.45,-683.57"/>
<text text-anchor="middle" x="601.58" y="-734" font-family="Helvetica,sans-Serif" font-size="10.00"> &#45;clientManager</text>
</g>
<!-- Node8&#45;&gt;Node1 -->
<g id="edge15" class="edge">
<title>Node8&#45;&gt;Node1</title>
<path fill="none" stroke="#404040" d="M534.08,-760.28C534.08,-630.28 534.08,-428.07 534.08,-290.12"/>
<polygon fill="none" stroke="#404040" points="534.08,-289.81 530.08,-283.81 534.08,-277.81 538.08,-283.81 534.08,-289.81"/>
<text text-anchor="middle" x="569.08" y="-516.5" font-family="Helvetica,sans-Serif" font-size="10.00"> &#45;arToolManager</text>
</g>
<!-- Node8&#45;&gt;Node3 -->
<g id="edge13" class="edge">
<title>Node8&#45;&gt;Node3</title>
<path fill="none" stroke="#404040" d="M484.46,-780.85C479.9,-773.6 475.1,-766.57 470.08,-760 462.82,-750.5 456.12,-752.32 450.08,-742 446.68,-736.19 443.51,-730.18 440.56,-724"/>
<polygon fill="none" stroke="#404040" points="440.41,-723.67 434.29,-719.85 435.47,-712.74 441.58,-716.56 440.41,-723.67"/>
<text text-anchor="middle" x="485.08" y="-734" font-family="Helvetica,sans-Serif" font-size="10.00"> &#45;arToolManager</text>
</g>
<!-- Node9&#45;&gt;Node1 -->
<g id="edge17" class="edge">
<title>Node9&#45;&gt;Node1</title>
<path fill="none" stroke="#404040" d="M784.3,-826.43C794.31,-719.41 803.09,-492.36 723.08,-325 695.19,-266.65 640.78,-216.51 597.47,-183.2"/>
<polygon fill="none" stroke="#404040" points="597.43,-183.17 590.23,-182.75 587.85,-175.94 595.05,-176.36 597.43,-183.17"/>
<text text-anchor="middle" x="830.58" y="-516.5" font-family="Helvetica,sans-Serif" font-size="10.00"> &#45;recorderManager</text>
</g>
<!-- Node10&#45;&gt;Node9 -->
<g id="edge19" class="edge">
<title>Node10&#45;&gt;Node9</title>
<path fill="none" stroke="#404040" d="M738.53,-1495.29C748.77,-1334.35 764.66,-1084.33 772.45,-961.75"/>
<polygon fill="none" stroke="#404040" points="772.47,-961.56 768.86,-955.32 773.23,-949.58 776.84,-955.83 772.47,-961.56"/>
<text text-anchor="middle" x="796.08" y="-1253" font-family="Helvetica,sans-Serif" font-size="10.00"> &#45;androidUtils</text>
</g>
</g>
</svg>
