<?xml version="1.0" encoding="UTF-8" standalone="no"?>
<!DOCTYPE svg PUBLIC "-//W3C//DTD SVG 1.1//EN"
 "http://www.w3.org/Graphics/SVG/1.1/DTD/svg11.dtd">
<!-- Generated by graphviz version 2.49.0 (20210828.1703)
 -->
<!-- Title: PeerConnectionManager.Start Pages: 1 -->
<svg width="1284pt" height="522pt"
 viewBox="0.00 0.00 1284.00 522.00" xmlns="http://www.w3.org/2000/svg" xmlns:xlink="http://www.w3.org/1999/xlink">
<g id="graph0" class="graph" transform="scale(1 1) rotate(0) translate(4 518)">
<title>PeerConnectionManager.Start</title>
<polygon fill="white" stroke="transparent" points="-4,4 -4,-518 1280,-518 1280,4 -4,4"/>
<!-- Node1 -->
<g id="node1" class="node">
<title>Node1</title>
<g id="a_node1"><a xlink:title="Llamada justo antes del primer fotograma">
<polygon fill="#bfbfbf" stroke="black" points="0,-171.5 0,-190.5 147,-190.5 147,-171.5 0,-171.5"/>
<text text-anchor="middle" x="73.5" y="-178.5" font-family="Helvetica,sans-Serif" font-size="10.00">PeerConnectionManager.Start</text>
</a>
</g>
</g>
<!-- Node2 -->
<g id="node2" class="node">
<title>Node2</title>
<g id="a_node2"><a xlink:href="class_peer_connection_manager.html#acce72dd729e1abda9e126f7c1bd317ce" target="_top" xlink:title="Crea los canales de datos">
<polygon fill="white" stroke="black" points="189,-399.5 189,-418.5 393,-418.5 393,-399.5 189,-399.5"/>
<text text-anchor="middle" x="291" y="-406.5" font-family="Helvetica,sans-Serif" font-size="10.00">PeerConnectionManager.AddDataChannels</text>
</a>
</g>
</g>
<!-- Node1&#45;&gt;Node2 -->
<g id="edge1" class="edge">
<title>Node1&#45;&gt;Node2</title>
<path fill="none" stroke="midnightblue" d="M78.85,-190.73C91.5,-218.18 130.77,-297.5 183,-347 204.82,-367.68 234.77,-384.28 257.44,-395.08"/>
<polygon fill="midnightblue" stroke="midnightblue" points="256.12,-398.33 266.66,-399.35 259.06,-391.97 256.12,-398.33"/>
</g>
<!-- Node4 -->
<g id="node4" class="node">
<title>Node4</title>
<g id="a_node4"><a xlink:href="class_peer_connection_manager.html#a9cc97416c36f76d17771f7d61613cfc0" target="_top" xlink:title="Evalua si el par actual es host">
<polygon fill="white" stroke="black" points="437,-342.5 437,-361.5 594,-361.5 594,-342.5 437,-342.5"/>
<text text-anchor="middle" x="515.5" y="-349.5" font-family="Helvetica,sans-Serif" font-size="10.00">PeerConnectionManager.ImHost</text>
</a>
</g>
</g>
<!-- Node1&#45;&gt;Node4 -->
<g id="edge15" class="edge">
<title>Node1&#45;&gt;Node4</title>
<path fill="none" stroke="midnightblue" d="M80.45,-190.61C94.9,-213.06 134.31,-269.02 183,-295 258.74,-335.42 356.82,-348.21 426.6,-351.78"/>
<polygon fill="midnightblue" stroke="midnightblue" points="426.54,-355.28 436.69,-352.24 426.86,-348.29 426.54,-355.28"/>
</g>
<!-- Node8 -->
<g id="node8" class="node">
<title>Node8</title>
<g id="a_node8"><a xlink:href="class_peer_connection_manager.html#a5e4d5b8cfb094cae7a3d200a78a2a7b3" target="_top" xlink:title="Crea los canales de video y audio">
<polygon fill="white" stroke="black" points="204.5,-266.5 204.5,-285.5 377.5,-285.5 377.5,-266.5 204.5,-266.5"/>
<text text-anchor="middle" x="291" y="-273.5" font-family="Helvetica,sans-Serif" font-size="10.00">PeerConnectionManager.AddTracks</text>
</a>
</g>
</g>
<!-- Node1&#45;&gt;Node8 -->
<g id="edge7" class="edge">
<title>Node1&#45;&gt;Node8</title>
<path fill="none" stroke="midnightblue" d="M86.06,-190.61C105.06,-205.92 144.64,-235.78 183,-252 194.62,-256.91 207.4,-260.89 219.95,-264.09"/>
<polygon fill="midnightblue" stroke="midnightblue" points="219.41,-267.56 229.95,-266.49 221.04,-260.75 219.41,-267.56"/>
</g>
<!-- Node13 -->
<g id="node13" class="node">
<title>Node13</title>
<g id="a_node13"><a xlink:href="class_peer_connection_manager.html#a37051871d1e21f16a1e4ff5409a58f8c" target="_top" xlink:title="Realiza la llamada para establecer la conexión">
<polygon fill="white" stroke="black" points="219.5,-190.5 219.5,-209.5 362.5,-209.5 362.5,-190.5 219.5,-190.5"/>
<text text-anchor="middle" x="291" y="-197.5" font-family="Helvetica,sans-Serif" font-size="10.00">PeerConnectionManager.Call</text>
</a>
</g>
</g>
<!-- Node1&#45;&gt;Node13 -->
<g id="edge13" class="edge">
<title>Node1&#45;&gt;Node13</title>
<path fill="none" stroke="midnightblue" d="M147.16,-187.41C167.12,-189.17 188.89,-191.09 209.28,-192.88"/>
<polygon fill="midnightblue" stroke="midnightblue" points="209.21,-196.39 219.48,-193.78 209.83,-189.42 209.21,-196.39"/>
</g>
<!-- Node14 -->
<g id="node14" class="node">
<title>Node14</title>
<g id="a_node14"><a xlink:href="class_database_manager.html#a31c16c7d1ec71b33cbf574d4e8810d71" target="_top" xlink:title="Envia un mensaje de conexión a base de datos">
<polygon fill="white" stroke="black" points="435,-190.5 435,-209.5 596,-209.5 596,-190.5 435,-190.5"/>
<text text-anchor="middle" x="515.5" y="-197.5" font-family="Helvetica,sans-Serif" font-size="10.00">DatabaseManager.SendMessage</text>
</a>
</g>
</g>
<!-- Node1&#45;&gt;Node14 -->
<g id="edge26" class="edge">
<title>Node1&#45;&gt;Node14</title>
<path fill="none" stroke="midnightblue" d="M95.15,-190.59C116.57,-199.97 151.32,-213.61 183,-219 277.73,-235.11 389.65,-222.18 456.2,-211.21"/>
<polygon fill="midnightblue" stroke="midnightblue" points="456.81,-214.65 466.09,-209.53 455.64,-207.75 456.81,-214.65"/>
</g>
<!-- Node15 -->
<g id="node15" class="node">
<title>Node15</title>
<g id="a_node15"><a xlink:href="class_peer_connection_manager.html#a2b43b97a9280f9d5dd6dd4634009e566" target="_top" xlink:title="Llamada cuando la conexión se pierde">
<polygon fill="white" stroke="black" points="197,-152.5 197,-171.5 385,-171.5 385,-152.5 197,-152.5"/>
<text text-anchor="middle" x="291" y="-159.5" font-family="Helvetica,sans-Serif" font-size="10.00">PeerConnectionManager.OnDisconnect</text>
</a>
</g>
</g>
<!-- Node1&#45;&gt;Node15 -->
<g id="edge16" class="edge">
<title>Node1&#45;&gt;Node15</title>
<path fill="none" stroke="midnightblue" d="M147.16,-174.59C159.82,-173.48 173.2,-172.3 186.5,-171.13"/>
<polygon fill="midnightblue" stroke="midnightblue" points="186.98,-174.6 196.64,-170.23 186.37,-167.62 186.98,-174.6"/>
</g>
<!-- Node22 -->
<g id="node22" class="node">
<title>Node22</title>
<g id="a_node22"><a xlink:href="class_database_manager.html#a7373a5a3ba0f6b44b5c7a96587b7afa1" target="_top" xlink:title="Señaliza en base de datos que un par esta listo para la conexión">
<polygon fill="white" stroke="black" points="860,-114.5 860,-133.5 1006,-133.5 1006,-114.5 860,-114.5"/>
<text text-anchor="middle" x="933" y="-121.5" font-family="Helvetica,sans-Serif" font-size="10.00">DatabaseManager.ReadyUser</text>
</a>
</g>
</g>
<!-- Node1&#45;&gt;Node22 -->
<g id="edge23" class="edge">
<title>Node1&#45;&gt;Node22</title>
<path fill="none" stroke="midnightblue" d="M95.58,-171.4C117.06,-162.16 151.59,-148.75 183,-143 422.04,-99.23 711.09,-109.22 849.85,-117.82"/>
<polygon fill="midnightblue" stroke="midnightblue" points="849.78,-121.33 859.98,-118.47 850.22,-114.34 849.78,-121.33"/>
</g>
<!-- Node23 -->
<g id="node23" class="node">
<title>Node23</title>
<g id="a_node23"><a xlink:href="class_peer_connection_manager.html#a079747542cc02816463a912e54c9a965" target="_top" xlink:title="Genera la configuracion de servidores ICE y protocolos de transmisión">
<polygon fill="white" stroke="black" points="198.5,-76.5 198.5,-95.5 383.5,-95.5 383.5,-76.5 198.5,-76.5"/>
<text text-anchor="middle" x="291" y="-83.5" font-family="Helvetica,sans-Serif" font-size="10.00">PeerConnectionManager.ServersConfig</text>
</a>
</g>
</g>
<!-- Node1&#45;&gt;Node23 -->
<g id="edge27" class="edge">
<title>Node1&#45;&gt;Node23</title>
<path fill="none" stroke="midnightblue" d="M86.06,-171.39C105.06,-156.08 144.64,-126.22 183,-110 194.62,-105.09 207.4,-101.11 219.95,-97.91"/>
<polygon fill="midnightblue" stroke="midnightblue" points="221.04,-101.25 229.95,-95.51 219.41,-94.44 221.04,-101.25"/>
</g>
<!-- Node24 -->
<g id="node24" class="node">
<title>Node24</title>
<g id="a_node24"><a xlink:href="class_peer_connection_manager.html#ad0c146757a24938792beafe8e3ebd8dd" target="_top" xlink:title="Establece los paramentros de la trasnmisión de audio">
<polygon fill="white" stroke="black" points="183,-38.5 183,-57.5 399,-57.5 399,-38.5 183,-38.5"/>
<text text-anchor="middle" x="291" y="-45.5" font-family="Helvetica,sans-Serif" font-size="10.00">PeerConnectionManager.SetAudioParameters</text>
</a>
</g>
</g>
<!-- Node1&#45;&gt;Node24 -->
<g id="edge28" class="edge">
<title>Node1&#45;&gt;Node24</title>
<path fill="none" stroke="midnightblue" d="M80.46,-171.41C94.93,-149 134.38,-93.12 183,-67 187.29,-64.69 191.81,-62.66 196.46,-60.87"/>
<polygon fill="midnightblue" stroke="midnightblue" points="197.86,-64.09 206.16,-57.51 195.57,-57.47 197.86,-64.09"/>
</g>
<!-- Node25 -->
<g id="node25" class="node">
<title>Node25</title>
<g id="a_node25"><a xlink:href="class_peer_connection_manager.html#a863ee7377abe7c93c3e09ac1ab37bb3c" target="_top" xlink:title="Establece los paramentros de la trasnmisión de video">
<polygon fill="white" stroke="black" points="183,-0.5 183,-19.5 399,-19.5 399,-0.5 183,-0.5"/>
<text text-anchor="middle" x="291" y="-7.5" font-family="Helvetica,sans-Serif" font-size="10.00">PeerConnectionManager.SetVideoParameters</text>
</a>
</g>
</g>
<!-- Node1&#45;&gt;Node25 -->
<g id="edge29" class="edge">
<title>Node1&#45;&gt;Node25</title>
<path fill="none" stroke="midnightblue" d="M78.34,-171.17C89.65,-143.6 125.71,-65.18 183,-29 186.22,-26.97 189.6,-25.14 193.09,-23.49"/>
<polygon fill="midnightblue" stroke="midnightblue" points="194.68,-26.62 202.56,-19.54 191.98,-20.16 194.68,-26.62"/>
</g>
<!-- Node3 -->
<g id="node3" class="node">
<title>Node3</title>
<g id="a_node3"><a xlink:href="class_a_r_tool_manager.html#ab3ba41799d1887d36ba5d36f4960afbc" target="_top" xlink:title="Elimina todos los trazos o marcadores del par seleccionado">
<polygon fill="white" stroke="black" points="437.5,-380.5 437.5,-399.5 593.5,-399.5 593.5,-380.5 437.5,-380.5"/>
<text text-anchor="middle" x="515.5" y="-387.5" font-family="Helvetica,sans-Serif" font-size="10.00">ARToolManager.DeleteDrawings</text>
</a>
</g>
</g>
<!-- Node2&#45;&gt;Node3 -->
<g id="edge2" class="edge">
<title>Node2&#45;&gt;Node3</title>
<path fill="none" stroke="midnightblue" d="M393.16,-400.36C404.5,-399.39 415.98,-398.41 427.12,-397.46"/>
<polygon fill="midnightblue" stroke="midnightblue" points="427.58,-400.94 437.25,-396.6 426.98,-393.96 427.58,-400.94"/>
</g>
<!-- Node2&#45;&gt;Node4 -->
<g id="edge3" class="edge">
<title>Node2&#45;&gt;Node4</title>
<path fill="none" stroke="midnightblue" d="M326.9,-399.46C355.82,-391.62 398.01,-380.33 435,-371 444.29,-368.66 454.22,-366.23 463.79,-363.92"/>
<polygon fill="midnightblue" stroke="midnightblue" points="464.69,-367.3 473.6,-361.57 463.06,-360.49 464.69,-367.3"/>
</g>
<!-- Node5 -->
<g id="node5" class="node">
<title>Node5</title>
<g id="a_node5"><a xlink:href="class_a_r_tool_manager.html#af9a83789810f1f49396d859e950a994d" target="_top" xlink:title="Selecciona el color actual para el par seleccionado">
<polygon fill="white" stroke="black" points="446,-494.5 446,-513.5 585,-513.5 585,-494.5 446,-494.5"/>
<text text-anchor="middle" x="515.5" y="-501.5" font-family="Helvetica,sans-Serif" font-size="10.00">ARToolManager.SelectColor</text>
</a>
</g>
</g>
<!-- Node2&#45;&gt;Node5 -->
<g id="edge4" class="edge">
<title>Node2&#45;&gt;Node5</title>
<path fill="none" stroke="midnightblue" d="M306.85,-418.53C332.19,-434.42 385.82,-466.4 435,-485 441.75,-487.55 448.96,-489.84 456.18,-491.87"/>
<polygon fill="midnightblue" stroke="midnightblue" points="455.42,-495.29 465.98,-494.48 457.22,-488.53 455.42,-495.29"/>
</g>
<!-- Node6 -->
<g id="node6" class="node">
<title>Node6</title>
<g id="a_node6"><a xlink:href="class_a_r_tool_manager.html#a4ba91608a57b3aa14fa66857c5b5d337" target="_top" xlink:title="Selecciona la heramienta elegida para el par seleccionado">
<polygon fill="white" stroke="black" points="448.5,-456.5 448.5,-475.5 582.5,-475.5 582.5,-456.5 448.5,-456.5"/>
<text text-anchor="middle" x="515.5" y="-463.5" font-family="Helvetica,sans-Serif" font-size="10.00">ARToolManager.SelectTool</text>
</a>
</g>
</g>
<!-- Node2&#45;&gt;Node6 -->
<g id="edge5" class="edge">
<title>Node2&#45;&gt;Node6</title>
<path fill="none" stroke="midnightblue" d="M326.9,-418.54C355.82,-426.38 398.01,-437.67 435,-447 444.29,-449.34 454.22,-451.77 463.79,-454.08"/>
<polygon fill="midnightblue" stroke="midnightblue" points="463.06,-457.51 473.6,-456.43 464.69,-450.7 463.06,-457.51"/>
</g>
<!-- Node7 -->
<g id="node7" class="node">
<title>Node7</title>
<g id="a_node7"><a xlink:href="class_a_r_tool_manager.html#afcccae8eba6e44495ff68863fc67c380" target="_top" xlink:title="Elimina el último trazo o marcador colocado por el par seleccionado">
<polygon fill="white" stroke="black" points="442.5,-418.5 442.5,-437.5 588.5,-437.5 588.5,-418.5 442.5,-418.5"/>
<text text-anchor="middle" x="515.5" y="-425.5" font-family="Helvetica,sans-Serif" font-size="10.00">ARToolManager.UndoDrawing</text>
</a>
</g>
</g>
<!-- Node2&#45;&gt;Node7 -->
<g id="edge6" class="edge">
<title>Node2&#45;&gt;Node7</title>
<path fill="none" stroke="midnightblue" d="M393.16,-417.64C406.2,-418.75 419.43,-419.88 432.12,-420.97"/>
<polygon fill="midnightblue" stroke="midnightblue" points="431.91,-424.46 442.17,-421.82 432.51,-417.49 431.91,-424.46"/>
</g>
<!-- Node8&#45;&gt;Node4 -->
<g id="edge8" class="edge">
<title>Node8&#45;&gt;Node4</title>
<path fill="none" stroke="midnightblue" d="M315.64,-285.53C354.7,-301.25 429.01,-331.1 435,-333 442.97,-335.53 451.49,-337.9 459.87,-340.05"/>
<polygon fill="midnightblue" stroke="midnightblue" points="459.07,-343.46 469.62,-342.47 460.76,-336.66 459.07,-343.46"/>
</g>
<!-- Node9 -->
<g id="node9" class="node">
<title>Node9</title>
<g id="a_node9"><a xlink:href="class_audio_manager.html#a8e74acd2130715991ee1d3295be1bfaa" target="_top" xlink:title="Reproduce la salida de audio">
<polygon fill="white" stroke="black" points="452.5,-304.5 452.5,-323.5 578.5,-323.5 578.5,-304.5 452.5,-304.5"/>
<text text-anchor="middle" x="515.5" y="-311.5" font-family="Helvetica,sans-Serif" font-size="10.00">AudioManager.PlayAudio</text>
</a>
</g>
</g>
<!-- Node8&#45;&gt;Node9 -->
<g id="edge9" class="edge">
<title>Node8&#45;&gt;Node9</title>
<path fill="none" stroke="midnightblue" d="M347.86,-285.54C378.41,-290.76 416.44,-297.25 448.45,-302.72"/>
<polygon fill="midnightblue" stroke="midnightblue" points="448.17,-306.22 458.62,-304.46 449.35,-299.32 448.17,-306.22"/>
</g>
<!-- Node10 -->
<g id="node10" class="node">
<title>Node10</title>
<g id="a_node10"><a xlink:href="class_audio_manager.html#aa60c57f6236c42f573fcfa0d28c88d9d" target="_top" xlink:title="Comienza a grabar el audio">
<polygon fill="white" stroke="black" points="447,-266.5 447,-285.5 584,-285.5 584,-266.5 447,-266.5"/>
<text text-anchor="middle" x="515.5" y="-273.5" font-family="Helvetica,sans-Serif" font-size="10.00">AudioManager.RecordAudio</text>
</a>
</g>
</g>
<!-- Node8&#45;&gt;Node10 -->
<g id="edge10" class="edge">
<title>Node8&#45;&gt;Node10</title>
<path fill="none" stroke="midnightblue" d="M377.71,-276C397.11,-276 417.61,-276 436.67,-276"/>
<polygon fill="midnightblue" stroke="midnightblue" points="436.79,-279.5 446.79,-276 436.79,-272.5 436.79,-279.5"/>
</g>
<!-- Node12 -->
<g id="node12" class="node">
<title>Node12</title>
<g id="a_node12"><a xlink:href="class_video_manager.html#a3183746966d99fd4df0bdde303479919" target="_top" xlink:title="Graba la cámara de RA">
<polygon fill="white" stroke="black" points="442.5,-228.5 442.5,-247.5 588.5,-247.5 588.5,-228.5 442.5,-228.5"/>
<text text-anchor="middle" x="515.5" y="-235.5" font-family="Helvetica,sans-Serif" font-size="10.00">VideoManager.RecordCamera</text>
</a>
</g>
</g>
<!-- Node8&#45;&gt;Node12 -->
<g id="edge12" class="edge">
<title>Node8&#45;&gt;Node12</title>
<path fill="none" stroke="midnightblue" d="M347.86,-266.46C378.41,-261.24 416.44,-254.75 448.45,-249.28"/>
<polygon fill="midnightblue" stroke="midnightblue" points="449.35,-252.68 458.62,-247.54 448.17,-245.78 449.35,-252.68"/>
</g>
<!-- Node11 -->
<g id="node11" class="node">
<title>Node11</title>
<g id="a_node11"><a xlink:href="class_audio_manager.html#a69c0d3b1c0d91a2972f2b5200b9e3ec5" target="_top" xlink:title="Configura los ajustes de Android para videollamada">
<polygon fill="white" stroke="black" points="644.5,-266.5 644.5,-285.5 805.5,-285.5 805.5,-266.5 644.5,-266.5"/>
<text text-anchor="middle" x="725" y="-273.5" font-family="Helvetica,sans-Serif" font-size="10.00">AudioManager.SetVideocallAudio</text>
</a>
</g>
</g>
<!-- Node10&#45;&gt;Node11 -->
<g id="edge11" class="edge">
<title>Node10&#45;&gt;Node11</title>
<path fill="none" stroke="midnightblue" d="M584.16,-276C600.02,-276 617.18,-276 633.85,-276"/>
<polygon fill="midnightblue" stroke="midnightblue" points="634.16,-279.5 644.16,-276 634.16,-272.5 634.16,-279.5"/>
</g>
<!-- Node13&#45;&gt;Node14 -->
<g id="edge14" class="edge">
<title>Node13&#45;&gt;Node14</title>
<path fill="none" stroke="midnightblue" d="M362.71,-200C382.39,-200 404.04,-200 424.66,-200"/>
<polygon fill="midnightblue" stroke="midnightblue" points="424.69,-203.5 434.69,-200 424.69,-196.5 424.69,-203.5"/>
</g>
<!-- Node16 -->
<g id="node16" class="node">
<title>Node16</title>
<g id="a_node16"><a xlink:href="class_peer_connection_manager.html#ac4577b58d566fb35458448f45920978f" target="_top" xlink:title="Cuelga la videollamada">
<polygon fill="white" stroke="black" points="435,-152.5 435,-171.5 596,-171.5 596,-152.5 435,-152.5"/>
<text text-anchor="middle" x="515.5" y="-159.5" font-family="Helvetica,sans-Serif" font-size="10.00">PeerConnectionManager.HangUp</text>
</a>
</g>
</g>
<!-- Node15&#45;&gt;Node16 -->
<g id="edge17" class="edge">
<title>Node15&#45;&gt;Node16</title>
<path fill="none" stroke="midnightblue" d="M385.07,-162C398.13,-162 411.54,-162 424.54,-162"/>
<polygon fill="midnightblue" stroke="midnightblue" points="424.86,-165.5 434.86,-162 424.86,-158.5 424.86,-165.5"/>
</g>
<!-- Node17 -->
<g id="node17" class="node">
<title>Node17</title>
<g id="a_node17"><a xlink:href="class_my_scene_manager.html#a6787f49b73d5e0c4e80fd67d38f5550a" target="_top" xlink:title="Carga la escena seleccionada">
<polygon fill="white" stroke="black" points="651.5,-190.5 651.5,-209.5 798.5,-209.5 798.5,-190.5 651.5,-190.5"/>
<text text-anchor="middle" x="725" y="-197.5" font-family="Helvetica,sans-Serif" font-size="10.00">MySceneManager.LoadScene</text>
</a>
</g>
</g>
<!-- Node16&#45;&gt;Node17 -->
<g id="edge18" class="edge">
<title>Node16&#45;&gt;Node17</title>
<path fill="none" stroke="midnightblue" d="M568.59,-171.54C596.96,-176.73 632.24,-183.2 662.02,-188.65"/>
<polygon fill="midnightblue" stroke="midnightblue" points="661.42,-192.1 671.89,-190.46 662.68,-185.21 661.42,-192.1"/>
</g>
<!-- Node18 -->
<g id="node18" class="node">
<title>Node18</title>
<g id="a_node18"><a xlink:href="class_peer_connection_manager.html#ad792df6efa61aa9a558aab9b76604a87" target="_top" xlink:title="Señaliza que el par no listo para la conexión">
<polygon fill="white" stroke="black" points="632,-152.5 632,-171.5 818,-171.5 818,-152.5 632,-152.5"/>
<text text-anchor="middle" x="725" y="-159.5" font-family="Helvetica,sans-Serif" font-size="10.00">PeerConnectionManager.UnReadyUser</text>
</a>
</g>
</g>
<!-- Node16&#45;&gt;Node18 -->
<g id="edge19" class="edge">
<title>Node16&#45;&gt;Node18</title>
<path fill="none" stroke="midnightblue" d="M596.13,-162C604.51,-162 613.11,-162 621.7,-162"/>
<polygon fill="midnightblue" stroke="midnightblue" points="621.76,-165.5 631.76,-162 621.76,-158.5 621.76,-165.5"/>
</g>
<!-- Node19 -->
<g id="node19" class="node">
<title>Node19</title>
<g id="a_node19"><a xlink:href="class_database_manager.html#a178acb8bd938e615aa34330e64f715ea" target="_top" xlink:title="Señaliza en base de datos que un par no listo para la conexión">
<polygon fill="white" stroke="black" points="854,-152.5 854,-171.5 1012,-171.5 1012,-152.5 854,-152.5"/>
<text text-anchor="middle" x="933" y="-159.5" font-family="Helvetica,sans-Serif" font-size="10.00">DatabaseManager.UnReadyUser</text>
</a>
</g>
</g>
<!-- Node18&#45;&gt;Node19 -->
<g id="edge20" class="edge">
<title>Node18&#45;&gt;Node19</title>
<path fill="none" stroke="midnightblue" d="M818.15,-162C826.61,-162 835.16,-162 843.58,-162"/>
<polygon fill="midnightblue" stroke="midnightblue" points="843.77,-165.5 853.77,-162 843.77,-158.5 843.77,-165.5"/>
</g>
<!-- Node20 -->
<g id="node20" class="node">
<title>Node20</title>
<g id="a_node20"><a xlink:href="class_database_manager.html#a1854ec336517d562b14ec72287f986cb" target="_top" xlink:title="Lanza el evento OnClientReady">
<polygon fill="white" stroke="black" points="1061,-152.5 1061,-171.5 1263,-171.5 1263,-152.5 1061,-152.5"/>
<text text-anchor="middle" x="1162" y="-159.5" font-family="Helvetica,sans-Serif" font-size="10.00">DatabaseManager.OnClientReadyDelegate</text>
</a>
</g>
</g>
<!-- Node19&#45;&gt;Node20 -->
<g id="edge21" class="edge">
<title>Node19&#45;&gt;Node20</title>
<path fill="none" stroke="midnightblue" d="M1012.12,-162C1024.47,-162 1037.43,-162 1050.35,-162"/>
<polygon fill="midnightblue" stroke="midnightblue" points="1050.69,-165.5 1060.69,-162 1050.69,-158.5 1050.69,-165.5"/>
</g>
<!-- Node21 -->
<g id="node21" class="node">
<title>Node21</title>
<g id="a_node21"><a xlink:href="class_database_manager.html#a195ea9d14ebff0203ccdf30de9801069" target="_top" xlink:title="Lanza el evento OnMessageReceived">
<polygon fill="white" stroke="black" points="1048,-114.5 1048,-133.5 1276,-133.5 1276,-114.5 1048,-114.5"/>
<text text-anchor="middle" x="1162" y="-121.5" font-family="Helvetica,sans-Serif" font-size="10.00">DatabaseManager.OnMessageReceivedDelegate</text>
</a>
</g>
</g>
<!-- Node19&#45;&gt;Node21 -->
<g id="edge22" class="edge">
<title>Node19&#45;&gt;Node21</title>
<path fill="none" stroke="midnightblue" d="M990.99,-152.46C1022.29,-147.22 1061.29,-140.69 1094.04,-135.21"/>
<polygon fill="midnightblue" stroke="midnightblue" points="1094.7,-138.65 1103.99,-133.54 1093.55,-131.74 1094.7,-138.65"/>
</g>
<!-- Node22&#45;&gt;Node20 -->
<g id="edge24" class="edge">
<title>Node22&#45;&gt;Node20</title>
<path fill="none" stroke="midnightblue" d="M990.99,-133.54C1022.29,-138.78 1061.29,-145.31 1094.04,-150.79"/>
<polygon fill="midnightblue" stroke="midnightblue" points="1093.55,-154.26 1103.99,-152.46 1094.7,-147.35 1093.55,-154.26"/>
</g>
<!-- Node22&#45;&gt;Node21 -->
<g id="edge25" class="edge">
<title>Node22&#45;&gt;Node21</title>
<path fill="none" stroke="midnightblue" d="M1006.14,-124C1016.17,-124 1026.71,-124 1037.36,-124"/>
<polygon fill="midnightblue" stroke="midnightblue" points="1037.6,-127.5 1047.6,-124 1037.6,-120.5 1037.6,-127.5"/>
</g>
</g>
</svg>
