<?xml version="1.0" encoding="UTF-8" standalone="no"?>
<!DOCTYPE svg PUBLIC "-//W3C//DTD SVG 1.1//EN"
 "http://www.w3.org/Graphics/SVG/1.1/DTD/svg11.dtd">
<!-- Generated by graphviz version 2.49.0 (20210828.1703)
 -->
<!-- Title: AudioManager.Start Pages: 1 -->
<svg width="558pt" height="116pt"
 viewBox="0.00 0.00 558.00 116.00" xmlns="http://www.w3.org/2000/svg" xmlns:xlink="http://www.w3.org/1999/xlink">
<g id="graph0" class="graph" transform="scale(1 1) rotate(0) translate(4 112)">
<title>AudioManager.Start</title>
<polygon fill="white" stroke="transparent" points="-4,4 -4,-112 554,-112 554,4 -4,4"/>
<!-- Node1 -->
<g id="node1" class="node">
<title>Node1</title>
<g id="a_node1"><a xlink:title="Llamada justo antes del primer fotograma">
<polygon fill="#bfbfbf" stroke="black" points="0,-44.5 0,-63.5 103,-63.5 103,-44.5 0,-44.5"/>
<text text-anchor="middle" x="51.5" y="-51.5" font-family="Helvetica,sans-Serif" font-size="10.00">AudioManager.Start</text>
</a>
</g>
</g>
<!-- Node2 -->
<g id="node2" class="node">
<title>Node2</title>
<g id="a_node2"><a xlink:href="class_audio_manager.html#aa96d0af05232c7d2babfb0364271b9b6" target="_top" xlink:title="Lanzada cuando se deniegan los permisos de audio">
<polygon fill="white" stroke="black" points="147.5,-88.5 147.5,-107.5 358.5,-107.5 358.5,-88.5 147.5,-88.5"/>
<text text-anchor="middle" x="253" y="-95.5" font-family="Helvetica,sans-Serif" font-size="10.00">AudioManager.MicrophonePermissionDenied</text>
</a>
</g>
</g>
<!-- Node1&#45;&gt;Node2 -->
<g id="edge1" class="edge">
<title>Node1&#45;&gt;Node2</title>
<path fill="none" stroke="midnightblue" d="M82.3,-63.53C98.88,-68.6 119.95,-74.66 139,-79 151.32,-81.81 164.48,-84.39 177.31,-86.69"/>
<polygon fill="midnightblue" stroke="midnightblue" points="177.06,-90.2 187.51,-88.47 178.26,-83.3 177.06,-90.2"/>
</g>
<!-- Node3 -->
<g id="node3" class="node">
<title>Node3</title>
<g id="a_node3"><a xlink:href="class_audio_manager.html#a04d68ba5cdcccb8add793ae79563c2bf" target="_top" xlink:title="Lanzada cuando se deniegan los permisos de audio y se indica que no se soliciten otra vez">
<polygon fill="white" stroke="black" points="139,-39 139,-69 367,-69 367,-39 139,-39"/>
<text text-anchor="start" x="147" y="-57" font-family="Helvetica,sans-Serif" font-size="10.00">AudioManager.MicrophonePermissionDeniedAnd</text>
<text text-anchor="middle" x="253" y="-46" font-family="Helvetica,sans-Serif" font-size="10.00">DontAskAgain</text>
</a>
</g>
</g>
<!-- Node1&#45;&gt;Node3 -->
<g id="edge2" class="edge">
<title>Node1&#45;&gt;Node3</title>
<path fill="none" stroke="midnightblue" d="M103.1,-54C111.15,-54 119.77,-54 128.66,-54"/>
<polygon fill="midnightblue" stroke="midnightblue" points="128.79,-57.5 138.79,-54 128.79,-50.5 128.79,-57.5"/>
</g>
<!-- Node5 -->
<g id="node5" class="node">
<title>Node5</title>
<g id="a_node5"><a xlink:href="class_audio_manager.html#a4a895a6f17e3ccbb780c62acc7c15155" target="_top" xlink:title="Lanzada cuando se aceptan los permisos de audio">
<polygon fill="white" stroke="black" points="145.5,-0.5 145.5,-19.5 360.5,-19.5 360.5,-0.5 145.5,-0.5"/>
<text text-anchor="middle" x="253" y="-7.5" font-family="Helvetica,sans-Serif" font-size="10.00">AudioManager.MicrophonePermissionGranted</text>
</a>
</g>
</g>
<!-- Node1&#45;&gt;Node5 -->
<g id="edge4" class="edge">
<title>Node1&#45;&gt;Node5</title>
<path fill="none" stroke="midnightblue" d="M83.95,-44.49C100.28,-39.76 120.61,-34.17 139,-30 152.76,-26.88 167.55,-23.96 181.75,-21.36"/>
<polygon fill="midnightblue" stroke="midnightblue" points="182.74,-24.74 191.97,-19.53 181.51,-17.85 182.74,-24.74"/>
</g>
<!-- Node4 -->
<g id="node4" class="node">
<title>Node4</title>
<g id="a_node4"><a xlink:href="class_my_scene_manager.html#a6787f49b73d5e0c4e80fd67d38f5550a" target="_top" xlink:title="Carga la escena seleccionada">
<polygon fill="white" stroke="black" points="403,-44.5 403,-63.5 550,-63.5 550,-44.5 403,-44.5"/>
<text text-anchor="middle" x="476.5" y="-51.5" font-family="Helvetica,sans-Serif" font-size="10.00">MySceneManager.LoadScene</text>
</a>
</g>
</g>
<!-- Node3&#45;&gt;Node4 -->
<g id="edge3" class="edge">
<title>Node3&#45;&gt;Node4</title>
<path fill="none" stroke="midnightblue" d="M367.02,-54C375.67,-54 384.29,-54 392.69,-54"/>
<polygon fill="midnightblue" stroke="midnightblue" points="392.8,-57.5 402.8,-54 392.8,-50.5 392.8,-57.5"/>
</g>
</g>
</svg>
