<?xml version="1.0" encoding="UTF-8" standalone="no"?>
<!DOCTYPE svg PUBLIC "-//W3C//DTD SVG 1.1//EN"
 "http://www.w3.org/Graphics/SVG/1.1/DTD/svg11.dtd">
<!-- Generated by graphviz version 2.49.0 (20210828.1703)
 -->
<!-- Title: RecorderManager.StartRecording Pages: 1 -->
<svg width="723pt" height="104pt"
 viewBox="0.00 0.00 723.00 104.00" xmlns="http://www.w3.org/2000/svg" xmlns:xlink="http://www.w3.org/1999/xlink">
<g id="graph0" class="graph" transform="scale(1 1) rotate(0) translate(4 100)">
<title>RecorderManager.StartRecording</title>
<polygon fill="white" stroke="transparent" points="-4,4 -4,-100 719,-100 719,4 -4,4"/>
<!-- Node1 -->
<g id="node1" class="node">
<title>Node1</title>
<g id="a_node1"><a xlink:title="Comienza la grabación">
<polygon fill="#bfbfbf" stroke="black" points="0,-38.5 0,-57.5 161,-57.5 161,-38.5 0,-38.5"/>
<text text-anchor="middle" x="80.5" y="-45.5" font-family="Helvetica,sans-Serif" font-size="10.00">RecorderManager.StartRecording</text>
</a>
</g>
</g>
<!-- Node2 -->
<g id="node2" class="node">
<title>Node2</title>
<g id="a_node2"><a xlink:href="class_android_utils.html#af53d417f93c9f33d0ba4943af3cc86ae" target="_top" xlink:title=" ">
<polygon fill="white" stroke="black" points="197,-38.5 197,-57.5 334,-57.5 334,-38.5 197,-38.5"/>
<text text-anchor="middle" x="265.5" y="-45.5" font-family="Helvetica,sans-Serif" font-size="10.00">AndroidUtils.StartRecording</text>
</a>
</g>
</g>
<!-- Node1&#45;&gt;Node2 -->
<g id="edge1" class="edge">
<title>Node1&#45;&gt;Node2</title>
<path fill="none" stroke="midnightblue" d="M161.23,-48C169.66,-48 178.21,-48 186.62,-48"/>
<polygon fill="midnightblue" stroke="midnightblue" points="186.77,-51.5 196.77,-48 186.77,-44.5 186.77,-51.5"/>
</g>
<!-- Node3 -->
<g id="node3" class="node">
<title>Node3</title>
<g id="a_node3"><a xlink:href="class_android_utils.html#a5ea9e5ec637706a8bc9c508e88fdeabb" target="_top" xlink:title=" ">
<polygon fill="white" stroke="black" points="387.5,-76.5 387.5,-95.5 509.5,-95.5 509.5,-76.5 387.5,-76.5"/>
<text text-anchor="middle" x="448.5" y="-83.5" font-family="Helvetica,sans-Serif" font-size="10.00">AndroidUtils.IsPermitted</text>
</a>
</g>
</g>
<!-- Node2&#45;&gt;Node3 -->
<g id="edge2" class="edge">
<title>Node2&#45;&gt;Node3</title>
<path fill="none" stroke="midnightblue" d="M312.17,-57.59C336.49,-62.69 366.58,-69.01 392.21,-74.39"/>
<polygon fill="midnightblue" stroke="midnightblue" points="391.65,-77.85 402.15,-76.48 393.09,-71 391.65,-77.85"/>
</g>
<!-- Node5 -->
<g id="node5" class="node">
<title>Node5</title>
<g id="a_node5"><a xlink:href="class_android_utils.html#a3e4428268503fe82ecd74416c37b2ae2" target="_top" xlink:title=" ">
<polygon fill="white" stroke="black" points="370,-38.5 370,-57.5 527,-57.5 527,-38.5 370,-38.5"/>
<text text-anchor="middle" x="448.5" y="-45.5" font-family="Helvetica,sans-Serif" font-size="10.00">AndroidUtils.RequestPermission</text>
</a>
</g>
</g>
<!-- Node2&#45;&gt;Node5 -->
<g id="edge4" class="edge">
<title>Node2&#45;&gt;Node5</title>
<path fill="none" stroke="midnightblue" d="M334.16,-48C342.53,-48 351.18,-48 359.79,-48"/>
<polygon fill="midnightblue" stroke="midnightblue" points="359.88,-51.5 369.88,-48 359.88,-44.5 359.88,-51.5"/>
</g>
<!-- Node6 -->
<g id="node6" class="node">
<title>Node6</title>
<g id="a_node6"><a xlink:href="class_android_utils.html#af3ddee265b4dfc672eddae5699c8fb2b" target="_top" xlink:title=" ">
<polygon fill="white" stroke="black" points="388.5,-0.5 388.5,-19.5 508.5,-19.5 508.5,-0.5 388.5,-0.5"/>
<text text-anchor="middle" x="448.5" y="-7.5" font-family="Helvetica,sans-Serif" font-size="10.00">AndroidUtils.ShowToast</text>
</a>
</g>
</g>
<!-- Node2&#45;&gt;Node6 -->
<g id="edge6" class="edge">
<title>Node2&#45;&gt;Node6</title>
<path fill="none" stroke="midnightblue" d="M312.17,-38.41C336.49,-33.31 366.58,-26.99 392.21,-21.61"/>
<polygon fill="midnightblue" stroke="midnightblue" points="393.09,-25 402.15,-19.52 391.65,-18.15 393.09,-25"/>
</g>
<!-- Node4 -->
<g id="node4" class="node">
<title>Node4</title>
<g id="a_node4"><a xlink:href="class_android_utils.html#af4c6dc91c5c610c75c6685a19bf61abe" target="_top" xlink:title=" ">
<polygon fill="white" stroke="black" points="563,-57.5 563,-76.5 715,-76.5 715,-57.5 563,-57.5"/>
<text text-anchor="middle" x="639" y="-64.5" font-family="Helvetica,sans-Serif" font-size="10.00">AndroidUtils.GetPermissionStrr</text>
</a>
</g>
</g>
<!-- Node3&#45;&gt;Node4 -->
<g id="edge3" class="edge">
<title>Node3&#45;&gt;Node4</title>
<path fill="none" stroke="midnightblue" d="M509.66,-79.94C523.41,-78.55 538.27,-77.05 552.84,-75.58"/>
<polygon fill="midnightblue" stroke="midnightblue" points="553.26,-79.06 562.86,-74.57 552.56,-72.09 553.26,-79.06"/>
</g>
<!-- Node5&#45;&gt;Node4 -->
<g id="edge5" class="edge">
<title>Node5&#45;&gt;Node4</title>
<path fill="none" stroke="midnightblue" d="M527.26,-55.84C535.71,-56.69 544.35,-57.56 552.89,-58.42"/>
<polygon fill="midnightblue" stroke="midnightblue" points="552.55,-61.9 562.85,-59.43 553.25,-54.94 552.55,-61.9"/>
</g>
</g>
</svg>
