<?xml version="1.0" encoding="UTF-8" standalone="no"?>
<!DOCTYPE svg PUBLIC "-//W3C//DTD SVG 1.1//EN"
 "http://www.w3.org/Graphics/SVG/1.1/DTD/svg11.dtd">
<!-- Generated by graphviz version 2.49.0 (20210828.1703)
 -->
<!-- Title: VideoManager.RecordCamera Pages: 1 -->
<svg width="546pt" height="66pt"
 viewBox="0.00 0.00 546.00 66.00" xmlns="http://www.w3.org/2000/svg" xmlns:xlink="http://www.w3.org/1999/xlink">
<g id="graph0" class="graph" transform="scale(1 1) rotate(0) translate(4 62)">
<title>VideoManager.RecordCamera</title>
<polygon fill="white" stroke="transparent" points="-4,4 -4,-62 542,-62 542,4 -4,4"/>
<!-- Node1 -->
<g id="node1" class="node">
<title>Node1</title>
<g id="a_node1"><a xlink:title="Graba la cámara de RA">
<polygon fill="#bfbfbf" stroke="black" points="392,-19.5 392,-38.5 538,-38.5 538,-19.5 392,-19.5"/>
<text text-anchor="middle" x="465" y="-26.5" font-family="Helvetica,sans-Serif" font-size="10.00">VideoManager.RecordCamera</text>
</a>
</g>
</g>
<!-- Node2 -->
<g id="node2" class="node">
<title>Node2</title>
<g id="a_node2"><a xlink:href="class_peer_connection_manager.html#a5e4d5b8cfb094cae7a3d200a78a2a7b3" target="_top" xlink:title="Crea los canales de video y audio">
<polygon fill="white" stroke="black" points="183,-38.5 183,-57.5 356,-57.5 356,-38.5 183,-38.5"/>
<text text-anchor="middle" x="269.5" y="-45.5" font-family="Helvetica,sans-Serif" font-size="10.00">PeerConnectionManager.AddTracks</text>
</a>
</g>
</g>
<!-- Node1&#45;&gt;Node2 -->
<g id="edge1" class="edge">
<title>Node1&#45;&gt;Node2</title>
<path fill="none" stroke="midnightblue" d="M381.96,-37.06C373.37,-37.9 364.63,-38.76 356.01,-39.6"/>
<polygon fill="midnightblue" stroke="midnightblue" points="382.34,-40.54 391.95,-36.07 381.65,-33.57 382.34,-40.54"/>
</g>
<!-- Node4 -->
<g id="node4" class="node">
<title>Node4</title>
<g id="a_node4"><a xlink:href="class_video_manager.html#a96ae7748b09920fd6d6a9b4017bf9769" target="_top" xlink:title="Llamada justo antes del primer fotograma">
<polygon fill="white" stroke="black" points="218,-0.5 218,-19.5 321,-19.5 321,-0.5 218,-0.5"/>
<text text-anchor="middle" x="269.5" y="-7.5" font-family="Helvetica,sans-Serif" font-size="10.00">VideoManager.Start</text>
</a>
</g>
</g>
<!-- Node1&#45;&gt;Node4 -->
<g id="edge3" class="edge">
<title>Node1&#45;&gt;Node4</title>
<path fill="none" stroke="midnightblue" d="M381.91,-20.94C361.29,-18.91 339.76,-16.8 321.18,-14.98"/>
<polygon fill="midnightblue" stroke="midnightblue" points="381.65,-24.43 391.95,-21.93 382.34,-17.46 381.65,-24.43"/>
</g>
<!-- Node3 -->
<g id="node3" class="node">
<title>Node3</title>
<g id="a_node3"><a xlink:href="class_peer_connection_manager.html#a058148001392c4d6106cc784ec477256" target="_top" xlink:title="Llamada justo antes del primer fotograma">
<polygon fill="white" stroke="black" points="0,-38.5 0,-57.5 147,-57.5 147,-38.5 0,-38.5"/>
<text text-anchor="middle" x="73.5" y="-45.5" font-family="Helvetica,sans-Serif" font-size="10.00">PeerConnectionManager.Start</text>
</a>
</g>
</g>
<!-- Node2&#45;&gt;Node3 -->
<g id="edge2" class="edge">
<title>Node2&#45;&gt;Node3</title>
<path fill="none" stroke="midnightblue" d="M172.79,-48C164.2,-48 155.6,-48 147.25,-48"/>
<polygon fill="midnightblue" stroke="midnightblue" points="172.84,-51.5 182.84,-48 172.84,-44.5 172.84,-51.5"/>
</g>
</g>
</svg>
