<?xml version="1.0" encoding="UTF-8" standalone="no"?>
<!DOCTYPE svg PUBLIC "-//W3C//DTD SVG 1.1//EN"
 "http://www.w3.org/Graphics/SVG/1.1/DTD/svg11.dtd">
<!-- Generated by graphviz version 2.49.0 (20210828.1703)
 -->
<!-- Title: ContactsController.Awake Pages: 1 -->
<svg width="1079pt" height="192pt"
 viewBox="0.00 0.00 1079.00 192.00" xmlns="http://www.w3.org/2000/svg" xmlns:xlink="http://www.w3.org/1999/xlink">
<g id="graph0" class="graph" transform="scale(1 1) rotate(0) translate(4 188)">
<title>ContactsController.Awake</title>
<polygon fill="white" stroke="transparent" points="-4,4 -4,-188 1075,-188 1075,4 -4,4"/>
<!-- Node1 -->
<g id="node1" class="node">
<title>Node1</title>
<g id="a_node1"><a xlink:title="Llamada al crear el GameObject asociado">
<polygon fill="#bfbfbf" stroke="black" points="0,-120.5 0,-139.5 129,-139.5 129,-120.5 0,-120.5"/>
<text text-anchor="middle" x="64.5" y="-127.5" font-family="Helvetica,sans-Serif" font-size="10.00">ContactsController.Awake</text>
</a>
</g>
</g>
<!-- Node2 -->
<g id="node2" class="node">
<title>Node2</title>
<g id="a_node2"><a xlink:href="class_contacts_controller.html#aec18327c46aa4e4a17b297ed675e5c44" target="_top" xlink:title="LLamada cuando se deniegan los permisos de lectura de contactos">
<polygon fill="white" stroke="black" points="183.5,-164.5 183.5,-183.5 362.5,-183.5 362.5,-164.5 183.5,-164.5"/>
<text text-anchor="middle" x="273" y="-171.5" font-family="Helvetica,sans-Serif" font-size="10.00">ContactsController.PermissionDenied</text>
</a>
</g>
</g>
<!-- Node1&#45;&gt;Node2 -->
<g id="edge1" class="edge">
<title>Node1&#45;&gt;Node2</title>
<path fill="none" stroke="midnightblue" d="M100.82,-139.52C119.77,-144.46 143.58,-150.41 165,-155 177.64,-157.71 191.19,-160.33 204.24,-162.71"/>
<polygon fill="midnightblue" stroke="midnightblue" points="203.64,-166.16 214.1,-164.49 204.88,-159.27 203.64,-166.16"/>
</g>
<!-- Node3 -->
<g id="node3" class="node">
<title>Node3</title>
<g id="a_node3"><a xlink:href="class_contacts_controller.html#ac6213489083a627d928225564fc6aafb" target="_top" xlink:title="LLamada cuando se deniegan los permisos de lectura de contactos y se solicita que no se vuelvan a ped...">
<polygon fill="white" stroke="black" points="165,-115 165,-145 381,-145 381,-115 165,-115"/>
<text text-anchor="start" x="173" y="-133" font-family="Helvetica,sans-Serif" font-size="10.00">ContactsController.PermissionDeniedAndDont</text>
<text text-anchor="middle" x="273" y="-122" font-family="Helvetica,sans-Serif" font-size="10.00">AskAgain</text>
</a>
</g>
</g>
<!-- Node1&#45;&gt;Node3 -->
<g id="edge2" class="edge">
<title>Node1&#45;&gt;Node3</title>
<path fill="none" stroke="midnightblue" d="M129.14,-130C137.32,-130 145.89,-130 154.59,-130"/>
<polygon fill="midnightblue" stroke="midnightblue" points="154.86,-133.5 164.86,-130 154.86,-126.5 154.86,-133.5"/>
</g>
<!-- Node4 -->
<g id="node4" class="node">
<title>Node4</title>
<g id="a_node4"><a xlink:href="class_contacts_controller.html#a5523eae0297ff38bd1ee5cdaa2ead925" target="_top" xlink:title="LLamada cuando se aceptan los permisos de lectura de contactos">
<polygon fill="white" stroke="black" points="181.5,-76.5 181.5,-95.5 364.5,-95.5 364.5,-76.5 181.5,-76.5"/>
<text text-anchor="middle" x="273" y="-83.5" font-family="Helvetica,sans-Serif" font-size="10.00">ContactsController.PermissionGranted</text>
</a>
</g>
</g>
<!-- Node1&#45;&gt;Node4 -->
<g id="edge3" class="edge">
<title>Node1&#45;&gt;Node4</title>
<path fill="none" stroke="midnightblue" d="M103.19,-120.42C121.75,-115.83 144.5,-110.39 165,-106 178.83,-103.04 193.72,-100.1 207.86,-97.43"/>
<polygon fill="midnightblue" stroke="midnightblue" points="208.82,-100.81 218.01,-95.53 207.53,-93.93 208.82,-100.81"/>
</g>
<!-- Node5 -->
<g id="node5" class="node">
<title>Node5</title>
<g id="a_node5"><a xlink:href="class_contacts_controller.html#a82e0a0a5ae1fc7cbef3e4cb49d74dc31" target="_top" xlink:title="Inicializa todos los elementos necesarios de la lista de contactos y la muestra en la interfaz">
<polygon fill="white" stroke="black" points="417,-76.5 417,-95.5 580,-95.5 580,-76.5 417,-76.5"/>
<text text-anchor="middle" x="498.5" y="-83.5" font-family="Helvetica,sans-Serif" font-size="10.00">ContactsController.ShowContacts</text>
</a>
</g>
</g>
<!-- Node4&#45;&gt;Node5 -->
<g id="edge4" class="edge">
<title>Node4&#45;&gt;Node5</title>
<path fill="none" stroke="midnightblue" d="M364.58,-86C378.51,-86 392.89,-86 406.81,-86"/>
<polygon fill="midnightblue" stroke="midnightblue" points="406.86,-89.5 416.86,-86 406.86,-82.5 406.86,-89.5"/>
</g>
<!-- Node6 -->
<g id="node6" class="node">
<title>Node6</title>
<g id="a_node6"><a xlink:href="class_database_manager.html#a322c76e999c83719f38cf419cf9f800a" target="_top" xlink:title="Obtiene el userID de un usuario a partir de su número de teléfono">
<polygon fill="white" stroke="black" points="654,-133.5 654,-152.5 797,-152.5 797,-133.5 654,-133.5"/>
<text text-anchor="middle" x="725.5" y="-140.5" font-family="Helvetica,sans-Serif" font-size="10.00">DatabaseManager.GetUserID</text>
</a>
</g>
</g>
<!-- Node5&#45;&gt;Node6 -->
<g id="edge5" class="edge">
<title>Node5&#45;&gt;Node6</title>
<path fill="none" stroke="midnightblue" d="M525.11,-95.52C548.51,-103.93 584.21,-116.07 616,-124 627.31,-126.82 639.38,-129.37 651.21,-131.63"/>
<polygon fill="midnightblue" stroke="midnightblue" points="650.6,-135.07 661.07,-133.45 651.87,-128.19 650.6,-135.07"/>
</g>
<!-- Node7 -->
<g id="node7" class="node">
<title>Node7</title>
<g id="a_node7"><a xlink:href="class_room_manager.html#a022ae9cafc8dedb55ca839e0d99c5b44" target="_top" xlink:title="Mueve un par a una sala">
<polygon fill="white" stroke="black" points="663,-95.5 663,-114.5 788,-114.5 788,-95.5 663,-95.5"/>
<text text-anchor="middle" x="725.5" y="-102.5" font-family="Helvetica,sans-Serif" font-size="10.00">RoomManager.JoinRoom</text>
</a>
</g>
</g>
<!-- Node5&#45;&gt;Node7 -->
<g id="edge6" class="edge">
<title>Node5&#45;&gt;Node7</title>
<path fill="none" stroke="midnightblue" d="M580.09,-92.81C603.82,-94.81 629.61,-96.99 652.74,-98.94"/>
<polygon fill="midnightblue" stroke="midnightblue" points="652.56,-102.44 662.82,-99.79 653.15,-95.46 652.56,-102.44"/>
</g>
<!-- Node10 -->
<g id="node10" class="node">
<title>Node10</title>
<g id="a_node10"><a xlink:href="class_sharing_manager.html#a6b0c8c96f7f5624110bcf03a1c3dad3b" target="_top" xlink:title="Envia una notifiación">
<polygon fill="white" stroke="black" points="645,-57.5 645,-76.5 806,-76.5 806,-57.5 645,-57.5"/>
<text text-anchor="middle" x="725.5" y="-64.5" font-family="Helvetica,sans-Serif" font-size="10.00">SharingManager.SendNotification</text>
</a>
</g>
</g>
<!-- Node5&#45;&gt;Node10 -->
<g id="edge9" class="edge">
<title>Node5&#45;&gt;Node10</title>
<path fill="none" stroke="midnightblue" d="M580.09,-79.19C597.78,-77.7 616.61,-76.11 634.64,-74.59"/>
<polygon fill="midnightblue" stroke="midnightblue" points="635.18,-78.06 644.85,-73.73 634.59,-71.08 635.18,-78.06"/>
</g>
<!-- Node11 -->
<g id="node11" class="node">
<title>Node11</title>
<g id="a_node11"><a xlink:href="class_sharing_manager.html#aae88ccb9e92ceeed9c6e6281a192f698" target="_top" xlink:title="Comparte un código de sala con un contacto de whatsapp">
<polygon fill="white" stroke="black" points="616,-19.5 616,-38.5 835,-38.5 835,-19.5 616,-19.5"/>
<text text-anchor="middle" x="725.5" y="-26.5" font-family="Helvetica,sans-Serif" font-size="10.00">SharingManager.ShareRoomWhatsappContact</text>
</a>
</g>
</g>
<!-- Node5&#45;&gt;Node11 -->
<g id="edge10" class="edge">
<title>Node5&#45;&gt;Node11</title>
<path fill="none" stroke="midnightblue" d="M525.11,-76.48C548.51,-68.07 584.21,-55.93 616,-48 627.31,-45.18 639.38,-42.63 651.21,-40.37"/>
<polygon fill="midnightblue" stroke="midnightblue" points="651.87,-43.81 661.07,-38.55 650.6,-36.93 651.87,-43.81"/>
</g>
<!-- Node8 -->
<g id="node8" class="node">
<title>Node8</title>
<g id="a_node8"><a xlink:href="class_my_scene_manager.html#a6787f49b73d5e0c4e80fd67d38f5550a" target="_top" xlink:title="Carga la escena seleccionada">
<polygon fill="white" stroke="black" points="897.5,-123.5 897.5,-142.5 1044.5,-142.5 1044.5,-123.5 897.5,-123.5"/>
<text text-anchor="middle" x="971" y="-130.5" font-family="Helvetica,sans-Serif" font-size="10.00">MySceneManager.LoadScene</text>
</a>
</g>
</g>
<!-- Node7&#45;&gt;Node8 -->
<g id="edge7" class="edge">
<title>Node7&#45;&gt;Node8</title>
<path fill="none" stroke="midnightblue" d="M788.26,-112.1C818.39,-115.57 855.07,-119.78 887.55,-123.52"/>
<polygon fill="midnightblue" stroke="midnightblue" points="887.16,-127 897.49,-124.66 887.96,-120.04 887.16,-127"/>
</g>
<!-- Node9 -->
<g id="node9" class="node">
<title>Node9</title>
<g id="a_node9"><a xlink:href="class_database_manager.html#a26b78f4ef7989b67f825194863df0357" target="_top" xlink:title="Evalua si un código de sala existe en base de datos">
<polygon fill="white" stroke="black" points="890.5,-85.5 890.5,-104.5 1051.5,-104.5 1051.5,-85.5 890.5,-85.5"/>
<text text-anchor="middle" x="971" y="-92.5" font-family="Helvetica,sans-Serif" font-size="10.00">DatabaseManager.RoomIDExists</text>
</a>
</g>
</g>
<!-- Node7&#45;&gt;Node9 -->
<g id="edge8" class="edge">
<title>Node7&#45;&gt;Node9</title>
<path fill="none" stroke="midnightblue" d="M788.26,-102.46C816.11,-101.32 849.54,-99.95 880.1,-98.69"/>
<polygon fill="midnightblue" stroke="midnightblue" points="880.49,-102.18 890.33,-98.27 880.2,-95.19 880.49,-102.18"/>
</g>
<!-- Node12 -->
<g id="node12" class="node">
<title>Node12</title>
<g id="a_node12"><a xlink:href="class_sharing_manager.html#a039a42cca85530f5e71e396bda0bc95b" target="_top" xlink:title="Crea un enlace dinámico a una sala">
<polygon fill="white" stroke="black" points="871,-38.5 871,-57.5 1071,-57.5 1071,-38.5 871,-38.5"/>
<text text-anchor="middle" x="971" y="-45.5" font-family="Helvetica,sans-Serif" font-size="10.00">SharingManager.CreateDynamicRoomLink</text>
</a>
</g>
</g>
<!-- Node11&#45;&gt;Node12 -->
<g id="edge11" class="edge">
<title>Node11&#45;&gt;Node12</title>
<path fill="none" stroke="midnightblue" d="M835.08,-37.47C843.64,-38.14 852.3,-38.82 860.87,-39.48"/>
<polygon fill="midnightblue" stroke="midnightblue" points="860.64,-42.98 870.89,-40.27 861.19,-36 860.64,-42.98"/>
</g>
<!-- Node13 -->
<g id="node13" class="node">
<title>Node13</title>
<g id="a_node13"><a xlink:href="class_sharing_manager.html#a1297b7c8e2a23a2f1b179717015405a7" target="_top" xlink:title="Crea el mensaje a compartir">
<polygon fill="white" stroke="black" points="893.5,-0.5 893.5,-19.5 1048.5,-19.5 1048.5,-0.5 893.5,-0.5"/>
<text text-anchor="middle" x="971" y="-7.5" font-family="Helvetica,sans-Serif" font-size="10.00">SharingManager.ShareMessage</text>
</a>
</g>
</g>
<!-- Node11&#45;&gt;Node13 -->
<g id="edge12" class="edge">
<title>Node11&#45;&gt;Node13</title>
<path fill="none" stroke="midnightblue" d="M835.08,-20.53C851.2,-19.27 867.64,-17.99 883.24,-16.77"/>
<polygon fill="midnightblue" stroke="midnightblue" points="883.66,-20.25 893.36,-15.98 883.11,-13.27 883.66,-20.25"/>
</g>
</g>
</svg>
