<?xml version="1.0" encoding="UTF-8" standalone="no"?>
<!DOCTYPE svg PUBLIC "-//W3C//DTD SVG 1.1//EN"
 "http://www.w3.org/Graphics/SVG/1.1/DTD/svg11.dtd">
<!-- Generated by graphviz version 2.49.0 (20210828.1703)
 -->
<!-- Title: PeerConnectionManager.OnSceneUnloaded&lt; Scene &gt; Pages: 1 -->
<svg width="941pt" height="66pt"
 viewBox="0.00 0.00 941.00 66.00" xmlns="http://www.w3.org/2000/svg" xmlns:xlink="http://www.w3.org/1999/xlink">
<g id="graph0" class="graph" transform="scale(1 1) rotate(0) translate(4 62)">
<title>PeerConnectionManager.OnSceneUnloaded&lt; Scene &gt;</title>
<polygon fill="white" stroke="transparent" points="-4,4 -4,-62 937,-62 937,4 -4,4"/>
<!-- Node1 -->
<g id="node1" class="node">
<title>Node1</title>
<g id="a_node1"><a xlink:title="Llamada cuando se abandona la escena">
<polygon fill="#bfbfbf" stroke="black" points="0,-19.5 0,-38.5 253,-38.5 253,-19.5 0,-19.5"/>
<text text-anchor="middle" x="126.5" y="-26.5" font-family="Helvetica,sans-Serif" font-size="10.00">PeerConnectionManager.OnSceneUnloaded&lt; Scene &gt;</text>
</a>
</g>
</g>
<!-- Node2 -->
<g id="node2" class="node">
<title>Node2</title>
<g id="a_node2"><a xlink:href="class_peer_connection_manager.html#ad792df6efa61aa9a558aab9b76604a87" target="_top" xlink:title="Se침aliza que el par no listo para la conexi칩n">
<polygon fill="white" stroke="black" points="289,-19.5 289,-38.5 475,-38.5 475,-19.5 289,-19.5"/>
<text text-anchor="middle" x="382" y="-26.5" font-family="Helvetica,sans-Serif" font-size="10.00">PeerConnectionManager.UnReadyUser</text>
</a>
</g>
</g>
<!-- Node1&#45;&gt;Node2 -->
<g id="edge1" class="edge">
<title>Node1&#45;&gt;Node2</title>
<path fill="none" stroke="midnightblue" d="M253.14,-29C261.72,-29 270.31,-29 278.76,-29"/>
<polygon fill="midnightblue" stroke="midnightblue" points="278.97,-32.5 288.97,-29 278.97,-25.5 278.97,-32.5"/>
</g>
<!-- Node3 -->
<g id="node3" class="node">
<title>Node3</title>
<g id="a_node3"><a xlink:href="class_database_manager.html#a178acb8bd938e615aa34330e64f715ea" target="_top" xlink:title="Se침aliza en base de datos que un par no listo para la conexi칩n">
<polygon fill="white" stroke="black" points="511,-19.5 511,-38.5 669,-38.5 669,-19.5 511,-19.5"/>
<text text-anchor="middle" x="590" y="-26.5" font-family="Helvetica,sans-Serif" font-size="10.00">DatabaseManager.UnReadyUser</text>
</a>
</g>
</g>
<!-- Node2&#45;&gt;Node3 -->
<g id="edge2" class="edge">
<title>Node2&#45;&gt;Node3</title>
<path fill="none" stroke="midnightblue" d="M475.15,-29C483.61,-29 492.16,-29 500.58,-29"/>
<polygon fill="midnightblue" stroke="midnightblue" points="500.77,-32.5 510.77,-29 500.77,-25.5 500.77,-32.5"/>
</g>
<!-- Node4 -->
<g id="node4" class="node">
<title>Node4</title>
<g id="a_node4"><a xlink:href="class_database_manager.html#a1854ec336517d562b14ec72287f986cb" target="_top" xlink:title="Lanza el evento OnClientReady">
<polygon fill="white" stroke="black" points="718,-38.5 718,-57.5 920,-57.5 920,-38.5 718,-38.5"/>
<text text-anchor="middle" x="819" y="-45.5" font-family="Helvetica,sans-Serif" font-size="10.00">DatabaseManager.OnClientReadyDelegate</text>
</a>
</g>
</g>
<!-- Node3&#45;&gt;Node4 -->
<g id="edge3" class="edge">
<title>Node3&#45;&gt;Node4</title>
<path fill="none" stroke="midnightblue" d="M669.12,-35.54C681.47,-36.57 694.43,-37.66 707.35,-38.74"/>
<polygon fill="midnightblue" stroke="midnightblue" points="707.43,-42.26 717.69,-39.6 708.01,-35.28 707.43,-42.26"/>
</g>
<!-- Node5 -->
<g id="node5" class="node">
<title>Node5</title>
<g id="a_node5"><a xlink:href="class_database_manager.html#a195ea9d14ebff0203ccdf30de9801069" target="_top" xlink:title="Lanza el evento OnMessageReceived">
<polygon fill="white" stroke="black" points="705,-0.5 705,-19.5 933,-19.5 933,-0.5 705,-0.5"/>
<text text-anchor="middle" x="819" y="-7.5" font-family="Helvetica,sans-Serif" font-size="10.00">DatabaseManager.OnMessageReceivedDelegate</text>
</a>
</g>
</g>
<!-- Node3&#45;&gt;Node5 -->
<g id="edge4" class="edge">
<title>Node3&#45;&gt;Node5</title>
<path fill="none" stroke="midnightblue" d="M669.12,-22.46C677.42,-21.77 685.99,-21.05 694.65,-20.32"/>
<polygon fill="midnightblue" stroke="midnightblue" points="695.15,-23.79 704.83,-19.47 694.57,-16.82 695.15,-23.79"/>
</g>
</g>
</svg>
