<?xml version="1.0" encoding="UTF-8" standalone="no"?>
<!DOCTYPE svg PUBLIC "-//W3C//DTD SVG 1.1//EN"
 "http://www.w3.org/Graphics/SVG/1.1/DTD/svg11.dtd">
<!-- Generated by graphviz version 2.49.0 (20210828.1703)
 -->
<!-- Title: RegisterPhoneUIController.VerifyPhone Pages: 1 -->
<svg width="900pt" height="237pt"
 viewBox="0.00 0.00 900.00 237.00" xmlns="http://www.w3.org/2000/svg" xmlns:xlink="http://www.w3.org/1999/xlink">
<g id="graph0" class="graph" transform="scale(1 1) rotate(0) translate(4 233)">
<title>RegisterPhoneUIController.VerifyPhone</title>
<polygon fill="white" stroke="transparent" points="-4,4 -4,-233 896,-233 896,4 -4,4"/>
<!-- Node1 -->
<g id="node1" class="node">
<title>Node1</title>
<g id="a_node1"><a xlink:title="Verifica el teléfono introducido con el código SMS introducido">
<polygon fill="#bfbfbf" stroke="black" points="0,-95.5 0,-114.5 186,-114.5 186,-95.5 0,-95.5"/>
<text text-anchor="middle" x="93" y="-102.5" font-family="Helvetica,sans-Serif" font-size="10.00">RegisterPhoneUIController.VerifyPhone</text>
</a>
</g>
</g>
<!-- Node2 -->
<g id="node2" class="node">
<title>Node2</title>
<g id="a_node2"><a xlink:href="class_my_scene_manager.html#a6787f49b73d5e0c4e80fd67d38f5550a" target="_top" xlink:title="Carga la escena seleccionada">
<polygon fill="white" stroke="black" points="745,-209.5 745,-228.5 892,-228.5 892,-209.5 745,-209.5"/>
<text text-anchor="middle" x="818.5" y="-216.5" font-family="Helvetica,sans-Serif" font-size="10.00">MySceneManager.LoadScene</text>
</a>
</g>
</g>
<!-- Node1&#45;&gt;Node2 -->
<g id="edge1" class="edge">
<title>Node1&#45;&gt;Node2</title>
<path fill="none" stroke="midnightblue" d="M112.68,-114.53C137.25,-126.78 182.01,-148.12 222,-162 319.05,-195.68 344.07,-206.23 446,-219 544.56,-231.34 658.98,-228.84 734.51,-224.88"/>
<polygon fill="midnightblue" stroke="midnightblue" points="735.11,-228.35 744.91,-224.31 734.73,-221.36 735.11,-228.35"/>
</g>
<!-- Node3 -->
<g id="node3" class="node">
<title>Node3</title>
<g id="a_node3"><a xlink:href="class_android_utils.html#af3ddee265b4dfc672eddae5699c8fb2b" target="_top" xlink:title=" ">
<polygon fill="white" stroke="black" points="758.5,-95.5 758.5,-114.5 878.5,-114.5 878.5,-95.5 758.5,-95.5"/>
<text text-anchor="middle" x="818.5" y="-102.5" font-family="Helvetica,sans-Serif" font-size="10.00">AndroidUtils.ShowToast</text>
</a>
</g>
</g>
<!-- Node1&#45;&gt;Node3 -->
<g id="edge2" class="edge">
<title>Node1&#45;&gt;Node3</title>
<path fill="none" stroke="midnightblue" d="M137.99,-95.42C239.43,-74.83 497.29,-31 709,-67 736.47,-71.67 766.25,-82.55 787.65,-91.48"/>
<polygon fill="midnightblue" stroke="midnightblue" points="786.28,-94.7 796.85,-95.41 789.03,-88.26 786.28,-94.7"/>
</g>
<!-- Node4 -->
<g id="node4" class="node">
<title>Node4</title>
<g id="a_node4"><a xlink:href="class_register_phone_u_i_controller.html#a5cd62efcd8f1e816c759ac0ede78aaaf" target="_top" xlink:title="Se desuscribe de los eventos de clases estáticas">
<polygon fill="white" stroke="black" points="222,-133.5 222,-152.5 410,-152.5 410,-133.5 222,-133.5"/>
<text text-anchor="middle" x="316" y="-140.5" font-family="Helvetica,sans-Serif" font-size="10.00">RegisterPhoneUIController.Unsubscribe</text>
</a>
</g>
</g>
<!-- Node1&#45;&gt;Node4 -->
<g id="edge3" class="edge">
<title>Node1&#45;&gt;Node4</title>
<path fill="none" stroke="midnightblue" d="M149.48,-114.54C179.83,-119.76 217.6,-126.25 249.4,-131.72"/>
<polygon fill="midnightblue" stroke="midnightblue" points="249.05,-135.21 259.49,-133.46 250.23,-128.31 249.05,-135.21"/>
</g>
<!-- Node9 -->
<g id="node9" class="node">
<title>Node9</title>
<g id="a_node9"><a xlink:href="class_user_manager.html#ac1d99d0f5e70010dee110ba670f659b6" target="_top" xlink:title="Verifica el número de teléfono con el código SMS de verificación">
<polygon fill="white" stroke="black" points="251,-0.5 251,-19.5 381,-19.5 381,-0.5 251,-0.5"/>
<text text-anchor="middle" x="316" y="-7.5" font-family="Helvetica,sans-Serif" font-size="10.00">UserManager.VerifyPhone</text>
</a>
</g>
</g>
<!-- Node1&#45;&gt;Node9 -->
<g id="edge13" class="edge">
<title>Node1&#45;&gt;Node9</title>
<path fill="none" stroke="midnightblue" d="M108.37,-95.42C131.44,-80.42 178.57,-51.32 222,-34 233.61,-29.37 246.4,-25.39 258.67,-22.08"/>
<polygon fill="midnightblue" stroke="midnightblue" points="259.57,-25.47 268.38,-19.57 257.82,-18.69 259.57,-25.47"/>
</g>
<!-- Node5 -->
<g id="node5" class="node">
<title>Node5</title>
<g id="a_node5"><a xlink:href="class_register_phone_u_i_controller.html#a5ebb5fa37ace52b830ee425ab69376e8" target="_top" xlink:title="Llamada cuando se captura automáticamente el código">
<polygon fill="white" stroke="black" points="446,-152.5 446,-171.5 709,-171.5 709,-152.5 446,-152.5"/>
<text text-anchor="middle" x="577.5" y="-159.5" font-family="Helvetica,sans-Serif" font-size="10.00">RegisterPhoneUIController.OnCodeAutoRetrievalTimeOut</text>
</a>
</g>
</g>
<!-- Node4&#45;&gt;Node5 -->
<g id="edge4" class="edge">
<title>Node4&#45;&gt;Node5</title>
<path fill="none" stroke="midnightblue" d="M410.32,-149.83C418.87,-150.46 427.65,-151.1 436.5,-151.75"/>
<polygon fill="midnightblue" stroke="midnightblue" points="436.27,-155.24 446.5,-152.48 436.78,-148.26 436.27,-155.24"/>
</g>
<!-- Node6 -->
<g id="node6" class="node">
<title>Node6</title>
<g id="a_node6"><a xlink:href="class_register_phone_u_i_controller.html#a1f99826db3bbc1b5bc00fe21b5241f5e" target="_top" xlink:title="Llamada cuando se envíaa el código de verificación SMS">
<polygon fill="white" stroke="black" points="483,-76.5 483,-95.5 672,-95.5 672,-76.5 483,-76.5"/>
<text text-anchor="middle" x="577.5" y="-83.5" font-family="Helvetica,sans-Serif" font-size="10.00">RegisterPhoneUIController.OnCodeSent</text>
</a>
</g>
</g>
<!-- Node4&#45;&gt;Node6 -->
<g id="edge5" class="edge">
<title>Node4&#45;&gt;Node6</title>
<path fill="none" stroke="midnightblue" d="M345.14,-133.45C371.07,-124.96 410.76,-112.71 446,-105 459.59,-102.03 474.08,-99.39 488.27,-97.11"/>
<polygon fill="midnightblue" stroke="midnightblue" points="489.2,-100.5 498.54,-95.5 488.12,-93.59 489.2,-100.5"/>
</g>
<!-- Node7 -->
<g id="node7" class="node">
<title>Node7</title>
<g id="a_node7"><a xlink:href="class_register_phone_u_i_controller.html#aa85933669dcb72558a71039eba32d88d" target="_top" xlink:title="Llamada cuando se completa la verificación">
<polygon fill="white" stroke="black" points="457,-190.5 457,-209.5 698,-209.5 698,-190.5 457,-190.5"/>
<text text-anchor="middle" x="577.5" y="-197.5" font-family="Helvetica,sans-Serif" font-size="10.00">RegisterPhoneUIController.OnVerificationCompleted</text>
</a>
</g>
</g>
<!-- Node4&#45;&gt;Node7 -->
<g id="edge7" class="edge">
<title>Node4&#45;&gt;Node7</title>
<path fill="none" stroke="midnightblue" d="M371.17,-152.51C394.06,-158.86 421.14,-166.56 446,-172 477.59,-178.92 514.05,-183.98 540.39,-188.65"/>
<polygon fill="midnightblue" stroke="midnightblue" points="539.83,-192.11 550.31,-190.49 541.11,-185.22 539.83,-192.11"/>
</g>
<!-- Node8 -->
<g id="node8" class="node">
<title>Node8</title>
<g id="a_node8"><a xlink:href="class_register_phone_u_i_controller.html#a7838bc038a08379b5f1f50af435ac6d7" target="_top" xlink:title="Llamada cuando falla la verificación">
<polygon fill="white" stroke="black" points="467,-114.5 467,-133.5 688,-133.5 688,-114.5 467,-114.5"/>
<text text-anchor="middle" x="577.5" y="-121.5" font-family="Helvetica,sans-Serif" font-size="10.00">RegisterPhoneUIController.OnVerificationFailed</text>
</a>
</g>
</g>
<!-- Node4&#45;&gt;Node8 -->
<g id="edge11" class="edge">
<title>Node4&#45;&gt;Node8</title>
<path fill="none" stroke="midnightblue" d="M410.32,-136.17C425.34,-135.07 441.06,-133.92 456.6,-132.78"/>
<polygon fill="midnightblue" stroke="midnightblue" points="457.06,-136.25 466.78,-132.03 456.55,-129.27 457.06,-136.25"/>
</g>
<!-- Node6&#45;&gt;Node3 -->
<g id="edge6" class="edge">
<title>Node6&#45;&gt;Node3</title>
<path fill="none" stroke="midnightblue" d="M672.27,-93.45C697.68,-95.47 724.71,-97.62 748.48,-99.51"/>
<polygon fill="midnightblue" stroke="midnightblue" points="748.2,-103 758.45,-100.31 748.76,-96.02 748.2,-103"/>
</g>
<!-- Node7&#45;&gt;Node2 -->
<g id="edge8" class="edge">
<title>Node7&#45;&gt;Node2</title>
<path fill="none" stroke="midnightblue" d="M698.35,-209.53C710.6,-210.5 722.85,-211.48 734.57,-212.41"/>
<polygon fill="midnightblue" stroke="midnightblue" points="734.49,-215.91 744.73,-213.22 735.04,-208.93 734.49,-215.91"/>
</g>
<!-- Node7&#45;&gt;Node3 -->
<g id="edge9" class="edge">
<title>Node7&#45;&gt;Node3</title>
<path fill="none" stroke="midnightblue" d="M678.11,-190.46C688.73,-187.99 699.21,-184.88 709,-181 744.51,-166.91 779.62,-139.1 799.9,-121.32"/>
<polygon fill="midnightblue" stroke="midnightblue" points="802.28,-123.88 807.4,-114.6 797.61,-118.66 802.28,-123.88"/>
</g>
<!-- Node7&#45;&gt;Node4 -->
<g id="edge10" class="edge">
<title>Node7&#45;&gt;Node4</title>
<path fill="none" stroke="midnightblue" d="M456.9,-192.28C453.22,-191.54 449.58,-190.78 446,-190 407.54,-181.58 363.78,-167.77 338.39,-156.75"/>
<polygon fill="midnightblue" stroke="midnightblue" points="339.84,-153.56 329.3,-152.52 336.89,-159.91 339.84,-153.56"/>
</g>
<!-- Node8&#45;&gt;Node3 -->
<g id="edge12" class="edge">
<title>Node8&#45;&gt;Node3</title>
<path fill="none" stroke="midnightblue" d="M688.21,-115.28C708.6,-113.66 729.38,-112 748.15,-110.51"/>
<polygon fill="midnightblue" stroke="midnightblue" points="748.66,-113.98 758.35,-109.7 748.11,-107.01 748.66,-113.98"/>
</g>
<!-- Node10 -->
<g id="node10" class="node">
<title>Node10</title>
<g id="a_node10"><a xlink:href="class_user_manager.html#a8473c8b09bc25b4ee3ccc8ad934f1a4d" target="_top" xlink:title="Verifica el número de teléfono con un objeto de credenciales">
<polygon fill="white" stroke="black" points="491,-0.5 491,-19.5 664,-19.5 664,-0.5 491,-0.5"/>
<text text-anchor="middle" x="577.5" y="-7.5" font-family="Helvetica,sans-Serif" font-size="10.00">UserManager.VerifyPhoneCredential</text>
</a>
</g>
</g>
<!-- Node9&#45;&gt;Node10 -->
<g id="edge14" class="edge">
<title>Node9&#45;&gt;Node10</title>
<path fill="none" stroke="midnightblue" d="M381.15,-10C411.07,-10 447.31,-10 480.41,-10"/>
<polygon fill="midnightblue" stroke="midnightblue" points="480.57,-13.5 490.57,-10 480.57,-6.5 480.57,-13.5"/>
</g>
<!-- Node11 -->
<g id="node11" class="node">
<title>Node11</title>
<g id="a_node11"><a xlink:href="class_database_manager.html#ae84a345ac51bb80ebf7fda88043ef499" target="_top" xlink:title="Establece el userID de un usuario">
<polygon fill="white" stroke="black" points="747,-0.5 747,-19.5 890,-19.5 890,-0.5 747,-0.5"/>
<text text-anchor="middle" x="818.5" y="-7.5" font-family="Helvetica,sans-Serif" font-size="10.00">DatabaseManager.SetUserID</text>
</a>
</g>
</g>
<!-- Node10&#45;&gt;Node11 -->
<g id="edge15" class="edge">
<title>Node10&#45;&gt;Node11</title>
<path fill="none" stroke="midnightblue" d="M664.11,-10C687.68,-10 713.16,-10 736.47,-10"/>
<polygon fill="midnightblue" stroke="midnightblue" points="736.65,-13.5 746.65,-10 736.65,-6.5 736.65,-13.5"/>
</g>
</g>
</svg>
