<?xml version="1.0" encoding="UTF-8" standalone="no"?>
<!DOCTYPE svg PUBLIC "-//W3C//DTD SVG 1.1//EN"
 "http://www.w3.org/Graphics/SVG/1.1/DTD/svg11.dtd">
<!-- Generated by graphviz version 2.49.0 (20210828.1703)
 -->
<!-- Title: PeerConnectionManager.OnDisconnect Pages: 1 -->
<svg width="1073pt" height="85pt"
 viewBox="0.00 0.00 1073.00 85.00" xmlns="http://www.w3.org/2000/svg" xmlns:xlink="http://www.w3.org/1999/xlink">
<g id="graph0" class="graph" transform="scale(1 1) rotate(0) translate(4 81)">
<title>PeerConnectionManager.OnDisconnect</title>
<polygon fill="white" stroke="transparent" points="-4,4 -4,-81 1069,-81 1069,4 -4,4"/>
<!-- Node1 -->
<g id="node1" class="node">
<title>Node1</title>
<g id="a_node1"><a xlink:title="Llamada cuando la conexión se pierde">
<polygon fill="#bfbfbf" stroke="black" points="0,-38.5 0,-57.5 188,-57.5 188,-38.5 0,-38.5"/>
<text text-anchor="middle" x="94" y="-45.5" font-family="Helvetica,sans-Serif" font-size="10.00">PeerConnectionManager.OnDisconnect</text>
</a>
</g>
</g>
<!-- Node2 -->
<g id="node2" class="node">
<title>Node2</title>
<g id="a_node2"><a xlink:href="class_peer_connection_manager.html#ac4577b58d566fb35458448f45920978f" target="_top" xlink:title="Cuelga la videollamada">
<polygon fill="white" stroke="black" points="224,-38.5 224,-57.5 385,-57.5 385,-38.5 224,-38.5"/>
<text text-anchor="middle" x="304.5" y="-45.5" font-family="Helvetica,sans-Serif" font-size="10.00">PeerConnectionManager.HangUp</text>
</a>
</g>
</g>
<!-- Node1&#45;&gt;Node2 -->
<g id="edge1" class="edge">
<title>Node1&#45;&gt;Node2</title>
<path fill="none" stroke="midnightblue" d="M188.27,-48C196.68,-48 205.17,-48 213.55,-48"/>
<polygon fill="midnightblue" stroke="midnightblue" points="213.68,-51.5 223.68,-48 213.68,-44.5 213.68,-51.5"/>
</g>
<!-- Node3 -->
<g id="node3" class="node">
<title>Node3</title>
<g id="a_node3"><a xlink:href="class_my_scene_manager.html#a6787f49b73d5e0c4e80fd67d38f5550a" target="_top" xlink:title="Carga la escena seleccionada">
<polygon fill="white" stroke="black" points="440.5,-57.5 440.5,-76.5 587.5,-76.5 587.5,-57.5 440.5,-57.5"/>
<text text-anchor="middle" x="514" y="-64.5" font-family="Helvetica,sans-Serif" font-size="10.00">MySceneManager.LoadScene</text>
</a>
</g>
</g>
<!-- Node2&#45;&gt;Node3 -->
<g id="edge2" class="edge">
<title>Node2&#45;&gt;Node3</title>
<path fill="none" stroke="midnightblue" d="M385.13,-55.29C399.9,-56.64 415.35,-58.06 430.21,-59.42"/>
<polygon fill="midnightblue" stroke="midnightblue" points="430.1,-62.92 440.38,-60.35 430.74,-55.95 430.1,-62.92"/>
</g>
<!-- Node4 -->
<g id="node4" class="node">
<title>Node4</title>
<g id="a_node4"><a xlink:href="class_peer_connection_manager.html#ad792df6efa61aa9a558aab9b76604a87" target="_top" xlink:title="Señaliza que el par no listo para la conexión">
<polygon fill="white" stroke="black" points="421,-19.5 421,-38.5 607,-38.5 607,-19.5 421,-19.5"/>
<text text-anchor="middle" x="514" y="-26.5" font-family="Helvetica,sans-Serif" font-size="10.00">PeerConnectionManager.UnReadyUser</text>
</a>
</g>
</g>
<!-- Node2&#45;&gt;Node4 -->
<g id="edge3" class="edge">
<title>Node2&#45;&gt;Node4</title>
<path fill="none" stroke="midnightblue" d="M385.13,-40.71C393.51,-39.94 402.11,-39.15 410.7,-38.37"/>
<polygon fill="midnightblue" stroke="midnightblue" points="411.12,-41.84 420.76,-37.45 410.48,-34.87 411.12,-41.84"/>
</g>
<!-- Node5 -->
<g id="node5" class="node">
<title>Node5</title>
<g id="a_node5"><a xlink:href="class_database_manager.html#a178acb8bd938e615aa34330e64f715ea" target="_top" xlink:title="Señaliza en base de datos que un par no listo para la conexión">
<polygon fill="white" stroke="black" points="643,-19.5 643,-38.5 801,-38.5 801,-19.5 643,-19.5"/>
<text text-anchor="middle" x="722" y="-26.5" font-family="Helvetica,sans-Serif" font-size="10.00">DatabaseManager.UnReadyUser</text>
</a>
</g>
</g>
<!-- Node4&#45;&gt;Node5 -->
<g id="edge4" class="edge">
<title>Node4&#45;&gt;Node5</title>
<path fill="none" stroke="midnightblue" d="M607.15,-29C615.61,-29 624.16,-29 632.58,-29"/>
<polygon fill="midnightblue" stroke="midnightblue" points="632.77,-32.5 642.77,-29 632.77,-25.5 632.77,-32.5"/>
</g>
<!-- Node6 -->
<g id="node6" class="node">
<title>Node6</title>
<g id="a_node6"><a xlink:href="class_database_manager.html#a1854ec336517d562b14ec72287f986cb" target="_top" xlink:title="Lanza el evento OnClientReady">
<polygon fill="white" stroke="black" points="850,-38.5 850,-57.5 1052,-57.5 1052,-38.5 850,-38.5"/>
<text text-anchor="middle" x="951" y="-45.5" font-family="Helvetica,sans-Serif" font-size="10.00">DatabaseManager.OnClientReadyDelegate</text>
</a>
</g>
</g>
<!-- Node5&#45;&gt;Node6 -->
<g id="edge5" class="edge">
<title>Node5&#45;&gt;Node6</title>
<path fill="none" stroke="midnightblue" d="M801.12,-35.54C813.47,-36.57 826.43,-37.66 839.35,-38.74"/>
<polygon fill="midnightblue" stroke="midnightblue" points="839.43,-42.26 849.69,-39.6 840.01,-35.28 839.43,-42.26"/>
</g>
<!-- Node7 -->
<g id="node7" class="node">
<title>Node7</title>
<g id="a_node7"><a xlink:href="class_database_manager.html#a195ea9d14ebff0203ccdf30de9801069" target="_top" xlink:title="Lanza el evento OnMessageReceived">
<polygon fill="white" stroke="black" points="837,-0.5 837,-19.5 1065,-19.5 1065,-0.5 837,-0.5"/>
<text text-anchor="middle" x="951" y="-7.5" font-family="Helvetica,sans-Serif" font-size="10.00">DatabaseManager.OnMessageReceivedDelegate</text>
</a>
</g>
</g>
<!-- Node5&#45;&gt;Node7 -->
<g id="edge6" class="edge">
<title>Node5&#45;&gt;Node7</title>
<path fill="none" stroke="midnightblue" d="M801.12,-22.46C809.42,-21.77 817.99,-21.05 826.65,-20.32"/>
<polygon fill="midnightblue" stroke="midnightblue" points="827.15,-23.79 836.83,-19.47 826.57,-16.82 827.15,-23.79"/>
</g>
</g>
</svg>
