<?xml version="1.0" encoding="UTF-8" standalone="no"?>
<!DOCTYPE svg PUBLIC "-//W3C//DTD SVG 1.1//EN"
 "http://www.w3.org/Graphics/SVG/1.1/DTD/svg11.dtd">
<!-- Generated by graphviz version 2.49.0 (20210828.1703)
 -->
<!-- Title: PeerConnectionManager.EnableAudioStream Pages: 1 -->
<svg width="413pt" height="66pt"
 viewBox="0.00 0.00 413.00 66.00" xmlns="http://www.w3.org/2000/svg" xmlns:xlink="http://www.w3.org/1999/xlink">
<g id="graph0" class="graph" transform="scale(1 1) rotate(0) translate(4 62)">
<title>PeerConnectionManager.EnableAudioStream</title>
<polygon fill="white" stroke="transparent" points="-4,4 -4,-62 409,-62 409,4 -4,4"/>
<!-- Node1 -->
<g id="node1" class="node">
<title>Node1</title>
<g id="a_node1"><a xlink:title="Cambia el estado del canal de audio">
<polygon fill="#bfbfbf" stroke="black" points="193,-19.5 193,-38.5 405,-38.5 405,-19.5 193,-19.5"/>
<text text-anchor="middle" x="299" y="-26.5" font-family="Helvetica,sans-Serif" font-size="10.00">PeerConnectionManager.EnableAudioStream</text>
</a>
</g>
</g>
<!-- Node2 -->
<g id="node2" class="node">
<title>Node2</title>
<g id="a_node2"><a xlink:href="class_peer_connection_manager.html#a82bd9ac926952fe7f22bef718cca64cb" target="_top" xlink:title="Llamada al crear el GameObject asociado">
<polygon fill="white" stroke="black" points="1,-38.5 1,-57.5 156,-57.5 156,-38.5 1,-38.5"/>
<text text-anchor="middle" x="78.5" y="-45.5" font-family="Helvetica,sans-Serif" font-size="10.00">PeerConnectionManager.Awake</text>
</a>
</g>
</g>
<!-- Node1&#45;&gt;Node2 -->
<g id="edge1" class="edge">
<title>Node1&#45;&gt;Node2</title>
<path fill="none" stroke="midnightblue" d="M182.77,-39.02C173.8,-39.8 164.89,-40.58 156.27,-41.32"/>
<polygon fill="midnightblue" stroke="midnightblue" points="183.25,-42.49 192.91,-38.14 182.64,-35.52 183.25,-42.49"/>
</g>
<!-- Node3 -->
<g id="node3" class="node">
<title>Node3</title>
<g id="a_node3"><a xlink:href="class_peer_connection_manager.html#a8b9c44eaef490cea9d4ecb3c6c1ff7af" target="_top" xlink:title="Llamada al comienzo de cada fotograma">
<polygon fill="white" stroke="black" points="0,-0.5 0,-19.5 157,-19.5 157,-0.5 0,-0.5"/>
<text text-anchor="middle" x="78.5" y="-7.5" font-family="Helvetica,sans-Serif" font-size="10.00">PeerConnectionManager.Update</text>
</a>
</g>
</g>
<!-- Node1&#45;&gt;Node3 -->
<g id="edge2" class="edge">
<title>Node1&#45;&gt;Node3</title>
<path fill="none" stroke="midnightblue" d="M182.76,-18.98C174.12,-18.23 165.53,-17.48 157.21,-16.76"/>
<polygon fill="midnightblue" stroke="midnightblue" points="182.64,-22.48 192.91,-19.86 183.25,-15.51 182.64,-22.48"/>
</g>
</g>
</svg>
