<?xml version="1.0" encoding="UTF-8" standalone="no"?>
<!DOCTYPE svg PUBLIC "-//W3C//DTD SVG 1.1//EN"
 "http://www.w3.org/Graphics/SVG/1.1/DTD/svg11.dtd">
<!-- Generated by graphviz version 2.49.0 (20210828.1703)
 -->
<!-- Title: ARText Pages: 1 -->
<svg width="552pt" height="1111pt"
 viewBox="0.00 0.00 551.79 1111.00" xmlns="http://www.w3.org/2000/svg" xmlns:xlink="http://www.w3.org/1999/xlink">
<g id="graph0" class="graph" transform="scale(1 1) rotate(0) translate(4 1107)">
<title>ARText</title>
<polygon fill="white" stroke="transparent" points="-4,4 -4,-1107 547.79,-1107 547.79,4 -4,4"/>
<!-- Node1 -->
<g id="node1" class="node">
<title>Node1</title>
<g id="a_node1"><a xlink:title="Modela el comportamiento de la herramienta ARText">
<polygon fill="#bfbfbf" stroke="black" points="98.29,-0.5 98.29,-156.5 302.29,-156.5 302.29,-0.5 98.29,-0.5"/>
<text text-anchor="middle" x="200.29" y="-144.5" font-family="Helvetica,sans-Serif" font-size="10.00">ARText</text>
<polyline fill="none" stroke="black" points="98.29,-137.5 302.29,-137.5 "/>
<text text-anchor="start" x="106.29" y="-125.5" font-family="Helvetica,sans-Serif" font-size="10.00">&#45; PeerType myPeerType</text>
<text text-anchor="start" x="106.29" y="-114.5" font-family="Helvetica,sans-Serif" font-size="10.00">&#45; GameObject prefab</text>
<text text-anchor="start" x="106.29" y="-103.5" font-family="Helvetica,sans-Serif" font-size="10.00">&#45; Camera cam</text>
<text text-anchor="start" x="106.29" y="-92.5" font-family="Helvetica,sans-Serif" font-size="10.00">&#45; ARRaycastManager arRaycastManager</text>
<text text-anchor="start" x="106.29" y="-81.5" font-family="Helvetica,sans-Serif" font-size="10.00">&#45; LineRenderer hostMarker</text>
<text text-anchor="start" x="106.29" y="-70.5" font-family="Helvetica,sans-Serif" font-size="10.00">&#45; bool placingMarker</text>
<text text-anchor="start" x="106.29" y="-59.5" font-family="Helvetica,sans-Serif" font-size="10.00">&#45; TouchScreenKeyboard keyboard</text>
<text text-anchor="start" x="106.29" y="-48.5" font-family="Helvetica,sans-Serif" font-size="10.00">&#45; GameObject currentMarker</text>
<polyline fill="none" stroke="black" points="98.29,-41.5 302.29,-41.5 "/>
<text text-anchor="start" x="106.29" y="-29.5" font-family="Helvetica,sans-Serif" font-size="10.00">&#45; void Start()</text>
<text text-anchor="start" x="106.29" y="-18.5" font-family="Helvetica,sans-Serif" font-size="10.00">&#45; void Update()</text>
<text text-anchor="start" x="106.29" y="-7.5" font-family="Helvetica,sans-Serif" font-size="10.00">&#45; GameObject AddMarker(Vector3 position)</text>
</a>
</g>
</g>
<!-- Node2 -->
<g id="node2" class="node">
<title>Node2</title>
<g id="a_node2"><a xlink:title=" ">
<polygon fill="white" stroke="#bfbfbf" points="158.79,-1045.5 158.79,-1102.5 241.79,-1102.5 241.79,-1045.5 158.79,-1045.5"/>
<text text-anchor="middle" x="200.29" y="-1090.5" font-family="Helvetica,sans-Serif" font-size="10.00">MonoBehaviour</text>
<polyline fill="none" stroke="#bfbfbf" points="158.79,-1083.5 241.79,-1083.5 "/>
<text text-anchor="middle" x="200.29" y="-1071.5" font-family="Helvetica,sans-Serif" font-size="10.00"> </text>
<polyline fill="none" stroke="#bfbfbf" points="158.79,-1064.5 241.79,-1064.5 "/>
<text text-anchor="middle" x="200.29" y="-1052.5" font-family="Helvetica,sans-Serif" font-size="10.00"> </text>
</a>
</g>
</g>
<!-- Node2&#45;&gt;Node1 -->
<g id="edge1" class="edge">
<title>Node2&#45;&gt;Node1</title>
<path fill="none" stroke="midnightblue" d="M150.3,-1044.38C137.64,-1034.55 125.57,-1022.35 118.29,-1008 -43.51,-689.23 -27.4,-539.77 95.29,-204 101.4,-187.27 110.87,-171.23 121.66,-156.56"/>
<polygon fill="none" stroke="midnightblue" points="148.52,-1047.41 158.66,-1050.49 152.65,-1041.76 148.52,-1047.41"/>
</g>
<!-- Node3 -->
<g id="node3" class="node">
<title>Node3</title>
<g id="a_node3"><a xlink:href="class_my_input_manager.html" target="_top" xlink:title=" ">
<polygon fill="white" stroke="black" points="104.79,-204.5 104.79,-415.5 295.79,-415.5 295.79,-204.5 104.79,-204.5"/>
<text text-anchor="middle" x="200.29" y="-403.5" font-family="Helvetica,sans-Serif" font-size="10.00">MyInputManager</text>
<polyline fill="none" stroke="black" points="104.79,-396.5 295.79,-396.5 "/>
<text text-anchor="start" x="112.79" y="-384.5" font-family="Helvetica,sans-Serif" font-size="10.00">+ PeerType myPeerType</text>
<text text-anchor="start" x="112.79" y="-373.5" font-family="Helvetica,sans-Serif" font-size="10.00">+ bool recording</text>
<text text-anchor="start" x="112.79" y="-362.5" font-family="Helvetica,sans-Serif" font-size="10.00">+ Vector3 hostPosition</text>
<text text-anchor="start" x="112.79" y="-351.5" font-family="Helvetica,sans-Serif" font-size="10.00">+ Vector3 clientPosition</text>
<text text-anchor="start" x="112.79" y="-340.5" font-family="Helvetica,sans-Serif" font-size="10.00">+ TouchScreenKeyboard clientKeyboard</text>
<text text-anchor="start" x="112.79" y="-329.5" font-family="Helvetica,sans-Serif" font-size="10.00">&#45; float scaledPixelRatioX</text>
<text text-anchor="start" x="112.79" y="-318.5" font-family="Helvetica,sans-Serif" font-size="10.00">&#45; float scaledPixelRatioY</text>
<text text-anchor="start" x="112.79" y="-307.5" font-family="Helvetica,sans-Serif" font-size="10.00">&#45; float clientAspectRatio</text>
<text text-anchor="start" x="112.79" y="-296.5" font-family="Helvetica,sans-Serif" font-size="10.00">&#45; int croppedScreenWidth</text>
<text text-anchor="start" x="112.79" y="-285.5" font-family="Helvetica,sans-Serif" font-size="10.00">&#45; int croppedScreenHeight</text>
<text text-anchor="start" x="112.79" y="-274.5" font-family="Helvetica,sans-Serif" font-size="10.00">&#45; int offsetX</text>
<text text-anchor="start" x="112.79" y="-263.5" font-family="Helvetica,sans-Serif" font-size="10.00">&#45; int offsetY</text>
<polyline fill="none" stroke="black" points="104.79,-256.5 295.79,-256.5 "/>
<text text-anchor="start" x="112.79" y="-244.5" font-family="Helvetica,sans-Serif" font-size="10.00">+ bool IsHeldDown(PeerType peer)</text>
<text text-anchor="start" x="112.79" y="-233.5" font-family="Helvetica,sans-Serif" font-size="10.00">&#45; void Awake()</text>
<text text-anchor="start" x="112.79" y="-222.5" font-family="Helvetica,sans-Serif" font-size="10.00">&#45; void Start()</text>
<text text-anchor="start" x="112.79" y="-211.5" font-family="Helvetica,sans-Serif" font-size="10.00">&#45; void Update()</text>
</a>
</g>
</g>
<!-- Node2&#45;&gt;Node3 -->
<g id="edge3" class="edge">
<title>Node2&#45;&gt;Node3</title>
<path fill="none" stroke="midnightblue" d="M171.75,-1036.74C166.21,-1027.82 161.22,-1017.95 158.29,-1008 86.09,-763.23 138.84,-686.86 173.29,-434 174.1,-428.04 175.05,-421.95 176.1,-415.81"/>
<polygon fill="none" stroke="midnightblue" points="168.98,-1038.9 177.41,-1045.32 174.82,-1035.05 168.98,-1038.9"/>
</g>
<!-- Node4 -->
<g id="node4" class="node">
<title>Node4</title>
<g id="a_node4"><a xlink:href="class_video_manager.html" target="_top" xlink:title="Maneja la l贸gica de la grabaci贸n y visualizaci贸n de video">
<polygon fill="white" stroke="black" points="167.79,-708.5 167.79,-1007.5 356.79,-1007.5 356.79,-708.5 167.79,-708.5"/>
<text text-anchor="middle" x="262.29" y="-995.5" font-family="Helvetica,sans-Serif" font-size="10.00">VideoManager</text>
<polyline fill="none" stroke="black" points="167.79,-988.5 356.79,-988.5 "/>
<text text-anchor="start" x="175.79" y="-976.5" font-family="Helvetica,sans-Serif" font-size="10.00">+ int width</text>
<text text-anchor="start" x="175.79" y="-965.5" font-family="Helvetica,sans-Serif" font-size="10.00">+ int height</text>
<text text-anchor="start" x="175.79" y="-954.5" font-family="Helvetica,sans-Serif" font-size="10.00">+ float aspectRatio</text>
<text text-anchor="start" x="175.79" y="-943.5" font-family="Helvetica,sans-Serif" font-size="10.00">+ ulong bitrate</text>
<text text-anchor="start" x="175.79" y="-932.5" font-family="Helvetica,sans-Serif" font-size="10.00">+ uint framerate</text>
<text text-anchor="start" x="175.79" y="-921.5" font-family="Helvetica,sans-Serif" font-size="10.00">+ bool isRecording</text>
<text text-anchor="start" x="175.79" y="-910.5" font-family="Helvetica,sans-Serif" font-size="10.00">+ RawImage videoRawImage</text>
<text text-anchor="start" x="175.79" y="-899.5" font-family="Helvetica,sans-Serif" font-size="10.00">+ VideoStreamTrack videoStreamTrack</text>
<text text-anchor="start" x="175.79" y="-888.5" font-family="Helvetica,sans-Serif" font-size="10.00">+ bool videoDisabled</text>
<text text-anchor="start" x="175.79" y="-877.5" font-family="Helvetica,sans-Serif" font-size="10.00">+ Camera mainCam</text>
<text text-anchor="start" x="175.79" y="-866.5" font-family="Helvetica,sans-Serif" font-size="10.00">+ ARSession arSession</text>
<text text-anchor="start" x="175.79" y="-855.5" font-family="Helvetica,sans-Serif" font-size="10.00">&#45; Camera arCam</text>
<text text-anchor="start" x="175.79" y="-844.5" font-family="Helvetica,sans-Serif" font-size="10.00">&#45; Camera webCam</text>
<text text-anchor="start" x="175.79" y="-833.5" font-family="Helvetica,sans-Serif" font-size="10.00">&#45; RawImage webCamRawImage</text>
<text text-anchor="start" x="175.79" y="-822.5" font-family="Helvetica,sans-Serif" font-size="10.00">&#45; WebCamTexture webcamTexture</text>
<text text-anchor="start" x="175.79" y="-811.5" font-family="Helvetica,sans-Serif" font-size="10.00">&#45; GameObject noVideoAR</text>
<text text-anchor="start" x="175.79" y="-800.5" font-family="Helvetica,sans-Serif" font-size="10.00">&#45; GameObject noVideoUI</text>
<text text-anchor="start" x="175.79" y="-789.5" font-family="Helvetica,sans-Serif" font-size="10.00">&#45; Canvas arToolTipsUI</text>
<polyline fill="none" stroke="black" points="167.79,-782.5 356.79,-782.5 "/>
<text text-anchor="start" x="175.79" y="-770.5" font-family="Helvetica,sans-Serif" font-size="10.00">+ VideoStreamTrack RecordCamera()</text>
<text text-anchor="start" x="175.79" y="-759.5" font-family="Helvetica,sans-Serif" font-size="10.00">+ void ShowVideo(bool show)</text>
<text text-anchor="start" x="175.79" y="-748.5" font-family="Helvetica,sans-Serif" font-size="10.00">+ bool ToggleVideo()</text>
<text text-anchor="start" x="175.79" y="-737.5" font-family="Helvetica,sans-Serif" font-size="10.00">&#45; void Awake()</text>
<text text-anchor="start" x="175.79" y="-726.5" font-family="Helvetica,sans-Serif" font-size="10.00">&#45; void Start()</text>
<text text-anchor="start" x="175.79" y="-715.5" font-family="Helvetica,sans-Serif" font-size="10.00">&#45; void OnApplicationPause(bool paused)</text>
</a>
</g>
</g>
<!-- Node2&#45;&gt;Node4 -->
<g id="edge5" class="edge">
<title>Node2&#45;&gt;Node4</title>
<path fill="none" stroke="midnightblue" d="M211.1,-1035.69C213.55,-1027.24 216.29,-1017.76 219.21,-1007.7"/>
<polygon fill="none" stroke="midnightblue" points="207.69,-1034.88 208.27,-1045.46 214.41,-1036.83 207.69,-1034.88"/>
</g>
<!-- Node5 -->
<g id="node5" class="node">
<title>Node5</title>
<g id="a_node5"><a xlink:href="class_a_r_tool_manager.html" target="_top" xlink:title="Maneja la l贸gica de las herramientas de RA">
<polygon fill="white" stroke="black" points="264.79,-434.5 264.79,-689.5 543.79,-689.5 543.79,-434.5 264.79,-434.5"/>
<text text-anchor="middle" x="404.29" y="-677.5" font-family="Helvetica,sans-Serif" font-size="10.00">ARToolManager</text>
<polyline fill="none" stroke="black" points="264.79,-670.5 543.79,-670.5 "/>
<text text-anchor="start" x="272.79" y="-658.5" font-family="Helvetica,sans-Serif" font-size="10.00">+ bool recording</text>
<text text-anchor="start" x="272.79" y="-647.5" font-family="Helvetica,sans-Serif" font-size="10.00">+ Material hostMaterial</text>
<text text-anchor="start" x="272.79" y="-636.5" font-family="Helvetica,sans-Serif" font-size="10.00">+ Material clientMaterial</text>
<text text-anchor="start" x="272.79" y="-625.5" font-family="Helvetica,sans-Serif" font-size="10.00">+ Material ColorRed</text>
<text text-anchor="start" x="272.79" y="-614.5" font-family="Helvetica,sans-Serif" font-size="10.00">+ Material ColorBlue</text>
<text text-anchor="start" x="272.79" y="-603.5" font-family="Helvetica,sans-Serif" font-size="10.00">+ Material ColorGreen</text>
<text text-anchor="start" x="272.79" y="-592.5" font-family="Helvetica,sans-Serif" font-size="10.00">+ Material ColorYellow</text>
<text text-anchor="start" x="272.79" y="-581.5" font-family="Helvetica,sans-Serif" font-size="10.00">+ GameObject guidePrefab</text>
<text text-anchor="start" x="272.79" y="-570.5" font-family="Helvetica,sans-Serif" font-size="10.00">+ static GameObject hostDrawings</text>
<text text-anchor="start" x="272.79" y="-559.5" font-family="Helvetica,sans-Serif" font-size="10.00">+ static GameObject clientDrawings</text>
<text text-anchor="start" x="272.79" y="-548.5" font-family="Helvetica,sans-Serif" font-size="10.00">+ static GameObject hostGuides</text>
<text text-anchor="start" x="272.79" y="-537.5" font-family="Helvetica,sans-Serif" font-size="10.00">+ static GameObject clientGuides</text>
<text text-anchor="start" x="272.79" y="-526.5" font-family="Helvetica,sans-Serif" font-size="10.00">&#45; GameObject hostTools</text>
<text text-anchor="start" x="272.79" y="-515.5" font-family="Helvetica,sans-Serif" font-size="10.00">&#45; GameObject clientTools</text>
<polyline fill="none" stroke="black" points="264.79,-508.5 543.79,-508.5 "/>
<text text-anchor="start" x="272.79" y="-496.5" font-family="Helvetica,sans-Serif" font-size="10.00">+ void SelectTool(PeerType peer, string toolName)</text>
<text text-anchor="start" x="272.79" y="-485.5" font-family="Helvetica,sans-Serif" font-size="10.00">+ void UndoDrawing(string peer)</text>
<text text-anchor="start" x="272.79" y="-474.5" font-family="Helvetica,sans-Serif" font-size="10.00">+ void DeleteDrawings(string peer)</text>
<text text-anchor="start" x="272.79" y="-463.5" font-family="Helvetica,sans-Serif" font-size="10.00">+ void SelectColor(PeerType peer, string color)</text>
<text text-anchor="start" x="272.79" y="-452.5" font-family="Helvetica,sans-Serif" font-size="10.00">+ GameObject PlaceGuide(PeerType peer, Transform target)</text>
<text text-anchor="start" x="272.79" y="-441.5" font-family="Helvetica,sans-Serif" font-size="10.00">&#45; void Awake()</text>
</a>
</g>
</g>
<!-- Node2&#45;&gt;Node5 -->
<g id="edge7" class="edge">
<title>Node2&#45;&gt;Node5</title>
<path fill="none" stroke="midnightblue" d="M252.04,-1067.16C290.04,-1059.94 339.52,-1043.85 366.29,-1008 433.79,-917.6 436.83,-786.21 426.89,-689.63"/>
<polygon fill="none" stroke="midnightblue" points="251.4,-1063.71 242.15,-1068.88 252.6,-1070.61 251.4,-1063.71"/>
</g>
<!-- Node3&#45;&gt;Node1 -->
<g id="edge2" class="edge">
<title>Node3&#45;&gt;Node1</title>
<path fill="none" stroke="#404040" d="M200.29,-204.32C200.29,-192.39 200.29,-180.31 200.29,-168.61"/>
<polygon fill="none" stroke="#404040" points="200.29,-168.57 196.29,-162.57 200.29,-156.57 204.29,-162.57 200.29,-168.57"/>
<text text-anchor="middle" x="232.79" y="-178" font-family="Helvetica,sans-Serif" font-size="10.00"> &#45;inputManager</text>
</g>
<!-- Node4&#45;&gt;Node3 -->
<g id="edge4" class="edge">
<title>Node4&#45;&gt;Node3</title>
<path fill="none" stroke="#404040" d="M193.73,-708.22C192.04,-702.13 190.55,-696.04 189.29,-690 171.2,-603.48 175.12,-503.46 182.93,-427.89"/>
<polygon fill="none" stroke="#404040" points="182.98,-427.44 179.64,-421.04 184.26,-415.51 187.6,-421.9 182.98,-427.44"/>
<text text-anchor="middle" x="222.29" y="-559.5" font-family="Helvetica,sans-Serif" font-size="10.00"> &#45;videoManager</text>
</g>
<!-- Node5&#45;&gt;Node1 -->
<g id="edge6" class="edge">
<title>Node5&#45;&gt;Node1</title>
<path fill="none" stroke="#404040" d="M382.43,-434.25C366.98,-363.72 342.14,-275.91 304.29,-204 297.51,-191.12 289.23,-178.37 280.33,-166.21"/>
<polygon fill="none" stroke="#404040" points="280.3,-166.18 273.5,-163.8 273.07,-156.6 279.88,-158.98 280.3,-166.18"/>
<text text-anchor="middle" x="414.29" y="-307.5" font-family="Helvetica,sans-Serif" font-size="10.00"> &#45;aRToolManager</text>
</g>
</g>
</svg>
