<?xml version="1.0" encoding="UTF-8" standalone="no"?>
<!DOCTYPE svg PUBLIC "-//W3C//DTD SVG 1.1//EN"
 "http://www.w3.org/Graphics/SVG/1.1/DTD/svg11.dtd">
<!-- Generated by graphviz version 2.49.0 (20210828.1703)
 -->
<!-- Title: TopbarUIController Pages: 1 -->
<svg width="829pt" height="1788pt"
 viewBox="0.00 0.00 829.00 1788.00" xmlns="http://www.w3.org/2000/svg" xmlns:xlink="http://www.w3.org/1999/xlink">
<g id="graph0" class="graph" transform="scale(1 1) rotate(0) translate(4 1784)">
<title>TopbarUIController</title>
<polygon fill="white" stroke="transparent" points="-4,4 -4,-1784 825,-1784 825,4 -4,4"/>
<!-- Node1 -->
<g id="node1" class="node">
<title>Node1</title>
<g id="a_node1"><a xlink:title="Controla la interfaz de la barra de opciones superior en una videollamada">
<polygon fill="#bfbfbf" stroke="black" points="184.5,-0.5 184.5,-167.5 283.5,-167.5 283.5,-0.5 184.5,-0.5"/>
<text text-anchor="middle" x="234" y="-155.5" font-family="Helvetica,sans-Serif" font-size="10.00">TopbarUIController</text>
<polyline fill="none" stroke="black" points="184.5,-148.5 283.5,-148.5 "/>
<text text-anchor="start" x="192.5" y="-136.5" font-family="Helvetica,sans-Serif" font-size="10.00">+ audioIcon</text>
<text text-anchor="start" x="192.5" y="-125.5" font-family="Helvetica,sans-Serif" font-size="10.00">+ muteAudioIcon</text>
<text text-anchor="start" x="192.5" y="-114.5" font-family="Helvetica,sans-Serif" font-size="10.00">+ videoIcon</text>
<text text-anchor="start" x="192.5" y="-103.5" font-family="Helvetica,sans-Serif" font-size="10.00">+ disableVideoIcon</text>
<text text-anchor="start" x="192.5" y="-92.5" font-family="Helvetica,sans-Serif" font-size="10.00">&#45; muteMyAudioBtn</text>
<text text-anchor="start" x="192.5" y="-81.5" font-family="Helvetica,sans-Serif" font-size="10.00">&#45; disableVideoBtn</text>
<text text-anchor="start" x="192.5" y="-70.5" font-family="Helvetica,sans-Serif" font-size="10.00">&#45; otherUserBubble</text>
<text text-anchor="start" x="192.5" y="-59.5" font-family="Helvetica,sans-Serif" font-size="10.00">&#45; roomBtn</text>
<text text-anchor="start" x="192.5" y="-48.5" font-family="Helvetica,sans-Serif" font-size="10.00">&#45; userReady</text>
<polyline fill="none" stroke="black" points="184.5,-41.5 283.5,-41.5 "/>
<text text-anchor="start" x="192.5" y="-29.5" font-family="Helvetica,sans-Serif" font-size="10.00">&#45; Awake()</text>
<text text-anchor="start" x="192.5" y="-18.5" font-family="Helvetica,sans-Serif" font-size="10.00">&#45; Start()</text>
<text text-anchor="start" x="192.5" y="-7.5" font-family="Helvetica,sans-Serif" font-size="10.00">&#45; FixedUpdate()</text>
</a>
</g>
</g>
<!-- Node2 -->
<g id="node2" class="node">
<title>Node2</title>
<g id="a_node2"><a xlink:title=" ">
<polygon fill="white" stroke="#bfbfbf" points="297.5,-1722.5 297.5,-1779.5 380.5,-1779.5 380.5,-1722.5 297.5,-1722.5"/>
<text text-anchor="middle" x="339" y="-1767.5" font-family="Helvetica,sans-Serif" font-size="10.00">MonoBehaviour</text>
<polyline fill="none" stroke="#bfbfbf" points="297.5,-1760.5 380.5,-1760.5 "/>
<text text-anchor="middle" x="339" y="-1748.5" font-family="Helvetica,sans-Serif" font-size="10.00"> </text>
<polyline fill="none" stroke="#bfbfbf" points="297.5,-1741.5 380.5,-1741.5 "/>
<text text-anchor="middle" x="339" y="-1729.5" font-family="Helvetica,sans-Serif" font-size="10.00"> </text>
</a>
</g>
</g>
<!-- Node2&#45;&gt;Node1 -->
<g id="edge1" class="edge">
<title>Node2&#45;&gt;Node1</title>
<path fill="none" stroke="midnightblue" d="M287.47,-1741.89C192.62,-1723.73 0,-1670.31 0,-1536 0,-1536 0,-1536 0,-408 0,-283.36 115.69,-174.31 184.37,-120.54"/>
<polygon fill="none" stroke="midnightblue" points="286.96,-1745.36 297.43,-1743.74 288.24,-1738.48 286.96,-1745.36"/>
</g>
<!-- Node3 -->
<g id="node3" class="node">
<title>Node3</title>
<g id="a_node3"><a xlink:href="class_audio_manager.html" target="_top" xlink:title="Maneja la lógica de la captura y reproducción de audio">
<polygon fill="white" stroke="black" points="66.5,-650.5 66.5,-1092.5 303.5,-1092.5 303.5,-650.5 66.5,-650.5"/>
<text text-anchor="middle" x="185" y="-1080.5" font-family="Helvetica,sans-Serif" font-size="10.00">AudioManager</text>
<polyline fill="none" stroke="black" points="66.5,-1073.5 303.5,-1073.5 "/>
<text text-anchor="start" x="74.5" y="-1061.5" font-family="Helvetica,sans-Serif" font-size="10.00">+ audioReady</text>
<text text-anchor="start" x="74.5" y="-1050.5" font-family="Helvetica,sans-Serif" font-size="10.00">+ outputAudioSource</text>
<text text-anchor="start" x="74.5" y="-1039.5" font-family="Helvetica,sans-Serif" font-size="10.00">+ inputAudioSource</text>
<text text-anchor="start" x="74.5" y="-1028.5" font-family="Helvetica,sans-Serif" font-size="10.00">+ bufferSize</text>
<text text-anchor="start" x="74.5" y="-1017.5" font-family="Helvetica,sans-Serif" font-size="10.00">+ bitrate</text>
<text text-anchor="start" x="74.5" y="-1006.5" font-family="Helvetica,sans-Serif" font-size="10.00">&#45; audioStreamTrack</text>
<text text-anchor="start" x="74.5" y="-995.5" font-family="Helvetica,sans-Serif" font-size="10.00">&#45; lengthSeconds</text>
<text text-anchor="start" x="74.5" y="-984.5" font-family="Helvetica,sans-Serif" font-size="10.00">&#45; samplingFreq</text>
<text text-anchor="start" x="74.5" y="-973.5" font-family="Helvetica,sans-Serif" font-size="10.00">&#45; context</text>
<text text-anchor="start" x="74.5" y="-962.5" font-family="Helvetica,sans-Serif" font-size="10.00">&#45; androidAudioManager</text>
<text text-anchor="start" x="74.5" y="-951.5" font-family="Helvetica,sans-Serif" font-size="10.00">&#45; defaultMode</text>
<text text-anchor="start" x="74.5" y="-940.5" font-family="Helvetica,sans-Serif" font-size="10.00">&#45; defaultIsSpeakerphone</text>
<text text-anchor="start" x="74.5" y="-929.5" font-family="Helvetica,sans-Serif" font-size="10.00">&#45; voiceMinVol</text>
<text text-anchor="start" x="74.5" y="-918.5" font-family="Helvetica,sans-Serif" font-size="10.00">&#45; mediaMinVol</text>
<text text-anchor="start" x="74.5" y="-907.5" font-family="Helvetica,sans-Serif" font-size="10.00">&#45; voiceMaxVol</text>
<text text-anchor="start" x="74.5" y="-896.5" font-family="Helvetica,sans-Serif" font-size="10.00">&#45; mediaMaxVol</text>
<text text-anchor="start" x="74.5" y="-885.5" font-family="Helvetica,sans-Serif" font-size="10.00">&#45; originalMediaVol</text>
<text text-anchor="start" x="74.5" y="-874.5" font-family="Helvetica,sans-Serif" font-size="10.00">&#45; microphoneCallbacks</text>
<text text-anchor="start" x="74.5" y="-863.5" font-family="Helvetica,sans-Serif" font-size="10.00">&#45; muted</text>
<text text-anchor="start" x="74.5" y="-852.5" font-family="Helvetica,sans-Serif" font-size="10.00">&#45; communicationDevice</text>
<text text-anchor="start" x="74.5" y="-841.5" font-family="Helvetica,sans-Serif" font-size="10.00">&#45; spectrum</text>
<text text-anchor="start" x="74.5" y="-830.5" font-family="Helvetica,sans-Serif" font-size="10.00">&#45; voiceVolume</text>
<text text-anchor="start" x="74.5" y="-819.5" font-family="Helvetica,sans-Serif" font-size="10.00">&#45; lastCallVolume</text>
<polyline fill="none" stroke="black" points="66.5,-812.5 303.5,-812.5 "/>
<text text-anchor="start" x="74.5" y="-800.5" font-family="Helvetica,sans-Serif" font-size="10.00">+ ToggleMuteInput()</text>
<text text-anchor="start" x="74.5" y="-789.5" font-family="Helvetica,sans-Serif" font-size="10.00">+ ToggleMuteOutput()</text>
<text text-anchor="start" x="74.5" y="-778.5" font-family="Helvetica,sans-Serif" font-size="10.00">+ RecordAudio()</text>
<text text-anchor="start" x="74.5" y="-767.5" font-family="Helvetica,sans-Serif" font-size="10.00">+ PlayAudio()</text>
<text text-anchor="start" x="74.5" y="-756.5" font-family="Helvetica,sans-Serif" font-size="10.00">+ GetVolume()</text>
<text text-anchor="start" x="74.5" y="-745.5" font-family="Helvetica,sans-Serif" font-size="10.00">&#45; Awake()</text>
<text text-anchor="start" x="74.5" y="-734.5" font-family="Helvetica,sans-Serif" font-size="10.00">&#45; Start()</text>
<text text-anchor="start" x="74.5" y="-723.5" font-family="Helvetica,sans-Serif" font-size="10.00">&#45; Update()</text>
<text text-anchor="start" x="74.5" y="-712.5" font-family="Helvetica,sans-Serif" font-size="10.00">&#45; SetVideocallAudio()</text>
<text text-anchor="start" x="74.5" y="-701.5" font-family="Helvetica,sans-Serif" font-size="10.00">&#45; scaleValueToRange()</text>
<text text-anchor="start" x="74.5" y="-690.5" font-family="Helvetica,sans-Serif" font-size="10.00">&#45; MicrophonePermissionGranted()</text>
<text text-anchor="start" x="74.5" y="-679.5" font-family="Helvetica,sans-Serif" font-size="10.00">&#45; MicrophonePermissionDenied()</text>
<text text-anchor="start" x="74.5" y="-668.5" font-family="Helvetica,sans-Serif" font-size="10.00">&#45; MicrophonePermissionDeniedAndDontAskAgain()</text>
<text text-anchor="start" x="74.5" y="-657.5" font-family="Helvetica,sans-Serif" font-size="10.00">&#45; OnDestroy()</text>
</a>
</g>
</g>
<!-- Node2&#45;&gt;Node3 -->
<g id="edge3" class="edge">
<title>Node2&#45;&gt;Node3</title>
<path fill="none" stroke="midnightblue" d="M332.36,-1712.15C313.87,-1606.82 260.76,-1304.19 223.63,-1092.64"/>
<polygon fill="none" stroke="midnightblue" points="328.96,-1713.04 334.14,-1722.29 335.86,-1711.83 328.96,-1713.04"/>
</g>
<!-- Node4 -->
<g id="node4" class="node">
<title>Node4</title>
<g id="a_node4"><a xlink:href="class_video_manager.html" target="_top" xlink:title="Maneja la lógica de la grabación y visualización de video">
<polygon fill="white" stroke="black" points="602.5,-1385.5 602.5,-1684.5 719.5,-1684.5 719.5,-1385.5 602.5,-1385.5"/>
<text text-anchor="middle" x="661" y="-1672.5" font-family="Helvetica,sans-Serif" font-size="10.00">VideoManager</text>
<polyline fill="none" stroke="black" points="602.5,-1665.5 719.5,-1665.5 "/>
<text text-anchor="start" x="610.5" y="-1653.5" font-family="Helvetica,sans-Serif" font-size="10.00">+ width</text>
<text text-anchor="start" x="610.5" y="-1642.5" font-family="Helvetica,sans-Serif" font-size="10.00">+ height</text>
<text text-anchor="start" x="610.5" y="-1631.5" font-family="Helvetica,sans-Serif" font-size="10.00">+ aspectRatio</text>
<text text-anchor="start" x="610.5" y="-1620.5" font-family="Helvetica,sans-Serif" font-size="10.00">+ bitrate</text>
<text text-anchor="start" x="610.5" y="-1609.5" font-family="Helvetica,sans-Serif" font-size="10.00">+ framerate</text>
<text text-anchor="start" x="610.5" y="-1598.5" font-family="Helvetica,sans-Serif" font-size="10.00">+ isRecording</text>
<text text-anchor="start" x="610.5" y="-1587.5" font-family="Helvetica,sans-Serif" font-size="10.00">+ videoRawImage</text>
<text text-anchor="start" x="610.5" y="-1576.5" font-family="Helvetica,sans-Serif" font-size="10.00">+ videoStreamTrack</text>
<text text-anchor="start" x="610.5" y="-1565.5" font-family="Helvetica,sans-Serif" font-size="10.00">+ videoDisabled</text>
<text text-anchor="start" x="610.5" y="-1554.5" font-family="Helvetica,sans-Serif" font-size="10.00">+ mainCam</text>
<text text-anchor="start" x="610.5" y="-1543.5" font-family="Helvetica,sans-Serif" font-size="10.00">+ arSession</text>
<text text-anchor="start" x="610.5" y="-1532.5" font-family="Helvetica,sans-Serif" font-size="10.00">&#45; arCam</text>
<text text-anchor="start" x="610.5" y="-1521.5" font-family="Helvetica,sans-Serif" font-size="10.00">&#45; webCam</text>
<text text-anchor="start" x="610.5" y="-1510.5" font-family="Helvetica,sans-Serif" font-size="10.00">&#45; webCamRawImage</text>
<text text-anchor="start" x="610.5" y="-1499.5" font-family="Helvetica,sans-Serif" font-size="10.00">&#45; webcamTexture</text>
<text text-anchor="start" x="610.5" y="-1488.5" font-family="Helvetica,sans-Serif" font-size="10.00">&#45; noVideoAR</text>
<text text-anchor="start" x="610.5" y="-1477.5" font-family="Helvetica,sans-Serif" font-size="10.00">&#45; noVideoUI</text>
<text text-anchor="start" x="610.5" y="-1466.5" font-family="Helvetica,sans-Serif" font-size="10.00">&#45; arToolTipsUI</text>
<polyline fill="none" stroke="black" points="602.5,-1459.5 719.5,-1459.5 "/>
<text text-anchor="start" x="610.5" y="-1447.5" font-family="Helvetica,sans-Serif" font-size="10.00">+ RecordCamera()</text>
<text text-anchor="start" x="610.5" y="-1436.5" font-family="Helvetica,sans-Serif" font-size="10.00">+ ShowVideo()</text>
<text text-anchor="start" x="610.5" y="-1425.5" font-family="Helvetica,sans-Serif" font-size="10.00">+ ToggleVideo()</text>
<text text-anchor="start" x="610.5" y="-1414.5" font-family="Helvetica,sans-Serif" font-size="10.00">&#45; Awake()</text>
<text text-anchor="start" x="610.5" y="-1403.5" font-family="Helvetica,sans-Serif" font-size="10.00">&#45; Start()</text>
<text text-anchor="start" x="610.5" y="-1392.5" font-family="Helvetica,sans-Serif" font-size="10.00">&#45; OnApplicationPause()</text>
</a>
</g>
</g>
<!-- Node2&#45;&gt;Node4 -->
<g id="edge5" class="edge">
<title>Node2&#45;&gt;Node4</title>
<path fill="none" stroke="midnightblue" d="M390.78,-1748.66C434.87,-1745.25 498.17,-1734.79 544,-1704 566.57,-1688.84 586.1,-1667.73 602.39,-1645.59"/>
<polygon fill="none" stroke="midnightblue" points="390.3,-1745.18 380.56,-1749.35 390.78,-1752.17 390.3,-1745.18"/>
</g>
<!-- Node5 -->
<g id="node5" class="node">
<title>Node5</title>
<g id="a_node5"><a xlink:href="class_peer_connection_manager.html" target="_top" xlink:title="Maneja la lógica de una conexión entre dos pares">
<polygon fill="white" stroke="black" points="270,-215.5 270,-602.5 428,-602.5 428,-215.5 270,-215.5"/>
<text text-anchor="middle" x="349" y="-590.5" font-family="Helvetica,sans-Serif" font-size="10.00">PeerConnectionManager</text>
<polyline fill="none" stroke="black" points="270,-583.5 428,-583.5 "/>
<text text-anchor="start" x="278" y="-571.5" font-family="Helvetica,sans-Serif" font-size="10.00">+ myPeerType</text>
<text text-anchor="start" x="278" y="-560.5" font-family="Helvetica,sans-Serif" font-size="10.00">&#45; clientInputDataChannel</text>
<text text-anchor="start" x="278" y="-549.5" font-family="Helvetica,sans-Serif" font-size="10.00">&#45; aspectRatioDataChannel</text>
<text text-anchor="start" x="278" y="-538.5" font-family="Helvetica,sans-Serif" font-size="10.00">&#45; clientActionDataChannel</text>
<text text-anchor="start" x="278" y="-527.5" font-family="Helvetica,sans-Serif" font-size="10.00">&#45; RTCconfig</text>
<text text-anchor="start" x="278" y="-516.5" font-family="Helvetica,sans-Serif" font-size="10.00">&#45; pc</text>
<text text-anchor="start" x="278" y="-505.5" font-family="Helvetica,sans-Serif" font-size="10.00">&#45; videoSender</text>
<text text-anchor="start" x="278" y="-494.5" font-family="Helvetica,sans-Serif" font-size="10.00">&#45; mediaStream</text>
<text text-anchor="start" x="278" y="-483.5" font-family="Helvetica,sans-Serif" font-size="10.00">&#45; audioSender</text>
<polyline fill="none" stroke="black" points="270,-476.5 428,-476.5 "/>
<text text-anchor="start" x="278" y="-464.5" font-family="Helvetica,sans-Serif" font-size="10.00">+ HangUp()</text>
<text text-anchor="start" x="278" y="-453.5" font-family="Helvetica,sans-Serif" font-size="10.00">&#45; Awake()</text>
<text text-anchor="start" x="278" y="-442.5" font-family="Helvetica,sans-Serif" font-size="10.00">&#45; OnClientReadyDelegate()</text>
<text text-anchor="start" x="278" y="-431.5" font-family="Helvetica,sans-Serif" font-size="10.00">&#45; OnMessageReceivedDelegate()</text>
<text text-anchor="start" x="278" y="-420.5" font-family="Helvetica,sans-Serif" font-size="10.00">&#45; Update()</text>
<text text-anchor="start" x="278" y="-409.5" font-family="Helvetica,sans-Serif" font-size="10.00">&#45; EnableAudioStream()</text>
<text text-anchor="start" x="278" y="-398.5" font-family="Helvetica,sans-Serif" font-size="10.00">&#45; Start()</text>
<text text-anchor="start" x="278" y="-387.5" font-family="Helvetica,sans-Serif" font-size="10.00">&#45; SetVideoParameters()</text>
<text text-anchor="start" x="278" y="-376.5" font-family="Helvetica,sans-Serif" font-size="10.00">&#45; SetAudioParameters()</text>
<text text-anchor="start" x="278" y="-365.5" font-family="Helvetica,sans-Serif" font-size="10.00">&#45; AddTracks()</text>
<text text-anchor="start" x="278" y="-354.5" font-family="Helvetica,sans-Serif" font-size="10.00">&#45; AddDataChannels()</text>
<text text-anchor="start" x="278" y="-343.5" font-family="Helvetica,sans-Serif" font-size="10.00">&#45; Call()</text>
<text text-anchor="start" x="278" y="-332.5" font-family="Helvetica,sans-Serif" font-size="10.00">&#45; OnSceneUnloaded&lt; Scene &gt;()</text>
<text text-anchor="start" x="278" y="-321.5" font-family="Helvetica,sans-Serif" font-size="10.00">&#45; OnApplicationPause()</text>
<text text-anchor="start" x="278" y="-310.5" font-family="Helvetica,sans-Serif" font-size="10.00">&#45; OnApplicationFocus()</text>
<text text-anchor="start" x="278" y="-299.5" font-family="Helvetica,sans-Serif" font-size="10.00">&#45; OnDestroy()</text>
<text text-anchor="start" x="278" y="-288.5" font-family="Helvetica,sans-Serif" font-size="10.00">&#45; OnDisconnect()</text>
<text text-anchor="start" x="278" y="-277.5" font-family="Helvetica,sans-Serif" font-size="10.00">&#45; ReadMessageDB()</text>
<text text-anchor="start" x="278" y="-266.5" font-family="Helvetica,sans-Serif" font-size="10.00">&#45; UnReadyUser()</text>
<text text-anchor="start" x="278" y="-255.5" font-family="Helvetica,sans-Serif" font-size="10.00">&#45; ReadyUser()</text>
<text text-anchor="start" x="278" y="-244.5" font-family="Helvetica,sans-Serif" font-size="10.00">&#45; InitIceCandidate()</text>
<text text-anchor="start" x="278" y="-233.5" font-family="Helvetica,sans-Serif" font-size="10.00">&#45; ImHost()</text>
<text text-anchor="start" x="278" y="-222.5" font-family="Helvetica,sans-Serif" font-size="10.00">&#45; ServersConfig()</text>
</a>
</g>
</g>
<!-- Node2&#45;&gt;Node5 -->
<g id="edge7" class="edge">
<title>Node2&#45;&gt;Node5</title>
<path fill="none" stroke="midnightblue" d="M298.07,-1715.32C288.94,-1706.15 279.93,-1695.78 273,-1685 121.52,-1449.42 105.74,-1368.8 57,-1093 39.87,-996.06 -4.46,-726.9 57,-650 116.17,-575.97 191.98,-663.42 265,-603 266.69,-601.6 268.35,-600.16 269.97,-598.69"/>
<polygon fill="none" stroke="midnightblue" points="295.76,-1717.95 305.38,-1722.39 300.63,-1712.92 295.76,-1717.95"/>
</g>
<!-- Node6 -->
<g id="node6" class="node">
<title>Node6</title>
<g id="a_node6"><a xlink:href="class_my_input_manager.html" target="_top" xlink:title=" ">
<polygon fill="white" stroke="black" points="531,-766 531,-977 647,-977 647,-766 531,-766"/>
<text text-anchor="middle" x="589" y="-965" font-family="Helvetica,sans-Serif" font-size="10.00">MyInputManager</text>
<polyline fill="none" stroke="black" points="531,-958 647,-958 "/>
<text text-anchor="start" x="539" y="-946" font-family="Helvetica,sans-Serif" font-size="10.00">+ myPeerType</text>
<text text-anchor="start" x="539" y="-935" font-family="Helvetica,sans-Serif" font-size="10.00">+ recording</text>
<text text-anchor="start" x="539" y="-924" font-family="Helvetica,sans-Serif" font-size="10.00">+ hostPosition</text>
<text text-anchor="start" x="539" y="-913" font-family="Helvetica,sans-Serif" font-size="10.00">+ clientPosition</text>
<text text-anchor="start" x="539" y="-902" font-family="Helvetica,sans-Serif" font-size="10.00">+ clientKeyboard</text>
<text text-anchor="start" x="539" y="-891" font-family="Helvetica,sans-Serif" font-size="10.00">&#45; scaledPixelRatioX</text>
<text text-anchor="start" x="539" y="-880" font-family="Helvetica,sans-Serif" font-size="10.00">&#45; scaledPixelRatioY</text>
<text text-anchor="start" x="539" y="-869" font-family="Helvetica,sans-Serif" font-size="10.00">&#45; clientAspectRatio</text>
<text text-anchor="start" x="539" y="-858" font-family="Helvetica,sans-Serif" font-size="10.00">&#45; croppedScreenWidth</text>
<text text-anchor="start" x="539" y="-847" font-family="Helvetica,sans-Serif" font-size="10.00">&#45; croppedScreenHeight</text>
<text text-anchor="start" x="539" y="-836" font-family="Helvetica,sans-Serif" font-size="10.00">&#45; offsetX</text>
<text text-anchor="start" x="539" y="-825" font-family="Helvetica,sans-Serif" font-size="10.00">&#45; offsetY</text>
<polyline fill="none" stroke="black" points="531,-818 647,-818 "/>
<text text-anchor="start" x="539" y="-806" font-family="Helvetica,sans-Serif" font-size="10.00">+ IsHeldDown()</text>
<text text-anchor="start" x="539" y="-795" font-family="Helvetica,sans-Serif" font-size="10.00">&#45; Awake()</text>
<text text-anchor="start" x="539" y="-784" font-family="Helvetica,sans-Serif" font-size="10.00">&#45; Start()</text>
<text text-anchor="start" x="539" y="-773" font-family="Helvetica,sans-Serif" font-size="10.00">&#45; Update()</text>
</a>
</g>
</g>
<!-- Node2&#45;&gt;Node6 -->
<g id="edge9" class="edge">
<title>Node2&#45;&gt;Node6</title>
<path fill="none" stroke="midnightblue" d="M379.03,-1715.38C387.86,-1706.21 396.51,-1695.83 403,-1685 539.18,-1457.67 575.71,-1139.82 585.47,-977.27"/>
<polygon fill="none" stroke="midnightblue" points="376.54,-1712.92 371.93,-1722.46 381.48,-1717.87 376.54,-1712.92"/>
</g>
<!-- Node7 -->
<g id="node7" class="node">
<title>Node7</title>
<g id="a_node7"><a xlink:href="class_client_manager.html" target="_top" xlink:title="Maneja la lógica las acciones del cliente">
<polygon fill="white" stroke="black" points="289.5,-1194 289.5,-1284 388.5,-1284 388.5,-1194 289.5,-1194"/>
<text text-anchor="middle" x="339" y="-1272" font-family="Helvetica,sans-Serif" font-size="10.00">ClientManager</text>
<polyline fill="none" stroke="black" points="289.5,-1265 388.5,-1265 "/>
<text text-anchor="middle" x="339" y="-1253" font-family="Helvetica,sans-Serif" font-size="10.00"> </text>
<polyline fill="none" stroke="black" points="289.5,-1246 388.5,-1246 "/>
<text text-anchor="start" x="297.5" y="-1234" font-family="Helvetica,sans-Serif" font-size="10.00">+ SelectTool()</text>
<text text-anchor="start" x="297.5" y="-1223" font-family="Helvetica,sans-Serif" font-size="10.00">+ UndoDrawing()</text>
<text text-anchor="start" x="297.5" y="-1212" font-family="Helvetica,sans-Serif" font-size="10.00">+ DeleteDrawings()</text>
<text text-anchor="start" x="297.5" y="-1201" font-family="Helvetica,sans-Serif" font-size="10.00">+ SelectColor()</text>
</a>
</g>
</g>
<!-- Node2&#45;&gt;Node7 -->
<g id="edge14" class="edge">
<title>Node2&#45;&gt;Node7</title>
<path fill="none" stroke="midnightblue" d="M339,-1712.19C339,-1619.77 339,-1382.75 339,-1284.11"/>
<polygon fill="none" stroke="midnightblue" points="335.5,-1712.22 339,-1722.22 342.5,-1712.22 335.5,-1712.22"/>
</g>
<!-- Node8 -->
<g id="node8" class="node">
<title>Node8</title>
<g id="a_node8"><a xlink:href="class_a_r_tool_manager.html" target="_top" xlink:title="Maneja la lógica de las herramientas de RA">
<polygon fill="white" stroke="black" points="393.5,-1111.5 393.5,-1366.5 492.5,-1366.5 492.5,-1111.5 393.5,-1111.5"/>
<text text-anchor="middle" x="443" y="-1354.5" font-family="Helvetica,sans-Serif" font-size="10.00">ARToolManager</text>
<polyline fill="none" stroke="black" points="393.5,-1347.5 492.5,-1347.5 "/>
<text text-anchor="start" x="401.5" y="-1335.5" font-family="Helvetica,sans-Serif" font-size="10.00">+ recording</text>
<text text-anchor="start" x="401.5" y="-1324.5" font-family="Helvetica,sans-Serif" font-size="10.00">+ hostMaterial</text>
<text text-anchor="start" x="401.5" y="-1313.5" font-family="Helvetica,sans-Serif" font-size="10.00">+ clientMaterial</text>
<text text-anchor="start" x="401.5" y="-1302.5" font-family="Helvetica,sans-Serif" font-size="10.00">+ ColorRed</text>
<text text-anchor="start" x="401.5" y="-1291.5" font-family="Helvetica,sans-Serif" font-size="10.00">+ ColorBlue</text>
<text text-anchor="start" x="401.5" y="-1280.5" font-family="Helvetica,sans-Serif" font-size="10.00">+ ColorGreen</text>
<text text-anchor="start" x="401.5" y="-1269.5" font-family="Helvetica,sans-Serif" font-size="10.00">+ ColorYellow</text>
<text text-anchor="start" x="401.5" y="-1258.5" font-family="Helvetica,sans-Serif" font-size="10.00">+ guidePrefab</text>
<text text-anchor="start" x="401.5" y="-1247.5" font-family="Helvetica,sans-Serif" font-size="10.00">+ hostDrawings</text>
<text text-anchor="start" x="401.5" y="-1236.5" font-family="Helvetica,sans-Serif" font-size="10.00">+ clientDrawings</text>
<text text-anchor="start" x="401.5" y="-1225.5" font-family="Helvetica,sans-Serif" font-size="10.00">+ hostGuides</text>
<text text-anchor="start" x="401.5" y="-1214.5" font-family="Helvetica,sans-Serif" font-size="10.00">+ clientGuides</text>
<text text-anchor="start" x="401.5" y="-1203.5" font-family="Helvetica,sans-Serif" font-size="10.00">&#45; hostTools</text>
<text text-anchor="start" x="401.5" y="-1192.5" font-family="Helvetica,sans-Serif" font-size="10.00">&#45; clientTools</text>
<polyline fill="none" stroke="black" points="393.5,-1185.5 492.5,-1185.5 "/>
<text text-anchor="start" x="401.5" y="-1173.5" font-family="Helvetica,sans-Serif" font-size="10.00">+ SelectTool()</text>
<text text-anchor="start" x="401.5" y="-1162.5" font-family="Helvetica,sans-Serif" font-size="10.00">+ UndoDrawing()</text>
<text text-anchor="start" x="401.5" y="-1151.5" font-family="Helvetica,sans-Serif" font-size="10.00">+ DeleteDrawings()</text>
<text text-anchor="start" x="401.5" y="-1140.5" font-family="Helvetica,sans-Serif" font-size="10.00">+ SelectColor()</text>
<text text-anchor="start" x="401.5" y="-1129.5" font-family="Helvetica,sans-Serif" font-size="10.00">+ PlaceGuide()</text>
<text text-anchor="start" x="401.5" y="-1118.5" font-family="Helvetica,sans-Serif" font-size="10.00">&#45; Awake()</text>
</a>
</g>
</g>
<!-- Node2&#45;&gt;Node8 -->
<g id="edge16" class="edge">
<title>Node2&#45;&gt;Node8</title>
<path fill="none" stroke="midnightblue" d="M350.73,-1712.61C351.54,-1709.7 352.3,-1706.81 353,-1704 381.09,-1590.92 405.71,-1460.52 422.07,-1366.82"/>
<polygon fill="none" stroke="midnightblue" points="347.32,-1711.82 347.91,-1722.4 354.04,-1713.76 347.32,-1711.82"/>
</g>
<!-- Node3&#45;&gt;Node1 -->
<g id="edge2" class="edge">
<title>Node3&#45;&gt;Node1</title>
<path fill="none" stroke="#404040" d="M172.5,-650.31C169.1,-522.46 171.37,-358.77 194,-215 195.83,-203.37 198.47,-191.33 201.52,-179.49"/>
<polygon fill="none" stroke="#404040" points="201.57,-179.32 199.28,-172.49 204.71,-167.74 207,-174.58 201.57,-179.32"/>
<text text-anchor="middle" x="227.5" y="-406.5" font-family="Helvetica,sans-Serif" font-size="10.00"> &#45;audioManager</text>
</g>
<!-- Node3&#45;&gt;Node5 -->
<g id="edge12" class="edge">
<title>Node3&#45;&gt;Node5</title>
<path fill="none" stroke="#404040" d="M248.79,-650.31C252.14,-640.37 255.55,-630.56 259,-621 261.12,-615.12 263.31,-609.17 265.57,-603.18"/>
<polygon fill="none" stroke="#404040" points="265.71,-602.82 264.11,-595.79 269.98,-591.61 271.58,-598.64 265.71,-602.82"/>
<text text-anchor="middle" x="292.5" y="-624" font-family="Helvetica,sans-Serif" font-size="10.00"> &#45;audioManager</text>
</g>
<!-- Node4&#45;&gt;Node1 -->
<g id="edge4" class="edge">
<title>Node4&#45;&gt;Node1</title>
<path fill="none" stroke="#404040" d="M716.16,-1385.31C774,-1206.33 845.88,-898.81 763,-650 686.64,-420.78 614,-379.44 437,-215 393.99,-175.04 337.15,-139.84 294.57,-116.18"/>
<polygon fill="none" stroke="#404040" points="294.31,-116.03 287.12,-116.66 283.79,-110.26 290.97,-109.64 294.31,-116.03"/>
<text text-anchor="middle" x="788" y="-624" font-family="Helvetica,sans-Serif" font-size="10.00"> &#45;videoManager</text>
</g>
<!-- Node4&#45;&gt;Node5 -->
<g id="edge11" class="edge">
<title>Node4&#45;&gt;Node5</title>
<path fill="none" stroke="#404040" d="M675.85,-1385.46C695,-1167.79 718.88,-774.49 656,-650 610.07,-559.06 511.94,-492.06 438.92,-452.31"/>
<polygon fill="none" stroke="#404040" points="438.91,-452.3 431.74,-453 428.34,-446.64 435.51,-445.95 438.91,-452.3"/>
<text text-anchor="middle" x="729" y="-869" font-family="Helvetica,sans-Serif" font-size="10.00"> &#45;videoManager</text>
</g>
<!-- Node4&#45;&gt;Node6 -->
<g id="edge10" class="edge">
<title>Node4&#45;&gt;Node6</title>
<path fill="none" stroke="#404040" d="M606.83,-1385.29C605.39,-1379.15 604.11,-1373.04 603,-1367 579.6,-1239.35 578.95,-1090.1 582.34,-989.23"/>
<polygon fill="none" stroke="#404040" points="582.34,-989.17 578.56,-983.03 582.77,-977.18 586.56,-983.31 582.34,-989.17"/>
<text text-anchor="middle" x="636" y="-1236.5" font-family="Helvetica,sans-Serif" font-size="10.00"> &#45;videoManager</text>
</g>
<!-- Node5&#45;&gt;Node1 -->
<g id="edge6" class="edge">
<title>Node5&#45;&gt;Node1</title>
<path fill="none" stroke="#404040" d="M280.44,-215.45C276.01,-202.98 271.66,-190.78 267.52,-179.14"/>
<polygon fill="none" stroke="#404040" points="267.47,-179.01 261.69,-174.69 263.44,-167.7 269.23,-172.01 267.47,-179.01"/>
<text text-anchor="middle" x="309" y="-189" font-family="Helvetica,sans-Serif" font-size="10.00"> &#45;peerConnection</text>
</g>
<!-- Node6&#45;&gt;Node5 -->
<g id="edge8" class="edge">
<title>Node6&#45;&gt;Node5</title>
<path fill="none" stroke="#404040" d="M561.76,-765.9C550.21,-728.39 535.17,-686.39 517,-650 494.43,-604.8 464.08,-558.55 435.39,-518.86"/>
<polygon fill="none" stroke="#404040" points="435.21,-518.61 428.44,-516.12 428.13,-508.91 434.9,-511.4 435.21,-518.61"/>
<text text-anchor="middle" x="538.5" y="-624" font-family="Helvetica,sans-Serif" font-size="10.00"> &#45;inputManager</text>
</g>
<!-- Node7&#45;&gt;Node5 -->
<g id="edge13" class="edge">
<title>Node7&#45;&gt;Node5</title>
<path fill="none" stroke="#404040" d="M339.53,-1193.78C340.82,-1086.93 344.18,-809.23 346.53,-614.9"/>
<polygon fill="none" stroke="#404040" points="346.53,-614.8 342.6,-608.75 346.67,-602.8 350.6,-608.85 346.53,-614.8"/>
<text text-anchor="middle" x="380.5" y="-869" font-family="Helvetica,sans-Serif" font-size="10.00"> &#45;clientManager</text>
</g>
<!-- Node8&#45;&gt;Node5 -->
<g id="edge15" class="edge">
<title>Node8&#45;&gt;Node5</title>
<path fill="none" stroke="#404040" d="M446.25,-1111.24C447.28,-991.55 443.61,-807.45 418,-650 416.11,-638.37 413.84,-626.5 411.3,-614.57"/>
<polygon fill="none" stroke="#404040" points="411.25,-614.35 406.05,-609.36 408.66,-602.64 413.86,-607.63 411.25,-614.35"/>
<text text-anchor="middle" x="482" y="-869" font-family="Helvetica,sans-Serif" font-size="10.00"> &#45;arToolManager</text>
</g>
</g>
</svg>
