<?xml version="1.0" encoding="UTF-8" standalone="no"?>
<!DOCTYPE svg PUBLIC "-//W3C//DTD SVG 1.1//EN"
 "http://www.w3.org/Graphics/SVG/1.1/DTD/svg11.dtd">
<!-- Generated by graphviz version 2.49.0 (20210828.1703)
 -->
<!-- Title: ClientManager.SelectColor Pages: 1 -->
<svg width="514pt" height="28pt"
 viewBox="0.00 0.00 514.00 28.00" xmlns="http://www.w3.org/2000/svg" xmlns:xlink="http://www.w3.org/1999/xlink">
<g id="graph0" class="graph" transform="scale(1 1) rotate(0) translate(4 24)">
<title>ClientManager.SelectColor</title>
<polygon fill="white" stroke="transparent" points="-4,4 -4,-24 510,-24 510,4 -4,4"/>
<!-- Node1 -->
<g id="node1" class="node">
<title>Node1</title>
<g id="a_node1"><a xlink:title="Selecciona un color">
<polygon fill="#bfbfbf" stroke="black" points="374,-0.5 374,-19.5 506,-19.5 506,-0.5 374,-0.5"/>
<text text-anchor="middle" x="440" y="-7.5" font-family="Helvetica,sans-Serif" font-size="10.00">ClientManager.SelectColor</text>
</a>
</g>
</g>
<!-- Node2 -->
<g id="node2" class="node">
<title>Node2</title>
<g id="a_node2"><a xlink:href="class_toolbar_u_i_controller.html#a3ceadb76355e7695d534a76d7ec700de" target="_top" xlink:title="Intercambia el elemento actualmente seleccionado de una barra (herramienta o color) por el elemento q...">
<polygon fill="white" stroke="black" points="158,-0.5 158,-19.5 338,-19.5 338,-0.5 158,-0.5"/>
<text text-anchor="middle" x="248" y="-7.5" font-family="Helvetica,sans-Serif" font-size="10.00">ToolbarUIController.SelectBarElement</text>
</a>
</g>
</g>
<!-- Node1&#45;&gt;Node2 -->
<g id="edge1" class="edge">
<title>Node1&#45;&gt;Node2</title>
<path fill="none" stroke="midnightblue" d="M363.77,-10C355.37,-10 346.77,-10 338.22,-10"/>
<polygon fill="midnightblue" stroke="midnightblue" points="363.88,-13.5 373.88,-10 363.88,-6.5 363.88,-13.5"/>
</g>
<!-- Node3 -->
<g id="node3" class="node">
<title>Node3</title>
<g id="a_node3"><a xlink:href="class_toolbar_u_i_controller.html#a7c36bd2332e575e710320a80023b93de" target="_top" xlink:title="Llamada justo antes del primer fotograma">
<polygon fill="white" stroke="black" points="0,-0.5 0,-19.5 122,-19.5 122,-0.5 0,-0.5"/>
<text text-anchor="middle" x="61" y="-7.5" font-family="Helvetica,sans-Serif" font-size="10.00">ToolbarUIController.Start</text>
</a>
</g>
</g>
<!-- Node2&#45;&gt;Node3 -->
<g id="edge2" class="edge">
<title>Node2&#45;&gt;Node3</title>
<path fill="none" stroke="midnightblue" d="M147.54,-10C138.86,-10 130.26,-10 122.05,-10"/>
<polygon fill="midnightblue" stroke="midnightblue" points="147.75,-13.5 157.75,-10 147.75,-6.5 147.75,-13.5"/>
</g>
</g>
</svg>
