<?xml version="1.0" encoding="UTF-8" standalone="no"?>
<!DOCTYPE svg PUBLIC "-//W3C//DTD SVG 1.1//EN"
 "http://www.w3.org/Graphics/SVG/1.1/DTD/svg11.dtd">
<!-- Generated by graphviz version 2.49.0 (20210828.1703)
 -->
<!-- Title: OneSignalInit.Start Pages: 1 -->
<svg width="973pt" height="104pt"
 viewBox="0.00 0.00 973.00 104.00" xmlns="http://www.w3.org/2000/svg" xmlns:xlink="http://www.w3.org/1999/xlink">
<g id="graph0" class="graph" transform="scale(1 1) rotate(0) translate(4 100)">
<title>OneSignalInit.Start</title>
<polygon fill="white" stroke="transparent" points="-4,4 -4,-100 969,-100 969,4 -4,4"/>
<!-- Node1 -->
<g id="node1" class="node">
<title>Node1</title>
<g id="a_node1"><a xlink:title="Llamada justo antes del primer fotograma">
<polygon fill="#bfbfbf" stroke="black" points="0,-19.5 0,-38.5 98,-38.5 98,-19.5 0,-19.5"/>
<text text-anchor="middle" x="49" y="-26.5" font-family="Helvetica,sans-Serif" font-size="10.00">OneSignalInit.Start</text>
</a>
</g>
</g>
<!-- Node2 -->
<g id="node2" class="node">
<title>Node2</title>
<g id="a_node2"><a xlink:href="class_one_signal_init.html#a60c9495cb3e70bfdef56251b55c09420" target="_top" xlink:title="Llamada cuando un usuario abre una notificación">
<polygon fill="white" stroke="black" points="158,-38.5 158,-57.5 392,-57.5 392,-38.5 158,-38.5"/>
<text text-anchor="middle" x="275" y="-45.5" font-family="Helvetica,sans-Serif" font-size="10.00">OneSignalInit.OneSignalHandleNotificationOpened</text>
</a>
</g>
</g>
<!-- Node1&#45;&gt;Node2 -->
<g id="edge1" class="edge">
<title>Node1&#45;&gt;Node2</title>
<path fill="none" stroke="midnightblue" d="M98.05,-33.08C113.96,-34.43 132.46,-35.99 151.37,-37.6"/>
<polygon fill="midnightblue" stroke="midnightblue" points="151.33,-41.11 161.59,-38.46 151.92,-34.13 151.33,-41.11"/>
</g>
<!-- Node8 -->
<g id="node8" class="node">
<title>Node8</title>
<g id="a_node8"><a xlink:href="class_one_signal_init.html#ace4d60c5a6090cc438a9f75be65bb8bd" target="_top" xlink:title=" ">
<polygon fill="white" stroke="black" points="134,-0.5 134,-19.5 416,-19.5 416,-0.5 134,-0.5"/>
<text text-anchor="middle" x="275" y="-7.5" font-family="Helvetica,sans-Serif" font-size="10.00">OneSignalInit.OneSignalPromptForPushNotificationsReponse</text>
</a>
</g>
</g>
<!-- Node1&#45;&gt;Node8 -->
<g id="edge8" class="edge">
<title>Node1&#45;&gt;Node8</title>
<path fill="none" stroke="midnightblue" d="M98.05,-24.92C113.96,-23.57 132.46,-22.01 151.37,-20.4"/>
<polygon fill="midnightblue" stroke="midnightblue" points="151.92,-23.87 161.59,-19.54 151.33,-16.89 151.92,-23.87"/>
</g>
<!-- Node3 -->
<g id="node3" class="node">
<title>Node3</title>
<g id="a_node3"><a xlink:href="class_one_signal_init.html#afac945779fdf4efc92743adb600c2862" target="_top" xlink:title="Lee notificación y redirige a la videollamada correspondiente">
<polygon fill="white" stroke="black" points="452,-38.5 452,-57.5 607,-57.5 607,-38.5 452,-38.5"/>
<text text-anchor="middle" x="529.5" y="-45.5" font-family="Helvetica,sans-Serif" font-size="10.00">OneSignalInit.HandleNotification</text>
</a>
</g>
</g>
<!-- Node2&#45;&gt;Node3 -->
<g id="edge2" class="edge">
<title>Node2&#45;&gt;Node3</title>
<path fill="none" stroke="midnightblue" d="M392.27,-48C408.84,-48 425.63,-48 441.5,-48"/>
<polygon fill="midnightblue" stroke="midnightblue" points="441.79,-51.5 451.79,-48 441.79,-44.5 441.79,-51.5"/>
</g>
<!-- Node3&#45;&gt;Node3 -->
<g id="edge3" class="edge">
<title>Node3&#45;&gt;Node3</title>
<path fill="none" stroke="midnightblue" d="M502.37,-57.76C489.18,-66.57 498.22,-76 529.5,-76 551.01,-76 562,-71.54 562.48,-65.89"/>
<polygon fill="midnightblue" stroke="midnightblue" points="565.31,-63.83 556.63,-57.76 559.63,-67.92 565.31,-63.83"/>
</g>
<!-- Node4 -->
<g id="node4" class="node">
<title>Node4</title>
<g id="a_node4"><a xlink:href="class_room_manager.html#a022ae9cafc8dedb55ca839e0d99c5b44" target="_top" xlink:title="Mueve un par a una sala">
<polygon fill="white" stroke="black" points="643,-57.5 643,-76.5 768,-76.5 768,-57.5 643,-57.5"/>
<text text-anchor="middle" x="705.5" y="-64.5" font-family="Helvetica,sans-Serif" font-size="10.00">RoomManager.JoinRoom</text>
</a>
</g>
</g>
<!-- Node3&#45;&gt;Node4 -->
<g id="edge4" class="edge">
<title>Node3&#45;&gt;Node4</title>
<path fill="none" stroke="midnightblue" d="M607.07,-56.36C615.56,-57.29 624.19,-58.23 632.62,-59.15"/>
<polygon fill="midnightblue" stroke="midnightblue" points="632.46,-62.65 642.78,-60.26 633.22,-55.7 632.46,-62.65"/>
</g>
<!-- Node7 -->
<g id="node7" class="node">
<title>Node7</title>
<g id="a_node7"><a xlink:href="class_android_utils.html#af3ddee265b4dfc672eddae5699c8fb2b" target="_top" xlink:title=" ">
<polygon fill="white" stroke="black" points="645.5,-19.5 645.5,-38.5 765.5,-38.5 765.5,-19.5 645.5,-19.5"/>
<text text-anchor="middle" x="705.5" y="-26.5" font-family="Helvetica,sans-Serif" font-size="10.00">AndroidUtils.ShowToast</text>
</a>
</g>
</g>
<!-- Node3&#45;&gt;Node7 -->
<g id="edge7" class="edge">
<title>Node3&#45;&gt;Node7</title>
<path fill="none" stroke="midnightblue" d="M607.07,-39.64C616.51,-38.61 626.12,-37.56 635.44,-36.54"/>
<polygon fill="midnightblue" stroke="midnightblue" points="635.86,-40.02 645.42,-35.45 635.1,-33.06 635.86,-40.02"/>
</g>
<!-- Node5 -->
<g id="node5" class="node">
<title>Node5</title>
<g id="a_node5"><a xlink:href="class_my_scene_manager.html#a6787f49b73d5e0c4e80fd67d38f5550a" target="_top" xlink:title="Carga la escena seleccionada">
<polygon fill="white" stroke="black" points="811,-76.5 811,-95.5 958,-95.5 958,-76.5 811,-76.5"/>
<text text-anchor="middle" x="884.5" y="-83.5" font-family="Helvetica,sans-Serif" font-size="10.00">MySceneManager.LoadScene</text>
</a>
</g>
</g>
<!-- Node4&#45;&gt;Node5 -->
<g id="edge5" class="edge">
<title>Node4&#45;&gt;Node5</title>
<path fill="none" stroke="midnightblue" d="M768.41,-73.65C778.86,-74.77 789.87,-75.95 800.75,-77.12"/>
<polygon fill="midnightblue" stroke="midnightblue" points="800.38,-80.6 810.7,-78.19 801.13,-73.64 800.38,-80.6"/>
</g>
<!-- Node6 -->
<g id="node6" class="node">
<title>Node6</title>
<g id="a_node6"><a xlink:href="class_database_manager.html#a26b78f4ef7989b67f825194863df0357" target="_top" xlink:title="Evalua si un código de sala existe en base de datos">
<polygon fill="white" stroke="black" points="804,-38.5 804,-57.5 965,-57.5 965,-38.5 804,-38.5"/>
<text text-anchor="middle" x="884.5" y="-45.5" font-family="Helvetica,sans-Serif" font-size="10.00">DatabaseManager.RoomIDExists</text>
</a>
</g>
</g>
<!-- Node4&#45;&gt;Node6 -->
<g id="edge6" class="edge">
<title>Node4&#45;&gt;Node6</title>
<path fill="none" stroke="midnightblue" d="M768.41,-60.35C776.65,-59.47 785.23,-58.55 793.82,-57.63"/>
<polygon fill="midnightblue" stroke="midnightblue" points="794.33,-61.09 803.9,-56.55 793.58,-54.13 794.33,-61.09"/>
</g>
</g>
</svg>
