<?xml version="1.0" encoding="UTF-8" standalone="no"?>
<!DOCTYPE svg PUBLIC "-//W3C//DTD SVG 1.1//EN"
 "http://www.w3.org/Graphics/SVG/1.1/DTD/svg11.dtd">
<!-- Generated by graphviz version 2.49.0 (20210828.1703)
 -->
<!-- Title: PeerConnectionManager.ReadMessageDB Pages: 1 -->
<svg width="711pt" height="66pt"
 viewBox="0.00 0.00 711.00 66.00" xmlns="http://www.w3.org/2000/svg" xmlns:xlink="http://www.w3.org/1999/xlink">
<g id="graph0" class="graph" transform="scale(1 1) rotate(0) translate(4 62)">
<title>PeerConnectionManager.ReadMessageDB</title>
<polygon fill="white" stroke="transparent" points="-4,4 -4,-62 707,-62 707,4 -4,4"/>
<!-- Node1 -->
<g id="node1" class="node">
<title>Node1</title>
<g id="a_node1"><a xlink:title="Lee un mensaje mediante la base de datos, se invoca cada vez que se envie un mensaje">
<polygon fill="#bfbfbf" stroke="black" points="501,-19.5 501,-38.5 703,-38.5 703,-19.5 501,-19.5"/>
<text text-anchor="middle" x="602" y="-26.5" font-family="Helvetica,sans-Serif" font-size="10.00">PeerConnectionManager.ReadMessageDB</text>
</a>
</g>
</g>
<!-- Node2 -->
<g id="node2" class="node">
<title>Node2</title>
<g id="a_node2"><a xlink:href="class_peer_connection_manager.html#a0a284ceb0c5a0f89563f4c2515b98e2b" target="_top" xlink:title="Llamada cuando se recibe un mensaje de base de datos">
<polygon fill="white" stroke="black" points="209,-19.5 209,-38.5 465,-38.5 465,-19.5 209,-19.5"/>
<text text-anchor="middle" x="337" y="-26.5" font-family="Helvetica,sans-Serif" font-size="10.00">PeerConnectionManager.OnMessageReceivedDelegate</text>
</a>
</g>
</g>
<!-- Node1&#45;&gt;Node2 -->
<g id="edge1" class="edge">
<title>Node1&#45;&gt;Node2</title>
<path fill="none" stroke="midnightblue" d="M490.67,-29C482.3,-29 473.8,-29 465.34,-29"/>
<polygon fill="midnightblue" stroke="midnightblue" points="490.82,-32.5 500.82,-29 490.82,-25.5 490.82,-32.5"/>
</g>
<!-- Node3 -->
<g id="node3" class="node">
<title>Node3</title>
<g id="a_node3"><a xlink:href="class_peer_connection_manager.html#a82bd9ac926952fe7f22bef718cca64cb" target="_top" xlink:title="Llamada al crear el GameObject asociado">
<polygon fill="white" stroke="black" points="9,-38.5 9,-57.5 164,-57.5 164,-38.5 9,-38.5"/>
<text text-anchor="middle" x="86.5" y="-45.5" font-family="Helvetica,sans-Serif" font-size="10.00">PeerConnectionManager.Awake</text>
</a>
</g>
</g>
<!-- Node2&#45;&gt;Node3 -->
<g id="edge2" class="edge">
<title>Node2&#45;&gt;Node3</title>
<path fill="none" stroke="midnightblue" d="M201.2,-39.31C188.54,-40.27 176.02,-41.23 164.17,-42.14"/>
<polygon fill="midnightblue" stroke="midnightblue" points="201.68,-42.78 211.39,-38.53 201.15,-35.8 201.68,-42.78"/>
</g>
<!-- Node4 -->
<g id="node4" class="node">
<title>Node4</title>
<g id="a_node4"><a xlink:href="class_peer_connection_manager.html#a267f5ad1bb8760b277d6754418b5a4f1" target="_top" xlink:title="Llamada cuando el GameObject asociado se destruye">
<polygon fill="white" stroke="black" points="0,-0.5 0,-19.5 173,-19.5 173,-0.5 0,-0.5"/>
<text text-anchor="middle" x="86.5" y="-7.5" font-family="Helvetica,sans-Serif" font-size="10.00">PeerConnectionManager.OnDestroy</text>
</a>
</g>
</g>
<!-- Node2&#45;&gt;Node4 -->
<g id="edge3" class="edge">
<title>Node2&#45;&gt;Node4</title>
<path fill="none" stroke="midnightblue" d="M201.37,-18.71C191.79,-17.97 182.28,-17.25 173.09,-16.54"/>
<polygon fill="midnightblue" stroke="midnightblue" points="201.15,-22.2 211.39,-19.47 201.68,-15.22 201.15,-22.2"/>
</g>
</g>
</svg>
