<?xml version="1.0" encoding="UTF-8" standalone="no"?>
<!DOCTYPE svg PUBLIC "-//W3C//DTD SVG 1.1//EN"
 "http://www.w3.org/Graphics/SVG/1.1/DTD/svg11.dtd">
<!-- Generated by graphviz version 2.49.0 (20210828.1703)
 -->
<!-- Title: AndroidUtils.StopRecording Pages: 1 -->
<svg width="718pt" height="66pt"
 viewBox="0.00 0.00 718.00 66.00" xmlns="http://www.w3.org/2000/svg" xmlns:xlink="http://www.w3.org/1999/xlink">
<g id="graph0" class="graph" transform="scale(1 1) rotate(0) translate(4 62)">
<title>AndroidUtils.StopRecording</title>
<polygon fill="white" stroke="transparent" points="-4,4 -4,-62 714,-62 714,4 -4,4"/>
<!-- Node1 -->
<g id="node1" class="node">
<title>Node1</title>
<g id="a_node1"><a xlink:title=" ">
<polygon fill="#bfbfbf" stroke="black" points="574,-19.5 574,-38.5 710,-38.5 710,-19.5 574,-19.5"/>
<text text-anchor="middle" x="642" y="-26.5" font-family="Helvetica,sans-Serif" font-size="10.00">AndroidUtils.StopRecording</text>
</a>
</g>
</g>
<!-- Node2 -->
<g id="node2" class="node">
<title>Node2</title>
<g id="a_node2"><a xlink:href="class_recorder_manager.html#a41f98e5ff08f958dce6d9d957682a7aa" target="_top" xlink:title="Para la grabación">
<polygon fill="white" stroke="black" points="378,-19.5 378,-38.5 538,-38.5 538,-19.5 378,-19.5"/>
<text text-anchor="middle" x="458" y="-26.5" font-family="Helvetica,sans-Serif" font-size="10.00">RecorderManager.StopRecording</text>
</a>
</g>
</g>
<!-- Node1&#45;&gt;Node2 -->
<g id="edge1" class="edge">
<title>Node1&#45;&gt;Node2</title>
<path fill="none" stroke="midnightblue" d="M563.62,-29C555.24,-29 546.69,-29 538.29,-29"/>
<polygon fill="midnightblue" stroke="midnightblue" points="563.75,-32.5 573.75,-29 563.75,-25.5 563.75,-32.5"/>
</g>
<!-- Node3 -->
<g id="node3" class="node">
<title>Node3</title>
<g id="a_node3"><a xlink:href="class_recorder_manager.html#abd82dbc73dd3952cfdf7634936a3e01e" target="_top" xlink:title="Llamada cuando el foco de la aplicación cambia">
<polygon fill="white" stroke="black" points="158,-38.5 158,-57.5 342,-57.5 342,-38.5 158,-38.5"/>
<text text-anchor="middle" x="250" y="-45.5" font-family="Helvetica,sans-Serif" font-size="10.00">RecorderManager.OnApplicationFocus</text>
</a>
</g>
</g>
<!-- Node2&#45;&gt;Node3 -->
<g id="edge2" class="edge">
<title>Node2&#45;&gt;Node3</title>
<path fill="none" stroke="midnightblue" d="M367.72,-37.23C359.27,-38.01 350.69,-38.81 342.23,-39.59"/>
<polygon fill="midnightblue" stroke="midnightblue" points="368.31,-40.7 377.94,-36.29 367.66,-33.72 368.31,-40.7"/>
</g>
<!-- Node4 -->
<g id="node4" class="node">
<title>Node4</title>
<g id="a_node4"><a xlink:href="class_recorder_manager.html#af4f6bc58b8be4b847c30c57d1fe6a730" target="_top" xlink:title="Alterna entre comenzar la grabación o pararla">
<polygon fill="white" stroke="black" points="172.5,-0.5 172.5,-19.5 327.5,-19.5 327.5,-0.5 172.5,-0.5"/>
<text text-anchor="middle" x="250" y="-7.5" font-family="Helvetica,sans-Serif" font-size="10.00">RecorderManager.ToggleRecord</text>
</a>
</g>
</g>
<!-- Node2&#45;&gt;Node4 -->
<g id="edge3" class="edge">
<title>Node2&#45;&gt;Node4</title>
<path fill="none" stroke="midnightblue" d="M367.83,-20.78C354.5,-19.55 340.85,-18.29 327.81,-17.08"/>
<polygon fill="midnightblue" stroke="midnightblue" points="367.66,-24.28 377.94,-21.71 368.31,-17.3 367.66,-24.28"/>
</g>
<!-- Node5 -->
<g id="node5" class="node">
<title>Node5</title>
<g id="a_node5"><a xlink:href="class_toolbar_u_i_controller.html#a7c36bd2332e575e710320a80023b93de" target="_top" xlink:title="Llamada justo antes del primer fotograma">
<polygon fill="white" stroke="black" points="0,-0.5 0,-19.5 122,-19.5 122,-0.5 0,-0.5"/>
<text text-anchor="middle" x="61" y="-7.5" font-family="Helvetica,sans-Serif" font-size="10.00">ToolbarUIController.Start</text>
</a>
</g>
</g>
<!-- Node4&#45;&gt;Node5 -->
<g id="edge4" class="edge">
<title>Node4&#45;&gt;Node5</title>
<path fill="none" stroke="midnightblue" d="M162.12,-10C148.61,-10 134.92,-10 122.17,-10"/>
<polygon fill="midnightblue" stroke="midnightblue" points="162.4,-13.5 172.4,-10 162.4,-6.5 162.4,-13.5"/>
</g>
</g>
</svg>
