<?xml version="1.0" encoding="UTF-8" standalone="no"?>
<!DOCTYPE svg PUBLIC "-//W3C//DTD SVG 1.1//EN"
 "http://www.w3.org/Graphics/SVG/1.1/DTD/svg11.dtd">
<!-- Generated by graphviz version 2.49.0 (20210828.1703)
 -->
<!-- Title: ToolbarUIController.SelectBarElement Pages: 1 -->
<svg width="363pt" height="142pt"
 viewBox="0.00 0.00 363.00 142.00" xmlns="http://www.w3.org/2000/svg" xmlns:xlink="http://www.w3.org/1999/xlink">
<g id="graph0" class="graph" transform="scale(1 1) rotate(0) translate(4 138)">
<title>ToolbarUIController.SelectBarElement</title>
<polygon fill="white" stroke="transparent" points="-4,4 -4,-138 359,-138 359,4 -4,4"/>
<!-- Node1 -->
<g id="node1" class="node">
<title>Node1</title>
<g id="a_node1"><a xlink:title="Intercambia el elemento actualmente seleccionado de una barra (herramienta o color) por el elemento q...">
<polygon fill="#bfbfbf" stroke="black" points="0,-57.5 0,-76.5 180,-76.5 180,-57.5 0,-57.5"/>
<text text-anchor="middle" x="90" y="-64.5" font-family="Helvetica,sans-Serif" font-size="10.00">ToolbarUIController.SelectBarElement</text>
</a>
</g>
</g>
<!-- Node2 -->
<g id="node2" class="node">
<title>Node2</title>
<g id="a_node2"><a xlink:href="class_a_r_tool_manager.html#af9a83789810f1f49396d859e950a994d" target="_top" xlink:title="Selecciona el color actual para el par seleccionado">
<polygon fill="white" stroke="black" points="216,-114.5 216,-133.5 355,-133.5 355,-114.5 216,-114.5"/>
<text text-anchor="middle" x="285.5" y="-121.5" font-family="Helvetica,sans-Serif" font-size="10.00">ARToolManager.SelectColor</text>
</a>
</g>
</g>
<!-- Node1&#45;&gt;Node2 -->
<g id="edge1" class="edge">
<title>Node1&#45;&gt;Node2</title>
<path fill="none" stroke="midnightblue" d="M121.5,-76.5C146.77,-84.32 183.66,-95.6 216,-105 223.67,-107.23 231.83,-109.54 239.75,-111.76"/>
<polygon fill="midnightblue" stroke="midnightblue" points="239.03,-115.19 249.61,-114.5 240.91,-108.45 239.03,-115.19"/>
</g>
<!-- Node3 -->
<g id="node3" class="node">
<title>Node3</title>
<g id="a_node3"><a xlink:href="class_client_manager.html#adf223624713fef035e346e07ccec906a" target="_top" xlink:title="Selecciona un color">
<polygon fill="white" stroke="black" points="219.5,-76.5 219.5,-95.5 351.5,-95.5 351.5,-76.5 219.5,-76.5"/>
<text text-anchor="middle" x="285.5" y="-83.5" font-family="Helvetica,sans-Serif" font-size="10.00">ClientManager.SelectColor</text>
</a>
</g>
</g>
<!-- Node1&#45;&gt;Node3 -->
<g id="edge2" class="edge">
<title>Node1&#45;&gt;Node3</title>
<path fill="none" stroke="midnightblue" d="M180.1,-75.75C189.79,-76.7 199.58,-77.66 209.08,-78.59"/>
<polygon fill="midnightblue" stroke="midnightblue" points="208.97,-82.1 219.26,-79.59 209.65,-75.13 208.97,-82.1"/>
</g>
<!-- Node4 -->
<g id="node4" class="node">
<title>Node4</title>
<g id="a_node4"><a xlink:href="class_a_r_tool_manager.html#a4ba91608a57b3aa14fa66857c5b5d337" target="_top" xlink:title="Selecciona la heramienta elegida para el par seleccionado">
<polygon fill="white" stroke="black" points="218.5,-38.5 218.5,-57.5 352.5,-57.5 352.5,-38.5 218.5,-38.5"/>
<text text-anchor="middle" x="285.5" y="-45.5" font-family="Helvetica,sans-Serif" font-size="10.00">ARToolManager.SelectTool</text>
</a>
</g>
</g>
<!-- Node1&#45;&gt;Node4 -->
<g id="edge3" class="edge">
<title>Node1&#45;&gt;Node4</title>
<path fill="none" stroke="midnightblue" d="M180.1,-58.25C189.57,-57.32 199.14,-56.38 208.44,-55.47"/>
<polygon fill="midnightblue" stroke="midnightblue" points="208.8,-58.95 218.41,-54.49 208.12,-51.98 208.8,-58.95"/>
</g>
<!-- Node5 -->
<g id="node5" class="node">
<title>Node5</title>
<g id="a_node5"><a xlink:href="class_client_manager.html#aa2ae5a54ff9b27bf90044a97033f9104" target="_top" xlink:title="Selecciona una herramienta">
<polygon fill="white" stroke="black" points="221.5,-0.5 221.5,-19.5 349.5,-19.5 349.5,-0.5 221.5,-0.5"/>
<text text-anchor="middle" x="285.5" y="-7.5" font-family="Helvetica,sans-Serif" font-size="10.00">ClientManager.SelectTool</text>
</a>
</g>
</g>
<!-- Node1&#45;&gt;Node5 -->
<g id="edge4" class="edge">
<title>Node1&#45;&gt;Node5</title>
<path fill="none" stroke="midnightblue" d="M121.5,-57.5C146.77,-49.68 183.66,-38.4 216,-29 223.67,-26.77 231.83,-24.46 239.75,-22.24"/>
<polygon fill="midnightblue" stroke="midnightblue" points="240.91,-25.55 249.61,-19.5 239.03,-18.81 240.91,-25.55"/>
</g>
</g>
</svg>
