<?xml version="1.0" encoding="UTF-8" standalone="no"?>
<!DOCTYPE svg PUBLIC "-//W3C//DTD SVG 1.1//EN"
 "http://www.w3.org/Graphics/SVG/1.1/DTD/svg11.dtd">
<!-- Generated by graphviz version 2.49.0 (20210828.1703)
 -->
<!-- Title: ContactsController.PermissionGranted Pages: 1 -->
<svg width="881pt" height="161pt"
 viewBox="0.00 0.00 881.00 161.00" xmlns="http://www.w3.org/2000/svg" xmlns:xlink="http://www.w3.org/1999/xlink">
<g id="graph0" class="graph" transform="scale(1 1) rotate(0) translate(4 157)">
<title>ContactsController.PermissionGranted</title>
<polygon fill="white" stroke="transparent" points="-4,4 -4,-157 877,-157 877,4 -4,4"/>
<!-- Node1 -->
<g id="node1" class="node">
<title>Node1</title>
<g id="a_node1"><a xlink:title="LLamada cuando se aceptan los permisos de lectura de contactos">
<polygon fill="#bfbfbf" stroke="black" points="0,-76.5 0,-95.5 183,-95.5 183,-76.5 0,-76.5"/>
<text text-anchor="middle" x="91.5" y="-83.5" font-family="Helvetica,sans-Serif" font-size="10.00">ContactsController.PermissionGranted</text>
</a>
</g>
</g>
<!-- Node2 -->
<g id="node2" class="node">
<title>Node2</title>
<g id="a_node2"><a xlink:href="class_contacts_controller.html#a82e0a0a5ae1fc7cbef3e4cb49d74dc31" target="_top" xlink:title="Inicializa todos los elementos necesarios de la lista de contactos y la muestra en la interfaz">
<polygon fill="white" stroke="black" points="219,-76.5 219,-95.5 382,-95.5 382,-76.5 219,-76.5"/>
<text text-anchor="middle" x="300.5" y="-83.5" font-family="Helvetica,sans-Serif" font-size="10.00">ContactsController.ShowContacts</text>
</a>
</g>
</g>
<!-- Node1&#45;&gt;Node2 -->
<g id="edge1" class="edge">
<title>Node1&#45;&gt;Node2</title>
<path fill="none" stroke="midnightblue" d="M183.29,-86C191.71,-86 200.24,-86 208.66,-86"/>
<polygon fill="midnightblue" stroke="midnightblue" points="208.86,-89.5 218.86,-86 208.86,-82.5 208.86,-89.5"/>
</g>
<!-- Node3 -->
<g id="node3" class="node">
<title>Node3</title>
<g id="a_node3"><a xlink:href="class_database_manager.html#a322c76e999c83719f38cf419cf9f800a" target="_top" xlink:title="Obtiene el userID de un usuario a partir de su número de teléfono">
<polygon fill="white" stroke="black" points="456,-133.5 456,-152.5 599,-152.5 599,-133.5 456,-133.5"/>
<text text-anchor="middle" x="527.5" y="-140.5" font-family="Helvetica,sans-Serif" font-size="10.00">DatabaseManager.GetUserID</text>
</a>
</g>
</g>
<!-- Node2&#45;&gt;Node3 -->
<g id="edge2" class="edge">
<title>Node2&#45;&gt;Node3</title>
<path fill="none" stroke="midnightblue" d="M327.11,-95.52C350.51,-103.93 386.21,-116.07 418,-124 429.31,-126.82 441.38,-129.37 453.21,-131.63"/>
<polygon fill="midnightblue" stroke="midnightblue" points="452.6,-135.07 463.07,-133.45 453.87,-128.19 452.6,-135.07"/>
</g>
<!-- Node4 -->
<g id="node4" class="node">
<title>Node4</title>
<g id="a_node4"><a xlink:href="class_room_manager.html#a022ae9cafc8dedb55ca839e0d99c5b44" target="_top" xlink:title="Mueve un par a una sala">
<polygon fill="white" stroke="black" points="465,-95.5 465,-114.5 590,-114.5 590,-95.5 465,-95.5"/>
<text text-anchor="middle" x="527.5" y="-102.5" font-family="Helvetica,sans-Serif" font-size="10.00">RoomManager.JoinRoom</text>
</a>
</g>
</g>
<!-- Node2&#45;&gt;Node4 -->
<g id="edge3" class="edge">
<title>Node2&#45;&gt;Node4</title>
<path fill="none" stroke="midnightblue" d="M382.09,-92.81C405.82,-94.81 431.61,-96.99 454.74,-98.94"/>
<polygon fill="midnightblue" stroke="midnightblue" points="454.56,-102.44 464.82,-99.79 455.15,-95.46 454.56,-102.44"/>
</g>
<!-- Node7 -->
<g id="node7" class="node">
<title>Node7</title>
<g id="a_node7"><a xlink:href="class_sharing_manager.html#a6b0c8c96f7f5624110bcf03a1c3dad3b" target="_top" xlink:title="Envia una notifiación">
<polygon fill="white" stroke="black" points="447,-57.5 447,-76.5 608,-76.5 608,-57.5 447,-57.5"/>
<text text-anchor="middle" x="527.5" y="-64.5" font-family="Helvetica,sans-Serif" font-size="10.00">SharingManager.SendNotification</text>
</a>
</g>
</g>
<!-- Node2&#45;&gt;Node7 -->
<g id="edge6" class="edge">
<title>Node2&#45;&gt;Node7</title>
<path fill="none" stroke="midnightblue" d="M382.09,-79.19C399.78,-77.7 418.61,-76.11 436.64,-74.59"/>
<polygon fill="midnightblue" stroke="midnightblue" points="437.18,-78.06 446.85,-73.73 436.59,-71.08 437.18,-78.06"/>
</g>
<!-- Node8 -->
<g id="node8" class="node">
<title>Node8</title>
<g id="a_node8"><a xlink:href="class_sharing_manager.html#aae88ccb9e92ceeed9c6e6281a192f698" target="_top" xlink:title="Comparte un código de sala con un contacto de whatsapp">
<polygon fill="white" stroke="black" points="418,-19.5 418,-38.5 637,-38.5 637,-19.5 418,-19.5"/>
<text text-anchor="middle" x="527.5" y="-26.5" font-family="Helvetica,sans-Serif" font-size="10.00">SharingManager.ShareRoomWhatsappContact</text>
</a>
</g>
</g>
<!-- Node2&#45;&gt;Node8 -->
<g id="edge7" class="edge">
<title>Node2&#45;&gt;Node8</title>
<path fill="none" stroke="midnightblue" d="M327.11,-76.48C350.51,-68.07 386.21,-55.93 418,-48 429.31,-45.18 441.38,-42.63 453.21,-40.37"/>
<polygon fill="midnightblue" stroke="midnightblue" points="453.87,-43.81 463.07,-38.55 452.6,-36.93 453.87,-43.81"/>
</g>
<!-- Node5 -->
<g id="node5" class="node">
<title>Node5</title>
<g id="a_node5"><a xlink:href="class_my_scene_manager.html#a6787f49b73d5e0c4e80fd67d38f5550a" target="_top" xlink:title="Carga la escena seleccionada">
<polygon fill="white" stroke="black" points="699.5,-123.5 699.5,-142.5 846.5,-142.5 846.5,-123.5 699.5,-123.5"/>
<text text-anchor="middle" x="773" y="-130.5" font-family="Helvetica,sans-Serif" font-size="10.00">MySceneManager.LoadScene</text>
</a>
</g>
</g>
<!-- Node4&#45;&gt;Node5 -->
<g id="edge4" class="edge">
<title>Node4&#45;&gt;Node5</title>
<path fill="none" stroke="midnightblue" d="M590.26,-112.1C620.39,-115.57 657.07,-119.78 689.55,-123.52"/>
<polygon fill="midnightblue" stroke="midnightblue" points="689.16,-127 699.49,-124.66 689.96,-120.04 689.16,-127"/>
</g>
<!-- Node6 -->
<g id="node6" class="node">
<title>Node6</title>
<g id="a_node6"><a xlink:href="class_database_manager.html#a26b78f4ef7989b67f825194863df0357" target="_top" xlink:title="Evalua si un código de sala existe en base de datos">
<polygon fill="white" stroke="black" points="692.5,-85.5 692.5,-104.5 853.5,-104.5 853.5,-85.5 692.5,-85.5"/>
<text text-anchor="middle" x="773" y="-92.5" font-family="Helvetica,sans-Serif" font-size="10.00">DatabaseManager.RoomIDExists</text>
</a>
</g>
</g>
<!-- Node4&#45;&gt;Node6 -->
<g id="edge5" class="edge">
<title>Node4&#45;&gt;Node6</title>
<path fill="none" stroke="midnightblue" d="M590.26,-102.46C618.11,-101.32 651.54,-99.95 682.1,-98.69"/>
<polygon fill="midnightblue" stroke="midnightblue" points="682.49,-102.18 692.33,-98.27 682.2,-95.19 682.49,-102.18"/>
</g>
<!-- Node9 -->
<g id="node9" class="node">
<title>Node9</title>
<g id="a_node9"><a xlink:href="class_sharing_manager.html#a039a42cca85530f5e71e396bda0bc95b" target="_top" xlink:title="Crea un enlace dinámico a una sala">
<polygon fill="white" stroke="black" points="673,-38.5 673,-57.5 873,-57.5 873,-38.5 673,-38.5"/>
<text text-anchor="middle" x="773" y="-45.5" font-family="Helvetica,sans-Serif" font-size="10.00">SharingManager.CreateDynamicRoomLink</text>
</a>
</g>
</g>
<!-- Node8&#45;&gt;Node9 -->
<g id="edge8" class="edge">
<title>Node8&#45;&gt;Node9</title>
<path fill="none" stroke="midnightblue" d="M637.08,-37.47C645.64,-38.14 654.3,-38.82 662.87,-39.48"/>
<polygon fill="midnightblue" stroke="midnightblue" points="662.64,-42.98 672.89,-40.27 663.19,-36 662.64,-42.98"/>
</g>
<!-- Node10 -->
<g id="node10" class="node">
<title>Node10</title>
<g id="a_node10"><a xlink:href="class_sharing_manager.html#a1297b7c8e2a23a2f1b179717015405a7" target="_top" xlink:title="Crea el mensaje a compartir">
<polygon fill="white" stroke="black" points="695.5,-0.5 695.5,-19.5 850.5,-19.5 850.5,-0.5 695.5,-0.5"/>
<text text-anchor="middle" x="773" y="-7.5" font-family="Helvetica,sans-Serif" font-size="10.00">SharingManager.ShareMessage</text>
</a>
</g>
</g>
<!-- Node8&#45;&gt;Node10 -->
<g id="edge9" class="edge">
<title>Node8&#45;&gt;Node10</title>
<path fill="none" stroke="midnightblue" d="M637.08,-20.53C653.2,-19.27 669.64,-17.99 685.24,-16.77"/>
<polygon fill="midnightblue" stroke="midnightblue" points="685.66,-20.25 695.36,-15.98 685.11,-13.27 685.66,-20.25"/>
</g>
</g>
</svg>
