<?xml version="1.0" encoding="UTF-8" standalone="no"?>
<!DOCTYPE svg PUBLIC "-//W3C//DTD SVG 1.1//EN"
 "http://www.w3.org/Graphics/SVG/1.1/DTD/svg11.dtd">
<!-- Generated by graphviz version 2.49.0 (20210828.1703)
 -->
<!-- Title: ClientManager Pages: 1 -->
<svg width="173pt" height="193pt"
 viewBox="0.00 0.00 173.00 193.00" xmlns="http://www.w3.org/2000/svg" xmlns:xlink="http://www.w3.org/1999/xlink">
<g id="graph0" class="graph" transform="scale(1 1) rotate(0) translate(4 189)">
<title>ClientManager</title>
<polygon fill="white" stroke="transparent" points="-4,4 -4,-189 169,-189 169,4 -4,4"/>
<!-- Node1 -->
<g id="node1" class="node">
<title>Node1</title>
<g id="a_node1"><a xlink:title="Maneja la lógica las acciones del cliente">
<polygon fill="#bfbfbf" stroke="black" points="0,-0.5 0,-90.5 165,-90.5 165,-0.5 0,-0.5"/>
<text text-anchor="middle" x="82.5" y="-78.5" font-family="Helvetica,sans-Serif" font-size="10.00">ClientManager</text>
<polyline fill="none" stroke="black" points="0,-71.5 165,-71.5 "/>
<text text-anchor="middle" x="82.5" y="-59.5" font-family="Helvetica,sans-Serif" font-size="10.00"> </text>
<polyline fill="none" stroke="black" points="0,-52.5 165,-52.5 "/>
<text text-anchor="start" x="8" y="-40.5" font-family="Helvetica,sans-Serif" font-size="10.00">+ void SelectTool(string toolName)</text>
<text text-anchor="start" x="8" y="-29.5" font-family="Helvetica,sans-Serif" font-size="10.00">+ void UndoDrawing()</text>
<text text-anchor="start" x="8" y="-18.5" font-family="Helvetica,sans-Serif" font-size="10.00">+ void DeleteDrawings(string peer)</text>
<text text-anchor="start" x="8" y="-7.5" font-family="Helvetica,sans-Serif" font-size="10.00">+ void SelectColor(string color)</text>
</a>
</g>
</g>
<!-- Node2 -->
<g id="node2" class="node">
<title>Node2</title>
<g id="a_node2"><a xlink:title=" ">
<polygon fill="white" stroke="#bfbfbf" points="41,-127.5 41,-184.5 124,-184.5 124,-127.5 41,-127.5"/>
<text text-anchor="middle" x="82.5" y="-172.5" font-family="Helvetica,sans-Serif" font-size="10.00">MonoBehaviour</text>
<polyline fill="none" stroke="#bfbfbf" points="41,-165.5 124,-165.5 "/>
<text text-anchor="middle" x="82.5" y="-153.5" font-family="Helvetica,sans-Serif" font-size="10.00"> </text>
<polyline fill="none" stroke="#bfbfbf" points="41,-146.5 124,-146.5 "/>
<text text-anchor="middle" x="82.5" y="-134.5" font-family="Helvetica,sans-Serif" font-size="10.00"> </text>
</a>
</g>
</g>
<!-- Node2&#45;&gt;Node1 -->
<g id="edge1" class="edge">
<title>Node2&#45;&gt;Node1</title>
<path fill="none" stroke="midnightblue" d="M82.5,-117.21C82.5,-108.61 82.5,-99.39 82.5,-90.55"/>
<polygon fill="none" stroke="midnightblue" points="79,-117.34 82.5,-127.34 86,-117.34 79,-117.34"/>
</g>
</g>
</svg>
