<?xml version="1.0" encoding="UTF-8" standalone="no"?>
<!DOCTYPE svg PUBLIC "-//W3C//DTD SVG 1.1//EN"
 "http://www.w3.org/Graphics/SVG/1.1/DTD/svg11.dtd">
<!-- Generated by graphviz version 2.49.0 (20210828.1703)
 -->
<!-- Title: MicrophoneListener.RestartMicrophoneListener Pages: 1 -->
<svg width="646pt" height="66pt"
 viewBox="0.00 0.00 646.00 66.00" xmlns="http://www.w3.org/2000/svg" xmlns:xlink="http://www.w3.org/1999/xlink">
<g id="graph0" class="graph" transform="scale(1 1) rotate(0) translate(4 62)">
<title>MicrophoneListener.RestartMicrophoneListener</title>
<polygon fill="white" stroke="transparent" points="-4,4 -4,-62 642,-62 642,4 -4,4"/>
<!-- Node1 -->
<g id="node1" class="node">
<title>Node1</title>
<g id="a_node1"><a xlink:title=" ">
<polygon fill="#bfbfbf" stroke="black" points="417,-19.5 417,-38.5 638,-38.5 638,-19.5 417,-19.5"/>
<text text-anchor="middle" x="527.5" y="-26.5" font-family="Helvetica,sans-Serif" font-size="10.00">MicrophoneListener.RestartMicrophoneListener</text>
</a>
</g>
</g>
<!-- Node2 -->
<g id="node2" class="node">
<title>Node2</title>
<g id="a_node2"><a xlink:href="class_microphone_listener.html#a633ca7ce84b11f6ea06e2dfec39c0a53" target="_top" xlink:title=" ">
<polygon fill="white" stroke="black" points="5,-38.5 5,-57.5 130,-57.5 130,-38.5 5,-38.5"/>
<text text-anchor="middle" x="67.5" y="-45.5" font-family="Helvetica,sans-Serif" font-size="10.00">MicrophoneListener.Start</text>
</a>
</g>
</g>
<!-- Node1&#45;&gt;Node2 -->
<g id="edge1" class="edge">
<title>Node1&#45;&gt;Node2</title>
<path fill="none" stroke="midnightblue" d="M406.67,-33.97C317.98,-37.65 200.76,-42.51 130.2,-45.44"/>
<polygon fill="midnightblue" stroke="midnightblue" points="406.95,-37.46 416.8,-33.55 406.66,-30.47 406.95,-37.46"/>
</g>
<!-- Node3 -->
<g id="node3" class="node">
<title>Node3</title>
<g id="a_node3"><a xlink:href="class_microphone_listener.html#a5cf4eb3958db2ea278c862836d37fdbb" target="_top" xlink:title=" ">
<polygon fill="white" stroke="black" points="171,-0.5 171,-19.5 381,-19.5 381,-0.5 171,-0.5"/>
<text text-anchor="middle" x="276" y="-7.5" font-family="Helvetica,sans-Serif" font-size="10.00">MicrophoneListener.StartMicrophoneListener</text>
</a>
</g>
</g>
<!-- Node1&#45;&gt;Node3 -->
<g id="edge2" class="edge">
<title>Node1&#45;&gt;Node3</title>
<path fill="none" stroke="midnightblue" d="M406.46,-19.86C398.05,-19.22 389.61,-18.58 381.29,-17.94"/>
<polygon fill="midnightblue" stroke="midnightblue" points="406.47,-23.37 416.7,-20.64 407,-16.39 406.47,-23.37"/>
</g>
<!-- Node3&#45;&gt;Node2 -->
<g id="edge3" class="edge">
<title>Node3&#45;&gt;Node2</title>
<path fill="none" stroke="midnightblue" d="M212.95,-21.42C183.41,-26.86 148.47,-33.28 120.36,-38.46"/>
<polygon fill="midnightblue" stroke="midnightblue" points="213.96,-24.79 223.16,-19.54 212.69,-17.91 213.96,-24.79"/>
</g>
<!-- Node4 -->
<g id="node4" class="node">
<title>Node4</title>
<g id="a_node4"><a xlink:href="class_microphone_listener.html#a3956f9f56442b31ac803da567300816e" target="_top" xlink:title=" ">
<polygon fill="white" stroke="black" points="0,-0.5 0,-19.5 135,-19.5 135,-0.5 0,-0.5"/>
<text text-anchor="middle" x="67.5" y="-7.5" font-family="Helvetica,sans-Serif" font-size="10.00">MicrophoneListener.Update</text>
</a>
</g>
</g>
<!-- Node3&#45;&gt;Node4 -->
<g id="edge4" class="edge">
<title>Node3&#45;&gt;Node4</title>
<path fill="none" stroke="midnightblue" d="M160.63,-10C151.96,-10 143.39,-10 135.18,-10"/>
<polygon fill="midnightblue" stroke="midnightblue" points="160.84,-13.5 170.84,-10 160.84,-6.5 160.84,-13.5"/>
</g>
</g>
</svg>
