<?xml version="1.0" encoding="UTF-8" standalone="no"?>
<!DOCTYPE svg PUBLIC "-//W3C//DTD SVG 1.1//EN"
 "http://www.w3.org/Graphics/SVG/1.1/DTD/svg11.dtd">
<!-- Generated by graphviz version 2.49.0 (20210828.1703)
 -->
<!-- Title: MicrophoneListener.StartMicrophoneListener Pages: 1 -->
<svg width="389pt" height="66pt"
 viewBox="0.00 0.00 389.00 66.00" xmlns="http://www.w3.org/2000/svg" xmlns:xlink="http://www.w3.org/1999/xlink">
<g id="graph0" class="graph" transform="scale(1 1) rotate(0) translate(4 62)">
<title>MicrophoneListener.StartMicrophoneListener</title>
<polygon fill="white" stroke="transparent" points="-4,4 -4,-62 385,-62 385,4 -4,4"/>
<!-- Node1 -->
<g id="node1" class="node">
<title>Node1</title>
<g id="a_node1"><a xlink:title=" ">
<polygon fill="#bfbfbf" stroke="black" points="171,-19.5 171,-38.5 381,-38.5 381,-19.5 171,-19.5"/>
<text text-anchor="middle" x="276" y="-26.5" font-family="Helvetica,sans-Serif" font-size="10.00">MicrophoneListener.StartMicrophoneListener</text>
</a>
</g>
</g>
<!-- Node2 -->
<g id="node2" class="node">
<title>Node2</title>
<g id="a_node2"><a xlink:href="class_microphone_listener.html#a633ca7ce84b11f6ea06e2dfec39c0a53" target="_top" xlink:title=" ">
<polygon fill="white" stroke="black" points="5,-38.5 5,-57.5 130,-57.5 130,-38.5 5,-38.5"/>
<text text-anchor="middle" x="67.5" y="-45.5" font-family="Helvetica,sans-Serif" font-size="10.00">MicrophoneListener.Start</text>
</a>
</g>
</g>
<!-- Node1&#45;&gt;Node2 -->
<g id="edge1" class="edge">
<title>Node1&#45;&gt;Node2</title>
<path fill="none" stroke="midnightblue" d="M161.23,-39.47C150.6,-40.45 140.12,-41.41 130.25,-42.32"/>
<polygon fill="midnightblue" stroke="midnightblue" points="161.81,-42.93 171.45,-38.53 161.17,-35.96 161.81,-42.93"/>
</g>
<!-- Node3 -->
<g id="node3" class="node">
<title>Node3</title>
<g id="a_node3"><a xlink:href="class_microphone_listener.html#a3956f9f56442b31ac803da567300816e" target="_top" xlink:title=" ">
<polygon fill="white" stroke="black" points="0,-0.5 0,-19.5 135,-19.5 135,-0.5 0,-0.5"/>
<text text-anchor="middle" x="67.5" y="-7.5" font-family="Helvetica,sans-Serif" font-size="10.00">MicrophoneListener.Update</text>
</a>
</g>
</g>
<!-- Node1&#45;&gt;Node3 -->
<g id="edge2" class="edge">
<title>Node1&#45;&gt;Node3</title>
<path fill="none" stroke="midnightblue" d="M161.31,-18.54C152.36,-17.72 143.51,-16.9 135.04,-16.12"/>
<polygon fill="midnightblue" stroke="midnightblue" points="161.17,-22.04 171.45,-19.47 161.81,-15.07 161.17,-22.04"/>
</g>
</g>
</svg>
