<?xml version="1.0" encoding="UTF-8" standalone="no"?>
<!DOCTYPE svg PUBLIC "-//W3C//DTD SVG 1.1//EN"
 "http://www.w3.org/Graphics/SVG/1.1/DTD/svg11.dtd">
<!-- Generated by graphviz version 2.49.0 (20210828.1703)
 -->
<!-- Title: DynamicLinksInit.OnDynamicLink Pages: 1 -->
<svg width="529pt" height="85pt"
 viewBox="0.00 0.00 529.00 85.00" xmlns="http://www.w3.org/2000/svg" xmlns:xlink="http://www.w3.org/1999/xlink">
<g id="graph0" class="graph" transform="scale(1 1) rotate(0) translate(4 81)">
<title>DynamicLinksInit.OnDynamicLink</title>
<polygon fill="white" stroke="transparent" points="-4,4 -4,-81 525,-81 525,4 -4,4"/>
<!-- Node1 -->
<g id="node1" class="node">
<title>Node1</title>
<g id="a_node1"><a xlink:title="Lanzada cuando se recibe un enlace dinámico">
<polygon fill="#bfbfbf" stroke="black" points="0,-19.5 0,-38.5 163,-38.5 163,-19.5 0,-19.5"/>
<text text-anchor="middle" x="81.5" y="-26.5" font-family="Helvetica,sans-Serif" font-size="10.00">DynamicLinksInit.OnDynamicLink</text>
</a>
</g>
</g>
<!-- Node2 -->
<g id="node2" class="node">
<title>Node2</title>
<g id="a_node2"><a xlink:href="class_room_manager.html#a022ae9cafc8dedb55ca839e0d99c5b44" target="_top" xlink:title="Mueve un par a una sala">
<polygon fill="white" stroke="black" points="199,-38.5 199,-57.5 324,-57.5 324,-38.5 199,-38.5"/>
<text text-anchor="middle" x="261.5" y="-45.5" font-family="Helvetica,sans-Serif" font-size="10.00">RoomManager.JoinRoom</text>
</a>
</g>
</g>
<!-- Node1&#45;&gt;Node2 -->
<g id="edge1" class="edge">
<title>Node1&#45;&gt;Node2</title>
<path fill="none" stroke="midnightblue" d="M163.17,-37.61C171.67,-38.52 180.27,-39.44 188.66,-40.33"/>
<polygon fill="midnightblue" stroke="midnightblue" points="188.46,-43.83 198.77,-41.41 189.2,-36.87 188.46,-43.83"/>
</g>
<!-- Node5 -->
<g id="node5" class="node">
<title>Node5</title>
<g id="a_node5"><a xlink:href="class_android_utils.html#af3ddee265b4dfc672eddae5699c8fb2b" target="_top" xlink:title=" ">
<polygon fill="white" stroke="black" points="201.5,-0.5 201.5,-19.5 321.5,-19.5 321.5,-0.5 201.5,-0.5"/>
<text text-anchor="middle" x="261.5" y="-7.5" font-family="Helvetica,sans-Serif" font-size="10.00">AndroidUtils.ShowToast</text>
</a>
</g>
</g>
<!-- Node1&#45;&gt;Node5 -->
<g id="edge4" class="edge">
<title>Node1&#45;&gt;Node5</title>
<path fill="none" stroke="midnightblue" d="M163.17,-20.39C172.52,-19.39 182,-18.38 191.19,-17.4"/>
<polygon fill="midnightblue" stroke="midnightblue" points="191.84,-20.85 201.41,-16.31 191.1,-13.89 191.84,-20.85"/>
</g>
<!-- Node3 -->
<g id="node3" class="node">
<title>Node3</title>
<g id="a_node3"><a xlink:href="class_my_scene_manager.html#a6787f49b73d5e0c4e80fd67d38f5550a" target="_top" xlink:title="Carga la escena seleccionada">
<polygon fill="white" stroke="black" points="367,-57.5 367,-76.5 514,-76.5 514,-57.5 367,-57.5"/>
<text text-anchor="middle" x="440.5" y="-64.5" font-family="Helvetica,sans-Serif" font-size="10.00">MySceneManager.LoadScene</text>
</a>
</g>
</g>
<!-- Node2&#45;&gt;Node3 -->
<g id="edge2" class="edge">
<title>Node2&#45;&gt;Node3</title>
<path fill="none" stroke="midnightblue" d="M324.41,-54.65C334.86,-55.77 345.87,-56.95 356.75,-58.12"/>
<polygon fill="midnightblue" stroke="midnightblue" points="356.38,-61.6 366.7,-59.19 357.13,-54.64 356.38,-61.6"/>
</g>
<!-- Node4 -->
<g id="node4" class="node">
<title>Node4</title>
<g id="a_node4"><a xlink:href="class_database_manager.html#a26b78f4ef7989b67f825194863df0357" target="_top" xlink:title="Evalua si un código de sala existe en base de datos">
<polygon fill="white" stroke="black" points="360,-19.5 360,-38.5 521,-38.5 521,-19.5 360,-19.5"/>
<text text-anchor="middle" x="440.5" y="-26.5" font-family="Helvetica,sans-Serif" font-size="10.00">DatabaseManager.RoomIDExists</text>
</a>
</g>
</g>
<!-- Node2&#45;&gt;Node4 -->
<g id="edge3" class="edge">
<title>Node2&#45;&gt;Node4</title>
<path fill="none" stroke="midnightblue" d="M324.41,-41.35C332.65,-40.47 341.23,-39.55 349.82,-38.63"/>
<polygon fill="midnightblue" stroke="midnightblue" points="350.33,-42.09 359.9,-37.55 349.58,-35.13 350.33,-42.09"/>
</g>
</g>
</svg>
