<?xml version="1.0" encoding="UTF-8" standalone="no"?>
<!DOCTYPE svg PUBLIC "-//W3C//DTD SVG 1.1//EN"
 "http://www.w3.org/Graphics/SVG/1.1/DTD/svg11.dtd">
<!-- Generated by graphviz version 2.49.0 (20210828.1703)
 -->
<!-- Title: UserManager.IsUserRegistered Pages: 1 -->
<svg width="751pt" height="142pt"
 viewBox="0.00 0.00 751.00 142.00" xmlns="http://www.w3.org/2000/svg" xmlns:xlink="http://www.w3.org/1999/xlink">
<g id="graph0" class="graph" transform="scale(1 1) rotate(0) translate(4 138)">
<title>UserManager.IsUserRegistered</title>
<polygon fill="white" stroke="transparent" points="-4,4 -4,-138 747,-138 747,4 -4,4"/>
<!-- Node1 -->
<g id="node1" class="node">
<title>Node1</title>
<g id="a_node1"><a xlink:title="Evalua si el usuario actual esta registrado">
<polygon fill="#bfbfbf" stroke="black" points="591,-57.5 591,-76.5 743,-76.5 743,-57.5 591,-57.5"/>
<text text-anchor="middle" x="667" y="-64.5" font-family="Helvetica,sans-Serif" font-size="10.00">UserManager.IsUserRegistered</text>
</a>
</g>
</g>
<!-- Node2 -->
<g id="node2" class="node">
<title>Node2</title>
<g id="a_node2"><a xlink:href="class_user_manager.html#a13aa0147d1c05e969538d0c96a0a060c" target="_top" xlink:title="Loguea al usuario actual">
<polygon fill="white" stroke="black" points="408,-114.5 408,-133.5 509,-133.5 509,-114.5 408,-114.5"/>
<text text-anchor="middle" x="458.5" y="-121.5" font-family="Helvetica,sans-Serif" font-size="10.00">UserManager.LogIn</text>
</a>
</g>
</g>
<!-- Node1&#45;&gt;Node2 -->
<g id="edge1" class="edge">
<title>Node1&#45;&gt;Node2</title>
<path fill="none" stroke="midnightblue" d="M625.17,-79.59C604.25,-85.93 578.33,-93.6 555,-100 536.7,-105.02 516.31,-110.2 499.09,-114.45"/>
<polygon fill="midnightblue" stroke="midnightblue" points="626.45,-82.86 635,-76.6 624.42,-76.16 626.45,-82.86"/>
</g>
<!-- Node3 -->
<g id="node3" class="node">
<title>Node3</title>
<g id="a_node3"><a xlink:href="class_app_entry_point.html#a31fdab16b3f5f842587ae877d564b041" target="_top" xlink:title="Lanzado cuando Firebase esta inicializado">
<polygon fill="white" stroke="black" points="165,-95.5 165,-114.5 326,-114.5 326,-95.5 165,-95.5"/>
<text text-anchor="middle" x="245.5" y="-102.5" font-family="Helvetica,sans-Serif" font-size="10.00">AppEntryPoint.OnFirebaseReady</text>
</a>
</g>
</g>
<!-- Node1&#45;&gt;Node3 -->
<g id="edge5" class="edge">
<title>Node1&#45;&gt;Node3</title>
<path fill="none" stroke="midnightblue" d="M580.23,-74.77C505.71,-81.52 398.63,-91.22 326.01,-97.8"/>
<polygon fill="midnightblue" stroke="midnightblue" points="580.87,-78.23 590.52,-73.84 580.24,-71.25 580.87,-78.23"/>
</g>
<!-- Node6 -->
<g id="node6" class="node">
<title>Node6</title>
<g id="a_node6"><a xlink:href="class_register_name_u_i_controller.html#afc29ac5c585c83664552ce4d7e228e04" target="_top" xlink:title="Registra el nombre introducido del usuario actual">
<polygon fill="white" stroke="black" points="362,-38.5 362,-57.5 555,-57.5 555,-38.5 362,-38.5"/>
<text text-anchor="middle" x="458.5" y="-45.5" font-family="Helvetica,sans-Serif" font-size="10.00">RegisterNameUIController.RegisterName</text>
</a>
</g>
</g>
<!-- Node1&#45;&gt;Node6 -->
<g id="edge6" class="edge">
<title>Node1&#45;&gt;Node6</title>
<path fill="none" stroke="midnightblue" d="M580.65,-59.15C572.2,-58.37 563.58,-57.58 555.03,-56.79"/>
<polygon fill="midnightblue" stroke="midnightblue" points="580.59,-62.66 590.86,-60.09 581.23,-55.69 580.59,-62.66"/>
</g>
<!-- Node8 -->
<g id="node8" class="node">
<title>Node8</title>
<g id="a_node8"><a xlink:href="class_main_u_i_controller.html#a0a5859a3d2f7c6ae487469bdbe76a7b2" target="_top" xlink:title="Llamada justo antes del primer fotograma">
<polygon fill="white" stroke="black" points="402.5,-0.5 402.5,-19.5 514.5,-19.5 514.5,-0.5 402.5,-0.5"/>
<text text-anchor="middle" x="458.5" y="-7.5" font-family="Helvetica,sans-Serif" font-size="10.00">MainUIController.Start</text>
</a>
</g>
</g>
<!-- Node1&#45;&gt;Node8 -->
<g id="edge8" class="edge">
<title>Node1&#45;&gt;Node8</title>
<path fill="none" stroke="midnightblue" d="M631.71,-53.93C609.96,-45.98 581.1,-36.03 555,-29 541.78,-25.44 527.36,-22.23 513.83,-19.5"/>
<polygon fill="midnightblue" stroke="midnightblue" points="630.57,-57.25 641.17,-57.43 633,-50.68 630.57,-57.25"/>
</g>
<!-- Node2&#45;&gt;Node3 -->
<g id="edge2" class="edge">
<title>Node2&#45;&gt;Node3</title>
<path fill="none" stroke="midnightblue" d="M397.78,-118.62C375.49,-116.62 349.81,-114.3 326.02,-112.16"/>
<polygon fill="midnightblue" stroke="midnightblue" points="397.49,-122.11 407.76,-119.52 398.12,-115.14 397.49,-122.11"/>
</g>
<!-- Node4 -->
<g id="node4" class="node">
<title>Node4</title>
<g id="a_node4"><a xlink:href="class_app_entry_point.html#ac431add7aa1c5d78adfed6782eedd949" target="_top" xlink:title="Llamada al crear el GameObject asociado">
<polygon fill="white" stroke="black" points="8.5,-114.5 8.5,-133.5 120.5,-133.5 120.5,-114.5 8.5,-114.5"/>
<text text-anchor="middle" x="64.5" y="-121.5" font-family="Helvetica,sans-Serif" font-size="10.00">AppEntryPoint.Awake</text>
</a>
</g>
</g>
<!-- Node3&#45;&gt;Node4 -->
<g id="edge3" class="edge">
<title>Node3&#45;&gt;Node4</title>
<path fill="none" stroke="midnightblue" d="M154.75,-114.53C143.13,-115.76 131.52,-116.99 120.7,-118.14"/>
<polygon fill="midnightblue" stroke="midnightblue" points="155.37,-117.98 164.95,-113.44 154.63,-111.02 155.37,-117.98"/>
</g>
<!-- Node5 -->
<g id="node5" class="node">
<title>Node5</title>
<g id="a_node5"><a xlink:href="class_app_entry_point.html#afc6b25a70732c6bcf06409f22a586861" target="_top" xlink:title="Llamadada cuando se destruye el GameObject asociado">
<polygon fill="white" stroke="black" points="0,-76.5 0,-95.5 129,-95.5 129,-76.5 0,-76.5"/>
<text text-anchor="middle" x="64.5" y="-83.5" font-family="Helvetica,sans-Serif" font-size="10.00">AppEntryPoint.OnDestroy</text>
</a>
</g>
</g>
<!-- Node3&#45;&gt;Node5 -->
<g id="edge4" class="edge">
<title>Node3&#45;&gt;Node5</title>
<path fill="none" stroke="midnightblue" d="M154.82,-95.48C146.19,-94.56 137.55,-93.65 129.24,-92.77"/>
<polygon fill="midnightblue" stroke="midnightblue" points="154.63,-98.98 164.95,-96.56 155.37,-92.02 154.63,-98.98"/>
</g>
<!-- Node7 -->
<g id="node7" class="node">
<title>Node7</title>
<g id="a_node7"><a xlink:href="class_register_name_u_i_controller.html#a5c7e76753bc91e585403685a869aaa96" target="_top" xlink:title="Llamada justo antes del primer fotograma">
<polygon fill="white" stroke="black" points="169.5,-38.5 169.5,-57.5 321.5,-57.5 321.5,-38.5 169.5,-38.5"/>
<text text-anchor="middle" x="245.5" y="-45.5" font-family="Helvetica,sans-Serif" font-size="10.00">RegisterNameUIController.Start</text>
</a>
</g>
</g>
<!-- Node6&#45;&gt;Node7 -->
<g id="edge7" class="edge">
<title>Node6&#45;&gt;Node7</title>
<path fill="none" stroke="midnightblue" d="M351.71,-48C341.53,-48 331.35,-48 321.56,-48"/>
<polygon fill="midnightblue" stroke="midnightblue" points="351.88,-51.5 361.88,-48 351.88,-44.5 351.88,-51.5"/>
</g>
</g>
</svg>
