<?xml version="1.0" encoding="UTF-8" standalone="no"?>
<!DOCTYPE svg PUBLIC "-//W3C//DTD SVG 1.1//EN"
 "http://www.w3.org/Graphics/SVG/1.1/DTD/svg11.dtd">
<!-- Generated by graphviz version 2.49.0 (20210828.1703)
 -->
<!-- Title: DatabaseManager.SetUserID Pages: 1 -->
<svg width="979pt" height="66pt"
 viewBox="0.00 0.00 979.00 66.00" xmlns="http://www.w3.org/2000/svg" xmlns:xlink="http://www.w3.org/1999/xlink">
<g id="graph0" class="graph" transform="scale(1 1) rotate(0) translate(4 62)">
<title>DatabaseManager.SetUserID</title>
<polygon fill="white" stroke="transparent" points="-4,4 -4,-62 975,-62 975,4 -4,4"/>
<!-- Node1 -->
<g id="node1" class="node">
<title>Node1</title>
<g id="a_node1"><a xlink:title="Establece el userID de un usuario">
<polygon fill="#bfbfbf" stroke="black" points="828,-19.5 828,-38.5 971,-38.5 971,-19.5 828,-19.5"/>
<text text-anchor="middle" x="899.5" y="-26.5" font-family="Helvetica,sans-Serif" font-size="10.00">DatabaseManager.SetUserID</text>
</a>
</g>
</g>
<!-- Node2 -->
<g id="node2" class="node">
<title>Node2</title>
<g id="a_node2"><a xlink:href="class_user_manager.html#a8473c8b09bc25b4ee3ccc8ad934f1a4d" target="_top" xlink:title="Verifica el número de teléfono con un objeto de credenciales">
<polygon fill="white" stroke="black" points="619,-19.5 619,-38.5 792,-38.5 792,-19.5 619,-19.5"/>
<text text-anchor="middle" x="705.5" y="-26.5" font-family="Helvetica,sans-Serif" font-size="10.00">UserManager.VerifyPhoneCredential</text>
</a>
</g>
</g>
<!-- Node1&#45;&gt;Node2 -->
<g id="edge1" class="edge">
<title>Node1&#45;&gt;Node2</title>
<path fill="none" stroke="midnightblue" d="M817.6,-29C809.14,-29 800.52,-29 792.01,-29"/>
<polygon fill="midnightblue" stroke="midnightblue" points="817.82,-32.5 827.82,-29 817.82,-25.5 817.82,-32.5"/>
</g>
<!-- Node3 -->
<g id="node3" class="node">
<title>Node3</title>
<g id="a_node3"><a xlink:href="class_user_manager.html#a9701a3e6255dc1e9921415aa42cccf6d" target="_top" xlink:title="Envia el código SMS de verificación y lanza los posibles eventos">
<polygon fill="white" stroke="black" points="413,-38.5 413,-57.5 583,-57.5 583,-38.5 413,-38.5"/>
<text text-anchor="middle" x="498" y="-45.5" font-family="Helvetica,sans-Serif" font-size="10.00">UserManager.SendVerificationCode</text>
</a>
</g>
</g>
<!-- Node2&#45;&gt;Node3 -->
<g id="edge2" class="edge">
<title>Node2&#45;&gt;Node3</title>
<path fill="none" stroke="midnightblue" d="M608.84,-37.84C600.28,-38.64 591.65,-39.43 583.2,-40.21"/>
<polygon fill="midnightblue" stroke="midnightblue" points="609.2,-41.33 618.84,-36.92 608.56,-34.36 609.2,-41.33"/>
</g>
<!-- Node6 -->
<g id="node6" class="node">
<title>Node6</title>
<g id="a_node6"><a xlink:href="class_user_manager.html#ac1d99d0f5e70010dee110ba670f659b6" target="_top" xlink:title="Verifica el número de teléfono con el código SMS de verificación">
<polygon fill="white" stroke="black" points="433,-0.5 433,-19.5 563,-19.5 563,-0.5 433,-0.5"/>
<text text-anchor="middle" x="498" y="-7.5" font-family="Helvetica,sans-Serif" font-size="10.00">UserManager.VerifyPhone</text>
</a>
</g>
</g>
<!-- Node2&#45;&gt;Node6 -->
<g id="edge5" class="edge">
<title>Node2&#45;&gt;Node6</title>
<path fill="none" stroke="midnightblue" d="M608.74,-20.15C593.32,-18.72 577.68,-17.27 563.23,-15.94"/>
<polygon fill="midnightblue" stroke="midnightblue" points="608.56,-23.64 618.84,-21.08 609.2,-16.67 608.56,-23.64"/>
</g>
<!-- Node4 -->
<g id="node4" class="node">
<title>Node4</title>
<g id="a_node4"><a xlink:href="class_register_phone_u_i_controller.html#a41d4c768e35a4edf1db44a1807e179b5" target="_top" xlink:title="Envia el código SMS al teléfono introducido">
<polygon fill="white" stroke="black" points="194.5,-38.5 194.5,-57.5 373.5,-57.5 373.5,-38.5 194.5,-38.5"/>
<text text-anchor="middle" x="284" y="-45.5" font-family="Helvetica,sans-Serif" font-size="10.00">RegisterPhoneUIController.SendCode</text>
</a>
</g>
</g>
<!-- Node3&#45;&gt;Node4 -->
<g id="edge3" class="edge">
<title>Node3&#45;&gt;Node4</title>
<path fill="none" stroke="midnightblue" d="M402.82,-48C393.07,-48 383.19,-48 373.52,-48"/>
<polygon fill="midnightblue" stroke="midnightblue" points="402.91,-51.5 412.91,-48 402.91,-44.5 402.91,-51.5"/>
</g>
<!-- Node5 -->
<g id="node5" class="node">
<title>Node5</title>
<g id="a_node5"><a xlink:href="class_register_phone_u_i_controller.html#abecd41c11aa752bec550978e4a58d2a1" target="_top" xlink:title="Llamada justo antes del primer fotograma">
<polygon fill="white" stroke="black" points="0,-19.5 0,-38.5 155,-38.5 155,-19.5 0,-19.5"/>
<text text-anchor="middle" x="77.5" y="-26.5" font-family="Helvetica,sans-Serif" font-size="10.00">RegisterPhoneUIController.Start</text>
</a>
</g>
</g>
<!-- Node4&#45;&gt;Node5 -->
<g id="edge4" class="edge">
<title>Node4&#45;&gt;Node5</title>
<path fill="none" stroke="midnightblue" d="M184.34,-38.83C174.58,-37.93 164.77,-37.01 155.27,-36.13"/>
<polygon fill="midnightblue" stroke="midnightblue" points="184.21,-42.34 194.49,-39.78 184.86,-35.37 184.21,-42.34"/>
</g>
<!-- Node7 -->
<g id="node7" class="node">
<title>Node7</title>
<g id="a_node7"><a xlink:href="class_register_phone_u_i_controller.html#a55f0c364a3d7f1920df9790b7c63da7c" target="_top" xlink:title="Verifica el teléfono introducido con el código SMS introducido">
<polygon fill="white" stroke="black" points="191,-0.5 191,-19.5 377,-19.5 377,-0.5 191,-0.5"/>
<text text-anchor="middle" x="284" y="-7.5" font-family="Helvetica,sans-Serif" font-size="10.00">RegisterPhoneUIController.VerifyPhone</text>
</a>
</g>
</g>
<!-- Node6&#45;&gt;Node7 -->
<g id="edge6" class="edge">
<title>Node6&#45;&gt;Node7</title>
<path fill="none" stroke="midnightblue" d="M422.77,-10C408.03,-10 392.38,-10 377.12,-10"/>
<polygon fill="midnightblue" stroke="midnightblue" points="422.82,-13.5 432.82,-10 422.82,-6.5 422.82,-13.5"/>
</g>
<!-- Node7&#45;&gt;Node5 -->
<g id="edge7" class="edge">
<title>Node7&#45;&gt;Node5</title>
<path fill="none" stroke="midnightblue" d="M180.78,-19.5C172.13,-20.3 163.49,-21.1 155.08,-21.88"/>
<polygon fill="midnightblue" stroke="midnightblue" points="181.29,-22.97 190.92,-18.56 180.64,-16 181.29,-22.97"/>
</g>
</g>
</svg>
