<?xml version="1.0" encoding="UTF-8" standalone="no"?>
<!DOCTYPE svg PUBLIC "-//W3C//DTD SVG 1.1//EN"
 "http://www.w3.org/Graphics/SVG/1.1/DTD/svg11.dtd">
<!-- Generated by graphviz version 2.49.0 (20210828.1703)
 -->
<!-- Title: RegisterNameUIController.RegisterName Pages: 1 -->
<svg width="580pt" height="121pt"
 viewBox="0.00 0.00 580.00 120.75" xmlns="http://www.w3.org/2000/svg" xmlns:xlink="http://www.w3.org/1999/xlink">
<g id="graph0" class="graph" transform="scale(1 1) rotate(0) translate(4 116.75)">
<title>RegisterNameUIController.RegisterName</title>
<polygon fill="white" stroke="transparent" points="-4,4 -4,-116.75 576,-116.75 576,4 -4,4"/>
<!-- Node1 -->
<g id="node1" class="node">
<title>Node1</title>
<g id="a_node1"><a xlink:title="Registra el nombre introducido del usuario actual">
<polygon fill="#bfbfbf" stroke="black" points="0,-57.5 0,-76.5 193,-76.5 193,-57.5 0,-57.5"/>
<text text-anchor="middle" x="96.5" y="-64.5" font-family="Helvetica,sans-Serif" font-size="10.00">RegisterNameUIController.RegisterName</text>
</a>
</g>
</g>
<!-- Node2 -->
<g id="node2" class="node">
<title>Node2</title>
<g id="a_node2"><a xlink:href="class_user_manager.html#a0c464b2905659ab968549acfef58c915" target="_top" xlink:title="Cambia el nombre del usuario actual">
<polygon fill="white" stroke="black" points="417,-57.5 417,-76.5 572,-76.5 572,-57.5 417,-57.5"/>
<text text-anchor="middle" x="494.5" y="-64.5" font-family="Helvetica,sans-Serif" font-size="10.00">UserManager.ChangeUsername</text>
</a>
</g>
</g>
<!-- Node1&#45;&gt;Node2 -->
<g id="edge1" class="edge">
<title>Node1&#45;&gt;Node2</title>
<path fill="none" stroke="midnightblue" d="M122.74,-76.6C148.87,-85.99 191.12,-99.64 229,-105 295.89,-114.47 314.34,-115.95 381,-105 409.53,-100.31 440.56,-89.36 462.8,-80.41"/>
<polygon fill="midnightblue" stroke="midnightblue" points="464.14,-83.64 472.05,-76.59 461.47,-77.17 464.14,-83.64"/>
</g>
<!-- Node3 -->
<g id="node3" class="node">
<title>Node3</title>
<g id="a_node3"><a xlink:href="class_user_manager.html#a7c046e0a03e5802e7b1936f6ecdefe9e" target="_top" xlink:title="Evalua si el usuario actual esta registrado">
<polygon fill="white" stroke="black" points="229,-76.5 229,-95.5 381,-95.5 381,-76.5 229,-76.5"/>
<text text-anchor="middle" x="305" y="-83.5" font-family="Helvetica,sans-Serif" font-size="10.00">UserManager.IsUserRegistered</text>
</a>
</g>
</g>
<!-- Node1&#45;&gt;Node3 -->
<g id="edge2" class="edge">
<title>Node1&#45;&gt;Node3</title>
<path fill="none" stroke="midnightblue" d="M193.19,-75.8C201.67,-76.58 210.21,-77.37 218.6,-78.14"/>
<polygon fill="midnightblue" stroke="midnightblue" points="218.44,-81.64 228.72,-79.07 219.09,-74.67 218.44,-81.64"/>
</g>
<!-- Node4 -->
<g id="node4" class="node">
<title>Node4</title>
<g id="a_node4"><a xlink:href="class_my_scene_manager.html#a6787f49b73d5e0c4e80fd67d38f5550a" target="_top" xlink:title="Carga la escena seleccionada">
<polygon fill="white" stroke="black" points="231.5,-38.5 231.5,-57.5 378.5,-57.5 378.5,-38.5 231.5,-38.5"/>
<text text-anchor="middle" x="305" y="-45.5" font-family="Helvetica,sans-Serif" font-size="10.00">MySceneManager.LoadScene</text>
</a>
</g>
</g>
<!-- Node1&#45;&gt;Node4 -->
<g id="edge3" class="edge">
<title>Node1&#45;&gt;Node4</title>
<path fill="none" stroke="midnightblue" d="M193.19,-58.2C202.65,-57.33 212.18,-56.45 221.49,-55.59"/>
<polygon fill="midnightblue" stroke="midnightblue" points="221.84,-59.07 231.47,-54.67 221.2,-52.1 221.84,-59.07"/>
</g>
<!-- Node5 -->
<g id="node5" class="node">
<title>Node5</title>
<g id="a_node5"><a xlink:href="class_user_manager.html#a5a0827078b96620181c5f6615c218dec" target="_top" xlink:title="Registra el nombre de usuario">
<polygon fill="white" stroke="black" points="250.5,-0.5 250.5,-19.5 359.5,-19.5 359.5,-0.5 250.5,-0.5"/>
<text text-anchor="middle" x="305" y="-7.5" font-family="Helvetica,sans-Serif" font-size="10.00">UserManager.SignUp</text>
</a>
</g>
</g>
<!-- Node1&#45;&gt;Node5 -->
<g id="edge4" class="edge">
<title>Node1&#45;&gt;Node5</title>
<path fill="none" stroke="midnightblue" d="M129.3,-57.49C155.88,-49.62 194.83,-38.26 229,-29 237.57,-26.68 246.72,-24.29 255.57,-22.02"/>
<polygon fill="midnightblue" stroke="midnightblue" points="256.57,-25.38 265.4,-19.52 254.84,-18.59 256.57,-25.38"/>
</g>
<!-- Node5&#45;&gt;Node2 -->
<g id="edge5" class="edge">
<title>Node5&#45;&gt;Node2</title>
<path fill="none" stroke="midnightblue" d="M346.25,-19.58C357.54,-22.44 369.79,-25.69 381,-29 406.72,-36.59 435.35,-46.28 457.29,-53.97"/>
<polygon fill="midnightblue" stroke="midnightblue" points="456.27,-57.32 466.86,-57.35 458.6,-50.72 456.27,-57.32"/>
</g>
</g>
</svg>
