<?xml version="1.0" encoding="UTF-8" standalone="no"?>
<!DOCTYPE svg PUBLIC "-//W3C//DTD SVG 1.1//EN"
 "http://www.w3.org/Graphics/SVG/1.1/DTD/svg11.dtd">
<!-- Generated by graphviz version 2.49.0 (20210828.1703)
 -->
<!-- Title: ARGuide Pages: 1 -->
<svg width="155pt" height="237pt"
 viewBox="0.00 0.00 155.00 237.00" xmlns="http://www.w3.org/2000/svg" xmlns:xlink="http://www.w3.org/1999/xlink">
<g id="graph0" class="graph" transform="scale(1 1) rotate(0) translate(4 233)">
<title>ARGuide</title>
<polygon fill="white" stroke="transparent" points="-4,4 -4,-233 151,-233 151,4 -4,4"/>
<!-- Node1 -->
<g id="node1" class="node">
<title>Node1</title>
<g id="a_node1"><a xlink:title="Modela el comportamiento de la herramienta ARGuide">
<polygon fill="#bfbfbf" stroke="black" points="0,-0.5 0,-134.5 147,-134.5 147,-0.5 0,-0.5"/>
<text text-anchor="middle" x="73.5" y="-122.5" font-family="Helvetica,sans-Serif" font-size="10.00">ARGuide</text>
<polyline fill="none" stroke="black" points="0,-115.5 147,-115.5 "/>
<text text-anchor="start" x="8" y="-103.5" font-family="Helvetica,sans-Serif" font-size="10.00">+ Transform target</text>
<text text-anchor="start" x="8" y="-92.5" font-family="Helvetica,sans-Serif" font-size="10.00">&#45; Camera arCam</text>
<text text-anchor="start" x="8" y="-81.5" font-family="Helvetica,sans-Serif" font-size="10.00">&#45; Vector2 targetScreenPos</text>
<text text-anchor="start" x="8" y="-70.5" font-family="Helvetica,sans-Serif" font-size="10.00">&#45; Vector3 guideScreenPos</text>
<text text-anchor="start" x="8" y="-59.5" font-family="Helvetica,sans-Serif" font-size="10.00">&#45; int cursorWidth</text>
<text text-anchor="start" x="8" y="-48.5" font-family="Helvetica,sans-Serif" font-size="10.00">&#45; VideoManager videoManager</text>
<polyline fill="none" stroke="black" points="0,-41.5 147,-41.5 "/>
<text text-anchor="start" x="8" y="-29.5" font-family="Helvetica,sans-Serif" font-size="10.00">&#45; void Awake()</text>
<text text-anchor="start" x="8" y="-18.5" font-family="Helvetica,sans-Serif" font-size="10.00">&#45; void Start()</text>
<text text-anchor="start" x="8" y="-7.5" font-family="Helvetica,sans-Serif" font-size="10.00">&#45; void Update()</text>
</a>
</g>
</g>
<!-- Node2 -->
<g id="node2" class="node">
<title>Node2</title>
<g id="a_node2"><a xlink:title=" ">
<polygon fill="white" stroke="#bfbfbf" points="32,-171.5 32,-228.5 115,-228.5 115,-171.5 32,-171.5"/>
<text text-anchor="middle" x="73.5" y="-216.5" font-family="Helvetica,sans-Serif" font-size="10.00">MonoBehaviour</text>
<polyline fill="none" stroke="#bfbfbf" points="32,-209.5 115,-209.5 "/>
<text text-anchor="middle" x="73.5" y="-197.5" font-family="Helvetica,sans-Serif" font-size="10.00"> </text>
<polyline fill="none" stroke="#bfbfbf" points="32,-190.5 115,-190.5 "/>
<text text-anchor="middle" x="73.5" y="-178.5" font-family="Helvetica,sans-Serif" font-size="10.00"> </text>
</a>
</g>
</g>
<!-- Node2&#45;&gt;Node1 -->
<g id="edge1" class="edge">
<title>Node2&#45;&gt;Node1</title>
<path fill="none" stroke="midnightblue" d="M73.5,-161.16C73.5,-152.78 73.5,-143.67 73.5,-134.53"/>
<polygon fill="none" stroke="midnightblue" points="70,-161.32 73.5,-171.32 77,-161.32 70,-161.32"/>
</g>
</g>
</svg>
