<?xml version="1.0" encoding="UTF-8" standalone="no"?>
<!DOCTYPE svg PUBLIC "-//W3C//DTD SVG 1.1//EN"
 "http://www.w3.org/Graphics/SVG/1.1/DTD/svg11.dtd">
<!-- Generated by graphviz version 2.49.0 (20210828.1703)
 -->
<!-- Title: ARBrush.Update Pages: 1 -->
<svg width="280pt" height="142pt"
 viewBox="0.00 0.00 280.00 142.00" xmlns="http://www.w3.org/2000/svg" xmlns:xlink="http://www.w3.org/1999/xlink">
<g id="graph0" class="graph" transform="scale(1 1) rotate(0) translate(4 138)">
<title>ARBrush.Update</title>
<polygon fill="white" stroke="transparent" points="-4,4 -4,-138 276,-138 276,4 -4,4"/>
<!-- Node1 -->
<g id="node1" class="node">
<title>Node1</title>
<g id="a_node1"><a xlink:title="Llamada al comienzo de cada fotograma">
<polygon fill="#bfbfbf" stroke="black" points="0,-57.5 0,-76.5 89,-76.5 89,-57.5 0,-57.5"/>
<text text-anchor="middle" x="44.5" y="-64.5" font-family="Helvetica,sans-Serif" font-size="10.00">ARBrush.Update</text>
</a>
</g>
</g>
<!-- Node2 -->
<g id="node2" class="node">
<title>Node2</title>
<g id="a_node2"><a xlink:href="class_a_r_brush.html#a04bbb34c0f1929faffb5da791891d40e" target="_top" xlink:title="Crea el comienzo de la linea a dibujar">
<polygon fill="white" stroke="black" points="136,-114.5 136,-133.5 261,-133.5 261,-114.5 136,-114.5"/>
<text text-anchor="middle" x="198.5" y="-121.5" font-family="Helvetica,sans-Serif" font-size="10.00">ARBrush.createLineStart</text>
</a>
</g>
</g>
<!-- Node1&#45;&gt;Node2 -->
<g id="edge1" class="edge">
<title>Node1&#45;&gt;Node2</title>
<path fill="none" stroke="midnightblue" d="M63.08,-76.6C78.92,-84.95 103.02,-96.95 125,-105 131.72,-107.46 138.9,-109.74 146.03,-111.81"/>
<polygon fill="midnightblue" stroke="midnightblue" points="145.1,-115.18 155.68,-114.48 146.98,-108.44 145.1,-115.18"/>
</g>
<!-- Node3 -->
<g id="node3" class="node">
<title>Node3</title>
<g id="a_node3"><a xlink:href="class_a_r_brush.html#a8f61277630b09d7c276ff81d937216e9" target="_top" xlink:title="Coloca el siguiente punto en la linea que se esta dibujando actualmente">
<polygon fill="white" stroke="black" points="125,-76.5 125,-95.5 272,-95.5 272,-76.5 125,-76.5"/>
<text text-anchor="middle" x="198.5" y="-83.5" font-family="Helvetica,sans-Serif" font-size="10.00">ARBrush.drawNextPointInLine</text>
</a>
</g>
</g>
<!-- Node1&#45;&gt;Node3 -->
<g id="edge2" class="edge">
<title>Node1&#45;&gt;Node3</title>
<path fill="none" stroke="midnightblue" d="M89.06,-72.44C97.22,-73.46 105.99,-74.56 114.88,-75.67"/>
<polygon fill="midnightblue" stroke="midnightblue" points="114.59,-79.16 124.95,-76.93 115.46,-72.22 114.59,-79.16"/>
</g>
<!-- Node4 -->
<g id="node4" class="node">
<title>Node4</title>
<g id="a_node4"><a xlink:href="class_my_input_manager.html#a491307ed67b25b941ef431d5bdbdad6c" target="_top" xlink:title=" ">
<polygon fill="white" stroke="black" points="127,-38.5 127,-57.5 270,-57.5 270,-38.5 127,-38.5"/>
<text text-anchor="middle" x="198.5" y="-45.5" font-family="Helvetica,sans-Serif" font-size="10.00">MyInputManager.IsHeldDown</text>
</a>
</g>
</g>
<!-- Node1&#45;&gt;Node4 -->
<g id="edge3" class="edge">
<title>Node1&#45;&gt;Node4</title>
<path fill="none" stroke="midnightblue" d="M89.06,-61.56C97.85,-60.46 107.35,-59.27 116.95,-58.07"/>
<polygon fill="midnightblue" stroke="midnightblue" points="117.47,-61.53 126.96,-56.82 116.61,-54.58 117.47,-61.53"/>
</g>
<!-- Node5 -->
<g id="node5" class="node">
<title>Node5</title>
<g id="a_node5"><a xlink:href="class_a_r_tool_manager.html#a86782ee29e1327a2f4ab387d8438c6a7" target="_top" xlink:title="Coloca una guía en un trazo o marcador del par selecionado">
<polygon fill="white" stroke="black" points="129,-0.5 129,-19.5 268,-19.5 268,-0.5 129,-0.5"/>
<text text-anchor="middle" x="198.5" y="-7.5" font-family="Helvetica,sans-Serif" font-size="10.00">ARToolManager.PlaceGuide</text>
</a>
</g>
</g>
<!-- Node1&#45;&gt;Node5 -->
<g id="edge4" class="edge">
<title>Node1&#45;&gt;Node5</title>
<path fill="none" stroke="midnightblue" d="M63.08,-57.4C78.92,-49.05 103.02,-37.05 125,-29 131.72,-26.54 138.9,-24.26 146.03,-22.19"/>
<polygon fill="midnightblue" stroke="midnightblue" points="146.98,-25.56 155.68,-19.52 145.1,-18.82 146.98,-25.56"/>
</g>
</g>
</svg>
