<?xml version="1.0" encoding="UTF-8" standalone="no"?>
<!DOCTYPE svg PUBLIC "-//W3C//DTD SVG 1.1//EN"
 "http://www.w3.org/Graphics/SVG/1.1/DTD/svg11.dtd">
<!-- Generated by graphviz version 2.49.0 (20210828.1703)
 -->
<!-- Title: ContactsController.Awake Pages: 1 -->
<svg width="1121pt" height="180pt"
 viewBox="0.00 0.00 1121.00 180.00" xmlns="http://www.w3.org/2000/svg" xmlns:xlink="http://www.w3.org/1999/xlink">
<g id="graph0" class="graph" transform="scale(1 1) rotate(0) translate(4 176)">
<title>ContactsController.Awake</title>
<polygon fill="white" stroke="transparent" points="-4,4 -4,-176 1117,-176 1117,4 -4,4"/>
<!-- Node1 -->
<g id="node1" class="node">
<title>Node1</title>
<g id="a_node1"><a xlink:title="Llamada al crear el GameObject asociado">
<polygon fill="#bfbfbf" stroke="black" points="0,-114.5 0,-133.5 129,-133.5 129,-114.5 0,-114.5"/>
<text text-anchor="middle" x="64.5" y="-121.5" font-family="Helvetica,sans-Serif" font-size="10.00">ContactsController.Awake</text>
</a>
</g>
</g>
<!-- Node2 -->
<g id="node2" class="node">
<title>Node2</title>
<g id="a_node2"><a xlink:href="class_contacts_controller.html#aec18327c46aa4e4a17b297ed675e5c44" target="_top" xlink:title="LLamada cuando se deniegan los permisos de lectura de contactos">
<polygon fill="white" stroke="black" points="204.5,-152.5 204.5,-171.5 383.5,-171.5 383.5,-152.5 204.5,-152.5"/>
<text text-anchor="middle" x="294" y="-159.5" font-family="Helvetica,sans-Serif" font-size="10.00">ContactsController.PermissionDenied</text>
</a>
</g>
</g>
<!-- Node1&#45;&gt;Node2 -->
<g id="edge1" class="edge">
<title>Node1&#45;&gt;Node2</title>
<path fill="none" stroke="midnightblue" d="M113.25,-133.53C129.63,-136.69 148.09,-140.13 165,-143 181.14,-145.74 198.47,-148.46 214.99,-150.95"/>
<polygon fill="midnightblue" stroke="midnightblue" points="214.75,-154.45 225.16,-152.46 215.79,-147.53 214.75,-154.45"/>
</g>
<!-- Node3 -->
<g id="node3" class="node">
<title>Node3</title>
<g id="a_node3"><a xlink:href="class_contacts_controller.html#ac6213489083a627d928225564fc6aafb" target="_top" xlink:title="LLamada cuando se deniegan los permisos de lectura de contactos y se solicita que no se vuelvan a ped...">
<polygon fill="white" stroke="black" points="165,-114.5 165,-133.5 423,-133.5 423,-114.5 165,-114.5"/>
<text text-anchor="middle" x="294" y="-121.5" font-family="Helvetica,sans-Serif" font-size="10.00">ContactsController.PermissionDeniedAndDontAskAgain</text>
</a>
</g>
</g>
<!-- Node1&#45;&gt;Node3 -->
<g id="edge2" class="edge">
<title>Node1&#45;&gt;Node3</title>
<path fill="none" stroke="midnightblue" d="M129.17,-124C137.39,-124 146.04,-124 154.89,-124"/>
<polygon fill="midnightblue" stroke="midnightblue" points="154.97,-127.5 164.97,-124 154.97,-120.5 154.97,-127.5"/>
</g>
<!-- Node4 -->
<g id="node4" class="node">
<title>Node4</title>
<g id="a_node4"><a xlink:href="class_contacts_controller.html#a5523eae0297ff38bd1ee5cdaa2ead925" target="_top" xlink:title="LLamada cuando se aceptan los permisos de lectura de contactos">
<polygon fill="white" stroke="black" points="202.5,-76.5 202.5,-95.5 385.5,-95.5 385.5,-76.5 202.5,-76.5"/>
<text text-anchor="middle" x="294" y="-83.5" font-family="Helvetica,sans-Serif" font-size="10.00">ContactsController.PermissionGranted</text>
</a>
</g>
</g>
<!-- Node1&#45;&gt;Node4 -->
<g id="edge3" class="edge">
<title>Node1&#45;&gt;Node4</title>
<path fill="none" stroke="midnightblue" d="M113.25,-114.47C129.63,-111.31 148.09,-107.87 165,-105 181.14,-102.26 198.47,-99.54 214.99,-97.05"/>
<polygon fill="midnightblue" stroke="midnightblue" points="215.79,-100.47 225.16,-95.54 214.75,-93.55 215.79,-100.47"/>
</g>
<!-- Node5 -->
<g id="node5" class="node">
<title>Node5</title>
<g id="a_node5"><a xlink:href="class_contacts_controller.html#a82e0a0a5ae1fc7cbef3e4cb49d74dc31" target="_top" xlink:title="Inicializa todos los elementos necesarios de la lista de contactos y la muestra en la interfaz">
<polygon fill="white" stroke="black" points="459,-76.5 459,-95.5 622,-95.5 622,-76.5 459,-76.5"/>
<text text-anchor="middle" x="540.5" y="-83.5" font-family="Helvetica,sans-Serif" font-size="10.00">ContactsController.ShowContacts</text>
</a>
</g>
</g>
<!-- Node4&#45;&gt;Node5 -->
<g id="edge4" class="edge">
<title>Node4&#45;&gt;Node5</title>
<path fill="none" stroke="midnightblue" d="M385.7,-86C406.16,-86 427.89,-86 448.36,-86"/>
<polygon fill="midnightblue" stroke="midnightblue" points="448.63,-89.5 458.63,-86 448.63,-82.5 448.63,-89.5"/>
</g>
<!-- Node6 -->
<g id="node6" class="node">
<title>Node6</title>
<g id="a_node6"><a xlink:href="class_database_manager.html#a322c76e999c83719f38cf419cf9f800a" target="_top" xlink:title="Obtiene el userID de un usuario a partir de su número de teléfono">
<polygon fill="white" stroke="black" points="696,-133.5 696,-152.5 839,-152.5 839,-133.5 696,-133.5"/>
<text text-anchor="middle" x="767.5" y="-140.5" font-family="Helvetica,sans-Serif" font-size="10.00">DatabaseManager.GetUserID</text>
</a>
</g>
</g>
<!-- Node5&#45;&gt;Node6 -->
<g id="edge5" class="edge">
<title>Node5&#45;&gt;Node6</title>
<path fill="none" stroke="midnightblue" d="M567.11,-95.52C590.51,-103.93 626.21,-116.07 658,-124 669.31,-126.82 681.38,-129.37 693.21,-131.63"/>
<polygon fill="midnightblue" stroke="midnightblue" points="692.6,-135.07 703.07,-133.45 693.87,-128.19 692.6,-135.07"/>
</g>
<!-- Node7 -->
<g id="node7" class="node">
<title>Node7</title>
<g id="a_node7"><a xlink:href="class_room_manager.html#a022ae9cafc8dedb55ca839e0d99c5b44" target="_top" xlink:title="Mueve un par a una sala">
<polygon fill="white" stroke="black" points="705,-95.5 705,-114.5 830,-114.5 830,-95.5 705,-95.5"/>
<text text-anchor="middle" x="767.5" y="-102.5" font-family="Helvetica,sans-Serif" font-size="10.00">RoomManager.JoinRoom</text>
</a>
</g>
</g>
<!-- Node5&#45;&gt;Node7 -->
<g id="edge6" class="edge">
<title>Node5&#45;&gt;Node7</title>
<path fill="none" stroke="midnightblue" d="M622.09,-92.81C645.82,-94.81 671.61,-96.99 694.74,-98.94"/>
<polygon fill="midnightblue" stroke="midnightblue" points="694.56,-102.44 704.82,-99.79 695.15,-95.46 694.56,-102.44"/>
</g>
<!-- Node10 -->
<g id="node10" class="node">
<title>Node10</title>
<g id="a_node10"><a xlink:href="class_sharing_manager.html#a6b0c8c96f7f5624110bcf03a1c3dad3b" target="_top" xlink:title="Envia una notifiación">
<polygon fill="white" stroke="black" points="687,-57.5 687,-76.5 848,-76.5 848,-57.5 687,-57.5"/>
<text text-anchor="middle" x="767.5" y="-64.5" font-family="Helvetica,sans-Serif" font-size="10.00">SharingManager.SendNotification</text>
</a>
</g>
</g>
<!-- Node5&#45;&gt;Node10 -->
<g id="edge9" class="edge">
<title>Node5&#45;&gt;Node10</title>
<path fill="none" stroke="midnightblue" d="M622.09,-79.19C639.78,-77.7 658.61,-76.11 676.64,-74.59"/>
<polygon fill="midnightblue" stroke="midnightblue" points="677.18,-78.06 686.85,-73.73 676.59,-71.08 677.18,-78.06"/>
</g>
<!-- Node11 -->
<g id="node11" class="node">
<title>Node11</title>
<g id="a_node11"><a xlink:href="class_sharing_manager.html#aae88ccb9e92ceeed9c6e6281a192f698" target="_top" xlink:title="Comparte un código de sala con un contacto de whatsapp">
<polygon fill="white" stroke="black" points="658,-19.5 658,-38.5 877,-38.5 877,-19.5 658,-19.5"/>
<text text-anchor="middle" x="767.5" y="-26.5" font-family="Helvetica,sans-Serif" font-size="10.00">SharingManager.ShareRoomWhatsappContact</text>
</a>
</g>
</g>
<!-- Node5&#45;&gt;Node11 -->
<g id="edge10" class="edge">
<title>Node5&#45;&gt;Node11</title>
<path fill="none" stroke="midnightblue" d="M567.11,-76.48C590.51,-68.07 626.21,-55.93 658,-48 669.31,-45.18 681.38,-42.63 693.21,-40.37"/>
<polygon fill="midnightblue" stroke="midnightblue" points="693.87,-43.81 703.07,-38.55 692.6,-36.93 693.87,-43.81"/>
</g>
<!-- Node8 -->
<g id="node8" class="node">
<title>Node8</title>
<g id="a_node8"><a xlink:href="class_my_scene_manager.html#a6787f49b73d5e0c4e80fd67d38f5550a" target="_top" xlink:title="Carga la escena seleccionada">
<polygon fill="white" stroke="black" points="939.5,-123.5 939.5,-142.5 1086.5,-142.5 1086.5,-123.5 939.5,-123.5"/>
<text text-anchor="middle" x="1013" y="-130.5" font-family="Helvetica,sans-Serif" font-size="10.00">MySceneManager.LoadScene</text>
</a>
</g>
</g>
<!-- Node7&#45;&gt;Node8 -->
<g id="edge7" class="edge">
<title>Node7&#45;&gt;Node8</title>
<path fill="none" stroke="midnightblue" d="M830.26,-112.1C860.39,-115.57 897.07,-119.78 929.55,-123.52"/>
<polygon fill="midnightblue" stroke="midnightblue" points="929.16,-127 939.49,-124.66 929.96,-120.04 929.16,-127"/>
</g>
<!-- Node9 -->
<g id="node9" class="node">
<title>Node9</title>
<g id="a_node9"><a xlink:href="class_database_manager.html#a26b78f4ef7989b67f825194863df0357" target="_top" xlink:title="Evalua si un código de sala existe en base de datos">
<polygon fill="white" stroke="black" points="932.5,-85.5 932.5,-104.5 1093.5,-104.5 1093.5,-85.5 932.5,-85.5"/>
<text text-anchor="middle" x="1013" y="-92.5" font-family="Helvetica,sans-Serif" font-size="10.00">DatabaseManager.RoomIDExists</text>
</a>
</g>
</g>
<!-- Node7&#45;&gt;Node9 -->
<g id="edge8" class="edge">
<title>Node7&#45;&gt;Node9</title>
<path fill="none" stroke="midnightblue" d="M830.26,-102.46C858.11,-101.32 891.54,-99.95 922.1,-98.69"/>
<polygon fill="midnightblue" stroke="midnightblue" points="922.49,-102.18 932.33,-98.27 922.2,-95.19 922.49,-102.18"/>
</g>
<!-- Node12 -->
<g id="node12" class="node">
<title>Node12</title>
<g id="a_node12"><a xlink:href="class_sharing_manager.html#a039a42cca85530f5e71e396bda0bc95b" target="_top" xlink:title="Crea un enlace dinámico a una sala">
<polygon fill="white" stroke="black" points="913,-38.5 913,-57.5 1113,-57.5 1113,-38.5 913,-38.5"/>
<text text-anchor="middle" x="1013" y="-45.5" font-family="Helvetica,sans-Serif" font-size="10.00">SharingManager.CreateDynamicRoomLink</text>
</a>
</g>
</g>
<!-- Node11&#45;&gt;Node12 -->
<g id="edge11" class="edge">
<title>Node11&#45;&gt;Node12</title>
<path fill="none" stroke="midnightblue" d="M877.08,-37.47C885.64,-38.14 894.3,-38.82 902.87,-39.48"/>
<polygon fill="midnightblue" stroke="midnightblue" points="902.64,-42.98 912.89,-40.27 903.19,-36 902.64,-42.98"/>
</g>
<!-- Node13 -->
<g id="node13" class="node">
<title>Node13</title>
<g id="a_node13"><a xlink:href="class_sharing_manager.html#a1297b7c8e2a23a2f1b179717015405a7" target="_top" xlink:title="Crea el mensaje a compartir">
<polygon fill="white" stroke="black" points="935.5,-0.5 935.5,-19.5 1090.5,-19.5 1090.5,-0.5 935.5,-0.5"/>
<text text-anchor="middle" x="1013" y="-7.5" font-family="Helvetica,sans-Serif" font-size="10.00">SharingManager.ShareMessage</text>
</a>
</g>
</g>
<!-- Node11&#45;&gt;Node13 -->
<g id="edge12" class="edge">
<title>Node11&#45;&gt;Node13</title>
<path fill="none" stroke="midnightblue" d="M877.08,-20.53C893.2,-19.27 909.64,-17.99 925.24,-16.77"/>
<polygon fill="midnightblue" stroke="midnightblue" points="925.66,-20.25 935.36,-15.98 925.11,-13.27 925.66,-20.25"/>
</g>
</g>
</svg>
