<?xml version="1.0" encoding="UTF-8" standalone="no"?>
<!DOCTYPE svg PUBLIC "-//W3C//DTD SVG 1.1//EN"
 "http://www.w3.org/Graphics/SVG/1.1/DTD/svg11.dtd">
<!-- Generated by graphviz version 2.49.0 (20210828.1703)
 -->
<!-- Title: MyInputManager Pages: 1 -->
<svg width="196pt" height="662pt"
 viewBox="0.00 0.00 195.50 662.00" xmlns="http://www.w3.org/2000/svg" xmlns:xlink="http://www.w3.org/1999/xlink">
<g id="graph0" class="graph" transform="scale(1 1) rotate(0) translate(4 658)">
<title>MyInputManager</title>
<polygon fill="white" stroke="transparent" points="-4,4 -4,-658 191.5,-658 191.5,4 -4,4"/>
<!-- Node1 -->
<g id="node1" class="node">
<title>Node1</title>
<g id="a_node1"><a xlink:title=" ">
<polygon fill="#bfbfbf" stroke="black" points="0,-0.5 0,-211.5 116,-211.5 116,-0.5 0,-0.5"/>
<text text-anchor="middle" x="58" y="-199.5" font-family="Helvetica,sans-Serif" font-size="10.00">MyInputManager</text>
<polyline fill="none" stroke="black" points="0,-192.5 116,-192.5 "/>
<text text-anchor="start" x="8" y="-180.5" font-family="Helvetica,sans-Serif" font-size="10.00">+ myPeerType</text>
<text text-anchor="start" x="8" y="-169.5" font-family="Helvetica,sans-Serif" font-size="10.00">+ recording</text>
<text text-anchor="start" x="8" y="-158.5" font-family="Helvetica,sans-Serif" font-size="10.00">+ hostPosition</text>
<text text-anchor="start" x="8" y="-147.5" font-family="Helvetica,sans-Serif" font-size="10.00">+ clientPosition</text>
<text text-anchor="start" x="8" y="-136.5" font-family="Helvetica,sans-Serif" font-size="10.00">+ clientKeyboard</text>
<text text-anchor="start" x="8" y="-125.5" font-family="Helvetica,sans-Serif" font-size="10.00">&#45; scaledPixelRatioX</text>
<text text-anchor="start" x="8" y="-114.5" font-family="Helvetica,sans-Serif" font-size="10.00">&#45; scaledPixelRatioY</text>
<text text-anchor="start" x="8" y="-103.5" font-family="Helvetica,sans-Serif" font-size="10.00">&#45; clientAspectRatio</text>
<text text-anchor="start" x="8" y="-92.5" font-family="Helvetica,sans-Serif" font-size="10.00">&#45; croppedScreenWidth</text>
<text text-anchor="start" x="8" y="-81.5" font-family="Helvetica,sans-Serif" font-size="10.00">&#45; croppedScreenHeight</text>
<text text-anchor="start" x="8" y="-70.5" font-family="Helvetica,sans-Serif" font-size="10.00">&#45; offsetX</text>
<text text-anchor="start" x="8" y="-59.5" font-family="Helvetica,sans-Serif" font-size="10.00">&#45; offsetY</text>
<polyline fill="none" stroke="black" points="0,-52.5 116,-52.5 "/>
<text text-anchor="start" x="8" y="-40.5" font-family="Helvetica,sans-Serif" font-size="10.00">+ IsHeldDown()</text>
<text text-anchor="start" x="8" y="-29.5" font-family="Helvetica,sans-Serif" font-size="10.00">&#45; Awake()</text>
<text text-anchor="start" x="8" y="-18.5" font-family="Helvetica,sans-Serif" font-size="10.00">&#45; Start()</text>
<text text-anchor="start" x="8" y="-7.5" font-family="Helvetica,sans-Serif" font-size="10.00">&#45; Update()</text>
</a>
</g>
</g>
<!-- Node2 -->
<g id="node2" class="node">
<title>Node2</title>
<g id="a_node2"><a xlink:title=" ">
<polygon fill="white" stroke="#bfbfbf" points="12.5,-596.5 12.5,-653.5 95.5,-653.5 95.5,-596.5 12.5,-596.5"/>
<text text-anchor="middle" x="54" y="-641.5" font-family="Helvetica,sans-Serif" font-size="10.00">MonoBehaviour</text>
<polyline fill="none" stroke="#bfbfbf" points="12.5,-634.5 95.5,-634.5 "/>
<text text-anchor="middle" x="54" y="-622.5" font-family="Helvetica,sans-Serif" font-size="10.00"> </text>
<polyline fill="none" stroke="#bfbfbf" points="12.5,-615.5 95.5,-615.5 "/>
<text text-anchor="middle" x="54" y="-603.5" font-family="Helvetica,sans-Serif" font-size="10.00"> </text>
</a>
</g>
</g>
<!-- Node2&#45;&gt;Node1 -->
<g id="edge1" class="edge">
<title>Node2&#45;&gt;Node1</title>
<path fill="none" stroke="midnightblue" d="M54.29,-585.89C54.9,-507.83 56.29,-327.4 57.19,-211.66"/>
<polygon fill="none" stroke="midnightblue" points="50.79,-586.18 54.22,-596.2 57.79,-586.23 50.79,-586.18"/>
</g>
<!-- Node3 -->
<g id="node3" class="node">
<title>Node3</title>
<g id="a_node3"><a xlink:href="class_video_manager.html" target="_top" xlink:title="Maneja la lógica de la grabación y visualización de video">
<polygon fill="white" stroke="black" points="70.5,-259.5 70.5,-558.5 187.5,-558.5 187.5,-259.5 70.5,-259.5"/>
<text text-anchor="middle" x="129" y="-546.5" font-family="Helvetica,sans-Serif" font-size="10.00">VideoManager</text>
<polyline fill="none" stroke="black" points="70.5,-539.5 187.5,-539.5 "/>
<text text-anchor="start" x="78.5" y="-527.5" font-family="Helvetica,sans-Serif" font-size="10.00">+ width</text>
<text text-anchor="start" x="78.5" y="-516.5" font-family="Helvetica,sans-Serif" font-size="10.00">+ height</text>
<text text-anchor="start" x="78.5" y="-505.5" font-family="Helvetica,sans-Serif" font-size="10.00">+ aspectRatio</text>
<text text-anchor="start" x="78.5" y="-494.5" font-family="Helvetica,sans-Serif" font-size="10.00">+ bitrate</text>
<text text-anchor="start" x="78.5" y="-483.5" font-family="Helvetica,sans-Serif" font-size="10.00">+ framerate</text>
<text text-anchor="start" x="78.5" y="-472.5" font-family="Helvetica,sans-Serif" font-size="10.00">+ isRecording</text>
<text text-anchor="start" x="78.5" y="-461.5" font-family="Helvetica,sans-Serif" font-size="10.00">+ videoRawImage</text>
<text text-anchor="start" x="78.5" y="-450.5" font-family="Helvetica,sans-Serif" font-size="10.00">+ videoStreamTrack</text>
<text text-anchor="start" x="78.5" y="-439.5" font-family="Helvetica,sans-Serif" font-size="10.00">+ videoDisabled</text>
<text text-anchor="start" x="78.5" y="-428.5" font-family="Helvetica,sans-Serif" font-size="10.00">+ mainCam</text>
<text text-anchor="start" x="78.5" y="-417.5" font-family="Helvetica,sans-Serif" font-size="10.00">+ arSession</text>
<text text-anchor="start" x="78.5" y="-406.5" font-family="Helvetica,sans-Serif" font-size="10.00">&#45; arCam</text>
<text text-anchor="start" x="78.5" y="-395.5" font-family="Helvetica,sans-Serif" font-size="10.00">&#45; webCam</text>
<text text-anchor="start" x="78.5" y="-384.5" font-family="Helvetica,sans-Serif" font-size="10.00">&#45; webCamRawImage</text>
<text text-anchor="start" x="78.5" y="-373.5" font-family="Helvetica,sans-Serif" font-size="10.00">&#45; webcamTexture</text>
<text text-anchor="start" x="78.5" y="-362.5" font-family="Helvetica,sans-Serif" font-size="10.00">&#45; noVideoAR</text>
<text text-anchor="start" x="78.5" y="-351.5" font-family="Helvetica,sans-Serif" font-size="10.00">&#45; noVideoUI</text>
<text text-anchor="start" x="78.5" y="-340.5" font-family="Helvetica,sans-Serif" font-size="10.00">&#45; arToolTipsUI</text>
<polyline fill="none" stroke="black" points="70.5,-333.5 187.5,-333.5 "/>
<text text-anchor="start" x="78.5" y="-321.5" font-family="Helvetica,sans-Serif" font-size="10.00">+ RecordCamera()</text>
<text text-anchor="start" x="78.5" y="-310.5" font-family="Helvetica,sans-Serif" font-size="10.00">+ ShowVideo()</text>
<text text-anchor="start" x="78.5" y="-299.5" font-family="Helvetica,sans-Serif" font-size="10.00">+ ToggleVideo()</text>
<text text-anchor="start" x="78.5" y="-288.5" font-family="Helvetica,sans-Serif" font-size="10.00">&#45; Awake()</text>
<text text-anchor="start" x="78.5" y="-277.5" font-family="Helvetica,sans-Serif" font-size="10.00">&#45; Start()</text>
<text text-anchor="start" x="78.5" y="-266.5" font-family="Helvetica,sans-Serif" font-size="10.00">&#45; OnApplicationPause()</text>
</a>
</g>
</g>
<!-- Node2&#45;&gt;Node3 -->
<g id="edge3" class="edge">
<title>Node2&#45;&gt;Node3</title>
<path fill="none" stroke="midnightblue" d="M66.98,-586.97C69.97,-578.45 73.32,-568.87 76.89,-558.7"/>
<polygon fill="none" stroke="midnightblue" points="63.66,-585.87 63.65,-596.46 70.26,-588.18 63.66,-585.87"/>
</g>
<!-- Node3&#45;&gt;Node1 -->
<g id="edge2" class="edge">
<title>Node3&#45;&gt;Node1</title>
<path fill="none" stroke="#404040" d="M93.92,-259.26C91.12,-247.39 88.31,-235.5 85.57,-223.9"/>
<polygon fill="none" stroke="#404040" points="85.5,-223.6 80.23,-218.68 82.75,-211.92 88.02,-216.84 85.5,-223.6"/>
<text text-anchor="middle" x="123" y="-233" font-family="Helvetica,sans-Serif" font-size="10.00"> &#45;videoManager</text>
</g>
</g>
</svg>
