<?xml version="1.0" encoding="UTF-8" standalone="no"?>
<!DOCTYPE svg PUBLIC "-//W3C//DTD SVG 1.1//EN"
 "http://www.w3.org/Graphics/SVG/1.1/DTD/svg11.dtd">
<!-- Generated by graphviz version 2.49.0 (20210828.1703)
 -->
<!-- Title: AppEntryPoint.OnFirebaseReady Pages: 1 -->
<svg width="540pt" height="79pt"
 viewBox="0.00 0.00 540.00 79.10" xmlns="http://www.w3.org/2000/svg" xmlns:xlink="http://www.w3.org/1999/xlink">
<g id="graph0" class="graph" transform="scale(1 1) rotate(0) translate(4 75.1)">
<title>AppEntryPoint.OnFirebaseReady</title>
<polygon fill="white" stroke="transparent" points="-4,4 -4,-75.1 536,-75.1 536,4 -4,4"/>
<!-- Node1 -->
<g id="node1" class="node">
<title>Node1</title>
<g id="a_node1"><a xlink:title="Lanzado cuando Firebase esta inicializado">
<polygon fill="#bfbfbf" stroke="black" points="0,-38.5 0,-57.5 161,-57.5 161,-38.5 0,-38.5"/>
<text text-anchor="middle" x="80.5" y="-45.5" font-family="Helvetica,sans-Serif" font-size="10.00">AppEntryPoint.OnFirebaseReady</text>
</a>
</g>
</g>
<!-- Node2 -->
<g id="node2" class="node">
<title>Node2</title>
<g id="a_node2"><a xlink:href="class_user_manager.html#a7c046e0a03e5802e7b1936f6ecdefe9e" target="_top" xlink:title="Evalua si el usuario actual esta registrado">
<polygon fill="white" stroke="black" points="380,-38.5 380,-57.5 532,-57.5 532,-38.5 380,-38.5"/>
<text text-anchor="middle" x="456" y="-45.5" font-family="Helvetica,sans-Serif" font-size="10.00">UserManager.IsUserRegistered</text>
</a>
</g>
</g>
<!-- Node1&#45;&gt;Node2 -->
<g id="edge1" class="edge">
<title>Node1&#45;&gt;Node2</title>
<path fill="none" stroke="midnightblue" d="M128.49,-57.51C149.37,-61.28 174.32,-65.15 197,-67 262.12,-72.32 278.9,-72.53 344,-67 362.24,-65.45 381.98,-62.49 399.69,-59.36"/>
<polygon fill="midnightblue" stroke="midnightblue" points="400.65,-62.75 409.86,-57.51 399.39,-55.86 400.65,-62.75"/>
</g>
<!-- Node3 -->
<g id="node3" class="node">
<title>Node3</title>
<g id="a_node3"><a xlink:href="class_my_scene_manager.html#a6787f49b73d5e0c4e80fd67d38f5550a" target="_top" xlink:title="Carga la escena seleccionada">
<polygon fill="white" stroke="black" points="197,-38.5 197,-57.5 344,-57.5 344,-38.5 197,-38.5"/>
<text text-anchor="middle" x="270.5" y="-45.5" font-family="Helvetica,sans-Serif" font-size="10.00">MySceneManager.LoadScene</text>
</a>
</g>
</g>
<!-- Node1&#45;&gt;Node3 -->
<g id="edge2" class="edge">
<title>Node1&#45;&gt;Node3</title>
<path fill="none" stroke="midnightblue" d="M161.23,-48C169.62,-48 178.18,-48 186.61,-48"/>
<polygon fill="midnightblue" stroke="midnightblue" points="186.81,-51.5 196.81,-48 186.81,-44.5 186.81,-51.5"/>
</g>
<!-- Node4 -->
<g id="node4" class="node">
<title>Node4</title>
<g id="a_node4"><a xlink:href="class_user_manager.html#a13aa0147d1c05e969538d0c96a0a060c" target="_top" xlink:title="Loguea al usuario actual">
<polygon fill="white" stroke="black" points="220,-0.5 220,-19.5 321,-19.5 321,-0.5 220,-0.5"/>
<text text-anchor="middle" x="270.5" y="-7.5" font-family="Helvetica,sans-Serif" font-size="10.00">UserManager.LogIn</text>
</a>
</g>
</g>
<!-- Node1&#45;&gt;Node4 -->
<g id="edge3" class="edge">
<title>Node1&#45;&gt;Node4</title>
<path fill="none" stroke="midnightblue" d="M128.94,-38.41C154.31,-33.28 185.73,-26.93 212.42,-21.54"/>
<polygon fill="midnightblue" stroke="midnightblue" points="213.29,-24.93 222.4,-19.52 211.91,-18.07 213.29,-24.93"/>
</g>
<!-- Node4&#45;&gt;Node2 -->
<g id="edge4" class="edge">
<title>Node4&#45;&gt;Node2</title>
<path fill="none" stroke="midnightblue" d="M317.8,-19.59C342.46,-24.69 372.96,-31.01 398.94,-36.39"/>
<polygon fill="midnightblue" stroke="midnightblue" points="398.53,-39.88 409.03,-38.48 399.95,-33.02 398.53,-39.88"/>
</g>
</g>
</svg>
