<?xml version="1.0" encoding="UTF-8" standalone="no"?>
<!DOCTYPE svg PUBLIC "-//W3C//DTD SVG 1.1//EN"
 "http://www.w3.org/Graphics/SVG/1.1/DTD/svg11.dtd">
<!-- Generated by graphviz version 2.49.0 (20210828.1703)
 -->
<!-- Title: PeerConnectionManager Pages: 1 -->
<svg width="921pt" height="1606pt"
 viewBox="0.00 0.00 921.17 1606.00" xmlns="http://www.w3.org/2000/svg" xmlns:xlink="http://www.w3.org/1999/xlink">
<g id="graph0" class="graph" transform="scale(1 1) rotate(0) translate(4 1602)">
<title>PeerConnectionManager</title>
<polygon fill="white" stroke="transparent" points="-4,4 -4,-1602 917.17,-1602 917.17,4 -4,4"/>
<!-- Node1 -->
<g id="node1" class="node">
<title>Node1</title>
<g id="a_node1"><a xlink:title="Maneja la lógica de una conexión entre dos pares">
<polygon fill="#bfbfbf" stroke="black" points="231.67,-0.5 231.67,-387.5 539.67,-387.5 539.67,-0.5 231.67,-0.5"/>
<text text-anchor="middle" x="385.67" y="-375.5" font-family="Helvetica,sans-Serif" font-size="10.00">PeerConnectionManager</text>
<polyline fill="none" stroke="black" points="231.67,-368.5 539.67,-368.5 "/>
<text text-anchor="start" x="239.67" y="-356.5" font-family="Helvetica,sans-Serif" font-size="10.00">+ PeerType myPeerType</text>
<text text-anchor="start" x="239.67" y="-345.5" font-family="Helvetica,sans-Serif" font-size="10.00">&#45; RTCDataChannel clientInputDataChannel</text>
<text text-anchor="start" x="239.67" y="-334.5" font-family="Helvetica,sans-Serif" font-size="10.00">&#45; RTCDataChannel aspectRatioDataChannel</text>
<text text-anchor="start" x="239.67" y="-323.5" font-family="Helvetica,sans-Serif" font-size="10.00">&#45; RTCDataChannel clientActionDataChannel</text>
<text text-anchor="start" x="239.67" y="-312.5" font-family="Helvetica,sans-Serif" font-size="10.00">&#45; RTCConfiguration RTCconfig</text>
<text text-anchor="start" x="239.67" y="-301.5" font-family="Helvetica,sans-Serif" font-size="10.00">&#45; RTCPeerConnection pc</text>
<text text-anchor="start" x="239.67" y="-290.5" font-family="Helvetica,sans-Serif" font-size="10.00">&#45; RTCRtpSender videoSender</text>
<text text-anchor="start" x="239.67" y="-279.5" font-family="Helvetica,sans-Serif" font-size="10.00">&#45; MediaStream mediaStream</text>
<text text-anchor="start" x="239.67" y="-268.5" font-family="Helvetica,sans-Serif" font-size="10.00">&#45; RTCRtpSender audioSender</text>
<polyline fill="none" stroke="black" points="231.67,-261.5 539.67,-261.5 "/>
<text text-anchor="start" x="239.67" y="-249.5" font-family="Helvetica,sans-Serif" font-size="10.00">+ void HangUp()</text>
<text text-anchor="start" x="239.67" y="-238.5" font-family="Helvetica,sans-Serif" font-size="10.00">&#45; void Awake()</text>
<text text-anchor="start" x="239.67" y="-227.5" font-family="Helvetica,sans-Serif" font-size="10.00">&#45; void OnClientReadyDelegate()</text>
<text text-anchor="start" x="239.67" y="-216.5" font-family="Helvetica,sans-Serif" font-size="10.00">&#45; void OnMessageReceivedDelegate(Message msg)</text>
<text text-anchor="start" x="239.67" y="-205.5" font-family="Helvetica,sans-Serif" font-size="10.00">&#45; void Update()</text>
<text text-anchor="start" x="239.67" y="-194.5" font-family="Helvetica,sans-Serif" font-size="10.00">&#45; void EnableAudioStream(bool enabled)</text>
<text text-anchor="start" x="239.67" y="-183.5" font-family="Helvetica,sans-Serif" font-size="10.00">&#45; async void Start()</text>
<text text-anchor="start" x="239.67" y="-172.5" font-family="Helvetica,sans-Serif" font-size="10.00">&#45; bool SetVideoParameters()</text>
<text text-anchor="start" x="239.67" y="-161.5" font-family="Helvetica,sans-Serif" font-size="10.00">&#45; bool SetAudioParameters()</text>
<text text-anchor="start" x="239.67" y="-150.5" font-family="Helvetica,sans-Serif" font-size="10.00">&#45; void AddTracks()</text>
<text text-anchor="start" x="239.67" y="-139.5" font-family="Helvetica,sans-Serif" font-size="10.00">&#45; void AddDataChannels()</text>
<text text-anchor="start" x="239.67" y="-128.5" font-family="Helvetica,sans-Serif" font-size="10.00">&#45; IEnumerator Call()</text>
<text text-anchor="start" x="239.67" y="-117.5" font-family="Helvetica,sans-Serif" font-size="10.00">&#45; void OnSceneUnloaded&lt; Scene &gt;(Scene scene)</text>
<text text-anchor="start" x="239.67" y="-106.5" font-family="Helvetica,sans-Serif" font-size="10.00">&#45; void OnApplicationPause(bool paused)</text>
<text text-anchor="start" x="239.67" y="-95.5" font-family="Helvetica,sans-Serif" font-size="10.00">&#45; void OnApplicationFocus(bool focused)</text>
<text text-anchor="start" x="239.67" y="-84.5" font-family="Helvetica,sans-Serif" font-size="10.00">&#45; void OnDestroy()</text>
<text text-anchor="start" x="239.67" y="-73.5" font-family="Helvetica,sans-Serif" font-size="10.00">&#45; void OnDisconnect()</text>
<text text-anchor="start" x="239.67" y="-62.5" font-family="Helvetica,sans-Serif" font-size="10.00">&#45; IEnumerator ReadMessageDB(Message msg)</text>
<text text-anchor="start" x="239.67" y="-51.5" font-family="Helvetica,sans-Serif" font-size="10.00">&#45; async void UnReadyUser()</text>
<text text-anchor="start" x="239.67" y="-40.5" font-family="Helvetica,sans-Serif" font-size="10.00">&#45; async void ReadyUser()</text>
<text text-anchor="start" x="239.67" y="-29.5" font-family="Helvetica,sans-Serif" font-size="10.00">&#45; RTCIceCandidateInit InitIceCandidate(RTCIceCandidate candidate)</text>
<text text-anchor="start" x="239.67" y="-18.5" font-family="Helvetica,sans-Serif" font-size="10.00">&#45; bool ImHost()</text>
<text text-anchor="start" x="239.67" y="-7.5" font-family="Helvetica,sans-Serif" font-size="10.00">&#45; static RTCConfiguration ServersConfig()</text>
</a>
</g>
</g>
<!-- Node2 -->
<g id="node2" class="node">
<title>Node2</title>
<g id="a_node2"><a xlink:title=" ">
<polygon fill="white" stroke="#bfbfbf" points="371.17,-1540.5 371.17,-1597.5 454.17,-1597.5 454.17,-1540.5 371.17,-1540.5"/>
<text text-anchor="middle" x="412.67" y="-1585.5" font-family="Helvetica,sans-Serif" font-size="10.00">MonoBehaviour</text>
<polyline fill="none" stroke="#bfbfbf" points="371.17,-1578.5 454.17,-1578.5 "/>
<text text-anchor="middle" x="412.67" y="-1566.5" font-family="Helvetica,sans-Serif" font-size="10.00"> </text>
<polyline fill="none" stroke="#bfbfbf" points="371.17,-1559.5 454.17,-1559.5 "/>
<text text-anchor="middle" x="412.67" y="-1547.5" font-family="Helvetica,sans-Serif" font-size="10.00"> </text>
</a>
</g>
</g>
<!-- Node2&#45;&gt;Node1 -->
<g id="edge1" class="edge">
<title>Node2&#45;&gt;Node1</title>
<path fill="none" stroke="midnightblue" d="M360.92,-1565.1C279.63,-1559.34 127.82,-1543.35 94.67,-1503 -55.98,-1319.61 -4.95,-649 97.67,-435 126.73,-374.41 179.2,-323.65 231.46,-284.65"/>
<polygon fill="none" stroke="midnightblue" points="360.74,-1568.59 370.95,-1565.78 361.21,-1561.61 360.74,-1568.59"/>
</g>
<!-- Node3 -->
<g id="node3" class="node">
<title>Node3</title>
<g id="a_node3"><a xlink:href="class_my_input_manager.html" target="_top" xlink:title=" ">
<polygon fill="white" stroke="black" points="107.17,-457.5 107.17,-668.5 298.17,-668.5 298.17,-457.5 107.17,-457.5"/>
<text text-anchor="middle" x="202.67" y="-656.5" font-family="Helvetica,sans-Serif" font-size="10.00">MyInputManager</text>
<polyline fill="none" stroke="black" points="107.17,-649.5 298.17,-649.5 "/>
<text text-anchor="start" x="115.17" y="-637.5" font-family="Helvetica,sans-Serif" font-size="10.00">+ PeerType myPeerType</text>
<text text-anchor="start" x="115.17" y="-626.5" font-family="Helvetica,sans-Serif" font-size="10.00">+ bool recording</text>
<text text-anchor="start" x="115.17" y="-615.5" font-family="Helvetica,sans-Serif" font-size="10.00">+ Vector3 hostPosition</text>
<text text-anchor="start" x="115.17" y="-604.5" font-family="Helvetica,sans-Serif" font-size="10.00">+ Vector3 clientPosition</text>
<text text-anchor="start" x="115.17" y="-593.5" font-family="Helvetica,sans-Serif" font-size="10.00">+ TouchScreenKeyboard clientKeyboard</text>
<text text-anchor="start" x="115.17" y="-582.5" font-family="Helvetica,sans-Serif" font-size="10.00">&#45; float scaledPixelRatioX</text>
<text text-anchor="start" x="115.17" y="-571.5" font-family="Helvetica,sans-Serif" font-size="10.00">&#45; float scaledPixelRatioY</text>
<text text-anchor="start" x="115.17" y="-560.5" font-family="Helvetica,sans-Serif" font-size="10.00">&#45; float clientAspectRatio</text>
<text text-anchor="start" x="115.17" y="-549.5" font-family="Helvetica,sans-Serif" font-size="10.00">&#45; int croppedScreenWidth</text>
<text text-anchor="start" x="115.17" y="-538.5" font-family="Helvetica,sans-Serif" font-size="10.00">&#45; int croppedScreenHeight</text>
<text text-anchor="start" x="115.17" y="-527.5" font-family="Helvetica,sans-Serif" font-size="10.00">&#45; int offsetX</text>
<text text-anchor="start" x="115.17" y="-516.5" font-family="Helvetica,sans-Serif" font-size="10.00">&#45; int offsetY</text>
<polyline fill="none" stroke="black" points="107.17,-509.5 298.17,-509.5 "/>
<text text-anchor="start" x="115.17" y="-497.5" font-family="Helvetica,sans-Serif" font-size="10.00">+ bool IsHeldDown(PeerType peer)</text>
<text text-anchor="start" x="115.17" y="-486.5" font-family="Helvetica,sans-Serif" font-size="10.00">&#45; void Awake()</text>
<text text-anchor="start" x="115.17" y="-475.5" font-family="Helvetica,sans-Serif" font-size="10.00">&#45; void Start()</text>
<text text-anchor="start" x="115.17" y="-464.5" font-family="Helvetica,sans-Serif" font-size="10.00">&#45; void Update()</text>
</a>
</g>
</g>
<!-- Node2&#45;&gt;Node3 -->
<g id="edge3" class="edge">
<title>Node2&#45;&gt;Node3</title>
<path fill="none" stroke="midnightblue" d="M360.96,-1567.81C311.94,-1564.54 240.62,-1551.1 204.67,-1503 19,-1254.57 108.2,-856.78 166.26,-668.84"/>
<polygon fill="none" stroke="midnightblue" points="360.88,-1571.31 371.06,-1568.36 361.27,-1564.32 360.88,-1571.31"/>
</g>
<!-- Node4 -->
<g id="node4" class="node">
<title>Node4</title>
<g id="a_node4"><a xlink:href="class_video_manager.html" target="_top" xlink:title="Maneja la lógica de la grabación y visualización de video">
<polygon fill="white" stroke="black" points="214.17,-1203.5 214.17,-1502.5 403.17,-1502.5 403.17,-1203.5 214.17,-1203.5"/>
<text text-anchor="middle" x="308.67" y="-1490.5" font-family="Helvetica,sans-Serif" font-size="10.00">VideoManager</text>
<polyline fill="none" stroke="black" points="214.17,-1483.5 403.17,-1483.5 "/>
<text text-anchor="start" x="222.17" y="-1471.5" font-family="Helvetica,sans-Serif" font-size="10.00">+ int width</text>
<text text-anchor="start" x="222.17" y="-1460.5" font-family="Helvetica,sans-Serif" font-size="10.00">+ int height</text>
<text text-anchor="start" x="222.17" y="-1449.5" font-family="Helvetica,sans-Serif" font-size="10.00">+ float aspectRatio</text>
<text text-anchor="start" x="222.17" y="-1438.5" font-family="Helvetica,sans-Serif" font-size="10.00">+ ulong bitrate</text>
<text text-anchor="start" x="222.17" y="-1427.5" font-family="Helvetica,sans-Serif" font-size="10.00">+ uint framerate</text>
<text text-anchor="start" x="222.17" y="-1416.5" font-family="Helvetica,sans-Serif" font-size="10.00">+ bool isRecording</text>
<text text-anchor="start" x="222.17" y="-1405.5" font-family="Helvetica,sans-Serif" font-size="10.00">+ RawImage videoRawImage</text>
<text text-anchor="start" x="222.17" y="-1394.5" font-family="Helvetica,sans-Serif" font-size="10.00">+ VideoStreamTrack videoStreamTrack</text>
<text text-anchor="start" x="222.17" y="-1383.5" font-family="Helvetica,sans-Serif" font-size="10.00">+ bool videoDisabled</text>
<text text-anchor="start" x="222.17" y="-1372.5" font-family="Helvetica,sans-Serif" font-size="10.00">+ Camera mainCam</text>
<text text-anchor="start" x="222.17" y="-1361.5" font-family="Helvetica,sans-Serif" font-size="10.00">+ ARSession arSession</text>
<text text-anchor="start" x="222.17" y="-1350.5" font-family="Helvetica,sans-Serif" font-size="10.00">&#45; Camera arCam</text>
<text text-anchor="start" x="222.17" y="-1339.5" font-family="Helvetica,sans-Serif" font-size="10.00">&#45; Camera webCam</text>
<text text-anchor="start" x="222.17" y="-1328.5" font-family="Helvetica,sans-Serif" font-size="10.00">&#45; RawImage webCamRawImage</text>
<text text-anchor="start" x="222.17" y="-1317.5" font-family="Helvetica,sans-Serif" font-size="10.00">&#45; WebCamTexture webcamTexture</text>
<text text-anchor="start" x="222.17" y="-1306.5" font-family="Helvetica,sans-Serif" font-size="10.00">&#45; GameObject noVideoAR</text>
<text text-anchor="start" x="222.17" y="-1295.5" font-family="Helvetica,sans-Serif" font-size="10.00">&#45; GameObject noVideoUI</text>
<text text-anchor="start" x="222.17" y="-1284.5" font-family="Helvetica,sans-Serif" font-size="10.00">&#45; Canvas arToolTipsUI</text>
<polyline fill="none" stroke="black" points="214.17,-1277.5 403.17,-1277.5 "/>
<text text-anchor="start" x="222.17" y="-1265.5" font-family="Helvetica,sans-Serif" font-size="10.00">+ VideoStreamTrack RecordCamera()</text>
<text text-anchor="start" x="222.17" y="-1254.5" font-family="Helvetica,sans-Serif" font-size="10.00">+ void ShowVideo(bool show)</text>
<text text-anchor="start" x="222.17" y="-1243.5" font-family="Helvetica,sans-Serif" font-size="10.00">+ bool ToggleVideo()</text>
<text text-anchor="start" x="222.17" y="-1232.5" font-family="Helvetica,sans-Serif" font-size="10.00">&#45; void Awake()</text>
<text text-anchor="start" x="222.17" y="-1221.5" font-family="Helvetica,sans-Serif" font-size="10.00">&#45; void Start()</text>
<text text-anchor="start" x="222.17" y="-1210.5" font-family="Helvetica,sans-Serif" font-size="10.00">&#45; void OnApplicationPause(bool paused)</text>
</a>
</g>
</g>
<!-- Node2&#45;&gt;Node4 -->
<g id="edge5" class="edge">
<title>Node2&#45;&gt;Node4</title>
<path fill="none" stroke="midnightblue" d="M394.81,-1531.25C390.64,-1522.65 385.93,-1512.98 380.94,-1502.7"/>
<polygon fill="none" stroke="midnightblue" points="391.77,-1533 399.29,-1540.46 398.07,-1529.94 391.77,-1533"/>
</g>
<!-- Node5 -->
<g id="node5" class="node">
<title>Node5</title>
<g id="a_node5"><a xlink:href="class_audio_manager.html" target="_top" xlink:title="Maneja la lógica de la captura y reproducción de audio">
<polygon fill="white" stroke="black" points="315.17,-709.5 315.17,-1184.5 596.17,-1184.5 596.17,-709.5 315.17,-709.5"/>
<text text-anchor="middle" x="455.67" y="-1172.5" font-family="Helvetica,sans-Serif" font-size="10.00">AudioManager</text>
<polyline fill="none" stroke="black" points="315.17,-1165.5 596.17,-1165.5 "/>
<text text-anchor="start" x="323.17" y="-1153.5" font-family="Helvetica,sans-Serif" font-size="10.00">+ bool audioReady</text>
<text text-anchor="start" x="323.17" y="-1142.5" font-family="Helvetica,sans-Serif" font-size="10.00">+ AudioSource outputAudioSource</text>
<text text-anchor="start" x="323.17" y="-1131.5" font-family="Helvetica,sans-Serif" font-size="10.00">+ AudioSource inputAudioSource</text>
<text text-anchor="start" x="323.17" y="-1120.5" font-family="Helvetica,sans-Serif" font-size="10.00">+ int bufferSize</text>
<text text-anchor="start" x="323.17" y="-1109.5" font-family="Helvetica,sans-Serif" font-size="10.00">+ ulong? bitrate</text>
<text text-anchor="start" x="323.17" y="-1098.5" font-family="Helvetica,sans-Serif" font-size="10.00">&#45; AudioStreamTrack audioStreamTrack</text>
<text text-anchor="start" x="323.17" y="-1087.5" font-family="Helvetica,sans-Serif" font-size="10.00">&#45; int lengthSeconds</text>
<text text-anchor="start" x="323.17" y="-1076.5" font-family="Helvetica,sans-Serif" font-size="10.00">&#45; int samplingFreq</text>
<text text-anchor="start" x="323.17" y="-1065.5" font-family="Helvetica,sans-Serif" font-size="10.00">&#45; AndroidJavaObject context</text>
<text text-anchor="start" x="323.17" y="-1054.5" font-family="Helvetica,sans-Serif" font-size="10.00">&#45; AndroidJavaObject androidAudioManager</text>
<text text-anchor="start" x="323.17" y="-1043.5" font-family="Helvetica,sans-Serif" font-size="10.00">&#45; int defaultMode</text>
<text text-anchor="start" x="323.17" y="-1032.5" font-family="Helvetica,sans-Serif" font-size="10.00">&#45; bool defaultIsSpeakerphone</text>
<text text-anchor="start" x="323.17" y="-1021.5" font-family="Helvetica,sans-Serif" font-size="10.00">&#45; int voiceMinVol</text>
<text text-anchor="start" x="323.17" y="-1010.5" font-family="Helvetica,sans-Serif" font-size="10.00">&#45; int mediaMinVol</text>
<text text-anchor="start" x="323.17" y="-999.5" font-family="Helvetica,sans-Serif" font-size="10.00">&#45; int voiceMaxVol</text>
<text text-anchor="start" x="323.17" y="-988.5" font-family="Helvetica,sans-Serif" font-size="10.00">&#45; int mediaMaxVol</text>
<text text-anchor="start" x="323.17" y="-977.5" font-family="Helvetica,sans-Serif" font-size="10.00">&#45; int originalMediaVol</text>
<text text-anchor="start" x="323.17" y="-966.5" font-family="Helvetica,sans-Serif" font-size="10.00">&#45; PermissionCallbacks microphoneCallbacks</text>
<text text-anchor="start" x="323.17" y="-955.5" font-family="Helvetica,sans-Serif" font-size="10.00">&#45; bool muted</text>
<text text-anchor="start" x="323.17" y="-944.5" font-family="Helvetica,sans-Serif" font-size="10.00">&#45; string communicationDevice</text>
<text text-anchor="start" x="323.17" y="-933.5" font-family="Helvetica,sans-Serif" font-size="10.00">&#45; float[] spectrum</text>
<text text-anchor="start" x="323.17" y="-922.5" font-family="Helvetica,sans-Serif" font-size="10.00">&#45; int voiceVolume</text>
<text text-anchor="start" x="323.17" y="-911.5" font-family="Helvetica,sans-Serif" font-size="10.00">&#45; int lastCallVolume</text>
<polyline fill="none" stroke="black" points="315.17,-904.5 596.17,-904.5 "/>
<text text-anchor="start" x="323.17" y="-892.5" font-family="Helvetica,sans-Serif" font-size="10.00">+ bool ToggleMuteInput()</text>
<text text-anchor="start" x="323.17" y="-881.5" font-family="Helvetica,sans-Serif" font-size="10.00">+ bool ToggleMuteOutput()</text>
<text text-anchor="start" x="323.17" y="-870.5" font-family="Helvetica,sans-Serif" font-size="10.00">+ AudioStreamTrack RecordAudio()</text>
<text text-anchor="start" x="323.17" y="-859.5" font-family="Helvetica,sans-Serif" font-size="10.00">+ void PlayAudio(AudioClip clip)</text>
<text text-anchor="start" x="323.17" y="-848.5" font-family="Helvetica,sans-Serif" font-size="10.00">+ float GetVolume(AudioSource audioSource)</text>
<text text-anchor="start" x="323.17" y="-837.5" font-family="Helvetica,sans-Serif" font-size="10.00">&#45; void Awake()</text>
<text text-anchor="start" x="323.17" y="-826.5" font-family="Helvetica,sans-Serif" font-size="10.00">&#45; void Start()</text>
<text text-anchor="start" x="323.17" y="-815.5" font-family="Helvetica,sans-Serif" font-size="10.00">&#45; void Update()</text>
<text text-anchor="start" x="323.17" y="-804.5" font-family="Helvetica,sans-Serif" font-size="10.00">&#45; void SetVideocallAudio(int mode, bool isSpeakerphoneOn)</text>
<text text-anchor="start" x="323.17" y="-793.5" font-family="Helvetica,sans-Serif" font-size="10.00">&#45; float scaleValueToRange(float value, float</text>
<text text-anchor="start" x="323.17" y="-782.5" font-family="Helvetica,sans-Serif" font-size="10.00"> valueMin, float valueMax, float rangeMin,</text>
<text text-anchor="start" x="323.17" y="-771.5" font-family="Helvetica,sans-Serif" font-size="10.00"> float rangeMax)</text>
<text text-anchor="start" x="323.17" y="-760.5" font-family="Helvetica,sans-Serif" font-size="10.00">&#45; void MicrophonePermissionGranted(string permissionName)</text>
<text text-anchor="start" x="323.17" y="-749.5" font-family="Helvetica,sans-Serif" font-size="10.00">&#45; void MicrophonePermissionDenied(string permissionName)</text>
<text text-anchor="start" x="323.17" y="-738.5" font-family="Helvetica,sans-Serif" font-size="10.00">&#45; void MicrophonePermissionDeniedAndDontAskAgain</text>
<text text-anchor="start" x="323.17" y="-727.5" font-family="Helvetica,sans-Serif" font-size="10.00">(string permissionName)</text>
<text text-anchor="start" x="323.17" y="-716.5" font-family="Helvetica,sans-Serif" font-size="10.00">&#45; void OnDestroy()</text>
</a>
</g>
</g>
<!-- Node2&#45;&gt;Node5 -->
<g id="edge8" class="edge">
<title>Node2&#45;&gt;Node5</title>
<path fill="none" stroke="midnightblue" d="M415.31,-1529.93C420.03,-1461.88 430.27,-1314.35 439.25,-1184.87"/>
<polygon fill="none" stroke="midnightblue" points="411.81,-1529.94 414.6,-1540.16 418.79,-1530.42 411.81,-1529.94"/>
</g>
<!-- Node6 -->
<g id="node6" class="node">
<title>Node6</title>
<g id="a_node6"><a xlink:href="class_client_manager.html" target="_top" xlink:title="Maneja la lógica las acciones del cliente">
<polygon fill="white" stroke="black" points="601.17,-902 601.17,-992 766.17,-992 766.17,-902 601.17,-902"/>
<text text-anchor="middle" x="683.67" y="-980" font-family="Helvetica,sans-Serif" font-size="10.00">ClientManager</text>
<polyline fill="none" stroke="black" points="601.17,-973 766.17,-973 "/>
<text text-anchor="middle" x="683.67" y="-961" font-family="Helvetica,sans-Serif" font-size="10.00"> </text>
<polyline fill="none" stroke="black" points="601.17,-954 766.17,-954 "/>
<text text-anchor="start" x="609.17" y="-942" font-family="Helvetica,sans-Serif" font-size="10.00">+ void SelectTool(string toolName)</text>
<text text-anchor="start" x="609.17" y="-931" font-family="Helvetica,sans-Serif" font-size="10.00">+ void UndoDrawing()</text>
<text text-anchor="start" x="609.17" y="-920" font-family="Helvetica,sans-Serif" font-size="10.00">+ void DeleteDrawings(string peer)</text>
<text text-anchor="start" x="609.17" y="-909" font-family="Helvetica,sans-Serif" font-size="10.00">+ void SelectColor(string color)</text>
</a>
</g>
</g>
<!-- Node2&#45;&gt;Node6 -->
<g id="edge10" class="edge">
<title>Node2&#45;&gt;Node6</title>
<path fill="none" stroke="midnightblue" d="M432.05,-1531.11C467.23,-1463.47 543.01,-1314.65 597.67,-1185 625.56,-1118.86 653.01,-1040.19 669.14,-992.2"/>
<polygon fill="none" stroke="midnightblue" points="428.88,-1529.62 427.37,-1540.1 435.09,-1532.85 428.88,-1529.62"/>
</g>
<!-- Node7 -->
<g id="node7" class="node">
<title>Node7</title>
<g id="a_node7"><a xlink:href="class_a_r_tool_manager.html" target="_top" xlink:title="Maneja la lógica de las herramientas de RA">
<polygon fill="white" stroke="black" points="634.17,-435.5 634.17,-690.5 913.17,-690.5 913.17,-435.5 634.17,-435.5"/>
<text text-anchor="middle" x="773.67" y="-678.5" font-family="Helvetica,sans-Serif" font-size="10.00">ARToolManager</text>
<polyline fill="none" stroke="black" points="634.17,-671.5 913.17,-671.5 "/>
<text text-anchor="start" x="642.17" y="-659.5" font-family="Helvetica,sans-Serif" font-size="10.00">+ bool recording</text>
<text text-anchor="start" x="642.17" y="-648.5" font-family="Helvetica,sans-Serif" font-size="10.00">+ Material hostMaterial</text>
<text text-anchor="start" x="642.17" y="-637.5" font-family="Helvetica,sans-Serif" font-size="10.00">+ Material clientMaterial</text>
<text text-anchor="start" x="642.17" y="-626.5" font-family="Helvetica,sans-Serif" font-size="10.00">+ Material ColorRed</text>
<text text-anchor="start" x="642.17" y="-615.5" font-family="Helvetica,sans-Serif" font-size="10.00">+ Material ColorBlue</text>
<text text-anchor="start" x="642.17" y="-604.5" font-family="Helvetica,sans-Serif" font-size="10.00">+ Material ColorGreen</text>
<text text-anchor="start" x="642.17" y="-593.5" font-family="Helvetica,sans-Serif" font-size="10.00">+ Material ColorYellow</text>
<text text-anchor="start" x="642.17" y="-582.5" font-family="Helvetica,sans-Serif" font-size="10.00">+ GameObject guidePrefab</text>
<text text-anchor="start" x="642.17" y="-571.5" font-family="Helvetica,sans-Serif" font-size="10.00">+ static GameObject hostDrawings</text>
<text text-anchor="start" x="642.17" y="-560.5" font-family="Helvetica,sans-Serif" font-size="10.00">+ static GameObject clientDrawings</text>
<text text-anchor="start" x="642.17" y="-549.5" font-family="Helvetica,sans-Serif" font-size="10.00">+ static GameObject hostGuides</text>
<text text-anchor="start" x="642.17" y="-538.5" font-family="Helvetica,sans-Serif" font-size="10.00">+ static GameObject clientGuides</text>
<text text-anchor="start" x="642.17" y="-527.5" font-family="Helvetica,sans-Serif" font-size="10.00">&#45; GameObject hostTools</text>
<text text-anchor="start" x="642.17" y="-516.5" font-family="Helvetica,sans-Serif" font-size="10.00">&#45; GameObject clientTools</text>
<polyline fill="none" stroke="black" points="634.17,-509.5 913.17,-509.5 "/>
<text text-anchor="start" x="642.17" y="-497.5" font-family="Helvetica,sans-Serif" font-size="10.00">+ void SelectTool(PeerType peer, string toolName)</text>
<text text-anchor="start" x="642.17" y="-486.5" font-family="Helvetica,sans-Serif" font-size="10.00">+ void UndoDrawing(string peer)</text>
<text text-anchor="start" x="642.17" y="-475.5" font-family="Helvetica,sans-Serif" font-size="10.00">+ void DeleteDrawings(string peer)</text>
<text text-anchor="start" x="642.17" y="-464.5" font-family="Helvetica,sans-Serif" font-size="10.00">+ void SelectColor(PeerType peer, string color)</text>
<text text-anchor="start" x="642.17" y="-453.5" font-family="Helvetica,sans-Serif" font-size="10.00">+ GameObject PlaceGuide(PeerType peer, Transform target)</text>
<text text-anchor="start" x="642.17" y="-442.5" font-family="Helvetica,sans-Serif" font-size="10.00">&#45; void Awake()</text>
</a>
</g>
</g>
<!-- Node2&#45;&gt;Node7 -->
<g id="edge12" class="edge">
<title>Node2&#45;&gt;Node7</title>
<path fill="none" stroke="midnightblue" d="M463.51,-1546.62C486.14,-1535.61 512.24,-1520.76 532.67,-1503 665.33,-1387.73 711.89,-1351.65 767.67,-1185 822.56,-1021.03 811.04,-818.79 794.76,-690.58"/>
<polygon fill="none" stroke="midnightblue" points="461.91,-1543.5 454.37,-1550.94 464.91,-1549.83 461.91,-1543.5"/>
</g>
<!-- Node3&#45;&gt;Node1 -->
<g id="edge2" class="edge">
<title>Node3&#45;&gt;Node1</title>
<path fill="none" stroke="#404040" d="M234.54,-457.5C240.89,-440.03 248,-422.31 255.67,-406 256.85,-403.51 258.04,-401.01 259.26,-398.51"/>
<polygon fill="none" stroke="#404040" points="259.38,-398.25 258.46,-391.1 264.71,-387.5 265.63,-394.65 259.38,-398.25"/>
<text text-anchor="middle" x="288.17" y="-409" font-family="Helvetica,sans-Serif" font-size="10.00"> &#45;inputManager</text>
</g>
<!-- Node4&#45;&gt;Node1 -->
<g id="edge6" class="edge">
<title>Node4&#45;&gt;Node1</title>
<path fill="none" stroke="#404040" d="M303.88,-1203.43C300.25,-1021.35 301.24,-703.86 339.67,-435 341.33,-423.42 343.16,-411.56 345.11,-399.6"/>
<polygon fill="none" stroke="#404040" points="345.14,-399.46 342.17,-392.88 347.1,-387.62 350.06,-394.19 345.14,-399.46"/>
<text text-anchor="middle" x="372.67" y="-560.5" font-family="Helvetica,sans-Serif" font-size="10.00"> &#45;videoManager</text>
</g>
<!-- Node4&#45;&gt;Node3 -->
<g id="edge4" class="edge">
<title>Node4&#45;&gt;Node3</title>
<path fill="none" stroke="#404040" d="M225.17,-1203.14C223.12,-1197.09 221.27,-1191.03 219.67,-1185 195.4,-1093.19 196.48,-833.82 199.51,-680.87"/>
<polygon fill="none" stroke="#404040" points="199.52,-680.68 195.64,-674.6 199.76,-668.69 203.64,-674.77 199.52,-680.68"/>
<text text-anchor="middle" x="252.67" y="-944.5" font-family="Helvetica,sans-Serif" font-size="10.00"> &#45;videoManager</text>
</g>
<!-- Node5&#45;&gt;Node1 -->
<g id="edge7" class="edge">
<title>Node5&#45;&gt;Node1</title>
<path fill="none" stroke="#404040" d="M433.62,-709.41C424.36,-610.04 413.69,-495.57 404.77,-399.87"/>
<polygon fill="none" stroke="#404040" points="404.75,-399.65 400.21,-394.04 403.63,-387.7 408.17,-393.3 404.75,-399.65"/>
<text text-anchor="middle" x="465.17" y="-560.5" font-family="Helvetica,sans-Serif" font-size="10.00"> &#45;audioManager</text>
</g>
<!-- Node6&#45;&gt;Node1 -->
<g id="edge9" class="edge">
<title>Node6&#45;&gt;Node1</title>
<path fill="none" stroke="#404040" d="M678.05,-901.82C669.3,-849.81 647.88,-763.63 597.67,-709 584.76,-694.94 570.63,-705.88 558.67,-691 485.72,-600.21 540.91,-545.01 502.67,-435 498.51,-423.02 493.9,-410.85 488.98,-398.68"/>
<polygon fill="none" stroke="#404040" points="488.95,-398.6 482.97,-394.58 484.39,-387.51 490.37,-391.53 488.95,-398.6"/>
<text text-anchor="middle" x="592.17" y="-560.5" font-family="Helvetica,sans-Serif" font-size="10.00"> &#45;clientManager</text>
</g>
<!-- Node7&#45;&gt;Node1 -->
<g id="edge11" class="edge">
<title>Node7&#45;&gt;Node1</title>
<path fill="none" stroke="#404040" d="M639.87,-435.44C610.56,-407.71 579.2,-378.06 548.88,-349.37"/>
<polygon fill="none" stroke="#404040" points="548.65,-349.16 541.54,-347.94 539.93,-340.91 547.04,-342.13 548.65,-349.16"/>
<text text-anchor="middle" x="648.67" y="-409" font-family="Helvetica,sans-Serif" font-size="10.00"> &#45;arToolManager</text>
</g>
</g>
</svg>
