<?xml version="1.0" encoding="UTF-8" standalone="no"?>
<!DOCTYPE svg PUBLIC "-//W3C//DTD SVG 1.1//EN"
 "http://www.w3.org/Graphics/SVG/1.1/DTD/svg11.dtd">
<!-- Generated by graphviz version 2.49.0 (20210828.1703)
 -->
<!-- Title: UserManager.LogIn Pages: 1 -->
<svg width="471pt" height="66pt"
 viewBox="0.00 0.00 471.00 66.00" xmlns="http://www.w3.org/2000/svg" xmlns:xlink="http://www.w3.org/1999/xlink">
<g id="graph0" class="graph" transform="scale(1 1) rotate(0) translate(4 62)">
<title>UserManager.LogIn</title>
<polygon fill="white" stroke="transparent" points="-4,4 -4,-62 467,-62 467,4 -4,4"/>
<!-- Node1 -->
<g id="node1" class="node">
<title>Node1</title>
<g id="a_node1"><a xlink:title="Loguea al usuario actual">
<polygon fill="#bfbfbf" stroke="black" points="362,-19.5 362,-38.5 463,-38.5 463,-19.5 362,-19.5"/>
<text text-anchor="middle" x="412.5" y="-26.5" font-family="Helvetica,sans-Serif" font-size="10.00">UserManager.LogIn</text>
</a>
</g>
</g>
<!-- Node2 -->
<g id="node2" class="node">
<title>Node2</title>
<g id="a_node2"><a xlink:href="class_app_entry_point.html#a31fdab16b3f5f842587ae877d564b041" target="_top" xlink:title="Lanzado cuando Firebase esta inicializado">
<polygon fill="white" stroke="black" points="165,-19.5 165,-38.5 326,-38.5 326,-19.5 165,-19.5"/>
<text text-anchor="middle" x="245.5" y="-26.5" font-family="Helvetica,sans-Serif" font-size="10.00">AppEntryPoint.OnFirebaseReady</text>
</a>
</g>
</g>
<!-- Node1&#45;&gt;Node2 -->
<g id="edge1" class="edge">
<title>Node1&#45;&gt;Node2</title>
<path fill="none" stroke="midnightblue" d="M351.98,-29C343.6,-29 334.89,-29 326.21,-29"/>
<polygon fill="midnightblue" stroke="midnightblue" points="351.99,-32.5 361.99,-29 351.99,-25.5 351.99,-32.5"/>
</g>
<!-- Node3 -->
<g id="node3" class="node">
<title>Node3</title>
<g id="a_node3"><a xlink:href="class_app_entry_point.html#ac431add7aa1c5d78adfed6782eedd949" target="_top" xlink:title="Llamada al crear el GameObject asociado">
<polygon fill="white" stroke="black" points="8.5,-38.5 8.5,-57.5 120.5,-57.5 120.5,-38.5 8.5,-38.5"/>
<text text-anchor="middle" x="64.5" y="-45.5" font-family="Helvetica,sans-Serif" font-size="10.00">AppEntryPoint.Awake</text>
</a>
</g>
</g>
<!-- Node2&#45;&gt;Node3 -->
<g id="edge2" class="edge">
<title>Node2&#45;&gt;Node3</title>
<path fill="none" stroke="midnightblue" d="M154.75,-38.53C143.13,-39.76 131.52,-40.99 120.7,-42.14"/>
<polygon fill="midnightblue" stroke="midnightblue" points="155.37,-41.98 164.95,-37.44 154.63,-35.02 155.37,-41.98"/>
</g>
<!-- Node4 -->
<g id="node4" class="node">
<title>Node4</title>
<g id="a_node4"><a xlink:href="class_app_entry_point.html#afc6b25a70732c6bcf06409f22a586861" target="_top" xlink:title="Llamadada cuando se destruye el GameObject asociado">
<polygon fill="white" stroke="black" points="0,-0.5 0,-19.5 129,-19.5 129,-0.5 0,-0.5"/>
<text text-anchor="middle" x="64.5" y="-7.5" font-family="Helvetica,sans-Serif" font-size="10.00">AppEntryPoint.OnDestroy</text>
</a>
</g>
</g>
<!-- Node2&#45;&gt;Node4 -->
<g id="edge3" class="edge">
<title>Node2&#45;&gt;Node4</title>
<path fill="none" stroke="midnightblue" d="M154.82,-19.48C146.19,-18.56 137.55,-17.65 129.24,-16.77"/>
<polygon fill="midnightblue" stroke="midnightblue" points="154.63,-22.98 164.95,-20.56 155.37,-16.02 154.63,-22.98"/>
</g>
</g>
</svg>
