<?xml version="1.0" encoding="UTF-8" standalone="no"?>
<!DOCTYPE svg PUBLIC "-//W3C//DTD SVG 1.1//EN"
 "http://www.w3.org/Graphics/SVG/1.1/DTD/svg11.dtd">
<!-- Generated by graphviz version 2.49.0 (20210828.1703)
 -->
<!-- Title: ARPointer Pages: 1 -->
<svg width="170pt" height="237pt"
 viewBox="0.00 0.00 170.00 237.00" xmlns="http://www.w3.org/2000/svg" xmlns:xlink="http://www.w3.org/1999/xlink">
<g id="graph0" class="graph" transform="scale(1 1) rotate(0) translate(4 233)">
<title>ARPointer</title>
<polygon fill="white" stroke="transparent" points="-4,4 -4,-233 166,-233 166,4 -4,4"/>
<!-- Node1 -->
<g id="node1" class="node">
<title>Node1</title>
<g id="a_node1"><a xlink:title="Modela el comportamiento de la herramienta ARPointer">
<polygon fill="#bfbfbf" stroke="black" points="0,-0.5 0,-134.5 162,-134.5 162,-0.5 0,-0.5"/>
<text text-anchor="middle" x="81" y="-122.5" font-family="Helvetica,sans-Serif" font-size="10.00">ARPointer</text>
<polyline fill="none" stroke="black" points="0,-115.5 162,-115.5 "/>
<text text-anchor="start" x="8" y="-103.5" font-family="Helvetica,sans-Serif" font-size="10.00">&#45; PeerType myPeerType</text>
<text text-anchor="start" x="8" y="-92.5" font-family="Helvetica,sans-Serif" font-size="10.00">&#45; MyInputManager inputManager</text>
<text text-anchor="start" x="8" y="-81.5" font-family="Helvetica,sans-Serif" font-size="10.00">&#45; int cursorWidth</text>
<text text-anchor="start" x="8" y="-70.5" font-family="Helvetica,sans-Serif" font-size="10.00">&#45; GameObject pointer</text>
<text text-anchor="start" x="8" y="-59.5" font-family="Helvetica,sans-Serif" font-size="10.00">&#45; VideoManager videoManager</text>
<text text-anchor="start" x="8" y="-48.5" font-family="Helvetica,sans-Serif" font-size="10.00">&#45; ARToolManager aRToolManager</text>
<polyline fill="none" stroke="black" points="0,-41.5 162,-41.5 "/>
<text text-anchor="start" x="8" y="-29.5" font-family="Helvetica,sans-Serif" font-size="10.00">&#45; void Awake()</text>
<text text-anchor="start" x="8" y="-18.5" font-family="Helvetica,sans-Serif" font-size="10.00">&#45; void Start()</text>
<text text-anchor="start" x="8" y="-7.5" font-family="Helvetica,sans-Serif" font-size="10.00">&#45; void Update()</text>
</a>
</g>
</g>
<!-- Node2 -->
<g id="node2" class="node">
<title>Node2</title>
<g id="a_node2"><a xlink:title=" ">
<polygon fill="white" stroke="#bfbfbf" points="39.5,-171.5 39.5,-228.5 122.5,-228.5 122.5,-171.5 39.5,-171.5"/>
<text text-anchor="middle" x="81" y="-216.5" font-family="Helvetica,sans-Serif" font-size="10.00">MonoBehaviour</text>
<polyline fill="none" stroke="#bfbfbf" points="39.5,-209.5 122.5,-209.5 "/>
<text text-anchor="middle" x="81" y="-197.5" font-family="Helvetica,sans-Serif" font-size="10.00"> </text>
<polyline fill="none" stroke="#bfbfbf" points="39.5,-190.5 122.5,-190.5 "/>
<text text-anchor="middle" x="81" y="-178.5" font-family="Helvetica,sans-Serif" font-size="10.00"> </text>
</a>
</g>
</g>
<!-- Node2&#45;&gt;Node1 -->
<g id="edge1" class="edge">
<title>Node2&#45;&gt;Node1</title>
<path fill="none" stroke="midnightblue" d="M81,-161.16C81,-152.78 81,-143.67 81,-134.53"/>
<polygon fill="none" stroke="midnightblue" points="77.5,-161.32 81,-171.32 84.5,-161.32 77.5,-161.32"/>
</g>
</g>
</svg>
