<?xml version="1.0" encoding="UTF-8" standalone="no"?>
<!DOCTYPE svg PUBLIC "-//W3C//DTD SVG 1.1//EN"
 "http://www.w3.org/Graphics/SVG/1.1/DTD/svg11.dtd">
<!-- Generated by graphviz version 2.49.0 (20210828.1703)
 -->
<!-- Title: MicrophoneListener.Update Pages: 1 -->
<svg width="662pt" height="142pt"
 viewBox="0.00 0.00 662.00 142.00" xmlns="http://www.w3.org/2000/svg" xmlns:xlink="http://www.w3.org/1999/xlink">
<g id="graph0" class="graph" transform="scale(1 1) rotate(0) translate(4 138)">
<title>MicrophoneListener.Update</title>
<polygon fill="white" stroke="transparent" points="-4,4 -4,-138 658,-138 658,4 -4,4"/>
<!-- Node1 -->
<g id="node1" class="node">
<title>Node1</title>
<g id="a_node1"><a xlink:title=" ">
<polygon fill="#bfbfbf" stroke="black" points="0,-57.5 0,-76.5 135,-76.5 135,-57.5 0,-57.5"/>
<text text-anchor="middle" x="67.5" y="-64.5" font-family="Helvetica,sans-Serif" font-size="10.00">MicrophoneListener.Update</text>
</a>
</g>
</g>
<!-- Node2 -->
<g id="node2" class="node">
<title>Node2</title>
<g id="a_node2"><a xlink:href="class_microphone_listener.html#a4a8d3eaffa2525eb170ad14f80d2fb6b" target="_top" xlink:title=" ">
<polygon fill="white" stroke="black" points="202,-114.5 202,-133.5 366,-133.5 366,-114.5 202,-114.5"/>
<text text-anchor="middle" x="284" y="-121.5" font-family="Helvetica,sans-Serif" font-size="10.00">MicrophoneListener.DisableSound</text>
</a>
</g>
</g>
<!-- Node1&#45;&gt;Node2 -->
<g id="edge1" class="edge">
<title>Node1&#45;&gt;Node2</title>
<path fill="none" stroke="midnightblue" d="M90.51,-76.53C111,-85.07 142.58,-97.39 171,-105 181.76,-107.88 193.22,-110.41 204.55,-112.61"/>
<polygon fill="midnightblue" stroke="midnightblue" points="203.98,-116.07 214.45,-114.46 205.26,-109.19 203.98,-116.07"/>
</g>
<!-- Node3 -->
<g id="node3" class="node">
<title>Node3</title>
<g id="a_node3"><a xlink:href="class_microphone_listener.html#ae8287ee5dca8b1d320f547451a116171" target="_top" xlink:title=" ">
<polygon fill="white" stroke="black" points="171,-76.5 171,-95.5 397,-95.5 397,-76.5 171,-76.5"/>
<text text-anchor="middle" x="284" y="-83.5" font-family="Helvetica,sans-Serif" font-size="10.00">MicrophoneListener.MicrophoneIntoAudioSource</text>
</a>
</g>
</g>
<!-- Node1&#45;&gt;Node3 -->
<g id="edge2" class="edge">
<title>Node1&#45;&gt;Node3</title>
<path fill="none" stroke="midnightblue" d="M135.19,-72.91C144.79,-73.76 154.89,-74.65 165.12,-75.56"/>
<polygon fill="midnightblue" stroke="midnightblue" points="165.11,-79.07 175.38,-76.47 165.72,-72.1 165.11,-79.07"/>
</g>
<!-- Node4 -->
<g id="node4" class="node">
<title>Node4</title>
<g id="a_node4"><a xlink:href="class_microphone_listener.html#a5cf4eb3958db2ea278c862836d37fdbb" target="_top" xlink:title=" ">
<polygon fill="white" stroke="black" points="179,-38.5 179,-57.5 389,-57.5 389,-38.5 179,-38.5"/>
<text text-anchor="middle" x="284" y="-45.5" font-family="Helvetica,sans-Serif" font-size="10.00">MicrophoneListener.StartMicrophoneListener</text>
</a>
</g>
</g>
<!-- Node1&#45;&gt;Node4 -->
<g id="edge3" class="edge">
<title>Node1&#45;&gt;Node4</title>
<path fill="none" stroke="midnightblue" d="M135.19,-61.09C145.94,-60.14 157.33,-59.13 168.82,-58.11"/>
<polygon fill="midnightblue" stroke="midnightblue" points="169.28,-61.59 178.93,-57.22 168.66,-54.61 169.28,-61.59"/>
</g>
<!-- Node6 -->
<g id="node6" class="node">
<title>Node6</title>
<g id="a_node6"><a xlink:href="class_microphone_listener.html#a1234b5e0175837a77a6fdb2140d7766d" target="_top" xlink:title=" ">
<polygon fill="white" stroke="black" points="179.5,-0.5 179.5,-19.5 388.5,-19.5 388.5,-0.5 179.5,-0.5"/>
<text text-anchor="middle" x="284" y="-7.5" font-family="Helvetica,sans-Serif" font-size="10.00">MicrophoneListener.StopMicrophoneListener</text>
</a>
</g>
</g>
<!-- Node1&#45;&gt;Node6 -->
<g id="edge5" class="edge">
<title>Node1&#45;&gt;Node6</title>
<path fill="none" stroke="midnightblue" d="M90.51,-57.47C111,-48.93 142.58,-36.61 171,-29 181.76,-26.12 193.22,-23.59 204.55,-21.39"/>
<polygon fill="midnightblue" stroke="midnightblue" points="205.26,-24.81 214.45,-19.54 203.98,-17.93 205.26,-24.81"/>
</g>
<!-- Node5 -->
<g id="node5" class="node">
<title>Node5</title>
<g id="a_node5"><a xlink:href="class_microphone_listener.html#aa333000bbeba3c0ddd4d010057f570a3" target="_top" xlink:title=" ">
<polygon fill="white" stroke="black" points="433,-38.5 433,-57.5 654,-57.5 654,-38.5 433,-38.5"/>
<text text-anchor="middle" x="543.5" y="-45.5" font-family="Helvetica,sans-Serif" font-size="10.00">MicrophoneListener.RestartMicrophoneListener</text>
</a>
</g>
</g>
<!-- Node4&#45;&gt;Node5 -->
<g id="edge4" class="edge">
<title>Node4&#45;&gt;Node5</title>
<path fill="none" stroke="midnightblue" d="M389.36,-48C400.36,-48 411.6,-48 422.75,-48"/>
<polygon fill="midnightblue" stroke="midnightblue" points="422.95,-51.5 432.95,-48 422.95,-44.5 422.95,-51.5"/>
</g>
</g>
</svg>
