<?xml version="1.0" encoding="UTF-8" standalone="no"?>
<!DOCTYPE svg PUBLIC "-//W3C//DTD SVG 1.1//EN"
 "http://www.w3.org/Graphics/SVG/1.1/DTD/svg11.dtd">
<!-- Generated by graphviz version 2.49.0 (20210828.1703)
 -->
<!-- Title: PeerConnectionManager.ImHost Pages: 1 -->
<svg width="588pt" height="180pt"
 viewBox="0.00 0.00 588.00 180.00" xmlns="http://www.w3.org/2000/svg" xmlns:xlink="http://www.w3.org/1999/xlink">
<g id="graph0" class="graph" transform="scale(1 1) rotate(0) translate(4 176)">
<title>PeerConnectionManager.ImHost</title>
<polygon fill="white" stroke="transparent" points="-4,4 -4,-176 584,-176 584,4 -4,4"/>
<!-- Node1 -->
<g id="node1" class="node">
<title>Node1</title>
<g id="a_node1"><a xlink:title="Evalua si el par actual es host">
<polygon fill="#bfbfbf" stroke="black" points="423,-76.5 423,-95.5 580,-95.5 580,-76.5 423,-76.5"/>
<text text-anchor="middle" x="501.5" y="-83.5" font-family="Helvetica,sans-Serif" font-size="10.00">PeerConnectionManager.ImHost</text>
</a>
</g>
</g>
<!-- Node2 -->
<g id="node2" class="node">
<title>Node2</title>
<g id="a_node2"><a xlink:href="class_peer_connection_manager.html#acce72dd729e1abda9e126f7c1bd317ce" target="_top" xlink:title="Crea los canales de datos">
<polygon fill="white" stroke="black" points="183,-152.5 183,-171.5 387,-171.5 387,-152.5 183,-152.5"/>
<text text-anchor="middle" x="285" y="-159.5" font-family="Helvetica,sans-Serif" font-size="10.00">PeerConnectionManager.AddDataChannels</text>
</a>
</g>
</g>
<!-- Node1&#45;&gt;Node2 -->
<g id="edge1" class="edge">
<title>Node1&#45;&gt;Node2</title>
<path fill="none" stroke="midnightblue" d="M473.48,-100.21C450.86,-111.65 417.49,-127.51 387,-138 370.21,-143.78 351.39,-148.66 334.59,-152.49"/>
<polygon fill="midnightblue" stroke="midnightblue" points="475.17,-103.28 482.48,-95.6 471.98,-97.05 475.17,-103.28"/>
</g>
<!-- Node3 -->
<g id="node3" class="node">
<title>Node3</title>
<g id="a_node3"><a xlink:href="class_peer_connection_manager.html#a058148001392c4d6106cc784ec477256" target="_top" xlink:title="Llamada justo antes del primer fotograma">
<polygon fill="white" stroke="black" points="0,-114.5 0,-133.5 147,-133.5 147,-114.5 0,-114.5"/>
<text text-anchor="middle" x="73.5" y="-121.5" font-family="Helvetica,sans-Serif" font-size="10.00">PeerConnectionManager.Start</text>
</a>
</g>
</g>
<!-- Node1&#45;&gt;Node3 -->
<g id="edge7" class="edge">
<title>Node1&#45;&gt;Node3</title>
<path fill="none" stroke="midnightblue" d="M440.7,-97.22C423.42,-100.13 404.51,-103.01 387,-105 305.18,-114.31 210.76,-119.25 147.3,-121.74"/>
<polygon fill="midnightblue" stroke="midnightblue" points="441.39,-100.65 450.66,-95.51 440.21,-93.75 441.39,-100.65"/>
</g>
<!-- Node4 -->
<g id="node4" class="node">
<title>Node4</title>
<g id="a_node4"><a xlink:href="class_peer_connection_manager.html#a5e4d5b8cfb094cae7a3d200a78a2a7b3" target="_top" xlink:title="Crea los canales de video y audio">
<polygon fill="white" stroke="black" points="198.5,-76.5 198.5,-95.5 371.5,-95.5 371.5,-76.5 198.5,-76.5"/>
<text text-anchor="middle" x="285" y="-83.5" font-family="Helvetica,sans-Serif" font-size="10.00">PeerConnectionManager.AddTracks</text>
</a>
</g>
</g>
<!-- Node1&#45;&gt;Node4 -->
<g id="edge3" class="edge">
<title>Node1&#45;&gt;Node4</title>
<path fill="none" stroke="midnightblue" d="M412.56,-86C399.11,-86 385.23,-86 371.82,-86"/>
<polygon fill="midnightblue" stroke="midnightblue" points="412.76,-89.5 422.76,-86 412.76,-82.5 412.76,-89.5"/>
</g>
<!-- Node5 -->
<g id="node5" class="node">
<title>Node5</title>
<g id="a_node5"><a xlink:href="class_peer_connection_manager.html#a82bd9ac926952fe7f22bef718cca64cb" target="_top" xlink:title="Llamada al crear el GameObject asociado">
<polygon fill="white" stroke="black" points="207.5,-38.5 207.5,-57.5 362.5,-57.5 362.5,-38.5 207.5,-38.5"/>
<text text-anchor="middle" x="285" y="-45.5" font-family="Helvetica,sans-Serif" font-size="10.00">PeerConnectionManager.Awake</text>
</a>
</g>
</g>
<!-- Node1&#45;&gt;Node5 -->
<g id="edge5" class="edge">
<title>Node1&#45;&gt;Node5</title>
<path fill="none" stroke="midnightblue" d="M436.45,-74.65C405.67,-69.2 369.2,-62.74 339.87,-57.54"/>
<polygon fill="midnightblue" stroke="midnightblue" points="436.19,-78.16 446.65,-76.46 437.41,-71.27 436.19,-78.16"/>
</g>
<!-- Node6 -->
<g id="node6" class="node">
<title>Node6</title>
<g id="a_node6"><a xlink:href="class_peer_connection_manager.html#a267f5ad1bb8760b277d6754418b5a4f1" target="_top" xlink:title="Llamada cuando el GameObject asociado se destruye">
<polygon fill="white" stroke="black" points="198.5,-0.5 198.5,-19.5 371.5,-19.5 371.5,-0.5 198.5,-0.5"/>
<text text-anchor="middle" x="285" y="-7.5" font-family="Helvetica,sans-Serif" font-size="10.00">PeerConnectionManager.OnDestroy</text>
</a>
</g>
</g>
<!-- Node1&#45;&gt;Node6 -->
<g id="edge6" class="edge">
<title>Node1&#45;&gt;Node6</title>
<path fill="none" stroke="midnightblue" d="M476.13,-71.24C453.71,-58.28 419.17,-39.86 387,-29 375.67,-25.18 363.36,-22.05 351.35,-19.52"/>
<polygon fill="midnightblue" stroke="midnightblue" points="474.55,-74.37 484.95,-76.42 478.1,-68.34 474.55,-74.37"/>
</g>
<!-- Node2&#45;&gt;Node3 -->
<g id="edge2" class="edge">
<title>Node2&#45;&gt;Node3</title>
<path fill="none" stroke="midnightblue" d="M221.44,-150.65C191.38,-145.2 155.76,-138.74 127.12,-133.54"/>
<polygon fill="midnightblue" stroke="midnightblue" points="220.94,-154.12 231.4,-152.46 222.19,-147.23 220.94,-154.12"/>
</g>
<!-- Node4&#45;&gt;Node3 -->
<g id="edge4" class="edge">
<title>Node4&#45;&gt;Node3</title>
<path fill="none" stroke="midnightblue" d="M221.44,-97.35C191.38,-102.8 155.76,-109.26 127.12,-114.46"/>
<polygon fill="midnightblue" stroke="midnightblue" points="222.19,-100.77 231.4,-95.54 220.94,-93.88 222.19,-100.77"/>
</g>
</g>
</svg>
