<?xml version="1.0" encoding="UTF-8" standalone="no"?>
<!DOCTYPE svg PUBLIC "-//W3C//DTD SVG 1.1//EN"
 "http://www.w3.org/Graphics/SVG/1.1/DTD/svg11.dtd">
<!-- Generated by graphviz version 2.49.0 (20210828.1703)
 -->
<!-- Title: ARMarker Pages: 1 -->
<svg width="492pt" height="1078pt"
 viewBox="0.00 0.00 491.83 1078.00" xmlns="http://www.w3.org/2000/svg" xmlns:xlink="http://www.w3.org/1999/xlink">
<g id="graph0" class="graph" transform="scale(1 1) rotate(0) translate(4 1074)">
<title>ARMarker</title>
<polygon fill="white" stroke="transparent" points="-4,4 -4,-1074 487.83,-1074 487.83,4 -4,4"/>
<!-- Node1 -->
<g id="node1" class="node">
<title>Node1</title>
<g id="a_node1"><a xlink:title="Modela el comportamiento de la herramienta ARMarker">
<polygon fill="#bfbfbf" stroke="black" points="38.33,-0.5 38.33,-123.5 242.33,-123.5 242.33,-0.5 38.33,-0.5"/>
<text text-anchor="middle" x="140.33" y="-111.5" font-family="Helvetica,sans-Serif" font-size="10.00">ARMarker</text>
<polyline fill="none" stroke="black" points="38.33,-104.5 242.33,-104.5 "/>
<text text-anchor="start" x="46.33" y="-92.5" font-family="Helvetica,sans-Serif" font-size="10.00">&#45; PeerType myPeerType</text>
<text text-anchor="start" x="46.33" y="-81.5" font-family="Helvetica,sans-Serif" font-size="10.00">&#45; GameObject prefab</text>
<text text-anchor="start" x="46.33" y="-70.5" font-family="Helvetica,sans-Serif" font-size="10.00">&#45; Camera cam</text>
<text text-anchor="start" x="46.33" y="-59.5" font-family="Helvetica,sans-Serif" font-size="10.00">&#45; ARRaycastManager arRaycastManager</text>
<text text-anchor="start" x="46.33" y="-48.5" font-family="Helvetica,sans-Serif" font-size="10.00">&#45; bool placingMarker</text>
<polyline fill="none" stroke="black" points="38.33,-41.5 242.33,-41.5 "/>
<text text-anchor="start" x="46.33" y="-29.5" font-family="Helvetica,sans-Serif" font-size="10.00">&#45; void Start()</text>
<text text-anchor="start" x="46.33" y="-18.5" font-family="Helvetica,sans-Serif" font-size="10.00">&#45; void Update()</text>
<text text-anchor="start" x="46.33" y="-7.5" font-family="Helvetica,sans-Serif" font-size="10.00">&#45; GameObject AddMarker(Vector3 position)</text>
</a>
</g>
</g>
<!-- Node2 -->
<g id="node2" class="node">
<title>Node2</title>
<g id="a_node2"><a xlink:title=" ">
<polygon fill="white" stroke="#bfbfbf" points="98.83,-1012.5 98.83,-1069.5 181.83,-1069.5 181.83,-1012.5 98.83,-1012.5"/>
<text text-anchor="middle" x="140.33" y="-1057.5" font-family="Helvetica,sans-Serif" font-size="10.00">MonoBehaviour</text>
<polyline fill="none" stroke="#bfbfbf" points="98.83,-1050.5 181.83,-1050.5 "/>
<text text-anchor="middle" x="140.33" y="-1038.5" font-family="Helvetica,sans-Serif" font-size="10.00"> </text>
<polyline fill="none" stroke="#bfbfbf" points="98.83,-1031.5 181.83,-1031.5 "/>
<text text-anchor="middle" x="140.33" y="-1019.5" font-family="Helvetica,sans-Serif" font-size="10.00"> </text>
</a>
</g>
</g>
<!-- Node2&#45;&gt;Node1 -->
<g id="edge1" class="edge">
<title>Node2&#45;&gt;Node1</title>
<path fill="none" stroke="midnightblue" d="M90.34,-1011.38C77.67,-1001.55 65.61,-989.35 58.33,-975 -60.85,-740.2 40.44,-646.26 35.33,-383 33.5,-288.8 -0.12,-258.3 35.33,-171 42.31,-153.8 53.5,-137.83 66.02,-123.73"/>
<polygon fill="none" stroke="midnightblue" points="88.56,-1014.41 98.7,-1017.49 92.69,-1008.76 88.56,-1014.41"/>
</g>
<!-- Node3 -->
<g id="node3" class="node">
<title>Node3</title>
<g id="a_node3"><a xlink:href="class_my_input_manager.html" target="_top" xlink:title=" ">
<polygon fill="white" stroke="black" points="44.83,-171.5 44.83,-382.5 235.83,-382.5 235.83,-171.5 44.83,-171.5"/>
<text text-anchor="middle" x="140.33" y="-370.5" font-family="Helvetica,sans-Serif" font-size="10.00">MyInputManager</text>
<polyline fill="none" stroke="black" points="44.83,-363.5 235.83,-363.5 "/>
<text text-anchor="start" x="52.83" y="-351.5" font-family="Helvetica,sans-Serif" font-size="10.00">+ PeerType myPeerType</text>
<text text-anchor="start" x="52.83" y="-340.5" font-family="Helvetica,sans-Serif" font-size="10.00">+ bool recording</text>
<text text-anchor="start" x="52.83" y="-329.5" font-family="Helvetica,sans-Serif" font-size="10.00">+ Vector3 hostPosition</text>
<text text-anchor="start" x="52.83" y="-318.5" font-family="Helvetica,sans-Serif" font-size="10.00">+ Vector3 clientPosition</text>
<text text-anchor="start" x="52.83" y="-307.5" font-family="Helvetica,sans-Serif" font-size="10.00">+ TouchScreenKeyboard clientKeyboard</text>
<text text-anchor="start" x="52.83" y="-296.5" font-family="Helvetica,sans-Serif" font-size="10.00">&#45; float scaledPixelRatioX</text>
<text text-anchor="start" x="52.83" y="-285.5" font-family="Helvetica,sans-Serif" font-size="10.00">&#45; float scaledPixelRatioY</text>
<text text-anchor="start" x="52.83" y="-274.5" font-family="Helvetica,sans-Serif" font-size="10.00">&#45; float clientAspectRatio</text>
<text text-anchor="start" x="52.83" y="-263.5" font-family="Helvetica,sans-Serif" font-size="10.00">&#45; int croppedScreenWidth</text>
<text text-anchor="start" x="52.83" y="-252.5" font-family="Helvetica,sans-Serif" font-size="10.00">&#45; int croppedScreenHeight</text>
<text text-anchor="start" x="52.83" y="-241.5" font-family="Helvetica,sans-Serif" font-size="10.00">&#45; int offsetX</text>
<text text-anchor="start" x="52.83" y="-230.5" font-family="Helvetica,sans-Serif" font-size="10.00">&#45; int offsetY</text>
<polyline fill="none" stroke="black" points="44.83,-223.5 235.83,-223.5 "/>
<text text-anchor="start" x="52.83" y="-211.5" font-family="Helvetica,sans-Serif" font-size="10.00">+ bool IsHeldDown(PeerType peer)</text>
<text text-anchor="start" x="52.83" y="-200.5" font-family="Helvetica,sans-Serif" font-size="10.00">&#45; void Awake()</text>
<text text-anchor="start" x="52.83" y="-189.5" font-family="Helvetica,sans-Serif" font-size="10.00">&#45; void Start()</text>
<text text-anchor="start" x="52.83" y="-178.5" font-family="Helvetica,sans-Serif" font-size="10.00">&#45; void Update()</text>
</a>
</g>
</g>
<!-- Node2&#45;&gt;Node3 -->
<g id="edge3" class="edge">
<title>Node2&#45;&gt;Node3</title>
<path fill="none" stroke="midnightblue" d="M111.79,-1003.74C106.25,-994.82 101.26,-984.95 98.33,-975 26.13,-730.23 78.88,-653.86 113.33,-401 114.14,-395.04 115.09,-388.95 116.13,-382.81"/>
<polygon fill="none" stroke="midnightblue" points="109.02,-1005.9 117.45,-1012.32 114.86,-1002.05 109.02,-1005.9"/>
</g>
<!-- Node4 -->
<g id="node4" class="node">
<title>Node4</title>
<g id="a_node4"><a xlink:href="class_video_manager.html" target="_top" xlink:title="Maneja la l贸gica de la grabaci贸n y visualizaci贸n de video">
<polygon fill="white" stroke="black" points="107.83,-675.5 107.83,-974.5 296.83,-974.5 296.83,-675.5 107.83,-675.5"/>
<text text-anchor="middle" x="202.33" y="-962.5" font-family="Helvetica,sans-Serif" font-size="10.00">VideoManager</text>
<polyline fill="none" stroke="black" points="107.83,-955.5 296.83,-955.5 "/>
<text text-anchor="start" x="115.83" y="-943.5" font-family="Helvetica,sans-Serif" font-size="10.00">+ int width</text>
<text text-anchor="start" x="115.83" y="-932.5" font-family="Helvetica,sans-Serif" font-size="10.00">+ int height</text>
<text text-anchor="start" x="115.83" y="-921.5" font-family="Helvetica,sans-Serif" font-size="10.00">+ float aspectRatio</text>
<text text-anchor="start" x="115.83" y="-910.5" font-family="Helvetica,sans-Serif" font-size="10.00">+ ulong bitrate</text>
<text text-anchor="start" x="115.83" y="-899.5" font-family="Helvetica,sans-Serif" font-size="10.00">+ uint framerate</text>
<text text-anchor="start" x="115.83" y="-888.5" font-family="Helvetica,sans-Serif" font-size="10.00">+ bool isRecording</text>
<text text-anchor="start" x="115.83" y="-877.5" font-family="Helvetica,sans-Serif" font-size="10.00">+ RawImage videoRawImage</text>
<text text-anchor="start" x="115.83" y="-866.5" font-family="Helvetica,sans-Serif" font-size="10.00">+ VideoStreamTrack videoStreamTrack</text>
<text text-anchor="start" x="115.83" y="-855.5" font-family="Helvetica,sans-Serif" font-size="10.00">+ bool videoDisabled</text>
<text text-anchor="start" x="115.83" y="-844.5" font-family="Helvetica,sans-Serif" font-size="10.00">+ Camera mainCam</text>
<text text-anchor="start" x="115.83" y="-833.5" font-family="Helvetica,sans-Serif" font-size="10.00">+ ARSession arSession</text>
<text text-anchor="start" x="115.83" y="-822.5" font-family="Helvetica,sans-Serif" font-size="10.00">&#45; Camera arCam</text>
<text text-anchor="start" x="115.83" y="-811.5" font-family="Helvetica,sans-Serif" font-size="10.00">&#45; Camera webCam</text>
<text text-anchor="start" x="115.83" y="-800.5" font-family="Helvetica,sans-Serif" font-size="10.00">&#45; RawImage webCamRawImage</text>
<text text-anchor="start" x="115.83" y="-789.5" font-family="Helvetica,sans-Serif" font-size="10.00">&#45; WebCamTexture webcamTexture</text>
<text text-anchor="start" x="115.83" y="-778.5" font-family="Helvetica,sans-Serif" font-size="10.00">&#45; GameObject noVideoAR</text>
<text text-anchor="start" x="115.83" y="-767.5" font-family="Helvetica,sans-Serif" font-size="10.00">&#45; GameObject noVideoUI</text>
<text text-anchor="start" x="115.83" y="-756.5" font-family="Helvetica,sans-Serif" font-size="10.00">&#45; Canvas arToolTipsUI</text>
<polyline fill="none" stroke="black" points="107.83,-749.5 296.83,-749.5 "/>
<text text-anchor="start" x="115.83" y="-737.5" font-family="Helvetica,sans-Serif" font-size="10.00">+ VideoStreamTrack RecordCamera()</text>
<text text-anchor="start" x="115.83" y="-726.5" font-family="Helvetica,sans-Serif" font-size="10.00">+ void ShowVideo(bool show)</text>
<text text-anchor="start" x="115.83" y="-715.5" font-family="Helvetica,sans-Serif" font-size="10.00">+ bool ToggleVideo()</text>
<text text-anchor="start" x="115.83" y="-704.5" font-family="Helvetica,sans-Serif" font-size="10.00">&#45; void Awake()</text>
<text text-anchor="start" x="115.83" y="-693.5" font-family="Helvetica,sans-Serif" font-size="10.00">&#45; void Start()</text>
<text text-anchor="start" x="115.83" y="-682.5" font-family="Helvetica,sans-Serif" font-size="10.00">&#45; void OnApplicationPause(bool paused)</text>
</a>
</g>
</g>
<!-- Node2&#45;&gt;Node4 -->
<g id="edge5" class="edge">
<title>Node2&#45;&gt;Node4</title>
<path fill="none" stroke="midnightblue" d="M151.14,-1002.69C153.59,-994.24 156.33,-984.76 159.25,-974.7"/>
<polygon fill="none" stroke="midnightblue" points="147.73,-1001.88 148.31,-1012.46 154.45,-1003.83 147.73,-1001.88"/>
</g>
<!-- Node5 -->
<g id="node5" class="node">
<title>Node5</title>
<g id="a_node5"><a xlink:href="class_a_r_tool_manager.html" target="_top" xlink:title="Maneja la l贸gica de las herramientas de RA">
<polygon fill="white" stroke="black" points="204.83,-401.5 204.83,-656.5 483.83,-656.5 483.83,-401.5 204.83,-401.5"/>
<text text-anchor="middle" x="344.33" y="-644.5" font-family="Helvetica,sans-Serif" font-size="10.00">ARToolManager</text>
<polyline fill="none" stroke="black" points="204.83,-637.5 483.83,-637.5 "/>
<text text-anchor="start" x="212.83" y="-625.5" font-family="Helvetica,sans-Serif" font-size="10.00">+ bool recording</text>
<text text-anchor="start" x="212.83" y="-614.5" font-family="Helvetica,sans-Serif" font-size="10.00">+ Material hostMaterial</text>
<text text-anchor="start" x="212.83" y="-603.5" font-family="Helvetica,sans-Serif" font-size="10.00">+ Material clientMaterial</text>
<text text-anchor="start" x="212.83" y="-592.5" font-family="Helvetica,sans-Serif" font-size="10.00">+ Material ColorRed</text>
<text text-anchor="start" x="212.83" y="-581.5" font-family="Helvetica,sans-Serif" font-size="10.00">+ Material ColorBlue</text>
<text text-anchor="start" x="212.83" y="-570.5" font-family="Helvetica,sans-Serif" font-size="10.00">+ Material ColorGreen</text>
<text text-anchor="start" x="212.83" y="-559.5" font-family="Helvetica,sans-Serif" font-size="10.00">+ Material ColorYellow</text>
<text text-anchor="start" x="212.83" y="-548.5" font-family="Helvetica,sans-Serif" font-size="10.00">+ GameObject guidePrefab</text>
<text text-anchor="start" x="212.83" y="-537.5" font-family="Helvetica,sans-Serif" font-size="10.00">+ static GameObject hostDrawings</text>
<text text-anchor="start" x="212.83" y="-526.5" font-family="Helvetica,sans-Serif" font-size="10.00">+ static GameObject clientDrawings</text>
<text text-anchor="start" x="212.83" y="-515.5" font-family="Helvetica,sans-Serif" font-size="10.00">+ static GameObject hostGuides</text>
<text text-anchor="start" x="212.83" y="-504.5" font-family="Helvetica,sans-Serif" font-size="10.00">+ static GameObject clientGuides</text>
<text text-anchor="start" x="212.83" y="-493.5" font-family="Helvetica,sans-Serif" font-size="10.00">&#45; GameObject hostTools</text>
<text text-anchor="start" x="212.83" y="-482.5" font-family="Helvetica,sans-Serif" font-size="10.00">&#45; GameObject clientTools</text>
<polyline fill="none" stroke="black" points="204.83,-475.5 483.83,-475.5 "/>
<text text-anchor="start" x="212.83" y="-463.5" font-family="Helvetica,sans-Serif" font-size="10.00">+ void SelectTool(PeerType peer, string toolName)</text>
<text text-anchor="start" x="212.83" y="-452.5" font-family="Helvetica,sans-Serif" font-size="10.00">+ void UndoDrawing(string peer)</text>
<text text-anchor="start" x="212.83" y="-441.5" font-family="Helvetica,sans-Serif" font-size="10.00">+ void DeleteDrawings(string peer)</text>
<text text-anchor="start" x="212.83" y="-430.5" font-family="Helvetica,sans-Serif" font-size="10.00">+ void SelectColor(PeerType peer, string color)</text>
<text text-anchor="start" x="212.83" y="-419.5" font-family="Helvetica,sans-Serif" font-size="10.00">+ GameObject PlaceGuide(PeerType peer, Transform target)</text>
<text text-anchor="start" x="212.83" y="-408.5" font-family="Helvetica,sans-Serif" font-size="10.00">&#45; void Awake()</text>
</a>
</g>
</g>
<!-- Node2&#45;&gt;Node5 -->
<g id="edge7" class="edge">
<title>Node2&#45;&gt;Node5</title>
<path fill="none" stroke="midnightblue" d="M192.08,-1034.16C230.07,-1026.94 279.55,-1010.85 306.33,-975 373.83,-884.6 376.87,-753.21 366.93,-656.63"/>
<polygon fill="none" stroke="midnightblue" points="191.44,-1030.71 182.19,-1035.88 192.64,-1037.61 191.44,-1030.71"/>
</g>
<!-- Node3&#45;&gt;Node1 -->
<g id="edge2" class="edge">
<title>Node3&#45;&gt;Node1</title>
<path fill="none" stroke="#404040" d="M140.33,-171.37C140.33,-159.32 140.33,-147.23 140.33,-135.74"/>
<polygon fill="none" stroke="#404040" points="140.33,-135.52 136.33,-129.52 140.33,-123.52 144.33,-129.52 140.33,-135.52"/>
<text text-anchor="middle" x="172.83" y="-145" font-family="Helvetica,sans-Serif" font-size="10.00"> &#45;inputManager</text>
</g>
<!-- Node4&#45;&gt;Node3 -->
<g id="edge4" class="edge">
<title>Node4&#45;&gt;Node3</title>
<path fill="none" stroke="#404040" d="M133.77,-675.22C132.08,-669.13 130.59,-663.04 129.33,-657 111.24,-570.48 115.16,-470.46 122.97,-394.89"/>
<polygon fill="none" stroke="#404040" points="123.01,-394.44 119.68,-388.04 124.3,-382.51 127.64,-388.9 123.01,-394.44"/>
<text text-anchor="middle" x="162.33" y="-526.5" font-family="Helvetica,sans-Serif" font-size="10.00"> &#45;videoManager</text>
</g>
<!-- Node5&#45;&gt;Node1 -->
<g id="edge6" class="edge">
<title>Node5&#45;&gt;Node1</title>
<path fill="none" stroke="#404040" d="M324.67,-401.45C309.86,-330.36 284.93,-241.95 244.33,-171 236.65,-157.59 226.94,-144.59 216.56,-132.53"/>
<polygon fill="none" stroke="#404040" points="216.49,-132.46 209.51,-130.64 208.5,-123.5 215.48,-125.32 216.49,-132.46"/>
<text text-anchor="middle" x="356.33" y="-274.5" font-family="Helvetica,sans-Serif" font-size="10.00"> &#45;aRToolManager</text>
</g>
</g>
</svg>
