<?xml version="1.0" encoding="UTF-8" standalone="no"?>
<!DOCTYPE svg PUBLIC "-//W3C//DTD SVG 1.1//EN"
 "http://www.w3.org/Graphics/SVG/1.1/DTD/svg11.dtd">
<!-- Generated by graphviz version 2.49.0 (20210828.1703)
 -->
<!-- Title: ARBrush Pages: 1 -->
<svg width="341pt" height="1089pt"
 viewBox="0.00 0.00 341.34 1089.00" xmlns="http://www.w3.org/2000/svg" xmlns:xlink="http://www.w3.org/1999/xlink">
<g id="graph0" class="graph" transform="scale(1 1) rotate(0) translate(4 1085)">
<title>ARBrush</title>
<polygon fill="white" stroke="transparent" points="-4,4 -4,-1085 337.34,-1085 337.34,4 -4,4"/>
<!-- Node1 -->
<g id="node1" class="node">
<title>Node1</title>
<g id="a_node1"><a xlink:title="Modela el comportamiento de la herramienta ARBrush">
<polygon fill="#bfbfbf" stroke="black" points="79.84,-0.5 79.84,-134.5 196.84,-134.5 196.84,-0.5 79.84,-0.5"/>
<text text-anchor="middle" x="138.34" y="-122.5" font-family="Helvetica,sans-Serif" font-size="10.00">ARBrush</text>
<polyline fill="none" stroke="black" points="79.84,-115.5 196.84,-115.5 "/>
<text text-anchor="start" x="87.84" y="-103.5" font-family="Helvetica,sans-Serif" font-size="10.00">&#45; myPeerType</text>
<text text-anchor="start" x="87.84" y="-92.5" font-family="Helvetica,sans-Serif" font-size="10.00">&#45; linePrefab</text>
<text text-anchor="start" x="87.84" y="-81.5" font-family="Helvetica,sans-Serif" font-size="10.00">&#45; arCam</text>
<text text-anchor="start" x="87.84" y="-70.5" font-family="Helvetica,sans-Serif" font-size="10.00">&#45; arRaycastManager</text>
<text text-anchor="start" x="87.84" y="-59.5" font-family="Helvetica,sans-Serif" font-size="10.00">&#45; line</text>
<polyline fill="none" stroke="black" points="79.84,-52.5 196.84,-52.5 "/>
<text text-anchor="start" x="87.84" y="-40.5" font-family="Helvetica,sans-Serif" font-size="10.00">&#45; Start()</text>
<text text-anchor="start" x="87.84" y="-29.5" font-family="Helvetica,sans-Serif" font-size="10.00">&#45; Update()</text>
<text text-anchor="start" x="87.84" y="-18.5" font-family="Helvetica,sans-Serif" font-size="10.00">&#45; drawNextPointInLine()</text>
<text text-anchor="start" x="87.84" y="-7.5" font-family="Helvetica,sans-Serif" font-size="10.00">&#45; createLineStart()</text>
</a>
</g>
</g>
<!-- Node2 -->
<g id="node2" class="node">
<title>Node2</title>
<g id="a_node2"><a xlink:title=" ">
<polygon fill="white" stroke="#bfbfbf" points="90.84,-1023.5 90.84,-1080.5 173.84,-1080.5 173.84,-1023.5 90.84,-1023.5"/>
<text text-anchor="middle" x="132.34" y="-1068.5" font-family="Helvetica,sans-Serif" font-size="10.00">MonoBehaviour</text>
<polyline fill="none" stroke="#bfbfbf" points="90.84,-1061.5 173.84,-1061.5 "/>
<text text-anchor="middle" x="132.34" y="-1049.5" font-family="Helvetica,sans-Serif" font-size="10.00"> </text>
<polyline fill="none" stroke="#bfbfbf" points="90.84,-1042.5 173.84,-1042.5 "/>
<text text-anchor="middle" x="132.34" y="-1030.5" font-family="Helvetica,sans-Serif" font-size="10.00"> </text>
</a>
</g>
</g>
<!-- Node2&#45;&gt;Node1 -->
<g id="edge1" class="edge">
<title>Node2&#45;&gt;Node1</title>
<path fill="none" stroke="midnightblue" d="M100.63,-1015.11C94.42,-1006.17 88.78,-996.2 85.34,-986 -28.73,-647.3 -22.83,-526.76 71.34,-182 75.77,-165.78 83.18,-149.51 91.49,-134.57"/>
<polygon fill="none" stroke="midnightblue" points="97.95,-1017.37 106.7,-1023.35 103.58,-1013.22 97.95,-1017.37"/>
</g>
<!-- Node3 -->
<g id="node3" class="node">
<title>Node3</title>
<g id="a_node3"><a xlink:href="class_my_input_manager.html" target="_top" xlink:title=" ">
<polygon fill="white" stroke="black" points="80.34,-182.5 80.34,-393.5 196.34,-393.5 196.34,-182.5 80.34,-182.5"/>
<text text-anchor="middle" x="138.34" y="-381.5" font-family="Helvetica,sans-Serif" font-size="10.00">MyInputManager</text>
<polyline fill="none" stroke="black" points="80.34,-374.5 196.34,-374.5 "/>
<text text-anchor="start" x="88.34" y="-362.5" font-family="Helvetica,sans-Serif" font-size="10.00">+ myPeerType</text>
<text text-anchor="start" x="88.34" y="-351.5" font-family="Helvetica,sans-Serif" font-size="10.00">+ recording</text>
<text text-anchor="start" x="88.34" y="-340.5" font-family="Helvetica,sans-Serif" font-size="10.00">+ hostPosition</text>
<text text-anchor="start" x="88.34" y="-329.5" font-family="Helvetica,sans-Serif" font-size="10.00">+ clientPosition</text>
<text text-anchor="start" x="88.34" y="-318.5" font-family="Helvetica,sans-Serif" font-size="10.00">+ clientKeyboard</text>
<text text-anchor="start" x="88.34" y="-307.5" font-family="Helvetica,sans-Serif" font-size="10.00">&#45; scaledPixelRatioX</text>
<text text-anchor="start" x="88.34" y="-296.5" font-family="Helvetica,sans-Serif" font-size="10.00">&#45; scaledPixelRatioY</text>
<text text-anchor="start" x="88.34" y="-285.5" font-family="Helvetica,sans-Serif" font-size="10.00">&#45; clientAspectRatio</text>
<text text-anchor="start" x="88.34" y="-274.5" font-family="Helvetica,sans-Serif" font-size="10.00">&#45; croppedScreenWidth</text>
<text text-anchor="start" x="88.34" y="-263.5" font-family="Helvetica,sans-Serif" font-size="10.00">&#45; croppedScreenHeight</text>
<text text-anchor="start" x="88.34" y="-252.5" font-family="Helvetica,sans-Serif" font-size="10.00">&#45; offsetX</text>
<text text-anchor="start" x="88.34" y="-241.5" font-family="Helvetica,sans-Serif" font-size="10.00">&#45; offsetY</text>
<polyline fill="none" stroke="black" points="80.34,-234.5 196.34,-234.5 "/>
<text text-anchor="start" x="88.34" y="-222.5" font-family="Helvetica,sans-Serif" font-size="10.00">+ IsHeldDown()</text>
<text text-anchor="start" x="88.34" y="-211.5" font-family="Helvetica,sans-Serif" font-size="10.00">&#45; Awake()</text>
<text text-anchor="start" x="88.34" y="-200.5" font-family="Helvetica,sans-Serif" font-size="10.00">&#45; Start()</text>
<text text-anchor="start" x="88.34" y="-189.5" font-family="Helvetica,sans-Serif" font-size="10.00">&#45; Update()</text>
</a>
</g>
</g>
<!-- Node2&#45;&gt;Node3 -->
<g id="edge3" class="edge">
<title>Node2&#45;&gt;Node3</title>
<path fill="none" stroke="midnightblue" d="M116.13,-1014.02C112.91,-1005.02 110,-995.31 108.34,-986 63.43,-734.72 108.71,-666.51 128.34,-412 128.8,-406.02 129.28,-399.87 129.77,-393.67"/>
<polygon fill="none" stroke="midnightblue" points="112.89,-1015.35 119.71,-1023.45 119.43,-1012.86 112.89,-1015.35"/>
</g>
<!-- Node4 -->
<g id="node4" class="node">
<title>Node4</title>
<g id="a_node4"><a xlink:href="class_video_manager.html" target="_top" xlink:title="Maneja la l贸gica de la grabaci贸n y visualizaci贸n de video">
<polygon fill="white" stroke="black" points="117.84,-686.5 117.84,-985.5 234.84,-985.5 234.84,-686.5 117.84,-686.5"/>
<text text-anchor="middle" x="176.34" y="-973.5" font-family="Helvetica,sans-Serif" font-size="10.00">VideoManager</text>
<polyline fill="none" stroke="black" points="117.84,-966.5 234.84,-966.5 "/>
<text text-anchor="start" x="125.84" y="-954.5" font-family="Helvetica,sans-Serif" font-size="10.00">+ width</text>
<text text-anchor="start" x="125.84" y="-943.5" font-family="Helvetica,sans-Serif" font-size="10.00">+ height</text>
<text text-anchor="start" x="125.84" y="-932.5" font-family="Helvetica,sans-Serif" font-size="10.00">+ aspectRatio</text>
<text text-anchor="start" x="125.84" y="-921.5" font-family="Helvetica,sans-Serif" font-size="10.00">+ bitrate</text>
<text text-anchor="start" x="125.84" y="-910.5" font-family="Helvetica,sans-Serif" font-size="10.00">+ framerate</text>
<text text-anchor="start" x="125.84" y="-899.5" font-family="Helvetica,sans-Serif" font-size="10.00">+ isRecording</text>
<text text-anchor="start" x="125.84" y="-888.5" font-family="Helvetica,sans-Serif" font-size="10.00">+ videoRawImage</text>
<text text-anchor="start" x="125.84" y="-877.5" font-family="Helvetica,sans-Serif" font-size="10.00">+ videoStreamTrack</text>
<text text-anchor="start" x="125.84" y="-866.5" font-family="Helvetica,sans-Serif" font-size="10.00">+ videoDisabled</text>
<text text-anchor="start" x="125.84" y="-855.5" font-family="Helvetica,sans-Serif" font-size="10.00">+ mainCam</text>
<text text-anchor="start" x="125.84" y="-844.5" font-family="Helvetica,sans-Serif" font-size="10.00">+ arSession</text>
<text text-anchor="start" x="125.84" y="-833.5" font-family="Helvetica,sans-Serif" font-size="10.00">&#45; arCam</text>
<text text-anchor="start" x="125.84" y="-822.5" font-family="Helvetica,sans-Serif" font-size="10.00">&#45; webCam</text>
<text text-anchor="start" x="125.84" y="-811.5" font-family="Helvetica,sans-Serif" font-size="10.00">&#45; webCamRawImage</text>
<text text-anchor="start" x="125.84" y="-800.5" font-family="Helvetica,sans-Serif" font-size="10.00">&#45; webcamTexture</text>
<text text-anchor="start" x="125.84" y="-789.5" font-family="Helvetica,sans-Serif" font-size="10.00">&#45; noVideoAR</text>
<text text-anchor="start" x="125.84" y="-778.5" font-family="Helvetica,sans-Serif" font-size="10.00">&#45; noVideoUI</text>
<text text-anchor="start" x="125.84" y="-767.5" font-family="Helvetica,sans-Serif" font-size="10.00">&#45; arToolTipsUI</text>
<polyline fill="none" stroke="black" points="117.84,-760.5 234.84,-760.5 "/>
<text text-anchor="start" x="125.84" y="-748.5" font-family="Helvetica,sans-Serif" font-size="10.00">+ RecordCamera()</text>
<text text-anchor="start" x="125.84" y="-737.5" font-family="Helvetica,sans-Serif" font-size="10.00">+ ShowVideo()</text>
<text text-anchor="start" x="125.84" y="-726.5" font-family="Helvetica,sans-Serif" font-size="10.00">+ ToggleVideo()</text>
<text text-anchor="start" x="125.84" y="-715.5" font-family="Helvetica,sans-Serif" font-size="10.00">&#45; Awake()</text>
<text text-anchor="start" x="125.84" y="-704.5" font-family="Helvetica,sans-Serif" font-size="10.00">&#45; Start()</text>
<text text-anchor="start" x="125.84" y="-693.5" font-family="Helvetica,sans-Serif" font-size="10.00">&#45; OnApplicationPause()</text>
</a>
</g>
</g>
<!-- Node2&#45;&gt;Node4 -->
<g id="edge5" class="edge">
<title>Node2&#45;&gt;Node4</title>
<path fill="none" stroke="midnightblue" d="M140.07,-1013.41C141.79,-1005.03 143.72,-995.65 145.77,-985.7"/>
<polygon fill="none" stroke="midnightblue" points="136.59,-1012.96 138,-1023.46 143.44,-1014.37 136.59,-1012.96"/>
</g>
<!-- Node5 -->
<g id="node5" class="node">
<title>Node5</title>
<g id="a_node5"><a xlink:href="class_a_r_tool_manager.html" target="_top" xlink:title="Maneja la l贸gica de las herramientas de RA">
<polygon fill="white" stroke="black" points="212.84,-412.5 212.84,-667.5 311.84,-667.5 311.84,-412.5 212.84,-412.5"/>
<text text-anchor="middle" x="262.34" y="-655.5" font-family="Helvetica,sans-Serif" font-size="10.00">ARToolManager</text>
<polyline fill="none" stroke="black" points="212.84,-648.5 311.84,-648.5 "/>
<text text-anchor="start" x="220.84" y="-636.5" font-family="Helvetica,sans-Serif" font-size="10.00">+ recording</text>
<text text-anchor="start" x="220.84" y="-625.5" font-family="Helvetica,sans-Serif" font-size="10.00">+ hostMaterial</text>
<text text-anchor="start" x="220.84" y="-614.5" font-family="Helvetica,sans-Serif" font-size="10.00">+ clientMaterial</text>
<text text-anchor="start" x="220.84" y="-603.5" font-family="Helvetica,sans-Serif" font-size="10.00">+ ColorRed</text>
<text text-anchor="start" x="220.84" y="-592.5" font-family="Helvetica,sans-Serif" font-size="10.00">+ ColorBlue</text>
<text text-anchor="start" x="220.84" y="-581.5" font-family="Helvetica,sans-Serif" font-size="10.00">+ ColorGreen</text>
<text text-anchor="start" x="220.84" y="-570.5" font-family="Helvetica,sans-Serif" font-size="10.00">+ ColorYellow</text>
<text text-anchor="start" x="220.84" y="-559.5" font-family="Helvetica,sans-Serif" font-size="10.00">+ guidePrefab</text>
<text text-anchor="start" x="220.84" y="-548.5" font-family="Helvetica,sans-Serif" font-size="10.00">+ hostDrawings</text>
<text text-anchor="start" x="220.84" y="-537.5" font-family="Helvetica,sans-Serif" font-size="10.00">+ clientDrawings</text>
<text text-anchor="start" x="220.84" y="-526.5" font-family="Helvetica,sans-Serif" font-size="10.00">+ hostGuides</text>
<text text-anchor="start" x="220.84" y="-515.5" font-family="Helvetica,sans-Serif" font-size="10.00">+ clientGuides</text>
<text text-anchor="start" x="220.84" y="-504.5" font-family="Helvetica,sans-Serif" font-size="10.00">&#45; hostTools</text>
<text text-anchor="start" x="220.84" y="-493.5" font-family="Helvetica,sans-Serif" font-size="10.00">&#45; clientTools</text>
<polyline fill="none" stroke="black" points="212.84,-486.5 311.84,-486.5 "/>
<text text-anchor="start" x="220.84" y="-474.5" font-family="Helvetica,sans-Serif" font-size="10.00">+ SelectTool()</text>
<text text-anchor="start" x="220.84" y="-463.5" font-family="Helvetica,sans-Serif" font-size="10.00">+ UndoDrawing()</text>
<text text-anchor="start" x="220.84" y="-452.5" font-family="Helvetica,sans-Serif" font-size="10.00">+ DeleteDrawings()</text>
<text text-anchor="start" x="220.84" y="-441.5" font-family="Helvetica,sans-Serif" font-size="10.00">+ SelectColor()</text>
<text text-anchor="start" x="220.84" y="-430.5" font-family="Helvetica,sans-Serif" font-size="10.00">+ PlaceGuide()</text>
<text text-anchor="start" x="220.84" y="-419.5" font-family="Helvetica,sans-Serif" font-size="10.00">&#45; Awake()</text>
</a>
</g>
</g>
<!-- Node2&#45;&gt;Node5 -->
<g id="edge7" class="edge">
<title>Node2&#45;&gt;Node5</title>
<path fill="none" stroke="midnightblue" d="M183.42,-1033.96C205.78,-1023.72 229.94,-1008.27 243.34,-986 300.67,-890.77 299.6,-762.17 287.65,-667.71"/>
<polygon fill="none" stroke="midnightblue" points="181.78,-1030.85 173.98,-1038.03 184.55,-1037.28 181.78,-1030.85"/>
</g>
<!-- Node3&#45;&gt;Node1 -->
<g id="edge2" class="edge">
<title>Node3&#45;&gt;Node1</title>
<path fill="none" stroke="#404040" d="M138.34,-182.23C138.34,-170.33 138.34,-158.35 138.34,-146.87"/>
<polygon fill="none" stroke="#404040" points="138.34,-146.64 134.34,-140.64 138.34,-134.64 142.34,-140.64 138.34,-146.64"/>
<text text-anchor="middle" x="170.84" y="-156" font-family="Helvetica,sans-Serif" font-size="10.00"> &#45;inputManager</text>
</g>
<!-- Node4&#45;&gt;Node3 -->
<g id="edge4" class="edge">
<title>Node4&#45;&gt;Node3</title>
<path fill="none" stroke="#404040" d="M139.82,-686.43C138.87,-680.23 138.04,-674.06 137.34,-668 124.32,-554.97 136.88,-525.78 137.34,-412 137.35,-409.94 137.36,-407.87 137.37,-405.78"/>
<polygon fill="none" stroke="#404040" points="137.37,-405.68 133.4,-399.66 137.43,-393.68 141.4,-399.7 137.37,-405.68"/>
<text text-anchor="middle" x="170.34" y="-537.5" font-family="Helvetica,sans-Serif" font-size="10.00"> &#45;videoManager</text>
</g>
<!-- Node5&#45;&gt;Node1 -->
<g id="edge6" class="edge">
<title>Node5&#45;&gt;Node1</title>
<path fill="none" stroke="#404040" d="M261.35,-412.2C256.66,-334.52 243.15,-234.68 207.34,-153 206.03,-150.01 204.58,-147.05 203.03,-144.11"/>
<polygon fill="none" stroke="#404040" points="202.97,-144.01 196.5,-140.82 196.94,-133.63 203.42,-136.81 202.97,-144.01"/>
<text text-anchor="middle" x="296.34" y="-285.5" font-family="Helvetica,sans-Serif" font-size="10.00"> &#45;aRToolManager</text>
</g>
</g>
</svg>
