<?xml version="1.0" encoding="UTF-8" standalone="no"?>
<!DOCTYPE svg PUBLIC "-//W3C//DTD SVG 1.1//EN"
 "http://www.w3.org/Graphics/SVG/1.1/DTD/svg11.dtd">
<!-- Generated by graphviz version 2.49.0 (20210828.1703)
 -->
<!-- Title: PeerConnectionManager.Awake Pages: 1 -->
<svg width="890pt" height="142pt"
 viewBox="0.00 0.00 890.00 142.00" xmlns="http://www.w3.org/2000/svg" xmlns:xlink="http://www.w3.org/1999/xlink">
<g id="graph0" class="graph" transform="scale(1 1) rotate(0) translate(4 138)">
<title>PeerConnectionManager.Awake</title>
<polygon fill="white" stroke="transparent" points="-4,4 -4,-138 886,-138 886,4 -4,4"/>
<!-- Node1 -->
<g id="node1" class="node">
<title>Node1</title>
<g id="a_node1"><a xlink:title="Llamada al crear el GameObject asociado">
<polygon fill="#bfbfbf" stroke="black" points="0,-57.5 0,-76.5 155,-76.5 155,-57.5 0,-57.5"/>
<text text-anchor="middle" x="77.5" y="-64.5" font-family="Helvetica,sans-Serif" font-size="10.00">PeerConnectionManager.Awake</text>
</a>
</g>
</g>
<!-- Node2 -->
<g id="node2" class="node">
<title>Node2</title>
<g id="a_node2"><a xlink:href="class_peer_connection_manager.html#aac8d251a66527dc0cb04ef9423bb1fef" target="_top" xlink:title="Cambia el estado del canal de audio">
<polygon fill="white" stroke="black" points="213,-114.5 213,-133.5 425,-133.5 425,-114.5 213,-114.5"/>
<text text-anchor="middle" x="319" y="-121.5" font-family="Helvetica,sans-Serif" font-size="10.00">PeerConnectionManager.EnableAudioStream</text>
</a>
</g>
</g>
<!-- Node1&#45;&gt;Node2 -->
<g id="edge1" class="edge">
<title>Node1&#45;&gt;Node2</title>
<path fill="none" stroke="midnightblue" d="M102.71,-76.57C125.25,-85.15 159.94,-97.49 191,-105 203.35,-107.98 216.49,-110.58 229.46,-112.82"/>
<polygon fill="midnightblue" stroke="midnightblue" points="228.89,-116.27 239.33,-114.45 230.04,-109.36 228.89,-116.27"/>
</g>
<!-- Node3 -->
<g id="node3" class="node">
<title>Node3</title>
<g id="a_node3"><a xlink:href="class_peer_connection_manager.html#a9cc97416c36f76d17771f7d61613cfc0" target="_top" xlink:title="Evalua si el par actual es host">
<polygon fill="white" stroke="black" points="240.5,-76.5 240.5,-95.5 397.5,-95.5 397.5,-76.5 240.5,-76.5"/>
<text text-anchor="middle" x="319" y="-83.5" font-family="Helvetica,sans-Serif" font-size="10.00">PeerConnectionManager.ImHost</text>
</a>
</g>
</g>
<!-- Node1&#45;&gt;Node3 -->
<g id="edge2" class="edge">
<title>Node1&#45;&gt;Node3</title>
<path fill="none" stroke="midnightblue" d="M155.27,-73.09C179.2,-74.99 205.77,-77.1 230.38,-79.05"/>
<polygon fill="midnightblue" stroke="midnightblue" points="230.19,-82.54 240.43,-79.85 230.74,-75.57 230.19,-82.54"/>
</g>
<!-- Node4 -->
<g id="node4" class="node">
<title>Node4</title>
<g id="a_node4"><a xlink:href="class_peer_connection_manager.html#a9167cfeb3f97d6c07ae8abd9b48ac597" target="_top" xlink:title="Llamada cuando el cliente se conecta">
<polygon fill="white" stroke="black" points="204,-38.5 204,-57.5 434,-57.5 434,-38.5 204,-38.5"/>
<text text-anchor="middle" x="319" y="-45.5" font-family="Helvetica,sans-Serif" font-size="10.00">PeerConnectionManager.OnClientReadyDelegate</text>
</a>
</g>
</g>
<!-- Node1&#45;&gt;Node4 -->
<g id="edge3" class="edge">
<title>Node1&#45;&gt;Node4</title>
<path fill="none" stroke="midnightblue" d="M155.27,-60.91C167.59,-59.93 180.61,-58.9 193.7,-57.86"/>
<polygon fill="midnightblue" stroke="midnightblue" points="194.03,-61.35 203.72,-57.07 193.47,-54.37 194.03,-61.35"/>
</g>
<!-- Node7 -->
<g id="node7" class="node">
<title>Node7</title>
<g id="a_node7"><a xlink:href="class_peer_connection_manager.html#a0a284ceb0c5a0f89563f4c2515b98e2b" target="_top" xlink:title="Llamada cuando se recibe un mensaje de base de datos">
<polygon fill="white" stroke="black" points="191,-0.5 191,-19.5 447,-19.5 447,-0.5 191,-0.5"/>
<text text-anchor="middle" x="319" y="-7.5" font-family="Helvetica,sans-Serif" font-size="10.00">PeerConnectionManager.OnMessageReceivedDelegate</text>
</a>
</g>
</g>
<!-- Node1&#45;&gt;Node7 -->
<g id="edge6" class="edge">
<title>Node1&#45;&gt;Node7</title>
<path fill="none" stroke="midnightblue" d="M102.71,-57.43C125.25,-48.85 159.94,-36.51 191,-29 203.35,-26.02 216.49,-23.42 229.46,-21.18"/>
<polygon fill="midnightblue" stroke="midnightblue" points="230.04,-24.64 239.33,-19.55 228.89,-17.73 230.04,-24.64"/>
</g>
<!-- Node5 -->
<g id="node5" class="node">
<title>Node5</title>
<g id="a_node5"><a xlink:href="class_peer_connection_manager.html#a37051871d1e21f16a1e4ff5409a58f8c" target="_top" xlink:title="Realiza la llamada para establecer la conexión">
<polygon fill="white" stroke="black" points="512.5,-38.5 512.5,-57.5 655.5,-57.5 655.5,-38.5 512.5,-38.5"/>
<text text-anchor="middle" x="584" y="-45.5" font-family="Helvetica,sans-Serif" font-size="10.00">PeerConnectionManager.Call</text>
</a>
</g>
</g>
<!-- Node4&#45;&gt;Node5 -->
<g id="edge4" class="edge">
<title>Node4&#45;&gt;Node5</title>
<path fill="none" stroke="midnightblue" d="M434.21,-48C457.19,-48 480.88,-48 502.42,-48"/>
<polygon fill="midnightblue" stroke="midnightblue" points="502.48,-51.5 512.48,-48 502.48,-44.5 502.48,-51.5"/>
</g>
<!-- Node6 -->
<g id="node6" class="node">
<title>Node6</title>
<g id="a_node6"><a xlink:href="class_database_manager.html#a31c16c7d1ec71b33cbf574d4e8810d71" target="_top" xlink:title="Envia un mensaje de conexión a base de datos">
<polygon fill="white" stroke="black" points="721,-19.5 721,-38.5 882,-38.5 882,-19.5 721,-19.5"/>
<text text-anchor="middle" x="801.5" y="-26.5" font-family="Helvetica,sans-Serif" font-size="10.00">DatabaseManager.SendMessage</text>
</a>
</g>
</g>
<!-- Node5&#45;&gt;Node6 -->
<g id="edge5" class="edge">
<title>Node5&#45;&gt;Node6</title>
<path fill="none" stroke="midnightblue" d="M655.56,-41.78C673.17,-40.23 692.29,-38.54 710.69,-36.92"/>
<polygon fill="midnightblue" stroke="midnightblue" points="711.17,-40.39 720.82,-36.03 710.55,-33.42 711.17,-40.39"/>
</g>
<!-- Node8 -->
<g id="node8" class="node">
<title>Node8</title>
<g id="a_node8"><a xlink:href="class_peer_connection_manager.html#a55cfe5d454913d9aa216cba1e9e11b84" target="_top" xlink:title="Lee un mensaje mediante la base de datos, se invoca cada vez que se envie un mensaje">
<polygon fill="white" stroke="black" points="483,-0.5 483,-19.5 685,-19.5 685,-0.5 483,-0.5"/>
<text text-anchor="middle" x="584" y="-7.5" font-family="Helvetica,sans-Serif" font-size="10.00">PeerConnectionManager.ReadMessageDB</text>
</a>
</g>
</g>
<!-- Node7&#45;&gt;Node8 -->
<g id="edge7" class="edge">
<title>Node7&#45;&gt;Node8</title>
<path fill="none" stroke="midnightblue" d="M447.26,-10C455.75,-10 464.25,-10 472.64,-10"/>
<polygon fill="midnightblue" stroke="midnightblue" points="472.8,-13.5 482.8,-10 472.8,-6.5 472.8,-13.5"/>
</g>
<!-- Node8&#45;&gt;Node6 -->
<g id="edge8" class="edge">
<title>Node8&#45;&gt;Node6</title>
<path fill="none" stroke="midnightblue" d="M685.18,-18.83C693.7,-19.58 702.28,-20.34 710.71,-21.08"/>
<polygon fill="midnightblue" stroke="midnightblue" points="710.63,-24.59 720.9,-21.98 711.25,-17.62 710.63,-24.59"/>
</g>
</g>
</svg>
