<?xml version="1.0" encoding="UTF-8" standalone="no"?>
<!DOCTYPE svg PUBLIC "-//W3C//DTD SVG 1.1//EN"
 "http://www.w3.org/Graphics/SVG/1.1/DTD/svg11.dtd">
<!-- Generated by graphviz version 2.49.0 (20210828.1703)
 -->
<!-- Title: RecorderManager.ToggleRecord Pages: 1 -->
<svg width="914pt" height="104pt"
 viewBox="0.00 0.00 914.00 104.00" xmlns="http://www.w3.org/2000/svg" xmlns:xlink="http://www.w3.org/1999/xlink">
<g id="graph0" class="graph" transform="scale(1 1) rotate(0) translate(4 100)">
<title>RecorderManager.ToggleRecord</title>
<polygon fill="white" stroke="transparent" points="-4,4 -4,-100 910,-100 910,4 -4,4"/>
<!-- Node1 -->
<g id="node1" class="node">
<title>Node1</title>
<g id="a_node1"><a xlink:title="Alterna entre comenzar la grabación o pararla">
<polygon fill="#bfbfbf" stroke="black" points="0,-19.5 0,-38.5 155,-38.5 155,-19.5 0,-19.5"/>
<text text-anchor="middle" x="77.5" y="-26.5" font-family="Helvetica,sans-Serif" font-size="10.00">RecorderManager.ToggleRecord</text>
</a>
</g>
</g>
<!-- Node2 -->
<g id="node2" class="node">
<title>Node2</title>
<g id="a_node2"><a xlink:href="class_recorder_manager.html#a12a78c0fd95f2c5040913c84003b27a4" target="_top" xlink:title="Comienza la grabación">
<polygon fill="white" stroke="black" points="191,-38.5 191,-57.5 352,-57.5 352,-38.5 191,-38.5"/>
<text text-anchor="middle" x="271.5" y="-45.5" font-family="Helvetica,sans-Serif" font-size="10.00">RecorderManager.StartRecording</text>
</a>
</g>
</g>
<!-- Node1&#45;&gt;Node2 -->
<g id="edge1" class="edge">
<title>Node1&#45;&gt;Node2</title>
<path fill="none" stroke="midnightblue" d="M155.21,-36.59C163.62,-37.42 172.23,-38.28 180.78,-39.12"/>
<polygon fill="midnightblue" stroke="midnightblue" points="180.47,-42.61 190.77,-40.11 181.16,-35.64 180.47,-42.61"/>
</g>
<!-- Node8 -->
<g id="node8" class="node">
<title>Node8</title>
<g id="a_node8"><a xlink:href="class_recorder_manager.html#a41f98e5ff08f958dce6d9d957682a7aa" target="_top" xlink:title="Para la grabación">
<polygon fill="white" stroke="black" points="191.5,-0.5 191.5,-19.5 351.5,-19.5 351.5,-0.5 191.5,-0.5"/>
<text text-anchor="middle" x="271.5" y="-7.5" font-family="Helvetica,sans-Serif" font-size="10.00">RecorderManager.StopRecording</text>
</a>
</g>
</g>
<!-- Node1&#45;&gt;Node8 -->
<g id="edge8" class="edge">
<title>Node1&#45;&gt;Node8</title>
<path fill="none" stroke="midnightblue" d="M155.21,-21.41C163.77,-20.56 172.54,-19.69 181.24,-18.83"/>
<polygon fill="midnightblue" stroke="midnightblue" points="181.79,-22.3 191.4,-17.83 181.1,-15.33 181.79,-22.3"/>
</g>
<!-- Node3 -->
<g id="node3" class="node">
<title>Node3</title>
<g id="a_node3"><a xlink:href="class_android_utils.html#af53d417f93c9f33d0ba4943af3cc86ae" target="_top" xlink:title=" ">
<polygon fill="white" stroke="black" points="388,-38.5 388,-57.5 525,-57.5 525,-38.5 388,-38.5"/>
<text text-anchor="middle" x="456.5" y="-45.5" font-family="Helvetica,sans-Serif" font-size="10.00">AndroidUtils.StartRecording</text>
</a>
</g>
</g>
<!-- Node2&#45;&gt;Node3 -->
<g id="edge2" class="edge">
<title>Node2&#45;&gt;Node3</title>
<path fill="none" stroke="midnightblue" d="M352.23,-48C360.66,-48 369.21,-48 377.62,-48"/>
<polygon fill="midnightblue" stroke="midnightblue" points="377.77,-51.5 387.77,-48 377.77,-44.5 377.77,-51.5"/>
</g>
<!-- Node4 -->
<g id="node4" class="node">
<title>Node4</title>
<g id="a_node4"><a xlink:href="class_android_utils.html#a5ea9e5ec637706a8bc9c508e88fdeabb" target="_top" xlink:title=" ">
<polygon fill="white" stroke="black" points="578.5,-76.5 578.5,-95.5 700.5,-95.5 700.5,-76.5 578.5,-76.5"/>
<text text-anchor="middle" x="639.5" y="-83.5" font-family="Helvetica,sans-Serif" font-size="10.00">AndroidUtils.IsPermitted</text>
</a>
</g>
</g>
<!-- Node3&#45;&gt;Node4 -->
<g id="edge3" class="edge">
<title>Node3&#45;&gt;Node4</title>
<path fill="none" stroke="midnightblue" d="M503.17,-57.59C527.49,-62.69 557.58,-69.01 583.21,-74.39"/>
<polygon fill="midnightblue" stroke="midnightblue" points="582.65,-77.85 593.15,-76.48 584.09,-71 582.65,-77.85"/>
</g>
<!-- Node6 -->
<g id="node6" class="node">
<title>Node6</title>
<g id="a_node6"><a xlink:href="class_android_utils.html#a3e4428268503fe82ecd74416c37b2ae2" target="_top" xlink:title=" ">
<polygon fill="white" stroke="black" points="561,-38.5 561,-57.5 718,-57.5 718,-38.5 561,-38.5"/>
<text text-anchor="middle" x="639.5" y="-45.5" font-family="Helvetica,sans-Serif" font-size="10.00">AndroidUtils.RequestPermission</text>
</a>
</g>
</g>
<!-- Node3&#45;&gt;Node6 -->
<g id="edge5" class="edge">
<title>Node3&#45;&gt;Node6</title>
<path fill="none" stroke="midnightblue" d="M525.16,-48C533.53,-48 542.18,-48 550.79,-48"/>
<polygon fill="midnightblue" stroke="midnightblue" points="550.88,-51.5 560.88,-48 550.88,-44.5 550.88,-51.5"/>
</g>
<!-- Node7 -->
<g id="node7" class="node">
<title>Node7</title>
<g id="a_node7"><a xlink:href="class_android_utils.html#af3ddee265b4dfc672eddae5699c8fb2b" target="_top" xlink:title=" ">
<polygon fill="white" stroke="black" points="579.5,-0.5 579.5,-19.5 699.5,-19.5 699.5,-0.5 579.5,-0.5"/>
<text text-anchor="middle" x="639.5" y="-7.5" font-family="Helvetica,sans-Serif" font-size="10.00">AndroidUtils.ShowToast</text>
</a>
</g>
</g>
<!-- Node3&#45;&gt;Node7 -->
<g id="edge7" class="edge">
<title>Node3&#45;&gt;Node7</title>
<path fill="none" stroke="midnightblue" d="M503.17,-38.41C527.49,-33.31 557.58,-26.99 583.21,-21.61"/>
<polygon fill="midnightblue" stroke="midnightblue" points="584.09,-25 593.15,-19.52 582.65,-18.15 584.09,-25"/>
</g>
<!-- Node5 -->
<g id="node5" class="node">
<title>Node5</title>
<g id="a_node5"><a xlink:href="class_android_utils.html#af4c6dc91c5c610c75c6685a19bf61abe" target="_top" xlink:title=" ">
<polygon fill="white" stroke="black" points="754,-57.5 754,-76.5 906,-76.5 906,-57.5 754,-57.5"/>
<text text-anchor="middle" x="830" y="-64.5" font-family="Helvetica,sans-Serif" font-size="10.00">AndroidUtils.GetPermissionStrr</text>
</a>
</g>
</g>
<!-- Node4&#45;&gt;Node5 -->
<g id="edge4" class="edge">
<title>Node4&#45;&gt;Node5</title>
<path fill="none" stroke="midnightblue" d="M700.66,-79.94C714.41,-78.55 729.27,-77.05 743.84,-75.58"/>
<polygon fill="midnightblue" stroke="midnightblue" points="744.26,-79.06 753.86,-74.57 743.56,-72.09 744.26,-79.06"/>
</g>
<!-- Node6&#45;&gt;Node5 -->
<g id="edge6" class="edge">
<title>Node6&#45;&gt;Node5</title>
<path fill="none" stroke="midnightblue" d="M718.26,-55.84C726.71,-56.69 735.35,-57.56 743.89,-58.42"/>
<polygon fill="midnightblue" stroke="midnightblue" points="743.55,-61.9 753.85,-59.43 744.25,-54.94 743.55,-61.9"/>
</g>
<!-- Node9 -->
<g id="node9" class="node">
<title>Node9</title>
<g id="a_node9"><a xlink:href="class_android_utils.html#a3a6673af4346ebfe0019549914a3aeb9" target="_top" xlink:title=" ">
<polygon fill="white" stroke="black" points="388.5,-0.5 388.5,-19.5 524.5,-19.5 524.5,-0.5 388.5,-0.5"/>
<text text-anchor="middle" x="456.5" y="-7.5" font-family="Helvetica,sans-Serif" font-size="10.00">AndroidUtils.StopRecording</text>
</a>
</g>
</g>
<!-- Node8&#45;&gt;Node9 -->
<g id="edge9" class="edge">
<title>Node8&#45;&gt;Node9</title>
<path fill="none" stroke="midnightblue" d="M351.7,-10C360.45,-10 369.35,-10 378.08,-10"/>
<polygon fill="midnightblue" stroke="midnightblue" points="378.22,-13.5 388.22,-10 378.22,-6.5 378.22,-13.5"/>
</g>
</g>
</svg>
