<?xml version="1.0" encoding="UTF-8" standalone="no"?>
<!DOCTYPE svg PUBLIC "-//W3C//DTD SVG 1.1//EN"
 "http://www.w3.org/Graphics/SVG/1.1/DTD/svg11.dtd">
<!-- Generated by graphviz version 2.49.0 (20210828.1703)
 -->
<!-- Title: ARToolManager.SelectColor Pages: 1 -->
<svg width="570pt" height="66pt"
 viewBox="0.00 0.00 570.00 66.00" xmlns="http://www.w3.org/2000/svg" xmlns:xlink="http://www.w3.org/1999/xlink">
<g id="graph0" class="graph" transform="scale(1 1) rotate(0) translate(4 62)">
<title>ARToolManager.SelectColor</title>
<polygon fill="white" stroke="transparent" points="-4,4 -4,-62 566,-62 566,4 -4,4"/>
<!-- Node1 -->
<g id="node1" class="node">
<title>Node1</title>
<g id="a_node1"><a xlink:title="Selecciona el color actual para el par seleccionado">
<polygon fill="#bfbfbf" stroke="black" points="423,-19.5 423,-38.5 562,-38.5 562,-19.5 423,-19.5"/>
<text text-anchor="middle" x="492.5" y="-26.5" font-family="Helvetica,sans-Serif" font-size="10.00">ARToolManager.SelectColor</text>
</a>
</g>
</g>
<!-- Node2 -->
<g id="node2" class="node">
<title>Node2</title>
<g id="a_node2"><a xlink:href="class_peer_connection_manager.html#acce72dd729e1abda9e126f7c1bd317ce" target="_top" xlink:title="Crea los canales de datos">
<polygon fill="white" stroke="black" points="183,-38.5 183,-57.5 387,-57.5 387,-38.5 183,-38.5"/>
<text text-anchor="middle" x="285" y="-45.5" font-family="Helvetica,sans-Serif" font-size="10.00">PeerConnectionManager.AddDataChannels</text>
</a>
</g>
</g>
<!-- Node1&#45;&gt;Node2 -->
<g id="edge1" class="edge">
<title>Node1&#45;&gt;Node2</title>
<path fill="none" stroke="midnightblue" d="M412.73,-36.28C404.38,-37.06 395.8,-37.85 387.24,-38.64"/>
<polygon fill="midnightblue" stroke="midnightblue" points="413.15,-39.76 422.79,-35.35 412.51,-32.79 413.15,-39.76"/>
</g>
<!-- Node4 -->
<g id="node4" class="node">
<title>Node4</title>
<g id="a_node4"><a xlink:href="class_toolbar_u_i_controller.html#a3ceadb76355e7695d534a76d7ec700de" target="_top" xlink:title="Intercambia el elemento actualmente seleccionado de una barra (herramienta o color) por el elemento q...">
<polygon fill="white" stroke="black" points="195,-0.5 195,-19.5 375,-19.5 375,-0.5 195,-0.5"/>
<text text-anchor="middle" x="285" y="-7.5" font-family="Helvetica,sans-Serif" font-size="10.00">ToolbarUIController.SelectBarElement</text>
</a>
</g>
</g>
<!-- Node1&#45;&gt;Node4 -->
<g id="edge3" class="edge">
<title>Node1&#45;&gt;Node4</title>
<path fill="none" stroke="midnightblue" d="M412.61,-21.71C400.34,-20.57 387.59,-19.39 375.11,-18.24"/>
<polygon fill="midnightblue" stroke="midnightblue" points="412.51,-25.21 422.79,-22.65 413.15,-18.24 412.51,-25.21"/>
</g>
<!-- Node3 -->
<g id="node3" class="node">
<title>Node3</title>
<g id="a_node3"><a xlink:href="class_peer_connection_manager.html#a058148001392c4d6106cc784ec477256" target="_top" xlink:title="Llamada justo antes del primer fotograma">
<polygon fill="white" stroke="black" points="0,-38.5 0,-57.5 147,-57.5 147,-38.5 0,-38.5"/>
<text text-anchor="middle" x="73.5" y="-45.5" font-family="Helvetica,sans-Serif" font-size="10.00">PeerConnectionManager.Start</text>
</a>
</g>
</g>
<!-- Node2&#45;&gt;Node3 -->
<g id="edge2" class="edge">
<title>Node2&#45;&gt;Node3</title>
<path fill="none" stroke="midnightblue" d="M172.78,-48C164.14,-48 155.56,-48 147.27,-48"/>
<polygon fill="midnightblue" stroke="midnightblue" points="172.93,-51.5 182.93,-48 172.93,-44.5 172.93,-51.5"/>
</g>
<!-- Node5 -->
<g id="node5" class="node">
<title>Node5</title>
<g id="a_node5"><a xlink:href="class_toolbar_u_i_controller.html#a7c36bd2332e575e710320a80023b93de" target="_top" xlink:title="Llamada justo antes del primer fotograma">
<polygon fill="white" stroke="black" points="12.5,-0.5 12.5,-19.5 134.5,-19.5 134.5,-0.5 12.5,-0.5"/>
<text text-anchor="middle" x="73.5" y="-7.5" font-family="Helvetica,sans-Serif" font-size="10.00">ToolbarUIController.Start</text>
</a>
</g>
</g>
<!-- Node4&#45;&gt;Node5 -->
<g id="edge4" class="edge">
<title>Node4&#45;&gt;Node5</title>
<path fill="none" stroke="midnightblue" d="M184.82,-10C167.73,-10 150.44,-10 134.78,-10"/>
<polygon fill="midnightblue" stroke="midnightblue" points="184.85,-13.5 194.85,-10 184.85,-6.5 184.85,-13.5"/>
</g>
</g>
</svg>
