<?xml version="1.0" encoding="UTF-8" standalone="no"?>
<!DOCTYPE svg PUBLIC "-//W3C//DTD SVG 1.1//EN"
 "http://www.w3.org/Graphics/SVG/1.1/DTD/svg11.dtd">
<!-- Generated by graphviz version 2.49.0 (20210828.1703)
 -->
<!-- Title: MicrophoneListener.Start Pages: 1 -->
<svg width="636pt" height="47pt"
 viewBox="0.00 0.00 636.00 47.00" xmlns="http://www.w3.org/2000/svg" xmlns:xlink="http://www.w3.org/1999/xlink">
<g id="graph0" class="graph" transform="scale(1 1) rotate(0) translate(4 43)">
<title>MicrophoneListener.Start</title>
<polygon fill="white" stroke="transparent" points="-4,4 -4,-43 632,-43 632,4 -4,4"/>
<!-- Node1 -->
<g id="node1" class="node">
<title>Node1</title>
<g id="a_node1"><a xlink:title=" ">
<polygon fill="#bfbfbf" stroke="black" points="0,-19.5 0,-38.5 125,-38.5 125,-19.5 0,-19.5"/>
<text text-anchor="middle" x="62.5" y="-26.5" font-family="Helvetica,sans-Serif" font-size="10.00">MicrophoneListener.Start</text>
</a>
</g>
</g>
<!-- Node2 -->
<g id="node2" class="node">
<title>Node2</title>
<g id="a_node2"><a xlink:href="class_microphone_listener.html#aa333000bbeba3c0ddd4d010057f570a3" target="_top" xlink:title=" ">
<polygon fill="white" stroke="black" points="407,-19.5 407,-38.5 628,-38.5 628,-19.5 407,-19.5"/>
<text text-anchor="middle" x="517.5" y="-26.5" font-family="Helvetica,sans-Serif" font-size="10.00">MicrophoneListener.RestartMicrophoneListener</text>
</a>
</g>
</g>
<!-- Node1&#45;&gt;Node2 -->
<g id="edge1" class="edge">
<title>Node1&#45;&gt;Node2</title>
<path fill="none" stroke="midnightblue" d="M125.07,-29C194.53,-29 309.18,-29 396.5,-29"/>
<polygon fill="midnightblue" stroke="midnightblue" points="396.74,-32.5 406.74,-29 396.74,-25.5 396.74,-32.5"/>
</g>
<!-- Node3 -->
<g id="node3" class="node">
<title>Node3</title>
<g id="a_node3"><a xlink:href="class_microphone_listener.html#a5cf4eb3958db2ea278c862836d37fdbb" target="_top" xlink:title=" ">
<polygon fill="white" stroke="black" points="161,-0.5 161,-19.5 371,-19.5 371,-0.5 161,-0.5"/>
<text text-anchor="middle" x="266" y="-7.5" font-family="Helvetica,sans-Serif" font-size="10.00">MicrophoneListener.StartMicrophoneListener</text>
</a>
</g>
</g>
<!-- Node1&#45;&gt;Node3 -->
<g id="edge2" class="edge">
<title>Node1&#45;&gt;Node3</title>
<path fill="none" stroke="midnightblue" d="M125.05,-23.2C134.34,-22.32 144.15,-21.39 154.1,-20.46"/>
<polygon fill="midnightblue" stroke="midnightblue" points="154.45,-23.94 164.08,-19.52 153.79,-16.97 154.45,-23.94"/>
</g>
<!-- Node3&#45;&gt;Node2 -->
<g id="edge3" class="edge">
<title>Node3&#45;&gt;Node2</title>
<path fill="none" stroke="midnightblue" d="M371,-17.92C379.46,-18.56 388.05,-19.22 396.61,-19.87"/>
<polygon fill="midnightblue" stroke="midnightblue" points="396.39,-23.36 406.63,-20.63 396.92,-16.38 396.39,-23.36"/>
</g>
</g>
</svg>
