<?xml version="1.0" encoding="UTF-8" standalone="no"?>
<!DOCTYPE svg PUBLIC "-//W3C//DTD SVG 1.1//EN"
 "http://www.w3.org/Graphics/SVG/1.1/DTD/svg11.dtd">
<!-- Generated by graphviz version 2.49.0 (20210828.1703)
 -->
<!-- Title: ToolbarUIController.Start Pages: 1 -->
<svg width="1214pt" height="294pt"
 viewBox="0.00 0.00 1214.00 294.00" xmlns="http://www.w3.org/2000/svg" xmlns:xlink="http://www.w3.org/1999/xlink">
<g id="graph0" class="graph" transform="scale(1 1) rotate(0) translate(4 290)">
<title>ToolbarUIController.Start</title>
<polygon fill="white" stroke="transparent" points="-4,4 -4,-290 1210,-290 1210,4 -4,4"/>
<!-- Node1 -->
<g id="node1" class="node">
<title>Node1</title>
<g id="a_node1"><a xlink:title="Llamada justo antes del primer fotograma">
<polygon fill="#bfbfbf" stroke="black" points="0,-171.5 0,-190.5 122,-190.5 122,-171.5 0,-171.5"/>
<text text-anchor="middle" x="61" y="-178.5" font-family="Helvetica,sans-Serif" font-size="10.00">ToolbarUIController.Start</text>
</a>
</g>
</g>
<!-- Node2 -->
<g id="node2" class="node">
<title>Node2</title>
<g id="a_node2"><a xlink:href="class_a_r_tool_manager.html#ab3ba41799d1887d36ba5d36f4960afbc" target="_top" xlink:title="Elimina todos los trazos o marcadores del par seleccionado">
<polygon fill="white" stroke="black" points="170,-266.5 170,-285.5 326,-285.5 326,-266.5 170,-266.5"/>
<text text-anchor="middle" x="248" y="-273.5" font-family="Helvetica,sans-Serif" font-size="10.00">ARToolManager.DeleteDrawings</text>
</a>
</g>
</g>
<!-- Node1&#45;&gt;Node2 -->
<g id="edge1" class="edge">
<title>Node1&#45;&gt;Node2</title>
<path fill="none" stroke="midnightblue" d="M71.07,-190.64C87.02,-206.97 121.84,-239.98 158,-257 163.31,-259.5 168.96,-261.68 174.72,-263.57"/>
<polygon fill="midnightblue" stroke="midnightblue" points="173.93,-266.98 184.51,-266.49 175.93,-260.27 173.93,-266.98"/>
</g>
<!-- Node3 -->
<g id="node3" class="node">
<title>Node3</title>
<g id="a_node3"><a xlink:href="class_client_manager.html#ad9f8efff4e5760b14fc571d13fcd124d" target="_top" xlink:title="Elimina los trazos o herramientas de un par">
<polygon fill="white" stroke="black" points="173.5,-228.5 173.5,-247.5 322.5,-247.5 322.5,-228.5 173.5,-228.5"/>
<text text-anchor="middle" x="248" y="-235.5" font-family="Helvetica,sans-Serif" font-size="10.00">ClientManager.DeleteDrawings</text>
</a>
</g>
</g>
<!-- Node1&#45;&gt;Node3 -->
<g id="edge2" class="edge">
<title>Node1&#45;&gt;Node3</title>
<path fill="none" stroke="midnightblue" d="M83.37,-190.65C102.59,-199.04 131.75,-211.06 158,-219 166.77,-221.65 176.14,-224.08 185.38,-226.25"/>
<polygon fill="midnightblue" stroke="midnightblue" points="184.8,-229.7 195.33,-228.49 186.35,-222.87 184.8,-229.7"/>
</g>
<!-- Node4 -->
<g id="node4" class="node">
<title>Node4</title>
<g id="a_node4"><a xlink:href="class_peer_connection_manager.html#ac4577b58d566fb35458448f45920978f" target="_top" xlink:title="Cuelga la videollamada">
<polygon fill="white" stroke="black" points="167.5,-190.5 167.5,-209.5 328.5,-209.5 328.5,-190.5 167.5,-190.5"/>
<text text-anchor="middle" x="248" y="-197.5" font-family="Helvetica,sans-Serif" font-size="10.00">PeerConnectionManager.HangUp</text>
</a>
</g>
</g>
<!-- Node1&#45;&gt;Node4 -->
<g id="edge3" class="edge">
<title>Node1&#45;&gt;Node4</title>
<path fill="none" stroke="midnightblue" d="M122.06,-187.17C133.36,-188.33 145.39,-189.56 157.35,-190.79"/>
<polygon fill="midnightblue" stroke="midnightblue" points="157.07,-194.28 167.37,-191.82 157.78,-187.32 157.07,-194.28"/>
</g>
<!-- Node10 -->
<g id="node10" class="node">
<title>Node10</title>
<g id="a_node10"><a xlink:href="class_toolbar_u_i_controller.html#a3ceadb76355e7695d534a76d7ec700de" target="_top" xlink:title="Intercambia el elemento actualmente seleccionado de una barra (herramienta o color) por el elemento q...">
<polygon fill="white" stroke="black" points="158,-152.5 158,-171.5 338,-171.5 338,-152.5 158,-152.5"/>
<text text-anchor="middle" x="248" y="-159.5" font-family="Helvetica,sans-Serif" font-size="10.00">ToolbarUIController.SelectBarElement</text>
</a>
</g>
</g>
<!-- Node1&#45;&gt;Node10 -->
<g id="edge9" class="edge">
<title>Node1&#45;&gt;Node10</title>
<path fill="none" stroke="midnightblue" d="M122.06,-174.83C130.25,-173.99 138.83,-173.11 147.49,-172.22"/>
<polygon fill="midnightblue" stroke="midnightblue" points="148.09,-175.68 157.68,-171.17 147.37,-168.71 148.09,-175.68"/>
</g>
<!-- Node15 -->
<g id="node15" class="node">
<title>Node15</title>
<g id="a_node15"><a xlink:href="class_toolbar_u_i_controller.html#abbae46a87cd3123069fb7cbca4cc2198" target="_top" xlink:title="Alterna la visibilidad de la barra seleccionada">
<polygon fill="white" stroke="black" points="175.5,-114.5 175.5,-133.5 320.5,-133.5 320.5,-114.5 175.5,-114.5"/>
<text text-anchor="middle" x="248" y="-121.5" font-family="Helvetica,sans-Serif" font-size="10.00">ToolbarUIController.ToggleBar</text>
</a>
</g>
</g>
<!-- Node1&#45;&gt;Node15 -->
<g id="edge14" class="edge">
<title>Node1&#45;&gt;Node15</title>
<path fill="none" stroke="midnightblue" d="M83.37,-171.35C102.59,-162.96 131.75,-150.94 158,-143 166.77,-140.35 176.14,-137.92 185.38,-135.75"/>
<polygon fill="midnightblue" stroke="midnightblue" points="186.35,-139.13 195.33,-133.51 184.8,-132.3 186.35,-139.13"/>
</g>
<!-- Node16 -->
<g id="node16" class="node">
<title>Node16</title>
<g id="a_node16"><a xlink:href="class_recorder_manager.html#af4f6bc58b8be4b847c30c57d1fe6a730" target="_top" xlink:title="Alterna entre comenzar la grabación o pararla">
<polygon fill="white" stroke="black" points="170.5,-38.5 170.5,-57.5 325.5,-57.5 325.5,-38.5 170.5,-38.5"/>
<text text-anchor="middle" x="248" y="-45.5" font-family="Helvetica,sans-Serif" font-size="10.00">RecorderManager.ToggleRecord</text>
</a>
</g>
</g>
<!-- Node1&#45;&gt;Node16 -->
<g id="edge15" class="edge">
<title>Node1&#45;&gt;Node16</title>
<path fill="none" stroke="midnightblue" d="M73.24,-171.5C90.88,-156.72 126.33,-127.59 158,-105 179.12,-89.94 204.05,-74.13 222.14,-62.99"/>
<polygon fill="midnightblue" stroke="midnightblue" points="224.22,-65.82 230.93,-57.62 220.57,-59.85 224.22,-65.82"/>
</g>
<!-- Node5 -->
<g id="node5" class="node">
<title>Node5</title>
<g id="a_node5"><a xlink:href="class_my_scene_manager.html#a6787f49b73d5e0c4e80fd67d38f5550a" target="_top" xlink:title="Carga la escena seleccionada">
<polygon fill="white" stroke="black" points="393.5,-266.5 393.5,-285.5 540.5,-285.5 540.5,-266.5 393.5,-266.5"/>
<text text-anchor="middle" x="467" y="-273.5" font-family="Helvetica,sans-Serif" font-size="10.00">MySceneManager.LoadScene</text>
</a>
</g>
</g>
<!-- Node4&#45;&gt;Node5 -->
<g id="edge4" class="edge">
<title>Node4&#45;&gt;Node5</title>
<path fill="none" stroke="midnightblue" d="M315.76,-209.6C323.52,-212.05 331.11,-215.13 338,-219 358.29,-230.39 353.67,-245.68 374,-257 378.15,-259.31 382.54,-261.34 387.07,-263.12"/>
<polygon fill="midnightblue" stroke="midnightblue" points="385.92,-266.43 396.52,-266.45 388.25,-259.83 385.92,-266.43"/>
</g>
<!-- Node6 -->
<g id="node6" class="node">
<title>Node6</title>
<g id="a_node6"><a xlink:href="class_peer_connection_manager.html#ad792df6efa61aa9a558aab9b76604a87" target="_top" xlink:title="Señaliza que el par no listo para la conexión">
<polygon fill="white" stroke="black" points="374,-228.5 374,-247.5 560,-247.5 560,-228.5 374,-228.5"/>
<text text-anchor="middle" x="467" y="-235.5" font-family="Helvetica,sans-Serif" font-size="10.00">PeerConnectionManager.UnReadyUser</text>
</a>
</g>
</g>
<!-- Node4&#45;&gt;Node6 -->
<g id="edge5" class="edge">
<title>Node4&#45;&gt;Node6</title>
<path fill="none" stroke="midnightblue" d="M303.48,-209.54C333.27,-214.76 370.36,-221.25 401.59,-226.72"/>
<polygon fill="midnightblue" stroke="midnightblue" points="401.05,-230.18 411.5,-228.46 402.25,-223.28 401.05,-230.18"/>
</g>
<!-- Node7 -->
<g id="node7" class="node">
<title>Node7</title>
<g id="a_node7"><a xlink:href="class_database_manager.html#a178acb8bd938e615aa34330e64f715ea" target="_top" xlink:title="Señaliza en base de datos que un par no listo para la conexión">
<polygon fill="white" stroke="black" points="596,-228.5 596,-247.5 754,-247.5 754,-228.5 596,-228.5"/>
<text text-anchor="middle" x="675" y="-235.5" font-family="Helvetica,sans-Serif" font-size="10.00">DatabaseManager.UnReadyUser</text>
</a>
</g>
</g>
<!-- Node6&#45;&gt;Node7 -->
<g id="edge6" class="edge">
<title>Node6&#45;&gt;Node7</title>
<path fill="none" stroke="midnightblue" d="M560.15,-238C568.61,-238 577.16,-238 585.58,-238"/>
<polygon fill="midnightblue" stroke="midnightblue" points="585.77,-241.5 595.77,-238 585.77,-234.5 585.77,-241.5"/>
</g>
<!-- Node8 -->
<g id="node8" class="node">
<title>Node8</title>
<g id="a_node8"><a xlink:href="class_database_manager.html#a1854ec336517d562b14ec72287f986cb" target="_top" xlink:title="Lanza el evento OnClientReady">
<polygon fill="white" stroke="black" points="803,-247.5 803,-266.5 1005,-266.5 1005,-247.5 803,-247.5"/>
<text text-anchor="middle" x="904" y="-254.5" font-family="Helvetica,sans-Serif" font-size="10.00">DatabaseManager.OnClientReadyDelegate</text>
</a>
</g>
</g>
<!-- Node7&#45;&gt;Node8 -->
<g id="edge7" class="edge">
<title>Node7&#45;&gt;Node8</title>
<path fill="none" stroke="midnightblue" d="M754.12,-244.54C766.47,-245.57 779.43,-246.66 792.35,-247.74"/>
<polygon fill="midnightblue" stroke="midnightblue" points="792.43,-251.26 802.69,-248.6 793.01,-244.28 792.43,-251.26"/>
</g>
<!-- Node9 -->
<g id="node9" class="node">
<title>Node9</title>
<g id="a_node9"><a xlink:href="class_database_manager.html#a195ea9d14ebff0203ccdf30de9801069" target="_top" xlink:title="Lanza el evento OnMessageReceived">
<polygon fill="white" stroke="black" points="790,-209.5 790,-228.5 1018,-228.5 1018,-209.5 790,-209.5"/>
<text text-anchor="middle" x="904" y="-216.5" font-family="Helvetica,sans-Serif" font-size="10.00">DatabaseManager.OnMessageReceivedDelegate</text>
</a>
</g>
</g>
<!-- Node7&#45;&gt;Node9 -->
<g id="edge8" class="edge">
<title>Node7&#45;&gt;Node9</title>
<path fill="none" stroke="midnightblue" d="M754.12,-231.46C762.42,-230.77 770.99,-230.05 779.65,-229.32"/>
<polygon fill="midnightblue" stroke="midnightblue" points="780.15,-232.79 789.83,-228.47 779.57,-225.82 780.15,-232.79"/>
</g>
<!-- Node11 -->
<g id="node11" class="node">
<title>Node11</title>
<g id="a_node11"><a xlink:href="class_a_r_tool_manager.html#af9a83789810f1f49396d859e950a994d" target="_top" xlink:title="Selecciona el color actual para el par seleccionado">
<polygon fill="white" stroke="black" points="397.5,-190.5 397.5,-209.5 536.5,-209.5 536.5,-190.5 397.5,-190.5"/>
<text text-anchor="middle" x="467" y="-197.5" font-family="Helvetica,sans-Serif" font-size="10.00">ARToolManager.SelectColor</text>
</a>
</g>
</g>
<!-- Node10&#45;&gt;Node11 -->
<g id="edge10" class="edge">
<title>Node10&#45;&gt;Node11</title>
<path fill="none" stroke="midnightblue" d="M303.48,-171.54C333.27,-176.76 370.36,-183.25 401.59,-188.72"/>
<polygon fill="midnightblue" stroke="midnightblue" points="401.05,-192.18 411.5,-190.46 402.25,-185.28 401.05,-192.18"/>
</g>
<!-- Node12 -->
<g id="node12" class="node">
<title>Node12</title>
<g id="a_node12"><a xlink:href="class_client_manager.html#adf223624713fef035e346e07ccec906a" target="_top" xlink:title="Selecciona un color">
<polygon fill="white" stroke="black" points="401,-152.5 401,-171.5 533,-171.5 533,-152.5 401,-152.5"/>
<text text-anchor="middle" x="467" y="-159.5" font-family="Helvetica,sans-Serif" font-size="10.00">ClientManager.SelectColor</text>
</a>
</g>
</g>
<!-- Node10&#45;&gt;Node12 -->
<g id="edge11" class="edge">
<title>Node10&#45;&gt;Node12</title>
<path fill="none" stroke="midnightblue" d="M338.2,-162C355.53,-162 373.54,-162 390.38,-162"/>
<polygon fill="midnightblue" stroke="midnightblue" points="390.69,-165.5 400.69,-162 390.69,-158.5 390.69,-165.5"/>
</g>
<!-- Node13 -->
<g id="node13" class="node">
<title>Node13</title>
<g id="a_node13"><a xlink:href="class_a_r_tool_manager.html#a4ba91608a57b3aa14fa66857c5b5d337" target="_top" xlink:title="Selecciona la heramienta elegida para el par seleccionado">
<polygon fill="white" stroke="black" points="400,-114.5 400,-133.5 534,-133.5 534,-114.5 400,-114.5"/>
<text text-anchor="middle" x="467" y="-121.5" font-family="Helvetica,sans-Serif" font-size="10.00">ARToolManager.SelectTool</text>
</a>
</g>
</g>
<!-- Node10&#45;&gt;Node13 -->
<g id="edge12" class="edge">
<title>Node10&#45;&gt;Node13</title>
<path fill="none" stroke="midnightblue" d="M303.48,-152.46C333.27,-147.24 370.36,-140.75 401.59,-135.28"/>
<polygon fill="midnightblue" stroke="midnightblue" points="402.25,-138.72 411.5,-133.54 401.05,-131.82 402.25,-138.72"/>
</g>
<!-- Node14 -->
<g id="node14" class="node">
<title>Node14</title>
<g id="a_node14"><a xlink:href="class_client_manager.html#aa2ae5a54ff9b27bf90044a97033f9104" target="_top" xlink:title="Selecciona una herramienta">
<polygon fill="white" stroke="black" points="403,-76.5 403,-95.5 531,-95.5 531,-76.5 403,-76.5"/>
<text text-anchor="middle" x="467" y="-83.5" font-family="Helvetica,sans-Serif" font-size="10.00">ClientManager.SelectTool</text>
</a>
</g>
</g>
<!-- Node10&#45;&gt;Node14 -->
<g id="edge13" class="edge">
<title>Node10&#45;&gt;Node14</title>
<path fill="none" stroke="midnightblue" d="M315.76,-152.4C323.52,-149.95 331.11,-146.87 338,-143 358.29,-131.61 353.67,-116.32 374,-105 379.94,-101.7 386.38,-98.96 393,-96.7"/>
<polygon fill="midnightblue" stroke="midnightblue" points="394.25,-99.98 402.8,-93.72 392.21,-93.29 394.25,-99.98"/>
</g>
<!-- Node17 -->
<g id="node17" class="node">
<title>Node17</title>
<g id="a_node17"><a xlink:href="class_recorder_manager.html#a12a78c0fd95f2c5040913c84003b27a4" target="_top" xlink:title="Comienza la grabación">
<polygon fill="white" stroke="black" points="386.5,-38.5 386.5,-57.5 547.5,-57.5 547.5,-38.5 386.5,-38.5"/>
<text text-anchor="middle" x="467" y="-45.5" font-family="Helvetica,sans-Serif" font-size="10.00">RecorderManager.StartRecording</text>
</a>
</g>
</g>
<!-- Node16&#45;&gt;Node17 -->
<g id="edge16" class="edge">
<title>Node16&#45;&gt;Node17</title>
<path fill="none" stroke="midnightblue" d="M325.51,-48C341.78,-48 359.1,-48 375.82,-48"/>
<polygon fill="midnightblue" stroke="midnightblue" points="376.14,-51.5 386.14,-48 376.14,-44.5 376.14,-51.5"/>
</g>
<!-- Node23 -->
<g id="node23" class="node">
<title>Node23</title>
<g id="a_node23"><a xlink:href="class_recorder_manager.html#a41f98e5ff08f958dce6d9d957682a7aa" target="_top" xlink:title="Para la grabación">
<polygon fill="white" stroke="black" points="387,-0.5 387,-19.5 547,-19.5 547,-0.5 387,-0.5"/>
<text text-anchor="middle" x="467" y="-7.5" font-family="Helvetica,sans-Serif" font-size="10.00">RecorderManager.StopRecording</text>
</a>
</g>
</g>
<!-- Node16&#45;&gt;Node23 -->
<g id="edge23" class="edge">
<title>Node16&#45;&gt;Node23</title>
<path fill="none" stroke="midnightblue" d="M303.48,-38.46C333.27,-33.24 370.36,-26.75 401.59,-21.28"/>
<polygon fill="midnightblue" stroke="midnightblue" points="402.25,-24.72 411.5,-19.54 401.05,-17.82 402.25,-24.72"/>
</g>
<!-- Node18 -->
<g id="node18" class="node">
<title>Node18</title>
<g id="a_node18"><a xlink:href="class_android_utils.html#af53d417f93c9f33d0ba4943af3cc86ae" target="_top" xlink:title=" ">
<polygon fill="white" stroke="black" points="606.5,-38.5 606.5,-57.5 743.5,-57.5 743.5,-38.5 606.5,-38.5"/>
<text text-anchor="middle" x="675" y="-45.5" font-family="Helvetica,sans-Serif" font-size="10.00">AndroidUtils.StartRecording</text>
</a>
</g>
</g>
<!-- Node17&#45;&gt;Node18 -->
<g id="edge17" class="edge">
<title>Node17&#45;&gt;Node18</title>
<path fill="none" stroke="midnightblue" d="M547.64,-48C563.53,-48 580.19,-48 596.02,-48"/>
<polygon fill="midnightblue" stroke="midnightblue" points="596.28,-51.5 606.28,-48 596.28,-44.5 596.28,-51.5"/>
</g>
<!-- Node19 -->
<g id="node19" class="node">
<title>Node19</title>
<g id="a_node19"><a xlink:href="class_android_utils.html#a5ea9e5ec637706a8bc9c508e88fdeabb" target="_top" xlink:title=" ">
<polygon fill="white" stroke="black" points="843,-76.5 843,-95.5 965,-95.5 965,-76.5 843,-76.5"/>
<text text-anchor="middle" x="904" y="-83.5" font-family="Helvetica,sans-Serif" font-size="10.00">AndroidUtils.IsPermitted</text>
</a>
</g>
</g>
<!-- Node18&#45;&gt;Node19 -->
<g id="edge18" class="edge">
<title>Node18&#45;&gt;Node19</title>
<path fill="none" stroke="midnightblue" d="M732.99,-57.54C764.29,-62.78 803.29,-69.31 836.04,-74.79"/>
<polygon fill="midnightblue" stroke="midnightblue" points="835.55,-78.26 845.99,-76.46 836.7,-71.35 835.55,-78.26"/>
</g>
<!-- Node21 -->
<g id="node21" class="node">
<title>Node21</title>
<g id="a_node21"><a xlink:href="class_android_utils.html#a3e4428268503fe82ecd74416c37b2ae2" target="_top" xlink:title=" ">
<polygon fill="white" stroke="black" points="825.5,-38.5 825.5,-57.5 982.5,-57.5 982.5,-38.5 825.5,-38.5"/>
<text text-anchor="middle" x="904" y="-45.5" font-family="Helvetica,sans-Serif" font-size="10.00">AndroidUtils.RequestPermission</text>
</a>
</g>
</g>
<!-- Node18&#45;&gt;Node21 -->
<g id="edge20" class="edge">
<title>Node18&#45;&gt;Node21</title>
<path fill="none" stroke="midnightblue" d="M743.8,-48C766.21,-48 791.46,-48 815.15,-48"/>
<polygon fill="midnightblue" stroke="midnightblue" points="815.19,-51.5 825.19,-48 815.19,-44.5 815.19,-51.5"/>
</g>
<!-- Node22 -->
<g id="node22" class="node">
<title>Node22</title>
<g id="a_node22"><a xlink:href="class_android_utils.html#af3ddee265b4dfc672eddae5699c8fb2b" target="_top" xlink:title=" ">
<polygon fill="white" stroke="black" points="844,-0.5 844,-19.5 964,-19.5 964,-0.5 844,-0.5"/>
<text text-anchor="middle" x="904" y="-7.5" font-family="Helvetica,sans-Serif" font-size="10.00">AndroidUtils.ShowToast</text>
</a>
</g>
</g>
<!-- Node18&#45;&gt;Node22 -->
<g id="edge22" class="edge">
<title>Node18&#45;&gt;Node22</title>
<path fill="none" stroke="midnightblue" d="M732.99,-38.46C764.29,-33.22 803.29,-26.69 836.04,-21.21"/>
<polygon fill="midnightblue" stroke="midnightblue" points="836.7,-24.65 845.99,-19.54 835.55,-17.74 836.7,-24.65"/>
</g>
<!-- Node20 -->
<g id="node20" class="node">
<title>Node20</title>
<g id="a_node20"><a xlink:href="class_android_utils.html#af4c6dc91c5c610c75c6685a19bf61abe" target="_top" xlink:title=" ">
<polygon fill="white" stroke="black" points="1054,-57.5 1054,-76.5 1206,-76.5 1206,-57.5 1054,-57.5"/>
<text text-anchor="middle" x="1130" y="-64.5" font-family="Helvetica,sans-Serif" font-size="10.00">AndroidUtils.GetPermissionStrr</text>
</a>
</g>
</g>
<!-- Node19&#45;&gt;Node20 -->
<g id="edge19" class="edge">
<title>Node19&#45;&gt;Node20</title>
<path fill="none" stroke="midnightblue" d="M965.03,-80.91C989.27,-78.85 1017.7,-76.44 1044,-74.21"/>
<polygon fill="midnightblue" stroke="midnightblue" points="1044.3,-77.7 1053.97,-73.36 1043.71,-70.72 1044.3,-77.7"/>
</g>
<!-- Node21&#45;&gt;Node20 -->
<g id="edge21" class="edge">
<title>Node21&#45;&gt;Node20</title>
<path fill="none" stroke="midnightblue" d="M982.72,-54.59C1002.39,-56.26 1023.63,-58.06 1043.65,-59.76"/>
<polygon fill="midnightblue" stroke="midnightblue" points="1043.43,-63.25 1053.69,-60.61 1044.02,-56.28 1043.43,-63.25"/>
</g>
<!-- Node24 -->
<g id="node24" class="node">
<title>Node24</title>
<g id="a_node24"><a xlink:href="class_android_utils.html#a3a6673af4346ebfe0019549914a3aeb9" target="_top" xlink:title=" ">
<polygon fill="white" stroke="black" points="607,-0.5 607,-19.5 743,-19.5 743,-0.5 607,-0.5"/>
<text text-anchor="middle" x="675" y="-7.5" font-family="Helvetica,sans-Serif" font-size="10.00">AndroidUtils.StopRecording</text>
</a>
</g>
</g>
<!-- Node23&#45;&gt;Node24 -->
<g id="edge24" class="edge">
<title>Node23&#45;&gt;Node24</title>
<path fill="none" stroke="midnightblue" d="M547.06,-10C563.41,-10 580.61,-10 596.89,-10"/>
<polygon fill="midnightblue" stroke="midnightblue" points="596.89,-13.5 606.89,-10 596.89,-6.5 596.89,-13.5"/>
</g>
</g>
</svg>
