<?xml version="1.0" encoding="UTF-8" standalone="no"?>
<!DOCTYPE svg PUBLIC "-//W3C//DTD SVG 1.1//EN"
 "http://www.w3.org/Graphics/SVG/1.1/DTD/svg11.dtd">
<!-- Generated by graphviz version 2.49.0 (20210828.1703)
 -->
<!-- Title: PeerConnectionManager.OnApplicationPause Pages: 1 -->
<svg width="903pt" height="66pt"
 viewBox="0.00 0.00 903.00 66.00" xmlns="http://www.w3.org/2000/svg" xmlns:xlink="http://www.w3.org/1999/xlink">
<g id="graph0" class="graph" transform="scale(1 1) rotate(0) translate(4 62)">
<title>PeerConnectionManager.OnApplicationPause</title>
<polygon fill="white" stroke="transparent" points="-4,4 -4,-62 899,-62 899,4 -4,4"/>
<!-- Node1 -->
<g id="node1" class="node">
<title>Node1</title>
<g id="a_node1"><a xlink:title="Llamada cuando el estado de pausa de la aplicación cambia">
<polygon fill="#bfbfbf" stroke="black" points="0,-19.5 0,-38.5 215,-38.5 215,-19.5 0,-19.5"/>
<text text-anchor="middle" x="107.5" y="-26.5" font-family="Helvetica,sans-Serif" font-size="10.00">PeerConnectionManager.OnApplicationPause</text>
</a>
</g>
</g>
<!-- Node2 -->
<g id="node2" class="node">
<title>Node2</title>
<g id="a_node2"><a xlink:href="class_peer_connection_manager.html#a77481735fed0e6e7c602e8a2bea821d4" target="_top" xlink:title="Señaliza que el par esta listo para la conexión">
<polygon fill="white" stroke="black" points="257,-38.5 257,-57.5 431,-57.5 431,-38.5 257,-38.5"/>
<text text-anchor="middle" x="344" y="-45.5" font-family="Helvetica,sans-Serif" font-size="10.00">PeerConnectionManager.ReadyUser</text>
</a>
</g>
</g>
<!-- Node1&#45;&gt;Node2 -->
<g id="edge1" class="edge">
<title>Node1&#45;&gt;Node2</title>
<path fill="none" stroke="midnightblue" d="M215.11,-37.64C225.55,-38.48 236.1,-39.34 246.43,-40.18"/>
<polygon fill="midnightblue" stroke="midnightblue" points="246.42,-43.69 256.67,-41.01 246.98,-36.71 246.42,-43.69"/>
</g>
<!-- Node6 -->
<g id="node6" class="node">
<title>Node6</title>
<g id="a_node6"><a xlink:href="class_peer_connection_manager.html#ad792df6efa61aa9a558aab9b76604a87" target="_top" xlink:title="Señaliza que el par no listo para la conexión">
<polygon fill="white" stroke="black" points="251,-0.5 251,-19.5 437,-19.5 437,-0.5 251,-0.5"/>
<text text-anchor="middle" x="344" y="-7.5" font-family="Helvetica,sans-Serif" font-size="10.00">PeerConnectionManager.UnReadyUser</text>
</a>
</g>
</g>
<!-- Node1&#45;&gt;Node6 -->
<g id="edge5" class="edge">
<title>Node1&#45;&gt;Node6</title>
<path fill="none" stroke="midnightblue" d="M215.11,-20.36C223.72,-19.66 232.41,-18.96 240.99,-18.27"/>
<polygon fill="midnightblue" stroke="midnightblue" points="241.31,-21.75 250.99,-17.45 240.74,-14.77 241.31,-21.75"/>
</g>
<!-- Node3 -->
<g id="node3" class="node">
<title>Node3</title>
<g id="a_node3"><a xlink:href="class_database_manager.html#a7373a5a3ba0f6b44b5c7a96587b7afa1" target="_top" xlink:title="Señaliza en base de datos que un par esta listo para la conexión">
<polygon fill="white" stroke="black" points="479,-38.5 479,-57.5 625,-57.5 625,-38.5 479,-38.5"/>
<text text-anchor="middle" x="552" y="-45.5" font-family="Helvetica,sans-Serif" font-size="10.00">DatabaseManager.ReadyUser</text>
</a>
</g>
</g>
<!-- Node2&#45;&gt;Node3 -->
<g id="edge2" class="edge">
<title>Node2&#45;&gt;Node3</title>
<path fill="none" stroke="midnightblue" d="M431.17,-48C443.57,-48 456.31,-48 468.64,-48"/>
<polygon fill="midnightblue" stroke="midnightblue" points="468.88,-51.5 478.88,-48 468.88,-44.5 468.88,-51.5"/>
</g>
<!-- Node4 -->
<g id="node4" class="node">
<title>Node4</title>
<g id="a_node4"><a xlink:href="class_database_manager.html#a1854ec336517d562b14ec72287f986cb" target="_top" xlink:title="Lanza el evento OnClientReady">
<polygon fill="white" stroke="black" points="680,-38.5 680,-57.5 882,-57.5 882,-38.5 680,-38.5"/>
<text text-anchor="middle" x="781" y="-45.5" font-family="Helvetica,sans-Serif" font-size="10.00">DatabaseManager.OnClientReadyDelegate</text>
</a>
</g>
</g>
<!-- Node3&#45;&gt;Node4 -->
<g id="edge3" class="edge">
<title>Node3&#45;&gt;Node4</title>
<path fill="none" stroke="midnightblue" d="M625.14,-48C639.27,-48 654.4,-48 669.45,-48"/>
<polygon fill="midnightblue" stroke="midnightblue" points="669.85,-51.5 679.85,-48 669.85,-44.5 669.85,-51.5"/>
</g>
<!-- Node5 -->
<g id="node5" class="node">
<title>Node5</title>
<g id="a_node5"><a xlink:href="class_database_manager.html#a195ea9d14ebff0203ccdf30de9801069" target="_top" xlink:title="Lanza el evento OnMessageReceived">
<polygon fill="white" stroke="black" points="667,-0.5 667,-19.5 895,-19.5 895,-0.5 667,-0.5"/>
<text text-anchor="middle" x="781" y="-7.5" font-family="Helvetica,sans-Serif" font-size="10.00">DatabaseManager.OnMessageReceivedDelegate</text>
</a>
</g>
</g>
<!-- Node3&#45;&gt;Node5 -->
<g id="edge4" class="edge">
<title>Node3&#45;&gt;Node5</title>
<path fill="none" stroke="midnightblue" d="M609.99,-38.46C641.29,-33.22 680.29,-26.69 713.04,-21.21"/>
<polygon fill="midnightblue" stroke="midnightblue" points="713.7,-24.65 722.99,-19.54 712.55,-17.74 713.7,-24.65"/>
</g>
<!-- Node7 -->
<g id="node7" class="node">
<title>Node7</title>
<g id="a_node7"><a xlink:href="class_database_manager.html#a178acb8bd938e615aa34330e64f715ea" target="_top" xlink:title="Señaliza en base de datos que un par no listo para la conexión">
<polygon fill="white" stroke="black" points="473,-0.5 473,-19.5 631,-19.5 631,-0.5 473,-0.5"/>
<text text-anchor="middle" x="552" y="-7.5" font-family="Helvetica,sans-Serif" font-size="10.00">DatabaseManager.UnReadyUser</text>
</a>
</g>
</g>
<!-- Node6&#45;&gt;Node7 -->
<g id="edge6" class="edge">
<title>Node6&#45;&gt;Node7</title>
<path fill="none" stroke="midnightblue" d="M437.15,-10C445.61,-10 454.16,-10 462.58,-10"/>
<polygon fill="midnightblue" stroke="midnightblue" points="462.77,-13.5 472.77,-10 462.77,-6.5 462.77,-13.5"/>
</g>
<!-- Node7&#45;&gt;Node4 -->
<g id="edge7" class="edge">
<title>Node7&#45;&gt;Node4</title>
<path fill="none" stroke="midnightblue" d="M609.99,-19.54C641.29,-24.78 680.29,-31.31 713.04,-36.79"/>
<polygon fill="midnightblue" stroke="midnightblue" points="712.55,-40.26 722.99,-38.46 713.7,-33.35 712.55,-40.26"/>
</g>
<!-- Node7&#45;&gt;Node5 -->
<g id="edge8" class="edge">
<title>Node7&#45;&gt;Node5</title>
<path fill="none" stroke="midnightblue" d="M631.12,-10C639.42,-10 647.99,-10 656.65,-10"/>
<polygon fill="midnightblue" stroke="midnightblue" points="656.83,-13.5 666.83,-10 656.83,-6.5 656.83,-13.5"/>
</g>
</g>
</svg>
