<?xml version="1.0" encoding="UTF-8" standalone="no"?>
<!DOCTYPE svg PUBLIC "-//W3C//DTD SVG 1.1//EN"
 "http://www.w3.org/Graphics/SVG/1.1/DTD/svg11.dtd">
<!-- Generated by graphviz version 2.49.0 (20210828.1703)
 -->
<!-- Title: AndroidUtils.IsPermitted Pages: 1 -->
<svg width="849pt" height="28pt"
 viewBox="0.00 0.00 849.00 28.00" xmlns="http://www.w3.org/2000/svg" xmlns:xlink="http://www.w3.org/1999/xlink">
<g id="graph0" class="graph" transform="scale(1 1) rotate(0) translate(4 24)">
<title>AndroidUtils.IsPermitted</title>
<polygon fill="white" stroke="transparent" points="-4,4 -4,-24 845,-24 845,4 -4,4"/>
<!-- Node1 -->
<g id="node1" class="node">
<title>Node1</title>
<g id="a_node1"><a xlink:title=" ">
<polygon fill="#bfbfbf" stroke="black" points="719,-0.5 719,-19.5 841,-19.5 841,-0.5 719,-0.5"/>
<text text-anchor="middle" x="780" y="-7.5" font-family="Helvetica,sans-Serif" font-size="10.00">AndroidUtils.IsPermitted</text>
</a>
</g>
</g>
<!-- Node2 -->
<g id="node2" class="node">
<title>Node2</title>
<g id="a_node2"><a xlink:href="class_android_utils.html#af53d417f93c9f33d0ba4943af3cc86ae" target="_top" xlink:title=" ">
<polygon fill="white" stroke="black" points="546,-0.5 546,-19.5 683,-19.5 683,-0.5 546,-0.5"/>
<text text-anchor="middle" x="614.5" y="-7.5" font-family="Helvetica,sans-Serif" font-size="10.00">AndroidUtils.StartRecording</text>
</a>
</g>
</g>
<!-- Node1&#45;&gt;Node2 -->
<g id="edge1" class="edge">
<title>Node1&#45;&gt;Node2</title>
<path fill="none" stroke="midnightblue" d="M708.44,-10C700.03,-10 691.47,-10 683.11,-10"/>
<polygon fill="midnightblue" stroke="midnightblue" points="708.58,-13.5 718.58,-10 708.58,-6.5 708.58,-13.5"/>
</g>
<!-- Node3 -->
<g id="node3" class="node">
<title>Node3</title>
<g id="a_node3"><a xlink:href="class_recorder_manager.html#a12a78c0fd95f2c5040913c84003b27a4" target="_top" xlink:title="Comienza la grabación">
<polygon fill="white" stroke="black" points="349,-0.5 349,-19.5 510,-19.5 510,-0.5 349,-0.5"/>
<text text-anchor="middle" x="429.5" y="-7.5" font-family="Helvetica,sans-Serif" font-size="10.00">RecorderManager.StartRecording</text>
</a>
</g>
</g>
<!-- Node2&#45;&gt;Node3 -->
<g id="edge2" class="edge">
<title>Node2&#45;&gt;Node3</title>
<path fill="none" stroke="midnightblue" d="M535.69,-10C527.26,-10 518.68,-10 510.22,-10"/>
<polygon fill="midnightblue" stroke="midnightblue" points="535.88,-13.5 545.88,-10 535.88,-6.5 535.88,-13.5"/>
</g>
<!-- Node4 -->
<g id="node4" class="node">
<title>Node4</title>
<g id="a_node4"><a xlink:href="class_recorder_manager.html#af4f6bc58b8be4b847c30c57d1fe6a730" target="_top" xlink:title="Alterna entre comenzar la grabación o pararla">
<polygon fill="white" stroke="black" points="158,-0.5 158,-19.5 313,-19.5 313,-0.5 158,-0.5"/>
<text text-anchor="middle" x="235.5" y="-7.5" font-family="Helvetica,sans-Serif" font-size="10.00">RecorderManager.ToggleRecord</text>
</a>
</g>
</g>
<!-- Node3&#45;&gt;Node4 -->
<g id="edge3" class="edge">
<title>Node3&#45;&gt;Node4</title>
<path fill="none" stroke="midnightblue" d="M338.49,-10C330.05,-10 321.54,-10 313.23,-10"/>
<polygon fill="midnightblue" stroke="midnightblue" points="338.74,-13.5 348.74,-10 338.74,-6.5 338.74,-13.5"/>
</g>
<!-- Node5 -->
<g id="node5" class="node">
<title>Node5</title>
<g id="a_node5"><a xlink:href="class_toolbar_u_i_controller.html#a7c36bd2332e575e710320a80023b93de" target="_top" xlink:title="Llamada justo antes del primer fotograma">
<polygon fill="white" stroke="black" points="0,-0.5 0,-19.5 122,-19.5 122,-0.5 0,-0.5"/>
<text text-anchor="middle" x="61" y="-7.5" font-family="Helvetica,sans-Serif" font-size="10.00">ToolbarUIController.Start</text>
</a>
</g>
</g>
<!-- Node4&#45;&gt;Node5 -->
<g id="edge4" class="edge">
<title>Node4&#45;&gt;Node5</title>
<path fill="none" stroke="midnightblue" d="M147.7,-10C139.05,-10 130.41,-10 122.12,-10"/>
<polygon fill="midnightblue" stroke="midnightblue" points="147.83,-13.5 157.83,-10 147.83,-6.5 147.83,-13.5"/>
</g>
</g>
</svg>
