<?xml version="1.0" encoding="UTF-8" standalone="no"?>
<!DOCTYPE svg PUBLIC "-//W3C//DTD SVG 1.1//EN"
 "http://www.w3.org/Graphics/SVG/1.1/DTD/svg11.dtd">
<!-- Generated by graphviz version 2.49.0 (20210828.1703)
 -->
<!-- Title: AndroidUtils.GetPermissionStrr Pages: 1 -->
<svg width="1072pt" height="66pt"
 viewBox="0.00 0.00 1072.00 66.00" xmlns="http://www.w3.org/2000/svg" xmlns:xlink="http://www.w3.org/1999/xlink">
<g id="graph0" class="graph" transform="scale(1 1) rotate(0) translate(4 62)">
<title>AndroidUtils.GetPermissionStrr</title>
<polygon fill="white" stroke="transparent" points="-4,4 -4,-62 1068,-62 1068,4 -4,4"/>
<!-- Node1 -->
<g id="node1" class="node">
<title>Node1</title>
<g id="a_node1"><a xlink:title=" ">
<polygon fill="#bfbfbf" stroke="black" points="912,-19.5 912,-38.5 1064,-38.5 1064,-19.5 912,-19.5"/>
<text text-anchor="middle" x="988" y="-26.5" font-family="Helvetica,sans-Serif" font-size="10.00">AndroidUtils.GetPermissionStrr</text>
</a>
</g>
</g>
<!-- Node2 -->
<g id="node2" class="node">
<title>Node2</title>
<g id="a_node2"><a xlink:href="class_android_utils.html#a5ea9e5ec637706a8bc9c508e88fdeabb" target="_top" xlink:title=" ">
<polygon fill="white" stroke="black" points="736.5,-38.5 736.5,-57.5 858.5,-57.5 858.5,-38.5 736.5,-38.5"/>
<text text-anchor="middle" x="797.5" y="-45.5" font-family="Helvetica,sans-Serif" font-size="10.00">AndroidUtils.IsPermitted</text>
</a>
</g>
</g>
<!-- Node1&#45;&gt;Node2 -->
<g id="edge1" class="edge">
<title>Node1&#45;&gt;Node2</title>
<path fill="none" stroke="midnightblue" d="M901.94,-37.57C887.38,-39.04 872.53,-40.54 858.79,-41.92"/>
<polygon fill="midnightblue" stroke="midnightblue" points="902.36,-41.05 911.96,-36.56 901.66,-34.08 902.36,-41.05"/>
</g>
<!-- Node7 -->
<g id="node7" class="node">
<title>Node7</title>
<g id="a_node7"><a xlink:href="class_android_utils.html#a3e4428268503fe82ecd74416c37b2ae2" target="_top" xlink:title=" ">
<polygon fill="white" stroke="black" points="719,-0.5 719,-19.5 876,-19.5 876,-0.5 719,-0.5"/>
<text text-anchor="middle" x="797.5" y="-7.5" font-family="Helvetica,sans-Serif" font-size="10.00">AndroidUtils.RequestPermission</text>
</a>
</g>
</g>
<!-- Node1&#45;&gt;Node7 -->
<g id="edge6" class="edge">
<title>Node1&#45;&gt;Node7</title>
<path fill="none" stroke="midnightblue" d="M901.91,-20.42C893.3,-19.56 884.59,-18.68 876.06,-17.82"/>
<polygon fill="midnightblue" stroke="midnightblue" points="901.66,-23.92 911.96,-21.44 902.36,-16.95 901.66,-23.92"/>
</g>
<!-- Node3 -->
<g id="node3" class="node">
<title>Node3</title>
<g id="a_node3"><a xlink:href="class_android_utils.html#af53d417f93c9f33d0ba4943af3cc86ae" target="_top" xlink:title=" ">
<polygon fill="white" stroke="black" points="546,-19.5 546,-38.5 683,-38.5 683,-19.5 546,-19.5"/>
<text text-anchor="middle" x="614.5" y="-26.5" font-family="Helvetica,sans-Serif" font-size="10.00">AndroidUtils.StartRecording</text>
</a>
</g>
</g>
<!-- Node2&#45;&gt;Node3 -->
<g id="edge2" class="edge">
<title>Node2&#45;&gt;Node3</title>
<path fill="none" stroke="midnightblue" d="M726.31,-40.63C712.13,-39.14 697.26,-37.58 683.17,-36.1"/>
<polygon fill="midnightblue" stroke="midnightblue" points="726.17,-44.14 736.48,-41.7 726.9,-37.17 726.17,-44.14"/>
</g>
<!-- Node4 -->
<g id="node4" class="node">
<title>Node4</title>
<g id="a_node4"><a xlink:href="class_recorder_manager.html#a12a78c0fd95f2c5040913c84003b27a4" target="_top" xlink:title="Comienza la grabación">
<polygon fill="white" stroke="black" points="349,-19.5 349,-38.5 510,-38.5 510,-19.5 349,-19.5"/>
<text text-anchor="middle" x="429.5" y="-26.5" font-family="Helvetica,sans-Serif" font-size="10.00">RecorderManager.StartRecording</text>
</a>
</g>
</g>
<!-- Node3&#45;&gt;Node4 -->
<g id="edge3" class="edge">
<title>Node3&#45;&gt;Node4</title>
<path fill="none" stroke="midnightblue" d="M535.69,-29C527.26,-29 518.68,-29 510.22,-29"/>
<polygon fill="midnightblue" stroke="midnightblue" points="535.88,-32.5 545.88,-29 535.88,-25.5 535.88,-32.5"/>
</g>
<!-- Node5 -->
<g id="node5" class="node">
<title>Node5</title>
<g id="a_node5"><a xlink:href="class_recorder_manager.html#af4f6bc58b8be4b847c30c57d1fe6a730" target="_top" xlink:title="Alterna entre comenzar la grabación o pararla">
<polygon fill="white" stroke="black" points="158,-19.5 158,-38.5 313,-38.5 313,-19.5 158,-19.5"/>
<text text-anchor="middle" x="235.5" y="-26.5" font-family="Helvetica,sans-Serif" font-size="10.00">RecorderManager.ToggleRecord</text>
</a>
</g>
</g>
<!-- Node4&#45;&gt;Node5 -->
<g id="edge4" class="edge">
<title>Node4&#45;&gt;Node5</title>
<path fill="none" stroke="midnightblue" d="M338.49,-29C330.05,-29 321.54,-29 313.23,-29"/>
<polygon fill="midnightblue" stroke="midnightblue" points="338.74,-32.5 348.74,-29 338.74,-25.5 338.74,-32.5"/>
</g>
<!-- Node6 -->
<g id="node6" class="node">
<title>Node6</title>
<g id="a_node6"><a xlink:href="class_toolbar_u_i_controller.html#a7c36bd2332e575e710320a80023b93de" target="_top" xlink:title="Llamada justo antes del primer fotograma">
<polygon fill="white" stroke="black" points="0,-19.5 0,-38.5 122,-38.5 122,-19.5 0,-19.5"/>
<text text-anchor="middle" x="61" y="-26.5" font-family="Helvetica,sans-Serif" font-size="10.00">ToolbarUIController.Start</text>
</a>
</g>
</g>
<!-- Node5&#45;&gt;Node6 -->
<g id="edge5" class="edge">
<title>Node5&#45;&gt;Node6</title>
<path fill="none" stroke="midnightblue" d="M147.7,-29C139.05,-29 130.41,-29 122.12,-29"/>
<polygon fill="midnightblue" stroke="midnightblue" points="147.83,-32.5 157.83,-29 147.83,-25.5 147.83,-32.5"/>
</g>
<!-- Node7&#45;&gt;Node3 -->
<g id="edge7" class="edge">
<title>Node7&#45;&gt;Node3</title>
<path fill="none" stroke="midnightblue" d="M708.86,-19.2C700.23,-20.11 691.57,-21.01 683.19,-21.89"/>
<polygon fill="midnightblue" stroke="midnightblue" points="709.37,-22.67 718.95,-18.14 708.64,-15.7 709.37,-22.67"/>
</g>
</g>
</svg>
