<?xml version="1.0" encoding="UTF-8" standalone="no"?>
<!DOCTYPE svg PUBLIC "-//W3C//DTD SVG 1.1//EN"
 "http://www.w3.org/Graphics/SVG/1.1/DTD/svg11.dtd">
<!-- Generated by graphviz version 2.49.0 (20210828.1703)
 -->
<!-- Title: OneSignalInit Pages: 1 -->
<svg width="283pt" height="226pt"
 viewBox="0.00 0.00 283.00 226.00" xmlns="http://www.w3.org/2000/svg" xmlns:xlink="http://www.w3.org/1999/xlink">
<g id="graph0" class="graph" transform="scale(1 1) rotate(0) translate(4 222)">
<title>OneSignalInit</title>
<polygon fill="white" stroke="transparent" points="-4,4 -4,-222 279,-222 279,4 -4,4"/>
<!-- Node1 -->
<g id="node1" class="node">
<title>Node1</title>
<g id="a_node1"><a xlink:title="Inicializa OneSignal">
<polygon fill="#bfbfbf" stroke="black" points="0,-0.5 0,-123.5 275,-123.5 275,-0.5 0,-0.5"/>
<text text-anchor="middle" x="137.5" y="-111.5" font-family="Helvetica,sans-Serif" font-size="10.00">OneSignalInit</text>
<polyline fill="none" stroke="black" points="0,-104.5 275,-104.5 "/>
<text text-anchor="middle" x="137.5" y="-92.5" font-family="Helvetica,sans-Serif" font-size="10.00"> </text>
<polyline fill="none" stroke="black" points="0,-85.5 275,-85.5 "/>
<text text-anchor="start" x="8" y="-73.5" font-family="Helvetica,sans-Serif" font-size="10.00">&#45; void Start()</text>
<text text-anchor="start" x="8" y="-62.5" font-family="Helvetica,sans-Serif" font-size="10.00">&#45; void OneSignalPromptForPushNotificationsReponse</text>
<text text-anchor="start" x="8" y="-51.5" font-family="Helvetica,sans-Serif" font-size="10.00">(bool accepted)</text>
<text text-anchor="start" x="8" y="-40.5" font-family="Helvetica,sans-Serif" font-size="10.00">&#45; static void OneSignalHandleNotificationOpened</text>
<text text-anchor="start" x="8" y="-29.5" font-family="Helvetica,sans-Serif" font-size="10.00">(OSNotificationOpenedResult result)</text>
<text text-anchor="start" x="8" y="-18.5" font-family="Helvetica,sans-Serif" font-size="10.00">&#45; static async void HandleNotification(OSNotificationOpened</text>
<text text-anchor="start" x="8" y="-7.5" font-family="Helvetica,sans-Serif" font-size="10.00">Result result)</text>
</a>
</g>
</g>
<!-- Node2 -->
<g id="node2" class="node">
<title>Node2</title>
<g id="a_node2"><a xlink:title=" ">
<polygon fill="white" stroke="#bfbfbf" points="96,-160.5 96,-217.5 179,-217.5 179,-160.5 96,-160.5"/>
<text text-anchor="middle" x="137.5" y="-205.5" font-family="Helvetica,sans-Serif" font-size="10.00">MonoBehaviour</text>
<polyline fill="none" stroke="#bfbfbf" points="96,-198.5 179,-198.5 "/>
<text text-anchor="middle" x="137.5" y="-186.5" font-family="Helvetica,sans-Serif" font-size="10.00"> </text>
<polyline fill="none" stroke="#bfbfbf" points="96,-179.5 179,-179.5 "/>
<text text-anchor="middle" x="137.5" y="-167.5" font-family="Helvetica,sans-Serif" font-size="10.00"> </text>
</a>
</g>
</g>
<!-- Node2&#45;&gt;Node1 -->
<g id="edge1" class="edge">
<title>Node2&#45;&gt;Node1</title>
<path fill="none" stroke="midnightblue" d="M137.5,-150.1C137.5,-141.74 137.5,-132.68 137.5,-123.67"/>
<polygon fill="none" stroke="midnightblue" points="134,-150.26 137.5,-160.26 141,-150.26 134,-150.26"/>
</g>
</g>
</svg>
