<?xml version="1.0" encoding="UTF-8" standalone="no"?>
<!DOCTYPE svg PUBLIC "-//W3C//DTD SVG 1.1//EN"
 "http://www.w3.org/Graphics/SVG/1.1/DTD/svg11.dtd">
<!-- Generated by graphviz version 2.49.0 (20210828.1703)
 -->
<!-- Title: RegisterPhoneUIController.SendCode Pages: 1 -->
<svg width="781pt" height="66pt"
 viewBox="0.00 0.00 781.00 66.00" xmlns="http://www.w3.org/2000/svg" xmlns:xlink="http://www.w3.org/1999/xlink">
<g id="graph0" class="graph" transform="scale(1 1) rotate(0) translate(4 62)">
<title>RegisterPhoneUIController.SendCode</title>
<polygon fill="white" stroke="transparent" points="-4,4 -4,-62 777,-62 777,4 -4,4"/>
<!-- Node1 -->
<g id="node1" class="node">
<title>Node1</title>
<g id="a_node1"><a xlink:title="Envia el código SMS al teléfono introducido">
<polygon fill="#bfbfbf" stroke="black" points="0,-19.5 0,-38.5 179,-38.5 179,-19.5 0,-19.5"/>
<text text-anchor="middle" x="89.5" y="-26.5" font-family="Helvetica,sans-Serif" font-size="10.00">RegisterPhoneUIController.SendCode</text>
</a>
</g>
</g>
<!-- Node2 -->
<g id="node2" class="node">
<title>Node2</title>
<g id="a_node2"><a xlink:href="class_user_manager.html#a9701a3e6255dc1e9921415aa42cccf6d" target="_top" xlink:title="Envia el código SMS de verificación y lanza los posibles eventos">
<polygon fill="white" stroke="black" points="215,-38.5 215,-57.5 385,-57.5 385,-38.5 215,-38.5"/>
<text text-anchor="middle" x="300" y="-45.5" font-family="Helvetica,sans-Serif" font-size="10.00">UserManager.SendVerificationCode</text>
</a>
</g>
</g>
<!-- Node1&#45;&gt;Node2 -->
<g id="edge1" class="edge">
<title>Node1&#45;&gt;Node2</title>
<path fill="none" stroke="midnightblue" d="M179.23,-37.09C187.75,-37.86 196.41,-38.65 204.99,-39.43"/>
<polygon fill="midnightblue" stroke="midnightblue" points="204.72,-42.92 214.99,-40.34 205.35,-35.95 204.72,-42.92"/>
</g>
<!-- Node5 -->
<g id="node5" class="node">
<title>Node5</title>
<g id="a_node5"><a xlink:href="class_android_utils.html#af3ddee265b4dfc672eddae5699c8fb2b" target="_top" xlink:title=" ">
<polygon fill="white" stroke="black" points="240,-0.5 240,-19.5 360,-19.5 360,-0.5 240,-0.5"/>
<text text-anchor="middle" x="300" y="-7.5" font-family="Helvetica,sans-Serif" font-size="10.00">AndroidUtils.ShowToast</text>
</a>
</g>
</g>
<!-- Node1&#45;&gt;Node5 -->
<g id="edge4" class="edge">
<title>Node1&#45;&gt;Node5</title>
<path fill="none" stroke="midnightblue" d="M179.23,-20.91C196.05,-19.38 213.42,-17.8 229.54,-16.33"/>
<polygon fill="midnightblue" stroke="midnightblue" points="230.29,-19.78 239.93,-15.38 229.65,-12.81 230.29,-19.78"/>
</g>
<!-- Node3 -->
<g id="node3" class="node">
<title>Node3</title>
<g id="a_node3"><a xlink:href="class_user_manager.html#a8473c8b09bc25b4ee3ccc8ad934f1a4d" target="_top" xlink:title="Verifica el número de teléfono con un objeto de credenciales">
<polygon fill="white" stroke="black" points="421,-38.5 421,-57.5 594,-57.5 594,-38.5 421,-38.5"/>
<text text-anchor="middle" x="507.5" y="-45.5" font-family="Helvetica,sans-Serif" font-size="10.00">UserManager.VerifyPhoneCredential</text>
</a>
</g>
</g>
<!-- Node2&#45;&gt;Node3 -->
<g id="edge2" class="edge">
<title>Node2&#45;&gt;Node3</title>
<path fill="none" stroke="midnightblue" d="M385.18,-48C393.53,-48 402.05,-48 410.51,-48"/>
<polygon fill="midnightblue" stroke="midnightblue" points="410.79,-51.5 420.79,-48 410.79,-44.5 410.79,-51.5"/>
</g>
<!-- Node4 -->
<g id="node4" class="node">
<title>Node4</title>
<g id="a_node4"><a xlink:href="class_database_manager.html#ae84a345ac51bb80ebf7fda88043ef499" target="_top" xlink:title="Establece el userID de un usuario">
<polygon fill="white" stroke="black" points="630,-38.5 630,-57.5 773,-57.5 773,-38.5 630,-38.5"/>
<text text-anchor="middle" x="701.5" y="-45.5" font-family="Helvetica,sans-Serif" font-size="10.00">DatabaseManager.SetUserID</text>
</a>
</g>
</g>
<!-- Node3&#45;&gt;Node4 -->
<g id="edge3" class="edge">
<title>Node3&#45;&gt;Node4</title>
<path fill="none" stroke="midnightblue" d="M594.11,-48C602.57,-48 611.14,-48 619.55,-48"/>
<polygon fill="midnightblue" stroke="midnightblue" points="619.72,-51.5 629.72,-48 619.72,-44.5 619.72,-51.5"/>
</g>
</g>
</svg>
