<?xml version="1.0" encoding="UTF-8" standalone="no"?>
<!DOCTYPE svg PUBLIC "-//W3C//DTD SVG 1.1//EN"
 "http://www.w3.org/Graphics/SVG/1.1/DTD/svg11.dtd">
<!-- Generated by graphviz version 2.49.0 (20210828.1703)
 -->
<!-- Title: ARMarker.Update Pages: 1 -->
<svg width="281pt" height="104pt"
 viewBox="0.00 0.00 281.00 104.00" xmlns="http://www.w3.org/2000/svg" xmlns:xlink="http://www.w3.org/1999/xlink">
<g id="graph0" class="graph" transform="scale(1 1) rotate(0) translate(4 100)">
<title>ARMarker.Update</title>
<polygon fill="white" stroke="transparent" points="-4,4 -4,-100 277,-100 277,4 -4,4"/>
<!-- Node1 -->
<g id="node1" class="node">
<title>Node1</title>
<g id="a_node1"><a xlink:title="Llamada al comienzo de cada fotograma">
<polygon fill="#bfbfbf" stroke="black" points="0,-38.5 0,-57.5 94,-57.5 94,-38.5 0,-38.5"/>
<text text-anchor="middle" x="47" y="-45.5" font-family="Helvetica,sans-Serif" font-size="10.00">ARMarker.Update</text>
</a>
</g>
</g>
<!-- Node2 -->
<g id="node2" class="node">
<title>Node2</title>
<g id="a_node2"><a xlink:href="class_a_r_marker.html#a27ea41b1429123de21b990b94555b95d" target="_top" xlink:title="Coloca el marcador en la posicion seleccionada">
<polygon fill="white" stroke="black" points="146.5,-76.5 146.5,-95.5 256.5,-95.5 256.5,-76.5 146.5,-76.5"/>
<text text-anchor="middle" x="201.5" y="-83.5" font-family="Helvetica,sans-Serif" font-size="10.00">ARMarker.AddMarker</text>
</a>
</g>
</g>
<!-- Node1&#45;&gt;Node2 -->
<g id="edge1" class="edge">
<title>Node1&#45;&gt;Node2</title>
<path fill="none" stroke="midnightblue" d="M86.48,-57.59C106.52,-62.58 131.2,-68.73 152.48,-74.03"/>
<polygon fill="midnightblue" stroke="midnightblue" points="151.74,-77.46 162.29,-76.48 153.44,-70.67 151.74,-77.46"/>
</g>
<!-- Node3 -->
<g id="node3" class="node">
<title>Node3</title>
<g id="a_node3"><a xlink:href="class_my_input_manager.html#a491307ed67b25b941ef431d5bdbdad6c" target="_top" xlink:title=" ">
<polygon fill="white" stroke="black" points="130,-38.5 130,-57.5 273,-57.5 273,-38.5 130,-38.5"/>
<text text-anchor="middle" x="201.5" y="-45.5" font-family="Helvetica,sans-Serif" font-size="10.00">MyInputManager.IsHeldDown</text>
</a>
</g>
</g>
<!-- Node1&#45;&gt;Node3 -->
<g id="edge2" class="edge">
<title>Node1&#45;&gt;Node3</title>
<path fill="none" stroke="midnightblue" d="M94.17,-48C102.23,-48 110.83,-48 119.52,-48"/>
<polygon fill="midnightblue" stroke="midnightblue" points="119.72,-51.5 129.72,-48 119.72,-44.5 119.72,-51.5"/>
</g>
<!-- Node4 -->
<g id="node4" class="node">
<title>Node4</title>
<g id="a_node4"><a xlink:href="class_a_r_tool_manager.html#a86782ee29e1327a2f4ab387d8438c6a7" target="_top" xlink:title="Coloca una guía en un trazo o marcador del par selecionado">
<polygon fill="white" stroke="black" points="132,-0.5 132,-19.5 271,-19.5 271,-0.5 132,-0.5"/>
<text text-anchor="middle" x="201.5" y="-7.5" font-family="Helvetica,sans-Serif" font-size="10.00">ARToolManager.PlaceGuide</text>
</a>
</g>
</g>
<!-- Node1&#45;&gt;Node4 -->
<g id="edge3" class="edge">
<title>Node1&#45;&gt;Node4</title>
<path fill="none" stroke="midnightblue" d="M86.48,-38.41C106.52,-33.42 131.2,-27.27 152.48,-21.97"/>
<polygon fill="midnightblue" stroke="midnightblue" points="153.44,-25.33 162.29,-19.52 151.74,-18.54 153.44,-25.33"/>
</g>
</g>
</svg>
