<?xml version="1.0" encoding="UTF-8" standalone="no"?>
<!DOCTYPE svg PUBLIC "-//W3C//DTD SVG 1.1//EN"
 "http://www.w3.org/Graphics/SVG/1.1/DTD/svg11.dtd">
<!-- Generated by graphviz version 2.49.0 (20210828.1703)
 -->
<!-- Title: MyInputManager.IsHeldDown Pages: 1 -->
<svg width="282pt" height="142pt"
 viewBox="0.00 0.00 282.00 142.00" xmlns="http://www.w3.org/2000/svg" xmlns:xlink="http://www.w3.org/1999/xlink">
<g id="graph0" class="graph" transform="scale(1 1) rotate(0) translate(4 138)">
<title>MyInputManager.IsHeldDown</title>
<polygon fill="white" stroke="transparent" points="-4,4 -4,-138 278,-138 278,4 -4,4"/>
<!-- Node1 -->
<g id="node1" class="node">
<title>Node1</title>
<g id="a_node1"><a xlink:title=" ">
<polygon fill="#bfbfbf" stroke="black" points="131,-57.5 131,-76.5 274,-76.5 274,-57.5 131,-57.5"/>
<text text-anchor="middle" x="202.5" y="-64.5" font-family="Helvetica,sans-Serif" font-size="10.00">MyInputManager.IsHeldDown</text>
</a>
</g>
</g>
<!-- Node2 -->
<g id="node2" class="node">
<title>Node2</title>
<g id="a_node2"><a xlink:href="class_a_r_brush.html#a392f602774d613460f213cd58b4a26e9" target="_top" xlink:title="Llamada al comienzo de cada fotograma">
<polygon fill="white" stroke="black" points="3,-114.5 3,-133.5 92,-133.5 92,-114.5 3,-114.5"/>
<text text-anchor="middle" x="47.5" y="-121.5" font-family="Helvetica,sans-Serif" font-size="10.00">ARBrush.Update</text>
</a>
</g>
</g>
<!-- Node1&#45;&gt;Node2 -->
<g id="edge1" class="edge">
<title>Node1&#45;&gt;Node2</title>
<path fill="none" stroke="midnightblue" d="M166.43,-80.07C138.31,-90.54 99.49,-105.01 74.19,-114.43"/>
<polygon fill="midnightblue" stroke="midnightblue" points="167.74,-83.31 175.89,-76.54 165.3,-76.75 167.74,-83.31"/>
</g>
<!-- Node3 -->
<g id="node3" class="node">
<title>Node3</title>
<g id="a_node3"><a xlink:href="class_a_r_marker.html#a37bcfc2d540eed2ffd496d758dd9ad6d" target="_top" xlink:title="Llamada al comienzo de cada fotograma">
<polygon fill="white" stroke="black" points="0.5,-76.5 0.5,-95.5 94.5,-95.5 94.5,-76.5 0.5,-76.5"/>
<text text-anchor="middle" x="47.5" y="-83.5" font-family="Helvetica,sans-Serif" font-size="10.00">ARMarker.Update</text>
</a>
</g>
</g>
<!-- Node1&#45;&gt;Node3 -->
<g id="edge2" class="edge">
<title>Node1&#45;&gt;Node3</title>
<path fill="none" stroke="midnightblue" d="M120.78,-77.02C111.9,-78.13 103.09,-79.22 94.84,-80.25"/>
<polygon fill="midnightblue" stroke="midnightblue" points="121.33,-80.48 130.82,-75.78 120.47,-73.54 121.33,-80.48"/>
</g>
<!-- Node4 -->
<g id="node4" class="node">
<title>Node4</title>
<g id="a_node4"><a xlink:href="class_a_r_pointer.html#ab87d275a866cc346c44076caf4138ebf" target="_top" xlink:title="Llamada al comienzo de cada fotograma Comprueba la posición del puntero y lo muestra">
<polygon fill="white" stroke="black" points="0,-38.5 0,-57.5 95,-57.5 95,-38.5 0,-38.5"/>
<text text-anchor="middle" x="47.5" y="-45.5" font-family="Helvetica,sans-Serif" font-size="10.00">ARPointer.Update</text>
</a>
</g>
</g>
<!-- Node1&#45;&gt;Node4 -->
<g id="edge3" class="edge">
<title>Node1&#45;&gt;Node4</title>
<path fill="none" stroke="midnightblue" d="M120.63,-56.96C111.95,-55.88 103.35,-54.81 95.27,-53.81"/>
<polygon fill="midnightblue" stroke="midnightblue" points="120.47,-60.46 130.82,-58.22 121.33,-53.52 120.47,-60.46"/>
</g>
<!-- Node5 -->
<g id="node5" class="node">
<title>Node5</title>
<g id="a_node5"><a xlink:href="class_a_r_text.html#ab65632ec31750b406ebb205454ad492a" target="_top" xlink:title="Llamada al comienzo de cada fotograma">
<polygon fill="white" stroke="black" points="6,-0.5 6,-19.5 89,-19.5 89,-0.5 6,-0.5"/>
<text text-anchor="middle" x="47.5" y="-7.5" font-family="Helvetica,sans-Serif" font-size="10.00">ARText.Update</text>
</a>
</g>
</g>
<!-- Node1&#45;&gt;Node5 -->
<g id="edge4" class="edge">
<title>Node1&#45;&gt;Node5</title>
<path fill="none" stroke="midnightblue" d="M166.43,-53.93C138.31,-43.46 99.49,-28.99 74.19,-19.57"/>
<polygon fill="midnightblue" stroke="midnightblue" points="165.3,-57.25 175.89,-57.46 167.74,-50.69 165.3,-57.25"/>
</g>
</g>
</svg>
