<?xml version="1.0" encoding="UTF-8" standalone="no"?>
<!DOCTYPE svg PUBLIC "-//W3C//DTD SVG 1.1//EN"
 "http://www.w3.org/Graphics/SVG/1.1/DTD/svg11.dtd">
<!-- Generated by graphviz version 2.49.0 (20210828.1703)
 -->
<!-- Title: ARMarker Pages: 1 -->
<svg width="344pt" height="1078pt"
 viewBox="0.00 0.00 343.88 1078.00" xmlns="http://www.w3.org/2000/svg" xmlns:xlink="http://www.w3.org/1999/xlink">
<g id="graph0" class="graph" transform="scale(1 1) rotate(0) translate(4 1074)">
<title>ARMarker</title>
<polygon fill="white" stroke="transparent" points="-4,4 -4,-1074 339.88,-1074 339.88,4 -4,4"/>
<!-- Node1 -->
<g id="node1" class="node">
<title>Node1</title>
<g id="a_node1"><a xlink:title="Modela el comportamiento de la herramienta ARMarker">
<polygon fill="#bfbfbf" stroke="black" points="87.88,-0.5 87.88,-123.5 191.88,-123.5 191.88,-0.5 87.88,-0.5"/>
<text text-anchor="middle" x="139.88" y="-111.5" font-family="Helvetica,sans-Serif" font-size="10.00">ARMarker</text>
<polyline fill="none" stroke="black" points="87.88,-104.5 191.88,-104.5 "/>
<text text-anchor="start" x="95.88" y="-92.5" font-family="Helvetica,sans-Serif" font-size="10.00">&#45; myPeerType</text>
<text text-anchor="start" x="95.88" y="-81.5" font-family="Helvetica,sans-Serif" font-size="10.00">&#45; prefab</text>
<text text-anchor="start" x="95.88" y="-70.5" font-family="Helvetica,sans-Serif" font-size="10.00">&#45; cam</text>
<text text-anchor="start" x="95.88" y="-59.5" font-family="Helvetica,sans-Serif" font-size="10.00">&#45; arRaycastManager</text>
<text text-anchor="start" x="95.88" y="-48.5" font-family="Helvetica,sans-Serif" font-size="10.00">&#45; placingMarker</text>
<polyline fill="none" stroke="black" points="87.88,-41.5 191.88,-41.5 "/>
<text text-anchor="start" x="95.88" y="-29.5" font-family="Helvetica,sans-Serif" font-size="10.00">&#45; Start()</text>
<text text-anchor="start" x="95.88" y="-18.5" font-family="Helvetica,sans-Serif" font-size="10.00">&#45; Update()</text>
<text text-anchor="start" x="95.88" y="-7.5" font-family="Helvetica,sans-Serif" font-size="10.00">&#45; AddMarker()</text>
</a>
</g>
</g>
<!-- Node2 -->
<g id="node2" class="node">
<title>Node2</title>
<g id="a_node2"><a xlink:title=" ">
<polygon fill="white" stroke="#bfbfbf" points="92.38,-1012.5 92.38,-1069.5 175.38,-1069.5 175.38,-1012.5 92.38,-1012.5"/>
<text text-anchor="middle" x="133.88" y="-1057.5" font-family="Helvetica,sans-Serif" font-size="10.00">MonoBehaviour</text>
<polyline fill="none" stroke="#bfbfbf" points="92.38,-1050.5 175.38,-1050.5 "/>
<text text-anchor="middle" x="133.88" y="-1038.5" font-family="Helvetica,sans-Serif" font-size="10.00"> </text>
<polyline fill="none" stroke="#bfbfbf" points="92.38,-1031.5 175.38,-1031.5 "/>
<text text-anchor="middle" x="133.88" y="-1019.5" font-family="Helvetica,sans-Serif" font-size="10.00"> </text>
</a>
</g>
</g>
<!-- Node2&#45;&gt;Node1 -->
<g id="edge1" class="edge">
<title>Node2&#45;&gt;Node1</title>
<path fill="none" stroke="midnightblue" d="M102.17,-1004.11C95.96,-995.17 90.31,-985.2 86.88,-975 -27.19,-636.3 -25.07,-514.7 72.88,-171 77.53,-154.66 85.45,-138.38 94.25,-123.6"/>
<polygon fill="none" stroke="midnightblue" points="99.49,-1006.37 108.24,-1012.35 105.12,-1002.22 99.49,-1006.37"/>
</g>
<!-- Node3 -->
<g id="node3" class="node">
<title>Node3</title>
<g id="a_node3"><a xlink:href="class_my_input_manager.html" target="_top" xlink:title=" ">
<polygon fill="white" stroke="black" points="81.88,-171.5 81.88,-382.5 197.88,-382.5 197.88,-171.5 81.88,-171.5"/>
<text text-anchor="middle" x="139.88" y="-370.5" font-family="Helvetica,sans-Serif" font-size="10.00">MyInputManager</text>
<polyline fill="none" stroke="black" points="81.88,-363.5 197.88,-363.5 "/>
<text text-anchor="start" x="89.88" y="-351.5" font-family="Helvetica,sans-Serif" font-size="10.00">+ myPeerType</text>
<text text-anchor="start" x="89.88" y="-340.5" font-family="Helvetica,sans-Serif" font-size="10.00">+ recording</text>
<text text-anchor="start" x="89.88" y="-329.5" font-family="Helvetica,sans-Serif" font-size="10.00">+ hostPosition</text>
<text text-anchor="start" x="89.88" y="-318.5" font-family="Helvetica,sans-Serif" font-size="10.00">+ clientPosition</text>
<text text-anchor="start" x="89.88" y="-307.5" font-family="Helvetica,sans-Serif" font-size="10.00">+ clientKeyboard</text>
<text text-anchor="start" x="89.88" y="-296.5" font-family="Helvetica,sans-Serif" font-size="10.00">&#45; scaledPixelRatioX</text>
<text text-anchor="start" x="89.88" y="-285.5" font-family="Helvetica,sans-Serif" font-size="10.00">&#45; scaledPixelRatioY</text>
<text text-anchor="start" x="89.88" y="-274.5" font-family="Helvetica,sans-Serif" font-size="10.00">&#45; clientAspectRatio</text>
<text text-anchor="start" x="89.88" y="-263.5" font-family="Helvetica,sans-Serif" font-size="10.00">&#45; croppedScreenWidth</text>
<text text-anchor="start" x="89.88" y="-252.5" font-family="Helvetica,sans-Serif" font-size="10.00">&#45; croppedScreenHeight</text>
<text text-anchor="start" x="89.88" y="-241.5" font-family="Helvetica,sans-Serif" font-size="10.00">&#45; offsetX</text>
<text text-anchor="start" x="89.88" y="-230.5" font-family="Helvetica,sans-Serif" font-size="10.00">&#45; offsetY</text>
<polyline fill="none" stroke="black" points="81.88,-223.5 197.88,-223.5 "/>
<text text-anchor="start" x="89.88" y="-211.5" font-family="Helvetica,sans-Serif" font-size="10.00">+ IsHeldDown()</text>
<text text-anchor="start" x="89.88" y="-200.5" font-family="Helvetica,sans-Serif" font-size="10.00">&#45; Awake()</text>
<text text-anchor="start" x="89.88" y="-189.5" font-family="Helvetica,sans-Serif" font-size="10.00">&#45; Start()</text>
<text text-anchor="start" x="89.88" y="-178.5" font-family="Helvetica,sans-Serif" font-size="10.00">&#45; Update()</text>
</a>
</g>
</g>
<!-- Node2&#45;&gt;Node3 -->
<g id="edge3" class="edge">
<title>Node2&#45;&gt;Node3</title>
<path fill="none" stroke="midnightblue" d="M117.67,-1003.02C114.44,-994.02 111.54,-984.31 109.88,-975 64.97,-723.72 110.24,-655.51 129.88,-401 130.34,-395.02 130.82,-388.87 131.31,-382.67"/>
<polygon fill="none" stroke="midnightblue" points="114.43,-1004.35 121.25,-1012.45 120.97,-1001.86 114.43,-1004.35"/>
</g>
<!-- Node4 -->
<g id="node4" class="node">
<title>Node4</title>
<g id="a_node4"><a xlink:href="class_video_manager.html" target="_top" xlink:title="Maneja la l贸gica de la grabaci贸n y visualizaci贸n de video">
<polygon fill="white" stroke="black" points="119.38,-675.5 119.38,-974.5 236.38,-974.5 236.38,-675.5 119.38,-675.5"/>
<text text-anchor="middle" x="177.88" y="-962.5" font-family="Helvetica,sans-Serif" font-size="10.00">VideoManager</text>
<polyline fill="none" stroke="black" points="119.38,-955.5 236.38,-955.5 "/>
<text text-anchor="start" x="127.38" y="-943.5" font-family="Helvetica,sans-Serif" font-size="10.00">+ width</text>
<text text-anchor="start" x="127.38" y="-932.5" font-family="Helvetica,sans-Serif" font-size="10.00">+ height</text>
<text text-anchor="start" x="127.38" y="-921.5" font-family="Helvetica,sans-Serif" font-size="10.00">+ aspectRatio</text>
<text text-anchor="start" x="127.38" y="-910.5" font-family="Helvetica,sans-Serif" font-size="10.00">+ bitrate</text>
<text text-anchor="start" x="127.38" y="-899.5" font-family="Helvetica,sans-Serif" font-size="10.00">+ framerate</text>
<text text-anchor="start" x="127.38" y="-888.5" font-family="Helvetica,sans-Serif" font-size="10.00">+ isRecording</text>
<text text-anchor="start" x="127.38" y="-877.5" font-family="Helvetica,sans-Serif" font-size="10.00">+ videoRawImage</text>
<text text-anchor="start" x="127.38" y="-866.5" font-family="Helvetica,sans-Serif" font-size="10.00">+ videoStreamTrack</text>
<text text-anchor="start" x="127.38" y="-855.5" font-family="Helvetica,sans-Serif" font-size="10.00">+ videoDisabled</text>
<text text-anchor="start" x="127.38" y="-844.5" font-family="Helvetica,sans-Serif" font-size="10.00">+ mainCam</text>
<text text-anchor="start" x="127.38" y="-833.5" font-family="Helvetica,sans-Serif" font-size="10.00">+ arSession</text>
<text text-anchor="start" x="127.38" y="-822.5" font-family="Helvetica,sans-Serif" font-size="10.00">&#45; arCam</text>
<text text-anchor="start" x="127.38" y="-811.5" font-family="Helvetica,sans-Serif" font-size="10.00">&#45; webCam</text>
<text text-anchor="start" x="127.38" y="-800.5" font-family="Helvetica,sans-Serif" font-size="10.00">&#45; webCamRawImage</text>
<text text-anchor="start" x="127.38" y="-789.5" font-family="Helvetica,sans-Serif" font-size="10.00">&#45; webcamTexture</text>
<text text-anchor="start" x="127.38" y="-778.5" font-family="Helvetica,sans-Serif" font-size="10.00">&#45; noVideoAR</text>
<text text-anchor="start" x="127.38" y="-767.5" font-family="Helvetica,sans-Serif" font-size="10.00">&#45; noVideoUI</text>
<text text-anchor="start" x="127.38" y="-756.5" font-family="Helvetica,sans-Serif" font-size="10.00">&#45; arToolTipsUI</text>
<polyline fill="none" stroke="black" points="119.38,-749.5 236.38,-749.5 "/>
<text text-anchor="start" x="127.38" y="-737.5" font-family="Helvetica,sans-Serif" font-size="10.00">+ RecordCamera()</text>
<text text-anchor="start" x="127.38" y="-726.5" font-family="Helvetica,sans-Serif" font-size="10.00">+ ShowVideo()</text>
<text text-anchor="start" x="127.38" y="-715.5" font-family="Helvetica,sans-Serif" font-size="10.00">+ ToggleVideo()</text>
<text text-anchor="start" x="127.38" y="-704.5" font-family="Helvetica,sans-Serif" font-size="10.00">&#45; Awake()</text>
<text text-anchor="start" x="127.38" y="-693.5" font-family="Helvetica,sans-Serif" font-size="10.00">&#45; Start()</text>
<text text-anchor="start" x="127.38" y="-682.5" font-family="Helvetica,sans-Serif" font-size="10.00">&#45; OnApplicationPause()</text>
</a>
</g>
</g>
<!-- Node2&#45;&gt;Node4 -->
<g id="edge5" class="edge">
<title>Node2&#45;&gt;Node4</title>
<path fill="none" stroke="midnightblue" d="M141.61,-1002.41C143.33,-994.03 145.26,-984.65 147.3,-974.7"/>
<polygon fill="none" stroke="midnightblue" points="138.13,-1001.96 139.54,-1012.46 144.98,-1003.37 138.13,-1001.96"/>
</g>
<!-- Node5 -->
<g id="node5" class="node">
<title>Node5</title>
<g id="a_node5"><a xlink:href="class_a_r_tool_manager.html" target="_top" xlink:title="Maneja la l贸gica de las herramientas de RA">
<polygon fill="white" stroke="black" points="214.38,-401.5 214.38,-656.5 313.38,-656.5 313.38,-401.5 214.38,-401.5"/>
<text text-anchor="middle" x="263.88" y="-644.5" font-family="Helvetica,sans-Serif" font-size="10.00">ARToolManager</text>
<polyline fill="none" stroke="black" points="214.38,-637.5 313.38,-637.5 "/>
<text text-anchor="start" x="222.38" y="-625.5" font-family="Helvetica,sans-Serif" font-size="10.00">+ recording</text>
<text text-anchor="start" x="222.38" y="-614.5" font-family="Helvetica,sans-Serif" font-size="10.00">+ hostMaterial</text>
<text text-anchor="start" x="222.38" y="-603.5" font-family="Helvetica,sans-Serif" font-size="10.00">+ clientMaterial</text>
<text text-anchor="start" x="222.38" y="-592.5" font-family="Helvetica,sans-Serif" font-size="10.00">+ ColorRed</text>
<text text-anchor="start" x="222.38" y="-581.5" font-family="Helvetica,sans-Serif" font-size="10.00">+ ColorBlue</text>
<text text-anchor="start" x="222.38" y="-570.5" font-family="Helvetica,sans-Serif" font-size="10.00">+ ColorGreen</text>
<text text-anchor="start" x="222.38" y="-559.5" font-family="Helvetica,sans-Serif" font-size="10.00">+ ColorYellow</text>
<text text-anchor="start" x="222.38" y="-548.5" font-family="Helvetica,sans-Serif" font-size="10.00">+ guidePrefab</text>
<text text-anchor="start" x="222.38" y="-537.5" font-family="Helvetica,sans-Serif" font-size="10.00">+ hostDrawings</text>
<text text-anchor="start" x="222.38" y="-526.5" font-family="Helvetica,sans-Serif" font-size="10.00">+ clientDrawings</text>
<text text-anchor="start" x="222.38" y="-515.5" font-family="Helvetica,sans-Serif" font-size="10.00">+ hostGuides</text>
<text text-anchor="start" x="222.38" y="-504.5" font-family="Helvetica,sans-Serif" font-size="10.00">+ clientGuides</text>
<text text-anchor="start" x="222.38" y="-493.5" font-family="Helvetica,sans-Serif" font-size="10.00">&#45; hostTools</text>
<text text-anchor="start" x="222.38" y="-482.5" font-family="Helvetica,sans-Serif" font-size="10.00">&#45; clientTools</text>
<polyline fill="none" stroke="black" points="214.38,-475.5 313.38,-475.5 "/>
<text text-anchor="start" x="222.38" y="-463.5" font-family="Helvetica,sans-Serif" font-size="10.00">+ SelectTool()</text>
<text text-anchor="start" x="222.38" y="-452.5" font-family="Helvetica,sans-Serif" font-size="10.00">+ UndoDrawing()</text>
<text text-anchor="start" x="222.38" y="-441.5" font-family="Helvetica,sans-Serif" font-size="10.00">+ DeleteDrawings()</text>
<text text-anchor="start" x="222.38" y="-430.5" font-family="Helvetica,sans-Serif" font-size="10.00">+ SelectColor()</text>
<text text-anchor="start" x="222.38" y="-419.5" font-family="Helvetica,sans-Serif" font-size="10.00">+ PlaceGuide()</text>
<text text-anchor="start" x="222.38" y="-408.5" font-family="Helvetica,sans-Serif" font-size="10.00">&#45; Awake()</text>
</a>
</g>
</g>
<!-- Node2&#45;&gt;Node5 -->
<g id="edge7" class="edge">
<title>Node2&#45;&gt;Node5</title>
<path fill="none" stroke="midnightblue" d="M184.96,-1022.96C207.32,-1012.72 231.47,-997.27 244.88,-975 302.21,-879.77 301.14,-751.17 289.19,-656.71"/>
<polygon fill="none" stroke="midnightblue" points="183.31,-1019.85 175.52,-1027.03 186.09,-1026.28 183.31,-1019.85"/>
</g>
<!-- Node3&#45;&gt;Node1 -->
<g id="edge2" class="edge">
<title>Node3&#45;&gt;Node1</title>
<path fill="none" stroke="#404040" d="M139.88,-171.37C139.88,-159.32 139.88,-147.23 139.88,-135.74"/>
<polygon fill="none" stroke="#404040" points="139.88,-135.52 135.88,-129.52 139.88,-123.52 143.88,-129.52 139.88,-135.52"/>
<text text-anchor="middle" x="172.38" y="-145" font-family="Helvetica,sans-Serif" font-size="10.00"> &#45;inputManager</text>
</g>
<!-- Node4&#45;&gt;Node3 -->
<g id="edge4" class="edge">
<title>Node4&#45;&gt;Node3</title>
<path fill="none" stroke="#404040" d="M141.36,-675.43C140.41,-669.23 139.58,-663.06 138.88,-657 125.85,-543.97 138.42,-514.78 138.88,-401 138.89,-398.94 138.9,-396.87 138.91,-394.78"/>
<polygon fill="none" stroke="#404040" points="138.91,-394.68 134.94,-388.66 138.97,-382.68 142.94,-388.7 138.91,-394.68"/>
<text text-anchor="middle" x="171.88" y="-526.5" font-family="Helvetica,sans-Serif" font-size="10.00"> &#45;videoManager</text>
</g>
<!-- Node5&#45;&gt;Node1 -->
<g id="edge6" class="edge">
<title>Node5&#45;&gt;Node1</title>
<path fill="none" stroke="#404040" d="M263.87,-401.22C259.56,-323.31 246.1,-223.23 208.88,-142 206.13,-136 202.77,-130.11 199.04,-124.43"/>
<polygon fill="none" stroke="#404040" points="198.9,-124.23 192.17,-121.65 191.96,-114.44 198.69,-117.02 198.9,-124.23"/>
<text text-anchor="middle" x="298.88" y="-274.5" font-family="Helvetica,sans-Serif" font-size="10.00"> &#45;aRToolManager</text>
</g>
</g>
</svg>
