<?xml version="1.0" encoding="UTF-8" standalone="no"?>
<!DOCTYPE svg PUBLIC "-//W3C//DTD SVG 1.1//EN"
 "http://www.w3.org/Graphics/SVG/1.1/DTD/svg11.dtd">
<!-- Generated by graphviz version 2.49.0 (20210828.1703)
 -->
<!-- Title: RegisterPhoneUIController.OnVerificationCompleted Pages: 1 -->
<svg width="886pt" height="82pt"
 viewBox="0.00 0.00 886.00 82.13" xmlns="http://www.w3.org/2000/svg" xmlns:xlink="http://www.w3.org/1999/xlink">
<g id="graph0" class="graph" transform="scale(1 1) rotate(0) translate(4 78.13)">
<title>RegisterPhoneUIController.OnVerificationCompleted</title>
<polygon fill="white" stroke="transparent" points="-4,4 -4,-78.13 882,-78.13 882,4 -4,4"/>
<!-- Node1 -->
<g id="node1" class="node">
<title>Node1</title>
<g id="a_node1"><a xlink:title="Llamada cuando se completa la verificación">
<polygon fill="#bfbfbf" stroke="black" points="637,-38.5 637,-57.5 878,-57.5 878,-38.5 637,-38.5"/>
<text text-anchor="middle" x="757.5" y="-45.5" font-family="Helvetica,sans-Serif" font-size="10.00">RegisterPhoneUIController.OnVerificationCompleted</text>
</a>
</g>
</g>
<!-- Node2 -->
<g id="node2" class="node">
<title>Node2</title>
<g id="a_node2"><a xlink:href="class_register_phone_u_i_controller.html#abecd41c11aa752bec550978e4a58d2a1" target="_top" xlink:title="Llamada justo antes del primer fotograma">
<polygon fill="white" stroke="black" points="0,-38.5 0,-57.5 155,-57.5 155,-38.5 0,-38.5"/>
<text text-anchor="middle" x="77.5" y="-45.5" font-family="Helvetica,sans-Serif" font-size="10.00">RegisterPhoneUIController.Start</text>
</a>
</g>
</g>
<!-- Node1&#45;&gt;Node2 -->
<g id="edge1" class="edge">
<title>Node1&#45;&gt;Node2</title>
<path fill="none" stroke="midnightblue" d="M683.01,-58.84C657.15,-62.16 627.84,-65.37 601,-67 419.1,-78.07 372.75,-75.32 191,-62 176.38,-60.93 160.74,-59.29 145.91,-57.52"/>
<polygon fill="midnightblue" stroke="midnightblue" points="683.65,-62.29 693.11,-57.52 682.74,-55.35 683.65,-62.29"/>
</g>
<!-- Node3 -->
<g id="node3" class="node">
<title>Node3</title>
<g id="a_node3"><a xlink:href="class_register_phone_u_i_controller.html#a5cd62efcd8f1e816c759ac0ede78aaaf" target="_top" xlink:title="Se desuscribe de los eventos de clases estáticas">
<polygon fill="white" stroke="black" points="413,-38.5 413,-57.5 601,-57.5 601,-38.5 413,-38.5"/>
<text text-anchor="middle" x="507" y="-45.5" font-family="Helvetica,sans-Serif" font-size="10.00">RegisterPhoneUIController.Unsubscribe</text>
</a>
</g>
</g>
<!-- Node1&#45;&gt;Node3 -->
<g id="edge2" class="edge">
<title>Node1&#45;&gt;Node3</title>
<path fill="none" stroke="midnightblue" d="M626.8,-41.26C618.13,-41.27 609.5,-41.34 601.08,-41.44"/>
<polygon fill="midnightblue" stroke="midnightblue" points="626.98,-44.76 636.98,-41.25 626.98,-37.76 626.98,-44.76"/>
</g>
<!-- Node3&#45;&gt;Node1 -->
<g id="edge3" class="edge">
<title>Node3&#45;&gt;Node1</title>
<path fill="none" stroke="midnightblue" d="M611.33,-54.66C619.8,-54.73 628.41,-54.76 636.98,-54.75"/>
<polygon fill="midnightblue" stroke="midnightblue" points="611.11,-51.16 601.08,-54.56 611.04,-58.16 611.11,-51.16"/>
</g>
<!-- Node3&#45;&gt;Node2 -->
<g id="edge4" class="edge">
<title>Node3&#45;&gt;Node2</title>
<path fill="none" stroke="midnightblue" d="M402.87,-48C326.61,-48 224.42,-48 155.27,-48"/>
<polygon fill="midnightblue" stroke="midnightblue" points="402.98,-51.5 412.98,-48 402.98,-44.5 402.98,-51.5"/>
</g>
<!-- Node4 -->
<g id="node4" class="node">
<title>Node4</title>
<g id="a_node4"><a xlink:href="class_register_phone_u_i_controller.html#a55f0c364a3d7f1920df9790b7c63da7c" target="_top" xlink:title="Verifica el teléfono introducido con el código SMS introducido">
<polygon fill="white" stroke="black" points="191,-0.5 191,-19.5 377,-19.5 377,-0.5 191,-0.5"/>
<text text-anchor="middle" x="284" y="-7.5" font-family="Helvetica,sans-Serif" font-size="10.00">RegisterPhoneUIController.VerifyPhone</text>
</a>
</g>
</g>
<!-- Node3&#45;&gt;Node4 -->
<g id="edge5" class="edge">
<title>Node3&#45;&gt;Node4</title>
<path fill="none" stroke="midnightblue" d="M440.42,-36.72C408.63,-31.26 370.85,-24.76 340.51,-19.54"/>
<polygon fill="midnightblue" stroke="midnightblue" points="440.07,-40.21 450.52,-38.46 441.26,-33.32 440.07,-40.21"/>
</g>
<!-- Node4&#45;&gt;Node2 -->
<g id="edge6" class="edge">
<title>Node4&#45;&gt;Node2</title>
<path fill="none" stroke="midnightblue" d="M221.55,-21.42C192.29,-26.86 157.7,-33.28 129.86,-38.46"/>
<polygon fill="midnightblue" stroke="midnightblue" points="222.47,-24.81 231.66,-19.54 221.19,-17.93 222.47,-24.81"/>
</g>
</g>
</svg>
