<?xml version="1.0" encoding="UTF-8" standalone="no"?>
<!DOCTYPE svg PUBLIC "-//W3C//DTD SVG 1.1//EN"
 "http://www.w3.org/Graphics/SVG/1.1/DTD/svg11.dtd">
<!-- Generated by graphviz version 2.49.0 (20210828.1703)
 -->
<!-- Title: ContactsController.ShowContacts Pages: 1 -->
<svg width="662pt" height="161pt"
 viewBox="0.00 0.00 662.00 161.00" xmlns="http://www.w3.org/2000/svg" xmlns:xlink="http://www.w3.org/1999/xlink">
<g id="graph0" class="graph" transform="scale(1 1) rotate(0) translate(4 157)">
<title>ContactsController.ShowContacts</title>
<polygon fill="white" stroke="transparent" points="-4,4 -4,-157 658,-157 658,4 -4,4"/>
<!-- Node1 -->
<g id="node1" class="node">
<title>Node1</title>
<g id="a_node1"><a xlink:title="Inicializa todos los elementos necesarios de la lista de contactos y la muestra en la interfaz">
<polygon fill="#bfbfbf" stroke="black" points="0,-76.5 0,-95.5 163,-95.5 163,-76.5 0,-76.5"/>
<text text-anchor="middle" x="81.5" y="-83.5" font-family="Helvetica,sans-Serif" font-size="10.00">ContactsController.ShowContacts</text>
</a>
</g>
</g>
<!-- Node2 -->
<g id="node2" class="node">
<title>Node2</title>
<g id="a_node2"><a xlink:href="class_database_manager.html#a322c76e999c83719f38cf419cf9f800a" target="_top" xlink:title="Obtiene el userID de un usuario a partir de su número de teléfono">
<polygon fill="white" stroke="black" points="237,-133.5 237,-152.5 380,-152.5 380,-133.5 237,-133.5"/>
<text text-anchor="middle" x="308.5" y="-140.5" font-family="Helvetica,sans-Serif" font-size="10.00">DatabaseManager.GetUserID</text>
</a>
</g>
</g>
<!-- Node1&#45;&gt;Node2 -->
<g id="edge1" class="edge">
<title>Node1&#45;&gt;Node2</title>
<path fill="none" stroke="midnightblue" d="M108.11,-95.52C131.51,-103.93 167.21,-116.07 199,-124 210.31,-126.82 222.38,-129.37 234.21,-131.63"/>
<polygon fill="midnightblue" stroke="midnightblue" points="233.6,-135.07 244.07,-133.45 234.87,-128.19 233.6,-135.07"/>
</g>
<!-- Node3 -->
<g id="node3" class="node">
<title>Node3</title>
<g id="a_node3"><a xlink:href="class_room_manager.html#a022ae9cafc8dedb55ca839e0d99c5b44" target="_top" xlink:title="Mueve un par a una sala">
<polygon fill="white" stroke="black" points="246,-95.5 246,-114.5 371,-114.5 371,-95.5 246,-95.5"/>
<text text-anchor="middle" x="308.5" y="-102.5" font-family="Helvetica,sans-Serif" font-size="10.00">RoomManager.JoinRoom</text>
</a>
</g>
</g>
<!-- Node1&#45;&gt;Node3 -->
<g id="edge2" class="edge">
<title>Node1&#45;&gt;Node3</title>
<path fill="none" stroke="midnightblue" d="M163.09,-92.81C186.82,-94.81 212.61,-96.99 235.74,-98.94"/>
<polygon fill="midnightblue" stroke="midnightblue" points="235.56,-102.44 245.82,-99.79 236.15,-95.46 235.56,-102.44"/>
</g>
<!-- Node6 -->
<g id="node6" class="node">
<title>Node6</title>
<g id="a_node6"><a xlink:href="class_sharing_manager.html#a6b0c8c96f7f5624110bcf03a1c3dad3b" target="_top" xlink:title="Envia una notifiación">
<polygon fill="white" stroke="black" points="228,-57.5 228,-76.5 389,-76.5 389,-57.5 228,-57.5"/>
<text text-anchor="middle" x="308.5" y="-64.5" font-family="Helvetica,sans-Serif" font-size="10.00">SharingManager.SendNotification</text>
</a>
</g>
</g>
<!-- Node1&#45;&gt;Node6 -->
<g id="edge5" class="edge">
<title>Node1&#45;&gt;Node6</title>
<path fill="none" stroke="midnightblue" d="M163.09,-79.19C180.78,-77.7 199.61,-76.11 217.64,-74.59"/>
<polygon fill="midnightblue" stroke="midnightblue" points="218.18,-78.06 227.85,-73.73 217.59,-71.08 218.18,-78.06"/>
</g>
<!-- Node7 -->
<g id="node7" class="node">
<title>Node7</title>
<g id="a_node7"><a xlink:href="class_sharing_manager.html#aae88ccb9e92ceeed9c6e6281a192f698" target="_top" xlink:title="Comparte un código de sala con un contacto de whatsapp">
<polygon fill="white" stroke="black" points="199,-19.5 199,-38.5 418,-38.5 418,-19.5 199,-19.5"/>
<text text-anchor="middle" x="308.5" y="-26.5" font-family="Helvetica,sans-Serif" font-size="10.00">SharingManager.ShareRoomWhatsappContact</text>
</a>
</g>
</g>
<!-- Node1&#45;&gt;Node7 -->
<g id="edge6" class="edge">
<title>Node1&#45;&gt;Node7</title>
<path fill="none" stroke="midnightblue" d="M108.11,-76.48C131.51,-68.07 167.21,-55.93 199,-48 210.31,-45.18 222.38,-42.63 234.21,-40.37"/>
<polygon fill="midnightblue" stroke="midnightblue" points="234.87,-43.81 244.07,-38.55 233.6,-36.93 234.87,-43.81"/>
</g>
<!-- Node4 -->
<g id="node4" class="node">
<title>Node4</title>
<g id="a_node4"><a xlink:href="class_my_scene_manager.html#a6787f49b73d5e0c4e80fd67d38f5550a" target="_top" xlink:title="Carga la escena seleccionada">
<polygon fill="white" stroke="black" points="480.5,-123.5 480.5,-142.5 627.5,-142.5 627.5,-123.5 480.5,-123.5"/>
<text text-anchor="middle" x="554" y="-130.5" font-family="Helvetica,sans-Serif" font-size="10.00">MySceneManager.LoadScene</text>
</a>
</g>
</g>
<!-- Node3&#45;&gt;Node4 -->
<g id="edge3" class="edge">
<title>Node3&#45;&gt;Node4</title>
<path fill="none" stroke="midnightblue" d="M371.26,-112.1C401.39,-115.57 438.07,-119.78 470.55,-123.52"/>
<polygon fill="midnightblue" stroke="midnightblue" points="470.16,-127 480.49,-124.66 470.96,-120.04 470.16,-127"/>
</g>
<!-- Node5 -->
<g id="node5" class="node">
<title>Node5</title>
<g id="a_node5"><a xlink:href="class_database_manager.html#a26b78f4ef7989b67f825194863df0357" target="_top" xlink:title="Evalua si un código de sala existe en base de datos">
<polygon fill="white" stroke="black" points="473.5,-85.5 473.5,-104.5 634.5,-104.5 634.5,-85.5 473.5,-85.5"/>
<text text-anchor="middle" x="554" y="-92.5" font-family="Helvetica,sans-Serif" font-size="10.00">DatabaseManager.RoomIDExists</text>
</a>
</g>
</g>
<!-- Node3&#45;&gt;Node5 -->
<g id="edge4" class="edge">
<title>Node3&#45;&gt;Node5</title>
<path fill="none" stroke="midnightblue" d="M371.26,-102.46C399.11,-101.32 432.54,-99.95 463.1,-98.69"/>
<polygon fill="midnightblue" stroke="midnightblue" points="463.49,-102.18 473.33,-98.27 463.2,-95.19 463.49,-102.18"/>
</g>
<!-- Node8 -->
<g id="node8" class="node">
<title>Node8</title>
<g id="a_node8"><a xlink:href="class_sharing_manager.html#a039a42cca85530f5e71e396bda0bc95b" target="_top" xlink:title="Crea un enlace dinámico a una sala">
<polygon fill="white" stroke="black" points="454,-38.5 454,-57.5 654,-57.5 654,-38.5 454,-38.5"/>
<text text-anchor="middle" x="554" y="-45.5" font-family="Helvetica,sans-Serif" font-size="10.00">SharingManager.CreateDynamicRoomLink</text>
</a>
</g>
</g>
<!-- Node7&#45;&gt;Node8 -->
<g id="edge7" class="edge">
<title>Node7&#45;&gt;Node8</title>
<path fill="none" stroke="midnightblue" d="M418.08,-37.47C426.64,-38.14 435.3,-38.82 443.87,-39.48"/>
<polygon fill="midnightblue" stroke="midnightblue" points="443.64,-42.98 453.89,-40.27 444.19,-36 443.64,-42.98"/>
</g>
<!-- Node9 -->
<g id="node9" class="node">
<title>Node9</title>
<g id="a_node9"><a xlink:href="class_sharing_manager.html#a1297b7c8e2a23a2f1b179717015405a7" target="_top" xlink:title="Crea el mensaje a compartir">
<polygon fill="white" stroke="black" points="476.5,-0.5 476.5,-19.5 631.5,-19.5 631.5,-0.5 476.5,-0.5"/>
<text text-anchor="middle" x="554" y="-7.5" font-family="Helvetica,sans-Serif" font-size="10.00">SharingManager.ShareMessage</text>
</a>
</g>
</g>
<!-- Node7&#45;&gt;Node9 -->
<g id="edge8" class="edge">
<title>Node7&#45;&gt;Node9</title>
<path fill="none" stroke="midnightblue" d="M418.08,-20.53C434.2,-19.27 450.64,-17.99 466.24,-16.77"/>
<polygon fill="midnightblue" stroke="midnightblue" points="466.66,-20.25 476.36,-15.98 466.11,-13.27 466.66,-20.25"/>
</g>
</g>
</svg>
