<?xml version="1.0" encoding="UTF-8" standalone="no"?>
<!DOCTYPE svg PUBLIC "-//W3C//DTD SVG 1.1//EN"
 "http://www.w3.org/Graphics/SVG/1.1/DTD/svg11.dtd">
<!-- Generated by graphviz version 2.49.0 (20210828.1703)
 -->
<!-- Title: PeerConnectionManager.ReadyUser Pages: 1 -->
<svg width="628pt" height="66pt"
 viewBox="0.00 0.00 628.00 66.00" xmlns="http://www.w3.org/2000/svg" xmlns:xlink="http://www.w3.org/1999/xlink">
<g id="graph0" class="graph" transform="scale(1 1) rotate(0) translate(4 62)">
<title>PeerConnectionManager.ReadyUser</title>
<polygon fill="white" stroke="transparent" points="-4,4 -4,-62 624,-62 624,4 -4,4"/>
<!-- Node1 -->
<g id="node1" class="node">
<title>Node1</title>
<g id="a_node1"><a xlink:title="Se침aliza que el par esta listo para la conexi칩n">
<polygon fill="#bfbfbf" stroke="black" points="0,-19.5 0,-38.5 174,-38.5 174,-19.5 0,-19.5"/>
<text text-anchor="middle" x="87" y="-26.5" font-family="Helvetica,sans-Serif" font-size="10.00">PeerConnectionManager.ReadyUser</text>
</a>
</g>
</g>
<!-- Node2 -->
<g id="node2" class="node">
<title>Node2</title>
<g id="a_node2"><a xlink:href="class_database_manager.html#a7373a5a3ba0f6b44b5c7a96587b7afa1" target="_top" xlink:title="Se침aliza en base de datos que un par esta listo para la conexi칩n">
<polygon fill="white" stroke="black" points="210,-19.5 210,-38.5 356,-38.5 356,-19.5 210,-19.5"/>
<text text-anchor="middle" x="283" y="-26.5" font-family="Helvetica,sans-Serif" font-size="10.00">DatabaseManager.ReadyUser</text>
</a>
</g>
</g>
<!-- Node1&#45;&gt;Node2 -->
<g id="edge1" class="edge">
<title>Node1&#45;&gt;Node2</title>
<path fill="none" stroke="midnightblue" d="M174.22,-29C182.71,-29 191.31,-29 199.76,-29"/>
<polygon fill="midnightblue" stroke="midnightblue" points="199.97,-32.5 209.97,-29 199.97,-25.5 199.97,-32.5"/>
</g>
<!-- Node3 -->
<g id="node3" class="node">
<title>Node3</title>
<g id="a_node3"><a xlink:href="class_database_manager.html#a1854ec336517d562b14ec72287f986cb" target="_top" xlink:title="Lanza el evento OnClientReady">
<polygon fill="white" stroke="black" points="405,-38.5 405,-57.5 607,-57.5 607,-38.5 405,-38.5"/>
<text text-anchor="middle" x="506" y="-45.5" font-family="Helvetica,sans-Serif" font-size="10.00">DatabaseManager.OnClientReadyDelegate</text>
</a>
</g>
</g>
<!-- Node2&#45;&gt;Node3 -->
<g id="edge2" class="edge">
<title>Node2&#45;&gt;Node3</title>
<path fill="none" stroke="midnightblue" d="M356.06,-35.2C368.5,-36.27 381.69,-37.4 394.88,-38.53"/>
<polygon fill="midnightblue" stroke="midnightblue" points="394.68,-42.03 404.94,-39.4 395.28,-35.05 394.68,-42.03"/>
</g>
<!-- Node4 -->
<g id="node4" class="node">
<title>Node4</title>
<g id="a_node4"><a xlink:href="class_database_manager.html#a195ea9d14ebff0203ccdf30de9801069" target="_top" xlink:title="Lanza el evento OnMessageReceived">
<polygon fill="white" stroke="black" points="392,-0.5 392,-19.5 620,-19.5 620,-0.5 392,-0.5"/>
<text text-anchor="middle" x="506" y="-7.5" font-family="Helvetica,sans-Serif" font-size="10.00">DatabaseManager.OnMessageReceivedDelegate</text>
</a>
</g>
</g>
<!-- Node2&#45;&gt;Node4 -->
<g id="edge3" class="edge">
<title>Node2&#45;&gt;Node4</title>
<path fill="none" stroke="midnightblue" d="M356.06,-22.8C365.13,-22.03 374.59,-21.21 384.16,-20.39"/>
<polygon fill="midnightblue" stroke="midnightblue" points="384.49,-23.87 394.15,-19.53 383.89,-16.9 384.49,-23.87"/>
</g>
</g>
</svg>
