<?xml version="1.0" encoding="UTF-8" standalone="no"?>
<!DOCTYPE svg PUBLIC "-//W3C//DTD SVG 1.1//EN"
 "http://www.w3.org/Graphics/SVG/1.1/DTD/svg11.dtd">
<!-- Generated by graphviz version 2.49.0 (20210828.1703)
 -->
<!-- Title: RegisterPhoneUIController.OnVerificationCompleted Pages: 1 -->
<svg width="928pt" height="180pt"
 viewBox="0.00 0.00 928.00 180.00" xmlns="http://www.w3.org/2000/svg" xmlns:xlink="http://www.w3.org/1999/xlink">
<g id="graph0" class="graph" transform="scale(1 1) rotate(0) translate(4 176)">
<title>RegisterPhoneUIController.OnVerificationCompleted</title>
<polygon fill="white" stroke="transparent" points="-4,4 -4,-176 924,-176 924,4 -4,4"/>
<!-- Node1 -->
<g id="node1" class="node">
<title>Node1</title>
<g id="a_node1"><a xlink:title="Llamada cuando se completa la verificación">
<polygon fill="#bfbfbf" stroke="black" points="0,-95.5 0,-114.5 241,-114.5 241,-95.5 0,-95.5"/>
<text text-anchor="middle" x="120.5" y="-102.5" font-family="Helvetica,sans-Serif" font-size="10.00">RegisterPhoneUIController.OnVerificationCompleted</text>
</a>
</g>
</g>
<!-- Node2 -->
<g id="node2" class="node">
<title>Node2</title>
<g id="a_node2"><a xlink:href="class_my_scene_manager.html#a6787f49b73d5e0c4e80fd67d38f5550a" target="_top" xlink:title="Carga la escena seleccionada">
<polygon fill="white" stroke="black" points="297.5,-152.5 297.5,-171.5 444.5,-171.5 444.5,-152.5 297.5,-152.5"/>
<text text-anchor="middle" x="371" y="-159.5" font-family="Helvetica,sans-Serif" font-size="10.00">MySceneManager.LoadScene</text>
</a>
</g>
</g>
<!-- Node1&#45;&gt;Node2 -->
<g id="edge1" class="edge">
<title>Node1&#45;&gt;Node2</title>
<path fill="none" stroke="midnightblue" d="M163.09,-114.54C205.83,-124.34 272.44,-139.62 318.49,-150.18"/>
<polygon fill="midnightblue" stroke="midnightblue" points="317.74,-153.6 328.27,-152.43 319.31,-146.78 317.74,-153.6"/>
</g>
<!-- Node3 -->
<g id="node3" class="node">
<title>Node3</title>
<g id="a_node3"><a xlink:href="class_android_utils.html#af3ddee265b4dfc672eddae5699c8fb2b" target="_top" xlink:title=" ">
<polygon fill="white" stroke="black" points="800,-38.5 800,-57.5 920,-57.5 920,-38.5 800,-38.5"/>
<text text-anchor="middle" x="860" y="-45.5" font-family="Helvetica,sans-Serif" font-size="10.00">AndroidUtils.ShowToast</text>
</a>
</g>
</g>
<!-- Node1&#45;&gt;Node3 -->
<g id="edge2" class="edge">
<title>Node1&#45;&gt;Node3</title>
<path fill="none" stroke="midnightblue" d="M175.69,-114.55C287.94,-132.28 553.04,-163.43 764,-105 792.67,-97.06 821.38,-77.9 839.61,-63.98"/>
<polygon fill="midnightblue" stroke="midnightblue" points="841.98,-66.58 847.67,-57.64 837.65,-61.07 841.98,-66.58"/>
</g>
<!-- Node4 -->
<g id="node4" class="node">
<title>Node4</title>
<g id="a_node4"><a xlink:href="class_register_phone_u_i_controller.html#a5cd62efcd8f1e816c759ac0ede78aaaf" target="_top" xlink:title="Se desuscribe de los eventos de clases estáticas">
<polygon fill="white" stroke="black" points="277,-76.5 277,-95.5 465,-95.5 465,-76.5 277,-76.5"/>
<text text-anchor="middle" x="371" y="-83.5" font-family="Helvetica,sans-Serif" font-size="10.00">RegisterPhoneUIController.Unsubscribe</text>
</a>
</g>
</g>
<!-- Node1&#45;&gt;Node4 -->
<g id="edge3" class="edge">
<title>Node1&#45;&gt;Node4</title>
<path fill="none" stroke="midnightblue" d="M172.99,-95.47C200.06,-92.42 234.24,-89.45 266.5,-87.25"/>
<polygon fill="midnightblue" stroke="midnightblue" points="267.14,-90.71 276.89,-86.56 266.68,-83.73 267.14,-90.71"/>
</g>
<!-- Node4&#45;&gt;Node1 -->
<g id="edge7" class="edge">
<title>Node4&#45;&gt;Node1</title>
<path fill="none" stroke="midnightblue" d="M318.69,-95.51C298.87,-97.75 275.21,-99.94 251.28,-101.82"/>
<polygon fill="midnightblue" stroke="midnightblue" points="250.72,-98.35 241.02,-102.61 251.26,-105.33 250.72,-98.35"/>
</g>
<!-- Node5 -->
<g id="node5" class="node">
<title>Node5</title>
<g id="a_node5"><a xlink:href="class_register_phone_u_i_controller.html#a5ebb5fa37ace52b830ee425ab69376e8" target="_top" xlink:title="Llamada cuando se captura automáticamente el código">
<polygon fill="white" stroke="black" points="501,-76.5 501,-95.5 764,-95.5 764,-76.5 501,-76.5"/>
<text text-anchor="middle" x="632.5" y="-83.5" font-family="Helvetica,sans-Serif" font-size="10.00">RegisterPhoneUIController.OnCodeAutoRetrievalTimeOut</text>
</a>
</g>
</g>
<!-- Node4&#45;&gt;Node5 -->
<g id="edge4" class="edge">
<title>Node4&#45;&gt;Node5</title>
<path fill="none" stroke="midnightblue" d="M465.32,-86C473.57,-86 482.03,-86 490.56,-86"/>
<polygon fill="midnightblue" stroke="midnightblue" points="490.6,-89.5 500.6,-86 490.6,-82.5 490.6,-89.5"/>
</g>
<!-- Node6 -->
<g id="node6" class="node">
<title>Node6</title>
<g id="a_node6"><a xlink:href="class_register_phone_u_i_controller.html#a1f99826db3bbc1b5bc00fe21b5241f5e" target="_top" xlink:title="Llamada cuando se envíaa el código de verificación SMS">
<polygon fill="white" stroke="black" points="538,-38.5 538,-57.5 727,-57.5 727,-38.5 538,-38.5"/>
<text text-anchor="middle" x="632.5" y="-45.5" font-family="Helvetica,sans-Serif" font-size="10.00">RegisterPhoneUIController.OnCodeSent</text>
</a>
</g>
</g>
<!-- Node4&#45;&gt;Node6 -->
<g id="edge5" class="edge">
<title>Node4&#45;&gt;Node6</title>
<path fill="none" stroke="midnightblue" d="M436.63,-76.46C457.2,-73.43 480.06,-70.07 501,-67 518.69,-64.41 537.74,-61.63 555.66,-59.02"/>
<polygon fill="midnightblue" stroke="midnightblue" points="556.39,-62.45 565.78,-57.55 555.38,-55.52 556.39,-62.45"/>
</g>
<!-- Node7 -->
<g id="node7" class="node">
<title>Node7</title>
<g id="a_node7"><a xlink:href="class_register_phone_u_i_controller.html#a7838bc038a08379b5f1f50af435ac6d7" target="_top" xlink:title="Llamada cuando falla la verificación">
<polygon fill="white" stroke="black" points="522,-0.5 522,-19.5 743,-19.5 743,-0.5 522,-0.5"/>
<text text-anchor="middle" x="632.5" y="-7.5" font-family="Helvetica,sans-Serif" font-size="10.00">RegisterPhoneUIController.OnVerificationFailed</text>
</a>
</g>
</g>
<!-- Node4&#45;&gt;Node7 -->
<g id="edge8" class="edge">
<title>Node4&#45;&gt;Node7</title>
<path fill="none" stroke="midnightblue" d="M389.37,-76.49C413.63,-63.65 459.35,-40.99 501,-29 511.28,-26.04 522.14,-23.53 533.05,-21.4"/>
<polygon fill="midnightblue" stroke="midnightblue" points="533.86,-24.81 543.06,-19.55 532.59,-17.93 533.86,-24.81"/>
</g>
<!-- Node6&#45;&gt;Node3 -->
<g id="edge6" class="edge">
<title>Node6&#45;&gt;Node3</title>
<path fill="none" stroke="midnightblue" d="M727.17,-48C748.09,-48 769.91,-48 789.64,-48"/>
<polygon fill="midnightblue" stroke="midnightblue" points="789.75,-51.5 799.75,-48 789.75,-44.5 789.75,-51.5"/>
</g>
<!-- Node7&#45;&gt;Node3 -->
<g id="edge9" class="edge">
<title>Node7&#45;&gt;Node3</title>
<path fill="none" stroke="midnightblue" d="M703.7,-19.53C723.26,-22.37 744.48,-25.63 764,-29 776.82,-31.21 790.56,-33.82 803.5,-36.39"/>
<polygon fill="midnightblue" stroke="midnightblue" points="803.18,-39.89 813.67,-38.43 804.55,-33.03 803.18,-39.89"/>
</g>
</g>
</svg>
