<?xml version="1.0" encoding="UTF-8" standalone="no"?>
<!DOCTYPE svg PUBLIC "-//W3C//DTD SVG 1.1//EN"
 "http://www.w3.org/Graphics/SVG/1.1/DTD/svg11.dtd">
<!-- Generated by graphviz version 2.49.0 (20210828.1703)
 -->
<!-- Title: RegisterPhoneUIController.Unsubscribe Pages: 1 -->
<svg width="678pt" height="142pt"
 viewBox="0.00 0.00 678.00 142.00" xmlns="http://www.w3.org/2000/svg" xmlns:xlink="http://www.w3.org/1999/xlink">
<g id="graph0" class="graph" transform="scale(1 1) rotate(0) translate(4 138)">
<title>RegisterPhoneUIController.Unsubscribe</title>
<polygon fill="white" stroke="transparent" points="-4,4 -4,-138 674,-138 674,4 -4,4"/>
<!-- Node1 -->
<g id="node1" class="node">
<title>Node1</title>
<g id="a_node1"><a xlink:title="Se desuscribe de los eventos de clases estáticas">
<polygon fill="#bfbfbf" stroke="black" points="0,-38.5 0,-57.5 188,-57.5 188,-38.5 0,-38.5"/>
<text text-anchor="middle" x="94" y="-45.5" font-family="Helvetica,sans-Serif" font-size="10.00">RegisterPhoneUIController.Unsubscribe</text>
</a>
</g>
</g>
<!-- Node2 -->
<g id="node2" class="node">
<title>Node2</title>
<g id="a_node2"><a xlink:href="class_register_phone_u_i_controller.html#a5ebb5fa37ace52b830ee425ab69376e8" target="_top" xlink:title="Llamada cuando se captura automáticamente el código">
<polygon fill="white" stroke="black" points="224,-114.5 224,-133.5 487,-133.5 487,-114.5 224,-114.5"/>
<text text-anchor="middle" x="355.5" y="-121.5" font-family="Helvetica,sans-Serif" font-size="10.00">RegisterPhoneUIController.OnCodeAutoRetrievalTimeOut</text>
</a>
</g>
</g>
<!-- Node1&#45;&gt;Node2 -->
<g id="edge1" class="edge">
<title>Node1&#45;&gt;Node2</title>
<path fill="none" stroke="midnightblue" d="M112.37,-57.51C136.63,-70.35 182.35,-93.01 224,-105 234.28,-107.96 245.14,-110.47 256.05,-112.6"/>
<polygon fill="midnightblue" stroke="midnightblue" points="255.59,-116.07 266.06,-114.45 256.86,-109.19 255.59,-116.07"/>
</g>
<!-- Node3 -->
<g id="node3" class="node">
<title>Node3</title>
<g id="a_node3"><a xlink:href="class_register_phone_u_i_controller.html#a1f99826db3bbc1b5bc00fe21b5241f5e" target="_top" xlink:title="Llamada cuando se envíaa el código de verificación SMS">
<polygon fill="white" stroke="black" points="261,-76.5 261,-95.5 450,-95.5 450,-76.5 261,-76.5"/>
<text text-anchor="middle" x="355.5" y="-83.5" font-family="Helvetica,sans-Serif" font-size="10.00">RegisterPhoneUIController.OnCodeSent</text>
</a>
</g>
</g>
<!-- Node1&#45;&gt;Node3 -->
<g id="edge2" class="edge">
<title>Node1&#45;&gt;Node3</title>
<path fill="none" stroke="midnightblue" d="M159.63,-57.54C180.2,-60.57 203.06,-63.93 224,-67 241.69,-69.59 260.74,-72.37 278.66,-74.98"/>
<polygon fill="midnightblue" stroke="midnightblue" points="278.38,-78.48 288.78,-76.45 279.39,-71.55 278.38,-78.48"/>
</g>
<!-- Node5 -->
<g id="node5" class="node">
<title>Node5</title>
<g id="a_node5"><a xlink:href="class_register_phone_u_i_controller.html#aa85933669dcb72558a71039eba32d88d" target="_top" xlink:title="Llamada cuando se completa la verificación">
<polygon fill="white" stroke="black" points="235,-0.5 235,-19.5 476,-19.5 476,-0.5 235,-0.5"/>
<text text-anchor="middle" x="355.5" y="-7.5" font-family="Helvetica,sans-Serif" font-size="10.00">RegisterPhoneUIController.OnVerificationCompleted</text>
</a>
</g>
</g>
<!-- Node1&#45;&gt;Node5 -->
<g id="edge4" class="edge">
<title>Node1&#45;&gt;Node5</title>
<path fill="none" stroke="midnightblue" d="M116.45,-38.42C142.05,-32.05 186.15,-25.54 224,-20 224.22,-19.97 224.44,-19.94 224.66,-19.9"/>
<polygon fill="midnightblue" stroke="midnightblue" points="225.29,-23.35 234.67,-18.44 224.27,-16.42 225.29,-23.35"/>
</g>
<!-- Node7 -->
<g id="node7" class="node">
<title>Node7</title>
<g id="a_node7"><a xlink:href="class_register_phone_u_i_controller.html#a7838bc038a08379b5f1f50af435ac6d7" target="_top" xlink:title="Llamada cuando falla la verificación">
<polygon fill="white" stroke="black" points="245,-38.5 245,-57.5 466,-57.5 466,-38.5 245,-38.5"/>
<text text-anchor="middle" x="355.5" y="-45.5" font-family="Helvetica,sans-Serif" font-size="10.00">RegisterPhoneUIController.OnVerificationFailed</text>
</a>
</g>
</g>
<!-- Node1&#45;&gt;Node7 -->
<g id="edge8" class="edge">
<title>Node1&#45;&gt;Node7</title>
<path fill="none" stroke="midnightblue" d="M188.32,-48C203.34,-48 219.06,-48 234.6,-48"/>
<polygon fill="midnightblue" stroke="midnightblue" points="234.78,-51.5 244.78,-48 234.78,-44.5 234.78,-51.5"/>
</g>
<!-- Node4 -->
<g id="node4" class="node">
<title>Node4</title>
<g id="a_node4"><a xlink:href="class_android_utils.html#af3ddee265b4dfc672eddae5699c8fb2b" target="_top" xlink:title=" ">
<polygon fill="white" stroke="black" points="536.5,-38.5 536.5,-57.5 656.5,-57.5 656.5,-38.5 536.5,-38.5"/>
<text text-anchor="middle" x="596.5" y="-45.5" font-family="Helvetica,sans-Serif" font-size="10.00">AndroidUtils.ShowToast</text>
</a>
</g>
</g>
<!-- Node3&#45;&gt;Node4 -->
<g id="edge3" class="edge">
<title>Node3&#45;&gt;Node4</title>
<path fill="none" stroke="midnightblue" d="M424.63,-76.46C444.73,-73.54 466.77,-70.24 487,-67 501.8,-64.63 517.72,-61.92 532.67,-59.32"/>
<polygon fill="midnightblue" stroke="midnightblue" points="533.6,-62.71 542.85,-57.53 532.39,-55.81 533.6,-62.71"/>
</g>
<!-- Node5&#45;&gt;Node1 -->
<g id="edge7" class="edge">
<title>Node5&#45;&gt;Node1</title>
<path fill="none" stroke="midnightblue" d="M332.79,-19.56C306.89,-25.91 262.28,-32.39 224,-38 215.54,-39.24 206.76,-40.53 197.95,-41.79"/>
<polygon fill="midnightblue" stroke="midnightblue" points="197.41,-38.33 188.01,-43.21 198.4,-45.26 197.41,-38.33"/>
</g>
<!-- Node5&#45;&gt;Node4 -->
<g id="edge6" class="edge">
<title>Node5&#45;&gt;Node4</title>
<path fill="none" stroke="midnightblue" d="M424.63,-19.54C444.73,-22.46 466.77,-25.76 487,-29 501.8,-31.37 517.72,-34.08 532.67,-36.68"/>
<polygon fill="midnightblue" stroke="midnightblue" points="532.39,-40.19 542.85,-38.47 533.6,-33.29 532.39,-40.19"/>
</g>
<!-- Node6 -->
<g id="node6" class="node">
<title>Node6</title>
<g id="a_node6"><a xlink:href="class_my_scene_manager.html#a6787f49b73d5e0c4e80fd67d38f5550a" target="_top" xlink:title="Carga la escena seleccionada">
<polygon fill="white" stroke="black" points="523,-0.5 523,-19.5 670,-19.5 670,-0.5 523,-0.5"/>
<text text-anchor="middle" x="596.5" y="-7.5" font-family="Helvetica,sans-Serif" font-size="10.00">MySceneManager.LoadScene</text>
</a>
</g>
</g>
<!-- Node5&#45;&gt;Node6 -->
<g id="edge5" class="edge">
<title>Node5&#45;&gt;Node6</title>
<path fill="none" stroke="midnightblue" d="M476.35,-10C488.6,-10 500.85,-10 512.57,-10"/>
<polygon fill="midnightblue" stroke="midnightblue" points="512.73,-13.5 522.73,-10 512.73,-6.5 512.73,-13.5"/>
</g>
<!-- Node7&#45;&gt;Node4 -->
<g id="edge9" class="edge">
<title>Node7&#45;&gt;Node4</title>
<path fill="none" stroke="midnightblue" d="M466.21,-48C486.6,-48 507.38,-48 526.15,-48"/>
<polygon fill="midnightblue" stroke="midnightblue" points="526.35,-51.5 536.35,-48 526.35,-44.5 526.35,-51.5"/>
</g>
</g>
</svg>
