<?xml version="1.0" encoding="UTF-8" standalone="no"?>
<!DOCTYPE svg PUBLIC "-//W3C//DTD SVG 1.1//EN"
 "http://www.w3.org/Graphics/SVG/1.1/DTD/svg11.dtd">
<!-- Generated by graphviz version 2.49.0 (20210828.1703)
 -->
<!-- Title: TopbarUIController.Start Pages: 1 -->
<svg width="561pt" height="180pt"
 viewBox="0.00 0.00 561.00 180.00" xmlns="http://www.w3.org/2000/svg" xmlns:xlink="http://www.w3.org/1999/xlink">
<g id="graph0" class="graph" transform="scale(1 1) rotate(0) translate(4 176)">
<title>TopbarUIController.Start</title>
<polygon fill="white" stroke="transparent" points="-4,4 -4,-176 557,-176 557,4 -4,4"/>
<!-- Node1 -->
<g id="node1" class="node">
<title>Node1</title>
<g id="a_node1"><a xlink:title="Llamada justo antes del primer fotograma">
<polygon fill="#bfbfbf" stroke="black" points="0,-76.5 0,-95.5 120,-95.5 120,-76.5 0,-76.5"/>
<text text-anchor="middle" x="60" y="-83.5" font-family="Helvetica,sans-Serif" font-size="10.00">TopbarUIController.Start</text>
</a>
</g>
</g>
<!-- Node2 -->
<g id="node2" class="node">
<title>Node2</title>
<g id="a_node2"><a xlink:href="class_colors.html#acc310b1cb4a0ad1791bf11c0d9d91a57" target="_top" xlink:title="Devuelve el color dado el nombre">
<polygon fill="white" stroke="black" points="193.5,-152.5 193.5,-171.5 279.5,-171.5 279.5,-152.5 193.5,-152.5"/>
<text text-anchor="middle" x="236.5" y="-159.5" font-family="Helvetica,sans-Serif" font-size="10.00">Colors.GetColor</text>
</a>
</g>
</g>
<!-- Node1&#45;&gt;Node2 -->
<g id="edge1" class="edge">
<title>Node1&#45;&gt;Node2</title>
<path fill="none" stroke="midnightblue" d="M74.15,-95.69C91.89,-108.31 124.84,-130.28 156,-143 164.68,-146.54 174.18,-149.52 183.5,-152"/>
<polygon fill="midnightblue" stroke="midnightblue" points="182.94,-155.46 193.48,-154.48 184.63,-148.67 182.94,-155.46"/>
</g>
<!-- Node3 -->
<g id="node3" class="node">
<title>Node3</title>
<g id="a_node3"><a xlink:href="class_sharing_manager.html#a2ef248638c066a17876bf444b0bc3861" target="_top" xlink:title="Comparte un código de sala">
<polygon fill="white" stroke="black" points="166,-114.5 166,-133.5 307,-133.5 307,-114.5 166,-114.5"/>
<text text-anchor="middle" x="236.5" y="-121.5" font-family="Helvetica,sans-Serif" font-size="10.00">SharingManager.ShareRoom</text>
</a>
</g>
</g>
<!-- Node1&#45;&gt;Node3 -->
<g id="edge2" class="edge">
<title>Node1&#45;&gt;Node3</title>
<path fill="none" stroke="midnightblue" d="M105.03,-95.59C128.37,-100.67 157.23,-106.96 181.87,-112.32"/>
<polygon fill="midnightblue" stroke="midnightblue" points="181.27,-115.77 191.78,-114.48 182.76,-108.93 181.27,-115.77"/>
</g>
<!-- Node6 -->
<g id="node6" class="node">
<title>Node6</title>
<g id="a_node6"><a xlink:href="class_audio_manager.html#a4caaf15cce1acf8cec94e1bc0abf47ce" target="_top" xlink:title="Alterna la entrada de audio">
<polygon fill="white" stroke="black" points="160,-76.5 160,-95.5 313,-95.5 313,-76.5 160,-76.5"/>
<text text-anchor="middle" x="236.5" y="-83.5" font-family="Helvetica,sans-Serif" font-size="10.00">AudioManager.ToggleMuteInput</text>
</a>
</g>
</g>
<!-- Node1&#45;&gt;Node6 -->
<g id="edge5" class="edge">
<title>Node1&#45;&gt;Node6</title>
<path fill="none" stroke="midnightblue" d="M120.08,-86C129.64,-86 139.72,-86 149.76,-86"/>
<polygon fill="midnightblue" stroke="midnightblue" points="149.78,-89.5 159.78,-86 149.78,-82.5 149.78,-89.5"/>
</g>
<!-- Node7 -->
<g id="node7" class="node">
<title>Node7</title>
<g id="a_node7"><a xlink:href="class_audio_manager.html#a857093f3621d4513ad357772dd97d42d" target="_top" xlink:title="Alterna la salida de audio">
<polygon fill="white" stroke="black" points="156,-38.5 156,-57.5 317,-57.5 317,-38.5 156,-38.5"/>
<text text-anchor="middle" x="236.5" y="-45.5" font-family="Helvetica,sans-Serif" font-size="10.00">AudioManager.ToggleMuteOutput</text>
</a>
</g>
</g>
<!-- Node1&#45;&gt;Node7 -->
<g id="edge6" class="edge">
<title>Node1&#45;&gt;Node7</title>
<path fill="none" stroke="midnightblue" d="M105.03,-76.41C128.37,-71.33 157.23,-65.04 181.87,-59.68"/>
<polygon fill="midnightblue" stroke="midnightblue" points="182.76,-63.07 191.78,-57.52 181.27,-56.23 182.76,-63.07"/>
</g>
<!-- Node8 -->
<g id="node8" class="node">
<title>Node8</title>
<g id="a_node8"><a xlink:href="class_video_manager.html#a476c43af14c677ae92c38ab1855d7382" target="_top" xlink:title="Alterna la visibilidad del video">
<polygon fill="white" stroke="black" points="169,-0.5 169,-19.5 304,-19.5 304,-0.5 169,-0.5"/>
<text text-anchor="middle" x="236.5" y="-7.5" font-family="Helvetica,sans-Serif" font-size="10.00">VideoManager.ToggleVideo</text>
</a>
</g>
</g>
<!-- Node1&#45;&gt;Node8 -->
<g id="edge7" class="edge">
<title>Node1&#45;&gt;Node8</title>
<path fill="none" stroke="midnightblue" d="M74.15,-76.31C91.89,-63.69 124.84,-41.72 156,-29 162.18,-26.48 168.77,-24.24 175.42,-22.27"/>
<polygon fill="midnightblue" stroke="midnightblue" points="176.45,-25.62 185.15,-19.57 174.57,-18.87 176.45,-25.62"/>
</g>
<!-- Node4 -->
<g id="node4" class="node">
<title>Node4</title>
<g id="a_node4"><a xlink:href="class_sharing_manager.html#a039a42cca85530f5e71e396bda0bc95b" target="_top" xlink:title="Crea un enlace dinámico a una sala">
<polygon fill="white" stroke="black" points="353,-133.5 353,-152.5 553,-152.5 553,-133.5 353,-133.5"/>
<text text-anchor="middle" x="453" y="-140.5" font-family="Helvetica,sans-Serif" font-size="10.00">SharingManager.CreateDynamicRoomLink</text>
</a>
</g>
</g>
<!-- Node3&#45;&gt;Node4 -->
<g id="edge3" class="edge">
<title>Node3&#45;&gt;Node4</title>
<path fill="none" stroke="midnightblue" d="M307.14,-130.17C318.51,-131.18 330.53,-132.24 342.59,-133.31"/>
<polygon fill="midnightblue" stroke="midnightblue" points="342.44,-136.81 352.71,-134.21 343.06,-129.84 342.44,-136.81"/>
</g>
<!-- Node5 -->
<g id="node5" class="node">
<title>Node5</title>
<g id="a_node5"><a xlink:href="class_sharing_manager.html#a1297b7c8e2a23a2f1b179717015405a7" target="_top" xlink:title="Crea el mensaje a compartir">
<polygon fill="white" stroke="black" points="375.5,-95.5 375.5,-114.5 530.5,-114.5 530.5,-95.5 375.5,-95.5"/>
<text text-anchor="middle" x="453" y="-102.5" font-family="Helvetica,sans-Serif" font-size="10.00">SharingManager.ShareMessage</text>
</a>
</g>
</g>
<!-- Node3&#45;&gt;Node5 -->
<g id="edge4" class="edge">
<title>Node3&#45;&gt;Node5</title>
<path fill="none" stroke="midnightblue" d="M307.14,-117.83C325.68,-116.19 345.94,-114.39 365.28,-112.68"/>
<polygon fill="midnightblue" stroke="midnightblue" points="365.64,-116.16 375.29,-111.79 365.02,-109.19 365.64,-116.16"/>
</g>
<!-- Node9 -->
<g id="node9" class="node">
<title>Node9</title>
<g id="a_node9"><a xlink:href="class_video_manager.html#aebd4ede14b753cd764ea946c9d335949" target="_top" xlink:title="Establece la visibilidad del video">
<polygon fill="white" stroke="black" points="387.5,-0.5 387.5,-19.5 518.5,-19.5 518.5,-0.5 387.5,-0.5"/>
<text text-anchor="middle" x="453" y="-7.5" font-family="Helvetica,sans-Serif" font-size="10.00">VideoManager.ShowVideo</text>
</a>
</g>
</g>
<!-- Node8&#45;&gt;Node9 -->
<g id="edge8" class="edge">
<title>Node8&#45;&gt;Node9</title>
<path fill="none" stroke="midnightblue" d="M304.19,-10C327.33,-10 353.42,-10 377.17,-10"/>
<polygon fill="midnightblue" stroke="midnightblue" points="377.19,-13.5 387.19,-10 377.19,-6.5 377.19,-13.5"/>
</g>
</g>
</svg>
