<?xml version="1.0" encoding="UTF-8" standalone="no"?>
<!DOCTYPE svg PUBLIC "-//W3C//DTD SVG 1.1//EN"
 "http://www.w3.org/Graphics/SVG/1.1/DTD/svg11.dtd">
<!-- Generated by graphviz version 2.49.0 (20210828.1703)
 -->
<!-- Title: ARToolManager.PlaceGuide Pages: 1 -->
<svg width="277pt" height="104pt"
 viewBox="0.00 0.00 277.00 104.00" xmlns="http://www.w3.org/2000/svg" xmlns:xlink="http://www.w3.org/1999/xlink">
<g id="graph0" class="graph" transform="scale(1 1) rotate(0) translate(4 100)">
<title>ARToolManager.PlaceGuide</title>
<polygon fill="white" stroke="transparent" points="-4,4 -4,-100 273,-100 273,4 -4,4"/>
<!-- Node1 -->
<g id="node1" class="node">
<title>Node1</title>
<g id="a_node1"><a xlink:title="Coloca una guía en un trazo o marcador del par selecionado">
<polygon fill="#bfbfbf" stroke="black" points="130,-38.5 130,-57.5 269,-57.5 269,-38.5 130,-38.5"/>
<text text-anchor="middle" x="199.5" y="-45.5" font-family="Helvetica,sans-Serif" font-size="10.00">ARToolManager.PlaceGuide</text>
</a>
</g>
</g>
<!-- Node2 -->
<g id="node2" class="node">
<title>Node2</title>
<g id="a_node2"><a xlink:href="class_a_r_brush.html#a392f602774d613460f213cd58b4a26e9" target="_top" xlink:title="Llamada al comienzo de cada fotograma">
<polygon fill="white" stroke="black" points="2.5,-76.5 2.5,-95.5 91.5,-95.5 91.5,-76.5 2.5,-76.5"/>
<text text-anchor="middle" x="47" y="-83.5" font-family="Helvetica,sans-Serif" font-size="10.00">ARBrush.Update</text>
</a>
</g>
</g>
<!-- Node1&#45;&gt;Node2 -->
<g id="edge1" class="edge">
<title>Node1&#45;&gt;Node2</title>
<path fill="none" stroke="midnightblue" d="M150.82,-60.04C129.79,-65.35 105.43,-71.5 85.7,-76.48"/>
<polygon fill="midnightblue" stroke="midnightblue" points="151.68,-63.43 160.52,-57.59 149.97,-56.64 151.68,-63.43"/>
</g>
<!-- Node3 -->
<g id="node3" class="node">
<title>Node3</title>
<g id="a_node3"><a xlink:href="class_a_r_marker.html#a37bcfc2d540eed2ffd496d758dd9ad6d" target="_top" xlink:title="Llamada al comienzo de cada fotograma">
<polygon fill="white" stroke="black" points="0,-38.5 0,-57.5 94,-57.5 94,-38.5 0,-38.5"/>
<text text-anchor="middle" x="47" y="-45.5" font-family="Helvetica,sans-Serif" font-size="10.00">ARMarker.Update</text>
</a>
</g>
</g>
<!-- Node1&#45;&gt;Node3 -->
<g id="edge2" class="edge">
<title>Node1&#45;&gt;Node3</title>
<path fill="none" stroke="midnightblue" d="M119.63,-48C110.91,-48 102.26,-48 94.15,-48"/>
<polygon fill="midnightblue" stroke="midnightblue" points="119.86,-51.5 129.86,-48 119.86,-44.5 119.86,-51.5"/>
</g>
<!-- Node4 -->
<g id="node4" class="node">
<title>Node4</title>
<g id="a_node4"><a xlink:href="class_a_r_text.html#ab65632ec31750b406ebb205454ad492a" target="_top" xlink:title="Llamada al comienzo de cada fotograma">
<polygon fill="white" stroke="black" points="5.5,-0.5 5.5,-19.5 88.5,-19.5 88.5,-0.5 5.5,-0.5"/>
<text text-anchor="middle" x="47" y="-7.5" font-family="Helvetica,sans-Serif" font-size="10.00">ARText.Update</text>
</a>
</g>
</g>
<!-- Node1&#45;&gt;Node4 -->
<g id="edge3" class="edge">
<title>Node1&#45;&gt;Node4</title>
<path fill="none" stroke="midnightblue" d="M150.82,-35.96C129.79,-30.65 105.43,-24.5 85.7,-19.52"/>
<polygon fill="midnightblue" stroke="midnightblue" points="149.97,-39.36 160.52,-38.41 151.68,-32.57 149.97,-39.36"/>
</g>
</g>
</svg>
