<?xml version="1.0" encoding="UTF-8" standalone="no"?>
<!DOCTYPE svg PUBLIC "-//W3C//DTD SVG 1.1//EN"
 "http://www.w3.org/Graphics/SVG/1.1/DTD/svg11.dtd">
<!-- Generated by graphviz version 2.49.0 (20210828.1703)
 -->
<!-- Title: Representación gráfica de la clase Pages: 1 -->
<svg width="258pt" height="1092pt"
 viewBox="0.00 0.00 258.00 1092.00" xmlns="http://www.w3.org/2000/svg" xmlns:xlink="http://www.w3.org/1999/xlink">
<g id="graph0" class="graph" transform="scale(1 1) rotate(0) translate(4 1088)">
<title>Representación gráfica de la clase</title>
<polygon fill="white" stroke="transparent" points="-4,4 -4,-1088 254,-1088 254,4 -4,4"/>
<!-- Node7 -->
<g id="node1" class="node">
<title>Node7</title>
<g id="a_node1"><a xlink:title=" ">
<polygon fill="white" stroke="#bfbfbf" points="0,-532.5 0,-551.5 83,-551.5 83,-532.5 0,-532.5"/>
<text text-anchor="middle" x="41.5" y="-539.5" font-family="Helvetica,sans-Serif" font-size="10.00">MonoBehaviour</text>
</a>
</g>
</g>
<!-- Node0 -->
<g id="node2" class="node">
<title>Node0</title>
<g id="a_node2"><a xlink:href="class_a_r_brush.html" target="_top" xlink:title="Modela el comportamiento de la herramienta ARBrush">
<polygon fill="white" stroke="black" points="156.5,-1064.5 156.5,-1083.5 212.5,-1083.5 212.5,-1064.5 156.5,-1064.5"/>
<text text-anchor="middle" x="184.5" y="-1071.5" font-family="Helvetica,sans-Serif" font-size="10.00">ARBrush</text>
</a>
</g>
</g>
<!-- Node7&#45;&gt;Node0 -->
<g id="edge1" class="edge">
<title>Node7&#45;&gt;Node0</title>
<path fill="none" stroke="midnightblue" d="M42.7,-561.87C43.98,-646.92 53.16,-979.35 119,-1055 128.27,-1065.65 143.19,-1070.48 156.34,-1072.61"/>
<polygon fill="midnightblue" stroke="midnightblue" points="46.2,-561.72 42.57,-551.76 39.2,-561.81 46.2,-561.72"/>
</g>
<!-- Node9 -->
<g id="node3" class="node">
<title>Node9</title>
<g id="a_node3"><a xlink:href="class_a_r_guide.html" target="_top" xlink:title="Modela el comportamiento de la herramienta ARGuide">
<polygon fill="white" stroke="black" points="156.5,-1026.5 156.5,-1045.5 212.5,-1045.5 212.5,-1026.5 156.5,-1026.5"/>
<text text-anchor="middle" x="184.5" y="-1033.5" font-family="Helvetica,sans-Serif" font-size="10.00">ARGuide</text>
</a>
</g>
</g>
<!-- Node7&#45;&gt;Node9 -->
<g id="edge2" class="edge">
<title>Node7&#45;&gt;Node9</title>
<path fill="none" stroke="midnightblue" d="M42.97,-562.19C45.29,-643.72 57.97,-947.69 119,-1017 128.34,-1027.6 143.26,-1032.43 156.4,-1034.57"/>
<polygon fill="midnightblue" stroke="midnightblue" points="46.46,-561.73 42.7,-551.82 39.47,-561.91 46.46,-561.73"/>
</g>
<!-- Node10 -->
<g id="node4" class="node">
<title>Node10</title>
<g id="a_node4"><a xlink:href="class_a_r_marker.html" target="_top" xlink:title="Modela el comportamiento de la herramienta ARMarker">
<polygon fill="white" stroke="black" points="154.5,-988.5 154.5,-1007.5 214.5,-1007.5 214.5,-988.5 154.5,-988.5"/>
<text text-anchor="middle" x="184.5" y="-995.5" font-family="Helvetica,sans-Serif" font-size="10.00">ARMarker</text>
</a>
</g>
</g>
<!-- Node7&#45;&gt;Node10 -->
<g id="edge3" class="edge">
<title>Node7&#45;&gt;Node10</title>
<path fill="none" stroke="midnightblue" d="M43.28,-562.04C46.67,-639.19 62.65,-915.88 119,-979 127.94,-989.01 141.86,-993.87 154.49,-996.17"/>
<polygon fill="midnightblue" stroke="midnightblue" points="46.76,-561.64 42.85,-551.79 39.77,-561.93 46.76,-561.64"/>
</g>
<!-- Node11 -->
<g id="node5" class="node">
<title>Node11</title>
<g id="a_node5"><a xlink:href="class_a_r_pointer.html" target="_top" xlink:title="Modela el comportamiento de la herramienta ARPointer">
<polygon fill="white" stroke="black" points="154,-950.5 154,-969.5 215,-969.5 215,-950.5 154,-950.5"/>
<text text-anchor="middle" x="184.5" y="-957.5" font-family="Helvetica,sans-Serif" font-size="10.00">ARPointer</text>
</a>
</g>
</g>
<!-- Node7&#45;&gt;Node11 -->
<g id="edge4" class="edge">
<title>Node7&#45;&gt;Node11</title>
<path fill="none" stroke="midnightblue" d="M43.62,-561.68C48.13,-634.03 67.26,-883.98 119,-941 127.86,-950.77 141.47,-955.62 153.9,-957.98"/>
<polygon fill="midnightblue" stroke="midnightblue" points="47.11,-561.42 43.02,-551.65 40.13,-561.84 47.11,-561.42"/>
</g>
<!-- Node12 -->
<g id="node6" class="node">
<title>Node12</title>
<g id="a_node6"><a xlink:href="class_a_r_text.html" target="_top" xlink:title="Modela el comportamiento de la herramienta ARText">
<polygon fill="white" stroke="black" points="160,-912.5 160,-931.5 209,-931.5 209,-912.5 160,-912.5"/>
<text text-anchor="middle" x="184.5" y="-919.5" font-family="Helvetica,sans-Serif" font-size="10.00">ARText</text>
</a>
</g>
</g>
<!-- Node7&#45;&gt;Node12 -->
<g id="edge5" class="edge">
<title>Node7&#45;&gt;Node12</title>
<path fill="none" stroke="midnightblue" d="M44.08,-561.96C49.85,-630.12 72.01,-852.21 119,-903 129.39,-914.22 146.03,-918.94 159.81,-920.86"/>
<polygon fill="midnightblue" stroke="midnightblue" points="47.54,-561.42 43.24,-551.74 40.57,-562 47.54,-561.42"/>
</g>
<!-- Node13 -->
<g id="node7" class="node">
<title>Node13</title>
<g id="a_node7"><a xlink:href="class_a_r_tool_manager.html" target="_top" xlink:title="Maneja la lógica de las herramientas de RA">
<polygon fill="white" stroke="black" points="141.5,-874.5 141.5,-893.5 227.5,-893.5 227.5,-874.5 141.5,-874.5"/>
<text text-anchor="middle" x="184.5" y="-881.5" font-family="Helvetica,sans-Serif" font-size="10.00">ARToolManager</text>
</a>
</g>
</g>
<!-- Node7&#45;&gt;Node13 -->
<g id="edge6" class="edge">
<title>Node7&#45;&gt;Node13</title>
<path fill="none" stroke="midnightblue" d="M44.61,-561.88C51.7,-625.15 76.65,-820.3 119,-865 125.02,-871.36 133.05,-875.62 141.4,-878.47"/>
<polygon fill="midnightblue" stroke="midnightblue" points="48.06,-561.23 43.49,-551.67 41.1,-561.99 48.06,-561.23"/>
</g>
<!-- Node14 -->
<g id="node8" class="node">
<title>Node14</title>
<g id="a_node8"><a xlink:href="class_android_utils.html" target="_top" xlink:title="Clase de utilidades para android">
<polygon fill="white" stroke="black" points="150,-836.5 150,-855.5 219,-855.5 219,-836.5 150,-836.5"/>
<text text-anchor="middle" x="184.5" y="-843.5" font-family="Helvetica,sans-Serif" font-size="10.00">AndroidUtils</text>
</a>
</g>
</g>
<!-- Node7&#45;&gt;Node14 -->
<g id="edge7" class="edge">
<title>Node7&#45;&gt;Node14</title>
<path fill="none" stroke="midnightblue" d="M41.68,-561.78C40.67,-613.05 45.31,-751.5 119,-827 127.15,-835.35 138.78,-840.08 149.92,-842.74"/>
<polygon fill="midnightblue" stroke="midnightblue" points="45.18,-561.81 41.98,-551.71 38.18,-561.6 45.18,-561.81"/>
</g>
<!-- Node15 -->
<g id="node9" class="node">
<title>Node15</title>
<g id="a_node9"><a xlink:href="class_app_entry_point.html" target="_top" xlink:title="Punto de entra de la aplicación">
<polygon fill="white" stroke="black" points="144.5,-798.5 144.5,-817.5 224.5,-817.5 224.5,-798.5 144.5,-798.5"/>
<text text-anchor="middle" x="184.5" y="-805.5" font-family="Helvetica,sans-Serif" font-size="10.00">AppEntryPoint</text>
</a>
</g>
</g>
<!-- Node7&#45;&gt;Node15 -->
<g id="edge8" class="edge">
<title>Node7&#45;&gt;Node15</title>
<path fill="none" stroke="midnightblue" d="M42.66,-561.91C44.14,-608.48 54.47,-725.36 119,-789 125.9,-795.8 135.1,-800.19 144.4,-803.02"/>
<polygon fill="midnightblue" stroke="midnightblue" points="46.15,-561.59 42.45,-551.66 39.16,-561.73 46.15,-561.59"/>
</g>
<!-- Node16 -->
<g id="node10" class="node">
<title>Node16</title>
<g id="a_node10"><a xlink:href="class_audio_manager.html" target="_top" xlink:title="Maneja la lógica de la captura y reproducción de audio">
<polygon fill="white" stroke="black" points="145,-760.5 145,-779.5 224,-779.5 224,-760.5 145,-760.5"/>
<text text-anchor="middle" x="184.5" y="-767.5" font-family="Helvetica,sans-Serif" font-size="10.00">AudioManager</text>
</a>
</g>
</g>
<!-- Node7&#45;&gt;Node16 -->
<g id="edge9" class="edge">
<title>Node7&#45;&gt;Node16</title>
<path fill="none" stroke="midnightblue" d="M43.94,-561.62C48.03,-602.81 63.35,-698.82 119,-751 126.15,-757.71 135.56,-762.06 144.96,-764.88"/>
<polygon fill="midnightblue" stroke="midnightblue" points="47.42,-561.19 43.06,-551.53 40.44,-561.8 47.42,-561.19"/>
</g>
<!-- Node17 -->
<g id="node11" class="node">
<title>Node17</title>
<g id="a_node11"><a xlink:href="class_audio_visualizer_controller.html" target="_top" xlink:title="Controla el visualizador de audio">
<polygon fill="white" stroke="black" points="122,-722.5 122,-741.5 247,-741.5 247,-722.5 122,-722.5"/>
<text text-anchor="middle" x="184.5" y="-729.5" font-family="Helvetica,sans-Serif" font-size="10.00">AudioVisualizerController</text>
</a>
</g>
</g>
<!-- Node7&#45;&gt;Node17 -->
<g id="edge10" class="edge">
<title>Node7&#45;&gt;Node17</title>
<path fill="none" stroke="midnightblue" d="M45.81,-561.91C52.79,-597.53 72.38,-672.25 119,-713 123.48,-716.92 128.74,-720.03 134.28,-722.5"/>
<polygon fill="midnightblue" stroke="midnightblue" points="49.21,-561.02 43.97,-551.81 42.32,-562.27 49.21,-561.02"/>
</g>
<!-- Node18 -->
<g id="node12" class="node">
<title>Node18</title>
<g id="a_node12"><a xlink:href="class_back_button_controller.html" target="_top" xlink:title="Controla la pulsación del botón de retroceso">
<polygon fill="white" stroke="black" points="130,-684.5 130,-703.5 239,-703.5 239,-684.5 130,-684.5"/>
<text text-anchor="middle" x="184.5" y="-691.5" font-family="Helvetica,sans-Serif" font-size="10.00">BackButtonController</text>
</a>
</g>
</g>
<!-- Node7&#45;&gt;Node18 -->
<g id="edge11" class="edge">
<title>Node7&#45;&gt;Node18</title>
<path fill="none" stroke="midnightblue" d="M48.47,-561.5C58.38,-590.56 80.98,-645.02 119,-675 123.95,-678.9 129.68,-682 135.65,-684.47"/>
<polygon fill="midnightblue" stroke="midnightblue" points="51.71,-560.14 45.29,-551.71 45.05,-562.3 51.71,-560.14"/>
</g>
<!-- Node19 -->
<g id="node13" class="node">
<title>Node19</title>
<g id="a_node13"><a xlink:href="class_client_manager.html" target="_top" xlink:title="Maneja la lógica las acciones del cliente">
<polygon fill="white" stroke="black" points="145,-646.5 145,-665.5 224,-665.5 224,-646.5 145,-646.5"/>
<text text-anchor="middle" x="184.5" y="-653.5" font-family="Helvetica,sans-Serif" font-size="10.00">ClientManager</text>
</a>
</g>
</g>
<!-- Node7&#45;&gt;Node19 -->
<g id="edge12" class="edge">
<title>Node7&#45;&gt;Node19</title>
<path fill="none" stroke="midnightblue" d="M52.67,-560.52C65.42,-582.03 89.24,-617.09 119,-637 126.76,-642.19 135.97,-646 144.97,-648.77"/>
<polygon fill="midnightblue" stroke="midnightblue" points="55.62,-558.64 47.61,-551.7 49.55,-562.12 55.62,-558.64"/>
</g>
<!-- Node20 -->
<g id="node14" class="node">
<title>Node20</title>
<g id="a_node14"><a xlink:href="class_contacts_controller.html" target="_top" xlink:title="Controla la lista de contactos en la interfaz de Crear Videollamada">
<polygon fill="white" stroke="black" points="136,-608.5 136,-627.5 233,-627.5 233,-608.5 136,-608.5"/>
<text text-anchor="middle" x="184.5" y="-615.5" font-family="Helvetica,sans-Serif" font-size="10.00">ContactsController</text>
</a>
</g>
</g>
<!-- Node7&#45;&gt;Node20 -->
<g id="edge13" class="edge">
<title>Node7&#45;&gt;Node20</title>
<path fill="none" stroke="midnightblue" d="M60.92,-558.68C75.69,-571.3 97.45,-588.23 119,-599 126.52,-602.76 134.91,-605.9 143.09,-608.49"/>
<polygon fill="midnightblue" stroke="midnightblue" points="62.92,-555.78 53.08,-551.83 58.31,-561.05 62.92,-555.78"/>
</g>
<!-- Node21 -->
<g id="node15" class="node">
<title>Node21</title>
<g id="a_node15"><a xlink:href="class_dynamic_links_init.html" target="_top" xlink:title="Inicializa los links dinámicos">
<polygon fill="white" stroke="black" points="139,-570.5 139,-589.5 230,-589.5 230,-570.5 139,-570.5"/>
<text text-anchor="middle" x="184.5" y="-577.5" font-family="Helvetica,sans-Serif" font-size="10.00">DynamicLinksInit</text>
</a>
</g>
</g>
<!-- Node7&#45;&gt;Node21 -->
<g id="edge14" class="edge">
<title>Node7&#45;&gt;Node21</title>
<path fill="none" stroke="midnightblue" d="M87.94,-554.25C107.37,-559.48 129.73,-565.51 147.93,-570.41"/>
<polygon fill="midnightblue" stroke="midnightblue" points="88.65,-550.81 78.08,-551.59 86.82,-557.57 88.65,-550.81"/>
</g>
<!-- Node22 -->
<g id="node16" class="node">
<title>Node22</title>
<g id="a_node16"><a xlink:href="class_firebase_init.html" target="_top" xlink:title="Inicializa Firebase">
<polygon fill="white" stroke="black" points="151,-532.5 151,-551.5 218,-551.5 218,-532.5 151,-532.5"/>
<text text-anchor="middle" x="184.5" y="-539.5" font-family="Helvetica,sans-Serif" font-size="10.00">FirebaseInit</text>
</a>
</g>
</g>
<!-- Node7&#45;&gt;Node22 -->
<g id="edge15" class="edge">
<title>Node7&#45;&gt;Node22</title>
<path fill="none" stroke="midnightblue" d="M93.37,-542C112.53,-542 133.79,-542 150.85,-542"/>
<polygon fill="midnightblue" stroke="midnightblue" points="93.28,-538.5 83.28,-542 93.28,-545.5 93.28,-538.5"/>
</g>
<!-- Node23 -->
<g id="node17" class="node">
<title>Node23</title>
<g id="a_node17"><a xlink:href="class_look_at_camera.html" target="_top" xlink:title=" ">
<polygon fill="white" stroke="black" points="144,-494.5 144,-513.5 225,-513.5 225,-494.5 144,-494.5"/>
<text text-anchor="middle" x="184.5" y="-501.5" font-family="Helvetica,sans-Serif" font-size="10.00">LookAtCamera</text>
</a>
</g>
</g>
<!-- Node7&#45;&gt;Node23 -->
<g id="edge16" class="edge">
<title>Node7&#45;&gt;Node23</title>
<path fill="none" stroke="midnightblue" d="M87.94,-529.75C107.37,-524.52 129.73,-518.49 147.93,-513.59"/>
<polygon fill="midnightblue" stroke="midnightblue" points="86.82,-526.43 78.08,-532.41 88.65,-533.19 86.82,-526.43"/>
</g>
<!-- Node24 -->
<g id="node18" class="node">
<title>Node24</title>
<g id="a_node18"><a xlink:href="class_main_u_i_controller.html" target="_top" xlink:title="Controla la interfaz principal de la aplicación">
<polygon fill="white" stroke="black" points="140.5,-456.5 140.5,-475.5 228.5,-475.5 228.5,-456.5 140.5,-456.5"/>
<text text-anchor="middle" x="184.5" y="-463.5" font-family="Helvetica,sans-Serif" font-size="10.00">MainUIController</text>
</a>
</g>
</g>
<!-- Node7&#45;&gt;Node24 -->
<g id="edge17" class="edge">
<title>Node7&#45;&gt;Node24</title>
<path fill="none" stroke="midnightblue" d="M60.92,-525.32C75.69,-512.7 97.45,-495.77 119,-485 126.52,-481.24 134.91,-478.1 143.09,-475.51"/>
<polygon fill="midnightblue" stroke="midnightblue" points="58.31,-522.95 53.08,-532.17 62.92,-528.22 58.31,-522.95"/>
</g>
<!-- Node25 -->
<g id="node19" class="node">
<title>Node25</title>
<g id="a_node19"><a xlink:href="class_microphone_listener.html" target="_top" xlink:title=" ">
<polygon fill="white" stroke="black" points="134,-418.5 134,-437.5 235,-437.5 235,-418.5 134,-418.5"/>
<text text-anchor="middle" x="184.5" y="-425.5" font-family="Helvetica,sans-Serif" font-size="10.00">MicrophoneListener</text>
</a>
</g>
</g>
<!-- Node7&#45;&gt;Node25 -->
<g id="edge18" class="edge">
<title>Node7&#45;&gt;Node25</title>
<path fill="none" stroke="midnightblue" d="M52.67,-523.48C65.42,-501.97 89.24,-466.91 119,-447 124.82,-443.11 131.46,-439.99 138.21,-437.51"/>
<polygon fill="midnightblue" stroke="midnightblue" points="49.55,-521.88 47.61,-532.3 55.62,-525.36 49.55,-521.88"/>
</g>
<!-- Node26 -->
<g id="node20" class="node">
<title>Node26</title>
<g id="a_node20"><a xlink:href="class_my_input_manager.html" target="_top" xlink:title=" ">
<polygon fill="white" stroke="black" points="140,-380.5 140,-399.5 229,-399.5 229,-380.5 140,-380.5"/>
<text text-anchor="middle" x="184.5" y="-387.5" font-family="Helvetica,sans-Serif" font-size="10.00">MyInputManager</text>
</a>
</g>
</g>
<!-- Node7&#45;&gt;Node26 -->
<g id="edge19" class="edge">
<title>Node7&#45;&gt;Node26</title>
<path fill="none" stroke="midnightblue" d="M48.47,-522.5C58.38,-493.44 80.98,-438.98 119,-409 125.14,-404.16 132.49,-400.55 139.98,-397.86"/>
<polygon fill="midnightblue" stroke="midnightblue" points="45.05,-521.7 45.29,-532.29 51.71,-523.86 45.05,-521.7"/>
</g>
<!-- Node27 -->
<g id="node21" class="node">
<title>Node27</title>
<g id="a_node21"><a xlink:href="class_one_signal_init.html" target="_top" xlink:title="Inicializa OneSignal">
<polygon fill="white" stroke="black" points="147.5,-342.5 147.5,-361.5 221.5,-361.5 221.5,-342.5 147.5,-342.5"/>
<text text-anchor="middle" x="184.5" y="-349.5" font-family="Helvetica,sans-Serif" font-size="10.00">OneSignalInit</text>
</a>
</g>
</g>
<!-- Node7&#45;&gt;Node27 -->
<g id="edge20" class="edge">
<title>Node7&#45;&gt;Node27</title>
<path fill="none" stroke="midnightblue" d="M45.81,-522.09C52.79,-486.47 72.38,-411.75 119,-371 126.91,-364.09 137.23,-359.68 147.29,-356.88"/>
<polygon fill="midnightblue" stroke="midnightblue" points="42.32,-521.73 43.97,-532.19 49.21,-522.98 42.32,-521.73"/>
</g>
<!-- Node28 -->
<g id="node22" class="node">
<title>Node28</title>
<g id="a_node22"><a xlink:href="class_peer_connection_manager.html" target="_top" xlink:title="Maneja la lógica de una conexión entre dos pares">
<polygon fill="white" stroke="black" points="123,-304.5 123,-323.5 246,-323.5 246,-304.5 123,-304.5"/>
<text text-anchor="middle" x="184.5" y="-311.5" font-family="Helvetica,sans-Serif" font-size="10.00">PeerConnectionManager</text>
</a>
</g>
</g>
<!-- Node7&#45;&gt;Node28 -->
<g id="edge21" class="edge">
<title>Node7&#45;&gt;Node28</title>
<path fill="none" stroke="midnightblue" d="M43.94,-522.38C48.03,-481.19 63.35,-385.18 119,-333 123.17,-329.09 128.11,-325.98 133.37,-323.5"/>
<polygon fill="midnightblue" stroke="midnightblue" points="40.44,-522.2 43.06,-532.47 47.42,-522.81 40.44,-522.2"/>
</g>
<!-- Node29 -->
<g id="node23" class="node">
<title>Node29</title>
<g id="a_node23"><a xlink:href="class_recorder_manager.html" target="_top" xlink:title="Maneja la lógica de la grabación de tutoriales">
<polygon fill="white" stroke="black" points="138,-266.5 138,-285.5 231,-285.5 231,-266.5 138,-266.5"/>
<text text-anchor="middle" x="184.5" y="-273.5" font-family="Helvetica,sans-Serif" font-size="10.00">RecorderManager</text>
</a>
</g>
</g>
<!-- Node7&#45;&gt;Node29 -->
<g id="edge22" class="edge">
<title>Node7&#45;&gt;Node29</title>
<path fill="none" stroke="midnightblue" d="M42.66,-522.09C44.14,-475.52 54.47,-358.64 119,-295 124.24,-289.84 130.8,-286.06 137.72,-283.31"/>
<polygon fill="midnightblue" stroke="midnightblue" points="39.16,-522.27 42.45,-532.34 46.15,-522.41 39.16,-522.27"/>
</g>
<!-- Node30 -->
<g id="node24" class="node">
<title>Node30</title>
<g id="a_node24"><a xlink:href="class_register_name_u_i_controller.html" target="_top" xlink:title="Controla la interfaz de la escena RegisterName">
<polygon fill="white" stroke="black" points="120.5,-228.5 120.5,-247.5 248.5,-247.5 248.5,-228.5 120.5,-228.5"/>
<text text-anchor="middle" x="184.5" y="-235.5" font-family="Helvetica,sans-Serif" font-size="10.00">RegisterNameUIController</text>
</a>
</g>
</g>
<!-- Node7&#45;&gt;Node30 -->
<g id="edge23" class="edge">
<title>Node7&#45;&gt;Node30</title>
<path fill="none" stroke="midnightblue" d="M41.68,-522.22C40.67,-470.95 45.31,-332.5 119,-257 122.75,-253.16 127.24,-250.08 132.07,-247.62"/>
<polygon fill="midnightblue" stroke="midnightblue" points="38.18,-522.4 41.98,-532.29 45.18,-522.19 38.18,-522.4"/>
</g>
<!-- Node31 -->
<g id="node25" class="node">
<title>Node31</title>
<g id="a_node25"><a xlink:href="class_register_phone_u_i_controller.html" target="_top" xlink:title="Controla la interfaz de registro">
<polygon fill="white" stroke="black" points="119,-190.5 119,-209.5 250,-209.5 250,-190.5 119,-190.5"/>
<text text-anchor="middle" x="184.5" y="-197.5" font-family="Helvetica,sans-Serif" font-size="10.00">RegisterPhoneUIController</text>
</a>
</g>
</g>
<!-- Node7&#45;&gt;Node31 -->
<g id="edge24" class="edge">
<title>Node7&#45;&gt;Node31</title>
<path fill="none" stroke="midnightblue" d="M44.61,-522.12C51.7,-458.85 76.65,-263.7 119,-219 122.69,-215.1 127.14,-211.99 131.96,-209.51"/>
<polygon fill="midnightblue" stroke="midnightblue" points="41.1,-522.01 43.49,-532.33 48.06,-522.77 41.1,-522.01"/>
</g>
<!-- Node32 -->
<g id="node26" class="node">
<title>Node32</title>
<g id="a_node26"><a xlink:href="class_rooms_controller.html" target="_top" xlink:title="Controla la interfaz de la creación y unión a videollamadas">
<polygon fill="white" stroke="black" points="140,-152.5 140,-171.5 229,-171.5 229,-152.5 140,-152.5"/>
<text text-anchor="middle" x="184.5" y="-159.5" font-family="Helvetica,sans-Serif" font-size="10.00">RoomsController</text>
</a>
</g>
</g>
<!-- Node7&#45;&gt;Node32 -->
<g id="edge25" class="edge">
<title>Node7&#45;&gt;Node32</title>
<path fill="none" stroke="midnightblue" d="M44.08,-522.04C49.85,-453.88 72.01,-231.79 119,-181 124.63,-174.92 132.1,-170.75 139.95,-167.89"/>
<polygon fill="midnightblue" stroke="midnightblue" points="40.57,-522 43.24,-532.26 47.54,-522.58 40.57,-522"/>
</g>
<!-- Node33 -->
<g id="node27" class="node">
<title>Node33</title>
<g id="a_node27"><a xlink:href="class_toolbar_u_i_controller.html" target="_top" xlink:title="Controla la interfaz de la barra de heramientas en una videollamada o grabación">
<polygon fill="white" stroke="black" points="135.5,-114.5 135.5,-133.5 233.5,-133.5 233.5,-114.5 135.5,-114.5"/>
<text text-anchor="middle" x="184.5" y="-121.5" font-family="Helvetica,sans-Serif" font-size="10.00">ToolbarUIController</text>
</a>
</g>
</g>
<!-- Node7&#45;&gt;Node33 -->
<g id="edge26" class="edge">
<title>Node7&#45;&gt;Node33</title>
<path fill="none" stroke="midnightblue" d="M43.62,-522.32C48.13,-449.97 67.26,-200.02 119,-143 123.47,-138.07 129.15,-134.4 135.27,-131.66"/>
<polygon fill="midnightblue" stroke="midnightblue" points="40.13,-522.16 43.02,-532.35 47.11,-522.58 40.13,-522.16"/>
</g>
<!-- Node34 -->
<g id="node28" class="node">
<title>Node34</title>
<g id="a_node28"><a xlink:href="class_topbar_u_i_controller.html" target="_top" xlink:title="Controla la interfaz de la barra de opciones superior en una videollamada">
<polygon fill="white" stroke="black" points="136.5,-76.5 136.5,-95.5 232.5,-95.5 232.5,-76.5 136.5,-76.5"/>
<text text-anchor="middle" x="184.5" y="-83.5" font-family="Helvetica,sans-Serif" font-size="10.00">TopbarUIController</text>
</a>
</g>
</g>
<!-- Node7&#45;&gt;Node34 -->
<g id="edge27" class="edge">
<title>Node7&#45;&gt;Node34</title>
<path fill="none" stroke="midnightblue" d="M43.28,-521.96C46.67,-444.81 62.65,-168.12 119,-105 123.74,-99.69 129.89,-95.83 136.5,-93.03"/>
<polygon fill="midnightblue" stroke="midnightblue" points="39.77,-522.07 42.85,-532.21 46.76,-522.36 39.77,-522.07"/>
</g>
<!-- Node35 -->
<g id="node29" class="node">
<title>Node35</title>
<g id="a_node29"><a xlink:href="class_video_manager.html" target="_top" xlink:title="Maneja la lógica de la grabación y visualización de video">
<polygon fill="white" stroke="black" points="145,-38.5 145,-57.5 224,-57.5 224,-38.5 145,-38.5"/>
<text text-anchor="middle" x="184.5" y="-45.5" font-family="Helvetica,sans-Serif" font-size="10.00">VideoManager</text>
</a>
</g>
</g>
<!-- Node7&#45;&gt;Node35 -->
<g id="edge28" class="edge">
<title>Node7&#45;&gt;Node35</title>
<path fill="none" stroke="midnightblue" d="M42.97,-521.81C45.29,-440.28 57.97,-136.31 119,-67 125.63,-59.47 135.09,-54.85 144.72,-52.04"/>
<polygon fill="midnightblue" stroke="midnightblue" points="39.47,-522.09 42.7,-532.18 46.46,-522.27 39.47,-522.09"/>
</g>
<!-- Node36 -->
<g id="node30" class="node">
<title>Node36</title>
<g id="a_node30"><a xlink:href="class_window_res.html" target="_top" xlink:title="Redimendiona la ventana de la aplicación de escritorio para que mantenga la relación de aspecto">
<polygon fill="white" stroke="black" points="150.5,-0.5 150.5,-19.5 218.5,-19.5 218.5,-0.5 150.5,-0.5"/>
<text text-anchor="middle" x="184.5" y="-7.5" font-family="Helvetica,sans-Serif" font-size="10.00">WindowRes</text>
</a>
</g>
</g>
<!-- Node7&#45;&gt;Node36 -->
<g id="edge29" class="edge">
<title>Node7&#45;&gt;Node36</title>
<path fill="none" stroke="midnightblue" d="M42.7,-522.13C43.98,-437.08 53.16,-104.65 119,-29 126.89,-19.93 138.88,-15.08 150.38,-12.53"/>
<polygon fill="midnightblue" stroke="midnightblue" points="39.2,-522.19 42.57,-532.24 46.2,-522.28 39.2,-522.19"/>
</g>
</g>
</svg>
