<?xml version="1.0" encoding="UTF-8" standalone="no"?>
<!DOCTYPE svg PUBLIC "-//W3C//DTD SVG 1.1//EN"
 "http://www.w3.org/Graphics/SVG/1.1/DTD/svg11.dtd">
<!-- Generated by graphviz version 2.49.0 (20210828.1703)
 -->
<!-- Title: Representación gráfica de la clase Pages: 1 -->
<svg width="258pt" height="1016pt"
 viewBox="0.00 0.00 258.00 1016.00" xmlns="http://www.w3.org/2000/svg" xmlns:xlink="http://www.w3.org/1999/xlink">
<g id="graph0" class="graph" transform="scale(1 1) rotate(0) translate(4 1012)">
<title>Representación gráfica de la clase</title>
<polygon fill="white" stroke="transparent" points="-4,4 -4,-1012 254,-1012 254,4 -4,4"/>
<!-- Node7 -->
<g id="node1" class="node">
<title>Node7</title>
<g id="a_node1"><a xlink:title=" ">
<polygon fill="white" stroke="#bfbfbf" points="0,-494.5 0,-513.5 83,-513.5 83,-494.5 0,-494.5"/>
<text text-anchor="middle" x="41.5" y="-501.5" font-family="Helvetica,sans-Serif" font-size="10.00">MonoBehaviour</text>
</a>
</g>
</g>
<!-- Node0 -->
<g id="node2" class="node">
<title>Node0</title>
<g id="a_node2"><a xlink:href="da/d70/class_a_r_brush.html" target="_top" xlink:title="Modela el comportamiento de la herramienta ARBrush">
<polygon fill="white" stroke="black" points="156.5,-988.5 156.5,-1007.5 212.5,-1007.5 212.5,-988.5 156.5,-988.5"/>
<text text-anchor="middle" x="184.5" y="-995.5" font-family="Helvetica,sans-Serif" font-size="10.00">ARBrush</text>
</a>
</g>
</g>
<!-- Node7&#45;&gt;Node0 -->
<g id="edge1" class="edge">
<title>Node7&#45;&gt;Node0</title>
<path fill="none" stroke="midnightblue" d="M42.97,-524.19C45.29,-605.72 57.97,-909.69 119,-979 128.34,-989.6 143.26,-994.43 156.4,-996.57"/>
<polygon fill="midnightblue" stroke="midnightblue" points="46.46,-523.73 42.7,-513.82 39.47,-523.91 46.46,-523.73"/>
</g>
<!-- Node9 -->
<g id="node3" class="node">
<title>Node9</title>
<g id="a_node3"><a xlink:href="d4/d25/class_a_r_guide.html" target="_top" xlink:title="Modela el comportamiento de la herramienta ARGuide">
<polygon fill="white" stroke="black" points="156.5,-950.5 156.5,-969.5 212.5,-969.5 212.5,-950.5 156.5,-950.5"/>
<text text-anchor="middle" x="184.5" y="-957.5" font-family="Helvetica,sans-Serif" font-size="10.00">ARGuide</text>
</a>
</g>
</g>
<!-- Node7&#45;&gt;Node9 -->
<g id="edge2" class="edge">
<title>Node7&#45;&gt;Node9</title>
<path fill="none" stroke="midnightblue" d="M43.28,-524.04C46.67,-601.19 62.65,-877.88 119,-941 128.41,-951.54 143.33,-956.36 156.46,-958.51"/>
<polygon fill="midnightblue" stroke="midnightblue" points="46.76,-523.64 42.85,-513.79 39.77,-523.93 46.76,-523.64"/>
</g>
<!-- Node10 -->
<g id="node4" class="node">
<title>Node10</title>
<g id="a_node4"><a xlink:href="d6/d6a/class_a_r_marker.html" target="_top" xlink:title="Modela el comportamiento de la herramienta ARMarker">
<polygon fill="white" stroke="black" points="154.5,-912.5 154.5,-931.5 214.5,-931.5 214.5,-912.5 154.5,-912.5"/>
<text text-anchor="middle" x="184.5" y="-919.5" font-family="Helvetica,sans-Serif" font-size="10.00">ARMarker</text>
</a>
</g>
</g>
<!-- Node7&#45;&gt;Node10 -->
<g id="edge3" class="edge">
<title>Node7&#45;&gt;Node10</title>
<path fill="none" stroke="midnightblue" d="M43.62,-523.68C48.13,-596.03 67.26,-845.98 119,-903 127.94,-912.86 141.71,-917.7 154.23,-920.04"/>
<polygon fill="midnightblue" stroke="midnightblue" points="47.11,-523.42 43.02,-513.65 40.13,-523.84 47.11,-523.42"/>
</g>
<!-- Node11 -->
<g id="node5" class="node">
<title>Node11</title>
<g id="a_node5"><a xlink:href="d1/d71/class_a_r_pointer.html" target="_top" xlink:title="Modela el comportamiento de la herramienta ARPointer">
<polygon fill="white" stroke="black" points="154,-874.5 154,-893.5 215,-893.5 215,-874.5 154,-874.5"/>
<text text-anchor="middle" x="184.5" y="-881.5" font-family="Helvetica,sans-Serif" font-size="10.00">ARPointer</text>
</a>
</g>
</g>
<!-- Node7&#45;&gt;Node11 -->
<g id="edge4" class="edge">
<title>Node7&#45;&gt;Node11</title>
<path fill="none" stroke="midnightblue" d="M44.08,-523.96C49.85,-592.12 72.01,-814.21 119,-865 127.96,-874.68 141.58,-879.52 153.99,-881.9"/>
<polygon fill="midnightblue" stroke="midnightblue" points="47.54,-523.42 43.24,-513.74 40.57,-524 47.54,-523.42"/>
</g>
<!-- Node12 -->
<g id="node6" class="node">
<title>Node12</title>
<g id="a_node6"><a xlink:href="d0/dac/class_a_r_text.html" target="_top" xlink:title="Modela el comportamiento de la herramienta ARText">
<polygon fill="white" stroke="black" points="160,-836.5 160,-855.5 209,-855.5 209,-836.5 160,-836.5"/>
<text text-anchor="middle" x="184.5" y="-843.5" font-family="Helvetica,sans-Serif" font-size="10.00">ARText</text>
</a>
</g>
</g>
<!-- Node7&#45;&gt;Node12 -->
<g id="edge5" class="edge">
<title>Node7&#45;&gt;Node12</title>
<path fill="none" stroke="midnightblue" d="M44.61,-523.88C51.7,-587.15 76.65,-782.3 119,-827 129.52,-838.1 146.16,-842.82 159.91,-844.77"/>
<polygon fill="midnightblue" stroke="midnightblue" points="48.06,-523.23 43.49,-513.67 41.1,-523.99 48.06,-523.23"/>
</g>
<!-- Node13 -->
<g id="node7" class="node">
<title>Node13</title>
<g id="a_node7"><a xlink:href="d7/d5d/class_a_r_tool_manager.html" target="_top" xlink:title="Maneja la lógica de las herramientas de RA">
<polygon fill="white" stroke="black" points="141.5,-798.5 141.5,-817.5 227.5,-817.5 227.5,-798.5 141.5,-798.5"/>
<text text-anchor="middle" x="184.5" y="-805.5" font-family="Helvetica,sans-Serif" font-size="10.00">ARToolManager</text>
</a>
</g>
</g>
<!-- Node7&#45;&gt;Node13 -->
<g id="edge6" class="edge">
<title>Node7&#45;&gt;Node13</title>
<path fill="none" stroke="midnightblue" d="M41.68,-523.78C40.67,-575.05 45.31,-713.5 119,-789 125.03,-795.18 132.97,-799.38 141.2,-802.22"/>
<polygon fill="midnightblue" stroke="midnightblue" points="45.18,-523.81 41.98,-513.71 38.18,-523.6 45.18,-523.81"/>
</g>
<!-- Node14 -->
<g id="node8" class="node">
<title>Node14</title>
<g id="a_node8"><a xlink:href="d0/dda/class_app_entry_point.html" target="_top" xlink:title="Punto de entra de la aplicación">
<polygon fill="white" stroke="black" points="144.5,-760.5 144.5,-779.5 224.5,-779.5 224.5,-760.5 144.5,-760.5"/>
<text text-anchor="middle" x="184.5" y="-767.5" font-family="Helvetica,sans-Serif" font-size="10.00">AppEntryPoint</text>
</a>
</g>
</g>
<!-- Node7&#45;&gt;Node14 -->
<g id="edge7" class="edge">
<title>Node7&#45;&gt;Node14</title>
<path fill="none" stroke="midnightblue" d="M42.66,-523.91C44.14,-570.48 54.47,-687.36 119,-751 125.9,-757.8 135.1,-762.19 144.4,-765.02"/>
<polygon fill="midnightblue" stroke="midnightblue" points="46.15,-523.59 42.45,-513.66 39.16,-523.73 46.15,-523.59"/>
</g>
<!-- Node15 -->
<g id="node9" class="node">
<title>Node15</title>
<g id="a_node9"><a xlink:href="d7/d31/class_audio_manager.html" target="_top" xlink:title="Maneja la lógica de la captura y reproducción de audio">
<polygon fill="white" stroke="black" points="145,-722.5 145,-741.5 224,-741.5 224,-722.5 145,-722.5"/>
<text text-anchor="middle" x="184.5" y="-729.5" font-family="Helvetica,sans-Serif" font-size="10.00">AudioManager</text>
</a>
</g>
</g>
<!-- Node7&#45;&gt;Node15 -->
<g id="edge8" class="edge">
<title>Node7&#45;&gt;Node15</title>
<path fill="none" stroke="midnightblue" d="M43.94,-523.62C48.03,-564.81 63.35,-660.82 119,-713 126.15,-719.71 135.56,-724.06 144.96,-726.88"/>
<polygon fill="midnightblue" stroke="midnightblue" points="47.42,-523.19 43.06,-513.53 40.44,-523.8 47.42,-523.19"/>
</g>
<!-- Node16 -->
<g id="node10" class="node">
<title>Node16</title>
<g id="a_node10"><a xlink:href="d6/d16/class_audio_visualizer_controller.html" target="_top" xlink:title="Controla el visualizador de audio">
<polygon fill="white" stroke="black" points="122,-684.5 122,-703.5 247,-703.5 247,-684.5 122,-684.5"/>
<text text-anchor="middle" x="184.5" y="-691.5" font-family="Helvetica,sans-Serif" font-size="10.00">AudioVisualizerController</text>
</a>
</g>
</g>
<!-- Node7&#45;&gt;Node16 -->
<g id="edge9" class="edge">
<title>Node7&#45;&gt;Node16</title>
<path fill="none" stroke="midnightblue" d="M45.81,-523.91C52.79,-559.53 72.38,-634.25 119,-675 123.48,-678.92 128.74,-682.03 134.28,-684.5"/>
<polygon fill="midnightblue" stroke="midnightblue" points="49.21,-523.02 43.97,-513.81 42.32,-524.27 49.21,-523.02"/>
</g>
<!-- Node17 -->
<g id="node11" class="node">
<title>Node17</title>
<g id="a_node11"><a xlink:href="d9/de1/class_back_button_controller.html" target="_top" xlink:title="Controla la pulsación del botón de retroceso">
<polygon fill="white" stroke="black" points="130,-646.5 130,-665.5 239,-665.5 239,-646.5 130,-646.5"/>
<text text-anchor="middle" x="184.5" y="-653.5" font-family="Helvetica,sans-Serif" font-size="10.00">BackButtonController</text>
</a>
</g>
</g>
<!-- Node7&#45;&gt;Node17 -->
<g id="edge10" class="edge">
<title>Node7&#45;&gt;Node17</title>
<path fill="none" stroke="midnightblue" d="M48.47,-523.5C58.38,-552.56 80.98,-607.02 119,-637 123.95,-640.9 129.68,-644 135.65,-646.47"/>
<polygon fill="midnightblue" stroke="midnightblue" points="51.71,-522.14 45.29,-513.71 45.05,-524.3 51.71,-522.14"/>
</g>
<!-- Node18 -->
<g id="node12" class="node">
<title>Node18</title>
<g id="a_node12"><a xlink:href="db/d71/class_client_manager.html" target="_top" xlink:title="Maneja la lógica las acciones del cliente">
<polygon fill="white" stroke="black" points="145,-608.5 145,-627.5 224,-627.5 224,-608.5 145,-608.5"/>
<text text-anchor="middle" x="184.5" y="-615.5" font-family="Helvetica,sans-Serif" font-size="10.00">ClientManager</text>
</a>
</g>
</g>
<!-- Node7&#45;&gt;Node18 -->
<g id="edge11" class="edge">
<title>Node7&#45;&gt;Node18</title>
<path fill="none" stroke="midnightblue" d="M52.67,-522.52C65.42,-544.03 89.24,-579.09 119,-599 126.76,-604.19 135.97,-608 144.97,-610.77"/>
<polygon fill="midnightblue" stroke="midnightblue" points="55.62,-520.64 47.61,-513.7 49.55,-524.12 55.62,-520.64"/>
</g>
<!-- Node19 -->
<g id="node13" class="node">
<title>Node19</title>
<g id="a_node13"><a xlink:href="db/d20/class_contacts_controller.html" target="_top" xlink:title="Controla la lista de contactos en la interfaz de Crear Videollamada">
<polygon fill="white" stroke="black" points="136,-570.5 136,-589.5 233,-589.5 233,-570.5 136,-570.5"/>
<text text-anchor="middle" x="184.5" y="-577.5" font-family="Helvetica,sans-Serif" font-size="10.00">ContactsController</text>
</a>
</g>
</g>
<!-- Node7&#45;&gt;Node19 -->
<g id="edge12" class="edge">
<title>Node7&#45;&gt;Node19</title>
<path fill="none" stroke="midnightblue" d="M60.92,-520.68C75.69,-533.3 97.45,-550.23 119,-561 126.52,-564.76 134.91,-567.9 143.09,-570.49"/>
<polygon fill="midnightblue" stroke="midnightblue" points="62.92,-517.78 53.08,-513.83 58.31,-523.05 62.92,-517.78"/>
</g>
<!-- Node20 -->
<g id="node14" class="node">
<title>Node20</title>
<g id="a_node14"><a xlink:href="d8/d78/class_dynamic_links_init.html" target="_top" xlink:title="Inicializa los links dinámicos">
<polygon fill="white" stroke="black" points="139,-532.5 139,-551.5 230,-551.5 230,-532.5 139,-532.5"/>
<text text-anchor="middle" x="184.5" y="-539.5" font-family="Helvetica,sans-Serif" font-size="10.00">DynamicLinksInit</text>
</a>
</g>
</g>
<!-- Node7&#45;&gt;Node20 -->
<g id="edge13" class="edge">
<title>Node7&#45;&gt;Node20</title>
<path fill="none" stroke="midnightblue" d="M87.94,-516.25C107.37,-521.48 129.73,-527.51 147.93,-532.41"/>
<polygon fill="midnightblue" stroke="midnightblue" points="88.65,-512.81 78.08,-513.59 86.82,-519.57 88.65,-512.81"/>
</g>
<!-- Node21 -->
<g id="node15" class="node">
<title>Node21</title>
<g id="a_node15"><a xlink:href="d9/da2/class_firebase_init.html" target="_top" xlink:title="Inicializa Firebase">
<polygon fill="white" stroke="black" points="151,-494.5 151,-513.5 218,-513.5 218,-494.5 151,-494.5"/>
<text text-anchor="middle" x="184.5" y="-501.5" font-family="Helvetica,sans-Serif" font-size="10.00">FirebaseInit</text>
</a>
</g>
</g>
<!-- Node7&#45;&gt;Node21 -->
<g id="edge14" class="edge">
<title>Node7&#45;&gt;Node21</title>
<path fill="none" stroke="midnightblue" d="M93.37,-504C112.53,-504 133.79,-504 150.85,-504"/>
<polygon fill="midnightblue" stroke="midnightblue" points="93.28,-500.5 83.28,-504 93.28,-507.5 93.28,-500.5"/>
</g>
<!-- Node22 -->
<g id="node16" class="node">
<title>Node22</title>
<g id="a_node16"><a xlink:href="d1/d57/class_look_at_camera.html" target="_top" xlink:title="Controla que el GameObject asociado apunte hacia la cámara">
<polygon fill="white" stroke="black" points="144,-456.5 144,-475.5 225,-475.5 225,-456.5 144,-456.5"/>
<text text-anchor="middle" x="184.5" y="-463.5" font-family="Helvetica,sans-Serif" font-size="10.00">LookAtCamera</text>
</a>
</g>
</g>
<!-- Node7&#45;&gt;Node22 -->
<g id="edge15" class="edge">
<title>Node7&#45;&gt;Node22</title>
<path fill="none" stroke="midnightblue" d="M87.94,-491.75C107.37,-486.52 129.73,-480.49 147.93,-475.59"/>
<polygon fill="midnightblue" stroke="midnightblue" points="86.82,-488.43 78.08,-494.41 88.65,-495.19 86.82,-488.43"/>
</g>
<!-- Node23 -->
<g id="node17" class="node">
<title>Node23</title>
<g id="a_node17"><a xlink:href="dd/d3b/class_main_u_i_controller.html" target="_top" xlink:title="Controla la interfaz principal de la aplicación">
<polygon fill="white" stroke="black" points="140.5,-418.5 140.5,-437.5 228.5,-437.5 228.5,-418.5 140.5,-418.5"/>
<text text-anchor="middle" x="184.5" y="-425.5" font-family="Helvetica,sans-Serif" font-size="10.00">MainUIController</text>
</a>
</g>
</g>
<!-- Node7&#45;&gt;Node23 -->
<g id="edge16" class="edge">
<title>Node7&#45;&gt;Node23</title>
<path fill="none" stroke="midnightblue" d="M60.92,-487.32C75.69,-474.7 97.45,-457.77 119,-447 126.52,-443.24 134.91,-440.1 143.09,-437.51"/>
<polygon fill="midnightblue" stroke="midnightblue" points="58.31,-484.95 53.08,-494.17 62.92,-490.22 58.31,-484.95"/>
</g>
<!-- Node24 -->
<g id="node18" class="node">
<title>Node24</title>
<g id="a_node18"><a xlink:href="dc/d59/class_my_input_manager.html" target="_top" xlink:title="Mapea la entrada de usuario real con la que debería indicada para el contenido actual">
<polygon fill="white" stroke="black" points="140,-380.5 140,-399.5 229,-399.5 229,-380.5 140,-380.5"/>
<text text-anchor="middle" x="184.5" y="-387.5" font-family="Helvetica,sans-Serif" font-size="10.00">MyInputManager</text>
</a>
</g>
</g>
<!-- Node7&#45;&gt;Node24 -->
<g id="edge17" class="edge">
<title>Node7&#45;&gt;Node24</title>
<path fill="none" stroke="midnightblue" d="M52.67,-485.48C65.42,-463.97 89.24,-428.91 119,-409 125.31,-404.78 132.57,-401.48 139.89,-398.9"/>
<polygon fill="midnightblue" stroke="midnightblue" points="49.55,-483.88 47.61,-494.3 55.62,-487.36 49.55,-483.88"/>
</g>
<!-- Node25 -->
<g id="node19" class="node">
<title>Node25</title>
<g id="a_node19"><a xlink:href="d2/d84/class_one_signal_init.html" target="_top" xlink:title="Inicializa OneSignal">
<polygon fill="white" stroke="black" points="147.5,-342.5 147.5,-361.5 221.5,-361.5 221.5,-342.5 147.5,-342.5"/>
<text text-anchor="middle" x="184.5" y="-349.5" font-family="Helvetica,sans-Serif" font-size="10.00">OneSignalInit</text>
</a>
</g>
</g>
<!-- Node7&#45;&gt;Node25 -->
<g id="edge18" class="edge">
<title>Node7&#45;&gt;Node25</title>
<path fill="none" stroke="midnightblue" d="M48.47,-484.5C58.38,-455.44 80.98,-400.98 119,-371 127.16,-364.57 137.44,-360.31 147.38,-357.5"/>
<polygon fill="midnightblue" stroke="midnightblue" points="45.05,-483.7 45.29,-494.29 51.71,-485.86 45.05,-483.7"/>
</g>
<!-- Node26 -->
<g id="node20" class="node">
<title>Node26</title>
<g id="a_node20"><a xlink:href="d2/d48/class_peer_connection_manager.html" target="_top" xlink:title="Maneja la lógica de una conexión entre dos pares">
<polygon fill="white" stroke="black" points="123,-304.5 123,-323.5 246,-323.5 246,-304.5 123,-304.5"/>
<text text-anchor="middle" x="184.5" y="-311.5" font-family="Helvetica,sans-Serif" font-size="10.00">PeerConnectionManager</text>
</a>
</g>
</g>
<!-- Node7&#45;&gt;Node26 -->
<g id="edge19" class="edge">
<title>Node7&#45;&gt;Node26</title>
<path fill="none" stroke="midnightblue" d="M45.81,-484.09C52.79,-448.47 72.38,-373.75 119,-333 123.48,-329.08 128.74,-325.97 134.28,-323.5"/>
<polygon fill="midnightblue" stroke="midnightblue" points="42.32,-483.73 43.97,-494.19 49.21,-484.98 42.32,-483.73"/>
</g>
<!-- Node27 -->
<g id="node21" class="node">
<title>Node27</title>
<g id="a_node21"><a xlink:href="dc/da3/class_recorder_manager.html" target="_top" xlink:title="Maneja la lógica de la grabación de tutoriales">
<polygon fill="white" stroke="black" points="138,-266.5 138,-285.5 231,-285.5 231,-266.5 138,-266.5"/>
<text text-anchor="middle" x="184.5" y="-273.5" font-family="Helvetica,sans-Serif" font-size="10.00">RecorderManager</text>
</a>
</g>
</g>
<!-- Node7&#45;&gt;Node27 -->
<g id="edge20" class="edge">
<title>Node7&#45;&gt;Node27</title>
<path fill="none" stroke="midnightblue" d="M43.94,-484.38C48.03,-443.19 63.35,-347.18 119,-295 124.37,-289.97 131,-286.26 137.94,-283.54"/>
<polygon fill="midnightblue" stroke="midnightblue" points="40.44,-484.2 43.06,-494.47 47.42,-484.81 40.44,-484.2"/>
</g>
<!-- Node28 -->
<g id="node22" class="node">
<title>Node28</title>
<g id="a_node22"><a xlink:href="d8/d7d/class_register_name_u_i_controller.html" target="_top" xlink:title="Controla la interfaz de la escena RegisterName">
<polygon fill="white" stroke="black" points="120.5,-228.5 120.5,-247.5 248.5,-247.5 248.5,-228.5 120.5,-228.5"/>
<text text-anchor="middle" x="184.5" y="-235.5" font-family="Helvetica,sans-Serif" font-size="10.00">RegisterNameUIController</text>
</a>
</g>
</g>
<!-- Node7&#45;&gt;Node28 -->
<g id="edge21" class="edge">
<title>Node7&#45;&gt;Node28</title>
<path fill="none" stroke="midnightblue" d="M42.66,-484.09C44.14,-437.52 54.47,-320.64 119,-257 122.91,-253.15 127.55,-250.07 132.54,-247.61"/>
<polygon fill="midnightblue" stroke="midnightblue" points="39.16,-484.27 42.45,-494.34 46.15,-484.41 39.16,-484.27"/>
</g>
<!-- Node29 -->
<g id="node23" class="node">
<title>Node29</title>
<g id="a_node23"><a xlink:href="dd/ddc/class_register_phone_u_i_controller.html" target="_top" xlink:title="Controla la interfaz de registro">
<polygon fill="white" stroke="black" points="119,-190.5 119,-209.5 250,-209.5 250,-190.5 119,-190.5"/>
<text text-anchor="middle" x="184.5" y="-197.5" font-family="Helvetica,sans-Serif" font-size="10.00">RegisterPhoneUIController</text>
</a>
</g>
</g>
<!-- Node7&#45;&gt;Node29 -->
<g id="edge22" class="edge">
<title>Node7&#45;&gt;Node29</title>
<path fill="none" stroke="midnightblue" d="M41.68,-484.22C40.67,-432.95 45.31,-294.5 119,-219 122.75,-215.16 127.24,-212.08 132.07,-209.62"/>
<polygon fill="midnightblue" stroke="midnightblue" points="38.18,-484.4 41.98,-494.29 45.18,-484.19 38.18,-484.4"/>
</g>
<!-- Node30 -->
<g id="node24" class="node">
<title>Node30</title>
<g id="a_node24"><a xlink:href="d9/da4/class_rooms_controller.html" target="_top" xlink:title="Controla la interfaz de la creación y unión a videollamadas">
<polygon fill="white" stroke="black" points="140,-152.5 140,-171.5 229,-171.5 229,-152.5 140,-152.5"/>
<text text-anchor="middle" x="184.5" y="-159.5" font-family="Helvetica,sans-Serif" font-size="10.00">RoomsController</text>
</a>
</g>
</g>
<!-- Node7&#45;&gt;Node30 -->
<g id="edge23" class="edge">
<title>Node7&#45;&gt;Node30</title>
<path fill="none" stroke="midnightblue" d="M44.61,-484.12C51.7,-420.85 76.65,-225.7 119,-181 124.62,-175.07 131.99,-170.96 139.73,-168.12"/>
<polygon fill="midnightblue" stroke="midnightblue" points="41.1,-484.01 43.49,-494.33 48.06,-484.77 41.1,-484.01"/>
</g>
<!-- Node31 -->
<g id="node25" class="node">
<title>Node31</title>
<g id="a_node25"><a xlink:href="d0/d5f/class_toolbar_u_i_controller.html" target="_top" xlink:title="Controla la interfaz de la barra de heramientas en una videollamada o grabación">
<polygon fill="white" stroke="black" points="135.5,-114.5 135.5,-133.5 233.5,-133.5 233.5,-114.5 135.5,-114.5"/>
<text text-anchor="middle" x="184.5" y="-121.5" font-family="Helvetica,sans-Serif" font-size="10.00">ToolbarUIController</text>
</a>
</g>
</g>
<!-- Node7&#45;&gt;Node31 -->
<g id="edge24" class="edge">
<title>Node7&#45;&gt;Node31</title>
<path fill="none" stroke="midnightblue" d="M44.08,-484.04C49.85,-415.88 72.01,-193.79 119,-143 123.52,-138.12 129.22,-134.46 135.36,-131.74"/>
<polygon fill="midnightblue" stroke="midnightblue" points="40.57,-484 43.24,-494.26 47.54,-484.58 40.57,-484"/>
</g>
<!-- Node32 -->
<g id="node26" class="node">
<title>Node32</title>
<g id="a_node26"><a xlink:href="d7/d42/class_topbar_u_i_controller.html" target="_top" xlink:title="Controla la interfaz de la barra de opciones superior en una videollamada">
<polygon fill="white" stroke="black" points="136.5,-76.5 136.5,-95.5 232.5,-95.5 232.5,-76.5 136.5,-76.5"/>
<text text-anchor="middle" x="184.5" y="-83.5" font-family="Helvetica,sans-Serif" font-size="10.00">TopbarUIController</text>
</a>
</g>
</g>
<!-- Node7&#45;&gt;Node32 -->
<g id="edge25" class="edge">
<title>Node7&#45;&gt;Node32</title>
<path fill="none" stroke="midnightblue" d="M43.62,-484.32C48.13,-411.97 67.26,-162.02 119,-105 123.71,-99.81 129.75,-96.01 136.25,-93.24"/>
<polygon fill="midnightblue" stroke="midnightblue" points="40.13,-484.16 43.02,-494.35 47.11,-484.58 40.13,-484.16"/>
</g>
<!-- Node33 -->
<g id="node27" class="node">
<title>Node33</title>
<g id="a_node27"><a xlink:href="d2/dba/class_video_manager.html" target="_top" xlink:title="Maneja la lógica de la grabación y visualización de video">
<polygon fill="white" stroke="black" points="145,-38.5 145,-57.5 224,-57.5 224,-38.5 145,-38.5"/>
<text text-anchor="middle" x="184.5" y="-45.5" font-family="Helvetica,sans-Serif" font-size="10.00">VideoManager</text>
</a>
</g>
</g>
<!-- Node7&#45;&gt;Node33 -->
<g id="edge26" class="edge">
<title>Node7&#45;&gt;Node33</title>
<path fill="none" stroke="midnightblue" d="M43.28,-483.96C46.67,-406.81 62.65,-130.12 119,-67 125.69,-59.51 135.16,-54.91 144.79,-52.1"/>
<polygon fill="midnightblue" stroke="midnightblue" points="39.77,-484.07 42.85,-494.21 46.76,-484.36 39.77,-484.07"/>
</g>
<!-- Node34 -->
<g id="node28" class="node">
<title>Node34</title>
<g id="a_node28"><a xlink:href="dc/df2/class_window_res.html" target="_top" xlink:title="Redimendiona la ventana de la aplicación de escritorio para que mantenga la relación de aspecto">
<polygon fill="white" stroke="black" points="150.5,-0.5 150.5,-19.5 218.5,-19.5 218.5,-0.5 150.5,-0.5"/>
<text text-anchor="middle" x="184.5" y="-7.5" font-family="Helvetica,sans-Serif" font-size="10.00">WindowRes</text>
</a>
</g>
</g>
<!-- Node7&#45;&gt;Node34 -->
<g id="edge27" class="edge">
<title>Node7&#45;&gt;Node34</title>
<path fill="none" stroke="midnightblue" d="M42.97,-483.81C45.29,-402.28 57.97,-98.31 119,-29 126.95,-19.98 138.94,-15.14 150.44,-12.58"/>
<polygon fill="midnightblue" stroke="midnightblue" points="39.47,-484.09 42.7,-494.18 46.46,-484.27 39.47,-484.09"/>
</g>
</g>
</svg>
