<?xml version="1.0" encoding="UTF-8" standalone="no"?>
<!DOCTYPE svg PUBLIC "-//W3C//DTD SVG 1.1//EN"
 "http://www.w3.org/Graphics/SVG/1.1/DTD/svg11.dtd">
<!-- Generated by graphviz version 2.49.0 (20210828.1703)
 -->
<!-- Title: ToolbarUIController Pages: 1 -->
<svg width="1127pt" height="2066pt"
 viewBox="0.00 0.00 1126.54 2066.00" xmlns="http://www.w3.org/2000/svg" xmlns:xlink="http://www.w3.org/1999/xlink">
<g id="graph0" class="graph" transform="scale(1 1) rotate(0) translate(4 2062)">
<title>ToolbarUIController</title>
<polygon fill="white" stroke="transparent" points="-4,4 -4,-2062 1122.54,-2062 1122.54,4 -4,4"/>
<!-- Node1 -->
<g id="node1" class="node">
<title>Node1</title>
<g id="a_node1"><a xlink:title="Controla la interfaz de la barra de heramientas en una videollamada o grabación">
<polygon fill="#bfbfbf" stroke="black" points="560.04,-0.5 560.04,-288.5 816.04,-288.5 816.04,-0.5 560.04,-0.5"/>
<text text-anchor="middle" x="688.04" y="-276.5" font-family="Helvetica,sans-Serif" font-size="10.00">ToolbarUIController</text>
<polyline fill="none" stroke="black" points="560.04,-269.5 816.04,-269.5 "/>
<text text-anchor="start" x="568.04" y="-257.5" font-family="Helvetica,sans-Serif" font-size="10.00">+ PeerType peer</text>
<text text-anchor="start" x="568.04" y="-246.5" font-family="Helvetica,sans-Serif" font-size="10.00">+ bool isRecording</text>
<text text-anchor="start" x="568.04" y="-235.5" font-family="Helvetica,sans-Serif" font-size="10.00">+ GameObject deleteBar</text>
<text text-anchor="start" x="568.04" y="-224.5" font-family="Helvetica,sans-Serif" font-size="10.00">+ GameObject arToolsBar</text>
<text text-anchor="start" x="568.04" y="-213.5" font-family="Helvetica,sans-Serif" font-size="10.00">+ GameObject colorsBar</text>
<text text-anchor="start" x="568.04" y="-202.5" font-family="Helvetica,sans-Serif" font-size="10.00">&#45; Button undo</text>
<text text-anchor="start" x="568.04" y="-191.5" font-family="Helvetica,sans-Serif" font-size="10.00">&#45; Button deleteBtn</text>
<text text-anchor="start" x="568.04" y="-180.5" font-family="Helvetica,sans-Serif" font-size="10.00">&#45; Button deleteMine</text>
<text text-anchor="start" x="568.04" y="-169.5" font-family="Helvetica,sans-Serif" font-size="10.00">&#45; Button deleteAll</text>
<text text-anchor="start" x="568.04" y="-158.5" font-family="Helvetica,sans-Serif" font-size="10.00">&#45; GameObject selectedTool</text>
<text text-anchor="start" x="568.04" y="-147.5" font-family="Helvetica,sans-Serif" font-size="10.00">&#45; GameObject tool1</text>
<text text-anchor="start" x="568.04" y="-136.5" font-family="Helvetica,sans-Serif" font-size="10.00">&#45; GameObject tool2</text>
<text text-anchor="start" x="568.04" y="-125.5" font-family="Helvetica,sans-Serif" font-size="10.00">&#45; GameObject tool3</text>
<text text-anchor="start" x="568.04" y="-114.5" font-family="Helvetica,sans-Serif" font-size="10.00">&#45; GameObject selectedColor</text>
<text text-anchor="start" x="568.04" y="-103.5" font-family="Helvetica,sans-Serif" font-size="10.00">&#45; GameObject color1</text>
<text text-anchor="start" x="568.04" y="-92.5" font-family="Helvetica,sans-Serif" font-size="10.00">&#45; GameObject color2</text>
<text text-anchor="start" x="568.04" y="-81.5" font-family="Helvetica,sans-Serif" font-size="10.00">&#45; GameObject color3</text>
<text text-anchor="start" x="568.04" y="-70.5" font-family="Helvetica,sans-Serif" font-size="10.00">&#45; Button actionBtn</text>
<polyline fill="none" stroke="black" points="560.04,-63.5 816.04,-63.5 "/>
<text text-anchor="start" x="568.04" y="-51.5" font-family="Helvetica,sans-Serif" font-size="10.00">&#45; void Awake()</text>
<text text-anchor="start" x="568.04" y="-40.5" font-family="Helvetica,sans-Serif" font-size="10.00">&#45; void Start()</text>
<text text-anchor="start" x="568.04" y="-29.5" font-family="Helvetica,sans-Serif" font-size="10.00">&#45; void SelectBarElement(GameObject bar, GameObject</text>
<text text-anchor="start" x="568.04" y="-18.5" font-family="Helvetica,sans-Serif" font-size="10.00"> clickedElement)</text>
<text text-anchor="start" x="568.04" y="-7.5" font-family="Helvetica,sans-Serif" font-size="10.00">&#45; void ToggleBar(GameObject bar)</text>
</a>
</g>
</g>
<!-- Node2 -->
<g id="node2" class="node">
<title>Node2</title>
<g id="a_node2"><a xlink:title=" ">
<polygon fill="white" stroke="#bfbfbf" points="369.54,-2000.5 369.54,-2057.5 452.54,-2057.5 452.54,-2000.5 369.54,-2000.5"/>
<text text-anchor="middle" x="411.04" y="-2045.5" font-family="Helvetica,sans-Serif" font-size="10.00">MonoBehaviour</text>
<polyline fill="none" stroke="#bfbfbf" points="369.54,-2038.5 452.54,-2038.5 "/>
<text text-anchor="middle" x="411.04" y="-2026.5" font-family="Helvetica,sans-Serif" font-size="10.00"> </text>
<polyline fill="none" stroke="#bfbfbf" points="369.54,-2019.5 452.54,-2019.5 "/>
<text text-anchor="middle" x="411.04" y="-2007.5" font-family="Helvetica,sans-Serif" font-size="10.00"> </text>
</a>
</g>
</g>
<!-- Node2&#45;&gt;Node1 -->
<g id="edge1" class="edge">
<title>Node2&#45;&gt;Node1</title>
<path fill="none" stroke="midnightblue" d="M359.34,-2024.89C271.57,-2018.62 98.47,-2001.61 53.04,-1963 -0.53,-1917.49 0.04,-1884.29 0.04,-1814 0.04,-1814 0.04,-1814 0.04,-529 0.04,-275.5 360.79,-188.04 559.84,-159.08"/>
<polygon fill="none" stroke="midnightblue" points="359.13,-2028.39 369.35,-2025.59 359.62,-2021.41 359.13,-2028.39"/>
</g>
<!-- Node3 -->
<g id="node3" class="node">
<title>Node3</title>
<g id="a_node3"><a xlink:href="../../d2/d48/class_peer_connection_manager.html" target="_top" xlink:title="Maneja la lógica de una conexión entre dos pares">
<polygon fill="white" stroke="black" points="310.04,-336.5 310.04,-723.5 618.04,-723.5 618.04,-336.5 310.04,-336.5"/>
<text text-anchor="middle" x="464.04" y="-711.5" font-family="Helvetica,sans-Serif" font-size="10.00">PeerConnectionManager</text>
<polyline fill="none" stroke="black" points="310.04,-704.5 618.04,-704.5 "/>
<text text-anchor="start" x="318.04" y="-692.5" font-family="Helvetica,sans-Serif" font-size="10.00">+ PeerType myPeerType</text>
<text text-anchor="start" x="318.04" y="-681.5" font-family="Helvetica,sans-Serif" font-size="10.00">&#45; RTCDataChannel clientInputDataChannel</text>
<text text-anchor="start" x="318.04" y="-670.5" font-family="Helvetica,sans-Serif" font-size="10.00">&#45; RTCDataChannel aspectRatioDataChannel</text>
<text text-anchor="start" x="318.04" y="-659.5" font-family="Helvetica,sans-Serif" font-size="10.00">&#45; RTCDataChannel clientActionDataChannel</text>
<text text-anchor="start" x="318.04" y="-648.5" font-family="Helvetica,sans-Serif" font-size="10.00">&#45; RTCConfiguration RTCconfig</text>
<text text-anchor="start" x="318.04" y="-637.5" font-family="Helvetica,sans-Serif" font-size="10.00">&#45; RTCPeerConnection pc</text>
<text text-anchor="start" x="318.04" y="-626.5" font-family="Helvetica,sans-Serif" font-size="10.00">&#45; RTCRtpSender videoSender</text>
<text text-anchor="start" x="318.04" y="-615.5" font-family="Helvetica,sans-Serif" font-size="10.00">&#45; MediaStream mediaStream</text>
<text text-anchor="start" x="318.04" y="-604.5" font-family="Helvetica,sans-Serif" font-size="10.00">&#45; RTCRtpSender audioSender</text>
<polyline fill="none" stroke="black" points="310.04,-597.5 618.04,-597.5 "/>
<text text-anchor="start" x="318.04" y="-585.5" font-family="Helvetica,sans-Serif" font-size="10.00">+ void HangUp()</text>
<text text-anchor="start" x="318.04" y="-574.5" font-family="Helvetica,sans-Serif" font-size="10.00">&#45; void Awake()</text>
<text text-anchor="start" x="318.04" y="-563.5" font-family="Helvetica,sans-Serif" font-size="10.00">&#45; void OnClientReadyDelegate()</text>
<text text-anchor="start" x="318.04" y="-552.5" font-family="Helvetica,sans-Serif" font-size="10.00">&#45; void OnMessageReceivedDelegate(Message msg)</text>
<text text-anchor="start" x="318.04" y="-541.5" font-family="Helvetica,sans-Serif" font-size="10.00">&#45; void Update()</text>
<text text-anchor="start" x="318.04" y="-530.5" font-family="Helvetica,sans-Serif" font-size="10.00">&#45; void EnableAudioStream(bool enabled)</text>
<text text-anchor="start" x="318.04" y="-519.5" font-family="Helvetica,sans-Serif" font-size="10.00">&#45; async void Start()</text>
<text text-anchor="start" x="318.04" y="-508.5" font-family="Helvetica,sans-Serif" font-size="10.00">&#45; bool SetVideoParameters()</text>
<text text-anchor="start" x="318.04" y="-497.5" font-family="Helvetica,sans-Serif" font-size="10.00">&#45; bool SetAudioParameters()</text>
<text text-anchor="start" x="318.04" y="-486.5" font-family="Helvetica,sans-Serif" font-size="10.00">&#45; void AddTracks()</text>
<text text-anchor="start" x="318.04" y="-475.5" font-family="Helvetica,sans-Serif" font-size="10.00">&#45; void AddDataChannels()</text>
<text text-anchor="start" x="318.04" y="-464.5" font-family="Helvetica,sans-Serif" font-size="10.00">&#45; IEnumerator Call()</text>
<text text-anchor="start" x="318.04" y="-453.5" font-family="Helvetica,sans-Serif" font-size="10.00">&#45; void OnSceneUnloaded&lt; Scene &gt;(Scene scene)</text>
<text text-anchor="start" x="318.04" y="-442.5" font-family="Helvetica,sans-Serif" font-size="10.00">&#45; void OnApplicationPause(bool paused)</text>
<text text-anchor="start" x="318.04" y="-431.5" font-family="Helvetica,sans-Serif" font-size="10.00">&#45; void OnApplicationFocus(bool focused)</text>
<text text-anchor="start" x="318.04" y="-420.5" font-family="Helvetica,sans-Serif" font-size="10.00">&#45; void OnDestroy()</text>
<text text-anchor="start" x="318.04" y="-409.5" font-family="Helvetica,sans-Serif" font-size="10.00">&#45; void OnDisconnect()</text>
<text text-anchor="start" x="318.04" y="-398.5" font-family="Helvetica,sans-Serif" font-size="10.00">&#45; IEnumerator ReadMessageDB(Message msg)</text>
<text text-anchor="start" x="318.04" y="-387.5" font-family="Helvetica,sans-Serif" font-size="10.00">&#45; async void UnReadyUser()</text>
<text text-anchor="start" x="318.04" y="-376.5" font-family="Helvetica,sans-Serif" font-size="10.00">&#45; async void ReadyUser()</text>
<text text-anchor="start" x="318.04" y="-365.5" font-family="Helvetica,sans-Serif" font-size="10.00">&#45; RTCIceCandidateInit InitIceCandidate(RTCIceCandidate candidate)</text>
<text text-anchor="start" x="318.04" y="-354.5" font-family="Helvetica,sans-Serif" font-size="10.00">&#45; bool ImHost()</text>
<text text-anchor="start" x="318.04" y="-343.5" font-family="Helvetica,sans-Serif" font-size="10.00">&#45; static RTCConfiguration ServersConfig()</text>
</a>
</g>
</g>
<!-- Node2&#45;&gt;Node3 -->
<g id="edge3" class="edge">
<title>Node2&#45;&gt;Node3</title>
<path fill="none" stroke="midnightblue" d="M359.38,-2022.41C315.46,-2015.26 253.01,-1999.13 211.04,-1963 91.27,-1859.92 88.34,-1798.79 52.04,-1645 3.43,-1439.1 24.29,-1378.73 52.04,-1169 77.81,-974.16 54.75,-903.31 167.04,-742 203.62,-689.44 257.73,-645.45 309.77,-611.47"/>
<polygon fill="none" stroke="midnightblue" points="358.88,-2025.88 369.29,-2023.93 359.93,-2018.96 358.88,-2025.88"/>
</g>
<!-- Node4 -->
<g id="node4" class="node">
<title>Node4</title>
<g id="a_node4"><a xlink:href="../../dc/d59/class_my_input_manager.html" target="_top" xlink:title="Mapea la entrada de usuario real con la que debería indicada para el contenido actual">
<polygon fill="white" stroke="black" points="236.54,-917.5 236.54,-1128.5 427.54,-1128.5 427.54,-917.5 236.54,-917.5"/>
<text text-anchor="middle" x="332.04" y="-1116.5" font-family="Helvetica,sans-Serif" font-size="10.00">MyInputManager</text>
<polyline fill="none" stroke="black" points="236.54,-1109.5 427.54,-1109.5 "/>
<text text-anchor="start" x="244.54" y="-1097.5" font-family="Helvetica,sans-Serif" font-size="10.00">+ PeerType myPeerType</text>
<text text-anchor="start" x="244.54" y="-1086.5" font-family="Helvetica,sans-Serif" font-size="10.00">+ bool recording</text>
<text text-anchor="start" x="244.54" y="-1075.5" font-family="Helvetica,sans-Serif" font-size="10.00">+ Vector3 hostPosition</text>
<text text-anchor="start" x="244.54" y="-1064.5" font-family="Helvetica,sans-Serif" font-size="10.00">+ Vector3 clientPosition</text>
<text text-anchor="start" x="244.54" y="-1053.5" font-family="Helvetica,sans-Serif" font-size="10.00">+ TouchScreenKeyboard clientKeyboard</text>
<text text-anchor="start" x="244.54" y="-1042.5" font-family="Helvetica,sans-Serif" font-size="10.00">&#45; float scaledPixelRatioX</text>
<text text-anchor="start" x="244.54" y="-1031.5" font-family="Helvetica,sans-Serif" font-size="10.00">&#45; float scaledPixelRatioY</text>
<text text-anchor="start" x="244.54" y="-1020.5" font-family="Helvetica,sans-Serif" font-size="10.00">&#45; float clientAspectRatio</text>
<text text-anchor="start" x="244.54" y="-1009.5" font-family="Helvetica,sans-Serif" font-size="10.00">&#45; int croppedScreenWidth</text>
<text text-anchor="start" x="244.54" y="-998.5" font-family="Helvetica,sans-Serif" font-size="10.00">&#45; int croppedScreenHeight</text>
<text text-anchor="start" x="244.54" y="-987.5" font-family="Helvetica,sans-Serif" font-size="10.00">&#45; int offsetX</text>
<text text-anchor="start" x="244.54" y="-976.5" font-family="Helvetica,sans-Serif" font-size="10.00">&#45; int offsetY</text>
<polyline fill="none" stroke="black" points="236.54,-969.5 427.54,-969.5 "/>
<text text-anchor="start" x="244.54" y="-957.5" font-family="Helvetica,sans-Serif" font-size="10.00">+ bool IsHeldDown(PeerType peer)</text>
<text text-anchor="start" x="244.54" y="-946.5" font-family="Helvetica,sans-Serif" font-size="10.00">&#45; void Awake()</text>
<text text-anchor="start" x="244.54" y="-935.5" font-family="Helvetica,sans-Serif" font-size="10.00">&#45; void Start()</text>
<text text-anchor="start" x="244.54" y="-924.5" font-family="Helvetica,sans-Serif" font-size="10.00">&#45; void Update()</text>
</a>
</g>
</g>
<!-- Node2&#45;&gt;Node4 -->
<g id="edge5" class="edge">
<title>Node2&#45;&gt;Node4</title>
<path fill="none" stroke="midnightblue" d="M382.78,-1991.66C377.23,-1982.74 372.17,-1972.9 369.04,-1963 362.82,-1943.35 343.35,-1369.37 335.44,-1128.65"/>
<polygon fill="none" stroke="midnightblue" points="380.01,-1993.81 388.44,-2000.24 385.86,-1989.96 380.01,-1993.81"/>
</g>
<!-- Node5 -->
<g id="node5" class="node">
<title>Node5</title>
<g id="a_node5"><a xlink:href="../../d2/dba/class_video_manager.html" target="_top" xlink:title="Maneja la lógica de la grabación y visualización de video">
<polygon fill="white" stroke="black" points="378.54,-1663.5 378.54,-1962.5 567.54,-1962.5 567.54,-1663.5 378.54,-1663.5"/>
<text text-anchor="middle" x="473.04" y="-1950.5" font-family="Helvetica,sans-Serif" font-size="10.00">VideoManager</text>
<polyline fill="none" stroke="black" points="378.54,-1943.5 567.54,-1943.5 "/>
<text text-anchor="start" x="386.54" y="-1931.5" font-family="Helvetica,sans-Serif" font-size="10.00">+ int width</text>
<text text-anchor="start" x="386.54" y="-1920.5" font-family="Helvetica,sans-Serif" font-size="10.00">+ int height</text>
<text text-anchor="start" x="386.54" y="-1909.5" font-family="Helvetica,sans-Serif" font-size="10.00">+ float aspectRatio</text>
<text text-anchor="start" x="386.54" y="-1898.5" font-family="Helvetica,sans-Serif" font-size="10.00">+ ulong bitrate</text>
<text text-anchor="start" x="386.54" y="-1887.5" font-family="Helvetica,sans-Serif" font-size="10.00">+ uint framerate</text>
<text text-anchor="start" x="386.54" y="-1876.5" font-family="Helvetica,sans-Serif" font-size="10.00">+ bool isRecording</text>
<text text-anchor="start" x="386.54" y="-1865.5" font-family="Helvetica,sans-Serif" font-size="10.00">+ RawImage videoRawImage</text>
<text text-anchor="start" x="386.54" y="-1854.5" font-family="Helvetica,sans-Serif" font-size="10.00">+ VideoStreamTrack videoStreamTrack</text>
<text text-anchor="start" x="386.54" y="-1843.5" font-family="Helvetica,sans-Serif" font-size="10.00">+ bool videoDisabled</text>
<text text-anchor="start" x="386.54" y="-1832.5" font-family="Helvetica,sans-Serif" font-size="10.00">+ Camera mainCam</text>
<text text-anchor="start" x="386.54" y="-1821.5" font-family="Helvetica,sans-Serif" font-size="10.00">+ ARSession arSession</text>
<text text-anchor="start" x="386.54" y="-1810.5" font-family="Helvetica,sans-Serif" font-size="10.00">&#45; Camera arCam</text>
<text text-anchor="start" x="386.54" y="-1799.5" font-family="Helvetica,sans-Serif" font-size="10.00">&#45; Camera webCam</text>
<text text-anchor="start" x="386.54" y="-1788.5" font-family="Helvetica,sans-Serif" font-size="10.00">&#45; RawImage webCamRawImage</text>
<text text-anchor="start" x="386.54" y="-1777.5" font-family="Helvetica,sans-Serif" font-size="10.00">&#45; WebCamTexture webcamTexture</text>
<text text-anchor="start" x="386.54" y="-1766.5" font-family="Helvetica,sans-Serif" font-size="10.00">&#45; GameObject noVideoAR</text>
<text text-anchor="start" x="386.54" y="-1755.5" font-family="Helvetica,sans-Serif" font-size="10.00">&#45; GameObject noVideoUI</text>
<text text-anchor="start" x="386.54" y="-1744.5" font-family="Helvetica,sans-Serif" font-size="10.00">&#45; Canvas arToolTipsUI</text>
<polyline fill="none" stroke="black" points="378.54,-1737.5 567.54,-1737.5 "/>
<text text-anchor="start" x="386.54" y="-1725.5" font-family="Helvetica,sans-Serif" font-size="10.00">+ VideoStreamTrack RecordCamera()</text>
<text text-anchor="start" x="386.54" y="-1714.5" font-family="Helvetica,sans-Serif" font-size="10.00">+ void ShowVideo(bool show)</text>
<text text-anchor="start" x="386.54" y="-1703.5" font-family="Helvetica,sans-Serif" font-size="10.00">+ bool ToggleVideo()</text>
<text text-anchor="start" x="386.54" y="-1692.5" font-family="Helvetica,sans-Serif" font-size="10.00">&#45; void Awake()</text>
<text text-anchor="start" x="386.54" y="-1681.5" font-family="Helvetica,sans-Serif" font-size="10.00">&#45; void Start()</text>
<text text-anchor="start" x="386.54" y="-1670.5" font-family="Helvetica,sans-Serif" font-size="10.00">&#45; void OnApplicationPause(bool paused)</text>
</a>
</g>
</g>
<!-- Node2&#45;&gt;Node5 -->
<g id="edge7" class="edge">
<title>Node2&#45;&gt;Node5</title>
<path fill="none" stroke="midnightblue" d="M421.84,-1990.69C424.29,-1982.24 427.04,-1972.76 429.95,-1962.7"/>
<polygon fill="none" stroke="midnightblue" points="418.43,-1989.88 419.01,-2000.46 425.16,-1991.83 418.43,-1989.88"/>
</g>
<!-- Node6 -->
<g id="node6" class="node">
<title>Node6</title>
<g id="a_node6"><a xlink:href="../../d7/d31/class_audio_manager.html" target="_top" xlink:title="Maneja la lógica de la captura y reproducción de audio">
<polygon fill="white" stroke="black" points="53.54,-1169.5 53.54,-1644.5 334.54,-1644.5 334.54,-1169.5 53.54,-1169.5"/>
<text text-anchor="middle" x="194.04" y="-1632.5" font-family="Helvetica,sans-Serif" font-size="10.00">AudioManager</text>
<polyline fill="none" stroke="black" points="53.54,-1625.5 334.54,-1625.5 "/>
<text text-anchor="start" x="61.54" y="-1613.5" font-family="Helvetica,sans-Serif" font-size="10.00">+ bool audioReady</text>
<text text-anchor="start" x="61.54" y="-1602.5" font-family="Helvetica,sans-Serif" font-size="10.00">+ AudioSource outputAudioSource</text>
<text text-anchor="start" x="61.54" y="-1591.5" font-family="Helvetica,sans-Serif" font-size="10.00">+ AudioSource inputAudioSource</text>
<text text-anchor="start" x="61.54" y="-1580.5" font-family="Helvetica,sans-Serif" font-size="10.00">+ int bufferSize</text>
<text text-anchor="start" x="61.54" y="-1569.5" font-family="Helvetica,sans-Serif" font-size="10.00">+ ulong? bitrate</text>
<text text-anchor="start" x="61.54" y="-1558.5" font-family="Helvetica,sans-Serif" font-size="10.00">&#45; AudioStreamTrack audioStreamTrack</text>
<text text-anchor="start" x="61.54" y="-1547.5" font-family="Helvetica,sans-Serif" font-size="10.00">&#45; int lengthSeconds</text>
<text text-anchor="start" x="61.54" y="-1536.5" font-family="Helvetica,sans-Serif" font-size="10.00">&#45; int samplingFreq</text>
<text text-anchor="start" x="61.54" y="-1525.5" font-family="Helvetica,sans-Serif" font-size="10.00">&#45; AndroidJavaObject context</text>
<text text-anchor="start" x="61.54" y="-1514.5" font-family="Helvetica,sans-Serif" font-size="10.00">&#45; AndroidJavaObject androidAudioManager</text>
<text text-anchor="start" x="61.54" y="-1503.5" font-family="Helvetica,sans-Serif" font-size="10.00">&#45; int defaultMode</text>
<text text-anchor="start" x="61.54" y="-1492.5" font-family="Helvetica,sans-Serif" font-size="10.00">&#45; bool defaultIsSpeakerphone</text>
<text text-anchor="start" x="61.54" y="-1481.5" font-family="Helvetica,sans-Serif" font-size="10.00">&#45; int voiceMinVol</text>
<text text-anchor="start" x="61.54" y="-1470.5" font-family="Helvetica,sans-Serif" font-size="10.00">&#45; int mediaMinVol</text>
<text text-anchor="start" x="61.54" y="-1459.5" font-family="Helvetica,sans-Serif" font-size="10.00">&#45; int voiceMaxVol</text>
<text text-anchor="start" x="61.54" y="-1448.5" font-family="Helvetica,sans-Serif" font-size="10.00">&#45; int mediaMaxVol</text>
<text text-anchor="start" x="61.54" y="-1437.5" font-family="Helvetica,sans-Serif" font-size="10.00">&#45; int originalMediaVol</text>
<text text-anchor="start" x="61.54" y="-1426.5" font-family="Helvetica,sans-Serif" font-size="10.00">&#45; PermissionCallbacks microphoneCallbacks</text>
<text text-anchor="start" x="61.54" y="-1415.5" font-family="Helvetica,sans-Serif" font-size="10.00">&#45; bool muted</text>
<text text-anchor="start" x="61.54" y="-1404.5" font-family="Helvetica,sans-Serif" font-size="10.00">&#45; string communicationDevice</text>
<text text-anchor="start" x="61.54" y="-1393.5" font-family="Helvetica,sans-Serif" font-size="10.00">&#45; float[] spectrum</text>
<text text-anchor="start" x="61.54" y="-1382.5" font-family="Helvetica,sans-Serif" font-size="10.00">&#45; int voiceVolume</text>
<text text-anchor="start" x="61.54" y="-1371.5" font-family="Helvetica,sans-Serif" font-size="10.00">&#45; int lastCallVolume</text>
<polyline fill="none" stroke="black" points="53.54,-1364.5 334.54,-1364.5 "/>
<text text-anchor="start" x="61.54" y="-1352.5" font-family="Helvetica,sans-Serif" font-size="10.00">+ bool ToggleMuteInput()</text>
<text text-anchor="start" x="61.54" y="-1341.5" font-family="Helvetica,sans-Serif" font-size="10.00">+ bool ToggleMuteOutput()</text>
<text text-anchor="start" x="61.54" y="-1330.5" font-family="Helvetica,sans-Serif" font-size="10.00">+ AudioStreamTrack RecordAudio()</text>
<text text-anchor="start" x="61.54" y="-1319.5" font-family="Helvetica,sans-Serif" font-size="10.00">+ void PlayAudio(AudioClip clip)</text>
<text text-anchor="start" x="61.54" y="-1308.5" font-family="Helvetica,sans-Serif" font-size="10.00">+ float GetVolume(AudioSource audioSource)</text>
<text text-anchor="start" x="61.54" y="-1297.5" font-family="Helvetica,sans-Serif" font-size="10.00">&#45; void Awake()</text>
<text text-anchor="start" x="61.54" y="-1286.5" font-family="Helvetica,sans-Serif" font-size="10.00">&#45; void Start()</text>
<text text-anchor="start" x="61.54" y="-1275.5" font-family="Helvetica,sans-Serif" font-size="10.00">&#45; void Update()</text>
<text text-anchor="start" x="61.54" y="-1264.5" font-family="Helvetica,sans-Serif" font-size="10.00">&#45; void SetVideocallAudio(int mode, bool isSpeakerphoneOn)</text>
<text text-anchor="start" x="61.54" y="-1253.5" font-family="Helvetica,sans-Serif" font-size="10.00">&#45; float scaleValueToRange(float value, float</text>
<text text-anchor="start" x="61.54" y="-1242.5" font-family="Helvetica,sans-Serif" font-size="10.00"> valueMin, float valueMax, float rangeMin,</text>
<text text-anchor="start" x="61.54" y="-1231.5" font-family="Helvetica,sans-Serif" font-size="10.00"> float rangeMax)</text>
<text text-anchor="start" x="61.54" y="-1220.5" font-family="Helvetica,sans-Serif" font-size="10.00">&#45; void MicrophonePermissionGranted(string permissionName)</text>
<text text-anchor="start" x="61.54" y="-1209.5" font-family="Helvetica,sans-Serif" font-size="10.00">&#45; void MicrophonePermissionDenied(string permissionName)</text>
<text text-anchor="start" x="61.54" y="-1198.5" font-family="Helvetica,sans-Serif" font-size="10.00">&#45; void MicrophonePermissionDeniedAndDontAskAgain</text>
<text text-anchor="start" x="61.54" y="-1187.5" font-family="Helvetica,sans-Serif" font-size="10.00">(string permissionName)</text>
<text text-anchor="start" x="61.54" y="-1176.5" font-family="Helvetica,sans-Serif" font-size="10.00">&#45; void OnDestroy()</text>
</a>
</g>
</g>
<!-- Node2&#45;&gt;Node6 -->
<g id="edge10" class="edge">
<title>Node2&#45;&gt;Node6</title>
<path fill="none" stroke="midnightblue" d="M360.84,-2004.82C351.48,-1998.55 342.59,-1990.97 336.04,-1982 264.82,-1884.65 229.06,-1755.74 211.22,-1644.75"/>
<polygon fill="none" stroke="midnightblue" points="359.18,-2007.9 369.52,-2010.2 362.87,-2001.95 359.18,-2007.9"/>
</g>
<!-- Node7 -->
<g id="node7" class="node">
<title>Node7</title>
<g id="a_node7"><a xlink:href="../../db/d71/class_client_manager.html" target="_top" xlink:title="Maneja la lógica las acciones del cliente">
<polygon fill="white" stroke="black" points="845.54,-978 845.54,-1068 1010.54,-1068 1010.54,-978 845.54,-978"/>
<text text-anchor="middle" x="928.04" y="-1056" font-family="Helvetica,sans-Serif" font-size="10.00">ClientManager</text>
<polyline fill="none" stroke="black" points="845.54,-1049 1010.54,-1049 "/>
<text text-anchor="middle" x="928.04" y="-1037" font-family="Helvetica,sans-Serif" font-size="10.00"> </text>
<polyline fill="none" stroke="black" points="845.54,-1030 1010.54,-1030 "/>
<text text-anchor="start" x="853.54" y="-1018" font-family="Helvetica,sans-Serif" font-size="10.00">+ void SelectTool(string toolName)</text>
<text text-anchor="start" x="853.54" y="-1007" font-family="Helvetica,sans-Serif" font-size="10.00">+ void UndoDrawing()</text>
<text text-anchor="start" x="853.54" y="-996" font-family="Helvetica,sans-Serif" font-size="10.00">+ void DeleteDrawings(string peer)</text>
<text text-anchor="start" x="853.54" y="-985" font-family="Helvetica,sans-Serif" font-size="10.00">+ void SelectColor(string color)</text>
</a>
</g>
</g>
<!-- Node2&#45;&gt;Node7 -->
<g id="edge12" class="edge">
<title>Node2&#45;&gt;Node7</title>
<path fill="none" stroke="midnightblue" d="M462.85,-2028.25C517.57,-2025.65 602.84,-2013.05 654.04,-1963 915.56,-1707.31 930.98,-1217.22 929.28,-1068.12"/>
<polygon fill="none" stroke="midnightblue" points="462.53,-2024.76 452.67,-2028.63 462.8,-2031.75 462.53,-2024.76"/>
</g>
<!-- Node8 -->
<g id="node8" class="node">
<title>Node8</title>
<g id="a_node8"><a xlink:href="../../d7/d5d/class_a_r_tool_manager.html" target="_top" xlink:title="Maneja la lógica de las herramientas de RA">
<polygon fill="white" stroke="black" points="548.54,-895.5 548.54,-1150.5 827.54,-1150.5 827.54,-895.5 548.54,-895.5"/>
<text text-anchor="middle" x="688.04" y="-1138.5" font-family="Helvetica,sans-Serif" font-size="10.00">ARToolManager</text>
<polyline fill="none" stroke="black" points="548.54,-1131.5 827.54,-1131.5 "/>
<text text-anchor="start" x="556.54" y="-1119.5" font-family="Helvetica,sans-Serif" font-size="10.00">+ bool recording</text>
<text text-anchor="start" x="556.54" y="-1108.5" font-family="Helvetica,sans-Serif" font-size="10.00">+ Material hostMaterial</text>
<text text-anchor="start" x="556.54" y="-1097.5" font-family="Helvetica,sans-Serif" font-size="10.00">+ Material clientMaterial</text>
<text text-anchor="start" x="556.54" y="-1086.5" font-family="Helvetica,sans-Serif" font-size="10.00">+ Material ColorRed</text>
<text text-anchor="start" x="556.54" y="-1075.5" font-family="Helvetica,sans-Serif" font-size="10.00">+ Material ColorBlue</text>
<text text-anchor="start" x="556.54" y="-1064.5" font-family="Helvetica,sans-Serif" font-size="10.00">+ Material ColorGreen</text>
<text text-anchor="start" x="556.54" y="-1053.5" font-family="Helvetica,sans-Serif" font-size="10.00">+ Material ColorYellow</text>
<text text-anchor="start" x="556.54" y="-1042.5" font-family="Helvetica,sans-Serif" font-size="10.00">+ GameObject guidePrefab</text>
<text text-anchor="start" x="556.54" y="-1031.5" font-family="Helvetica,sans-Serif" font-size="10.00">+ static GameObject hostDrawings</text>
<text text-anchor="start" x="556.54" y="-1020.5" font-family="Helvetica,sans-Serif" font-size="10.00">+ static GameObject clientDrawings</text>
<text text-anchor="start" x="556.54" y="-1009.5" font-family="Helvetica,sans-Serif" font-size="10.00">+ static GameObject hostGuides</text>
<text text-anchor="start" x="556.54" y="-998.5" font-family="Helvetica,sans-Serif" font-size="10.00">+ static GameObject clientGuides</text>
<text text-anchor="start" x="556.54" y="-987.5" font-family="Helvetica,sans-Serif" font-size="10.00">&#45; GameObject hostTools</text>
<text text-anchor="start" x="556.54" y="-976.5" font-family="Helvetica,sans-Serif" font-size="10.00">&#45; GameObject clientTools</text>
<polyline fill="none" stroke="black" points="548.54,-969.5 827.54,-969.5 "/>
<text text-anchor="start" x="556.54" y="-957.5" font-family="Helvetica,sans-Serif" font-size="10.00">+ void SelectTool(PeerType peer, string toolName)</text>
<text text-anchor="start" x="556.54" y="-946.5" font-family="Helvetica,sans-Serif" font-size="10.00">+ void UndoDrawing(string peer)</text>
<text text-anchor="start" x="556.54" y="-935.5" font-family="Helvetica,sans-Serif" font-size="10.00">+ void DeleteDrawings(string peer)</text>
<text text-anchor="start" x="556.54" y="-924.5" font-family="Helvetica,sans-Serif" font-size="10.00">+ void SelectColor(PeerType peer, string color)</text>
<text text-anchor="start" x="556.54" y="-913.5" font-family="Helvetica,sans-Serif" font-size="10.00">+ GameObject PlaceGuide(PeerType peer, Transform target)</text>
<text text-anchor="start" x="556.54" y="-902.5" font-family="Helvetica,sans-Serif" font-size="10.00">&#45; void Awake()</text>
</a>
</g>
</g>
<!-- Node2&#45;&gt;Node8 -->
<g id="edge14" class="edge">
<title>Node2&#45;&gt;Node8</title>
<path fill="none" stroke="midnightblue" d="M462.98,-2021.64C500.47,-2014.17 549.05,-1997.98 576.04,-1963 759.81,-1724.8 737.87,-1346.47 710.56,-1150.69"/>
<polygon fill="none" stroke="midnightblue" points="461.93,-2018.28 452.73,-2023.53 463.2,-2025.16 461.93,-2018.28"/>
</g>
<!-- Node9 -->
<g id="node9" class="node">
<title>Node9</title>
<g id="a_node9"><a xlink:href="../../dc/da3/class_recorder_manager.html" target="_top" xlink:title="Maneja la lógica de la grabación de tutoriales">
<polygon fill="white" stroke="black" points="927.54,-742.5 927.54,-876.5 1118.54,-876.5 1118.54,-742.5 927.54,-742.5"/>
<text text-anchor="middle" x="1023.04" y="-864.5" font-family="Helvetica,sans-Serif" font-size="10.00">RecorderManager</text>
<polyline fill="none" stroke="black" points="927.54,-857.5 1118.54,-857.5 "/>
<text text-anchor="start" x="935.54" y="-845.5" font-family="Helvetica,sans-Serif" font-size="10.00">&#45; bool isRecording</text>
<text text-anchor="start" x="935.54" y="-834.5" font-family="Helvetica,sans-Serif" font-size="10.00">&#45; AndroidUtils androidUtils</text>
<polyline fill="none" stroke="black" points="927.54,-827.5 1118.54,-827.5 "/>
<text text-anchor="start" x="935.54" y="-815.5" font-family="Helvetica,sans-Serif" font-size="10.00">+ bool ToggleRecord()</text>
<text text-anchor="start" x="935.54" y="-804.5" font-family="Helvetica,sans-Serif" font-size="10.00">&#45; void Awake()</text>
<text text-anchor="start" x="935.54" y="-793.5" font-family="Helvetica,sans-Serif" font-size="10.00">&#45; void Start()</text>
<text text-anchor="start" x="935.54" y="-782.5" font-family="Helvetica,sans-Serif" font-size="10.00">&#45; void StartRecording()</text>
<text text-anchor="start" x="935.54" y="-771.5" font-family="Helvetica,sans-Serif" font-size="10.00">&#45; void StopRecording()</text>
<text text-anchor="start" x="935.54" y="-760.5" font-family="Helvetica,sans-Serif" font-size="10.00">&#45; void onStopRecord()</text>
<text text-anchor="start" x="935.54" y="-749.5" font-family="Helvetica,sans-Serif" font-size="10.00">&#45; void OnApplicationFocus(bool focused)</text>
</a>
</g>
</g>
<!-- Node2&#45;&gt;Node9 -->
<g id="edge18" class="edge">
<title>Node2&#45;&gt;Node9</title>
<path fill="none" stroke="midnightblue" d="M462.57,-2024.22C547.95,-2017.02 713.81,-1998.76 759.04,-1963 1100.59,-1692.93 1057.37,-1079.12 1032.53,-876.66"/>
<polygon fill="none" stroke="midnightblue" points="462.25,-2020.73 452.57,-2025.04 462.83,-2027.71 462.25,-2020.73"/>
</g>
<!-- Node3&#45;&gt;Node1 -->
<g id="edge2" class="edge">
<title>Node3&#45;&gt;Node1</title>
<path fill="none" stroke="#404040" d="M576.53,-336.41C583.78,-323.99 591.03,-311.57 598.16,-299.37"/>
<polygon fill="none" stroke="#404040" points="598.33,-299.07 597.91,-291.87 604.39,-288.71 604.81,-295.91 598.33,-299.07"/>
<text text-anchor="middle" x="627.04" y="-310" font-family="Helvetica,sans-Serif" font-size="10.00"> &#45;peerConnection</text>
</g>
<!-- Node4&#45;&gt;Node3 -->
<g id="edge4" class="edge">
<title>Node4&#45;&gt;Node3</title>
<path fill="none" stroke="#404040" d="M347.48,-917.3C356.4,-864.27 369.05,-799.18 385.04,-742 385.64,-739.83 386.26,-737.66 386.89,-735.48"/>
<polygon fill="none" stroke="#404040" points="386.96,-735.24 384.83,-728.36 390.37,-723.74 392.5,-730.63 386.96,-735.24"/>
<text text-anchor="middle" x="417.54" y="-807" font-family="Helvetica,sans-Serif" font-size="10.00"> &#45;inputManager</text>
</g>
<!-- Node5&#45;&gt;Node3 -->
<g id="edge8" class="edge">
<title>Node5&#45;&gt;Node3</title>
<path fill="none" stroke="#404040" d="M471.99,-1663.49C470.38,-1434.52 467.29,-994.71 465.47,-735.71"/>
<polygon fill="none" stroke="#404040" points="465.47,-735.52 461.43,-729.55 465.39,-723.52 469.43,-729.49 465.47,-735.52"/>
<text text-anchor="middle" x="502.04" y="-1020.5" font-family="Helvetica,sans-Serif" font-size="10.00"> &#45;videoManager</text>
</g>
<!-- Node5&#45;&gt;Node4 -->
<g id="edge6" class="edge">
<title>Node5&#45;&gt;Node4</title>
<path fill="none" stroke="#404040" d="M389.7,-1663.1C387.6,-1657.06 385.69,-1651.02 384.04,-1645 355.89,-1542.91 374.01,-1274.1 361.04,-1169 359.9,-1159.77 358.5,-1150.26 356.94,-1140.72"/>
<polygon fill="none" stroke="#404040" points="356.9,-1140.47 351.95,-1135.22 354.89,-1128.64 359.83,-1133.88 356.9,-1140.47"/>
<text text-anchor="middle" x="417.04" y="-1404.5" font-family="Helvetica,sans-Serif" font-size="10.00"> &#45;videoManager</text>
</g>
<!-- Node6&#45;&gt;Node3 -->
<g id="edge9" class="edge">
<title>Node6&#45;&gt;Node3</title>
<path fill="none" stroke="#404040" d="M138.74,-1169.49C128.22,-1081.11 128.74,-981.3 160.04,-895 189.4,-814.03 245.52,-738.46 301.64,-677.39"/>
<polygon fill="none" stroke="#404040" points="301.74,-677.28 302.9,-670.16 309.91,-668.49 308.76,-675.6 301.74,-677.28"/>
<text text-anchor="middle" x="193.54" y="-1020.5" font-family="Helvetica,sans-Serif" font-size="10.00"> &#45;audioManager</text>
</g>
<!-- Node7&#45;&gt;Node1 -->
<g id="edge16" class="edge">
<title>Node7&#45;&gt;Node1</title>
<path fill="none" stroke="#404040" d="M922.47,-977.54C915.13,-922.03 900.89,-824.35 882.04,-742 840.04,-558.59 822.82,-514.07 762.04,-336 758.04,-324.29 753.76,-312.25 749.35,-300.16"/>
<polygon fill="none" stroke="#404040" points="749.23,-299.84 743.4,-295.59 745.08,-288.58 750.91,-292.83 749.23,-299.84"/>
<text text-anchor="middle" x="909.54" y="-527.5" font-family="Helvetica,sans-Serif" font-size="10.00"> &#45;clientManager</text>
</g>
<!-- Node7&#45;&gt;Node3 -->
<g id="edge11" class="edge">
<title>Node7&#45;&gt;Node3</title>
<path fill="none" stroke="#404040" d="M899.75,-977.72C882.65,-952.38 859.65,-920.63 836.04,-895 827.71,-885.96 824.08,-885.32 815.04,-877 813.72,-875.79 718.06,-781.49 626.94,-691.65"/>
<polygon fill="none" stroke="#404040" points="626.69,-691.4 619.61,-690.03 618.14,-682.97 625.23,-684.34 626.69,-691.4"/>
<text text-anchor="middle" x="848.54" y="-807" font-family="Helvetica,sans-Serif" font-size="10.00"> &#45;clientManager</text>
</g>
<!-- Node8&#45;&gt;Node1 -->
<g id="edge15" class="edge">
<title>Node8&#45;&gt;Node1</title>
<path fill="none" stroke="#404040" d="M688.04,-895.49C688.04,-738.31 688.04,-470.21 688.04,-300.75"/>
<polygon fill="none" stroke="#404040" points="688.04,-300.72 684.04,-294.72 688.04,-288.72 692.04,-294.72 688.04,-300.72"/>
<text text-anchor="middle" x="723.04" y="-527.5" font-family="Helvetica,sans-Serif" font-size="10.00"> &#45;arToolManager</text>
</g>
<!-- Node8&#45;&gt;Node3 -->
<g id="edge13" class="edge">
<title>Node8&#45;&gt;Node3</title>
<path fill="none" stroke="#404040" d="M613.25,-895.24C610.06,-889.11 606.97,-883.01 604.04,-877 581.97,-831.86 560.42,-782.33 541.11,-735.2"/>
<polygon fill="none" stroke="#404040" points="541.04,-735.03 535.07,-730.98 536.51,-723.92 542.48,-727.96 541.04,-735.03"/>
<text text-anchor="middle" x="639.04" y="-807" font-family="Helvetica,sans-Serif" font-size="10.00"> &#45;arToolManager</text>
</g>
<!-- Node9&#45;&gt;Node1 -->
<g id="edge17" class="edge">
<title>Node9&#45;&gt;Node1</title>
<path fill="none" stroke="#404040" d="M1031.5,-742.32C1040.47,-645.6 1044.21,-463.34 967.04,-336 934.12,-281.69 879.13,-239.24 826.64,-208.33"/>
<polygon fill="none" stroke="#404040" points="826.58,-208.3 819.38,-208.77 816.18,-202.31 823.37,-201.84 826.58,-208.3"/>
<text text-anchor="middle" x="1075.54" y="-527.5" font-family="Helvetica,sans-Serif" font-size="10.00"> &#45;recorderManager</text>
</g>
</g>
</svg>
