<?xml version="1.0" encoding="UTF-8" standalone="no"?>
<!DOCTYPE svg PUBLIC "-//W3C//DTD SVG 1.1//EN"
 "http://www.w3.org/Graphics/SVG/1.1/DTD/svg11.dtd">
<!-- Generated by graphviz version 2.49.0 (20210828.1703)
 -->
<!-- Title: ContactsController.Start Pages: 1 -->
<svg width="819pt" height="161pt"
 viewBox="0.00 0.00 819.00 161.00" xmlns="http://www.w3.org/2000/svg" xmlns:xlink="http://www.w3.org/1999/xlink">
<g id="graph0" class="graph" transform="scale(1 1) rotate(0) translate(4 157)">
<title>ContactsController.Start</title>
<polygon fill="white" stroke="transparent" points="-4,4 -4,-157 815,-157 815,4 -4,4"/>
<!-- Node1 -->
<g id="node1" class="node">
<title>Node1</title>
<g id="a_node1"><a xlink:title="Llamada justo antes del primer fotograma">
<polygon fill="#bfbfbf" stroke="black" points="0,-76.5 0,-95.5 121,-95.5 121,-76.5 0,-76.5"/>
<text text-anchor="middle" x="60.5" y="-83.5" font-family="Helvetica,sans-Serif" font-size="10.00">ContactsController.Start</text>
</a>
</g>
</g>
<!-- Node2 -->
<g id="node2" class="node">
<title>Node2</title>
<g id="a_node2"><a xlink:href="../../db/d20/class_contacts_controller.html#a82e0a0a5ae1fc7cbef3e4cb49d74dc31" target="_top" xlink:title="Inicializa todos los elementos necesarios de la lista de contactos y la muestra en la interfaz">
<polygon fill="white" stroke="black" points="157,-76.5 157,-95.5 320,-95.5 320,-76.5 157,-76.5"/>
<text text-anchor="middle" x="238.5" y="-83.5" font-family="Helvetica,sans-Serif" font-size="10.00">ContactsController.ShowContacts</text>
</a>
</g>
</g>
<!-- Node1&#45;&gt;Node2 -->
<g id="edge1" class="edge">
<title>Node1&#45;&gt;Node2</title>
<path fill="none" stroke="midnightblue" d="M121.09,-86C129.33,-86 137.94,-86 146.6,-86"/>
<polygon fill="midnightblue" stroke="midnightblue" points="146.75,-89.5 156.75,-86 146.75,-82.5 146.75,-89.5"/>
</g>
<!-- Node3 -->
<g id="node3" class="node">
<title>Node3</title>
<g id="a_node3"><a xlink:href="../../d5/dd7/class_database_manager.html#a322c76e999c83719f38cf419cf9f800a" target="_top" xlink:title="Obtiene el userID de un usuario a partir de su número de teléfono">
<polygon fill="white" stroke="black" points="394,-133.5 394,-152.5 537,-152.5 537,-133.5 394,-133.5"/>
<text text-anchor="middle" x="465.5" y="-140.5" font-family="Helvetica,sans-Serif" font-size="10.00">DatabaseManager.GetUserID</text>
</a>
</g>
</g>
<!-- Node2&#45;&gt;Node3 -->
<g id="edge2" class="edge">
<title>Node2&#45;&gt;Node3</title>
<path fill="none" stroke="midnightblue" d="M265.11,-95.52C288.51,-103.93 324.21,-116.07 356,-124 367.31,-126.82 379.38,-129.37 391.21,-131.63"/>
<polygon fill="midnightblue" stroke="midnightblue" points="390.6,-135.07 401.07,-133.45 391.87,-128.19 390.6,-135.07"/>
</g>
<!-- Node4 -->
<g id="node4" class="node">
<title>Node4</title>
<g id="a_node4"><a xlink:href="../../d2/d43/class_room_manager.html#a022ae9cafc8dedb55ca839e0d99c5b44" target="_top" xlink:title="Mueve un par a una sala">
<polygon fill="white" stroke="black" points="403,-95.5 403,-114.5 528,-114.5 528,-95.5 403,-95.5"/>
<text text-anchor="middle" x="465.5" y="-102.5" font-family="Helvetica,sans-Serif" font-size="10.00">RoomManager.JoinRoom</text>
</a>
</g>
</g>
<!-- Node2&#45;&gt;Node4 -->
<g id="edge3" class="edge">
<title>Node2&#45;&gt;Node4</title>
<path fill="none" stroke="midnightblue" d="M320.09,-92.81C343.82,-94.81 369.61,-96.99 392.74,-98.94"/>
<polygon fill="midnightblue" stroke="midnightblue" points="392.56,-102.44 402.82,-99.79 393.15,-95.46 392.56,-102.44"/>
</g>
<!-- Node7 -->
<g id="node7" class="node">
<title>Node7</title>
<g id="a_node7"><a xlink:href="../../dd/dcc/class_sharing_manager.html#a6b0c8c96f7f5624110bcf03a1c3dad3b" target="_top" xlink:title="Envia una notifiación">
<polygon fill="white" stroke="black" points="385,-57.5 385,-76.5 546,-76.5 546,-57.5 385,-57.5"/>
<text text-anchor="middle" x="465.5" y="-64.5" font-family="Helvetica,sans-Serif" font-size="10.00">SharingManager.SendNotification</text>
</a>
</g>
</g>
<!-- Node2&#45;&gt;Node7 -->
<g id="edge6" class="edge">
<title>Node2&#45;&gt;Node7</title>
<path fill="none" stroke="midnightblue" d="M320.09,-79.19C337.78,-77.7 356.61,-76.11 374.64,-74.59"/>
<polygon fill="midnightblue" stroke="midnightblue" points="375.18,-78.06 384.85,-73.73 374.59,-71.08 375.18,-78.06"/>
</g>
<!-- Node8 -->
<g id="node8" class="node">
<title>Node8</title>
<g id="a_node8"><a xlink:href="../../dd/dcc/class_sharing_manager.html#aae88ccb9e92ceeed9c6e6281a192f698" target="_top" xlink:title="Comparte un código de sala con un contacto de whatsapp">
<polygon fill="white" stroke="black" points="356,-19.5 356,-38.5 575,-38.5 575,-19.5 356,-19.5"/>
<text text-anchor="middle" x="465.5" y="-26.5" font-family="Helvetica,sans-Serif" font-size="10.00">SharingManager.ShareRoomWhatsappContact</text>
</a>
</g>
</g>
<!-- Node2&#45;&gt;Node8 -->
<g id="edge7" class="edge">
<title>Node2&#45;&gt;Node8</title>
<path fill="none" stroke="midnightblue" d="M265.11,-76.48C288.51,-68.07 324.21,-55.93 356,-48 367.31,-45.18 379.38,-42.63 391.21,-40.37"/>
<polygon fill="midnightblue" stroke="midnightblue" points="391.87,-43.81 401.07,-38.55 390.6,-36.93 391.87,-43.81"/>
</g>
<!-- Node5 -->
<g id="node5" class="node">
<title>Node5</title>
<g id="a_node5"><a xlink:href="../../d3/dda/class_my_scene_manager.html#a6787f49b73d5e0c4e80fd67d38f5550a" target="_top" xlink:title="Carga la escena seleccionada">
<polygon fill="white" stroke="black" points="637.5,-123.5 637.5,-142.5 784.5,-142.5 784.5,-123.5 637.5,-123.5"/>
<text text-anchor="middle" x="711" y="-130.5" font-family="Helvetica,sans-Serif" font-size="10.00">MySceneManager.LoadScene</text>
</a>
</g>
</g>
<!-- Node4&#45;&gt;Node5 -->
<g id="edge4" class="edge">
<title>Node4&#45;&gt;Node5</title>
<path fill="none" stroke="midnightblue" d="M528.26,-112.1C558.39,-115.57 595.07,-119.78 627.55,-123.52"/>
<polygon fill="midnightblue" stroke="midnightblue" points="627.16,-127 637.49,-124.66 627.96,-120.04 627.16,-127"/>
</g>
<!-- Node6 -->
<g id="node6" class="node">
<title>Node6</title>
<g id="a_node6"><a xlink:href="../../d5/dd7/class_database_manager.html#a26b78f4ef7989b67f825194863df0357" target="_top" xlink:title="Evalua si un código de sala existe en base de datos">
<polygon fill="white" stroke="black" points="630.5,-85.5 630.5,-104.5 791.5,-104.5 791.5,-85.5 630.5,-85.5"/>
<text text-anchor="middle" x="711" y="-92.5" font-family="Helvetica,sans-Serif" font-size="10.00">DatabaseManager.RoomIDExists</text>
</a>
</g>
</g>
<!-- Node4&#45;&gt;Node6 -->
<g id="edge5" class="edge">
<title>Node4&#45;&gt;Node6</title>
<path fill="none" stroke="midnightblue" d="M528.26,-102.46C556.11,-101.32 589.54,-99.95 620.1,-98.69"/>
<polygon fill="midnightblue" stroke="midnightblue" points="620.49,-102.18 630.33,-98.27 620.2,-95.19 620.49,-102.18"/>
</g>
<!-- Node9 -->
<g id="node9" class="node">
<title>Node9</title>
<g id="a_node9"><a xlink:href="../../dd/dcc/class_sharing_manager.html#a039a42cca85530f5e71e396bda0bc95b" target="_top" xlink:title="Crea un enlace dinámico a una sala">
<polygon fill="white" stroke="black" points="611,-38.5 611,-57.5 811,-57.5 811,-38.5 611,-38.5"/>
<text text-anchor="middle" x="711" y="-45.5" font-family="Helvetica,sans-Serif" font-size="10.00">SharingManager.CreateDynamicRoomLink</text>
</a>
</g>
</g>
<!-- Node8&#45;&gt;Node9 -->
<g id="edge8" class="edge">
<title>Node8&#45;&gt;Node9</title>
<path fill="none" stroke="midnightblue" d="M575.08,-37.47C583.64,-38.14 592.3,-38.82 600.87,-39.48"/>
<polygon fill="midnightblue" stroke="midnightblue" points="600.64,-42.98 610.89,-40.27 601.19,-36 600.64,-42.98"/>
</g>
<!-- Node10 -->
<g id="node10" class="node">
<title>Node10</title>
<g id="a_node10"><a xlink:href="../../dd/dcc/class_sharing_manager.html#a1297b7c8e2a23a2f1b179717015405a7" target="_top" xlink:title="Crea el mensaje a compartir">
<polygon fill="white" stroke="black" points="633.5,-0.5 633.5,-19.5 788.5,-19.5 788.5,-0.5 633.5,-0.5"/>
<text text-anchor="middle" x="711" y="-7.5" font-family="Helvetica,sans-Serif" font-size="10.00">SharingManager.ShareMessage</text>
</a>
</g>
</g>
<!-- Node8&#45;&gt;Node10 -->
<g id="edge9" class="edge">
<title>Node8&#45;&gt;Node10</title>
<path fill="none" stroke="midnightblue" d="M575.08,-20.53C591.2,-19.27 607.64,-17.99 623.24,-16.77"/>
<polygon fill="midnightblue" stroke="midnightblue" points="623.66,-20.25 633.36,-15.98 623.11,-13.27 623.66,-20.25"/>
</g>
</g>
</svg>
