<?xml version="1.0" encoding="UTF-8" standalone="no"?>
<!DOCTYPE svg PUBLIC "-//W3C//DTD SVG 1.1//EN"
 "http://www.w3.org/Graphics/SVG/1.1/DTD/svg11.dtd">
<!-- Generated by graphviz version 2.49.0 (20210828.1703)
 -->
<!-- Title: RecorderManager Pages: 1 -->
<svg width="199pt" height="237pt"
 viewBox="0.00 0.00 199.00 237.00" xmlns="http://www.w3.org/2000/svg" xmlns:xlink="http://www.w3.org/1999/xlink">
<g id="graph0" class="graph" transform="scale(1 1) rotate(0) translate(4 233)">
<title>RecorderManager</title>
<polygon fill="white" stroke="transparent" points="-4,4 -4,-233 195,-233 195,4 -4,4"/>
<!-- Node1 -->
<g id="node1" class="node">
<title>Node1</title>
<g id="a_node1"><a xlink:title="Maneja la lógica de la grabación de tutoriales">
<polygon fill="#bfbfbf" stroke="black" points="0,-0.5 0,-134.5 191,-134.5 191,-0.5 0,-0.5"/>
<text text-anchor="middle" x="95.5" y="-122.5" font-family="Helvetica,sans-Serif" font-size="10.00">RecorderManager</text>
<polyline fill="none" stroke="black" points="0,-115.5 191,-115.5 "/>
<text text-anchor="start" x="8" y="-103.5" font-family="Helvetica,sans-Serif" font-size="10.00">&#45; bool isRecording</text>
<text text-anchor="start" x="8" y="-92.5" font-family="Helvetica,sans-Serif" font-size="10.00">&#45; AndroidUtils androidUtils</text>
<polyline fill="none" stroke="black" points="0,-85.5 191,-85.5 "/>
<text text-anchor="start" x="8" y="-73.5" font-family="Helvetica,sans-Serif" font-size="10.00">+ bool ToggleRecord()</text>
<text text-anchor="start" x="8" y="-62.5" font-family="Helvetica,sans-Serif" font-size="10.00">&#45; void Awake()</text>
<text text-anchor="start" x="8" y="-51.5" font-family="Helvetica,sans-Serif" font-size="10.00">&#45; void Start()</text>
<text text-anchor="start" x="8" y="-40.5" font-family="Helvetica,sans-Serif" font-size="10.00">&#45; void StartRecording()</text>
<text text-anchor="start" x="8" y="-29.5" font-family="Helvetica,sans-Serif" font-size="10.00">&#45; void StopRecording()</text>
<text text-anchor="start" x="8" y="-18.5" font-family="Helvetica,sans-Serif" font-size="10.00">&#45; void onStopRecord()</text>
<text text-anchor="start" x="8" y="-7.5" font-family="Helvetica,sans-Serif" font-size="10.00">&#45; void OnApplicationFocus(bool focused)</text>
</a>
</g>
</g>
<!-- Node2 -->
<g id="node2" class="node">
<title>Node2</title>
<g id="a_node2"><a xlink:title=" ">
<polygon fill="white" stroke="#bfbfbf" points="54,-171.5 54,-228.5 137,-228.5 137,-171.5 54,-171.5"/>
<text text-anchor="middle" x="95.5" y="-216.5" font-family="Helvetica,sans-Serif" font-size="10.00">MonoBehaviour</text>
<polyline fill="none" stroke="#bfbfbf" points="54,-209.5 137,-209.5 "/>
<text text-anchor="middle" x="95.5" y="-197.5" font-family="Helvetica,sans-Serif" font-size="10.00"> </text>
<polyline fill="none" stroke="#bfbfbf" points="54,-190.5 137,-190.5 "/>
<text text-anchor="middle" x="95.5" y="-178.5" font-family="Helvetica,sans-Serif" font-size="10.00"> </text>
</a>
</g>
</g>
<!-- Node2&#45;&gt;Node1 -->
<g id="edge1" class="edge">
<title>Node2&#45;&gt;Node1</title>
<path fill="none" stroke="midnightblue" d="M95.5,-161.16C95.5,-152.78 95.5,-143.67 95.5,-134.53"/>
<polygon fill="none" stroke="midnightblue" points="92,-161.32 95.5,-171.32 99,-161.32 92,-161.32"/>
</g>
</g>
</svg>
