<?xml version="1.0" encoding="UTF-8" standalone="no"?>
<!DOCTYPE svg PUBLIC "-//W3C//DTD SVG 1.1//EN"
 "http://www.w3.org/Graphics/SVG/1.1/DTD/svg11.dtd">
<!-- Generated by graphviz version 2.49.0 (20210828.1703)
 -->
<!-- Title: DatabaseManager.OnClientReadyDelegate Pages: 1 -->
<svg width="1322pt" height="161pt"
 viewBox="0.00 0.00 1322.00 161.13" xmlns="http://www.w3.org/2000/svg" xmlns:xlink="http://www.w3.org/1999/xlink">
<g id="graph0" class="graph" transform="scale(1 1) rotate(0) translate(4 157.13)">
<title>DatabaseManager.OnClientReadyDelegate</title>
<polygon fill="white" stroke="transparent" points="-4,4 -4,-157.13 1318,-157.13 1318,4 -4,4"/>
<!-- Node1 -->
<g id="node1" class="node">
<title>Node1</title>
<g id="a_node1"><a xlink:title="Lanza el evento OnClientReady">
<polygon fill="#bfbfbf" stroke="black" points="1112,-38.63 1112,-57.63 1314,-57.63 1314,-38.63 1112,-38.63"/>
<text text-anchor="middle" x="1213" y="-45.63" font-family="Helvetica,sans-Serif" font-size="10.00">DatabaseManager.OnClientReadyDelegate</text>
</a>
</g>
</g>
<!-- Node2 -->
<g id="node2" class="node">
<title>Node2</title>
<g id="a_node2"><a xlink:href="../../d5/dd7/class_database_manager.html#a7373a5a3ba0f6b44b5c7a96587b7afa1" target="_top" xlink:title="Señaliza en base de datos que un par esta listo para la conexión">
<polygon fill="white" stroke="black" points="924,-19.63 924,-38.63 1070,-38.63 1070,-19.63 924,-19.63"/>
<text text-anchor="middle" x="997" y="-26.63" font-family="Helvetica,sans-Serif" font-size="10.00">DatabaseManager.ReadyUser</text>
</a>
</g>
</g>
<!-- Node1&#45;&gt;Node2 -->
<g id="edge1" class="edge">
<title>Node1&#45;&gt;Node2</title>
<path fill="none" stroke="midnightblue" d="M1101.68,-38.33C1091.03,-37.39 1080.43,-36.45 1070.29,-35.55"/>
<polygon fill="midnightblue" stroke="midnightblue" points="1101.62,-41.84 1111.89,-39.24 1102.24,-34.87 1101.62,-41.84"/>
</g>
<!-- Node7 -->
<g id="node7" class="node">
<title>Node7</title>
<g id="a_node7"><a xlink:href="../../d5/dd7/class_database_manager.html#a178acb8bd938e615aa34330e64f715ea" target="_top" xlink:title="Señaliza en base de datos que un par no listo para la conexión">
<polygon fill="white" stroke="black" points="918,-57.63 918,-76.63 1076,-76.63 1076,-57.63 918,-57.63"/>
<text text-anchor="middle" x="997" y="-64.63" font-family="Helvetica,sans-Serif" font-size="10.00">DatabaseManager.UnReadyUser</text>
</a>
</g>
</g>
<!-- Node1&#45;&gt;Node7 -->
<g id="edge6" class="edge">
<title>Node1&#45;&gt;Node7</title>
<path fill="none" stroke="midnightblue" d="M1101.78,-57.91C1093.17,-58.68 1084.58,-59.44 1076.25,-60.18"/>
<polygon fill="midnightblue" stroke="midnightblue" points="1102.24,-61.39 1111.89,-57.02 1101.62,-54.41 1102.24,-61.39"/>
</g>
<!-- Node3 -->
<g id="node3" class="node">
<title>Node3</title>
<g id="a_node3"><a xlink:href="../../d2/d48/class_peer_connection_manager.html#a77481735fed0e6e7c602e8a2bea821d4" target="_top" xlink:title="Señaliza que el par esta listo para la conexión">
<polygon fill="white" stroke="black" points="702,-19.63 702,-38.63 876,-38.63 876,-19.63 702,-19.63"/>
<text text-anchor="middle" x="789" y="-26.63" font-family="Helvetica,sans-Serif" font-size="10.00">PeerConnectionManager.ReadyUser</text>
</a>
</g>
</g>
<!-- Node2&#45;&gt;Node3 -->
<g id="edge2" class="edge">
<title>Node2&#45;&gt;Node3</title>
<path fill="none" stroke="midnightblue" d="M913.69,-29.13C901.35,-29.13 888.59,-29.13 876.16,-29.13"/>
<polygon fill="midnightblue" stroke="midnightblue" points="913.95,-32.63 923.95,-29.13 913.95,-25.63 913.95,-32.63"/>
</g>
<!-- Node6 -->
<g id="node6" class="node">
<title>Node6</title>
<g id="a_node6"><a xlink:href="../../d2/d48/class_peer_connection_manager.html#a058148001392c4d6106cc784ec477256" target="_top" xlink:title="Llamada justo antes del primer fotograma">
<polygon fill="white" stroke="black" points="0,-19.63 0,-38.63 147,-38.63 147,-19.63 0,-19.63"/>
<text text-anchor="middle" x="73.5" y="-26.63" font-family="Helvetica,sans-Serif" font-size="10.00">PeerConnectionManager.Start</text>
</a>
</g>
</g>
<!-- Node2&#45;&gt;Node6 -->
<g id="edge5" class="edge">
<title>Node2&#45;&gt;Node6</title>
<path fill="none" stroke="midnightblue" d="M939.7,-17.85C921.38,-14.69 900.9,-11.69 882,-10.13 611.58,12.25 288.62,-10.05 147.04,-22.28"/>
<polygon fill="midnightblue" stroke="midnightblue" points="939.17,-21.31 949.63,-19.61 940.39,-14.42 939.17,-21.31"/>
</g>
<!-- Node4 -->
<g id="node4" class="node">
<title>Node4</title>
<g id="a_node4"><a xlink:href="../../d2/d48/class_peer_connection_manager.html#a32e1f598ed2e0f51ded5bdee39c8c18c" target="_top" xlink:title="Llamada cuando el estado de efonque de la aplicación cambia">
<polygon fill="white" stroke="black" points="426.5,-57.63 426.5,-76.63 640.5,-76.63 640.5,-57.63 426.5,-57.63"/>
<text text-anchor="middle" x="533.5" y="-64.63" font-family="Helvetica,sans-Serif" font-size="10.00">PeerConnectionManager.OnApplicationFocus</text>
</a>
</g>
</g>
<!-- Node3&#45;&gt;Node4 -->
<g id="edge3" class="edge">
<title>Node3&#45;&gt;Node4</title>
<path fill="none" stroke="midnightblue" d="M714.2,-40.19C677.43,-45.7 633.43,-52.3 598.17,-57.58"/>
<polygon fill="midnightblue" stroke="midnightblue" points="714.99,-43.61 724.36,-38.67 713.95,-36.69 714.99,-43.61"/>
</g>
<!-- Node5 -->
<g id="node5" class="node">
<title>Node5</title>
<g id="a_node5"><a xlink:href="../../d2/d48/class_peer_connection_manager.html#a963a5f07932166a3233b9087fc2b0a81" target="_top" xlink:title="Llamada cuando el estado de pausa de la aplicación cambia">
<polygon fill="white" stroke="black" points="426,-19.63 426,-38.63 641,-38.63 641,-19.63 426,-19.63"/>
<text text-anchor="middle" x="533.5" y="-26.63" font-family="Helvetica,sans-Serif" font-size="10.00">PeerConnectionManager.OnApplicationPause</text>
</a>
</g>
</g>
<!-- Node3&#45;&gt;Node5 -->
<g id="edge4" class="edge">
<title>Node3&#45;&gt;Node5</title>
<path fill="none" stroke="midnightblue" d="M691.64,-29.13C675.12,-29.13 657.87,-29.13 641.09,-29.13"/>
<polygon fill="midnightblue" stroke="midnightblue" points="691.82,-32.63 701.82,-29.13 691.82,-25.63 691.82,-32.63"/>
</g>
<!-- Node8 -->
<g id="node8" class="node">
<title>Node8</title>
<g id="a_node8"><a xlink:href="../../d2/d48/class_peer_connection_manager.html#ad792df6efa61aa9a558aab9b76604a87" target="_top" xlink:title="Señaliza que el par no listo para la conexión">
<polygon fill="white" stroke="black" points="696,-57.63 696,-76.63 882,-76.63 882,-57.63 696,-57.63"/>
<text text-anchor="middle" x="789" y="-64.63" font-family="Helvetica,sans-Serif" font-size="10.00">PeerConnectionManager.UnReadyUser</text>
</a>
</g>
</g>
<!-- Node7&#45;&gt;Node8 -->
<g id="edge7" class="edge">
<title>Node7&#45;&gt;Node8</title>
<path fill="none" stroke="midnightblue" d="M907.66,-67.13C899.26,-67.13 890.73,-67.13 882.29,-67.13"/>
<polygon fill="midnightblue" stroke="midnightblue" points="907.83,-70.63 917.83,-67.13 907.83,-63.63 907.83,-70.63"/>
</g>
<!-- Node8&#45;&gt;Node4 -->
<g id="edge12" class="edge">
<title>Node8&#45;&gt;Node4</title>
<path fill="none" stroke="midnightblue" d="M685.64,-67.13C670.89,-67.13 655.68,-67.13 640.86,-67.13"/>
<polygon fill="midnightblue" stroke="midnightblue" points="685.76,-70.63 695.76,-67.13 685.76,-63.63 685.76,-70.63"/>
</g>
<!-- Node8&#45;&gt;Node5 -->
<g id="edge13" class="edge">
<title>Node8&#45;&gt;Node5</title>
<path fill="none" stroke="midnightblue" d="M714.2,-56.06C677.43,-50.55 633.43,-43.96 598.17,-38.67"/>
<polygon fill="midnightblue" stroke="midnightblue" points="713.95,-59.57 724.36,-57.59 714.99,-52.64 713.95,-59.57"/>
</g>
<!-- Node9 -->
<g id="node9" class="node">
<title>Node9</title>
<g id="a_node9"><a xlink:href="../../d2/d48/class_peer_connection_manager.html#ac4577b58d566fb35458448f45920978f" target="_top" xlink:title="Cuelga la videollamada">
<polygon fill="white" stroke="black" points="453,-95.63 453,-114.63 614,-114.63 614,-95.63 453,-95.63"/>
<text text-anchor="middle" x="533.5" y="-102.63" font-family="Helvetica,sans-Serif" font-size="10.00">PeerConnectionManager.HangUp</text>
</a>
</g>
</g>
<!-- Node8&#45;&gt;Node9 -->
<g id="edge8" class="edge">
<title>Node8&#45;&gt;Node9</title>
<path fill="none" stroke="midnightblue" d="M714.2,-78.19C677.43,-83.7 633.43,-90.3 598.17,-95.58"/>
<polygon fill="midnightblue" stroke="midnightblue" points="714.99,-81.61 724.36,-76.67 713.95,-74.69 714.99,-81.61"/>
</g>
<!-- Node12 -->
<g id="node12" class="node">
<title>Node12</title>
<g id="a_node12"><a xlink:href="../../d2/d48/class_peer_connection_manager.html#a5a28d064eba699adacb983766109da54" target="_top" xlink:title="Llamada cuando se abandona la escena">
<polygon fill="white" stroke="black" points="407,-133.63 407,-152.63 660,-152.63 660,-133.63 407,-133.63"/>
<text text-anchor="middle" x="533.5" y="-140.63" font-family="Helvetica,sans-Serif" font-size="10.00">PeerConnectionManager.OnSceneUnloaded&lt; Scene &gt;</text>
</a>
</g>
</g>
<!-- Node8&#45;&gt;Node12 -->
<g id="edge14" class="edge">
<title>Node8&#45;&gt;Node12</title>
<path fill="none" stroke="midnightblue" d="M761.37,-81.53C736.02,-94.62 696.44,-113.47 660,-124.13 646.78,-127.99 632.54,-131.11 618.55,-133.6"/>
<polygon fill="midnightblue" stroke="midnightblue" points="763.12,-84.57 770.35,-76.83 759.87,-78.37 763.12,-84.57"/>
</g>
<!-- Node10 -->
<g id="node10" class="node">
<title>Node10</title>
<g id="a_node10"><a xlink:href="../../d2/d48/class_peer_connection_manager.html#a2b43b97a9280f9d5dd6dd4634009e566" target="_top" xlink:title="Llamada cuando la conexión se pierde">
<polygon fill="white" stroke="black" points="183,-38.63 183,-57.63 371,-57.63 371,-38.63 183,-38.63"/>
<text text-anchor="middle" x="277" y="-45.63" font-family="Helvetica,sans-Serif" font-size="10.00">PeerConnectionManager.OnDisconnect</text>
</a>
</g>
</g>
<!-- Node9&#45;&gt;Node10 -->
<g id="edge9" class="edge">
<title>Node9&#45;&gt;Node10</title>
<path fill="none" stroke="midnightblue" d="M448.2,-93.98C434.37,-91.69 420.24,-89.07 407,-86.13 371.9,-78.34 332.35,-66.17 306.4,-57.71"/>
<polygon fill="midnightblue" stroke="midnightblue" points="447.77,-97.46 458.2,-95.59 448.88,-90.54 447.77,-97.46"/>
</g>
<!-- Node11 -->
<g id="node11" class="node">
<title>Node11</title>
<g id="a_node11"><a xlink:href="../../d0/d5f/class_toolbar_u_i_controller.html#a7c36bd2332e575e710320a80023b93de" target="_top" xlink:title="Llamada justo antes del primer fotograma">
<polygon fill="white" stroke="black" points="216,-95.63 216,-114.63 338,-114.63 338,-95.63 216,-95.63"/>
<text text-anchor="middle" x="277" y="-102.63" font-family="Helvetica,sans-Serif" font-size="10.00">ToolbarUIController.Start</text>
</a>
</g>
</g>
<!-- Node9&#45;&gt;Node11 -->
<g id="edge11" class="edge">
<title>Node9&#45;&gt;Node11</title>
<path fill="none" stroke="midnightblue" d="M442.55,-105.13C407.94,-105.13 369.29,-105.13 338.15,-105.13"/>
<polygon fill="midnightblue" stroke="midnightblue" points="442.67,-108.63 452.67,-105.13 442.67,-101.63 442.67,-108.63"/>
</g>
<!-- Node10&#45;&gt;Node6 -->
<g id="edge10" class="edge">
<title>Node10&#45;&gt;Node6</title>
<path fill="none" stroke="midnightblue" d="M172.81,-38.4C164.19,-37.58 155.59,-36.77 147.28,-35.99"/>
<polygon fill="midnightblue" stroke="midnightblue" points="172.63,-41.9 182.92,-39.35 173.29,-34.93 172.63,-41.9"/>
</g>
</g>
</svg>
