<?xml version="1.0" encoding="UTF-8" standalone="no"?>
<!DOCTYPE svg PUBLIC "-//W3C//DTD SVG 1.1//EN"
 "http://www.w3.org/Graphics/SVG/1.1/DTD/svg11.dtd">
<!-- Generated by graphviz version 2.49.0 (20210828.1703)
 -->
<!-- Title: DatabaseManager.RemoveUserID Pages: 1 -->
<svg width="463pt" height="28pt"
 viewBox="0.00 0.00 463.00 28.00" xmlns="http://www.w3.org/2000/svg" xmlns:xlink="http://www.w3.org/1999/xlink">
<g id="graph0" class="graph" transform="scale(1 1) rotate(0) translate(4 24)">
<title>DatabaseManager.RemoveUserID</title>
<polygon fill="white" stroke="transparent" points="-4,4 -4,-24 459,-24 459,4 -4,4"/>
<!-- Node1 -->
<g id="node1" class="node">
<title>Node1</title>
<g id="a_node1"><a xlink:title="Elimina el userID de un usuario">
<polygon fill="#bfbfbf" stroke="black" points="293,-0.5 293,-19.5 455,-19.5 455,-0.5 293,-0.5"/>
<text text-anchor="middle" x="374" y="-7.5" font-family="Helvetica,sans-Serif" font-size="10.00">DatabaseManager.RemoveUserID</text>
</a>
</g>
</g>
<!-- Node2 -->
<g id="node2" class="node">
<title>Node2</title>
<g id="a_node2"><a xlink:href="../../d1/da2/class_user_manager.html#abc0325360c77d2c099e7807a3c1ff0fa" target="_top" xlink:title="Cierra la sesion del usario actualmente logueado">
<polygon fill="white" stroke="black" points="148,-0.5 148,-19.5 257,-19.5 257,-0.5 148,-0.5"/>
<text text-anchor="middle" x="202.5" y="-7.5" font-family="Helvetica,sans-Serif" font-size="10.00">UserManager.LogOut</text>
</a>
</g>
</g>
<!-- Node1&#45;&gt;Node2 -->
<g id="edge1" class="edge">
<title>Node1&#45;&gt;Node2</title>
<path fill="none" stroke="midnightblue" d="M282.6,-10C274,-10 265.47,-10 257.38,-10"/>
<polygon fill="midnightblue" stroke="midnightblue" points="282.72,-13.5 292.72,-10 282.72,-6.5 282.72,-13.5"/>
</g>
<!-- Node3 -->
<g id="node3" class="node">
<title>Node3</title>
<g id="a_node3"><a xlink:href="../../dd/d3b/class_main_u_i_controller.html#a0a5859a3d2f7c6ae487469bdbe76a7b2" target="_top" xlink:title="Llamada justo antes del primer fotograma">
<polygon fill="white" stroke="black" points="0,-0.5 0,-19.5 112,-19.5 112,-0.5 0,-0.5"/>
<text text-anchor="middle" x="56" y="-7.5" font-family="Helvetica,sans-Serif" font-size="10.00">MainUIController.Start</text>
</a>
</g>
</g>
<!-- Node2&#45;&gt;Node3 -->
<g id="edge2" class="edge">
<title>Node2&#45;&gt;Node3</title>
<path fill="none" stroke="midnightblue" d="M137.54,-10C129.12,-10 120.55,-10 112.3,-10"/>
<polygon fill="midnightblue" stroke="midnightblue" points="137.69,-13.5 147.69,-10 137.69,-6.5 137.69,-13.5"/>
</g>
</g>
</svg>
