<?xml version="1.0" encoding="UTF-8" standalone="no"?>
<!DOCTYPE svg PUBLIC "-//W3C//DTD SVG 1.1//EN"
 "http://www.w3.org/Graphics/SVG/1.1/DTD/svg11.dtd">
<!-- Generated by graphviz version 2.49.0 (20210828.1703)
 -->
<!-- Title: DatabaseManager.UnReadyUser Pages: 1 -->
<svg width="430pt" height="66pt"
 viewBox="0.00 0.00 430.00 66.00" xmlns="http://www.w3.org/2000/svg" xmlns:xlink="http://www.w3.org/1999/xlink">
<g id="graph0" class="graph" transform="scale(1 1) rotate(0) translate(4 62)">
<title>DatabaseManager.UnReadyUser</title>
<polygon fill="white" stroke="transparent" points="-4,4 -4,-62 426,-62 426,4 -4,4"/>
<!-- Node1 -->
<g id="node1" class="node">
<title>Node1</title>
<g id="a_node1"><a xlink:title="Señaliza en base de datos que un par no listo para la conexión">
<polygon fill="#bfbfbf" stroke="black" points="0,-19.5 0,-38.5 158,-38.5 158,-19.5 0,-19.5"/>
<text text-anchor="middle" x="79" y="-26.5" font-family="Helvetica,sans-Serif" font-size="10.00">DatabaseManager.UnReadyUser</text>
</a>
</g>
</g>
<!-- Node2 -->
<g id="node2" class="node">
<title>Node2</title>
<g id="a_node2"><a xlink:href="../../d5/dd7/class_database_manager.html#a1854ec336517d562b14ec72287f986cb" target="_top" xlink:title="Lanza el evento OnClientReady">
<polygon fill="white" stroke="black" points="207,-38.5 207,-57.5 409,-57.5 409,-38.5 207,-38.5"/>
<text text-anchor="middle" x="308" y="-45.5" font-family="Helvetica,sans-Serif" font-size="10.00">DatabaseManager.OnClientReadyDelegate</text>
</a>
</g>
</g>
<!-- Node1&#45;&gt;Node2 -->
<g id="edge1" class="edge">
<title>Node1&#45;&gt;Node2</title>
<path fill="none" stroke="midnightblue" d="M158.12,-35.54C170.47,-36.57 183.43,-37.66 196.35,-38.74"/>
<polygon fill="midnightblue" stroke="midnightblue" points="196.43,-42.26 206.69,-39.6 197.01,-35.28 196.43,-42.26"/>
</g>
<!-- Node3 -->
<g id="node3" class="node">
<title>Node3</title>
<g id="a_node3"><a xlink:href="../../d5/dd7/class_database_manager.html#a195ea9d14ebff0203ccdf30de9801069" target="_top" xlink:title="Lanza el evento OnMessageReceived">
<polygon fill="white" stroke="black" points="194,-0.5 194,-19.5 422,-19.5 422,-0.5 194,-0.5"/>
<text text-anchor="middle" x="308" y="-7.5" font-family="Helvetica,sans-Serif" font-size="10.00">DatabaseManager.OnMessageReceivedDelegate</text>
</a>
</g>
</g>
<!-- Node1&#45;&gt;Node3 -->
<g id="edge2" class="edge">
<title>Node1&#45;&gt;Node3</title>
<path fill="none" stroke="midnightblue" d="M158.12,-22.46C166.42,-21.77 174.99,-21.05 183.65,-20.32"/>
<polygon fill="midnightblue" stroke="midnightblue" points="184.15,-23.79 193.83,-19.47 183.57,-16.82 184.15,-23.79"/>
</g>
</g>
</svg>
