<?xml version="1.0" encoding="UTF-8" standalone="no"?>
<!DOCTYPE svg PUBLIC "-//W3C//DTD SVG 1.1//EN"
 "http://www.w3.org/Graphics/SVG/1.1/DTD/svg11.dtd">
<!-- Generated by graphviz version 2.49.0 (20210828.1703)
 -->
<!-- Title: DatabaseManager.RoomIDExists Pages: 1 -->
<svg width="996pt" height="217pt"
 viewBox="0.00 0.00 996.00 217.00" xmlns="http://www.w3.org/2000/svg" xmlns:xlink="http://www.w3.org/1999/xlink">
<g id="graph0" class="graph" transform="scale(1 1) rotate(0) translate(4 213)">
<title>DatabaseManager.RoomIDExists</title>
<polygon fill="white" stroke="transparent" points="-4,4 -4,-213 992,-213 992,4 -4,4"/>
<!-- Node1 -->
<g id="node1" class="node">
<title>Node1</title>
<g id="a_node1"><a xlink:title="Evalua si un c칩digo de sala existe en base de datos">
<polygon fill="#bfbfbf" stroke="black" points="827,-133.5 827,-152.5 988,-152.5 988,-133.5 827,-133.5"/>
<text text-anchor="middle" x="907.5" y="-140.5" font-family="Helvetica,sans-Serif" font-size="10.00">DatabaseManager.RoomIDExists</text>
</a>
</g>
</g>
<!-- Node2 -->
<g id="node2" class="node">
<title>Node2</title>
<g id="a_node2"><a xlink:href="../../d2/d43/class_room_manager.html#a7cdb384db8d15a58bc46b46c7bd57c9b" target="_top" xlink:title="Genera un codigo de sala aleatorio">
<polygon fill="white" stroke="black" points="634,-180.5 634,-199.5 791,-199.5 791,-180.5 634,-180.5"/>
<text text-anchor="middle" x="712.5" y="-187.5" font-family="Helvetica,sans-Serif" font-size="10.00">RoomManager.GenerateRoomID</text>
</a>
</g>
</g>
<!-- Node1&#45;&gt;Node2 -->
<g id="edge1" class="edge">
<title>Node1&#45;&gt;Node2</title>
<path fill="none" stroke="midnightblue" d="M857.7,-154.88C825.23,-162.79 783.15,-173.04 752.83,-180.42"/>
<polygon fill="midnightblue" stroke="midnightblue" points="858.56,-158.28 867.44,-152.51 856.9,-151.48 858.56,-158.28"/>
</g>
<!-- Node4 -->
<g id="node4" class="node">
<title>Node4</title>
<g id="a_node4"><a xlink:href="../../d2/d43/class_room_manager.html#a022ae9cafc8dedb55ca839e0d99c5b44" target="_top" xlink:title="Mueve un par a una sala">
<polygon fill="white" stroke="black" points="650,-114.5 650,-133.5 775,-133.5 775,-114.5 650,-114.5"/>
<text text-anchor="middle" x="712.5" y="-121.5" font-family="Helvetica,sans-Serif" font-size="10.00">RoomManager.JoinRoom</text>
</a>
</g>
</g>
<!-- Node1&#45;&gt;Node4 -->
<g id="edge3" class="edge">
<title>Node1&#45;&gt;Node4</title>
<path fill="none" stroke="midnightblue" d="M816.72,-134.16C802.68,-132.78 788.46,-131.38 775.24,-130.08"/>
<polygon fill="midnightblue" stroke="midnightblue" points="816.59,-137.67 826.89,-135.16 817.28,-130.7 816.59,-137.67"/>
</g>
<!-- Node3 -->
<g id="node3" class="node">
<title>Node3</title>
<g id="a_node3"><a xlink:href="../../d9/da4/class_rooms_controller.html#a38b3caf6336da28667fb457361f04193" target="_top" xlink:title="Llamada justo antes del primer fotograma">
<polygon fill="white" stroke="black" points="225.5,-189.5 225.5,-208.5 338.5,-208.5 338.5,-189.5 225.5,-189.5"/>
<text text-anchor="middle" x="282" y="-196.5" font-family="Helvetica,sans-Serif" font-size="10.00">RoomsController.Start</text>
</a>
</g>
</g>
<!-- Node2&#45;&gt;Node3 -->
<g id="edge2" class="edge">
<title>Node2&#45;&gt;Node3</title>
<path fill="none" stroke="midnightblue" d="M623.58,-197.66C614.94,-198.21 606.3,-198.67 598,-199 507.15,-202.6 401.45,-201.52 338.51,-200.33"/>
<polygon fill="midnightblue" stroke="midnightblue" points="623.96,-201.15 633.7,-196.99 623.49,-194.16 623.96,-201.15"/>
</g>
<!-- Node5 -->
<g id="node5" class="node">
<title>Node5</title>
<g id="a_node5"><a xlink:href="../../d2/d84/class_one_signal_init.html#afac945779fdf4efc92743adb600c2862" target="_top" xlink:title="Lee notificaci칩n y redirige a la videollamada correspondiente">
<polygon fill="white" stroke="black" points="439,-114.5 439,-133.5 594,-133.5 594,-114.5 439,-114.5"/>
<text text-anchor="middle" x="516.5" y="-121.5" font-family="Helvetica,sans-Serif" font-size="10.00">OneSignalInit.HandleNotification</text>
</a>
</g>
</g>
<!-- Node4&#45;&gt;Node5 -->
<g id="edge4" class="edge">
<title>Node4&#45;&gt;Node5</title>
<path fill="none" stroke="midnightblue" d="M639.76,-124C624.95,-124 609.31,-124 594.33,-124"/>
<polygon fill="midnightblue" stroke="midnightblue" points="639.85,-127.5 649.85,-124 639.85,-120.5 639.85,-127.5"/>
</g>
<!-- Node8 -->
<g id="node8" class="node">
<title>Node8</title>
<g id="a_node8"><a xlink:href="../../d9/da4/class_rooms_controller.html#adceb5742932fc91d4d08576ee98af251" target="_top" xlink:title="Lleva al usuario actual a la sala seleccionada">
<polygon fill="white" stroke="black" points="449.5,-170.5 449.5,-189.5 583.5,-189.5 583.5,-170.5 449.5,-170.5"/>
<text text-anchor="middle" x="516.5" y="-177.5" font-family="Helvetica,sans-Serif" font-size="10.00">RoomsController.JoinRoom</text>
</a>
</g>
</g>
<!-- Node4&#45;&gt;Node8 -->
<g id="edge8" class="edge">
<title>Node4&#45;&gt;Node8</title>
<path fill="none" stroke="midnightblue" d="M674.53,-136.92C652.46,-144.41 623.78,-153.77 598,-161 586.11,-164.34 573.12,-167.57 561.12,-170.4"/>
<polygon fill="midnightblue" stroke="midnightblue" points="675.84,-140.17 684.17,-133.62 673.58,-133.54 675.84,-140.17"/>
</g>
<!-- Node9 -->
<g id="node9" class="node">
<title>Node9</title>
<g id="a_node9"><a xlink:href="../../d8/d78/class_dynamic_links_init.html#a53989c4e1c0a81ca03fefc118b7191f2" target="_top" xlink:title="Lanzada cuando se recibe un enlace din치mico">
<polygon fill="white" stroke="black" points="435,-76.5 435,-95.5 598,-95.5 598,-76.5 435,-76.5"/>
<text text-anchor="middle" x="516.5" y="-83.5" font-family="Helvetica,sans-Serif" font-size="10.00">DynamicLinksInit.OnDynamicLink</text>
</a>
</g>
</g>
<!-- Node4&#45;&gt;Node9 -->
<g id="edge10" class="edge">
<title>Node4&#45;&gt;Node9</title>
<path fill="none" stroke="midnightblue" d="M652.59,-112.46C624.92,-107.04 592.34,-100.66 566.1,-95.52"/>
<polygon fill="midnightblue" stroke="midnightblue" points="652.06,-115.92 662.55,-114.41 653.4,-109.05 652.06,-115.92"/>
</g>
<!-- Node11 -->
<g id="node11" class="node">
<title>Node11</title>
<g id="a_node11"><a xlink:href="../../db/d20/class_contacts_controller.html#a82e0a0a5ae1fc7cbef3e4cb49d74dc31" target="_top" xlink:title="Inicializa todos los elementos necesarios de la lista de contactos y la muestra en la interfaz">
<polygon fill="white" stroke="black" points="435,-38.5 435,-57.5 598,-57.5 598,-38.5 435,-38.5"/>
<text text-anchor="middle" x="516.5" y="-45.5" font-family="Helvetica,sans-Serif" font-size="10.00">ContactsController.ShowContacts</text>
</a>
</g>
</g>
<!-- Node4&#45;&gt;Node11 -->
<g id="edge12" class="edge">
<title>Node4&#45;&gt;Node11</title>
<path fill="none" stroke="midnightblue" d="M686.62,-109.37C664.11,-96.66 629.73,-78.53 598,-67 587.88,-63.32 576.78,-60.17 566.14,-57.55"/>
<polygon fill="midnightblue" stroke="midnightblue" points="685.08,-112.52 695.49,-114.45 688.55,-106.45 685.08,-112.52"/>
</g>
<!-- Node5&#45;&gt;Node5 -->
<g id="edge5" class="edge">
<title>Node5&#45;&gt;Node5</title>
<path fill="none" stroke="midnightblue" d="M553.25,-141.5C553.24,-147.34 540.99,-152 516.5,-152 481.66,-152 471.59,-142.57 486.29,-133.76"/>
<polygon fill="midnightblue" stroke="midnightblue" points="555.83,-139.14 546.71,-133.76 550.49,-143.66 555.83,-139.14"/>
</g>
<!-- Node6 -->
<g id="node6" class="node">
<title>Node6</title>
<g id="a_node6"><a xlink:href="../../d2/d84/class_one_signal_init.html#a60c9495cb3e70bfdef56251b55c09420" target="_top" xlink:title="Llamada cuando un usuario abre una notificaci칩n">
<polygon fill="white" stroke="black" points="165,-114.5 165,-133.5 399,-133.5 399,-114.5 165,-114.5"/>
<text text-anchor="middle" x="282" y="-121.5" font-family="Helvetica,sans-Serif" font-size="10.00">OneSignalInit.OneSignalHandleNotificationOpened</text>
</a>
</g>
</g>
<!-- Node5&#45;&gt;Node6 -->
<g id="edge6" class="edge">
<title>Node5&#45;&gt;Node6</title>
<path fill="none" stroke="midnightblue" d="M428.47,-124C418.9,-124 409.06,-124 399.21,-124"/>
<polygon fill="midnightblue" stroke="midnightblue" points="428.73,-127.5 438.73,-124 428.73,-120.5 428.73,-127.5"/>
</g>
<!-- Node7 -->
<g id="node7" class="node">
<title>Node7</title>
<g id="a_node7"><a xlink:href="../../d2/d84/class_one_signal_init.html#a71d28b5a62bca248554c5e5d89d20a41" target="_top" xlink:title="Llamada justo antes del primer fotograma">
<polygon fill="white" stroke="black" points="15.5,-114.5 15.5,-133.5 113.5,-133.5 113.5,-114.5 15.5,-114.5"/>
<text text-anchor="middle" x="64.5" y="-121.5" font-family="Helvetica,sans-Serif" font-size="10.00">OneSignalInit.Start</text>
</a>
</g>
</g>
<!-- Node6&#45;&gt;Node7 -->
<g id="edge7" class="edge">
<title>Node6&#45;&gt;Node7</title>
<path fill="none" stroke="midnightblue" d="M154.66,-124C140.2,-124 126.2,-124 113.74,-124"/>
<polygon fill="midnightblue" stroke="midnightblue" points="154.73,-127.5 164.73,-124 154.73,-120.5 154.73,-127.5"/>
</g>
<!-- Node8&#45;&gt;Node3 -->
<g id="edge9" class="edge">
<title>Node8&#45;&gt;Node3</title>
<path fill="none" stroke="midnightblue" d="M439.46,-186.21C406.55,-188.9 368.75,-191.99 338.55,-194.46"/>
<polygon fill="midnightblue" stroke="midnightblue" points="439.82,-189.7 449.5,-185.39 439.24,-182.72 439.82,-189.7"/>
</g>
<!-- Node10 -->
<g id="node10" class="node">
<title>Node10</title>
<g id="a_node10"><a xlink:href="../../d8/d78/class_dynamic_links_init.html#a92aa11c79f26c2d5d1637e094eaa3530" target="_top" xlink:title="Llamada justo antes del primer fotograma">
<polygon fill="white" stroke="black" points="224.5,-76.5 224.5,-95.5 339.5,-95.5 339.5,-76.5 224.5,-76.5"/>
<text text-anchor="middle" x="282" y="-83.5" font-family="Helvetica,sans-Serif" font-size="10.00">DynamicLinksInit.Start</text>
</a>
</g>
</g>
<!-- Node9&#45;&gt;Node10 -->
<g id="edge11" class="edge">
<title>Node9&#45;&gt;Node10</title>
<path fill="none" stroke="midnightblue" d="M424.8,-86C396.14,-86 365.31,-86 339.73,-86"/>
<polygon fill="midnightblue" stroke="midnightblue" points="424.84,-89.5 434.84,-86 424.84,-82.5 424.84,-89.5"/>
</g>
<!-- Node12 -->
<g id="node12" class="node">
<title>Node12</title>
<g id="a_node12"><a xlink:href="../../db/d20/class_contacts_controller.html#a5523eae0297ff38bd1ee5cdaa2ead925" target="_top" xlink:title="LLamada cuando se aceptan los permisos de lectura de contactos">
<polygon fill="white" stroke="black" points="190.5,-38.5 190.5,-57.5 373.5,-57.5 373.5,-38.5 190.5,-38.5"/>
<text text-anchor="middle" x="282" y="-45.5" font-family="Helvetica,sans-Serif" font-size="10.00">ContactsController.PermissionGranted</text>
</a>
</g>
</g>
<!-- Node11&#45;&gt;Node12 -->
<g id="edge13" class="edge">
<title>Node11&#45;&gt;Node12</title>
<path fill="none" stroke="midnightblue" d="M424.57,-48C407.91,-48 390.53,-48 373.87,-48"/>
<polygon fill="midnightblue" stroke="midnightblue" points="424.84,-51.5 434.84,-48 424.84,-44.5 424.84,-51.5"/>
</g>
<!-- Node14 -->
<g id="node14" class="node">
<title>Node14</title>
<g id="a_node14"><a xlink:href="../../db/d20/class_contacts_controller.html#a18ddb1f465c9a56f0f080f9ce9cb0011" target="_top" xlink:title="Llamada justo antes del primer fotograma">
<polygon fill="white" stroke="black" points="221.5,-0.5 221.5,-19.5 342.5,-19.5 342.5,-0.5 221.5,-0.5"/>
<text text-anchor="middle" x="282" y="-7.5" font-family="Helvetica,sans-Serif" font-size="10.00">ContactsController.Start</text>
</a>
</g>
</g>
<!-- Node11&#45;&gt;Node14 -->
<g id="edge15" class="edge">
<title>Node11&#45;&gt;Node14</title>
<path fill="none" stroke="midnightblue" d="M446.94,-36.8C413.4,-31.31 373.46,-24.78 341.39,-19.54"/>
<polygon fill="midnightblue" stroke="midnightblue" points="446.7,-40.3 457.13,-38.46 447.83,-33.39 446.7,-40.3"/>
</g>
<!-- Node13 -->
<g id="node13" class="node">
<title>Node13</title>
<g id="a_node13"><a xlink:href="../../db/d20/class_contacts_controller.html#a55e6be8eaa668f93e23c09e491c644c8" target="_top" xlink:title="Llamada al crear el GameObject asociado">
<polygon fill="white" stroke="black" points="0,-38.5 0,-57.5 129,-57.5 129,-38.5 0,-38.5"/>
<text text-anchor="middle" x="64.5" y="-45.5" font-family="Helvetica,sans-Serif" font-size="10.00">ContactsController.Awake</text>
</a>
</g>
</g>
<!-- Node12&#45;&gt;Node13 -->
<g id="edge14" class="edge">
<title>Node12&#45;&gt;Node13</title>
<path fill="none" stroke="midnightblue" d="M180.04,-48C162.67,-48 145.06,-48 129.03,-48"/>
<polygon fill="midnightblue" stroke="midnightblue" points="180.23,-51.5 190.23,-48 180.23,-44.5 180.23,-51.5"/>
</g>
</g>
</svg>
