<?xml version="1.0" encoding="UTF-8" standalone="no"?>
<!DOCTYPE svg PUBLIC "-//W3C//DTD SVG 1.1//EN"
 "http://www.w3.org/Graphics/SVG/1.1/DTD/svg11.dtd">
<!-- Generated by graphviz version 2.49.0 (20210828.1703)
 -->
<!-- Title: ARMarker.Update Pages: 1 -->
<svg width="277pt" height="66pt"
 viewBox="0.00 0.00 277.00 66.00" xmlns="http://www.w3.org/2000/svg" xmlns:xlink="http://www.w3.org/1999/xlink">
<g id="graph0" class="graph" transform="scale(1 1) rotate(0) translate(4 62)">
<title>ARMarker.Update</title>
<polygon fill="white" stroke="transparent" points="-4,4 -4,-62 273,-62 273,4 -4,4"/>
<!-- Node1 -->
<g id="node1" class="node">
<title>Node1</title>
<g id="a_node1"><a xlink:title="Llamada al comienzo de cada fotograma">
<polygon fill="#bfbfbf" stroke="black" points="0,-19.5 0,-38.5 94,-38.5 94,-19.5 0,-19.5"/>
<text text-anchor="middle" x="47" y="-26.5" font-family="Helvetica,sans-Serif" font-size="10.00">ARMarker.Update</text>
</a>
</g>
</g>
<!-- Node2 -->
<g id="node2" class="node">
<title>Node2</title>
<g id="a_node2"><a xlink:href="../../d6/d6a/class_a_r_marker.html#a27ea41b1429123de21b990b94555b95d" target="_top" xlink:title="Coloca el marcador en la posicion seleccionada">
<polygon fill="white" stroke="black" points="144.5,-38.5 144.5,-57.5 254.5,-57.5 254.5,-38.5 144.5,-38.5"/>
<text text-anchor="middle" x="199.5" y="-45.5" font-family="Helvetica,sans-Serif" font-size="10.00">ARMarker.AddMarker</text>
</a>
</g>
</g>
<!-- Node1&#45;&gt;Node2 -->
<g id="edge1" class="edge">
<title>Node1&#45;&gt;Node2</title>
<path fill="none" stroke="midnightblue" d="M94.38,-34.86C106.98,-36.45 120.84,-38.2 134.24,-39.89"/>
<polygon fill="midnightblue" stroke="midnightblue" points="134,-43.38 144.36,-41.16 134.87,-36.44 134,-43.38"/>
</g>
<!-- Node3 -->
<g id="node3" class="node">
<title>Node3</title>
<g id="a_node3"><a xlink:href="../../d7/d5d/class_a_r_tool_manager.html#a86782ee29e1327a2f4ab387d8438c6a7" target="_top" xlink:title="Coloca una guía en un trazo o marcador del par selecionado">
<polygon fill="white" stroke="black" points="130,-0.5 130,-19.5 269,-19.5 269,-0.5 130,-0.5"/>
<text text-anchor="middle" x="199.5" y="-7.5" font-family="Helvetica,sans-Serif" font-size="10.00">ARToolManager.PlaceGuide</text>
</a>
</g>
</g>
<!-- Node1&#45;&gt;Node3 -->
<g id="edge2" class="edge">
<title>Node1&#45;&gt;Node3</title>
<path fill="none" stroke="midnightblue" d="M94.38,-23.14C102.45,-22.13 111.05,-21.04 119.7,-19.95"/>
<polygon fill="midnightblue" stroke="midnightblue" points="120.38,-23.39 129.86,-18.67 119.5,-16.45 120.38,-23.39"/>
</g>
</g>
</svg>
