<?xml version="1.0" encoding="UTF-8" standalone="no"?>
<!DOCTYPE svg PUBLIC "-//W3C//DTD SVG 1.1//EN"
 "http://www.w3.org/Graphics/SVG/1.1/DTD/svg11.dtd">
<!-- Generated by graphviz version 2.49.0 (20210828.1703)
 -->
<!-- Title: RecorderManager.ToggleRecord Pages: 1 -->
<svg width="360pt" height="66pt"
 viewBox="0.00 0.00 360.00 66.00" xmlns="http://www.w3.org/2000/svg" xmlns:xlink="http://www.w3.org/1999/xlink">
<g id="graph0" class="graph" transform="scale(1 1) rotate(0) translate(4 62)">
<title>RecorderManager.ToggleRecord</title>
<polygon fill="white" stroke="transparent" points="-4,4 -4,-62 356,-62 356,4 -4,4"/>
<!-- Node1 -->
<g id="node1" class="node">
<title>Node1</title>
<g id="a_node1"><a xlink:title="Alterna entre comenzar la grabación o pararla">
<polygon fill="#bfbfbf" stroke="black" points="0,-19.5 0,-38.5 155,-38.5 155,-19.5 0,-19.5"/>
<text text-anchor="middle" x="77.5" y="-26.5" font-family="Helvetica,sans-Serif" font-size="10.00">RecorderManager.ToggleRecord</text>
</a>
</g>
</g>
<!-- Node2 -->
<g id="node2" class="node">
<title>Node2</title>
<g id="a_node2"><a xlink:href="../../dc/da3/class_recorder_manager.html#a12a78c0fd95f2c5040913c84003b27a4" target="_top" xlink:title="Comienza la grabación">
<polygon fill="white" stroke="black" points="191,-38.5 191,-57.5 352,-57.5 352,-38.5 191,-38.5"/>
<text text-anchor="middle" x="271.5" y="-45.5" font-family="Helvetica,sans-Serif" font-size="10.00">RecorderManager.StartRecording</text>
</a>
</g>
</g>
<!-- Node1&#45;&gt;Node2 -->
<g id="edge1" class="edge">
<title>Node1&#45;&gt;Node2</title>
<path fill="none" stroke="midnightblue" d="M155.21,-36.59C163.62,-37.42 172.23,-38.28 180.78,-39.12"/>
<polygon fill="midnightblue" stroke="midnightblue" points="180.47,-42.61 190.77,-40.11 181.16,-35.64 180.47,-42.61"/>
</g>
<!-- Node3 -->
<g id="node3" class="node">
<title>Node3</title>
<g id="a_node3"><a xlink:href="../../dc/da3/class_recorder_manager.html#a41f98e5ff08f958dce6d9d957682a7aa" target="_top" xlink:title="Para la grabación">
<polygon fill="white" stroke="black" points="191.5,-0.5 191.5,-19.5 351.5,-19.5 351.5,-0.5 191.5,-0.5"/>
<text text-anchor="middle" x="271.5" y="-7.5" font-family="Helvetica,sans-Serif" font-size="10.00">RecorderManager.StopRecording</text>
</a>
</g>
</g>
<!-- Node1&#45;&gt;Node3 -->
<g id="edge2" class="edge">
<title>Node1&#45;&gt;Node3</title>
<path fill="none" stroke="midnightblue" d="M155.21,-21.41C163.77,-20.56 172.54,-19.69 181.24,-18.83"/>
<polygon fill="midnightblue" stroke="midnightblue" points="181.79,-22.3 191.4,-17.83 181.1,-15.33 181.79,-22.3"/>
</g>
</g>
</svg>
