<?xml version="1.0" encoding="UTF-8" standalone="no"?>
<!DOCTYPE svg PUBLIC "-//W3C//DTD SVG 1.1//EN"
 "http://www.w3.org/Graphics/SVG/1.1/DTD/svg11.dtd">
<!-- Generated by graphviz version 2.49.0 (20210828.1703)
 -->
<!-- Title: MySceneManager.LoadScene Pages: 1 -->
<svg width="1166pt" height="540pt"
 viewBox="0.00 0.00 1166.00 540.00" xmlns="http://www.w3.org/2000/svg" xmlns:xlink="http://www.w3.org/1999/xlink">
<g id="graph0" class="graph" transform="scale(1 1) rotate(0) translate(4 536)">
<title>MySceneManager.LoadScene</title>
<polygon fill="white" stroke="transparent" points="-4,4 -4,-536 1162,-536 1162,4 -4,4"/>
<!-- Node1 -->
<g id="node1" class="node">
<title>Node1</title>
<g id="a_node1"><a xlink:title="Carga la escena seleccionada">
<polygon fill="#bfbfbf" stroke="black" points="1011,-152.5 1011,-171.5 1158,-171.5 1158,-152.5 1011,-152.5"/>
<text text-anchor="middle" x="1084.5" y="-159.5" font-family="Helvetica,sans-Serif" font-size="10.00">MySceneManager.LoadScene</text>
</a>
</g>
</g>
<!-- Node2 -->
<g id="node2" class="node">
<title>Node2</title>
<g id="a_node2"><a xlink:href="../../d2/d48/class_peer_connection_manager.html#ac4577b58d566fb35458448f45920978f" target="_top" xlink:title="Cuelga la videollamada">
<polygon fill="white" stroke="black" points="749.5,-474.5 749.5,-493.5 910.5,-493.5 910.5,-474.5 749.5,-474.5"/>
<text text-anchor="middle" x="830" y="-481.5" font-family="Helvetica,sans-Serif" font-size="10.00">PeerConnectionManager.HangUp</text>
</a>
</g>
</g>
<!-- Node1&#45;&gt;Node2 -->
<g id="edge1" class="edge">
<title>Node1&#45;&gt;Node2</title>
<path fill="none" stroke="midnightblue" d="M1076.76,-181.13C1062.43,-219.93 1026.04,-309.43 975,-371 936.67,-417.24 876.45,-456.8 847.55,-474.33"/>
<polygon fill="midnightblue" stroke="midnightblue" points="1080.09,-182.19 1080.21,-171.59 1073.51,-179.8 1080.09,-182.19"/>
</g>
<!-- Node6 -->
<g id="node6" class="node">
<title>Node6</title>
<g id="a_node6"><a xlink:href="../../d2/d43/class_room_manager.html#a022ae9cafc8dedb55ca839e0d99c5b44" target="_top" xlink:title="Mueve un par a una sala">
<polygon fill="white" stroke="black" points="767.5,-342.5 767.5,-361.5 892.5,-361.5 892.5,-342.5 767.5,-342.5"/>
<text text-anchor="middle" x="830" y="-349.5" font-family="Helvetica,sans-Serif" font-size="10.00">RoomManager.JoinRoom</text>
</a>
</g>
</g>
<!-- Node1&#45;&gt;Node6 -->
<g id="edge5" class="edge">
<title>Node1&#45;&gt;Node6</title>
<path fill="none" stroke="midnightblue" d="M1069.97,-179.44C1050.77,-203.38 1013.61,-246.78 975,-276 936.12,-305.43 884.25,-329.7 854.56,-342.41"/>
<polygon fill="midnightblue" stroke="midnightblue" points="1072.75,-181.57 1076.21,-171.56 1067.26,-177.23 1072.75,-181.57"/>
</g>
<!-- Node18 -->
<g id="node18" class="node">
<title>Node18</title>
<g id="a_node18"><a xlink:href="../../d7/d31/class_audio_manager.html#a04d68ba5cdcccb8add793ae79563c2bf" target="_top" xlink:title="Lanzada cuando se deniegan los permisos de audio y se indica que no se soliciten otra vez">
<polygon fill="white" stroke="black" points="685,-247.5 685,-266.5 975,-266.5 975,-247.5 685,-247.5"/>
<text text-anchor="middle" x="830" y="-254.5" font-family="Helvetica,sans-Serif" font-size="10.00">AudioManager.MicrophonePermissionDeniedAndDontAskAgain</text>
</a>
</g>
</g>
<!-- Node1&#45;&gt;Node18 -->
<g id="edge18" class="edge">
<title>Node1&#45;&gt;Node18</title>
<path fill="none" stroke="midnightblue" d="M1059.07,-176.88C1037.56,-189.48 1005.06,-207.31 975,-219 943.43,-231.28 906.46,-240.94 877.89,-247.45"/>
<polygon fill="midnightblue" stroke="midnightblue" points="1061.04,-179.78 1067.86,-171.67 1057.47,-173.76 1061.04,-179.78"/>
</g>
<!-- Node20 -->
<g id="node20" class="node">
<title>Node20</title>
<g id="a_node20"><a xlink:href="../../d0/dda/class_app_entry_point.html#a31fdab16b3f5f842587ae877d564b041" target="_top" xlink:title="Lanzado cuando Firebase esta inicializado">
<polygon fill="white" stroke="black" points="749.5,-190.5 749.5,-209.5 910.5,-209.5 910.5,-190.5 749.5,-190.5"/>
<text text-anchor="middle" x="830" y="-197.5" font-family="Helvetica,sans-Serif" font-size="10.00">AppEntryPoint.OnFirebaseReady</text>
</a>
</g>
</g>
<!-- Node1&#45;&gt;Node20 -->
<g id="edge20" class="edge">
<title>Node1&#45;&gt;Node20</title>
<path fill="none" stroke="midnightblue" d="M1009.99,-173.06C973.37,-178.57 929.54,-185.17 894.42,-190.46"/>
<polygon fill="midnightblue" stroke="midnightblue" points="1010.74,-176.49 1020.11,-171.54 1009.7,-169.57 1010.74,-176.49"/>
</g>
<!-- Node23 -->
<g id="node23" class="node">
<title>Node23</title>
<g id="a_node23"><a xlink:href="../../dd/ddc/class_register_phone_u_i_controller.html#aa85933669dcb72558a71039eba32d88d" target="_top" xlink:title="Llamada cuando se completa la verificación">
<polygon fill="white" stroke="black" points="709.5,-76.5 709.5,-95.5 950.5,-95.5 950.5,-76.5 709.5,-76.5"/>
<text text-anchor="middle" x="830" y="-83.5" font-family="Helvetica,sans-Serif" font-size="10.00">RegisterPhoneUIController.OnVerificationCompleted</text>
</a>
</g>
</g>
<!-- Node1&#45;&gt;Node23 -->
<g id="edge23" class="edge">
<title>Node1&#45;&gt;Node23</title>
<path fill="none" stroke="midnightblue" d="M1058.39,-147.45C1036.92,-135.63 1004.84,-119.43 975,-110 955.18,-103.74 933.29,-99.03 912.68,-95.51"/>
<polygon fill="midnightblue" stroke="midnightblue" points="1056.75,-150.54 1067.19,-152.37 1060.17,-144.44 1056.75,-150.54"/>
</g>
<!-- Node24 -->
<g id="node24" class="node">
<title>Node24</title>
<g id="a_node24"><a xlink:href="../../dd/ddc/class_register_phone_u_i_controller.html#abecd41c11aa752bec550978e4a58d2a1" target="_top" xlink:title="Llamada justo antes del primer fotograma">
<polygon fill="white" stroke="black" points="0,-95.5 0,-114.5 155,-114.5 155,-95.5 0,-95.5"/>
<text text-anchor="middle" x="77.5" y="-102.5" font-family="Helvetica,sans-Serif" font-size="10.00">RegisterPhoneUIController.Start</text>
</a>
</g>
</g>
<!-- Node1&#45;&gt;Node24 -->
<g id="edge33" class="edge">
<title>Node1&#45;&gt;Node24</title>
<path fill="none" stroke="midnightblue" d="M1000.6,-168.56C841.97,-179.27 485.08,-194.55 191,-143 158.51,-137.31 122.69,-123.89 100.39,-114.62"/>
<polygon fill="midnightblue" stroke="midnightblue" points="1001.03,-172.04 1010.76,-167.86 1000.55,-165.05 1001.03,-172.04"/>
</g>
<!-- Node26 -->
<g id="node26" class="node">
<title>Node26</title>
<g id="a_node26"><a xlink:href="../../dd/ddc/class_register_phone_u_i_controller.html#a55f0c364a3d7f1920df9790b7c63da7c" target="_top" xlink:title="Verifica el teléfono introducido con el código SMS introducido">
<polygon fill="white" stroke="black" points="215,-114.5 215,-133.5 401,-133.5 401,-114.5 215,-114.5"/>
<text text-anchor="middle" x="308" y="-121.5" font-family="Helvetica,sans-Serif" font-size="10.00">RegisterPhoneUIController.VerifyPhone</text>
</a>
</g>
</g>
<!-- Node1&#45;&gt;Node26 -->
<g id="edge34" class="edge">
<title>Node1&#45;&gt;Node26</title>
<path fill="none" stroke="midnightblue" d="M1007.09,-151.24C996.33,-149.99 985.4,-148.86 975,-148 770.61,-131.17 529.98,-126.14 401.27,-124.64"/>
<polygon fill="midnightblue" stroke="midnightblue" points="1006.98,-154.75 1017.33,-152.47 1007.82,-147.8 1006.98,-154.75"/>
</g>
<!-- Node27 -->
<g id="node27" class="node">
<title>Node27</title>
<g id="a_node27"><a xlink:href="../../d8/d7d/class_register_name_u_i_controller.html#afc29ac5c585c83664552ce4d7e228e04" target="_top" xlink:title="Registra el nombre introducido del usuario actual">
<polygon fill="white" stroke="black" points="733.5,-38.5 733.5,-57.5 926.5,-57.5 926.5,-38.5 733.5,-38.5"/>
<text text-anchor="middle" x="830" y="-45.5" font-family="Helvetica,sans-Serif" font-size="10.00">RegisterNameUIController.RegisterName</text>
</a>
</g>
</g>
<!-- Node1&#45;&gt;Node27 -->
<g id="edge30" class="edge">
<title>Node1&#45;&gt;Node27</title>
<path fill="none" stroke="midnightblue" d="M1069.42,-144.5C1050.51,-122.36 1014.67,-84.96 975,-67 959.95,-60.19 943.18,-55.62 926.55,-52.59"/>
<polygon fill="midnightblue" stroke="midnightblue" points="1066.94,-146.99 1076.03,-152.43 1072.32,-142.51 1066.94,-146.99"/>
</g>
<!-- Node29 -->
<g id="node29" class="node">
<title>Node29</title>
<g id="a_node29"><a xlink:href="../../dd/d3b/class_main_u_i_controller.html#a0a5859a3d2f7c6ae487469bdbe76a7b2" target="_top" xlink:title="Llamada justo antes del primer fotograma">
<polygon fill="white" stroke="black" points="774,-0.5 774,-19.5 886,-19.5 886,-0.5 774,-0.5"/>
<text text-anchor="middle" x="830" y="-7.5" font-family="Helvetica,sans-Serif" font-size="10.00">MainUIController.Start</text>
</a>
</g>
</g>
<!-- Node1&#45;&gt;Node29 -->
<g id="edge32" class="edge">
<title>Node1&#45;&gt;Node29</title>
<path fill="none" stroke="midnightblue" d="M1074.22,-143.22C1058.4,-113.4 1023.16,-55.87 975,-29 948.24,-14.07 914.45,-9.04 886.32,-7.86"/>
<polygon fill="midnightblue" stroke="midnightblue" points="1071.15,-144.89 1078.84,-152.18 1077.37,-141.69 1071.15,-144.89"/>
</g>
<!-- Node3 -->
<g id="node3" class="node">
<title>Node3</title>
<g id="a_node3"><a xlink:href="../../d2/d48/class_peer_connection_manager.html#a2b43b97a9280f9d5dd6dd4634009e566" target="_top" xlink:title="Llamada cuando la conexión se pierde">
<polygon fill="white" stroke="black" points="461,-512.5 461,-531.5 649,-531.5 649,-512.5 461,-512.5"/>
<text text-anchor="middle" x="555" y="-519.5" font-family="Helvetica,sans-Serif" font-size="10.00">PeerConnectionManager.OnDisconnect</text>
</a>
</g>
</g>
<!-- Node2&#45;&gt;Node3 -->
<g id="edge2" class="edge">
<title>Node2&#45;&gt;Node3</title>
<path fill="none" stroke="midnightblue" d="M750.53,-494.92C710.74,-500.46 662.86,-507.13 624.57,-512.46"/>
<polygon fill="midnightblue" stroke="midnightblue" points="751.04,-498.39 760.46,-493.54 750.08,-491.45 751.04,-498.39"/>
</g>
<!-- Node5 -->
<g id="node5" class="node">
<title>Node5</title>
<g id="a_node5"><a xlink:href="../../d0/d5f/class_toolbar_u_i_controller.html#a7c36bd2332e575e710320a80023b93de" target="_top" xlink:title="Llamada justo antes del primer fotograma">
<polygon fill="white" stroke="black" points="494,-474.5 494,-493.5 616,-493.5 616,-474.5 494,-474.5"/>
<text text-anchor="middle" x="555" y="-481.5" font-family="Helvetica,sans-Serif" font-size="10.00">ToolbarUIController.Start</text>
</a>
</g>
</g>
<!-- Node2&#45;&gt;Node5 -->
<g id="edge4" class="edge">
<title>Node2&#45;&gt;Node5</title>
<path fill="none" stroke="midnightblue" d="M739.19,-484C698.85,-484 652.32,-484 616.25,-484"/>
<polygon fill="midnightblue" stroke="midnightblue" points="739.3,-487.5 749.3,-484 739.3,-480.5 739.3,-487.5"/>
</g>
<!-- Node4 -->
<g id="node4" class="node">
<title>Node4</title>
<g id="a_node4"><a xlink:href="../../d2/d48/class_peer_connection_manager.html#a058148001392c4d6106cc784ec477256" target="_top" xlink:title="Llamada justo antes del primer fotograma">
<polygon fill="white" stroke="black" points="234.5,-512.5 234.5,-531.5 381.5,-531.5 381.5,-512.5 234.5,-512.5"/>
<text text-anchor="middle" x="308" y="-519.5" font-family="Helvetica,sans-Serif" font-size="10.00">PeerConnectionManager.Start</text>
</a>
</g>
</g>
<!-- Node3&#45;&gt;Node4 -->
<g id="edge3" class="edge">
<title>Node3&#45;&gt;Node4</title>
<path fill="none" stroke="midnightblue" d="M450.5,-522C427.42,-522 403.42,-522 381.87,-522"/>
<polygon fill="midnightblue" stroke="midnightblue" points="450.68,-525.5 460.68,-522 450.68,-518.5 450.68,-525.5"/>
</g>
<!-- Node7 -->
<g id="node7" class="node">
<title>Node7</title>
<g id="a_node7"><a xlink:href="../../d2/d84/class_one_signal_init.html#afac945779fdf4efc92743adb600c2862" target="_top" xlink:title="Lee notificación y redirige a la videollamada correspondiente">
<polygon fill="white" stroke="black" points="477.5,-342.5 477.5,-361.5 632.5,-361.5 632.5,-342.5 477.5,-342.5"/>
<text text-anchor="middle" x="555" y="-349.5" font-family="Helvetica,sans-Serif" font-size="10.00">OneSignalInit.HandleNotification</text>
</a>
</g>
</g>
<!-- Node6&#45;&gt;Node7 -->
<g id="edge6" class="edge">
<title>Node6&#45;&gt;Node7</title>
<path fill="none" stroke="midnightblue" d="M757.32,-352C718.93,-352 671.62,-352 632.51,-352"/>
<polygon fill="midnightblue" stroke="midnightblue" points="757.39,-355.5 767.39,-352 757.39,-348.5 757.39,-355.5"/>
</g>
<!-- Node10 -->
<g id="node10" class="node">
<title>Node10</title>
<g id="a_node10"><a xlink:href="../../d9/da4/class_rooms_controller.html#adceb5742932fc91d4d08576ee98af251" target="_top" xlink:title="Lleva al usuario actual a la sala seleccionada">
<polygon fill="white" stroke="black" points="488,-304.5 488,-323.5 622,-323.5 622,-304.5 488,-304.5"/>
<text text-anchor="middle" x="555" y="-311.5" font-family="Helvetica,sans-Serif" font-size="10.00">RoomsController.JoinRoom</text>
</a>
</g>
</g>
<!-- Node6&#45;&gt;Node10 -->
<g id="edge10" class="edge">
<title>Node6&#45;&gt;Node10</title>
<path fill="none" stroke="midnightblue" d="M757.27,-342.02C715.42,-336.19 663,-328.89 622.15,-323.21"/>
<polygon fill="midnightblue" stroke="midnightblue" points="757.01,-345.51 767.39,-343.42 757.97,-338.58 757.01,-345.51"/>
</g>
<!-- Node12 -->
<g id="node12" class="node">
<title>Node12</title>
<g id="a_node12"><a xlink:href="../../d8/d78/class_dynamic_links_init.html#a53989c4e1c0a81ca03fefc118b7191f2" target="_top" xlink:title="Lanzada cuando se recibe un enlace dinámico">
<polygon fill="white" stroke="black" points="473.5,-436.5 473.5,-455.5 636.5,-455.5 636.5,-436.5 473.5,-436.5"/>
<text text-anchor="middle" x="555" y="-443.5" font-family="Helvetica,sans-Serif" font-size="10.00">DynamicLinksInit.OnDynamicLink</text>
</a>
</g>
</g>
<!-- Node6&#45;&gt;Node12 -->
<g id="edge12" class="edge">
<title>Node6&#45;&gt;Node12</title>
<path fill="none" stroke="midnightblue" d="M800.34,-365.98C765.35,-382.56 704.02,-410.09 649,-427 637.03,-430.68 623.97,-433.85 611.52,-436.49"/>
<polygon fill="midnightblue" stroke="midnightblue" points="801.97,-369.08 809.49,-361.61 798.95,-362.76 801.97,-369.08"/>
</g>
<!-- Node14 -->
<g id="node14" class="node">
<title>Node14</title>
<g id="a_node14"><a xlink:href="../../db/d20/class_contacts_controller.html#a82e0a0a5ae1fc7cbef3e4cb49d74dc31" target="_top" xlink:title="Inicializa todos los elementos necesarios de la lista de contactos y la muestra en la interfaz">
<polygon fill="white" stroke="black" points="473.5,-398.5 473.5,-417.5 636.5,-417.5 636.5,-398.5 473.5,-398.5"/>
<text text-anchor="middle" x="555" y="-405.5" font-family="Helvetica,sans-Serif" font-size="10.00">ContactsController.ShowContacts</text>
</a>
</g>
</g>
<!-- Node6&#45;&gt;Node14 -->
<g id="edge14" class="edge">
<title>Node6&#45;&gt;Node14</title>
<path fill="none" stroke="midnightblue" d="M772.6,-363.61C737.12,-370.91 690.39,-380.52 649,-389 633.99,-392.08 617.61,-395.43 602.84,-398.44"/>
<polygon fill="midnightblue" stroke="midnightblue" points="773.67,-366.96 782.76,-361.52 772.26,-360.11 773.67,-366.96"/>
</g>
<!-- Node7&#45;&gt;Node7 -->
<g id="edge7" class="edge">
<title>Node7&#45;&gt;Node7</title>
<path fill="none" stroke="midnightblue" d="M600.71,-367.82C603.9,-374.41 588.66,-380 555,-380 511.04,-380 498.5,-370.46 517.39,-361.61"/>
<polygon fill="midnightblue" stroke="midnightblue" points="602.68,-364.91 592.61,-361.61 598.42,-370.47 602.68,-364.91"/>
</g>
<!-- Node8 -->
<g id="node8" class="node">
<title>Node8</title>
<g id="a_node8"><a xlink:href="../../d2/d84/class_one_signal_init.html#a60c9495cb3e70bfdef56251b55c09420" target="_top" xlink:title="Llamada cuando un usuario abre una notificación">
<polygon fill="white" stroke="black" points="191,-342.5 191,-361.5 425,-361.5 425,-342.5 191,-342.5"/>
<text text-anchor="middle" x="308" y="-349.5" font-family="Helvetica,sans-Serif" font-size="10.00">OneSignalInit.OneSignalHandleNotificationOpened</text>
</a>
</g>
</g>
<!-- Node7&#45;&gt;Node8 -->
<g id="edge8" class="edge">
<title>Node7&#45;&gt;Node8</title>
<path fill="none" stroke="midnightblue" d="M467.24,-352C453.66,-352 439.44,-352 425.33,-352"/>
<polygon fill="midnightblue" stroke="midnightblue" points="467.49,-355.5 477.49,-352 467.49,-348.5 467.49,-355.5"/>
</g>
<!-- Node9 -->
<g id="node9" class="node">
<title>Node9</title>
<g id="a_node9"><a xlink:href="../../d2/d84/class_one_signal_init.html#a71d28b5a62bca248554c5e5d89d20a41" target="_top" xlink:title="Llamada justo antes del primer fotograma">
<polygon fill="white" stroke="black" points="28.5,-342.5 28.5,-361.5 126.5,-361.5 126.5,-342.5 28.5,-342.5"/>
<text text-anchor="middle" x="77.5" y="-349.5" font-family="Helvetica,sans-Serif" font-size="10.00">OneSignalInit.Start</text>
</a>
</g>
</g>
<!-- Node8&#45;&gt;Node9 -->
<g id="edge9" class="edge">
<title>Node8&#45;&gt;Node9</title>
<path fill="none" stroke="midnightblue" d="M180.65,-352C161.4,-352 142.62,-352 126.52,-352"/>
<polygon fill="midnightblue" stroke="midnightblue" points="180.74,-355.5 190.74,-352 180.74,-348.5 180.74,-355.5"/>
</g>
<!-- Node11 -->
<g id="node11" class="node">
<title>Node11</title>
<g id="a_node11"><a xlink:href="../../d9/da4/class_rooms_controller.html#a38b3caf6336da28667fb457361f04193" target="_top" xlink:title="Llamada justo antes del primer fotograma">
<polygon fill="white" stroke="black" points="251.5,-304.5 251.5,-323.5 364.5,-323.5 364.5,-304.5 251.5,-304.5"/>
<text text-anchor="middle" x="308" y="-311.5" font-family="Helvetica,sans-Serif" font-size="10.00">RoomsController.Start</text>
</a>
</g>
</g>
<!-- Node10&#45;&gt;Node11 -->
<g id="edge11" class="edge">
<title>Node10&#45;&gt;Node11</title>
<path fill="none" stroke="midnightblue" d="M477.57,-314C440.98,-314 397.99,-314 364.58,-314"/>
<polygon fill="midnightblue" stroke="midnightblue" points="477.7,-317.5 487.7,-314 477.7,-310.5 477.7,-317.5"/>
</g>
<!-- Node13 -->
<g id="node13" class="node">
<title>Node13</title>
<g id="a_node13"><a xlink:href="../../d8/d78/class_dynamic_links_init.html#a92aa11c79f26c2d5d1637e094eaa3530" target="_top" xlink:title="Llamada justo antes del primer fotograma">
<polygon fill="white" stroke="black" points="250.5,-456.5 250.5,-475.5 365.5,-475.5 365.5,-456.5 250.5,-456.5"/>
<text text-anchor="middle" x="308" y="-463.5" font-family="Helvetica,sans-Serif" font-size="10.00">DynamicLinksInit.Start</text>
</a>
</g>
</g>
<!-- Node12&#45;&gt;Node13 -->
<g id="edge13" class="edge">
<title>Node12&#45;&gt;Node13</title>
<path fill="none" stroke="midnightblue" d="M463.39,-453.4C430.62,-456.07 394.59,-459.01 365.58,-461.38"/>
<polygon fill="midnightblue" stroke="midnightblue" points="463.76,-456.88 473.44,-452.58 463.19,-449.9 463.76,-456.88"/>
</g>
<!-- Node15 -->
<g id="node15" class="node">
<title>Node15</title>
<g id="a_node15"><a xlink:href="../../db/d20/class_contacts_controller.html#a5523eae0297ff38bd1ee5cdaa2ead925" target="_top" xlink:title="LLamada cuando se aceptan los permisos de lectura de contactos">
<polygon fill="white" stroke="black" points="216.5,-418.5 216.5,-437.5 399.5,-437.5 399.5,-418.5 216.5,-418.5"/>
<text text-anchor="middle" x="308" y="-425.5" font-family="Helvetica,sans-Serif" font-size="10.00">ContactsController.PermissionGranted</text>
</a>
</g>
</g>
<!-- Node14&#45;&gt;Node15 -->
<g id="edge15" class="edge">
<title>Node14&#45;&gt;Node15</title>
<path fill="none" stroke="midnightblue" d="M463.37,-415.4C442.61,-417.09 420.54,-418.89 399.78,-420.59"/>
<polygon fill="midnightblue" stroke="midnightblue" points="463.76,-418.88 473.44,-414.58 463.19,-411.9 463.76,-418.88"/>
</g>
<!-- Node17 -->
<g id="node17" class="node">
<title>Node17</title>
<g id="a_node17"><a xlink:href="../../db/d20/class_contacts_controller.html#a18ddb1f465c9a56f0f080f9ce9cb0011" target="_top" xlink:title="Llamada justo antes del primer fotograma">
<polygon fill="white" stroke="black" points="247.5,-380.5 247.5,-399.5 368.5,-399.5 368.5,-380.5 247.5,-380.5"/>
<text text-anchor="middle" x="308" y="-387.5" font-family="Helvetica,sans-Serif" font-size="10.00">ContactsController.Start</text>
</a>
</g>
</g>
<!-- Node14&#45;&gt;Node17 -->
<g id="edge17" class="edge">
<title>Node14&#45;&gt;Node17</title>
<path fill="none" stroke="midnightblue" d="M463.3,-401.34C431.7,-399.01 397.07,-396.47 368.64,-394.38"/>
<polygon fill="midnightblue" stroke="midnightblue" points="463.21,-404.84 473.44,-402.08 463.72,-397.86 463.21,-404.84"/>
</g>
<!-- Node16 -->
<g id="node16" class="node">
<title>Node16</title>
<g id="a_node16"><a xlink:href="../../db/d20/class_contacts_controller.html#a55e6be8eaa668f93e23c09e491c644c8" target="_top" xlink:title="Llamada al crear el GameObject asociado">
<polygon fill="white" stroke="black" points="13,-418.5 13,-437.5 142,-437.5 142,-418.5 13,-418.5"/>
<text text-anchor="middle" x="77.5" y="-425.5" font-family="Helvetica,sans-Serif" font-size="10.00">ContactsController.Awake</text>
</a>
</g>
</g>
<!-- Node15&#45;&gt;Node16 -->
<g id="edge16" class="edge">
<title>Node15&#45;&gt;Node16</title>
<path fill="none" stroke="midnightblue" d="M206.12,-428C184.43,-428 162.08,-428 142.27,-428"/>
<polygon fill="midnightblue" stroke="midnightblue" points="206.36,-431.5 216.36,-428 206.36,-424.5 206.36,-431.5"/>
</g>
<!-- Node19 -->
<g id="node19" class="node">
<title>Node19</title>
<g id="a_node19"><a xlink:href="../../d7/d31/class_audio_manager.html#ab333270dca5bf5c039de3d70ca111ba9" target="_top" xlink:title="Llamada justo antes del primer fotograma">
<polygon fill="white" stroke="black" points="503.5,-266.5 503.5,-285.5 606.5,-285.5 606.5,-266.5 503.5,-266.5"/>
<text text-anchor="middle" x="555" y="-273.5" font-family="Helvetica,sans-Serif" font-size="10.00">AudioManager.Start</text>
</a>
</g>
</g>
<!-- Node18&#45;&gt;Node19 -->
<g id="edge19" class="edge">
<title>Node18&#45;&gt;Node19</title>
<path fill="none" stroke="midnightblue" d="M682.07,-267.23C654.89,-269.12 628.26,-270.97 606.53,-272.48"/>
<polygon fill="midnightblue" stroke="midnightblue" points="682.37,-270.71 692.1,-266.53 681.88,-263.73 682.37,-270.71"/>
</g>
<!-- Node21 -->
<g id="node21" class="node">
<title>Node21</title>
<g id="a_node21"><a xlink:href="../../d0/dda/class_app_entry_point.html#ac431add7aa1c5d78adfed6782eedd949" target="_top" xlink:title="Llamada al crear el GameObject asociado">
<polygon fill="white" stroke="black" points="499,-228.5 499,-247.5 611,-247.5 611,-228.5 499,-228.5"/>
<text text-anchor="middle" x="555" y="-235.5" font-family="Helvetica,sans-Serif" font-size="10.00">AppEntryPoint.Awake</text>
</a>
</g>
</g>
<!-- Node20&#45;&gt;Node21 -->
<g id="edge21" class="edge">
<title>Node20&#45;&gt;Node21</title>
<path fill="none" stroke="midnightblue" d="M750.54,-210.92C705.99,-217.12 651.3,-224.74 611.26,-230.31"/>
<polygon fill="midnightblue" stroke="midnightblue" points="751.04,-214.39 760.46,-209.54 750.08,-207.45 751.04,-214.39"/>
</g>
<!-- Node22 -->
<g id="node22" class="node">
<title>Node22</title>
<g id="a_node22"><a xlink:href="../../d0/dda/class_app_entry_point.html#afc6b25a70732c6bcf06409f22a586861" target="_top" xlink:title="Llamadada cuando se destruye el GameObject asociado">
<polygon fill="white" stroke="black" points="490.5,-190.5 490.5,-209.5 619.5,-209.5 619.5,-190.5 490.5,-190.5"/>
<text text-anchor="middle" x="555" y="-197.5" font-family="Helvetica,sans-Serif" font-size="10.00">AppEntryPoint.OnDestroy</text>
</a>
</g>
</g>
<!-- Node20&#45;&gt;Node22 -->
<g id="edge22" class="edge">
<title>Node20&#45;&gt;Node22</title>
<path fill="none" stroke="midnightblue" d="M739,-200C700,-200 655.25,-200 619.76,-200"/>
<polygon fill="midnightblue" stroke="midnightblue" points="739.3,-203.5 749.3,-200 739.3,-196.5 739.3,-203.5"/>
</g>
<!-- Node23&#45;&gt;Node24 -->
<g id="edge24" class="edge">
<title>Node23&#45;&gt;Node24</title>
<path fill="none" stroke="midnightblue" d="M745.46,-75.34C715.14,-71.95 680.58,-68.66 649,-67 445.53,-56.29 393.37,-63.36 191,-87 171.75,-89.25 150.75,-92.41 132.16,-95.46"/>
<polygon fill="midnightblue" stroke="midnightblue" points="745.24,-78.83 755.57,-76.48 746.03,-71.88 745.24,-78.83"/>
</g>
<!-- Node25 -->
<g id="node25" class="node">
<title>Node25</title>
<g id="a_node25"><a xlink:href="../../dd/ddc/class_register_phone_u_i_controller.html#a5cd62efcd8f1e816c759ac0ede78aaaf" target="_top" xlink:title="Se desuscribe de los eventos de clases estáticas">
<polygon fill="white" stroke="black" points="461,-76.5 461,-95.5 649,-95.5 649,-76.5 461,-76.5"/>
<text text-anchor="middle" x="555" y="-83.5" font-family="Helvetica,sans-Serif" font-size="10.00">RegisterPhoneUIController.Unsubscribe</text>
</a>
</g>
</g>
<!-- Node23&#45;&gt;Node25 -->
<g id="edge25" class="edge">
<title>Node23&#45;&gt;Node25</title>
<path fill="none" stroke="midnightblue" d="M698.88,-79.26C682.18,-79.22 665.34,-79.32 649.38,-79.56"/>
<polygon fill="midnightblue" stroke="midnightblue" points="699.25,-82.76 709.26,-79.3 699.27,-75.76 699.25,-82.76"/>
</g>
<!-- Node25&#45;&gt;Node23 -->
<g id="edge26" class="edge">
<title>Node25&#45;&gt;Node23</title>
<path fill="none" stroke="midnightblue" d="M659.42,-92.57C675.7,-92.75 692.65,-92.8 709.26,-92.7"/>
<polygon fill="midnightblue" stroke="midnightblue" points="659.43,-89.07 649.38,-92.44 659.34,-96.07 659.43,-89.07"/>
</g>
<!-- Node25&#45;&gt;Node24 -->
<g id="edge27" class="edge">
<title>Node25&#45;&gt;Node24</title>
<path fill="none" stroke="midnightblue" d="M450.8,-90.12C361.88,-93.68 235.52,-98.73 155.29,-101.93"/>
<polygon fill="midnightblue" stroke="midnightblue" points="451.05,-93.62 460.91,-89.72 450.78,-86.62 451.05,-93.62"/>
</g>
<!-- Node25&#45;&gt;Node26 -->
<g id="edge28" class="edge">
<title>Node25&#45;&gt;Node26</title>
<path fill="none" stroke="midnightblue" d="M482.21,-97.13C446.78,-102.63 404.47,-109.19 370.53,-114.46"/>
<polygon fill="midnightblue" stroke="midnightblue" points="483.15,-100.53 492.49,-95.54 482.07,-93.61 483.15,-100.53"/>
</g>
<!-- Node26&#45;&gt;Node24 -->
<g id="edge29" class="edge">
<title>Node26&#45;&gt;Node24</title>
<path fill="none" stroke="midnightblue" d="M204.43,-115.47C187.82,-114.09 170.88,-112.68 155.02,-111.36"/>
<polygon fill="midnightblue" stroke="midnightblue" points="204.46,-118.99 214.72,-116.33 205.04,-112.01 204.46,-118.99"/>
</g>
<!-- Node28 -->
<g id="node28" class="node">
<title>Node28</title>
<g id="a_node28"><a xlink:href="../../d8/d7d/class_register_name_u_i_controller.html#a5c7e76753bc91e585403685a869aaa96" target="_top" xlink:title="Llamada justo antes del primer fotograma">
<polygon fill="white" stroke="black" points="479,-0.5 479,-19.5 631,-19.5 631,-0.5 479,-0.5"/>
<text text-anchor="middle" x="555" y="-7.5" font-family="Helvetica,sans-Serif" font-size="10.00">RegisterNameUIController.Start</text>
</a>
</g>
</g>
<!-- Node27&#45;&gt;Node28 -->
<g id="edge31" class="edge">
<title>Node27&#45;&gt;Node28</title>
<path fill="none" stroke="midnightblue" d="M745.42,-37.19C725.61,-34.57 704.55,-31.73 685,-29 663.59,-26.01 640.2,-22.61 619.29,-19.52"/>
<polygon fill="midnightblue" stroke="midnightblue" points="744.97,-40.66 755.34,-38.5 745.89,-33.72 744.97,-40.66"/>
</g>
</g>
</svg>
