<?xml version="1.0" encoding="UTF-8" standalone="no"?>
<!DOCTYPE svg PUBLIC "-//W3C//DTD SVG 1.1//EN"
 "http://www.w3.org/Graphics/SVG/1.1/DTD/svg11.dtd">
<!-- Generated by graphviz version 2.49.0 (20210828.1703)
 -->
<!-- Title: TopbarUIController Pages: 1 -->
<svg width="942pt" height="1821pt"
 viewBox="0.00 0.00 942.00 1821.00" xmlns="http://www.w3.org/2000/svg" xmlns:xlink="http://www.w3.org/1999/xlink">
<g id="graph0" class="graph" transform="scale(1 1) rotate(0) translate(4 1817)">
<title>TopbarUIController</title>
<polygon fill="white" stroke="transparent" points="-4,4 -4,-1817 938,-1817 938,4 -4,4"/>
<!-- Node1 -->
<g id="node1" class="node">
<title>Node1</title>
<g id="a_node1"><a xlink:title="Controla la interfaz de la barra de opciones superior en una videollamada">
<polygon fill="#bfbfbf" stroke="black" points="199,-0.5 199,-167.5 351,-167.5 351,-0.5 199,-0.5"/>
<text text-anchor="middle" x="275" y="-155.5" font-family="Helvetica,sans-Serif" font-size="10.00">TopbarUIController</text>
<polyline fill="none" stroke="black" points="199,-148.5 351,-148.5 "/>
<text text-anchor="start" x="207" y="-136.5" font-family="Helvetica,sans-Serif" font-size="10.00">+ Sprite audioIcon</text>
<text text-anchor="start" x="207" y="-125.5" font-family="Helvetica,sans-Serif" font-size="10.00">+ Sprite muteAudioIcon</text>
<text text-anchor="start" x="207" y="-114.5" font-family="Helvetica,sans-Serif" font-size="10.00">+ Sprite videoIcon</text>
<text text-anchor="start" x="207" y="-103.5" font-family="Helvetica,sans-Serif" font-size="10.00">+ Sprite disableVideoIcon</text>
<text text-anchor="start" x="207" y="-92.5" font-family="Helvetica,sans-Serif" font-size="10.00">&#45; Button muteMyAudioBtn</text>
<text text-anchor="start" x="207" y="-81.5" font-family="Helvetica,sans-Serif" font-size="10.00">&#45; Button disableVideoBtn</text>
<text text-anchor="start" x="207" y="-70.5" font-family="Helvetica,sans-Serif" font-size="10.00">&#45; GameObject otherUserBubble</text>
<text text-anchor="start" x="207" y="-59.5" font-family="Helvetica,sans-Serif" font-size="10.00">&#45; Button roomBtn</text>
<text text-anchor="start" x="207" y="-48.5" font-family="Helvetica,sans-Serif" font-size="10.00">&#45; bool userReady</text>
<polyline fill="none" stroke="black" points="199,-41.5 351,-41.5 "/>
<text text-anchor="start" x="207" y="-29.5" font-family="Helvetica,sans-Serif" font-size="10.00">&#45; void Awake()</text>
<text text-anchor="start" x="207" y="-18.5" font-family="Helvetica,sans-Serif" font-size="10.00">&#45; void Start()</text>
<text text-anchor="start" x="207" y="-7.5" font-family="Helvetica,sans-Serif" font-size="10.00">&#45; void FixedUpdate()</text>
</a>
</g>
</g>
<!-- Node2 -->
<g id="node2" class="node">
<title>Node2</title>
<g id="a_node2"><a xlink:title=" ">
<polygon fill="white" stroke="#bfbfbf" points="247.5,-1755.5 247.5,-1812.5 330.5,-1812.5 330.5,-1755.5 247.5,-1755.5"/>
<text text-anchor="middle" x="289" y="-1800.5" font-family="Helvetica,sans-Serif" font-size="10.00">MonoBehaviour</text>
<polyline fill="none" stroke="#bfbfbf" points="247.5,-1793.5 330.5,-1793.5 "/>
<text text-anchor="middle" x="289" y="-1781.5" font-family="Helvetica,sans-Serif" font-size="10.00"> </text>
<polyline fill="none" stroke="#bfbfbf" points="247.5,-1774.5 330.5,-1774.5 "/>
<text text-anchor="middle" x="289" y="-1762.5" font-family="Helvetica,sans-Serif" font-size="10.00"> </text>
</a>
</g>
</g>
<!-- Node2&#45;&gt;Node1 -->
<g id="edge1" class="edge">
<title>Node2&#45;&gt;Node1</title>
<path fill="none" stroke="midnightblue" d="M237.16,-1777.8C191.62,-1770.87 125.84,-1754.85 81,-1718 22.77,-1670.14 0,-1644.37 0,-1569 0,-1569 0,-1569 0,-408 0,-284.82 117.38,-184.73 198.76,-130.13"/>
<polygon fill="none" stroke="midnightblue" points="236.73,-1781.28 247.12,-1779.22 237.71,-1774.35 236.73,-1781.28"/>
</g>
<!-- Node3 -->
<g id="node3" class="node">
<title>Node3</title>
<g id="a_node3"><a xlink:href="../../d7/d31/class_audio_manager.html" target="_top" xlink:title="Maneja la lógica de la captura y reproducción de audio">
<polygon fill="white" stroke="black" points="66.5,-650.5 66.5,-1125.5 347.5,-1125.5 347.5,-650.5 66.5,-650.5"/>
<text text-anchor="middle" x="207" y="-1113.5" font-family="Helvetica,sans-Serif" font-size="10.00">AudioManager</text>
<polyline fill="none" stroke="black" points="66.5,-1106.5 347.5,-1106.5 "/>
<text text-anchor="start" x="74.5" y="-1094.5" font-family="Helvetica,sans-Serif" font-size="10.00">+ bool audioReady</text>
<text text-anchor="start" x="74.5" y="-1083.5" font-family="Helvetica,sans-Serif" font-size="10.00">+ AudioSource outputAudioSource</text>
<text text-anchor="start" x="74.5" y="-1072.5" font-family="Helvetica,sans-Serif" font-size="10.00">+ AudioSource inputAudioSource</text>
<text text-anchor="start" x="74.5" y="-1061.5" font-family="Helvetica,sans-Serif" font-size="10.00">+ int bufferSize</text>
<text text-anchor="start" x="74.5" y="-1050.5" font-family="Helvetica,sans-Serif" font-size="10.00">+ ulong? bitrate</text>
<text text-anchor="start" x="74.5" y="-1039.5" font-family="Helvetica,sans-Serif" font-size="10.00">&#45; AudioStreamTrack audioStreamTrack</text>
<text text-anchor="start" x="74.5" y="-1028.5" font-family="Helvetica,sans-Serif" font-size="10.00">&#45; int lengthSeconds</text>
<text text-anchor="start" x="74.5" y="-1017.5" font-family="Helvetica,sans-Serif" font-size="10.00">&#45; int samplingFreq</text>
<text text-anchor="start" x="74.5" y="-1006.5" font-family="Helvetica,sans-Serif" font-size="10.00">&#45; AndroidJavaObject context</text>
<text text-anchor="start" x="74.5" y="-995.5" font-family="Helvetica,sans-Serif" font-size="10.00">&#45; AndroidJavaObject androidAudioManager</text>
<text text-anchor="start" x="74.5" y="-984.5" font-family="Helvetica,sans-Serif" font-size="10.00">&#45; int defaultMode</text>
<text text-anchor="start" x="74.5" y="-973.5" font-family="Helvetica,sans-Serif" font-size="10.00">&#45; bool defaultIsSpeakerphone</text>
<text text-anchor="start" x="74.5" y="-962.5" font-family="Helvetica,sans-Serif" font-size="10.00">&#45; int voiceMinVol</text>
<text text-anchor="start" x="74.5" y="-951.5" font-family="Helvetica,sans-Serif" font-size="10.00">&#45; int mediaMinVol</text>
<text text-anchor="start" x="74.5" y="-940.5" font-family="Helvetica,sans-Serif" font-size="10.00">&#45; int voiceMaxVol</text>
<text text-anchor="start" x="74.5" y="-929.5" font-family="Helvetica,sans-Serif" font-size="10.00">&#45; int mediaMaxVol</text>
<text text-anchor="start" x="74.5" y="-918.5" font-family="Helvetica,sans-Serif" font-size="10.00">&#45; int originalMediaVol</text>
<text text-anchor="start" x="74.5" y="-907.5" font-family="Helvetica,sans-Serif" font-size="10.00">&#45; PermissionCallbacks microphoneCallbacks</text>
<text text-anchor="start" x="74.5" y="-896.5" font-family="Helvetica,sans-Serif" font-size="10.00">&#45; bool muted</text>
<text text-anchor="start" x="74.5" y="-885.5" font-family="Helvetica,sans-Serif" font-size="10.00">&#45; string communicationDevice</text>
<text text-anchor="start" x="74.5" y="-874.5" font-family="Helvetica,sans-Serif" font-size="10.00">&#45; float[] spectrum</text>
<text text-anchor="start" x="74.5" y="-863.5" font-family="Helvetica,sans-Serif" font-size="10.00">&#45; int voiceVolume</text>
<text text-anchor="start" x="74.5" y="-852.5" font-family="Helvetica,sans-Serif" font-size="10.00">&#45; int lastCallVolume</text>
<polyline fill="none" stroke="black" points="66.5,-845.5 347.5,-845.5 "/>
<text text-anchor="start" x="74.5" y="-833.5" font-family="Helvetica,sans-Serif" font-size="10.00">+ bool ToggleMuteInput()</text>
<text text-anchor="start" x="74.5" y="-822.5" font-family="Helvetica,sans-Serif" font-size="10.00">+ bool ToggleMuteOutput()</text>
<text text-anchor="start" x="74.5" y="-811.5" font-family="Helvetica,sans-Serif" font-size="10.00">+ AudioStreamTrack RecordAudio()</text>
<text text-anchor="start" x="74.5" y="-800.5" font-family="Helvetica,sans-Serif" font-size="10.00">+ void PlayAudio(AudioClip clip)</text>
<text text-anchor="start" x="74.5" y="-789.5" font-family="Helvetica,sans-Serif" font-size="10.00">+ float GetVolume(AudioSource audioSource)</text>
<text text-anchor="start" x="74.5" y="-778.5" font-family="Helvetica,sans-Serif" font-size="10.00">&#45; void Awake()</text>
<text text-anchor="start" x="74.5" y="-767.5" font-family="Helvetica,sans-Serif" font-size="10.00">&#45; void Start()</text>
<text text-anchor="start" x="74.5" y="-756.5" font-family="Helvetica,sans-Serif" font-size="10.00">&#45; void Update()</text>
<text text-anchor="start" x="74.5" y="-745.5" font-family="Helvetica,sans-Serif" font-size="10.00">&#45; void SetVideocallAudio(int mode, bool isSpeakerphoneOn)</text>
<text text-anchor="start" x="74.5" y="-734.5" font-family="Helvetica,sans-Serif" font-size="10.00">&#45; float scaleValueToRange(float value, float</text>
<text text-anchor="start" x="74.5" y="-723.5" font-family="Helvetica,sans-Serif" font-size="10.00"> valueMin, float valueMax, float rangeMin,</text>
<text text-anchor="start" x="74.5" y="-712.5" font-family="Helvetica,sans-Serif" font-size="10.00"> float rangeMax)</text>
<text text-anchor="start" x="74.5" y="-701.5" font-family="Helvetica,sans-Serif" font-size="10.00">&#45; void MicrophonePermissionGranted(string permissionName)</text>
<text text-anchor="start" x="74.5" y="-690.5" font-family="Helvetica,sans-Serif" font-size="10.00">&#45; void MicrophonePermissionDenied(string permissionName)</text>
<text text-anchor="start" x="74.5" y="-679.5" font-family="Helvetica,sans-Serif" font-size="10.00">&#45; void MicrophonePermissionDeniedAndDontAskAgain</text>
<text text-anchor="start" x="74.5" y="-668.5" font-family="Helvetica,sans-Serif" font-size="10.00">(string permissionName)</text>
<text text-anchor="start" x="74.5" y="-657.5" font-family="Helvetica,sans-Serif" font-size="10.00">&#45; void OnDestroy()</text>
</a>
</g>
</g>
<!-- Node2&#45;&gt;Node3 -->
<g id="edge3" class="edge">
<title>Node2&#45;&gt;Node3</title>
<path fill="none" stroke="midnightblue" d="M277.98,-1745.65C258.55,-1677.64 218.95,-1528.75 205,-1400 192.74,-1286.88 204.55,-1257.78 205,-1144 205.02,-1137.91 205.05,-1131.74 205.08,-1125.52"/>
<polygon fill="none" stroke="midnightblue" points="274.68,-1746.83 280.81,-1755.47 281.4,-1744.89 274.68,-1746.83"/>
</g>
<!-- Node4 -->
<g id="node4" class="node">
<title>Node4</title>
<g id="a_node4"><a xlink:href="../../d2/dba/class_video_manager.html" target="_top" xlink:title="Maneja la lógica de la grabación y visualización de video">
<polygon fill="white" stroke="black" points="703.5,-1418.5 703.5,-1717.5 892.5,-1717.5 892.5,-1418.5 703.5,-1418.5"/>
<text text-anchor="middle" x="798" y="-1705.5" font-family="Helvetica,sans-Serif" font-size="10.00">VideoManager</text>
<polyline fill="none" stroke="black" points="703.5,-1698.5 892.5,-1698.5 "/>
<text text-anchor="start" x="711.5" y="-1686.5" font-family="Helvetica,sans-Serif" font-size="10.00">+ int width</text>
<text text-anchor="start" x="711.5" y="-1675.5" font-family="Helvetica,sans-Serif" font-size="10.00">+ int height</text>
<text text-anchor="start" x="711.5" y="-1664.5" font-family="Helvetica,sans-Serif" font-size="10.00">+ float aspectRatio</text>
<text text-anchor="start" x="711.5" y="-1653.5" font-family="Helvetica,sans-Serif" font-size="10.00">+ ulong bitrate</text>
<text text-anchor="start" x="711.5" y="-1642.5" font-family="Helvetica,sans-Serif" font-size="10.00">+ uint framerate</text>
<text text-anchor="start" x="711.5" y="-1631.5" font-family="Helvetica,sans-Serif" font-size="10.00">+ bool isRecording</text>
<text text-anchor="start" x="711.5" y="-1620.5" font-family="Helvetica,sans-Serif" font-size="10.00">+ RawImage videoRawImage</text>
<text text-anchor="start" x="711.5" y="-1609.5" font-family="Helvetica,sans-Serif" font-size="10.00">+ VideoStreamTrack videoStreamTrack</text>
<text text-anchor="start" x="711.5" y="-1598.5" font-family="Helvetica,sans-Serif" font-size="10.00">+ bool videoDisabled</text>
<text text-anchor="start" x="711.5" y="-1587.5" font-family="Helvetica,sans-Serif" font-size="10.00">+ Camera mainCam</text>
<text text-anchor="start" x="711.5" y="-1576.5" font-family="Helvetica,sans-Serif" font-size="10.00">+ ARSession arSession</text>
<text text-anchor="start" x="711.5" y="-1565.5" font-family="Helvetica,sans-Serif" font-size="10.00">&#45; Camera arCam</text>
<text text-anchor="start" x="711.5" y="-1554.5" font-family="Helvetica,sans-Serif" font-size="10.00">&#45; Camera webCam</text>
<text text-anchor="start" x="711.5" y="-1543.5" font-family="Helvetica,sans-Serif" font-size="10.00">&#45; RawImage webCamRawImage</text>
<text text-anchor="start" x="711.5" y="-1532.5" font-family="Helvetica,sans-Serif" font-size="10.00">&#45; WebCamTexture webcamTexture</text>
<text text-anchor="start" x="711.5" y="-1521.5" font-family="Helvetica,sans-Serif" font-size="10.00">&#45; GameObject noVideoAR</text>
<text text-anchor="start" x="711.5" y="-1510.5" font-family="Helvetica,sans-Serif" font-size="10.00">&#45; GameObject noVideoUI</text>
<text text-anchor="start" x="711.5" y="-1499.5" font-family="Helvetica,sans-Serif" font-size="10.00">&#45; Canvas arToolTipsUI</text>
<polyline fill="none" stroke="black" points="703.5,-1492.5 892.5,-1492.5 "/>
<text text-anchor="start" x="711.5" y="-1480.5" font-family="Helvetica,sans-Serif" font-size="10.00">+ VideoStreamTrack RecordCamera()</text>
<text text-anchor="start" x="711.5" y="-1469.5" font-family="Helvetica,sans-Serif" font-size="10.00">+ void ShowVideo(bool show)</text>
<text text-anchor="start" x="711.5" y="-1458.5" font-family="Helvetica,sans-Serif" font-size="10.00">+ bool ToggleVideo()</text>
<text text-anchor="start" x="711.5" y="-1447.5" font-family="Helvetica,sans-Serif" font-size="10.00">&#45; void Awake()</text>
<text text-anchor="start" x="711.5" y="-1436.5" font-family="Helvetica,sans-Serif" font-size="10.00">&#45; void Start()</text>
<text text-anchor="start" x="711.5" y="-1425.5" font-family="Helvetica,sans-Serif" font-size="10.00">&#45; void OnApplicationPause(bool paused)</text>
</a>
</g>
</g>
<!-- Node2&#45;&gt;Node4 -->
<g id="edge5" class="edge">
<title>Node2&#45;&gt;Node4</title>
<path fill="none" stroke="midnightblue" d="M340.87,-1782.28C434.75,-1780.12 628.38,-1771.49 685,-1737 694.01,-1731.51 702.45,-1725.01 710.35,-1717.79"/>
<polygon fill="none" stroke="midnightblue" points="340.67,-1778.78 330.74,-1782.5 340.82,-1785.78 340.67,-1778.78"/>
</g>
<!-- Node5 -->
<g id="node5" class="node">
<title>Node5</title>
<g id="a_node5"><a xlink:href="../../d2/d48/class_peer_connection_manager.html" target="_top" xlink:title="Maneja la lógica de una conexión entre dos pares">
<polygon fill="white" stroke="black" points="292,-215.5 292,-602.5 600,-602.5 600,-215.5 292,-215.5"/>
<text text-anchor="middle" x="446" y="-590.5" font-family="Helvetica,sans-Serif" font-size="10.00">PeerConnectionManager</text>
<polyline fill="none" stroke="black" points="292,-583.5 600,-583.5 "/>
<text text-anchor="start" x="300" y="-571.5" font-family="Helvetica,sans-Serif" font-size="10.00">+ PeerType myPeerType</text>
<text text-anchor="start" x="300" y="-560.5" font-family="Helvetica,sans-Serif" font-size="10.00">&#45; RTCDataChannel clientInputDataChannel</text>
<text text-anchor="start" x="300" y="-549.5" font-family="Helvetica,sans-Serif" font-size="10.00">&#45; RTCDataChannel aspectRatioDataChannel</text>
<text text-anchor="start" x="300" y="-538.5" font-family="Helvetica,sans-Serif" font-size="10.00">&#45; RTCDataChannel clientActionDataChannel</text>
<text text-anchor="start" x="300" y="-527.5" font-family="Helvetica,sans-Serif" font-size="10.00">&#45; RTCConfiguration RTCconfig</text>
<text text-anchor="start" x="300" y="-516.5" font-family="Helvetica,sans-Serif" font-size="10.00">&#45; RTCPeerConnection pc</text>
<text text-anchor="start" x="300" y="-505.5" font-family="Helvetica,sans-Serif" font-size="10.00">&#45; RTCRtpSender videoSender</text>
<text text-anchor="start" x="300" y="-494.5" font-family="Helvetica,sans-Serif" font-size="10.00">&#45; MediaStream mediaStream</text>
<text text-anchor="start" x="300" y="-483.5" font-family="Helvetica,sans-Serif" font-size="10.00">&#45; RTCRtpSender audioSender</text>
<polyline fill="none" stroke="black" points="292,-476.5 600,-476.5 "/>
<text text-anchor="start" x="300" y="-464.5" font-family="Helvetica,sans-Serif" font-size="10.00">+ void HangUp()</text>
<text text-anchor="start" x="300" y="-453.5" font-family="Helvetica,sans-Serif" font-size="10.00">&#45; void Awake()</text>
<text text-anchor="start" x="300" y="-442.5" font-family="Helvetica,sans-Serif" font-size="10.00">&#45; void OnClientReadyDelegate()</text>
<text text-anchor="start" x="300" y="-431.5" font-family="Helvetica,sans-Serif" font-size="10.00">&#45; void OnMessageReceivedDelegate(Message msg)</text>
<text text-anchor="start" x="300" y="-420.5" font-family="Helvetica,sans-Serif" font-size="10.00">&#45; void Update()</text>
<text text-anchor="start" x="300" y="-409.5" font-family="Helvetica,sans-Serif" font-size="10.00">&#45; void EnableAudioStream(bool enabled)</text>
<text text-anchor="start" x="300" y="-398.5" font-family="Helvetica,sans-Serif" font-size="10.00">&#45; async void Start()</text>
<text text-anchor="start" x="300" y="-387.5" font-family="Helvetica,sans-Serif" font-size="10.00">&#45; bool SetVideoParameters()</text>
<text text-anchor="start" x="300" y="-376.5" font-family="Helvetica,sans-Serif" font-size="10.00">&#45; bool SetAudioParameters()</text>
<text text-anchor="start" x="300" y="-365.5" font-family="Helvetica,sans-Serif" font-size="10.00">&#45; void AddTracks()</text>
<text text-anchor="start" x="300" y="-354.5" font-family="Helvetica,sans-Serif" font-size="10.00">&#45; void AddDataChannels()</text>
<text text-anchor="start" x="300" y="-343.5" font-family="Helvetica,sans-Serif" font-size="10.00">&#45; IEnumerator Call()</text>
<text text-anchor="start" x="300" y="-332.5" font-family="Helvetica,sans-Serif" font-size="10.00">&#45; void OnSceneUnloaded&lt; Scene &gt;(Scene scene)</text>
<text text-anchor="start" x="300" y="-321.5" font-family="Helvetica,sans-Serif" font-size="10.00">&#45; void OnApplicationPause(bool paused)</text>
<text text-anchor="start" x="300" y="-310.5" font-family="Helvetica,sans-Serif" font-size="10.00">&#45; void OnApplicationFocus(bool focused)</text>
<text text-anchor="start" x="300" y="-299.5" font-family="Helvetica,sans-Serif" font-size="10.00">&#45; void OnDestroy()</text>
<text text-anchor="start" x="300" y="-288.5" font-family="Helvetica,sans-Serif" font-size="10.00">&#45; void OnDisconnect()</text>
<text text-anchor="start" x="300" y="-277.5" font-family="Helvetica,sans-Serif" font-size="10.00">&#45; IEnumerator ReadMessageDB(Message msg)</text>
<text text-anchor="start" x="300" y="-266.5" font-family="Helvetica,sans-Serif" font-size="10.00">&#45; async void UnReadyUser()</text>
<text text-anchor="start" x="300" y="-255.5" font-family="Helvetica,sans-Serif" font-size="10.00">&#45; async void ReadyUser()</text>
<text text-anchor="start" x="300" y="-244.5" font-family="Helvetica,sans-Serif" font-size="10.00">&#45; RTCIceCandidateInit InitIceCandidate(RTCIceCandidate candidate)</text>
<text text-anchor="start" x="300" y="-233.5" font-family="Helvetica,sans-Serif" font-size="10.00">&#45; bool ImHost()</text>
<text text-anchor="start" x="300" y="-222.5" font-family="Helvetica,sans-Serif" font-size="10.00">&#45; static RTCConfiguration ServersConfig()</text>
</a>
</g>
</g>
<!-- Node2&#45;&gt;Node5 -->
<g id="edge7" class="edge">
<title>Node2&#45;&gt;Node5</title>
<path fill="none" stroke="midnightblue" d="M239.08,-1753.62C225.99,-1743.79 213.03,-1731.76 204,-1718 55.28,-1491.33 89.91,-1395.1 57,-1126 44.16,-1021 -9.89,-731.94 57,-650 122.98,-569.18 197.6,-656.79 287,-603 288.67,-601.99 290.34,-600.96 291.99,-599.91"/>
<polygon fill="none" stroke="midnightblue" points="237.05,-1756.47 247.22,-1759.46 241.14,-1750.79 237.05,-1756.47"/>
</g>
<!-- Node6 -->
<g id="node6" class="node">
<title>Node6</title>
<g id="a_node6"><a xlink:href="../../dc/d59/class_my_input_manager.html" target="_top" xlink:title="Mapea la entrada de usuario real con la que debería indicada para el contenido actual">
<polygon fill="white" stroke="black" points="575.5,-782.5 575.5,-993.5 766.5,-993.5 766.5,-782.5 575.5,-782.5"/>
<text text-anchor="middle" x="671" y="-981.5" font-family="Helvetica,sans-Serif" font-size="10.00">MyInputManager</text>
<polyline fill="none" stroke="black" points="575.5,-974.5 766.5,-974.5 "/>
<text text-anchor="start" x="583.5" y="-962.5" font-family="Helvetica,sans-Serif" font-size="10.00">+ PeerType myPeerType</text>
<text text-anchor="start" x="583.5" y="-951.5" font-family="Helvetica,sans-Serif" font-size="10.00">+ bool recording</text>
<text text-anchor="start" x="583.5" y="-940.5" font-family="Helvetica,sans-Serif" font-size="10.00">+ Vector3 hostPosition</text>
<text text-anchor="start" x="583.5" y="-929.5" font-family="Helvetica,sans-Serif" font-size="10.00">+ Vector3 clientPosition</text>
<text text-anchor="start" x="583.5" y="-918.5" font-family="Helvetica,sans-Serif" font-size="10.00">+ TouchScreenKeyboard clientKeyboard</text>
<text text-anchor="start" x="583.5" y="-907.5" font-family="Helvetica,sans-Serif" font-size="10.00">&#45; float scaledPixelRatioX</text>
<text text-anchor="start" x="583.5" y="-896.5" font-family="Helvetica,sans-Serif" font-size="10.00">&#45; float scaledPixelRatioY</text>
<text text-anchor="start" x="583.5" y="-885.5" font-family="Helvetica,sans-Serif" font-size="10.00">&#45; float clientAspectRatio</text>
<text text-anchor="start" x="583.5" y="-874.5" font-family="Helvetica,sans-Serif" font-size="10.00">&#45; int croppedScreenWidth</text>
<text text-anchor="start" x="583.5" y="-863.5" font-family="Helvetica,sans-Serif" font-size="10.00">&#45; int croppedScreenHeight</text>
<text text-anchor="start" x="583.5" y="-852.5" font-family="Helvetica,sans-Serif" font-size="10.00">&#45; int offsetX</text>
<text text-anchor="start" x="583.5" y="-841.5" font-family="Helvetica,sans-Serif" font-size="10.00">&#45; int offsetY</text>
<polyline fill="none" stroke="black" points="575.5,-834.5 766.5,-834.5 "/>
<text text-anchor="start" x="583.5" y="-822.5" font-family="Helvetica,sans-Serif" font-size="10.00">+ bool IsHeldDown(PeerType peer)</text>
<text text-anchor="start" x="583.5" y="-811.5" font-family="Helvetica,sans-Serif" font-size="10.00">&#45; void Awake()</text>
<text text-anchor="start" x="583.5" y="-800.5" font-family="Helvetica,sans-Serif" font-size="10.00">&#45; void Start()</text>
<text text-anchor="start" x="583.5" y="-789.5" font-family="Helvetica,sans-Serif" font-size="10.00">&#45; void Update()</text>
</a>
</g>
</g>
<!-- Node2&#45;&gt;Node6 -->
<g id="edge9" class="edge">
<title>Node2&#45;&gt;Node6</title>
<path fill="none" stroke="midnightblue" d="M339.57,-1758.09C359.18,-1747.2 381.15,-1733.39 399,-1718 536.85,-1599.17 593.82,-1570.68 657,-1400 683.57,-1328.21 680.69,-1121.15 675.98,-993.72"/>
<polygon fill="none" stroke="midnightblue" points="337.87,-1755.03 330.75,-1762.88 341.21,-1761.18 337.87,-1755.03"/>
</g>
<!-- Node7 -->
<g id="node7" class="node">
<title>Node7</title>
<g id="a_node7"><a xlink:href="../../db/d71/class_client_manager.html" target="_top" xlink:title="Maneja la lógica las acciones del cliente">
<polygon fill="white" stroke="black" points="206.5,-1227 206.5,-1317 371.5,-1317 371.5,-1227 206.5,-1227"/>
<text text-anchor="middle" x="289" y="-1305" font-family="Helvetica,sans-Serif" font-size="10.00">ClientManager</text>
<polyline fill="none" stroke="black" points="206.5,-1298 371.5,-1298 "/>
<text text-anchor="middle" x="289" y="-1286" font-family="Helvetica,sans-Serif" font-size="10.00"> </text>
<polyline fill="none" stroke="black" points="206.5,-1279 371.5,-1279 "/>
<text text-anchor="start" x="214.5" y="-1267" font-family="Helvetica,sans-Serif" font-size="10.00">+ void SelectTool(string toolName)</text>
<text text-anchor="start" x="214.5" y="-1256" font-family="Helvetica,sans-Serif" font-size="10.00">+ void UndoDrawing()</text>
<text text-anchor="start" x="214.5" y="-1245" font-family="Helvetica,sans-Serif" font-size="10.00">+ void DeleteDrawings(string peer)</text>
<text text-anchor="start" x="214.5" y="-1234" font-family="Helvetica,sans-Serif" font-size="10.00">+ void SelectColor(string color)</text>
</a>
</g>
</g>
<!-- Node2&#45;&gt;Node7 -->
<g id="edge14" class="edge">
<title>Node2&#45;&gt;Node7</title>
<path fill="none" stroke="midnightblue" d="M289,-1745.19C289,-1652.77 289,-1415.75 289,-1317.11"/>
<polygon fill="none" stroke="midnightblue" points="285.5,-1745.22 289,-1755.22 292.5,-1745.22 285.5,-1745.22"/>
</g>
<!-- Node8 -->
<g id="node8" class="node">
<title>Node8</title>
<g id="a_node8"><a xlink:href="../../d7/d5d/class_a_r_tool_manager.html" target="_top" xlink:title="Maneja la lógica de las herramientas de RA">
<polygon fill="white" stroke="black" points="376.5,-1144.5 376.5,-1399.5 655.5,-1399.5 655.5,-1144.5 376.5,-1144.5"/>
<text text-anchor="middle" x="516" y="-1387.5" font-family="Helvetica,sans-Serif" font-size="10.00">ARToolManager</text>
<polyline fill="none" stroke="black" points="376.5,-1380.5 655.5,-1380.5 "/>
<text text-anchor="start" x="384.5" y="-1368.5" font-family="Helvetica,sans-Serif" font-size="10.00">+ bool recording</text>
<text text-anchor="start" x="384.5" y="-1357.5" font-family="Helvetica,sans-Serif" font-size="10.00">+ Material hostMaterial</text>
<text text-anchor="start" x="384.5" y="-1346.5" font-family="Helvetica,sans-Serif" font-size="10.00">+ Material clientMaterial</text>
<text text-anchor="start" x="384.5" y="-1335.5" font-family="Helvetica,sans-Serif" font-size="10.00">+ Material ColorRed</text>
<text text-anchor="start" x="384.5" y="-1324.5" font-family="Helvetica,sans-Serif" font-size="10.00">+ Material ColorBlue</text>
<text text-anchor="start" x="384.5" y="-1313.5" font-family="Helvetica,sans-Serif" font-size="10.00">+ Material ColorGreen</text>
<text text-anchor="start" x="384.5" y="-1302.5" font-family="Helvetica,sans-Serif" font-size="10.00">+ Material ColorYellow</text>
<text text-anchor="start" x="384.5" y="-1291.5" font-family="Helvetica,sans-Serif" font-size="10.00">+ GameObject guidePrefab</text>
<text text-anchor="start" x="384.5" y="-1280.5" font-family="Helvetica,sans-Serif" font-size="10.00">+ static GameObject hostDrawings</text>
<text text-anchor="start" x="384.5" y="-1269.5" font-family="Helvetica,sans-Serif" font-size="10.00">+ static GameObject clientDrawings</text>
<text text-anchor="start" x="384.5" y="-1258.5" font-family="Helvetica,sans-Serif" font-size="10.00">+ static GameObject hostGuides</text>
<text text-anchor="start" x="384.5" y="-1247.5" font-family="Helvetica,sans-Serif" font-size="10.00">+ static GameObject clientGuides</text>
<text text-anchor="start" x="384.5" y="-1236.5" font-family="Helvetica,sans-Serif" font-size="10.00">&#45; GameObject hostTools</text>
<text text-anchor="start" x="384.5" y="-1225.5" font-family="Helvetica,sans-Serif" font-size="10.00">&#45; GameObject clientTools</text>
<polyline fill="none" stroke="black" points="376.5,-1218.5 655.5,-1218.5 "/>
<text text-anchor="start" x="384.5" y="-1206.5" font-family="Helvetica,sans-Serif" font-size="10.00">+ void SelectTool(PeerType peer, string toolName)</text>
<text text-anchor="start" x="384.5" y="-1195.5" font-family="Helvetica,sans-Serif" font-size="10.00">+ void UndoDrawing(string peer)</text>
<text text-anchor="start" x="384.5" y="-1184.5" font-family="Helvetica,sans-Serif" font-size="10.00">+ void DeleteDrawings(string peer)</text>
<text text-anchor="start" x="384.5" y="-1173.5" font-family="Helvetica,sans-Serif" font-size="10.00">+ void SelectColor(PeerType peer, string color)</text>
<text text-anchor="start" x="384.5" y="-1162.5" font-family="Helvetica,sans-Serif" font-size="10.00">+ GameObject PlaceGuide(PeerType peer, Transform target)</text>
<text text-anchor="start" x="384.5" y="-1151.5" font-family="Helvetica,sans-Serif" font-size="10.00">&#45; void Awake()</text>
</a>
</g>
</g>
<!-- Node2&#45;&gt;Node8 -->
<g id="edge16" class="edge">
<title>Node2&#45;&gt;Node8</title>
<path fill="none" stroke="midnightblue" d="M305.6,-1745.69C337.54,-1673.95 408.84,-1513.75 459.58,-1399.76"/>
<polygon fill="none" stroke="midnightblue" points="302.23,-1744.66 301.37,-1755.22 308.63,-1747.51 302.23,-1744.66"/>
</g>
<!-- Node3&#45;&gt;Node1 -->
<g id="edge2" class="edge">
<title>Node3&#45;&gt;Node1</title>
<path fill="none" stroke="#404040" d="M186.65,-650.23C181.33,-520.24 184.28,-357.06 216,-215 218.68,-202.99 222.54,-190.76 227.02,-178.83"/>
<polygon fill="none" stroke="#404040" points="227.08,-178.67 225.57,-171.62 231.49,-167.5 233.01,-174.55 227.08,-178.67"/>
<text text-anchor="middle" x="249.5" y="-406.5" font-family="Helvetica,sans-Serif" font-size="10.00"> &#45;audioManager</text>
</g>
<!-- Node3&#45;&gt;Node5 -->
<g id="edge12" class="edge">
<title>Node3&#45;&gt;Node5</title>
<path fill="none" stroke="#404040" d="M288.87,-650.34C293.44,-640.33 298.15,-630.52 303,-621 304.31,-618.42 305.65,-615.84 307.02,-613.25"/>
<polygon fill="none" stroke="#404040" points="307.06,-613.16 306.38,-605.98 312.75,-602.59 313.43,-609.77 307.06,-613.16"/>
<text text-anchor="middle" x="336.5" y="-624" font-family="Helvetica,sans-Serif" font-size="10.00"> &#45;audioManager</text>
</g>
<!-- Node4&#45;&gt;Node1 -->
<g id="edge4" class="edge">
<title>Node4&#45;&gt;Node1</title>
<path fill="none" stroke="#404040" d="M841.88,-1418.24C889.01,-1234.27 947.86,-913.2 874,-650 812.84,-432.04 782.52,-360.39 609,-215 537.62,-155.19 435.54,-120.88 363.05,-102.7"/>
<polygon fill="none" stroke="#404040" points="362.89,-102.66 356.11,-105.12 351.23,-99.81 358.01,-97.35 362.89,-102.66"/>
<text text-anchor="middle" x="901" y="-624" font-family="Helvetica,sans-Serif" font-size="10.00"> &#45;videoManager</text>
</g>
<!-- Node4&#45;&gt;Node5 -->
<g id="edge11" class="edge">
<title>Node4&#45;&gt;Node5</title>
<path fill="none" stroke="#404040" d="M801.6,-1418.39C806.41,-1176.04 810.7,-715.98 776,-650 739.85,-581.25 674.12,-527.37 610.8,-488.23"/>
<polygon fill="none" stroke="#404040" points="610.51,-488.05 603.3,-488.36 600.25,-481.83 607.45,-481.52 610.51,-488.05"/>
<text text-anchor="middle" x="837" y="-885.5" font-family="Helvetica,sans-Serif" font-size="10.00"> &#45;videoManager</text>
</g>
<!-- Node4&#45;&gt;Node6 -->
<g id="edge10" class="edge">
<title>Node4&#45;&gt;Node6</title>
<path fill="none" stroke="#404040" d="M728.35,-1418.09C726.4,-1412.03 724.6,-1405.99 723,-1400 703.76,-1328.19 687.52,-1133.13 678.54,-1005.84"/>
<polygon fill="none" stroke="#404040" points="678.53,-1005.71 674.12,-1000.01 677.69,-993.74 682.1,-999.45 678.53,-1005.71"/>
<text text-anchor="middle" x="756" y="-1269.5" font-family="Helvetica,sans-Serif" font-size="10.00"> &#45;videoManager</text>
</g>
<!-- Node5&#45;&gt;Node1 -->
<g id="edge6" class="edge">
<title>Node5&#45;&gt;Node1</title>
<path fill="none" stroke="#404040" d="M344.06,-215.45C337.32,-202.72 330.73,-190.27 324.45,-178.41"/>
<polygon fill="none" stroke="#404040" points="324.4,-178.31 318.05,-174.87 318.78,-167.7 325.13,-171.13 324.4,-178.31"/>
<text text-anchor="middle" x="368" y="-189" font-family="Helvetica,sans-Serif" font-size="10.00"> &#45;peerConnection</text>
</g>
<!-- Node6&#45;&gt;Node5 -->
<g id="edge8" class="edge">
<title>Node6&#45;&gt;Node5</title>
<path fill="none" stroke="#404040" d="M622.81,-782.46C603.68,-741.14 581.41,-693.28 561,-650 555.45,-638.24 549.74,-626.17 543.96,-613.99"/>
<polygon fill="none" stroke="#404040" points="543.78,-613.63 537.6,-609.92 538.63,-602.79 544.82,-606.49 543.78,-613.63"/>
<text text-anchor="middle" x="583.5" y="-624" font-family="Helvetica,sans-Serif" font-size="10.00"> &#45;inputManager</text>
</g>
<!-- Node7&#45;&gt;Node5 -->
<g id="edge13" class="edge">
<title>Node7&#45;&gt;Node5</title>
<path fill="none" stroke="#404040" d="M314.5,-1226.85C329.34,-1198.89 346.87,-1161.45 356,-1126 408.9,-920.61 358.25,-859.7 390,-650 391.75,-638.42 393.77,-626.57 395.98,-614.64"/>
<polygon fill="none" stroke="#404040" points="396.01,-614.49 393.2,-607.85 398.25,-602.7 401.06,-609.34 396.01,-614.49"/>
<text text-anchor="middle" x="423.5" y="-885.5" font-family="Helvetica,sans-Serif" font-size="10.00"> &#45;clientManager</text>
</g>
<!-- Node8&#45;&gt;Node5 -->
<g id="edge15" class="edge">
<title>Node8&#45;&gt;Node5</title>
<path fill="none" stroke="#404040" d="M498.94,-1144.13C498.25,-1138 497.6,-1131.94 497,-1126 479.64,-954.17 466.13,-758.55 457.39,-615.25"/>
<polygon fill="none" stroke="#404040" points="457.36,-614.84 453.01,-609.09 456.63,-602.86 460.99,-608.6 457.36,-614.84"/>
<text text-anchor="middle" x="532" y="-885.5" font-family="Helvetica,sans-Serif" font-size="10.00"> &#45;arToolManager</text>
</g>
</g>
</svg>
