<?xml version="1.0" encoding="UTF-8" standalone="no"?>
<!DOCTYPE svg PUBLIC "-//W3C//DTD SVG 1.1//EN"
 "http://www.w3.org/Graphics/SVG/1.1/DTD/svg11.dtd">
<!-- Generated by graphviz version 2.49.0 (20210828.1703)
 -->
<!-- Title: UserManager.SignUp Pages: 1 -->
<svg width="534pt" height="28pt"
 viewBox="0.00 0.00 534.00 28.00" xmlns="http://www.w3.org/2000/svg" xmlns:xlink="http://www.w3.org/1999/xlink">
<g id="graph0" class="graph" transform="scale(1 1) rotate(0) translate(4 24)">
<title>UserManager.SignUp</title>
<polygon fill="white" stroke="transparent" points="-4,4 -4,-24 530,-24 530,4 -4,4"/>
<!-- Node1 -->
<g id="node1" class="node">
<title>Node1</title>
<g id="a_node1"><a xlink:title="Registra el nombre de usuario">
<polygon fill="#bfbfbf" stroke="black" points="417,-0.5 417,-19.5 526,-19.5 526,-0.5 417,-0.5"/>
<text text-anchor="middle" x="471.5" y="-7.5" font-family="Helvetica,sans-Serif" font-size="10.00">UserManager.SignUp</text>
</a>
</g>
</g>
<!-- Node2 -->
<g id="node2" class="node">
<title>Node2</title>
<g id="a_node2"><a xlink:href="../../d8/d7d/class_register_name_u_i_controller.html#afc29ac5c585c83664552ce4d7e228e04" target="_top" xlink:title="Registra el nombre introducido del usuario actual">
<polygon fill="white" stroke="black" points="188,-0.5 188,-19.5 381,-19.5 381,-0.5 188,-0.5"/>
<text text-anchor="middle" x="284.5" y="-7.5" font-family="Helvetica,sans-Serif" font-size="10.00">RegisterNameUIController.RegisterName</text>
</a>
</g>
</g>
<!-- Node1&#45;&gt;Node2 -->
<g id="edge1" class="edge">
<title>Node1&#45;&gt;Node2</title>
<path fill="none" stroke="midnightblue" d="M406.96,-10C398.58,-10 389.85,-10 381.08,-10"/>
<polygon fill="midnightblue" stroke="midnightblue" points="406.99,-13.5 416.99,-10 406.99,-6.5 406.99,-13.5"/>
</g>
<!-- Node3 -->
<g id="node3" class="node">
<title>Node3</title>
<g id="a_node3"><a xlink:href="../../d8/d7d/class_register_name_u_i_controller.html#a5c7e76753bc91e585403685a869aaa96" target="_top" xlink:title="Llamada justo antes del primer fotograma">
<polygon fill="white" stroke="black" points="0,-0.5 0,-19.5 152,-19.5 152,-0.5 0,-0.5"/>
<text text-anchor="middle" x="76" y="-7.5" font-family="Helvetica,sans-Serif" font-size="10.00">RegisterNameUIController.Start</text>
</a>
</g>
</g>
<!-- Node2&#45;&gt;Node3 -->
<g id="edge2" class="edge">
<title>Node2&#45;&gt;Node3</title>
<path fill="none" stroke="midnightblue" d="M177.73,-10C169.14,-10 160.58,-10 152.28,-10"/>
<polygon fill="midnightblue" stroke="midnightblue" points="177.81,-13.5 187.81,-10 177.81,-6.5 177.81,-13.5"/>
</g>
</g>
</svg>
