<?xml version="1.0" encoding="UTF-8" standalone="no"?>
<!DOCTYPE svg PUBLIC "-//W3C//DTD SVG 1.1//EN"
 "http://www.w3.org/Graphics/SVG/1.1/DTD/svg11.dtd">
<!-- Generated by graphviz version 2.49.0 (20210828.1703)
 -->
<!-- Title: RegisterNameUIController.IsValidNameInput Pages: 1 -->
<svg width="413pt" height="66pt"
 viewBox="0.00 0.00 413.00 66.00" xmlns="http://www.w3.org/2000/svg" xmlns:xlink="http://www.w3.org/1999/xlink">
<g id="graph0" class="graph" transform="scale(1 1) rotate(0) translate(4 62)">
<title>RegisterNameUIController.IsValidNameInput</title>
<polygon fill="white" stroke="transparent" points="-4,4 -4,-62 409,-62 409,4 -4,4"/>
<!-- Node1 -->
<g id="node1" class="node">
<title>Node1</title>
<g id="a_node1"><a xlink:title="Comprueba si el nombre introducido es valido">
<polygon fill="#bfbfbf" stroke="black" points="198,-19.5 198,-38.5 405,-38.5 405,-19.5 198,-19.5"/>
<text text-anchor="middle" x="301.5" y="-26.5" font-family="Helvetica,sans-Serif" font-size="10.00">RegisterNameUIController.IsValidNameInput</text>
</a>
</g>
</g>
<!-- Node2 -->
<g id="node2" class="node">
<title>Node2</title>
<g id="a_node2"><a xlink:href="../../d8/d7d/class_register_name_u_i_controller.html#a5c7e76753bc91e585403685a869aaa96" target="_top" xlink:title="Llamada justo antes del primer fotograma">
<polygon fill="white" stroke="black" points="5,-38.5 5,-57.5 157,-57.5 157,-38.5 5,-38.5"/>
<text text-anchor="middle" x="81" y="-45.5" font-family="Helvetica,sans-Serif" font-size="10.00">RegisterNameUIController.Start</text>
</a>
</g>
</g>
<!-- Node1&#45;&gt;Node2 -->
<g id="edge1" class="edge">
<title>Node1&#45;&gt;Node2</title>
<path fill="none" stroke="midnightblue" d="M187.97,-38.79C177.53,-39.69 167.14,-40.6 157.17,-41.46"/>
<polygon fill="midnightblue" stroke="midnightblue" points="188.31,-42.27 197.97,-37.92 187.7,-35.3 188.31,-42.27"/>
</g>
<!-- Node3 -->
<g id="node3" class="node">
<title>Node3</title>
<g id="a_node3"><a xlink:href="../../d8/d7d/class_register_name_u_i_controller.html#af662c2e9793399d1d8c6f37378d57ee6" target="_top" xlink:title="Llamada al comienzo de cada fotograma">
<polygon fill="white" stroke="black" points="0,-0.5 0,-19.5 162,-19.5 162,-0.5 0,-0.5"/>
<text text-anchor="middle" x="81" y="-7.5" font-family="Helvetica,sans-Serif" font-size="10.00">RegisterNameUIController.Update</text>
</a>
</g>
</g>
<!-- Node1&#45;&gt;Node3 -->
<g id="edge2" class="edge">
<title>Node1&#45;&gt;Node3</title>
<path fill="none" stroke="midnightblue" d="M187.85,-19.2C179.23,-18.46 170.64,-17.71 162.3,-16.98"/>
<polygon fill="midnightblue" stroke="midnightblue" points="187.7,-22.7 197.97,-20.08 188.31,-15.73 187.7,-22.7"/>
</g>
</g>
</svg>
