<?xml version="1.0" encoding="UTF-8" standalone="no"?>
<!DOCTYPE svg PUBLIC "-//W3C//DTD SVG 1.1//EN"
 "http://www.w3.org/Graphics/SVG/1.1/DTD/svg11.dtd">
<!-- Generated by graphviz version 2.49.0 (20210828.1703)
 -->
<!-- Title: RegisterNameUIController.Start Pages: 1 -->
<svg width="782pt" height="124pt"
 viewBox="0.00 0.00 782.00 123.53" xmlns="http://www.w3.org/2000/svg" xmlns:xlink="http://www.w3.org/1999/xlink">
<g id="graph0" class="graph" transform="scale(1 1) rotate(0) translate(4 119.53)">
<title>RegisterNameUIController.Start</title>
<polygon fill="white" stroke="transparent" points="-4,4 -4,-119.53 778,-119.53 778,4 -4,4"/>
<!-- Node1 -->
<g id="node1" class="node">
<title>Node1</title>
<g id="a_node1"><a xlink:title="Llamada justo antes del primer fotograma">
<polygon fill="#bfbfbf" stroke="black" points="0,-76.5 0,-95.5 152,-95.5 152,-76.5 0,-76.5"/>
<text text-anchor="middle" x="76" y="-83.5" font-family="Helvetica,sans-Serif" font-size="10.00">RegisterNameUIController.Start</text>
</a>
</g>
</g>
<!-- Node2 -->
<g id="node2" class="node">
<title>Node2</title>
<g id="a_node2"><a xlink:href="../../d8/d7d/class_register_name_u_i_controller.html#a696813b8f833ebda8231a48f9bb40ef2" target="_top" xlink:title="Comprueba si el nombre introducido es valido">
<polygon fill="white" stroke="black" points="188,-95.5 188,-114.5 395,-114.5 395,-95.5 188,-95.5"/>
<text text-anchor="middle" x="291.5" y="-102.5" font-family="Helvetica,sans-Serif" font-size="10.00">RegisterNameUIController.IsValidNameInput</text>
</a>
</g>
</g>
<!-- Node1&#45;&gt;Node2 -->
<g id="edge1" class="edge">
<title>Node1&#45;&gt;Node2</title>
<path fill="none" stroke="midnightblue" d="M152.27,-92.7C160.56,-93.44 169.12,-94.2 177.73,-94.96"/>
<polygon fill="midnightblue" stroke="midnightblue" points="177.58,-98.46 187.85,-95.87 178.2,-91.49 177.58,-98.46"/>
</g>
<!-- Node3 -->
<g id="node3" class="node">
<title>Node3</title>
<g id="a_node3"><a xlink:href="../../d8/d7d/class_register_name_u_i_controller.html#afc29ac5c585c83664552ce4d7e228e04" target="_top" xlink:title="Registra el nombre introducido del usuario actual">
<polygon fill="white" stroke="black" points="195,-57.5 195,-76.5 388,-76.5 388,-57.5 195,-57.5"/>
<text text-anchor="middle" x="291.5" y="-64.5" font-family="Helvetica,sans-Serif" font-size="10.00">RegisterNameUIController.RegisterName</text>
</a>
</g>
</g>
<!-- Node1&#45;&gt;Node3 -->
<g id="edge2" class="edge">
<title>Node1&#45;&gt;Node3</title>
<path fill="none" stroke="midnightblue" d="M152.27,-79.3C162.84,-78.36 173.87,-77.38 184.87,-76.4"/>
<polygon fill="midnightblue" stroke="midnightblue" points="185.31,-79.87 194.96,-75.5 184.69,-72.9 185.31,-79.87"/>
</g>
<!-- Node4 -->
<g id="node4" class="node">
<title>Node4</title>
<g id="a_node4"><a xlink:href="../../d1/da2/class_user_manager.html#a0c464b2905659ab968549acfef58c915" target="_top" xlink:title="Cambia el nombre del usuario actual">
<polygon fill="white" stroke="black" points="619,-57.5 619,-76.5 774,-76.5 774,-57.5 619,-57.5"/>
<text text-anchor="middle" x="696.5" y="-64.5" font-family="Helvetica,sans-Serif" font-size="10.00">UserManager.ChangeUsername</text>
</a>
</g>
</g>
<!-- Node3&#45;&gt;Node4 -->
<g id="edge3" class="edge">
<title>Node3&#45;&gt;Node4</title>
<path fill="none" stroke="midnightblue" d="M360.25,-76.56C372,-79.06 383.97,-82.17 395,-86 412.09,-91.94 413.44,-100.65 431,-105 496.57,-121.24 516.34,-115.95 583,-105 611.53,-100.31 642.56,-89.36 664.8,-80.41"/>
<polygon fill="midnightblue" stroke="midnightblue" points="666.14,-83.64 674.05,-76.59 663.47,-77.17 666.14,-83.64"/>
</g>
<!-- Node5 -->
<g id="node5" class="node">
<title>Node5</title>
<g id="a_node5"><a xlink:href="../../d1/da2/class_user_manager.html#a7c046e0a03e5802e7b1936f6ecdefe9e" target="_top" xlink:title="Evalua si el usuario actual esta registrado">
<polygon fill="white" stroke="black" points="431,-76.5 431,-95.5 583,-95.5 583,-76.5 431,-76.5"/>
<text text-anchor="middle" x="507" y="-83.5" font-family="Helvetica,sans-Serif" font-size="10.00">UserManager.IsUserRegistered</text>
</a>
</g>
</g>
<!-- Node3&#45;&gt;Node5 -->
<g id="edge4" class="edge">
<title>Node3&#45;&gt;Node5</title>
<path fill="none" stroke="midnightblue" d="M388.01,-75.5C398.86,-76.47 409.87,-77.45 420.59,-78.4"/>
<polygon fill="midnightblue" stroke="midnightblue" points="420.48,-81.9 430.75,-79.3 421.1,-74.93 420.48,-81.9"/>
</g>
<!-- Node6 -->
<g id="node6" class="node">
<title>Node6</title>
<g id="a_node6"><a xlink:href="../../d3/dda/class_my_scene_manager.html#a6787f49b73d5e0c4e80fd67d38f5550a" target="_top" xlink:title="Carga la escena seleccionada">
<polygon fill="white" stroke="black" points="433.5,-38.5 433.5,-57.5 580.5,-57.5 580.5,-38.5 433.5,-38.5"/>
<text text-anchor="middle" x="507" y="-45.5" font-family="Helvetica,sans-Serif" font-size="10.00">MySceneManager.LoadScene</text>
</a>
</g>
</g>
<!-- Node3&#45;&gt;Node6 -->
<g id="edge5" class="edge">
<title>Node3&#45;&gt;Node6</title>
<path fill="none" stroke="midnightblue" d="M388.01,-58.5C399.77,-57.45 411.72,-56.39 423.28,-55.36"/>
<polygon fill="midnightblue" stroke="midnightblue" points="423.66,-58.84 433.31,-54.47 423.04,-51.87 423.66,-58.84"/>
</g>
<!-- Node7 -->
<g id="node7" class="node">
<title>Node7</title>
<g id="a_node7"><a xlink:href="../../d1/da2/class_user_manager.html#a5a0827078b96620181c5f6615c218dec" target="_top" xlink:title="Registra el nombre de usuario">
<polygon fill="white" stroke="black" points="452.5,-0.5 452.5,-19.5 561.5,-19.5 561.5,-0.5 452.5,-0.5"/>
<text text-anchor="middle" x="507" y="-7.5" font-family="Helvetica,sans-Serif" font-size="10.00">UserManager.SignUp</text>
</a>
</g>
</g>
<!-- Node3&#45;&gt;Node7 -->
<g id="edge6" class="edge">
<title>Node3&#45;&gt;Node7</title>
<path fill="none" stroke="midnightblue" d="M326.6,-57.44C354.6,-49.64 395.32,-38.41 431,-29 439.68,-26.71 448.94,-24.32 457.89,-22.04"/>
<polygon fill="midnightblue" stroke="midnightblue" points="458.98,-25.37 467.81,-19.52 457.25,-18.59 458.98,-25.37"/>
</g>
<!-- Node7&#45;&gt;Node4 -->
<g id="edge7" class="edge">
<title>Node7&#45;&gt;Node4</title>
<path fill="none" stroke="midnightblue" d="M548.25,-19.58C559.54,-22.44 571.79,-25.69 583,-29 608.72,-36.59 637.35,-46.28 659.29,-53.97"/>
<polygon fill="midnightblue" stroke="midnightblue" points="658.27,-57.32 668.86,-57.35 660.6,-50.72 658.27,-57.32"/>
</g>
</g>
</svg>
