<?xml version="1.0" encoding="UTF-8" standalone="no"?>
<!DOCTYPE svg PUBLIC "-//W3C//DTD SVG 1.1//EN"
 "http://www.w3.org/Graphics/SVG/1.1/DTD/svg11.dtd">
<!-- Generated by graphviz version 2.49.0 (20210828.1703)
 -->
<!-- Title: DynamicLinksInit Pages: 1 -->
<svg width="285pt" height="171pt"
 viewBox="0.00 0.00 285.00 171.00" xmlns="http://www.w3.org/2000/svg" xmlns:xlink="http://www.w3.org/1999/xlink">
<g id="graph0" class="graph" transform="scale(1 1) rotate(0) translate(4 167)">
<title>DynamicLinksInit</title>
<polygon fill="white" stroke="transparent" points="-4,4 -4,-167 281,-167 281,4 -4,4"/>
<!-- Node1 -->
<g id="node1" class="node">
<title>Node1</title>
<g id="a_node1"><a xlink:title="Inicializa los links dinámicos">
<polygon fill="#bfbfbf" stroke="black" points="0,-0.5 0,-68.5 277,-68.5 277,-0.5 0,-0.5"/>
<text text-anchor="middle" x="138.5" y="-56.5" font-family="Helvetica,sans-Serif" font-size="10.00">DynamicLinksInit</text>
<polyline fill="none" stroke="black" points="0,-49.5 277,-49.5 "/>
<text text-anchor="middle" x="138.5" y="-37.5" font-family="Helvetica,sans-Serif" font-size="10.00"> </text>
<polyline fill="none" stroke="black" points="0,-30.5 277,-30.5 "/>
<text text-anchor="start" x="8" y="-18.5" font-family="Helvetica,sans-Serif" font-size="10.00">&#45; void Start()</text>
<text text-anchor="start" x="8" y="-7.5" font-family="Helvetica,sans-Serif" font-size="10.00">&#45; async void OnDynamicLink(object sender, EventArgs args)</text>
</a>
</g>
</g>
<!-- Node2 -->
<g id="node2" class="node">
<title>Node2</title>
<g id="a_node2"><a xlink:title=" ">
<polygon fill="white" stroke="#bfbfbf" points="97,-105.5 97,-162.5 180,-162.5 180,-105.5 97,-105.5"/>
<text text-anchor="middle" x="138.5" y="-150.5" font-family="Helvetica,sans-Serif" font-size="10.00">MonoBehaviour</text>
<polyline fill="none" stroke="#bfbfbf" points="97,-143.5 180,-143.5 "/>
<text text-anchor="middle" x="138.5" y="-131.5" font-family="Helvetica,sans-Serif" font-size="10.00"> </text>
<polyline fill="none" stroke="#bfbfbf" points="97,-124.5 180,-124.5 "/>
<text text-anchor="middle" x="138.5" y="-112.5" font-family="Helvetica,sans-Serif" font-size="10.00"> </text>
</a>
</g>
</g>
<!-- Node2&#45;&gt;Node1 -->
<g id="edge1" class="edge">
<title>Node2&#45;&gt;Node1</title>
<path fill="none" stroke="midnightblue" d="M138.5,-95.06C138.5,-86.39 138.5,-77.24 138.5,-68.79"/>
<polygon fill="none" stroke="midnightblue" points="135,-95.32 138.5,-105.32 142,-95.32 135,-95.32"/>
</g>
</g>
</svg>
