<?xml version="1.0" encoding="UTF-8" standalone="no"?>
<!DOCTYPE svg PUBLIC "-//W3C//DTD SVG 1.1//EN"
 "http://www.w3.org/Graphics/SVG/1.1/DTD/svg11.dtd">
<!-- Generated by graphviz version 2.49.0 (20210828.1703)
 -->
<!-- Title: ARBrush Pages: 1 -->
<svg width="553pt" height="1100pt"
 viewBox="0.00 0.00 553.25 1100.00" xmlns="http://www.w3.org/2000/svg" xmlns:xlink="http://www.w3.org/1999/xlink">
<g id="graph0" class="graph" transform="scale(1 1) rotate(0) translate(4 1096)">
<title>ARBrush</title>
<polygon fill="white" stroke="transparent" points="-4,4 -4,-1096 549.25,-1096 549.25,4 -4,4"/>
<!-- Node1 -->
<g id="node1" class="node">
<title>Node1</title>
<g id="a_node1"><a xlink:title="Modela el comportamiento de la herramienta ARBrush">
<polygon fill="#bfbfbf" stroke="black" points="68.75,-0.5 68.75,-145.5 334.75,-145.5 334.75,-0.5 68.75,-0.5"/>
<text text-anchor="middle" x="201.75" y="-133.5" font-family="Helvetica,sans-Serif" font-size="10.00">ARBrush</text>
<polyline fill="none" stroke="black" points="68.75,-126.5 334.75,-126.5 "/>
<text text-anchor="start" x="76.75" y="-114.5" font-family="Helvetica,sans-Serif" font-size="10.00">&#45; PeerType myPeerType</text>
<text text-anchor="start" x="76.75" y="-103.5" font-family="Helvetica,sans-Serif" font-size="10.00">&#45; GameObject linePrefab</text>
<text text-anchor="start" x="76.75" y="-92.5" font-family="Helvetica,sans-Serif" font-size="10.00">&#45; Camera arCam</text>
<text text-anchor="start" x="76.75" y="-81.5" font-family="Helvetica,sans-Serif" font-size="10.00">&#45; ARRaycastManager arRaycastManager</text>
<text text-anchor="start" x="76.75" y="-70.5" font-family="Helvetica,sans-Serif" font-size="10.00">&#45; LineRenderer line</text>
<polyline fill="none" stroke="black" points="68.75,-63.5 334.75,-63.5 "/>
<text text-anchor="start" x="76.75" y="-51.5" font-family="Helvetica,sans-Serif" font-size="10.00">&#45; void Start()</text>
<text text-anchor="start" x="76.75" y="-40.5" font-family="Helvetica,sans-Serif" font-size="10.00">&#45; void Update()</text>
<text text-anchor="start" x="76.75" y="-29.5" font-family="Helvetica,sans-Serif" font-size="10.00">&#45; LineRenderer drawNextPointInLine(LineRenderer</text>
<text text-anchor="start" x="76.75" y="-18.5" font-family="Helvetica,sans-Serif" font-size="10.00"> line, UnityEngine.Vector3 point)</text>
<text text-anchor="start" x="76.75" y="-7.5" font-family="Helvetica,sans-Serif" font-size="10.00">&#45; LineRenderer createLineStart(UnityEngine.Vector3 start)</text>
</a>
</g>
</g>
<!-- Node2 -->
<g id="node2" class="node">
<title>Node2</title>
<g id="a_node2"><a xlink:title=" ">
<polygon fill="white" stroke="#bfbfbf" points="160.25,-1034.5 160.25,-1091.5 243.25,-1091.5 243.25,-1034.5 160.25,-1034.5"/>
<text text-anchor="middle" x="201.75" y="-1079.5" font-family="Helvetica,sans-Serif" font-size="10.00">MonoBehaviour</text>
<polyline fill="none" stroke="#bfbfbf" points="160.25,-1072.5 243.25,-1072.5 "/>
<text text-anchor="middle" x="201.75" y="-1060.5" font-family="Helvetica,sans-Serif" font-size="10.00"> </text>
<polyline fill="none" stroke="#bfbfbf" points="160.25,-1053.5 243.25,-1053.5 "/>
<text text-anchor="middle" x="201.75" y="-1041.5" font-family="Helvetica,sans-Serif" font-size="10.00"> </text>
</a>
</g>
</g>
<!-- Node2&#45;&gt;Node1 -->
<g id="edge1" class="edge">
<title>Node2&#45;&gt;Node1</title>
<path fill="none" stroke="midnightblue" d="M151.76,-1033.38C139.1,-1023.55 127.03,-1011.35 119.75,-997 -42.05,-678.23 -29.68,-527.38 96.75,-193 103.13,-176.12 113.12,-160.09 124.46,-145.57"/>
<polygon fill="none" stroke="midnightblue" points="149.98,-1036.41 160.12,-1039.49 154.11,-1030.76 149.98,-1036.41"/>
</g>
<!-- Node3 -->
<g id="node3" class="node">
<title>Node3</title>
<g id="a_node3"><a xlink:href="../../dc/d59/class_my_input_manager.html" target="_top" xlink:title="Mapea la entrada de usuario real con la que debería indicada para el contenido actual">
<polygon fill="white" stroke="black" points="106.25,-193.5 106.25,-404.5 297.25,-404.5 297.25,-193.5 106.25,-193.5"/>
<text text-anchor="middle" x="201.75" y="-392.5" font-family="Helvetica,sans-Serif" font-size="10.00">MyInputManager</text>
<polyline fill="none" stroke="black" points="106.25,-385.5 297.25,-385.5 "/>
<text text-anchor="start" x="114.25" y="-373.5" font-family="Helvetica,sans-Serif" font-size="10.00">+ PeerType myPeerType</text>
<text text-anchor="start" x="114.25" y="-362.5" font-family="Helvetica,sans-Serif" font-size="10.00">+ bool recording</text>
<text text-anchor="start" x="114.25" y="-351.5" font-family="Helvetica,sans-Serif" font-size="10.00">+ Vector3 hostPosition</text>
<text text-anchor="start" x="114.25" y="-340.5" font-family="Helvetica,sans-Serif" font-size="10.00">+ Vector3 clientPosition</text>
<text text-anchor="start" x="114.25" y="-329.5" font-family="Helvetica,sans-Serif" font-size="10.00">+ TouchScreenKeyboard clientKeyboard</text>
<text text-anchor="start" x="114.25" y="-318.5" font-family="Helvetica,sans-Serif" font-size="10.00">&#45; float scaledPixelRatioX</text>
<text text-anchor="start" x="114.25" y="-307.5" font-family="Helvetica,sans-Serif" font-size="10.00">&#45; float scaledPixelRatioY</text>
<text text-anchor="start" x="114.25" y="-296.5" font-family="Helvetica,sans-Serif" font-size="10.00">&#45; float clientAspectRatio</text>
<text text-anchor="start" x="114.25" y="-285.5" font-family="Helvetica,sans-Serif" font-size="10.00">&#45; int croppedScreenWidth</text>
<text text-anchor="start" x="114.25" y="-274.5" font-family="Helvetica,sans-Serif" font-size="10.00">&#45; int croppedScreenHeight</text>
<text text-anchor="start" x="114.25" y="-263.5" font-family="Helvetica,sans-Serif" font-size="10.00">&#45; int offsetX</text>
<text text-anchor="start" x="114.25" y="-252.5" font-family="Helvetica,sans-Serif" font-size="10.00">&#45; int offsetY</text>
<polyline fill="none" stroke="black" points="106.25,-245.5 297.25,-245.5 "/>
<text text-anchor="start" x="114.25" y="-233.5" font-family="Helvetica,sans-Serif" font-size="10.00">+ bool IsHeldDown(PeerType peer)</text>
<text text-anchor="start" x="114.25" y="-222.5" font-family="Helvetica,sans-Serif" font-size="10.00">&#45; void Awake()</text>
<text text-anchor="start" x="114.25" y="-211.5" font-family="Helvetica,sans-Serif" font-size="10.00">&#45; void Start()</text>
<text text-anchor="start" x="114.25" y="-200.5" font-family="Helvetica,sans-Serif" font-size="10.00">&#45; void Update()</text>
</a>
</g>
</g>
<!-- Node2&#45;&gt;Node3 -->
<g id="edge3" class="edge">
<title>Node2&#45;&gt;Node3</title>
<path fill="none" stroke="midnightblue" d="M173.21,-1025.74C167.68,-1016.82 162.69,-1006.95 159.75,-997 87.55,-752.23 140.31,-675.86 174.75,-423 175.56,-417.04 176.51,-410.95 177.56,-404.81"/>
<polygon fill="none" stroke="midnightblue" points="170.44,-1027.9 178.87,-1034.32 176.28,-1024.05 170.44,-1027.9"/>
</g>
<!-- Node4 -->
<g id="node4" class="node">
<title>Node4</title>
<g id="a_node4"><a xlink:href="../../d2/dba/class_video_manager.html" target="_top" xlink:title="Maneja la lógica de la grabación y visualización de video">
<polygon fill="white" stroke="black" points="169.25,-697.5 169.25,-996.5 358.25,-996.5 358.25,-697.5 169.25,-697.5"/>
<text text-anchor="middle" x="263.75" y="-984.5" font-family="Helvetica,sans-Serif" font-size="10.00">VideoManager</text>
<polyline fill="none" stroke="black" points="169.25,-977.5 358.25,-977.5 "/>
<text text-anchor="start" x="177.25" y="-965.5" font-family="Helvetica,sans-Serif" font-size="10.00">+ int width</text>
<text text-anchor="start" x="177.25" y="-954.5" font-family="Helvetica,sans-Serif" font-size="10.00">+ int height</text>
<text text-anchor="start" x="177.25" y="-943.5" font-family="Helvetica,sans-Serif" font-size="10.00">+ float aspectRatio</text>
<text text-anchor="start" x="177.25" y="-932.5" font-family="Helvetica,sans-Serif" font-size="10.00">+ ulong bitrate</text>
<text text-anchor="start" x="177.25" y="-921.5" font-family="Helvetica,sans-Serif" font-size="10.00">+ uint framerate</text>
<text text-anchor="start" x="177.25" y="-910.5" font-family="Helvetica,sans-Serif" font-size="10.00">+ bool isRecording</text>
<text text-anchor="start" x="177.25" y="-899.5" font-family="Helvetica,sans-Serif" font-size="10.00">+ RawImage videoRawImage</text>
<text text-anchor="start" x="177.25" y="-888.5" font-family="Helvetica,sans-Serif" font-size="10.00">+ VideoStreamTrack videoStreamTrack</text>
<text text-anchor="start" x="177.25" y="-877.5" font-family="Helvetica,sans-Serif" font-size="10.00">+ bool videoDisabled</text>
<text text-anchor="start" x="177.25" y="-866.5" font-family="Helvetica,sans-Serif" font-size="10.00">+ Camera mainCam</text>
<text text-anchor="start" x="177.25" y="-855.5" font-family="Helvetica,sans-Serif" font-size="10.00">+ ARSession arSession</text>
<text text-anchor="start" x="177.25" y="-844.5" font-family="Helvetica,sans-Serif" font-size="10.00">&#45; Camera arCam</text>
<text text-anchor="start" x="177.25" y="-833.5" font-family="Helvetica,sans-Serif" font-size="10.00">&#45; Camera webCam</text>
<text text-anchor="start" x="177.25" y="-822.5" font-family="Helvetica,sans-Serif" font-size="10.00">&#45; RawImage webCamRawImage</text>
<text text-anchor="start" x="177.25" y="-811.5" font-family="Helvetica,sans-Serif" font-size="10.00">&#45; WebCamTexture webcamTexture</text>
<text text-anchor="start" x="177.25" y="-800.5" font-family="Helvetica,sans-Serif" font-size="10.00">&#45; GameObject noVideoAR</text>
<text text-anchor="start" x="177.25" y="-789.5" font-family="Helvetica,sans-Serif" font-size="10.00">&#45; GameObject noVideoUI</text>
<text text-anchor="start" x="177.25" y="-778.5" font-family="Helvetica,sans-Serif" font-size="10.00">&#45; Canvas arToolTipsUI</text>
<polyline fill="none" stroke="black" points="169.25,-771.5 358.25,-771.5 "/>
<text text-anchor="start" x="177.25" y="-759.5" font-family="Helvetica,sans-Serif" font-size="10.00">+ VideoStreamTrack RecordCamera()</text>
<text text-anchor="start" x="177.25" y="-748.5" font-family="Helvetica,sans-Serif" font-size="10.00">+ void ShowVideo(bool show)</text>
<text text-anchor="start" x="177.25" y="-737.5" font-family="Helvetica,sans-Serif" font-size="10.00">+ bool ToggleVideo()</text>
<text text-anchor="start" x="177.25" y="-726.5" font-family="Helvetica,sans-Serif" font-size="10.00">&#45; void Awake()</text>
<text text-anchor="start" x="177.25" y="-715.5" font-family="Helvetica,sans-Serif" font-size="10.00">&#45; void Start()</text>
<text text-anchor="start" x="177.25" y="-704.5" font-family="Helvetica,sans-Serif" font-size="10.00">&#45; void OnApplicationPause(bool paused)</text>
</a>
</g>
</g>
<!-- Node2&#45;&gt;Node4 -->
<g id="edge5" class="edge">
<title>Node2&#45;&gt;Node4</title>
<path fill="none" stroke="midnightblue" d="M212.56,-1024.69C215.01,-1016.24 217.76,-1006.76 220.67,-996.7"/>
<polygon fill="none" stroke="midnightblue" points="209.15,-1023.88 209.73,-1034.46 215.87,-1025.83 209.15,-1023.88"/>
</g>
<!-- Node5 -->
<g id="node5" class="node">
<title>Node5</title>
<g id="a_node5"><a xlink:href="../../d7/d5d/class_a_r_tool_manager.html" target="_top" xlink:title="Maneja la lógica de las herramientas de RA">
<polygon fill="white" stroke="black" points="266.25,-423.5 266.25,-678.5 545.25,-678.5 545.25,-423.5 266.25,-423.5"/>
<text text-anchor="middle" x="405.75" y="-666.5" font-family="Helvetica,sans-Serif" font-size="10.00">ARToolManager</text>
<polyline fill="none" stroke="black" points="266.25,-659.5 545.25,-659.5 "/>
<text text-anchor="start" x="274.25" y="-647.5" font-family="Helvetica,sans-Serif" font-size="10.00">+ bool recording</text>
<text text-anchor="start" x="274.25" y="-636.5" font-family="Helvetica,sans-Serif" font-size="10.00">+ Material hostMaterial</text>
<text text-anchor="start" x="274.25" y="-625.5" font-family="Helvetica,sans-Serif" font-size="10.00">+ Material clientMaterial</text>
<text text-anchor="start" x="274.25" y="-614.5" font-family="Helvetica,sans-Serif" font-size="10.00">+ Material ColorRed</text>
<text text-anchor="start" x="274.25" y="-603.5" font-family="Helvetica,sans-Serif" font-size="10.00">+ Material ColorBlue</text>
<text text-anchor="start" x="274.25" y="-592.5" font-family="Helvetica,sans-Serif" font-size="10.00">+ Material ColorGreen</text>
<text text-anchor="start" x="274.25" y="-581.5" font-family="Helvetica,sans-Serif" font-size="10.00">+ Material ColorYellow</text>
<text text-anchor="start" x="274.25" y="-570.5" font-family="Helvetica,sans-Serif" font-size="10.00">+ GameObject guidePrefab</text>
<text text-anchor="start" x="274.25" y="-559.5" font-family="Helvetica,sans-Serif" font-size="10.00">+ static GameObject hostDrawings</text>
<text text-anchor="start" x="274.25" y="-548.5" font-family="Helvetica,sans-Serif" font-size="10.00">+ static GameObject clientDrawings</text>
<text text-anchor="start" x="274.25" y="-537.5" font-family="Helvetica,sans-Serif" font-size="10.00">+ static GameObject hostGuides</text>
<text text-anchor="start" x="274.25" y="-526.5" font-family="Helvetica,sans-Serif" font-size="10.00">+ static GameObject clientGuides</text>
<text text-anchor="start" x="274.25" y="-515.5" font-family="Helvetica,sans-Serif" font-size="10.00">&#45; GameObject hostTools</text>
<text text-anchor="start" x="274.25" y="-504.5" font-family="Helvetica,sans-Serif" font-size="10.00">&#45; GameObject clientTools</text>
<polyline fill="none" stroke="black" points="266.25,-497.5 545.25,-497.5 "/>
<text text-anchor="start" x="274.25" y="-485.5" font-family="Helvetica,sans-Serif" font-size="10.00">+ void SelectTool(PeerType peer, string toolName)</text>
<text text-anchor="start" x="274.25" y="-474.5" font-family="Helvetica,sans-Serif" font-size="10.00">+ void UndoDrawing(string peer)</text>
<text text-anchor="start" x="274.25" y="-463.5" font-family="Helvetica,sans-Serif" font-size="10.00">+ void DeleteDrawings(string peer)</text>
<text text-anchor="start" x="274.25" y="-452.5" font-family="Helvetica,sans-Serif" font-size="10.00">+ void SelectColor(PeerType peer, string color)</text>
<text text-anchor="start" x="274.25" y="-441.5" font-family="Helvetica,sans-Serif" font-size="10.00">+ GameObject PlaceGuide(PeerType peer, Transform target)</text>
<text text-anchor="start" x="274.25" y="-430.5" font-family="Helvetica,sans-Serif" font-size="10.00">&#45; void Awake()</text>
</a>
</g>
</g>
<!-- Node2&#45;&gt;Node5 -->
<g id="edge7" class="edge">
<title>Node2&#45;&gt;Node5</title>
<path fill="none" stroke="midnightblue" d="M253.5,-1056.16C291.5,-1048.94 340.98,-1032.85 367.75,-997 435.25,-906.6 438.3,-775.21 428.35,-678.63"/>
<polygon fill="none" stroke="midnightblue" points="252.86,-1052.71 243.61,-1057.88 254.07,-1059.61 252.86,-1052.71"/>
</g>
<!-- Node3&#45;&gt;Node1 -->
<g id="edge2" class="edge">
<title>Node3&#45;&gt;Node1</title>
<path fill="none" stroke="#404040" d="M201.75,-193.21C201.75,-181.42 201.75,-169.53 201.75,-158.05"/>
<polygon fill="none" stroke="#404040" points="201.75,-157.78 197.75,-151.78 201.75,-145.78 205.75,-151.78 201.75,-157.78"/>
<text text-anchor="middle" x="234.25" y="-167" font-family="Helvetica,sans-Serif" font-size="10.00"> &#45;inputManager</text>
</g>
<!-- Node4&#45;&gt;Node3 -->
<g id="edge4" class="edge">
<title>Node4&#45;&gt;Node3</title>
<path fill="none" stroke="#404040" d="M195.19,-697.22C193.51,-691.13 192.01,-685.04 190.75,-679 172.67,-592.48 176.58,-492.46 184.39,-416.89"/>
<polygon fill="none" stroke="#404040" points="184.44,-416.44 181.11,-410.04 185.73,-404.51 189.06,-410.9 184.44,-416.44"/>
<text text-anchor="middle" x="223.75" y="-548.5" font-family="Helvetica,sans-Serif" font-size="10.00"> &#45;videoManager</text>
</g>
<!-- Node5&#45;&gt;Node1 -->
<g id="edge6" class="edge">
<title>Node5&#45;&gt;Node1</title>
<path fill="none" stroke="#404040" d="M384.6,-423.35C369.35,-352.63 344.48,-264.62 305.75,-193 298.75,-180.05 290.11,-167.3 280.84,-155.24"/>
<polygon fill="none" stroke="#404040" points="280.74,-155.12 273.88,-152.9 273.28,-145.72 280.14,-147.93 280.74,-155.12"/>
<text text-anchor="middle" x="415.75" y="-296.5" font-family="Helvetica,sans-Serif" font-size="10.00"> &#45;aRToolManager</text>
</g>
</g>
</svg>
