<?xml version="1.0" encoding="UTF-8" standalone="no"?>
<!DOCTYPE svg PUBLIC "-//W3C//DTD SVG 1.1//EN"
 "http://www.w3.org/Graphics/SVG/1.1/DTD/svg11.dtd">
<!-- Generated by graphviz version 2.49.0 (20210828.1703)
 -->
<!-- Title: ARToolManager.DeleteDrawings Pages: 1 -->
<svg width="587pt" height="66pt"
 viewBox="0.00 0.00 587.00 66.00" xmlns="http://www.w3.org/2000/svg" xmlns:xlink="http://www.w3.org/1999/xlink">
<g id="graph0" class="graph" transform="scale(1 1) rotate(0) translate(4 62)">
<title>ARToolManager.DeleteDrawings</title>
<polygon fill="white" stroke="transparent" points="-4,4 -4,-62 583,-62 583,4 -4,4"/>
<!-- Node1 -->
<g id="node1" class="node">
<title>Node1</title>
<g id="a_node1"><a xlink:title="Elimina todos los trazos o marcadores del par seleccionado">
<polygon fill="#bfbfbf" stroke="black" points="423,-19.5 423,-38.5 579,-38.5 579,-19.5 423,-19.5"/>
<text text-anchor="middle" x="501" y="-26.5" font-family="Helvetica,sans-Serif" font-size="10.00">ARToolManager.DeleteDrawings</text>
</a>
</g>
</g>
<!-- Node2 -->
<g id="node2" class="node">
<title>Node2</title>
<g id="a_node2"><a xlink:href="../../d2/d48/class_peer_connection_manager.html#acce72dd729e1abda9e126f7c1bd317ce" target="_top" xlink:title="Crea los canales de datos">
<polygon fill="white" stroke="black" points="183,-38.5 183,-57.5 387,-57.5 387,-38.5 183,-38.5"/>
<text text-anchor="middle" x="285" y="-45.5" font-family="Helvetica,sans-Serif" font-size="10.00">PeerConnectionManager.AddDataChannels</text>
</a>
</g>
</g>
<!-- Node1&#45;&gt;Node2 -->
<g id="edge1" class="edge">
<title>Node1&#45;&gt;Node2</title>
<path fill="none" stroke="midnightblue" d="M412.66,-36.75C404.32,-37.49 395.82,-38.25 387.36,-39"/>
<polygon fill="midnightblue" stroke="midnightblue" points="413.09,-40.23 422.74,-35.86 412.47,-33.26 413.09,-40.23"/>
</g>
<!-- Node4 -->
<g id="node4" class="node">
<title>Node4</title>
<g id="a_node4"><a xlink:href="../../d0/d5f/class_toolbar_u_i_controller.html#a7c36bd2332e575e710320a80023b93de" target="_top" xlink:title="Llamada justo antes del primer fotograma">
<polygon fill="white" stroke="black" points="224,-0.5 224,-19.5 346,-19.5 346,-0.5 224,-0.5"/>
<text text-anchor="middle" x="285" y="-7.5" font-family="Helvetica,sans-Serif" font-size="10.00">ToolbarUIController.Start</text>
</a>
</g>
</g>
<!-- Node1&#45;&gt;Node4 -->
<g id="edge3" class="edge">
<title>Node1&#45;&gt;Node4</title>
<path fill="none" stroke="midnightblue" d="M412.56,-21.24C390.2,-19.25 366.66,-17.16 346.02,-15.33"/>
<polygon fill="midnightblue" stroke="midnightblue" points="412.47,-24.74 422.74,-22.14 413.09,-17.77 412.47,-24.74"/>
</g>
<!-- Node3 -->
<g id="node3" class="node">
<title>Node3</title>
<g id="a_node3"><a xlink:href="../../d2/d48/class_peer_connection_manager.html#a058148001392c4d6106cc784ec477256" target="_top" xlink:title="Llamada justo antes del primer fotograma">
<polygon fill="white" stroke="black" points="0,-38.5 0,-57.5 147,-57.5 147,-38.5 0,-38.5"/>
<text text-anchor="middle" x="73.5" y="-45.5" font-family="Helvetica,sans-Serif" font-size="10.00">PeerConnectionManager.Start</text>
</a>
</g>
</g>
<!-- Node2&#45;&gt;Node3 -->
<g id="edge2" class="edge">
<title>Node2&#45;&gt;Node3</title>
<path fill="none" stroke="midnightblue" d="M172.78,-48C164.14,-48 155.56,-48 147.27,-48"/>
<polygon fill="midnightblue" stroke="midnightblue" points="172.93,-51.5 182.93,-48 172.93,-44.5 172.93,-51.5"/>
</g>
</g>
</svg>
