<?xml version="1.0" encoding="UTF-8" standalone="no"?>
<!DOCTYPE svg PUBLIC "-//W3C//DTD SVG 1.1//EN"
 "http://www.w3.org/Graphics/SVG/1.1/DTD/svg11.dtd">
<!-- Generated by graphviz version 2.49.0 (20210828.1703)
 -->
<!-- Title: ARToolManager.SelectTool Pages: 1 -->
<svg width="565pt" height="104pt"
 viewBox="0.00 0.00 565.00 104.00" xmlns="http://www.w3.org/2000/svg" xmlns:xlink="http://www.w3.org/1999/xlink">
<g id="graph0" class="graph" transform="scale(1 1) rotate(0) translate(4 100)">
<title>ARToolManager.SelectTool</title>
<polygon fill="white" stroke="transparent" points="-4,4 -4,-100 561,-100 561,4 -4,4"/>
<!-- Node1 -->
<g id="node1" class="node">
<title>Node1</title>
<g id="a_node1"><a xlink:title="Selecciona la heramienta elegida para el par seleccionado">
<polygon fill="#bfbfbf" stroke="black" points="423,-38.5 423,-57.5 557,-57.5 557,-38.5 423,-38.5"/>
<text text-anchor="middle" x="490" y="-45.5" font-family="Helvetica,sans-Serif" font-size="10.00">ARToolManager.SelectTool</text>
</a>
</g>
</g>
<!-- Node2 -->
<g id="node2" class="node">
<title>Node2</title>
<g id="a_node2"><a xlink:href="../../d2/d48/class_peer_connection_manager.html#acce72dd729e1abda9e126f7c1bd317ce" target="_top" xlink:title="Crea los canales de datos">
<polygon fill="white" stroke="black" points="183,-76.5 183,-95.5 387,-95.5 387,-76.5 183,-76.5"/>
<text text-anchor="middle" x="285" y="-83.5" font-family="Helvetica,sans-Serif" font-size="10.00">PeerConnectionManager.AddDataChannels</text>
</a>
</g>
</g>
<!-- Node1&#45;&gt;Node2 -->
<g id="edge1" class="edge">
<title>Node1&#45;&gt;Node2</title>
<path fill="none" stroke="midnightblue" d="M428,-59.42C398.96,-64.86 364.62,-71.28 336.98,-76.46"/>
<polygon fill="midnightblue" stroke="midnightblue" points="428.85,-62.82 438.04,-57.54 427.56,-55.94 428.85,-62.82"/>
</g>
<!-- Node4 -->
<g id="node4" class="node">
<title>Node4</title>
<g id="a_node4"><a xlink:href="../../d7/d5d/class_a_r_tool_manager.html#a36e50f97d5c98b2c9a164ef2af404994" target="_top" xlink:title="Llamada al crear el GameObject asociado">
<polygon fill="white" stroke="black" points="226,-38.5 226,-57.5 344,-57.5 344,-38.5 226,-38.5"/>
<text text-anchor="middle" x="285" y="-45.5" font-family="Helvetica,sans-Serif" font-size="10.00">ARToolManager.Awake</text>
</a>
</g>
</g>
<!-- Node1&#45;&gt;Node4 -->
<g id="edge3" class="edge">
<title>Node1&#45;&gt;Node4</title>
<path fill="none" stroke="midnightblue" d="M412.56,-48C389.92,-48 365.52,-48 344.24,-48"/>
<polygon fill="midnightblue" stroke="midnightblue" points="412.81,-51.5 422.81,-48 412.81,-44.5 412.81,-51.5"/>
</g>
<!-- Node5 -->
<g id="node5" class="node">
<title>Node5</title>
<g id="a_node5"><a xlink:href="../../d0/d5f/class_toolbar_u_i_controller.html#a3ceadb76355e7695d534a76d7ec700de" target="_top" xlink:title="Intercambia el elemento actualmente seleccionado de una barra (herramienta o color) por el elemento q...">
<polygon fill="white" stroke="black" points="195,-0.5 195,-19.5 375,-19.5 375,-0.5 195,-0.5"/>
<text text-anchor="middle" x="285" y="-7.5" font-family="Helvetica,sans-Serif" font-size="10.00">ToolbarUIController.SelectBarElement</text>
</a>
</g>
</g>
<!-- Node1&#45;&gt;Node5 -->
<g id="edge4" class="edge">
<title>Node1&#45;&gt;Node5</title>
<path fill="none" stroke="midnightblue" d="M428,-36.58C398.96,-31.14 364.62,-24.72 336.98,-19.54"/>
<polygon fill="midnightblue" stroke="midnightblue" points="427.56,-40.06 438.04,-38.46 428.85,-33.18 427.56,-40.06"/>
</g>
<!-- Node3 -->
<g id="node3" class="node">
<title>Node3</title>
<g id="a_node3"><a xlink:href="../../d2/d48/class_peer_connection_manager.html#a058148001392c4d6106cc784ec477256" target="_top" xlink:title="Llamada justo antes del primer fotograma">
<polygon fill="white" stroke="black" points="0,-76.5 0,-95.5 147,-95.5 147,-76.5 0,-76.5"/>
<text text-anchor="middle" x="73.5" y="-83.5" font-family="Helvetica,sans-Serif" font-size="10.00">PeerConnectionManager.Start</text>
</a>
</g>
</g>
<!-- Node2&#45;&gt;Node3 -->
<g id="edge2" class="edge">
<title>Node2&#45;&gt;Node3</title>
<path fill="none" stroke="midnightblue" d="M172.78,-86C164.14,-86 155.56,-86 147.27,-86"/>
<polygon fill="midnightblue" stroke="midnightblue" points="172.93,-89.5 182.93,-86 172.93,-82.5 172.93,-89.5"/>
</g>
<!-- Node6 -->
<g id="node6" class="node">
<title>Node6</title>
<g id="a_node6"><a xlink:href="../../d0/d5f/class_toolbar_u_i_controller.html#a7c36bd2332e575e710320a80023b93de" target="_top" xlink:title="Llamada justo antes del primer fotograma">
<polygon fill="white" stroke="black" points="12.5,-0.5 12.5,-19.5 134.5,-19.5 134.5,-0.5 12.5,-0.5"/>
<text text-anchor="middle" x="73.5" y="-7.5" font-family="Helvetica,sans-Serif" font-size="10.00">ToolbarUIController.Start</text>
</a>
</g>
</g>
<!-- Node5&#45;&gt;Node6 -->
<g id="edge5" class="edge">
<title>Node5&#45;&gt;Node6</title>
<path fill="none" stroke="midnightblue" d="M184.82,-10C167.73,-10 150.44,-10 134.78,-10"/>
<polygon fill="midnightblue" stroke="midnightblue" points="184.85,-13.5 194.85,-10 184.85,-6.5 184.85,-13.5"/>
</g>
</g>
</svg>
