<?xml version="1.0" encoding="UTF-8" standalone="no"?>
<!DOCTYPE svg PUBLIC "-//W3C//DTD SVG 1.1//EN"
 "http://www.w3.org/Graphics/SVG/1.1/DTD/svg11.dtd">
<!-- Generated by graphviz version 2.49.0 (20210828.1703)
 -->
<!-- Title: OneSignalInit.Start Pages: 1 -->
<svg width="925pt" height="66pt"
 viewBox="0.00 0.00 925.00 66.00" xmlns="http://www.w3.org/2000/svg" xmlns:xlink="http://www.w3.org/1999/xlink">
<g id="graph0" class="graph" transform="scale(1 1) rotate(0) translate(4 62)">
<title>OneSignalInit.Start</title>
<polygon fill="white" stroke="transparent" points="-4,4 -4,-62 921,-62 921,4 -4,4"/>
<!-- Node1 -->
<g id="node1" class="node">
<title>Node1</title>
<g id="a_node1"><a xlink:title="Llamada justo antes del primer fotograma">
<polygon fill="#bfbfbf" stroke="black" points="0,-19.5 0,-38.5 98,-38.5 98,-19.5 0,-19.5"/>
<text text-anchor="middle" x="49" y="-26.5" font-family="Helvetica,sans-Serif" font-size="10.00">OneSignalInit.Start</text>
</a>
</g>
</g>
<!-- Node2 -->
<g id="node2" class="node">
<title>Node2</title>
<g id="a_node2"><a xlink:href="../../d2/d84/class_one_signal_init.html#a60c9495cb3e70bfdef56251b55c09420" target="_top" xlink:title="Llamada cuando un usuario abre una notificación">
<polygon fill="white" stroke="black" points="134,-19.5 134,-38.5 368,-38.5 368,-19.5 134,-19.5"/>
<text text-anchor="middle" x="251" y="-26.5" font-family="Helvetica,sans-Serif" font-size="10.00">OneSignalInit.OneSignalHandleNotificationOpened</text>
</a>
</g>
</g>
<!-- Node1&#45;&gt;Node2 -->
<g id="edge1" class="edge">
<title>Node1&#45;&gt;Node2</title>
<path fill="none" stroke="midnightblue" d="M98.16,-29C106.14,-29 114.72,-29 123.61,-29"/>
<polygon fill="midnightblue" stroke="midnightblue" points="123.75,-32.5 133.75,-29 123.75,-25.5 123.75,-32.5"/>
</g>
<!-- Node3 -->
<g id="node3" class="node">
<title>Node3</title>
<g id="a_node3"><a xlink:href="../../d2/d84/class_one_signal_init.html#afac945779fdf4efc92743adb600c2862" target="_top" xlink:title="Lee notificación y redirige a la videollamada correspondiente">
<polygon fill="white" stroke="black" points="404,-19.5 404,-38.5 559,-38.5 559,-19.5 404,-19.5"/>
<text text-anchor="middle" x="481.5" y="-26.5" font-family="Helvetica,sans-Serif" font-size="10.00">OneSignalInit.HandleNotification</text>
</a>
</g>
</g>
<!-- Node2&#45;&gt;Node3 -->
<g id="edge2" class="edge">
<title>Node2&#45;&gt;Node3</title>
<path fill="none" stroke="midnightblue" d="M368.26,-29C376.8,-29 385.33,-29 393.65,-29"/>
<polygon fill="midnightblue" stroke="midnightblue" points="393.69,-32.5 403.69,-29 393.69,-25.5 393.69,-32.5"/>
</g>
<!-- Node3&#45;&gt;Node3 -->
<g id="edge3" class="edge">
<title>Node3&#45;&gt;Node3</title>
<path fill="none" stroke="midnightblue" d="M454.37,-38.76C441.18,-47.57 450.22,-57 481.5,-57 503.01,-57 514,-52.54 514.48,-46.89"/>
<polygon fill="midnightblue" stroke="midnightblue" points="517.31,-44.83 508.63,-38.76 511.63,-48.92 517.31,-44.83"/>
</g>
<!-- Node4 -->
<g id="node4" class="node">
<title>Node4</title>
<g id="a_node4"><a xlink:href="../../d2/d43/class_room_manager.html#a022ae9cafc8dedb55ca839e0d99c5b44" target="_top" xlink:title="Mueve un par a una sala">
<polygon fill="white" stroke="black" points="595,-19.5 595,-38.5 720,-38.5 720,-19.5 595,-19.5"/>
<text text-anchor="middle" x="657.5" y="-26.5" font-family="Helvetica,sans-Serif" font-size="10.00">RoomManager.JoinRoom</text>
</a>
</g>
</g>
<!-- Node3&#45;&gt;Node4 -->
<g id="edge4" class="edge">
<title>Node3&#45;&gt;Node4</title>
<path fill="none" stroke="midnightblue" d="M559.07,-29C567.56,-29 576.19,-29 584.62,-29"/>
<polygon fill="midnightblue" stroke="midnightblue" points="584.78,-32.5 594.78,-29 584.78,-25.5 584.78,-32.5"/>
</g>
<!-- Node5 -->
<g id="node5" class="node">
<title>Node5</title>
<g id="a_node5"><a xlink:href="../../d3/dda/class_my_scene_manager.html#a6787f49b73d5e0c4e80fd67d38f5550a" target="_top" xlink:title="Carga la escena seleccionada">
<polygon fill="white" stroke="black" points="763,-38.5 763,-57.5 910,-57.5 910,-38.5 763,-38.5"/>
<text text-anchor="middle" x="836.5" y="-45.5" font-family="Helvetica,sans-Serif" font-size="10.00">MySceneManager.LoadScene</text>
</a>
</g>
</g>
<!-- Node4&#45;&gt;Node5 -->
<g id="edge5" class="edge">
<title>Node4&#45;&gt;Node5</title>
<path fill="none" stroke="midnightblue" d="M720.41,-35.65C730.86,-36.77 741.87,-37.95 752.75,-39.12"/>
<polygon fill="midnightblue" stroke="midnightblue" points="752.38,-42.6 762.7,-40.19 753.13,-35.64 752.38,-42.6"/>
</g>
<!-- Node6 -->
<g id="node6" class="node">
<title>Node6</title>
<g id="a_node6"><a xlink:href="../../d5/dd7/class_database_manager.html#a26b78f4ef7989b67f825194863df0357" target="_top" xlink:title="Evalua si un código de sala existe en base de datos">
<polygon fill="white" stroke="black" points="756,-0.5 756,-19.5 917,-19.5 917,-0.5 756,-0.5"/>
<text text-anchor="middle" x="836.5" y="-7.5" font-family="Helvetica,sans-Serif" font-size="10.00">DatabaseManager.RoomIDExists</text>
</a>
</g>
</g>
<!-- Node4&#45;&gt;Node6 -->
<g id="edge6" class="edge">
<title>Node4&#45;&gt;Node6</title>
<path fill="none" stroke="midnightblue" d="M720.41,-22.35C728.65,-21.47 737.23,-20.55 745.82,-19.63"/>
<polygon fill="midnightblue" stroke="midnightblue" points="746.33,-23.09 755.9,-18.55 745.58,-16.13 746.33,-23.09"/>
</g>
</g>
</svg>
