<?xml version="1.0" encoding="UTF-8" standalone="no"?>
<!DOCTYPE svg PUBLIC "-//W3C//DTD SVG 1.1//EN"
 "http://www.w3.org/Graphics/SVG/1.1/DTD/svg11.dtd">
<!-- Generated by graphviz version 2.49.0 (20210828.1703)
 -->
<!-- Title: OneSignalInit.HandleNotification Pages: 1 -->
<svg width="567pt" height="46pt"
 viewBox="0.00 0.00 567.00 46.00" xmlns="http://www.w3.org/2000/svg" xmlns:xlink="http://www.w3.org/1999/xlink">
<g id="graph0" class="graph" transform="scale(1 1) rotate(0) translate(4 42)">
<title>OneSignalInit.HandleNotification</title>
<polygon fill="white" stroke="transparent" points="-4,4 -4,-42 563,-42 563,4 -4,4"/>
<!-- Node1 -->
<g id="node1" class="node">
<title>Node1</title>
<g id="a_node1"><a xlink:title="Lee notificación y redirige a la videollamada correspondiente">
<polygon fill="#bfbfbf" stroke="black" points="404,-0.5 404,-19.5 559,-19.5 559,-0.5 404,-0.5"/>
<text text-anchor="middle" x="481.5" y="-7.5" font-family="Helvetica,sans-Serif" font-size="10.00">OneSignalInit.HandleNotification</text>
</a>
</g>
</g>
<!-- Node1&#45;&gt;Node1 -->
<g id="edge1" class="edge">
<title>Node1&#45;&gt;Node1</title>
<path fill="none" stroke="midnightblue" d="M524.4,-26.22C526.63,-32.63 512.33,-38 481.5,-38 440.4,-38 428.68,-28.46 446.34,-19.61"/>
<polygon fill="midnightblue" stroke="midnightblue" points="526.54,-23.44 516.66,-19.61 521.99,-28.77 526.54,-23.44"/>
</g>
<!-- Node2 -->
<g id="node2" class="node">
<title>Node2</title>
<g id="a_node2"><a xlink:href="../../d2/d84/class_one_signal_init.html#a60c9495cb3e70bfdef56251b55c09420" target="_top" xlink:title="Llamada cuando un usuario abre una notificación">
<polygon fill="white" stroke="black" points="134,-0.5 134,-19.5 368,-19.5 368,-0.5 134,-0.5"/>
<text text-anchor="middle" x="251" y="-7.5" font-family="Helvetica,sans-Serif" font-size="10.00">OneSignalInit.OneSignalHandleNotificationOpened</text>
</a>
</g>
</g>
<!-- Node1&#45;&gt;Node2 -->
<g id="edge2" class="edge">
<title>Node1&#45;&gt;Node2</title>
<path fill="none" stroke="midnightblue" d="M393.76,-10C385.44,-10 376.93,-10 368.39,-10"/>
<polygon fill="midnightblue" stroke="midnightblue" points="393.78,-13.5 403.78,-10 393.78,-6.5 393.78,-13.5"/>
</g>
<!-- Node3 -->
<g id="node3" class="node">
<title>Node3</title>
<g id="a_node3"><a xlink:href="../../d2/d84/class_one_signal_init.html#a71d28b5a62bca248554c5e5d89d20a41" target="_top" xlink:title="Llamada justo antes del primer fotograma">
<polygon fill="white" stroke="black" points="0,-0.5 0,-19.5 98,-19.5 98,-0.5 0,-0.5"/>
<text text-anchor="middle" x="49" y="-7.5" font-family="Helvetica,sans-Serif" font-size="10.00">OneSignalInit.Start</text>
</a>
</g>
</g>
<!-- Node2&#45;&gt;Node3 -->
<g id="edge3" class="edge">
<title>Node2&#45;&gt;Node3</title>
<path fill="none" stroke="midnightblue" d="M123.72,-10C114.77,-10 106.11,-10 98.08,-10"/>
<polygon fill="midnightblue" stroke="midnightblue" points="123.95,-13.5 133.95,-10 123.95,-6.5 123.95,-13.5"/>
</g>
</g>
</svg>
