<?xml version="1.0" encoding="UTF-8" standalone="no"?>
<!DOCTYPE svg PUBLIC "-//W3C//DTD SVG 1.1//EN"
 "http://www.w3.org/Graphics/SVG/1.1/DTD/svg11.dtd">
<!-- Generated by graphviz version 2.49.0 (20210828.1703)
 -->
<!-- Title: OneSignalInit.OneSignalHandleNotificationOpened Pages: 1 -->
<svg width="791pt" height="66pt"
 viewBox="0.00 0.00 791.00 66.00" xmlns="http://www.w3.org/2000/svg" xmlns:xlink="http://www.w3.org/1999/xlink">
<g id="graph0" class="graph" transform="scale(1 1) rotate(0) translate(4 62)">
<title>OneSignalInit.OneSignalHandleNotificationOpened</title>
<polygon fill="white" stroke="transparent" points="-4,4 -4,-62 787,-62 787,4 -4,4"/>
<!-- Node1 -->
<g id="node1" class="node">
<title>Node1</title>
<g id="a_node1"><a xlink:title="Llamada cuando un usuario abre una notificación">
<polygon fill="#bfbfbf" stroke="black" points="0,-19.5 0,-38.5 234,-38.5 234,-19.5 0,-19.5"/>
<text text-anchor="middle" x="117" y="-26.5" font-family="Helvetica,sans-Serif" font-size="10.00">OneSignalInit.OneSignalHandleNotificationOpened</text>
</a>
</g>
</g>
<!-- Node2 -->
<g id="node2" class="node">
<title>Node2</title>
<g id="a_node2"><a xlink:href="../../d2/d84/class_one_signal_init.html#afac945779fdf4efc92743adb600c2862" target="_top" xlink:title="Lee notificación y redirige a la videollamada correspondiente">
<polygon fill="white" stroke="black" points="270,-19.5 270,-38.5 425,-38.5 425,-19.5 270,-19.5"/>
<text text-anchor="middle" x="347.5" y="-26.5" font-family="Helvetica,sans-Serif" font-size="10.00">OneSignalInit.HandleNotification</text>
</a>
</g>
</g>
<!-- Node1&#45;&gt;Node2 -->
<g id="edge1" class="edge">
<title>Node1&#45;&gt;Node2</title>
<path fill="none" stroke="midnightblue" d="M234.26,-29C242.8,-29 251.33,-29 259.65,-29"/>
<polygon fill="midnightblue" stroke="midnightblue" points="259.69,-32.5 269.69,-29 259.69,-25.5 259.69,-32.5"/>
</g>
<!-- Node2&#45;&gt;Node2 -->
<g id="edge2" class="edge">
<title>Node2&#45;&gt;Node2</title>
<path fill="none" stroke="midnightblue" d="M320.37,-38.76C307.18,-47.57 316.22,-57 347.5,-57 369.01,-57 380,-52.54 380.48,-46.89"/>
<polygon fill="midnightblue" stroke="midnightblue" points="383.31,-44.83 374.63,-38.76 377.63,-48.92 383.31,-44.83"/>
</g>
<!-- Node3 -->
<g id="node3" class="node">
<title>Node3</title>
<g id="a_node3"><a xlink:href="../../d2/d43/class_room_manager.html#a022ae9cafc8dedb55ca839e0d99c5b44" target="_top" xlink:title="Mueve un par a una sala">
<polygon fill="white" stroke="black" points="461,-19.5 461,-38.5 586,-38.5 586,-19.5 461,-19.5"/>
<text text-anchor="middle" x="523.5" y="-26.5" font-family="Helvetica,sans-Serif" font-size="10.00">RoomManager.JoinRoom</text>
</a>
</g>
</g>
<!-- Node2&#45;&gt;Node3 -->
<g id="edge3" class="edge">
<title>Node2&#45;&gt;Node3</title>
<path fill="none" stroke="midnightblue" d="M425.07,-29C433.56,-29 442.19,-29 450.62,-29"/>
<polygon fill="midnightblue" stroke="midnightblue" points="450.78,-32.5 460.78,-29 450.78,-25.5 450.78,-32.5"/>
</g>
<!-- Node4 -->
<g id="node4" class="node">
<title>Node4</title>
<g id="a_node4"><a xlink:href="../../d3/dda/class_my_scene_manager.html#a6787f49b73d5e0c4e80fd67d38f5550a" target="_top" xlink:title="Carga la escena seleccionada">
<polygon fill="white" stroke="black" points="629,-38.5 629,-57.5 776,-57.5 776,-38.5 629,-38.5"/>
<text text-anchor="middle" x="702.5" y="-45.5" font-family="Helvetica,sans-Serif" font-size="10.00">MySceneManager.LoadScene</text>
</a>
</g>
</g>
<!-- Node3&#45;&gt;Node4 -->
<g id="edge4" class="edge">
<title>Node3&#45;&gt;Node4</title>
<path fill="none" stroke="midnightblue" d="M586.41,-35.65C596.86,-36.77 607.87,-37.95 618.75,-39.12"/>
<polygon fill="midnightblue" stroke="midnightblue" points="618.38,-42.6 628.7,-40.19 619.13,-35.64 618.38,-42.6"/>
</g>
<!-- Node5 -->
<g id="node5" class="node">
<title>Node5</title>
<g id="a_node5"><a xlink:href="../../d5/dd7/class_database_manager.html#a26b78f4ef7989b67f825194863df0357" target="_top" xlink:title="Evalua si un código de sala existe en base de datos">
<polygon fill="white" stroke="black" points="622,-0.5 622,-19.5 783,-19.5 783,-0.5 622,-0.5"/>
<text text-anchor="middle" x="702.5" y="-7.5" font-family="Helvetica,sans-Serif" font-size="10.00">DatabaseManager.RoomIDExists</text>
</a>
</g>
</g>
<!-- Node3&#45;&gt;Node5 -->
<g id="edge5" class="edge">
<title>Node3&#45;&gt;Node5</title>
<path fill="none" stroke="midnightblue" d="M586.41,-22.35C594.65,-21.47 603.23,-20.55 611.82,-19.63"/>
<polygon fill="midnightblue" stroke="midnightblue" points="612.33,-23.09 621.9,-18.55 611.58,-16.13 612.33,-23.09"/>
</g>
</g>
</svg>
